<?xml version="1.0" encoding="UTF-8"?>
<svg id="Layer_1" data-name="Layer 1" xmlns="http://www.w3.org/2000/svg" viewBox="0 0 798 494">
  <defs>
    <style>
      .cls-1 {
        fill: #999;
        font-size: 164.6898px;
        letter-spacing: .04em;
      }

      .cls-1, .cls-2 {
        font-family: Gibson-Medium, Gibson;
        font-weight: 500;
      }

      .cls-2 {
        font-size: 15.6893px;
      }

      .cls-2, .cls-3 {
        fill: #231f20;
      }

      .cls-4 {
        font-family: Gibson-Book, Gibson;
        font-size: 13.946px;
      }

      .cls-5 {
        letter-spacing: .065em;
      }

      .cls-6 {
        letter-spacing: .015em;
      }

      .cls-7 {
        letter-spacing: .045em;
      }

      .cls-8 {
        fill: #ee2b2f;
      }

      .cls-9 {
        letter-spacing: .0401em;
      }

      .cls-10 {
        letter-spacing: .04em;
      }

      .cls-11 {
        letter-spacing: .04em;
      }

      .cls-12 {
        letter-spacing: .04em;
      }
    </style>
  </defs>
  <text class="cls-1" transform="translate(306.3471 284.6755)"><tspan x="0" y="0">=</tspan></text>
  <text transform="translate(127.8355 326.6511)"><tspan class="cls-2"><tspan class="cls-5" x="0" y="0">C</tspan><tspan class="cls-10" x="11.3271" y="0">at</tspan><tspan class="cls-7" x="25.918" y="0">e</tspan><tspan class="cls-11" x="35.1436" y="0">gory 5</tspan></tspan><tspan class="cls-4"><tspan class="cls-12" x="9.5986" y="27.0205">1</tspan><tspan class="cls-6" x="16.083" y="27.0205">5</tspan><tspan class="cls-9" x="24.2832" y="27.0205">7+ mph</tspan></tspan></text>
  <g id="_8J29PC" data-name="8J29PC">
    <path class="cls-8" d="M119.2026,301.1158c-.3594-.5327.501-.5724.8475-.7171,1.3065-.5456,3.024-1.02,4.2553-1.5942,9.1415-4.2629,19.4243-12.8169,27.0794-19.4693,1.1166-.9704,11.0281-9.5917,10.6719-10.2412-27.8417-7.1914-46.7588-33.7215-44.1439-62.5271,2.924-32.2106,32.2649-54.6313,59.8195-67.0348,17.9549-8.0822,37.2371-13.067,56.4645-16.7984.359.534-.5008.5723-.8477.7177-2.75,1.1526-5.2144,1.996-7.8681,3.4831-6.812,3.8175-13.8196,9.431-19.8284,14.4408-4.9878,4.1586-9.6354,8.7043-14.5516,12.9362-.1487.6029,2.8646.9822,3.5171,1.1957,37.0546,12.1229,52.6202,55.4673,31.7531,88.2999-15.1978,23.9125-41.9656,38.1765-68.0899,47.2814-12.7271,4.4357-25.8827,7.4961-39.0788,10.0273ZM182.22,187.1359c-33.072-7.1264-43.351,42.6863-10.6469,49.5203,32.6052,6.8134,42.8666-42.5776,10.6469-49.5203Z"/>
  </g>
  <g id="HocYdj.tif">
    <path d="M525.6102,142.1679c3.2268.2191,8.4714.8795,12.2683,1.2812,9.5066,1.0056,10.2053,7.5269,14.4399,8.7808,4.0901,1.2111,11.478-1.0169,14.6245.8598,3.6509,5.9764-5.416,5.7574-9.0648,6.4798l44.1212,53.2585,59.4456,7.0171c3.0003.1583,4.7819,3.9354,7.014,4.5966,4.3983,1.303,10.4587-.9844,15.1144,1.4206l.5853,5.1198c-4.716,2.8288-11.1155.3558-15.6997,1.7118-2.0771.6144-3.5191,3.5923-7.014,4.5966-13.6293,3.9168-35.0243,3.2198-49.8713,5.6128-2.83.4561-5.7139,1.0834-8.4809,1.8412l-45.2146,55.4007c5.0441,1.4181,13.0569-1.3573,8.8311,6.9079l-14.4103.4117-8.2698,8.5004-24.7949,1.5077c-.3834-1.8067-.0948-3.6124.2333-5.403,3.6518-19.9278,14.879-42.4714,18.7603-62.5611,1.0067-5.2104-3.0292-6.8762-6.8785-4.2865-5.6827,3.8232-15.2506,22.2612-21.2202,27.8493-3.282,2.0277-13.9228-1.1906-14.2719-5.1952-.3393-3.8922,11.1193-26.0756,9.1118-27.6979-7.9773,1.109-10.5392-3.2059-14.2-9.0315v-5.1582c2.3631-1.9561,2.5355-5.1779,5.1773-7.0781,3.0285-2.1783,6.9211-1.158,8.9537-3.9713.7346-3.3922-9.4452-21.063-9.0428-25.68.3491-4.0058,10.9909-7.222,14.2719-5.1952,5.975,5.595,15.5297,24.0163,21.2203,27.8491,2.8458,1.9167,4.1426.6631,7.1192-.1881,1.975-2.7012-17.2594-55.1959-19.0416-64.1111-.6369-3.186-.6537-3.8945,2.3121-5.446,1.2759.0605,2.5992-.0864,3.8713,0ZM628.8381,235.0212l11.6468-1.9078c4.9646-9.7276-3.213-11.9611-11.6468-10.9991v12.9069ZM622.3915,235.0155v-12.8955h-20.0015c-4.84,0-4.841,12.8955,0,12.8955h20.0015ZM501.0923,231.1469h39.3577l1.9298-3.2069-1.9298-1.9513h-39.3577v5.1582Z"/>
  </g>
  <g>
    <path class="cls-3" d="M479.3794,339.6236v9.1289h3.7803v1.6943h-5.8037v-10.8232h2.0234Z"/>
    <path class="cls-3" d="M484.8081,340.5337c0-.6436.502-1.1143,1.208-1.1143s1.208.4707,1.208,1.1143c0,.6582-.502,1.1133-1.208,1.1133s-1.208-.4551-1.208-1.1133ZM487.02,342.855v7.5918h-2.0078v-7.5918h2.0078Z"/>
    <path class="cls-3" d="M491.6323,347.8277v2.6191h-1.9922v-10.8232h1.9922v6.1963l2.7451-2.9648h2.2119l-2.8076,2.8701,3.1836,4.7217h-2.3213l-2.2119-3.4668-.7998.8477Z"/>
    <path class="cls-3" d="M502.1596,349.0825c1.0195,0,1.9297-.4551,2.29-.7695l.7842,1.083c-.4229.4395-1.5684,1.2236-3.4189,1.2236-2.291,0-3.9844-1.3965-3.9844-3.8438,0-2.4307,1.7725-4.0625,3.9365-4.0625,2.3379,0,3.749,1.5371,3.749,3.5605,0,.3926-.0312,1.0195-.0312,1.0195h-5.584c.1885,1.208,1.1133,1.7891,2.2588,1.7891ZM499.8696,345.9917h3.6387c-.0312-.8311-.3447-1.7881-1.7568-1.7881-1.1914,0-1.8193.8311-1.8818,1.7881Z"/>
    <path class="cls-3" d="M518.3344,347.2935c0,2.0078-1.4746,3.3418-3.7646,3.3418-1.8506,0-3.1211-.8633-3.8271-1.6787l.9727-1.4746c.8467.9258,1.8662,1.4277,2.8857,1.4277,1.0039,0,1.6943-.4863,1.6943-1.4277,0-.8467-.5645-1.1289-1.4902-1.5059l-1.6943-.6748c-1.1758-.4697-1.9609-1.3018-1.9609-2.6191,0-1.8818,1.4746-3.1846,3.749-3.1846,1.5371,0,2.6514.6436,3.2949,1.3027l-.9727,1.458c-.6904-.627-1.5215-1.082-2.4473-1.082-.8945,0-1.5996.4395-1.5996,1.2393,0,.7842.6738,1.082,1.2383,1.3174l1.8047.7373c1.5215.6279,2.1172,1.4746,2.1172,2.8232Z"/>
    <path class="cls-3" d="M523.6079,348.9409c.4072,0,.7207-.126.7207-.126l.1104,1.5537c-.0938.0312-.6904.251-1.5371.251-1.5527,0-2.1963-.7061-2.1963-2.6826v-3.5137h-1.1289v-1.5527h1.1289v-2.165h1.9922v2.165h1.7568v1.5527h-1.7568v3.0742c0,1.1611.2041,1.4434.9102,1.4434Z"/>
    <path class="cls-3" d="M528.3139,350.6197c-1.4746,0-2.667-.8008-2.667-2.3848s1.5537-2.1963,3.1221-2.3057l1.8193-.126v-.2031c0-.9727-.6426-1.4277-1.6943-1.4277-1.0039,0-1.835.377-2.1641.627l-.6123-1.2861c.5811-.3447,1.6475-.7998,2.9648-.7998,1.3486,0,2.1172.3457,2.6826.8789.5488.5332.8311,1.2236.8311,2.5098v4.3447h-1.9297l-.0312-.8779c-.3135.5488-1.1914,1.0508-2.3213,1.0508ZM527.6547,348.1724c0,.6426.4863,1.082,1.3184,1.082.7842,0,1.3643-.4551,1.6309-.8311v-1.3965l-1.3643.0791c-1.0674.0625-1.585.4229-1.585,1.0664Z"/>
    <path class="cls-3" d="M538.6215,344.3609c-1.2393,0-1.6621,1.0352-1.6621,2.3057v3.7803h-2.0078v-7.5918h2.0078l-.0156,1.1445h.0469c.4072-.7998,1.1758-1.2861,2.2744-1.2861,2.1807,0,2.7295,1.4121,2.7295,3.2314v4.502h-2.0078v-4.0625c0-1.1299-.2041-2.0234-1.3652-2.0234Z"/>
    <path class="cls-3" d="M550.1528,349.2544c-.6123.9727-1.5537,1.3652-2.6045,1.3652-2.2275,0-3.5918-1.7256-3.5918-3.9844,0-2.1494,1.4268-3.9219,3.7334-3.9219,1.0195,0,1.8818.377,2.415,1.1924h.0312c-.0156-.3447-.0156-.7529-.0156-1.2861v-2.9961h1.9922v10.8232h-1.8975l-.0156-1.1924h-.0469ZM550.1684,346.6353c0-1.2705-.832-2.3848-2.1182-2.3848-1.3018,0-2.0547,1.1143-2.0547,2.3848,0,1.3174.8154,2.3525,2.1172,2.3525,1.208,0,2.0557-.9248,2.0557-2.3525Z"/>
    <path class="cls-3" d="M554.5307,340.5337c0-.6436.502-1.1143,1.208-1.1143s1.208.4707,1.208,1.1143c0,.6582-.502,1.1133-1.208,1.1133s-1.208-.4551-1.208-1.1133ZM556.7426,342.855v7.5918h-2.0078v-7.5918h2.0078Z"/>
    <path class="cls-3" d="M562.9545,344.3609c-1.2393,0-1.6621,1.0352-1.6621,2.3057v3.7803h-2.0078v-7.5918h2.0078l-.0156,1.1445h.0469c.4072-.7998,1.1768-1.2861,2.2744-1.2861,2.1807,0,2.7295,1.4121,2.7295,3.2314v4.502h-2.0078v-4.0625c0-1.1299-.2041-2.0234-1.3652-2.0234Z"/>
    <path class="cls-3" d="M571.8354,350.1958c-1.9141,0-3.5449-1.2236-3.5449-3.6387,0-2.1025,1.4746-3.8438,3.7334-3.8438,1.0195,0,1.8818.377,2.415,1.1924h.0312l-.0156-1.0508h1.9922v6.0234c0,1.6621-.3447,2.6035-.9883,3.2783-.6582.6904-1.6309,1.333-3.4502,1.333-1.8047,0-3.1533-.8623-3.5293-1.1289l.8311-1.3965c.4863.3447,1.7256.8945,2.6982.8945,1.082,0,1.6465-.3457,1.9287-.6748s.5176-.957.5176-1.8037v-.377h-.0312c-.5176.7842-1.4268,1.1924-2.5879,1.1924ZM572.4311,344.2974c-1.3174,0-2.1016.9727-2.1016,2.2119,0,1.1611.7529,2.1182,2.0703,2.1182,1.4434,0,2.165-.957,2.165-2.1182,0-1.0977-.8154-2.2119-2.1338-2.2119Z"/>
    <path class="cls-3" d="M586.3159,339.6236c.8789,0,1.6943.0781,2.4004.4238.8467.4072,1.3955,1.0664,1.3955,2.3057,0,1.3174-.9727,2.0859-1.6777,2.3682v.0312c1.3955.3145,2.3213,1.2236,2.3213,2.6045,0,1.1758-.5488,2.0234-1.2861,2.4941-.6748.4229-1.6318.5957-2.667.5957h-3.9531v-10.8232h3.4668ZM587.4458,343.8745c.376-.2354.5957-.6123.5957-1.2549,0-.9414-.7373-1.3965-1.7881-1.3965h-1.3652v2.918h1.2705c.5654,0,.957-.0625,1.2871-.2666ZM588.0883,348.5484c.3613-.2354.5967-.7207.5967-1.2861,0-.5957-.2666-1.0039-.6748-1.2861s-.8311-.3447-1.459-.3447h-1.6631v3.2158h1.7568c.5176,0,1.0195-.0156,1.4434-.2988Z"/>
    <path class="cls-3" d="M596.6401,349.0825c1.0195,0,1.9297-.4551,2.29-.7695l.7842,1.083c-.4229.4395-1.5684,1.2236-3.4189,1.2236-2.291,0-3.9844-1.3965-3.9844-3.8438,0-2.4307,1.7725-4.0625,3.9365-4.0625,2.3379,0,3.749,1.5371,3.749,3.5605,0,.3926-.0312,1.0195-.0312,1.0195h-5.584c.1885,1.208,1.1133,1.7891,2.2588,1.7891ZM594.3501,345.9917h3.6387c-.0312-.8311-.3447-1.7881-1.7568-1.7881-1.1914,0-1.8193.8311-1.8818,1.7881Z"/>
    <path class="cls-3" d="M609.0649,345.9449v4.502h-2.0078v-4.0625c0-1.1299-.2041-2.0234-1.3643-2.0234-1.2393,0-1.6631,1.0352-1.6631,2.3057v3.7803h-1.9922v-10.8232h1.9922v4.376h.0312c.4082-.7998,1.1768-1.2861,2.2744-1.2861,2.1807,0,2.7295,1.4121,2.7295,3.2314Z"/>
    <path class="cls-3" d="M611.3569,340.5337c0-.6436.502-1.1143,1.208-1.1143s1.208.4707,1.208,1.1143c0,.6582-.502,1.1133-1.208,1.1133s-1.208-.4551-1.208-1.1133ZM613.5688,342.855v7.5918h-2.0078v-7.5918h2.0078Z"/>
    <path class="cls-3" d="M619.7807,344.3609c-1.2393,0-1.6621,1.0352-1.6621,2.3057v3.7803h-2.0078v-7.5918h2.0078l-.0156,1.1445h.0469c.4072-.7998,1.1768-1.2861,2.2744-1.2861,2.1807,0,2.7295,1.4121,2.7295,3.2314v4.502h-2.0078v-4.0625c0-1.1299-.2041-2.0234-1.3652-2.0234Z"/>
    <path class="cls-3" d="M631.3129,349.2544c-.6123.9727-1.5537,1.3652-2.6045,1.3652-2.2275,0-3.5918-1.7256-3.5918-3.9844,0-2.1494,1.4268-3.9219,3.7334-3.9219,1.0195,0,1.8818.377,2.415,1.1924h.0312c-.0156-.3447-.0156-.7529-.0156-1.2861v-2.9961h1.9922v10.8232h-1.8975l-.0156-1.1924h-.0469ZM631.3286,346.6353c0-1.2705-.832-2.3848-2.1182-2.3848-1.3018,0-2.0547,1.1143-2.0547,2.3848,0,1.3174.8154,2.3525,2.1172,2.3525,1.208,0,2.0557-.9248,2.0557-2.3525Z"/>
    <path class="cls-3" d="M505.7524,369.4468c-1.4746,0-2.667-.7998-2.667-2.3848,0-1.584,1.5537-2.1963,3.1221-2.3057l1.8193-.125v-.2041c0-.9727-.6436-1.4277-1.6943-1.4277-1.0039,0-1.835.376-2.1641.6279l-.6123-1.2871c.5811-.3447,1.6475-.7998,2.9648-.7998,1.3486,0,2.1182.3457,2.6826.8789.5488.5332.8311,1.2236.8311,2.5098v4.3447h-1.9297l-.0312-.8789c-.3135.5498-1.1924,1.0518-2.3213,1.0518ZM505.0932,366.9995c0,.6436.4863,1.082,1.3184,1.082.7842,0,1.3643-.4551,1.6309-.8311v-1.3965l-1.3643.0791c-1.0674.0625-1.585.4229-1.585,1.0664Z"/>
    <path class="cls-3" d="M515.3862,370.7642c.7529,0,.8936-.6748.8936-1.5684v-10.7451h2.0234v10.6982c0,1.1133-.2031,1.8818-.5801,2.3682-.3604.4707-.9883.8467-1.8506.8467-.6904,0-1.3018-.1562-1.3965-.2197l.0625-1.5059c.2041.0791.4863.126.8477.126Z"/>
    <path class="cls-3" d="M524.7827,367.9097c1.0195,0,1.9297-.4551,2.29-.7686l.7842,1.082c-.4229.4395-1.5684,1.2236-3.4189,1.2236-2.291,0-3.9844-1.3965-3.9844-3.8438,0-2.4307,1.7725-4.0625,3.9365-4.0625,2.3379,0,3.749,1.5371,3.749,3.5605,0,.3926-.0312,1.0195-.0312,1.0195h-5.584c.1885,1.208,1.1133,1.7891,2.2588,1.7891ZM522.4926,364.8189h3.6387c-.0312-.8311-.3447-1.7881-1.7568-1.7881-1.1914,0-1.8193.8311-1.8818,1.7881Z"/>
    <path class="cls-3" d="M533.3501,367.7681c.4072,0,.7207-.125.7207-.125l.1104,1.5527c-.0938.0312-.6904.251-1.5371.251-1.5527,0-2.1963-.7061-2.1963-2.6826v-3.5137h-1.1289v-1.5527h1.1289v-2.165h1.9922v2.165h1.7568v1.5527h-1.7568v3.0742c0,1.1611.2041,1.4434.9102,1.4434Z"/>
    <path class="cls-3" d="M541.7905,369.4468c-1.4746,0-2.667-.7998-2.667-2.3848,0-1.584,1.5537-2.1963,3.1221-2.3057l1.8193-.125v-.2041c0-.9727-.6426-1.4277-1.6943-1.4277-1.0039,0-1.835.376-2.1641.6279l-.6123-1.2871c.5811-.3447,1.6475-.7998,2.9648-.7998,1.3486,0,2.1172.3457,2.6826.8789.5488.5332.8311,1.2236.8311,2.5098v4.3447h-1.9297l-.0312-.8789c-.3135.5498-1.1914,1.0518-2.3213,1.0518ZM541.1313,366.9995c0,.6436.4863,1.082,1.3184,1.082.7842,0,1.3643-.4551,1.6309-.8311v-1.3965l-1.3643.0791c-1.0674.0625-1.585.4229-1.585,1.0664Z"/>
    <path class="cls-3" d="M551.6743,367.7681c.4072,0,.7207-.125.7207-.125l.1104,1.5527c-.0938.0312-.6904.251-1.5371.251-1.5527,0-2.1963-.7061-2.1963-2.6826v-3.5137h-1.1289v-1.5527h1.1289v-2.165h1.9922v2.165h1.7568v1.5527h-1.7568v3.0742c0,1.1611.2041,1.4434.9102,1.4434Z"/>
    <path class="cls-3" d="M557.1967,360.0972v-1.6465h7.9688v1.6465h-2.9648v9.1768h-2.0234v-9.1768h-2.9805Z"/>
    <path class="cls-3" d="M568.6655,369.4468c-1.4746,0-2.667-.7998-2.667-2.3848,0-1.584,1.5537-2.1963,3.1221-2.3057l1.8193-.125v-.2041c0-.9727-.6426-1.4277-1.6943-1.4277-1.0039,0-1.835.376-2.1641.6279l-.6123-1.2871c.5811-.3447,1.6475-.7998,2.9648-.7998,1.3486,0,2.1172.3457,2.6826.8789.5488.5332.8311,1.2236.8311,2.5098v4.3447h-1.9297l-.0312-.8789c-.3135.5498-1.1914,1.0518-2.3213,1.0518ZM568.0063,366.9995c0,.6436.4863,1.082,1.3184,1.082.7842,0,1.3643-.4551,1.6309-.8311v-1.3965l-1.3643.0791c-1.0674.0625-1.585.4229-1.585,1.0664Z"/>
    <path class="cls-3" d="M577.3735,366.6548v2.6191h-1.9922v-10.8232h1.9922v6.1963l2.7451-2.9648h2.2119l-2.8086,2.8701,3.1846,4.7217h-2.3213l-2.2119-3.4668-.7998.8477Z"/>
    <path class="cls-3" d="M587.8999,367.9097c1.0195,0,1.9297-.4551,2.29-.7686l.7842,1.082c-.4229.4395-1.5684,1.2236-3.4189,1.2236-2.291,0-3.9844-1.3965-3.9844-3.8438,0-2.4307,1.7725-4.0625,3.9365-4.0625,2.3379,0,3.749,1.5371,3.749,3.5605,0,.3926-.0312,1.0195-.0312,1.0195h-5.584c.1885,1.208,1.1133,1.7891,2.2588,1.7891ZM585.6098,364.8189h3.6387c-.0312-.8311-.3447-1.7881-1.7568-1.7881-1.1914,0-1.8193.8311-1.8818,1.7881Z"/>
    <path class="cls-3" d="M592.8276,365.5093c0-2.4004,1.7881-3.9688,4.125-3.9688,2.3213,0,4.1104,1.5684,4.1104,3.9688s-1.7891,3.9375-4.1104,3.9375c-2.3369,0-4.125-1.5371-4.125-3.9375ZM596.9526,363.1568c-1.3174,0-2.0391,1.0039-2.0391,2.3057s.7217,2.3213,2.0391,2.3213c1.2861,0,2.0391-1.0195,2.0391-2.3213s-.7529-2.3057-2.0391-2.3057Z"/>
    <path class="cls-3" d="M605.394,363.2505v6.0234h-2.0078v-6.0234h-1.0352v-1.5527h1.0352v-.5801c0-.9258.251-1.6787.6436-2.1025.3916-.4551,1.0195-.7529,1.8975-.7529.9258,0,1.4902.1572,1.4902.1572l-.126,1.4424s-.4385-.125-.8623-.125c-.8623,0-1.0664.5801-1.0664,1.3018v.6592h2.7295v-.5801c0-.9258.2666-1.6631.6426-2.1025.3926-.4551,1.0195-.7529,1.8984-.7529.9258,0,1.4902.1572,1.4902.1572l-.126,1.4424s-.4385-.125-.8623-.125c-.8633,0-1.0664.5801-1.0664,1.3018v.6592h1.7402v1.5527h-1.709v6.0234h-2.0078v-6.0234h-2.6982Z"/>
  </g>
</svg>