<?xml version="1.0" encoding="UTF-8"?>
<svg id="Layer_1" data-name="Layer 1" xmlns="http://www.w3.org/2000/svg" viewBox="0 0 798 494">
  <defs>
    <style>
      .cls-1 {
        fill: #231f20;
        font-family: Gibson-Medium, Gibson;
        font-size: 15.6893px;
        font-weight: 500;
      }

      .cls-2 {
        font-family: Gibson-Book, Gibson;
        font-size: 13.946px;
      }

      .cls-3 {
        letter-spacing: -.03em;
      }

      .cls-4 {
        letter-spacing: .065em;
      }

      .cls-5 {
        letter-spacing: .015em;
      }

      .cls-6 {
        letter-spacing: .045em;
      }

      .cls-7 {
        fill: #ee2b2f;
      }

      .cls-8 {
        letter-spacing: .0401em;
      }

      .cls-9 {
        letter-spacing: .04em;
      }

      .cls-10 {
        letter-spacing: .04em;
      }

      .cls-11 {
        letter-spacing: .04em;
      }

      .cls-12 {
        letter-spacing: .038em;
      }

      .cls-13 {
        letter-spacing: .0101em;
      }

      .cls-14 {
        letter-spacing: .01em;
      }
    </style>
  </defs>
  <text transform="translate(88.5618 332.2178)"><tspan class="cls-1"><tspan class="cls-4" x="0" y="0">C</tspan><tspan class="cls-9" x="11.3271" y="0">at</tspan><tspan class="cls-6" x="25.918" y="0">e</tspan><tspan class="cls-10" x="35.1436" y="0">gory 1</tspan></tspan><tspan class="cls-2"><tspan class="cls-3" x="6.0771" y="27.0205">7</tspan><tspan class="cls-11" x="13.6504" y="27.0205">4-</tspan><tspan class="cls-12" x="26.6055" y="27.0205">9</tspan><tspan class="cls-11" x="35.127" y="27.0205">5 mph</tspan></tspan></text>
  <text transform="translate(215.0208 332.2178)"><tspan class="cls-1"><tspan class="cls-4" x="0" y="0">C</tspan><tspan class="cls-9" x="11.3271" y="0">at</tspan><tspan class="cls-6" x="25.918" y="0">e</tspan><tspan class="cls-10" x="35.1436" y="0">gory 2</tspan></tspan><tspan class="cls-2"><tspan class="cls-11" x="4.7666" y="27.0205">96</tspan><tspan class="cls-14" x="21.8643" y="27.0205">-</tspan><tspan class="cls-8" x="25.8525" y="27.0205">110 mph</tspan></tspan></text>
  <text transform="translate(343.8645 332.2178)"><tspan class="cls-1"><tspan class="cls-4" x="0" y="0">C</tspan><tspan class="cls-9" x="11.3271" y="0">at</tspan><tspan class="cls-6" x="25.918" y="0">e</tspan><tspan class="cls-10" x="35.1436" y="0">gory 3</tspan></tspan><tspan class="cls-2"><tspan class="cls-11" x="2.5566" y="27.0205">111</tspan><tspan class="cls-14" x="22.0107" y="27.0205">-</tspan><tspan class="cls-8" x="25.999" y="27.0205">129 mph</tspan></tspan></text>
  <text transform="translate(472.7081 332.2178)"><tspan class="cls-1"><tspan class="cls-4" x="0" y="0">C</tspan><tspan class="cls-9" x="11.3271" y="0">at</tspan><tspan class="cls-6" x="25.918" y="0">e</tspan><tspan class="cls-10" x="35.1436" y="0">gory 4</tspan></tspan><tspan class="cls-2"><tspan class="cls-11" x=".4922" y="27.0205">130</tspan><tspan class="cls-13" x="24.0742" y="27.0205">-</tspan><tspan class="cls-11" x="28.0635" y="27.0205">156 mph</tspan></tspan></text>
  <text transform="translate(601.5521 332.2178)"><tspan class="cls-1"><tspan class="cls-4" x="0" y="0">C</tspan><tspan class="cls-9" x="11.3271" y="0">at</tspan><tspan class="cls-6" x="25.918" y="0">e</tspan><tspan class="cls-10" x="35.1436" y="0">gory 5</tspan></tspan><tspan class="cls-2"><tspan class="cls-11" x="9.5986" y="27.0205">1</tspan><tspan class="cls-5" x="16.083" y="27.0205">5</tspan><tspan class="cls-8" x="24.2832" y="27.0205">7+ mph</tspan></tspan></text>
  <g id="_8J29PC" data-name="8J29PC">
    <path class="cls-7" d="M101.2754,274.8142c-.231-.3424.3221-.368.5448-.461.8399-.3507,1.9439-.6557,2.7354-1.0248,5.8764-2.7403,12.4864-8.239,17.4073-12.5153.7178-.6238,7.0892-6.1658,6.8602-6.5833-17.8973-4.6228-30.0577-21.677-28.3768-40.194,1.8796-20.7058,20.7407-35.1184,38.4534-43.0916,11.5418-5.1955,23.9369-8.3998,36.2968-10.7984.2308.3433-.3219.3679-.5449.4613-1.7678.7409-3.352,1.2831-5.0578,2.239-4.379,2.454-8.8836,6.0625-12.7462,9.2829-3.2063,2.6732-6.1938,5.5954-9.3542,8.3157-.0956.3876,1.8414.6314,2.2609.7686,23.8196,7.7929,33.8256,35.6558,20.4117,56.7614-9.7695,15.3715-26.9765,24.5408-43.7699,30.3937-8.1813,2.8514-16.638,4.8187-25.1208,6.4458ZM141.7846,201.545c-21.2595-4.581-27.8671,27.4398-6.8441,31.8329,20.9594,4.3798,27.5557-27.3699,6.8441-31.8329Z"/>
  </g>
  <g id="_8J29PC-2" data-name="8J29PC">
    <path class="cls-7" d="M209.4942,280.3007c-.2531-.3752.3529-.4031.5969-.505.9202-.3842,2.1298-.7184,2.9971-1.1229,6.4385-3.0024,13.6808-9.0272,19.0724-13.7125.7865-.6835,7.7673-6.7556,7.5164-7.213-19.6094-5.065-32.933-23.7506-31.0913-44.0389,2.0594-22.6865,22.7247-38.4777,42.1318-47.2137,12.6459-5.6924,26.2267-9.2033,39.7689-11.8314.2529.3761-.3527.4031-.597.5055-1.9369.8118-3.6726,1.4058-5.5416,2.4532-4.7978,2.6887-9.7334,6.6424-13.9655,10.1709-3.513,2.9289-6.7863,6.1306-10.249,9.1112-.1048.4246,2.0176.6918,2.4771.8422,26.0982,8.5383,37.0613,39.0665,22.3642,62.1911-10.7041,16.8419-29.557,26.8883-47.9568,33.3011-8.9639,3.1241-18.2296,5.2796-27.5239,7.0624ZM253.8783,200.0227c-23.2932-5.0192-30.5328,30.0647-7.4988,34.878,22.9644,4.7988,30.1916-29.9881,7.4988-34.878Z"/>
  </g>
  <g id="_8J29PC-3" data-name="8J29PC">
    <path class="cls-7" d="M332.054,288.8131c-.2874-.426.4007-.4578.6777-.5735,1.0448-.4363,2.4183-.8157,3.4031-1.275,7.3107-3.4091,15.534-10.25,21.6559-15.57.893-.776,8.8194-7.6707,8.5346-8.1901-22.2656-5.7511-37.394-26.9678-35.3028-50.0043,2.3384-25.7595,25.8029-43.6898,47.8389-53.6092,14.3589-6.4635,29.7793-10.4499,45.1559-13.4341.2871.4271-.4005.4577-.6779.5739-2.1992.9218-4.1701,1.5962-6.2923,2.7855-5.4477,3.0529-11.0519,7.5421-15.8572,11.5486-3.9888,3.3257-7.7056,6.961-11.6373,10.3454-.1189.4821,2.2909.7855,2.8127.9562,29.6334,9.6949,42.0815,44.3584,25.3936,70.6153-12.154,19.1233-33.5608,30.5305-54.4529,37.812-10.1781,3.5473-20.6989,5.9948-31.2522,8.0191ZM382.4503,197.6609c-26.4484-5.6991-34.6687,34.1371-8.5146,39.6025,26.0751,5.4488,34.2813-34.0502,8.5146-39.6025Z"/>
  </g>
  <g id="_8J29PC-4" data-name="8J29PC">
    <path class="cls-7" d="M457.942,292.1592c-.3009-.446.4194-.4792.7095-.6004,1.0938-.4568,2.5317-.854,3.5627-1.3347,7.6535-3.569,16.2625-10.7306,22.6715-16.3001.9349-.8124,9.233-8.0304,8.9348-8.5742-23.3097-6.0208-39.1475-28.2325-36.9583-52.3492,2.448-26.9675,27.0129-45.7386,50.0823-56.1231,15.0322-6.7666,31.1758-10.94,47.2734-14.064.3006.4471-.4192.4791-.7097.6009-2.3024.965-4.3656,1.6711-6.5873,2.9161-5.7032,3.1961-11.5701,7.8958-16.6008,12.0902-4.1759,3.4816-8.0669,7.2875-12.183,10.8305-.1245.5048,2.3983.8223,2.9446,1.0011,31.023,10.1495,44.0549,46.4385,26.5845,73.9267-12.724,20.0201-35.1346,31.9622-57.0064,39.5851-10.6554,3.7137-21.6696,6.2759-32.7177,8.3951ZM510.7017,196.7325c-27.6887-5.9664-36.2945,35.738-8.9138,41.4596,27.2978,5.7043,35.8889-35.647,8.9138-41.4596Z"/>
  </g>
  <g id="_8J29PC-5" data-name="8J29PC">
    <path class="cls-7" d="M592.9197,306.6828c-.3594-.5327.501-.5724.8475-.7171,1.3065-.5456,3.024-1.02,4.2553-1.5942,9.1415-4.2629,19.4243-12.8169,27.0794-19.4693,1.1166-.9704,11.0281-9.5917,10.6719-10.2412-27.8417-7.1914-46.7588-33.7215-44.1439-62.5271,2.924-32.2106,32.2649-54.6313,59.8195-67.0348,17.9549-8.0822,37.2371-13.067,56.4645-16.7984.359.534-.5008.5723-.8477.7177-2.75,1.1526-5.2144,1.996-7.8681,3.4831-6.812,3.8175-13.8196,9.431-19.8284,14.4408-4.9878,4.1586-9.6354,8.7043-14.5516,12.9362-.1487.6029,2.8646.9822,3.5171,1.1957,37.0546,12.1229,52.6202,55.4673,31.7531,88.2999-15.1978,23.9125-41.9656,38.1765-68.0899,47.2814-12.7271,4.4357-25.8827,7.4961-39.0788,10.0273ZM655.9371,192.7028c-33.072-7.1264-43.351,42.6863-10.6469,49.5203,32.6052,6.8134,42.8666-42.5776,10.6469-49.5203Z"/>
  </g>
</svg>