<?xml version="1.0" encoding="UTF-8"?>
<svg id="Layer_1" data-name="Layer 1" xmlns="http://www.w3.org/2000/svg" viewBox="0 0 798 494">
  <defs>
    <style>
      .cls-1 {
        stroke-width: 3px;
      }

      .cls-1, .cls-2 {
        stroke: #000;
      }

      .cls-3 {
        fill: #231f20;
      }

      .cls-4 {
        font-family: Gibson-Medium, Gibson;
        font-size: 78.5753px;
        font-weight: 500;
        letter-spacing: .04em;
      }

      .cls-4, .cls-5 {
        fill: #999;
      }

      .cls-6 {
        fill: #fff;
      }

      .cls-2 {
        fill: none;
        stroke-miterlimit: 10;
        stroke-width: 2px;
      }
    </style>
  </defs>
  <g>
    <rect x="449.0839" y="290.346" width="182.8575" height="85.7382" rx="2.6879" ry="2.6879"/>
    <rect x="449.0839" y="200.0554" width="182.8575" height="85.7382" rx="2.6879" ry="2.6879"/>
    <rect x="449.0839" y="109.7647" width="182.8575" height="85.7382" rx="2.6879" ry="2.6879"/>
    <path d="M658.765,105.2123h-236.5048c-2.1855,0-3.2251-2.6906-1.6074-4.1601l63.4726-57.6578c.44-.3997,1.013-.6211,1.6074-.6211h109.5597c.5944,0,1.1674.2214,1.6074.6211l63.4726,57.6578c1.6177,1.4695.5781,4.1601-1.6074,4.1601Z"/>
    <rect class="cls-6" x="470.6354" y="220.458" width="59.9104" height="44.9328" rx="3.4686" ry="3.4686"/>
    <rect class="cls-6" x="552.2541" y="220.458" width="59.9104" height="44.9328" rx="3.4686" ry="3.4686"/>
    <rect class="cls-6" x="470.6354" y="130.5951" width="59.9104" height="44.9328" rx="3.4686" ry="3.4686"/>
    <rect class="cls-6" x="552.2541" y="130.5951" width="59.9104" height="44.9328" rx="3.4686" ry="3.4686"/>
    <line class="cls-1" x1="500.5906" y1="268.5763" x2="500.5906" y2="217.2726"/>
    <line class="cls-1" x1="582.2093" y1="268.5763" x2="582.2093" y2="217.2726"/>
    <line class="cls-1" x1="549.5723" y1="242.9244" x2="614.8462" y2="242.9244"/>
    <line class="cls-1" x1="467.9537" y1="242.9244" x2="533.2276" y2="242.9244"/>
    <line class="cls-1" x1="500.5906" y1="179.5208" x2="500.5906" y2="128.2171"/>
    <line class="cls-1" x1="582.2093" y1="179.5208" x2="582.2093" y2="128.2171"/>
    <line class="cls-1" x1="549.5723" y1="153.8689" x2="614.8462" y2="153.8689"/>
    <line class="cls-1" x1="467.9537" y1="153.8689" x2="533.2276" y2="153.8689"/>
    <path class="cls-6" d="M527.1403,319.6448h26.7446c2.2767,0,4.1251,1.8484,4.1251,4.1251v57.4647h-34.9949v-57.4647c0-2.2767,1.8484-4.1251,4.1251-4.1251Z"/>
  </g>
  <text class="cls-4" transform="translate(300.2972 457.9212)"><tspan x="0" y="0">=</tspan></text>
  <g>
    <path class="cls-3" d="M504.226,424.177c.7656-.71,1.4609-1.5029,1.4609-2.4492,0-.96-.6123-1.5723-1.6973-1.5723-1.2109,0-1.8926.7646-2.3525,1.2803l-.835-1.0996c.3066-.4453,1.2949-1.6699,3.3262-1.6699,2.0459,0,3.3672,1.127,3.3672,2.8252,0,1.6416-1.2939,2.8525-1.8926,3.4229l-2.1426,2.0039h4.4395v1.4893h-6.7637l-.2363-1.1553,3.3262-3.0752Z"/>
    <path class="cls-3" d="M510.1098,427.5305c0-.6533.459-1.0439,1.127-1.0439.6406,0,1.1133.3906,1.1133,1.0439,0,.6406-.4727,1.0303-1.1133,1.0303-.668,0-1.127-.3896-1.127-1.0303Z"/>
    <path class="cls-3" d="M519.8501,425.262c0-1.2939-.9189-1.8643-2.0039-1.8643-.6406,0-1.2803.209-1.7256.501l-.8213-.4873.9043-4.6064h5.1074l-.0137,1.4893h-3.9521l-.459,2.1436c.459-.1953,1.0293-.3203,1.6133-.3203,1.7539,0,3.1875,1.1553,3.1875,3.1729,0,2.1016-1.7676,3.2705-3.7578,3.2705-1.8223,0-3.0615-1.2666-3.2979-1.6006l.96-1.1416c.4873.6133,1.3086,1.2393,2.4082,1.2393.834,0,1.8506-.4873,1.8506-1.7959Z"/>
    <path class="cls-3" d="M529.393,422.883c-.584,0-.876.2227-.876.543,0,.292.2227.5283.9736.7646l.4736.1533c1.4883.4873,2.0176,1.0156,2.0176,1.9902,0,1.2803-1.0156,2.2266-2.6719,2.2266-1.0303,0-2.1855-.418-2.7275-1.0439l.7236-1.2109c.793.6123,1.4746.9189,2.0449.9189.668,0,.9746-.251.9746-.6406,0-.3477-.2646-.543-1.127-.835l-.7793-.2646c-1.002-.334-1.5176-.9316-1.5176-1.9199,0-1.2246,1.1133-2.0176,2.4082-2.0176,1.1963,0,1.8643.3203,2.4209.7236l-.7646,1.1826c-.3906-.292-.9609-.5703-1.5732-.5703Z"/>
    <path class="cls-3" d="M536.5307,427.0715c.3613,0,.6396-.1113.6396-.1113l.0977,1.3779c-.084.0273-.6123.2227-1.3643.2227-1.377,0-1.9482-.627-1.9482-2.3799v-3.1172h-1.002v-1.3779h1.002v-1.9199h1.7676v1.9199h1.5586v1.3779h-1.5586v2.7275c0,1.0293.1807,1.2803.8076,1.2803Z"/>
    <path class="cls-3" d="M538.436,425.0676c0-2.1289,1.5869-3.5205,3.6602-3.5205,2.0596,0,3.6455,1.3916,3.6455,3.5205s-1.5859,3.4932-3.6455,3.4932c-2.0732,0-3.6602-1.3643-3.6602-3.4932ZM542.0961,422.9807c-1.1689,0-1.8096.8906-1.8096,2.0449,0,1.1553.6406,2.0596,1.8096,2.0596,1.1416,0,1.8096-.9043,1.8096-2.0596,0-1.1543-.668-2.0449-1.8096-2.0449Z"/>
    <path class="cls-3" d="M549.2885,421.6721l-.0283,1.0859h.042c.2637-.7246.9316-1.2109,1.6562-1.2109.459,0,.709.125.709.125l-.125,1.5449h-.084c-.1943-.0557-.5-.084-.7373-.084-.5283,0-.9326.2227-1.1826.6543-.167.334-.25.793-.25,1.3086v3.3115h-1.7676v-6.7354h1.7676Z"/>
    <path class="cls-3" d="M552.9741,419.6125c0-.5703.4453-.9883,1.0723-.9883.626,0,1.0713.418,1.0713.9883,0,.585-.4453.9883-1.0713.9883-.627,0-1.0723-.4033-1.0723-.9883ZM554.937,421.6721v6.7354h-1.7812v-6.7354h1.7812Z"/>
    <path class="cls-3" d="M560.5854,427.1965c.9043,0,1.7109-.4033,2.0312-.6816l.6963.96c-.376.3896-1.3916,1.0859-3.0342,1.0859-2.0312,0-3.5342-1.2383-3.5342-3.4102,0-2.1562,1.5723-3.6035,3.4932-3.6035,2.0732,0,3.3252,1.3633,3.3252,3.1582,0,.3486-.0273.9053-.0273.9053h-4.9541c.167,1.0713.9883,1.5859,2.0039,1.5859ZM558.5532,424.4553h3.2285c-.0273-.7373-.3057-1.5859-1.5586-1.5859-1.0576,0-1.6143.7373-1.6699,1.5859Z"/>
    <path class="cls-3" d="M567.6108,422.883c-.584,0-.877.2227-.877.543,0,.292.2227.5283.9746.7646l.4727.1533c1.4893.4873,2.0186,1.0156,2.0186,1.9902,0,1.2803-1.0166,2.2266-2.6719,2.2266-1.0303,0-2.1846-.418-2.7275-1.0439l.7236-1.2109c.793.6123,1.4746.9189,2.0459.9189.668,0,.9736-.251.9736-.6406,0-.3477-.2646-.543-1.127-.835l-.7793-.2646c-1.002-.334-1.5166-.9316-1.5166-1.9199,0-1.2246,1.1133-2.0176,2.4072-2.0176,1.1963,0,1.8643.3203,2.4209.7236l-.7656,1.1826c-.3887-.292-.96-.5703-1.5723-.5703Z"/>
    <path class="cls-3" d="M479.0424,441.7629c0-2.1289,1.5869-3.5205,3.6602-3.5205,2.0596,0,3.6465,1.3916,3.6465,3.5205s-1.5869,3.4932-3.6465,3.4932c-2.0732,0-3.6602-1.3643-3.6602-3.4932ZM482.7026,439.676c-1.1689,0-1.8086.8906-1.8086,2.0449,0,1.1553.6396,2.0596,1.8086,2.0596,1.1406,0,1.8086-.9043,1.8086-2.0596,0-1.1543-.668-2.0449-1.8086-2.0449Z"/>
    <path class="cls-3" d="M487.4878,439.759v-1.3779h.9189v-.5146c0-.8213.2227-1.4893.5703-1.8643.3477-.4043.9043-.668,1.6836-.668.8213,0,1.3223.1387,1.3223.1387l-.1113,1.2803s-.3896-.1113-.7656-.1113c-.7646,0-.9463.5146-.9463,1.1553v.584h1.5449v1.3779h-1.5166v5.3438h-1.7812v-5.3438h-.9189Z"/>
    <path class="cls-3" d="M498.0063,445.2561c-1.3076,0-2.3662-.71-2.3662-2.1152,0-1.4062,1.3779-1.9482,2.7695-2.0459l1.6143-.1113v-.1807c0-.8633-.5703-1.2666-1.5029-1.2666-.8906,0-1.6279.334-1.9199.5566l-.543-1.1416c.5146-.3057,1.4609-.709,2.6299-.709,1.1973,0,1.8789.3057,2.3799.7793.4873.4727.7373,1.085.7373,2.2266v3.8545h-1.7119l-.0273-.7793c-.2783.4873-1.0576.9326-2.0596.9326ZM497.4213,443.0852c0,.5703.4316.96,1.1699.96.6953,0,1.21-.4033,1.4473-.7373v-1.2393l-1.2109.0703c-.9463.0557-1.4062.375-1.4062.9463Z"/>
    <path class="cls-3" d="M514.0073,442.3332c0,1.8369-1.6006,2.9229-3.5625,2.9229-1.8232,0-3.0615-1.2666-3.2979-1.6006l.96-1.1416c.4873.6133,1.3086,1.2393,2.4072,1.2393,1.0996,0,1.6982-.4736,1.6982-1.4893,0-1.002-.9189-1.4609-1.9062-1.4609h-.6406v-1.3223h.7793c.8906,0,1.5029-.4727,1.5029-1.3496,0-.7656-.5986-1.2803-1.5723-1.2803-.8633,0-1.5449.3613-2.0039.9326l-.9053-1.0166c.4453-.542,1.5449-1.4053,3.0625-1.4053,1.7812,0,3.1719.9326,3.1719,2.5332,0,1.1543-.876,1.9619-1.502,2.1846v.042c.7793.1807,1.8086.834,1.8086,2.2119Z"/>
    <path class="cls-3" d="M521.81,439.5784c-.584,0-.877.2227-.877.543,0,.292.2227.5283.9746.7646l.4727.1533c1.4893.4873,2.0186,1.0156,2.0186,1.9902,0,1.2803-1.0166,2.2266-2.6719,2.2266-1.0303,0-2.1846-.418-2.7275-1.0439l.7236-1.2109c.793.6123,1.4746.9189,2.0459.9189.668,0,.9736-.251.9736-.6406,0-.3477-.2646-.543-1.127-.835l-.7793-.2646c-1.002-.334-1.5166-.9316-1.5166-1.9199,0-1.2246,1.1133-2.0176,2.4072-2.0176,1.1963,0,1.8643.3203,2.4209.7236l-.7656,1.1826c-.3887-.292-.96-.5703-1.5723-.5703Z"/>
    <path class="cls-3" d="M528.9487,443.7668c.3613,0,.6396-.1113.6396-.1113l.0977,1.3779c-.084.0273-.6123.2227-1.3643.2227-1.377,0-1.9482-.627-1.9482-2.3799v-3.1172h-1.002v-1.3779h1.002v-1.9199h1.7676v1.9199h1.5586v1.3779h-1.5586v2.7275c0,1.0293.1807,1.2803.8076,1.2803Z"/>
    <path class="cls-3" d="M530.853,441.7629c0-2.1289,1.5869-3.5205,3.6602-3.5205,2.0596,0,3.6465,1.3916,3.6465,3.5205s-1.5869,3.4932-3.6465,3.4932c-2.0732,0-3.6602-1.3643-3.6602-3.4932ZM534.5131,439.676c-1.1689,0-1.8086.8906-1.8086,2.0449,0,1.1553.6396,2.0596,1.8086,2.0596,1.1406,0,1.8086-.9043,1.8086-2.0596,0-1.1543-.668-2.0449-1.8086-2.0449Z"/>
    <path class="cls-3" d="M541.7065,438.3674l-.0283,1.0859h.042c.2637-.7246.9316-1.2109,1.6562-1.2109.459,0,.709.125.709.125l-.125,1.5449h-.084c-.1943-.0557-.5-.084-.7373-.084-.5283,0-.9326.2227-1.1826.6543-.167.334-.25.793-.25,1.3086v3.3115h-1.7676v-6.7354h1.7676Z"/>
    <path class="cls-3" d="M546.5053,438.3674l1.7812,4.7734,1.7529-4.7734h1.8506l-3.1309,7.6396c-.4873,1.1826-1.0439,1.7539-1.9902,1.7539-.96,0-1.5859-.2783-1.5859-.2783l.3613-1.3643s.4736.167.8076.167c.3477,0,.6396-.0977.7793-.4453l.292-.6953-2.7832-6.7773h1.8652Z"/>
    <path class="cls-3" d="M562.7983,441.1086v3.9941h-1.7812v-3.6045c0-1.002-.1807-1.7949-1.2109-1.7949-1.0996,0-1.4746.918-1.4746,2.0459v3.3535h-1.7676v-9.6025h1.7676v3.8828h.0273c.3623-.709,1.0439-1.1406,2.0176-1.1406,1.9346,0,2.4219,1.252,2.4219,2.8662Z"/>
    <path class="cls-3" d="M564.5356,441.7629c0-2.1289,1.5869-3.5205,3.6602-3.5205,2.0596,0,3.6455,1.3916,3.6455,3.5205s-1.5859,3.4932-3.6455,3.4932c-2.0732,0-3.6602-1.3643-3.6602-3.4932ZM568.1958,439.676c-1.1689,0-1.8096.8906-1.8096,2.0449,0,1.1553.6406,2.0596,1.8096,2.0596,1.1416,0,1.8096-.9043,1.8096-2.0596,0-1.1543-.668-2.0449-1.8096-2.0449Z"/>
    <path class="cls-3" d="M576.4731,443.7668c1.0713,0,1.4756-.8486,1.4756-1.9756v-3.4238h1.7812v6.7354h-1.7266l-.0137-.9463c-.3896.668-1.1133,1.0713-2.0869,1.0713-1.9346,0-2.4072-1.252-2.4072-2.8662v-3.9941h1.7812v3.6045c0,1.002.166,1.7949,1.1963,1.7949Z"/>
    <path class="cls-3" d="M584.2358,439.5784c-.584,0-.877.2227-.877.543,0,.292.2227.5283.9746.7646l.4727.1533c1.4893.4873,2.0186,1.0156,2.0186,1.9902,0,1.2803-1.0166,2.2266-2.6719,2.2266-1.0303,0-2.1846-.418-2.7275-1.0439l.7236-1.2109c.793.6123,1.4746.9189,2.0459.9189.668,0,.9736-.251.9736-.6406,0-.3477-.2646-.543-1.127-.835l-.7793-.2646c-1.002-.334-1.5166-.9316-1.5166-1.9199,0-1.2246,1.1133-2.0176,2.4072-2.0176,1.1963,0,1.8643.3203,2.4209.7236l-.7656,1.1826c-.3887-.292-.96-.5703-1.5723-.5703Z"/>
    <path class="cls-3" d="M591.8891,443.8918c.9043,0,1.7119-.4033,2.0312-.6816l.6963.96c-.376.3896-1.3916,1.0859-3.0342,1.0859-2.0312,0-3.5342-1.2383-3.5342-3.4102,0-2.1562,1.5723-3.6035,3.4922-3.6035,2.0742,0,3.3262,1.3633,3.3262,3.1582,0,.3486-.0273.9053-.0273.9053h-4.9541c.167,1.0713.9873,1.5859,2.0039,1.5859ZM589.8569,441.1506h3.2285c-.0273-.7373-.3057-1.5859-1.5586-1.5859-1.0576,0-1.6143.7373-1.6699,1.5859Z"/>
  </g>
  <g>
    <path class="cls-3" d="M126.769,418.384c.7656-.71,1.4609-1.5029,1.4609-2.4492,0-.96-.6123-1.5723-1.6973-1.5723-1.2109,0-1.8926.7646-2.3525,1.2803l-.835-1.0996c.3066-.4453,1.2949-1.6699,3.3262-1.6699,2.0459,0,3.3672,1.127,3.3672,2.8252,0,1.6416-1.2939,2.8525-1.8926,3.4229l-2.1426,2.0039h4.4395v1.4893h-6.7637l-.2363-1.1553,3.3262-3.0752Z"/>
    <path class="cls-3" d="M137.4819,419.469c0-1.2939-.9189-1.8643-2.0039-1.8643-.6406,0-1.2803.209-1.7256.501l-.8213-.4873.9043-4.6064h5.1074l-.0137,1.4893h-3.9521l-.46,2.1436c.46-.1953,1.0303-.3203,1.6152-.3203,1.7529,0,3.1865,1.1553,3.1865,3.1729,0,2.1016-1.7676,3.2705-3.7578,3.2705-1.8232,0-3.0615-1.2666-3.2979-1.6006l.96-1.1416c.4873.6133,1.3086,1.2393,2.4072,1.2393.8359,0,1.8516-.4873,1.8516-1.7959Z"/>
    <path class="cls-3" d="M150.393,421.2786c.3623,0,.6406-.1113.6406-.1113l.0967,1.3779c-.083.0273-.6113.2227-1.3633.2227-1.3779,0-1.9482-.627-1.9482-2.3799v-3.1172h-2.4072v5.3438h-1.7812v-5.3438h-.9189v-1.3779h.9189v-.5146c0-.8213.2227-1.4893.5703-1.8643.3477-.4043.9043-.668,1.6836-.668.8213,0,1.3223.1387,1.3223.1387l-.1113,1.2803s-.3896-.1113-.7656-.1113c-.7656,0-.9463.5146-.9463,1.1553v.584h2.4355v-1.9199h1.7676v1.9199h1.5586v1.3779h-1.5586v2.7275c0,1.0293.1807,1.2803.8066,1.2803Z"/>
    <path class="cls-3" d="M102.4487,433.7854c-.584,0-.877.2227-.877.543,0,.292.2227.5283.9746.7646l.4727.1533c1.4893.4873,2.0186,1.0156,2.0186,1.9902,0,1.2803-1.0166,2.2266-2.6719,2.2266-1.0303,0-2.1846-.418-2.7275-1.0439l.7236-1.2109c.793.6123,1.4746.9189,2.0459.9189.668,0,.9736-.251.9736-.6406,0-.3477-.2646-.543-1.127-.835l-.7793-.2646c-1.002-.334-1.5166-.9316-1.5166-1.9199,0-1.2246,1.1133-2.0176,2.4072-2.0176,1.1963,0,1.8643.3203,2.4209.7236l-.7656,1.1826c-.3887-.292-.96-.5703-1.5723-.5703Z"/>
    <path class="cls-3" d="M109.5854,437.9739c.3623,0,.6406-.1113.6406-.1113l.0977,1.3779c-.084.0273-.6123.2227-1.3643.2227-1.3779,0-1.9482-.627-1.9482-2.3799v-3.1172h-1.002v-1.3779h1.002v-1.9199h1.7676v1.9199h1.5586v1.3779h-1.5586v2.7275c0,1.0293.1807,1.2803.8066,1.2803Z"/>
    <path class="cls-3" d="M111.4917,435.97c0-2.1289,1.5869-3.5205,3.6602-3.5205,2.0596,0,3.6465,1.3916,3.6465,3.5205s-1.5869,3.4932-3.6465,3.4932c-2.0732,0-3.6602-1.3643-3.6602-3.4932ZM115.1518,433.883c-1.1689,0-1.8086.8906-1.8086,2.0449,0,1.1553.6396,2.0596,1.8086,2.0596,1.1406,0,1.8086-.9043,1.8086-2.0596,0-1.1543-.668-2.0449-1.8086-2.0449Z"/>
    <path class="cls-3" d="M122.3432,432.5745l-.0273,1.0859h.042c.2646-.7246.9326-1.2109,1.6553-1.2109.46,0,.71.125.71.125l-.125,1.5449h-.083c-.1953-.0557-.502-.084-.7383-.084-.5283,0-.9316.2227-1.1826.6543-.167.334-.251.793-.251,1.3086v3.3115h-1.7666v-6.7354h1.7666Z"/>
    <path class="cls-3" d="M133.4751,433.9104c-.8906,0-1.3496.7656-1.3496,1.9199v3.4795h-1.7812v-3.7852c0-.9189-.2363-1.6143-1.085-1.6143-.9189,0-1.3223.8633-1.3223,1.9199v3.4795h-1.7812v-6.7354h1.7812l-.0137,1.0156h.041c.3066-.626,1.127-1.1406,2.0039-1.1406.9746,0,1.5586.3896,1.8789,1.2803.4727-.8213,1.2383-1.2803,2.2129-1.2803,1.7676,0,2.2539,1.252,2.2539,2.7969v4.0635h-1.7812v-3.7715c0-.8213-.1807-1.6279-1.0576-1.6279Z"/>
    <path class="cls-3" d="M144.0893,433.7854c-.584,0-.877.2227-.877.543,0,.292.2227.5283.9746.7646l.4727.1533c1.4893.4873,2.0186,1.0156,2.0186,1.9902,0,1.2803-1.0166,2.2266-2.6719,2.2266-1.0303,0-2.1846-.418-2.7275-1.0439l.7236-1.2109c.793.6123,1.4746.9189,2.0459.9189.668,0,.9736-.251.9736-.6406,0-.3477-.2646-.543-1.127-.835l-.7793-.2646c-1.002-.334-1.5166-.9316-1.5166-1.9199,0-1.2246,1.1133-2.0176,2.4072-2.0176,1.1963,0,1.8643.3203,2.4209.7236l-.7656,1.1826c-.3887-.292-.96-.5703-1.5723-.5703Z"/>
    <path class="cls-3" d="M151.1987,437.9739c1.0713,0,1.4746-.8486,1.4746-1.9756v-3.4238h1.7812v6.7354h-1.7246l-.0146-.9463c-.3896.668-1.1133,1.0713-2.0869,1.0713-1.9346,0-2.4082-1.252-2.4082-2.8662v-3.9941h1.7812v3.6045c0,1.002.168,1.7949,1.1973,1.7949Z"/>
    <path class="cls-3" d="M158.4194,432.5745l-.0283,1.0859h.042c.2637-.7246.9316-1.2109,1.6562-1.2109.459,0,.709.125.709.125l-.125,1.5449h-.084c-.1943-.0557-.5-.084-.7373-.084-.5283,0-.9326.2227-1.1826.6543-.167.334-.25.793-.25,1.3086v3.3115h-1.7676v-6.7354h1.7676Z"/>
    <path class="cls-3" d="M164.8891,439.0871c-1.6982,0-3.1455-1.085-3.1455-3.2285,0-1.8643,1.3086-3.4092,3.3125-3.4092.9043,0,1.6699.334,2.1426,1.0576h.0283l-.0146-.9326h1.7676v5.3438c0,1.4746-.3057,2.3105-.877,2.9082-.584.6123-1.4473,1.1836-3.0605,1.1836-1.6006,0-2.7979-.7656-3.1318-1.002l.7373-1.2393c.4316.3066,1.5312.7939,2.3945.7939.96,0,1.4609-.3066,1.7109-.5986.251-.292.459-.8486.459-1.6006v-.334h-.0273c-.459.6953-1.2666,1.0576-2.2959,1.0576ZM165.4174,433.8547c-1.1689,0-1.8643.8623-1.8643,1.9619,0,1.0303.668,1.8789,1.8369,1.8789,1.2803,0,1.9199-.8486,1.9199-1.8789,0-.9736-.7236-1.9619-1.8926-1.9619Z"/>
    <path class="cls-3" d="M174.6001,438.0989c.9043,0,1.7119-.4033,2.0312-.6816l.6963.96c-.376.3896-1.3916,1.0859-3.0342,1.0859-2.0312,0-3.5342-1.2383-3.5342-3.4102,0-2.1562,1.5723-3.6035,3.4922-3.6035,2.0742,0,3.3262,1.3633,3.3262,3.1582,0,.3486-.0273.9053-.0273.9053h-4.9541c.167,1.0713.9873,1.5859,2.0039,1.5859ZM172.5678,435.3577h3.2285c-.0273-.7373-.3057-1.5859-1.5586-1.5859-1.0576,0-1.6143.7373-1.6699,1.5859Z"/>
  </g>
  <path class="cls-5" d="M197.7365,296.4159c15.2751-29.2898,35.4197-56.3134,56.4281-81.375,29.5817-35.289,65.821-70.0397,110.7385-84.1444,25.699-8.0697,53.0057-7.6913,78.3761,1.4583,30.8655,11.131,55.1841,41.9588,53.7531,75.5287l-2.5577,7.6259c-4.0632-19.6964-25.1699-37.7951-44.3177-42.1467-27.0746-6.1528-67.1993,10.061-64.797,42.6273,3.5531,48.1722,94.1908,120.4509,140.5977,123.6573,1.9493.1347,7.018.4378,8.4226-.4165,4.5144-8.5992,14.575-27.864,24.5923-30.3888,8.5984-2.1671,20.937.9392,21.5055,11.3063-4.6794-1.9892-5.0253-5.1227-11.0998-4.4841-17.3674,1.8272,9.8086,29.4379,16.8811,23.1197,1.0067-.8989,6.4022-12.3104,8.5746-15.3626,3.622-5.089,10.7876-13.7406,17.1825-14.7417,10.6092-1.6614,20.8291,2.1602,20.7755,14.1303-2.1165-1.7064-3.677-5.2925-6.4148-6.4152-3.4691-1.4224-8.4538-1.4271-10.6274,2.1663-.5594.9253-.8067,2.3022-.9478,3.0457-.3009,1.5852-.2793,2.9405-.2022,3.8801,3.8822,8.52,10.3563,19.8363,21.1244,30.6507,23.4994,23.5999,51.8124,29.1071,62.9581,30.6507-11.4557-.0403-30.2151-.0974-53.4353-.1264-29.3976-.0368-51.3552,0-59.9466,0h-231.0651c-32.129,0-64.2545-.7287-96.3839-.5105-31.3569.2126-62.4926,1.803-93.7552-1.6813,7.4644-11.1872,10.0134-24.8131,13.5674-37.7843,4.7872-17.4713,11.6982-34.2112,20.0731-50.2697Z"/>
  <line class="cls-2" x1="135.3289" y1="125.0034" x2="135.3289" y2="386.5136"/>
  <line class="cls-2" x1="128.7788" y1="125.0034" x2="143.2814" y2="125.0034"/>
  <line class="cls-2" x1="128.7788" y1="386.6615" x2="143.2814" y2="386.6615"/>
</svg>