<?xml version="1.0" encoding="UTF-8"?>
<svg id="Layer_1" data-name="Layer 1" xmlns="http://www.w3.org/2000/svg" viewBox="0 0 800 496">
  <defs>
    <style>
      .cls-1 {
        fill: #231f20;
      }

      .cls-2 {
        fill: #ee2b2f;
      }
    </style>
  </defs>
  <g>
    <path class="cls-1" d="M95.4279,335.3257c-3.168,0-5.6152-2.1494-5.6152-5.584s2.4785-5.585,5.6152-5.585c2.1182,0,3.3418.8945,3.7803,1.334l-.7207,1.6621c-.3145-.4072-1.5381-1.2393-3.0752-1.2393-1.8818,0-3.498,1.2393-3.498,3.7959,0,2.3379,1.459,3.8594,3.624,3.8594,1.4434,0,2.4473-.6279,3.0898-1.3174l.7217,1.5371c-.6113.6582-1.7881,1.5371-3.9219,1.5371Z"/>
    <path class="cls-1" d="M103.6496,335.3101c-1.4746,0-2.667-.8008-2.667-2.3848s1.5537-2.1963,3.1221-2.3057l1.8193-.126v-.2031c0-.9727-.6436-1.4277-1.6943-1.4277-1.0039,0-1.835.377-2.1641.627l-.6123-1.2861c.5811-.3447,1.6475-.7998,2.9648-.7998,1.3486,0,2.1182.3457,2.6826.8789.5488.5332.8311,1.2236.8311,2.5098v4.3447h-1.9297l-.0312-.8779c-.3135.5488-1.1924,1.0508-2.3213,1.0508ZM102.9904,332.8628c0,.6426.4863,1.082,1.3184,1.082.7842,0,1.3643-.4551,1.6309-.8311v-1.3965l-1.3643.0791c-1.0674.0625-1.585.4229-1.585,1.0664Z"/>
    <path class="cls-1" d="M113.5344,333.6314c.4072,0,.7207-.126.7207-.126l.1104,1.5537c-.0938.0312-.6904.251-1.5371.251-1.5527,0-2.1963-.7061-2.1963-2.6826v-3.5137h-1.1289v-1.5527h1.1289v-2.165h1.9922v2.165h1.7568v1.5527h-1.7568v3.0742c0,1.1611.2041,1.4434.9102,1.4434Z"/>
    <path class="cls-1" d="M119.9816,333.773c1.0195,0,1.9297-.4551,2.29-.7695l.7842,1.083c-.4238.4395-1.5684,1.2236-3.4189,1.2236-2.291,0-3.9844-1.3965-3.9844-3.8438,0-2.4307,1.7725-4.0625,3.9365-4.0625,2.3379,0,3.749,1.5371,3.749,3.5605,0,.3926-.0312,1.0195-.0312,1.0195h-5.584c.1885,1.208,1.1133,1.7891,2.2588,1.7891ZM117.6916,330.6822h3.6387c-.0312-.8311-.3447-1.7881-1.7568-1.7881-1.1914,0-1.8193.8311-1.8818,1.7881Z"/>
    <path class="cls-1" d="M128.4543,334.8863c-1.9141,0-3.5449-1.2236-3.5449-3.6387,0-2.1025,1.4746-3.8438,3.7334-3.8438,1.0195,0,1.8818.377,2.415,1.1924h.0312l-.0156-1.0508h1.9922v6.0234c0,1.6621-.3447,2.6035-.9883,3.2783-.6582.6904-1.6309,1.333-3.4502,1.333-1.8047,0-3.1533-.8623-3.5293-1.1289l.8311-1.3965c.4863.3447,1.7256.8945,2.6982.8945,1.082,0,1.6465-.3457,1.9287-.6748s.5176-.957.5176-1.8037v-.377h-.0312c-.5176.7842-1.4268,1.1924-2.5879,1.1924ZM129.05,328.9878c-1.3174,0-2.1016.9727-2.1016,2.2119,0,1.1611.7529,2.1182,2.0703,2.1182,1.4434,0,2.165-.957,2.165-2.1182,0-1.0977-.8154-2.2119-2.1338-2.2119Z"/>
    <path class="cls-1" d="M135.1066,331.3726c0-2.4004,1.7881-3.9688,4.125-3.9688,2.3223,0,4.1104,1.5684,4.1104,3.9688s-1.7881,3.9375-4.1104,3.9375c-2.3369,0-4.125-1.5371-4.125-3.9375ZM139.2316,329.0201c-1.3174,0-2.0391,1.0039-2.0391,2.3057s.7217,2.3213,2.0391,2.3213c1.2861,0,2.0391-1.0195,2.0391-2.3213s-.7529-2.3057-2.0391-2.3057Z"/>
    <path class="cls-1" d="M147.3439,327.5455l-.0322,1.2236h.0479c.2979-.8164,1.0508-1.3652,1.8662-1.3652.5176,0,.7998.1416.7998.1416l-.1406,1.7412h-.0947c-.2188-.0635-.5645-.0947-.8311-.0947-.5957,0-1.0508.251-1.333.7373-.1885.377-.2822.8945-.2822,1.4746v3.7334h-1.9922v-7.5918h1.9922Z"/>
    <path class="cls-1" d="M152.757,327.5455l2.0078,5.3799,1.9766-5.3799h2.0859l-3.5293,8.6113c-.5488,1.333-1.1758,1.9766-2.2432,1.9766-1.082,0-1.7881-.3135-1.7881-.3135l.4082-1.5371s.5332.1875.9092.1875c.3926,0,.7217-.1094.8789-.502l.3291-.7842-3.1367-7.6387h2.1016Z"/>
    <path class="cls-1" d="M164.0842,325.8511v-1.5371h4.0156v10.8232h-1.9766v-9.2861h-2.0391Z"/>
    <path d="M101.6643,353.4546h-5.4395v-.9199h6.4434l.293.5996-4.7695,9.0234h-1.1855l4.6582-8.7031Z"/>
    <path d="M110.674,359.9956h-1.4365v2.1621h-1.0322v-2.1621h-4.9092v-.7803l4.8945-6.7363h1.0469v6.5967h1.4502l-.0137.9199ZM108.2053,359.0757l.0137-5.2578-3.8213,5.2578h3.8076Z"/>
    <path d="M111.8303,357.8619h3.208v.9072h-3.208v-.9072Z"/>
    <path d="M116.7111,361.3345l.5303-.8359c.46.4316,1.3105.9199,2.1475.9199.9062,0,1.4229-.2646,1.9111-.9482.6826-.9346.8359-2.3574.8359-3.4863-.2783.8643-1.1289,1.6592-2.6631,1.6592-1.5205,0-2.957-1.1436-2.957-2.9707s1.2275-3.2773,3.1797-3.2773c2.7617,0,3.459,2.5107,3.459,4.7695,0,2.3994-.9482,5.1602-3.7793,5.1602-1.5479,0-2.3574-.7246-2.6641-.9902ZM119.7102,357.7925c1.4502,0,2.1748-1.0459,2.1748-2.2598,0-1.1709-.7246-2.2871-2.1748-2.2871-1.4512,0-2.1484,1.1016-2.1484,2.2734s.7119,2.2734,2.1484,2.2734Z"/>
    <path d="M125.1066,360.6519l.6562-.5996c.418.7109,1.2266,1.3799,2.3564,1.3799,1.2139,0,2.3848-.7803,2.3848-2.3145,0-1.5205-1.1152-2.2461-2.3428-2.2461-.6553,0-1.3809.251-1.7295.5166l-.5859-.335.8926-4.5186h4.5752l-.0146.9199h-3.8066l-.6143,2.9014c.3486-.2236,1.0039-.3203,1.5479-.3203,1.7295,0,3.1387,1.0596,3.1387,3.0537,0,2.0918-1.6738,3.2354-3.459,3.2354-1.7715,0-2.6914-1.0879-2.999-1.6729Z"/>
    <path d="M144.2414,355.4917c1.9102,0,2.2734,1.3525,2.2734,2.7188v3.9473h-1.0322v-3.8906c0-.7949-.209-1.8828-1.3809-1.8828-1.0742,0-1.6738,1.0459-1.6738,2.3291v3.4443h-1.0322v-3.8906c0-.7949-.209-1.8828-1.3799-1.8828-1.0742,0-1.6885,1.0459-1.6885,2.3291v3.4443h-1.0312v-6.541h1.0312l-.0137,1.0459h.042c.3213-.6689,1.0039-1.1709,1.7988-1.1709,1.2832,0,1.8691.5996,2.1064,1.4082.2783-.8086,1.0596-1.4082,1.9805-1.4082Z"/>
    <path d="M149.0236,355.6031h1.0322v1.1572h.0137c.3633-.6133,1.2275-1.2686,2.3848-1.2686,2.0088,0,3.1797,1.4502,3.1797,3.3887s-1.3242,3.417-3.1514,3.417c-.9629,0-1.9111-.377-2.4131-1.2549l-.0137-.0146v3.752h-1.0322v-9.1768ZM154.5607,358.8804c0-1.4229-.8232-2.5244-2.2734-2.5244-1.3115,0-2.2734,1.1016-2.2734,2.5244,0,1.4082.7812,2.5107,2.2451,2.5107,1.4512,0,2.3018-1.1025,2.3018-2.5107Z"/>
    <path d="M163.1652,358.1968v3.9609h-1.0322v-3.8906c0-1.2139-.3906-1.8828-1.6045-1.8828-1.1709,0-1.7568.9619-1.7568,2.0918v3.6816h-1.0322v-9.623h1.0322v4.1416h.042c.293-.6973,1.1016-1.1846,2.0361-1.1846,1.8682,0,2.3154,1.1436,2.3154,2.7051Z"/>
  </g>
  <g>
    <path class="cls-1" d="M221.8869,335.3257c-3.168,0-5.6152-2.1494-5.6152-5.584s2.4785-5.585,5.6152-5.585c2.1182,0,3.3418.8945,3.7803,1.334l-.7207,1.6621c-.3145-.4072-1.5381-1.2393-3.0752-1.2393-1.8818,0-3.498,1.2393-3.498,3.7959,0,2.3379,1.459,3.8594,3.624,3.8594,1.4434,0,2.4473-.6279,3.0898-1.3174l.7217,1.5371c-.6113.6582-1.7881,1.5371-3.9219,1.5371Z"/>
    <path class="cls-1" d="M230.1086,335.3101c-1.4746,0-2.667-.8008-2.667-2.3848s1.5537-2.1963,3.1221-2.3057l1.8193-.126v-.2031c0-.9727-.6426-1.4277-1.6943-1.4277-1.0039,0-1.835.377-2.1641.627l-.6123-1.2861c.5811-.3447,1.6475-.7998,2.9648-.7998,1.3486,0,2.1172.3457,2.6826.8789.5488.5332.8311,1.2236.8311,2.5098v4.3447h-1.9297l-.0312-.8779c-.3135.5488-1.1914,1.0508-2.3213,1.0508ZM229.4494,332.8628c0,.6426.4863,1.082,1.3184,1.082.7842,0,1.3643-.4551,1.6309-.8311v-1.3965l-1.3643.0791c-1.0674.0625-1.585.4229-1.585,1.0664Z"/>
    <path class="cls-1" d="M239.9934,333.6314c.4072,0,.7217-.126.7217-.126l.1094,1.5537c-.0938.0312-.6904.251-1.5371.251-1.5527,0-2.1963-.7061-2.1963-2.6826v-3.5137h-1.1289v-1.5527h1.1289v-2.165h1.9922v2.165h1.7568v1.5527h-1.7568v3.0742c0,1.1611.2041,1.4434.9102,1.4434Z"/>
    <path class="cls-1" d="M246.4406,333.773c1.0195,0,1.9297-.4551,2.29-.7695l.7842,1.083c-.4229.4395-1.5684,1.2236-3.4189,1.2236-2.291,0-3.9844-1.3965-3.9844-3.8438,0-2.4307,1.7725-4.0625,3.9365-4.0625,2.3379,0,3.749,1.5371,3.749,3.5605,0,.3926-.0312,1.0195-.0312,1.0195h-5.584c.1885,1.208,1.1133,1.7891,2.2588,1.7891ZM244.1506,330.6822h3.6387c-.0312-.8311-.3447-1.7881-1.7568-1.7881-1.1914,0-1.8193.8311-1.8818,1.7881Z"/>
    <path class="cls-1" d="M254.9133,334.8863c-1.9141,0-3.5449-1.2236-3.5449-3.6387,0-2.1025,1.4746-3.8438,3.7334-3.8438,1.0195,0,1.8818.377,2.415,1.1924h.0312l-.0156-1.0508h1.9922v6.0234c0,1.6621-.3447,2.6035-.9883,3.2783-.6582.6904-1.6309,1.333-3.4502,1.333-1.8047,0-3.1533-.8623-3.5293-1.1289l.8311-1.3965c.4863.3447,1.7256.8945,2.6982.8945,1.082,0,1.6465-.3457,1.9287-.6748s.5176-.957.5176-1.8037v-.377h-.0312c-.5176.7842-1.4268,1.1924-2.5879,1.1924ZM255.509,328.9878c-1.3174,0-2.1016.9727-2.1016,2.2119,0,1.1611.7529,2.1182,2.0703,2.1182,1.4434,0,2.165-.957,2.165-2.1182,0-1.0977-.8154-2.2119-2.1338-2.2119Z"/>
    <path class="cls-1" d="M261.5656,331.3726c0-2.4004,1.7881-3.9688,4.125-3.9688,2.3213,0,4.1104,1.5684,4.1104,3.9688s-1.7891,3.9375-4.1104,3.9375c-2.3369,0-4.125-1.5371-4.125-3.9375ZM265.6906,329.0201c-1.3174,0-2.0391,1.0039-2.0391,2.3057s.7217,2.3213,2.0391,2.3213c1.2861,0,2.0391-1.0195,2.0391-2.3213s-.7529-2.3057-2.0391-2.3057Z"/>
    <path class="cls-1" d="M273.8029,327.5455l-.0312,1.2236h.0469c.2979-.8164,1.0508-1.3652,1.8662-1.3652.5176,0,.7998.1416.7998.1416l-.1406,1.7412h-.0947c-.2197-.0635-.5645-.0947-.8311-.0947-.5957,0-1.0508.251-1.333.7373-.1885.377-.2822.8945-.2822,1.4746v3.7334h-1.9922v-7.5918h1.9922Z"/>
    <path class="cls-1" d="M279.216,327.5455l2.0078,5.3799,1.9766-5.3799h2.0859l-3.5293,8.6113c-.5488,1.333-1.1758,1.9766-2.2432,1.9766-1.082,0-1.7881-.3135-1.7881-.3135l.4082-1.5371s.5332.1875.9092.1875c.3926,0,.7217-.1094.8789-.502l.3291-.7842-3.1367-7.6387h2.1016Z"/>
    <path class="cls-1" d="M294.2453,330.3687c.8623-.7998,1.6465-1.6943,1.6465-2.7607,0-1.082-.6904-1.7725-1.9131-1.7725-1.3652,0-2.1338.8623-2.6514,1.4434l-.9414-1.2393c.3457-.502,1.459-1.8828,3.749-1.8828,2.3057,0,3.7959,1.2705,3.7959,3.1846,0,1.8506-1.458,3.2158-2.1328,3.8584l-2.416,2.2588h5.0039v1.6787h-7.623l-.2666-1.3018,3.749-3.4668Z"/>
    <path d="M221.3312,361.3345l.5303-.8359c.46.4316,1.3105.9199,2.1475.9199.9062,0,1.4229-.2646,1.9111-.9482.6826-.9346.8359-2.3574.8359-3.4863-.2783.8643-1.1289,1.6592-2.6631,1.6592-1.5205,0-2.957-1.1436-2.957-2.9707s1.2275-3.2773,3.1797-3.2773c2.7617,0,3.459,2.5107,3.459,4.7695,0,2.3994-.9482,5.1602-3.7793,5.1602-1.5479,0-2.3574-.7246-2.6641-.9902ZM224.3303,357.7925c1.4502,0,2.1748-1.0459,2.1748-2.2598,0-1.1709-.7246-2.2871-2.1748-2.2871-1.4512,0-2.1484,1.1016-2.1484,2.2734s.7119,2.2734,2.1484,2.2734Z"/>
    <path d="M236.2394,353.399l-.5293.7119c-.5439-.4883-1.2139-.8232-2.1201-.8232-2.3428,0-2.748,2.5244-2.748,4.3516.3633-.7529,1.1719-1.5479,2.7617-1.5479,1.5205,0,2.873,1.1709,2.873,2.9561,0,1.8408-1.2275,3.2773-3.1797,3.2773-2.7754,0-3.4727-2.5098-3.4727-4.7832,0-2.4551.9482-5.1465,3.8076-5.1465,1.5898,0,2.4268.8652,2.6074,1.0039ZM233.3107,361.4605c1.3809,0,2.1201-1.1016,2.1201-2.2734s-.7529-2.2734-2.1475-2.2734c-1.3535,0-2.2041,1.0879-2.2041,2.2598,0,1.1709.8369,2.2871,2.2314,2.2871Z"/>
    <path d="M237.9543,357.8619h3.208v.9072h-3.208v-.9072Z"/>
    <path d="M244.3977,353.3433h-1.9248v-.8086h2.957v9.623h-1.0322v-8.8145Z"/>
    <path d="M250.883,353.3433h-1.9248v-.8086h2.957v9.623h-1.0322v-8.8145Z"/>
    <path d="M254.9963,357.3599c0-2.4961,1.0879-4.9648,3.584-4.9648,2.5244,0,3.585,2.4688,3.585,4.9648,0,2.4824-1.0605,4.9512-3.585,4.9512-2.5098,0-3.584-2.4688-3.584-4.9512ZM261.0773,357.3326c0-2.3574-.8506-4.0166-2.4971-4.0166-1.6455,0-2.4961,1.6592-2.4961,4.0166s.8506,4.0439,2.4961,4.0439c1.6465,0,2.4971-1.6875,2.4971-4.0439Z"/>
    <path d="M274.3957,355.4917c1.9102,0,2.2734,1.3525,2.2734,2.7188v3.9473h-1.0322v-3.8906c0-.7949-.209-1.8828-1.3809-1.8828-1.0742,0-1.6738,1.0459-1.6738,2.3291v3.4443h-1.0322v-3.8906c0-.7949-.209-1.8828-1.3799-1.8828-1.0742,0-1.6875,1.0459-1.6875,2.3291v3.4443h-1.0322v-6.541h1.0322l-.0146,1.0459h.042c.3213-.6689,1.0039-1.1709,1.7988-1.1709,1.2832,0,1.8691.5996,2.1064,1.4082.2783-.8086,1.0596-1.4082,1.9805-1.4082Z"/>
    <path d="M279.1779,355.6031h1.0322v1.1572h.0137c.3623-.6133,1.2275-1.2686,2.3848-1.2686,2.0088,0,3.1797,1.4502,3.1797,3.3887s-1.3242,3.417-3.1514,3.417c-.9629,0-1.9111-.377-2.4131-1.2549l-.0137-.0146v3.752h-1.0322v-9.1768ZM284.715,358.8804c0-1.4229-.8232-2.5244-2.2734-2.5244-1.3115,0-2.2734,1.1016-2.2734,2.5244,0,1.4082.7812,2.5107,2.2451,2.5107,1.4512,0,2.3018-1.1025,2.3018-2.5107Z"/>
    <path d="M293.3205,358.1968v3.9609h-1.0322v-3.8906c0-1.2139-.3906-1.8828-1.6045-1.8828-1.1709,0-1.7568.9619-1.7568,2.0918v3.6816h-1.0322v-9.623h1.0322v4.1416h.042c.293-.6973,1.1016-1.1846,2.0361-1.1846,1.8682,0,2.3154,1.1436,2.3154,2.7051Z"/>
  </g>
  <g>
    <path class="cls-1" d="M350.7307,335.3257c-3.168,0-5.6152-2.1494-5.6152-5.584s2.4785-5.585,5.6152-5.585c2.1182,0,3.3418.8945,3.7803,1.334l-.7207,1.6621c-.3145-.4072-1.5381-1.2393-3.0752-1.2393-1.8818,0-3.498,1.2393-3.498,3.7959,0,2.3379,1.459,3.8594,3.624,3.8594,1.4434,0,2.4473-.6279,3.0898-1.3174l.7217,1.5371c-.6113.6582-1.7881,1.5371-3.9219,1.5371Z"/>
    <path class="cls-1" d="M358.9523,335.3101c-1.4746,0-2.667-.8008-2.667-2.3848s1.5537-2.1963,3.1221-2.3057l1.8193-.126v-.2031c0-.9727-.6426-1.4277-1.6943-1.4277-1.0039,0-1.835.377-2.1641.627l-.6123-1.2861c.5811-.3447,1.6475-.7998,2.9648-.7998,1.3486,0,2.1172.3457,2.6826.8789.5488.5332.8311,1.2236.8311,2.5098v4.3447h-1.9297l-.0312-.8779c-.3135.5488-1.1914,1.0508-2.3213,1.0508ZM358.2932,332.8628c0,.6426.4863,1.082,1.3184,1.082.7842,0,1.3643-.4551,1.6309-.8311v-1.3965l-1.3643.0791c-1.0674.0625-1.585.4229-1.585,1.0664Z"/>
    <path class="cls-1" d="M368.8371,333.6314c.4072,0,.7217-.126.7217-.126l.1094,1.5537c-.0938.0312-.6904.251-1.5371.251-1.5527,0-2.1963-.7061-2.1963-2.6826v-3.5137h-1.1289v-1.5527h1.1289v-2.165h1.9922v2.165h1.7568v1.5527h-1.7568v3.0742c0,1.1611.2041,1.4434.9102,1.4434Z"/>
    <path class="cls-1" d="M375.2844,333.773c1.0195,0,1.9297-.4551,2.29-.7695l.7842,1.083c-.4229.4395-1.5684,1.2236-3.4189,1.2236-2.291,0-3.9844-1.3965-3.9844-3.8438,0-2.4307,1.7725-4.0625,3.9365-4.0625,2.3379,0,3.749,1.5371,3.749,3.5605,0,.3926-.0312,1.0195-.0312,1.0195h-5.584c.1885,1.208,1.1133,1.7891,2.2588,1.7891ZM372.9943,330.6822h3.6387c-.0312-.8311-.3447-1.7881-1.7568-1.7881-1.1914,0-1.8193.8311-1.8818,1.7881Z"/>
    <path class="cls-1" d="M383.757,334.8863c-1.9141,0-3.5449-1.2236-3.5449-3.6387,0-2.1025,1.4746-3.8438,3.7334-3.8438,1.0195,0,1.8818.377,2.415,1.1924h.0312l-.0156-1.0508h1.9922v6.0234c0,1.6621-.3447,2.6035-.9883,3.2783-.6582.6904-1.6309,1.333-3.4502,1.333-1.8047,0-3.1533-.8623-3.5293-1.1289l.8311-1.3965c.4863.3447,1.7256.8945,2.6982.8945,1.082,0,1.6465-.3457,1.9287-.6748s.5176-.957.5176-1.8037v-.377h-.0312c-.5176.7842-1.4268,1.1924-2.5879,1.1924ZM384.3527,328.9878c-1.3174,0-2.1016.9727-2.1016,2.2119,0,1.1611.7529,2.1182,2.0703,2.1182,1.4434,0,2.165-.957,2.165-2.1182,0-1.0977-.8154-2.2119-2.1338-2.2119Z"/>
    <path class="cls-1" d="M390.4094,331.3726c0-2.4004,1.7881-3.9688,4.125-3.9688,2.3213,0,4.1104,1.5684,4.1104,3.9688s-1.7891,3.9375-4.1104,3.9375c-2.3369,0-4.125-1.5371-4.125-3.9375ZM394.5344,329.0201c-1.3174,0-2.0391,1.0039-2.0391,2.3057s.7217,2.3213,2.0391,2.3213c1.2861,0,2.0391-1.0195,2.0391-2.3213s-.7529-2.3057-2.0391-2.3057Z"/>
    <path class="cls-1" d="M402.6467,327.5455l-.0312,1.2236h.0469c.2979-.8164,1.0508-1.3652,1.8662-1.3652.5176,0,.7998.1416.7998.1416l-.1406,1.7412h-.0947c-.2197-.0635-.5645-.0947-.8311-.0947-.5957,0-1.0508.251-1.333.7373-.1885.377-.2822.8945-.2822,1.4746v3.7334h-1.9922v-7.5918h1.9922Z"/>
    <path class="cls-1" d="M408.0598,327.5455l2.0078,5.3799,1.9766-5.3799h2.0859l-3.5293,8.6113c-.5488,1.333-1.1758,1.9766-2.2432,1.9766-1.082,0-1.7881-.3135-1.7881-.3135l.4082-1.5371s.5332.1875.9092.1875c.3926,0,.7217-.1094.8789-.502l.3291-.7842-3.1367-7.6387h2.1016Z"/>
    <path class="cls-1" d="M426.9943,332.0162c0,2.0703-1.8037,3.2939-4.0156,3.2939-2.0547,0-3.4512-1.4277-3.7178-1.8047l1.083-1.2861c.5488.6904,1.4746,1.3965,2.7139,1.3965s1.9131-.5332,1.9131-1.6787c0-1.1289-1.0352-1.6465-2.1484-1.6465h-.7217v-1.4902h.8779c1.0039,0,1.6943-.5332,1.6943-1.5215,0-.8633-.6748-1.4434-1.7725-1.4434-.9727,0-1.7412.4082-2.2588,1.0508l-1.0195-1.1445c.502-.6123,1.7412-1.585,3.4512-1.585,2.0078,0,3.5762,1.0508,3.5762,2.8555,0,1.3018-.9883,2.2109-1.6943,2.4619v.0479c.8789.2031,2.0391.9404,2.0391,2.4941Z"/>
    <path d="M349.9455,353.3433h-1.9248v-.8086h2.957v9.623h-1.0322v-8.8145Z"/>
    <path d="M356.4299,353.3433h-1.9248v-.8086h2.957v9.623h-1.0322v-8.8145Z"/>
    <path d="M362.9152,353.3433h-1.9248v-.8086h2.957v9.623h-1.0322v-8.8145Z"/>
    <path d="M366.9445,357.8619h3.208v.9072h-3.208v-.9072Z"/>
    <path d="M373.3879,353.3433h-1.9248v-.8086h2.957v9.623h-1.0322v-8.8145Z"/>
    <path d="M382.2863,358.4205l-2.8457,2.8311h5.0205v.9062h-6.3174l-.167-.7256,3.3887-3.3604c1.0596-1.0605,1.6602-1.7295,1.6602-2.8174,0-1.1582-.7119-1.9668-2.0508-1.9668-1.1992,0-2.1055.9209-2.4404,1.5479l-.6416-.627c.3066-.6699,1.3525-1.8135,3.124-1.8135,1.9521,0,3.0547,1.1299,3.0547,2.8311,0,1.4785-.9209,2.3428-1.7852,3.1943Z"/>
    <path d="M386.4416,361.3345l.5303-.8359c.46.4316,1.3105.9199,2.1475.9199.9062,0,1.4229-.2646,1.9111-.9482.6826-.9346.8359-2.3574.8359-3.4863-.2783.8643-1.1289,1.6592-2.6631,1.6592-1.5205,0-2.957-1.1436-2.957-2.9707s1.2275-3.2773,3.1797-3.2773c2.7617,0,3.459,2.5107,3.459,4.7695,0,2.3994-.9482,5.1602-3.7793,5.1602-1.5479,0-2.3574-.7246-2.6641-.9902ZM389.4396,357.7925c1.4512,0,2.1758-1.0459,2.1758-2.2598,0-1.1709-.7246-2.2871-2.1758-2.2871-1.4502,0-2.1475,1.1016-2.1475,2.2734s.7119,2.2734,2.1475,2.2734Z"/>
    <path d="M405.4504,355.4917c1.9102,0,2.2734,1.3525,2.2734,2.7188v3.9473h-1.0322v-3.8906c0-.7949-.209-1.8828-1.3809-1.8828-1.0742,0-1.6738,1.0459-1.6738,2.3291v3.4443h-1.0322v-3.8906c0-.7949-.209-1.8828-1.3799-1.8828-1.0742,0-1.6875,1.0459-1.6875,2.3291v3.4443h-1.0322v-6.541h1.0322l-.0146,1.0459h.042c.3213-.6689,1.0039-1.1709,1.7988-1.1709,1.2832,0,1.8691.5996,2.1064,1.4082.2783-.8086,1.0596-1.4082,1.9805-1.4082Z"/>
    <path d="M410.2326,355.6031h1.0322v1.1572h.0137c.3623-.6133,1.2275-1.2686,2.3848-1.2686,2.0088,0,3.1797,1.4502,3.1797,3.3887s-1.3242,3.417-3.1514,3.417c-.9629,0-1.9111-.377-2.4131-1.2549l-.0137-.0146v3.752h-1.0322v-9.1768ZM415.7697,358.8804c0-1.4229-.8232-2.5244-2.2734-2.5244-1.3115,0-2.2734,1.1016-2.2734,2.5244,0,1.4082.7812,2.5107,2.2451,2.5107,1.4512,0,2.3018-1.1025,2.3018-2.5107Z"/>
    <path d="M424.3732,358.1968v3.9609h-1.0312v-3.8906c0-1.2139-.3906-1.8828-1.6045-1.8828-1.1709,0-1.7568.9619-1.7568,2.0918v3.6816h-1.0322v-9.623h1.0322v4.1416h.042c.293-.6973,1.1016-1.1846,2.0361-1.1846,1.8691,0,2.3145,1.1436,2.3145,2.7051Z"/>
  </g>
  <g>
    <path class="cls-1" d="M479.5734,335.3257c-3.168,0-5.6152-2.1494-5.6152-5.584s2.4785-5.585,5.6152-5.585c2.1191,0,3.3418.8945,3.7812,1.334l-.7207,1.6621c-.3145-.4072-1.5391-1.2393-3.0762-1.2393-1.8809,0-3.498,1.2393-3.498,3.7959,0,2.3379,1.459,3.8594,3.625,3.8594,1.4434,0,2.4473-.6279,3.0898-1.3174l.7207,1.5371c-.6113.6582-1.7871,1.5371-3.9219,1.5371Z"/>
    <path class="cls-1" d="M487.7961,335.3101c-1.4746,0-2.668-.8008-2.668-2.3848s1.5547-2.1963,3.123-2.3057l1.8184-.126v-.2031c0-.9727-.6426-1.4277-1.6934-1.4277-1.0039,0-1.8359.377-2.1641.627l-.6133-1.2861c.582-.3447,1.6484-.7998,2.9648-.7998,1.3496,0,2.1172.3457,2.6836.8789.5488.5332.8301,1.2236.8301,2.5098v4.3447h-1.9297l-.0312-.8779c-.3125.5488-1.1914,1.0508-2.3203,1.0508ZM487.1359,332.8628c0,.6426.4863,1.082,1.3184,1.082.7852,0,1.3652-.4551,1.6309-.8311v-1.3965l-1.3633.0791c-1.0684.0625-1.5859.4229-1.5859,1.0664Z"/>
    <path class="cls-1" d="M497.6809,333.6314c.4062,0,.7207-.126.7207-.126l.1094,1.5537c-.0938.0312-.6895.251-1.5371.251-1.5527,0-2.1953-.7061-2.1953-2.6826v-3.5137h-1.1289v-1.5527h1.1289v-2.165h1.9922v2.165h1.7559v1.5527h-1.7559v3.0742c0,1.1611.2031,1.4434.9102,1.4434Z"/>
    <path class="cls-1" d="M504.1281,333.773c1.0195,0,1.9297-.4551,2.2891-.7695l.7852,1.083c-.4238.4395-1.5684,1.2236-3.4199,1.2236-2.291,0-3.9844-1.3965-3.9844-3.8438,0-2.4307,1.7734-4.0625,3.9375-4.0625,2.3379,0,3.748,1.5371,3.748,3.5605,0,.3926-.0312,1.0195-.0312,1.0195h-5.584c.1895,1.208,1.1133,1.7891,2.2598,1.7891ZM501.8371,330.6822h3.6387c-.0312-.8311-.3438-1.7881-1.7559-1.7881-1.1914,0-1.8203.8311-1.8828,1.7881Z"/>
    <path class="cls-1" d="M512.6008,334.8863c-1.9141,0-3.5449-1.2236-3.5449-3.6387,0-2.1025,1.4746-3.8438,3.7324-3.8438,1.0195,0,1.8828.377,2.416,1.1924h.0312l-.0156-1.0508h1.9922v6.0234c0,1.6621-.3457,2.6035-.9883,3.2783-.6582.6904-1.6309,1.333-3.4512,1.333-1.8047,0-3.1523-.8623-3.5293-1.1289l.832-1.3965c.4863.3447,1.7246.8945,2.6973.8945,1.082,0,1.6465-.3457,1.9297-.6748.2812-.3291.5176-.957.5176-1.8037v-.377h-.0312c-.5176.7842-1.4277,1.1924-2.5879,1.1924ZM513.1965,328.9878c-1.3184,0-2.1016.9727-2.1016,2.2119,0,1.1611.752,2.1182,2.0703,2.1182,1.4434,0,2.1641-.957,2.1641-2.1182,0-1.0977-.8145-2.2119-2.1328-2.2119Z"/>
    <path class="cls-1" d="M519.2531,331.3726c0-2.4004,1.7871-3.9688,4.125-3.9688,2.3203,0,4.1094,1.5684,4.1094,3.9688s-1.7891,3.9375-4.1094,3.9375c-2.3379,0-4.125-1.5371-4.125-3.9375ZM523.3781,329.0201c-1.3184,0-2.0391,1.0039-2.0391,2.3057s.7207,2.3213,2.0391,2.3213c1.2852,0,2.0391-1.0195,2.0391-2.3213s-.7539-2.3057-2.0391-2.3057Z"/>
    <path class="cls-1" d="M531.4894,327.5455l-.0312,1.2236h.0469c.2988-.8164,1.0508-1.3652,1.8672-1.3652.5176,0,.7988.1416.7988.1416l-.1406,1.7412h-.0938c-.2207-.0635-.5645-.0947-.832-.0947-.5957,0-1.0508.251-1.332.7373-.1895.377-.2832.8945-.2832,1.4746v3.7334h-1.9922v-7.5918h1.9922Z"/>
    <path class="cls-1" d="M536.9035,327.5455l2.0078,5.3799,1.9766-5.3799h2.0859l-3.5293,8.6113c-.5488,1.333-1.1758,1.9766-2.2441,1.9766-1.082,0-1.7871-.3135-1.7871-.3135l.4082-1.5371s.5332.1875.9082.1875c.3926,0,.7227-.1094.8789-.502l.3301-.7842-3.1367-7.6387h2.1016Z"/>
    <path class="cls-1" d="M547.6027,332.816v-1.5215l5.2227-7.0273h2.1035v6.9014h1.5059v1.6475h-1.5059v2.3213h-1.9609v-2.3213h-5.3652ZM553.0148,326.5103l-3.4824,4.6895h3.4824v-4.6895Z"/>
    <path d="M476.7238,353.3433h-1.9238v-.8086h2.957v9.623h-1.0332v-8.8145Z"/>
    <path d="M487.5461,359.5083c0,1.7012-1.4219,2.7891-3.3477,2.7891-1.8965,0-2.9414-1.4785-3.0117-1.6455l.6543-.6416c.1406.2227,1.0879,1.3945,2.3574,1.3945,1.3535,0,2.2871-.6836,2.2871-1.9385,0-1.2275-1.0039-1.8828-2.1895-1.8828h-.627v-.9072h.6699c1.0449,0,1.8672-.6553,1.8672-1.7012,0-1.1016-.8633-1.6875-1.9238-1.6875-1.0176,0-1.7148.5439-2.3145,1.1719l-.5586-.6416c.5293-.7256,1.4922-1.4229,2.9434-1.4229,1.6445,0,2.9004.9346,2.9004,2.4688,0,1.4785-1.0742,2.0498-1.6172,2.2031v.042c.9473.209,1.9102.8369,1.9102,2.3994Z"/>
    <path d="M489.3859,357.3599c0-2.4961,1.0879-4.9648,3.584-4.9648,2.5254,0,3.5859,2.4688,3.5859,4.9648,0,2.4824-1.0605,4.9512-3.5859,4.9512-2.5098,0-3.584-2.4688-3.584-4.9512ZM495.468,357.3326c0-2.3574-.8516-4.0166-2.498-4.0166-1.6445,0-2.4961,1.6592-2.4961,4.0166s.8516,4.0439,2.4961,4.0439c1.6465,0,2.498-1.6875,2.498-4.0439Z"/>
    <path d="M497.8508,357.8619h3.209v.9072h-3.209v-.9072Z"/>
    <path d="M504.2961,353.3433h-1.9258v-.8086h2.957v9.623h-1.0312v-8.8145Z"/>
    <path d="M508.673,360.6519l.6562-.5996c.418.7109,1.2266,1.3799,2.3574,1.3799,1.2129,0,2.3848-.7803,2.3848-2.3145,0-1.5205-1.1152-2.2461-2.3438-2.2461-.6543,0-1.3809.251-1.7285.5166l-.5859-.335.8926-4.5186h4.5742l-.0137.9199h-3.8066l-.6152,2.9014c.3496-.2236,1.0039-.3203,1.5488-.3203,1.7285,0,3.1387,1.0596,3.1387,3.0537,0,2.0918-1.6738,3.2354-3.459,3.2354-1.7715,0-2.6914-1.0879-3-1.6729Z"/>
    <path d="M523.7082,353.399l-.5293.7119c-.5449-.4883-1.2148-.8232-2.1211-.8232-2.3418,0-2.748,2.5244-2.748,4.3516.3633-.7529,1.1719-1.5479,2.7617-1.5479,1.5215,0,2.873,1.1709,2.873,2.9561,0,1.8408-1.2266,3.2773-3.1797,3.2773-2.7754,0-3.4727-2.5098-3.4727-4.7832,0-2.4551.9492-5.1465,3.8086-5.1465,1.5898,0,2.4258.8652,2.6074,1.0039ZM520.7785,361.4605c1.3809,0,2.1211-1.1016,2.1211-2.2734s-.7539-2.2734-2.1484-2.2734c-1.3535,0-2.2031,1.0879-2.2031,2.2598,0,1.1709.8359,2.2871,2.2305,2.2871Z"/>
    <path d="M536.3566,355.4917c1.9102,0,2.2734,1.3525,2.2734,2.7188v3.9473h-1.0312v-3.8906c0-.7949-.209-1.8828-1.3809-1.8828-1.0742,0-1.6738,1.0459-1.6738,2.3291v3.4443h-1.0332v-3.8906c0-.7949-.209-1.8828-1.3789-1.8828-1.0742,0-1.6895,1.0459-1.6895,2.3291v3.4443h-1.0312v-6.541h1.0312l-.0137,1.0459h.043c.3203-.6689,1.0039-1.1709,1.7988-1.1709,1.2832,0,1.8691.5996,2.1055,1.4082.2793-.8086,1.0605-1.4082,1.9805-1.4082Z"/>
    <path d="M541.1398,355.6031h1.0332v1.1572h.0137c.3613-.6133,1.2266-1.2686,2.3848-1.2686,2.0078,0,3.1797,1.4502,3.1797,3.3887s-1.3242,3.417-3.1523,3.417c-.9629,0-1.9102-.377-2.4121-1.2549l-.0137-.0146v3.752h-1.0332v-9.1768ZM546.6769,358.8804c0-1.4229-.8223-2.5244-2.2734-2.5244-1.3105,0-2.2734,1.1016-2.2734,2.5244,0,1.4082.7812,2.5107,2.2461,2.5107,1.4512,0,2.3008-1.1025,2.3008-2.5107Z"/>
    <path d="M555.2805,358.1968v3.9609h-1.0312v-3.8906c0-1.2139-.3906-1.8828-1.6035-1.8828-1.1719,0-1.7578.9619-1.7578,2.0918v3.6816h-1.0312v-9.623h1.0312v4.1416h.043c.293-.6973,1.1016-1.1846,2.0352-1.1846,1.8691,0,2.3145,1.1436,2.3145,2.7051Z"/>
  </g>
  <g>
    <path class="cls-1" d="M608.4182,335.3257c-3.168,0-5.6152-2.1494-5.6152-5.584s2.4785-5.585,5.6152-5.585c2.1182,0,3.3418.8945,3.7803,1.334l-.7207,1.6621c-.3145-.4072-1.5381-1.2393-3.0752-1.2393-1.8818,0-3.498,1.2393-3.498,3.7959,0,2.3379,1.459,3.8594,3.624,3.8594,1.4434,0,2.4473-.6279,3.0898-1.3174l.7217,1.5371c-.6113.6582-1.7881,1.5371-3.9219,1.5371Z"/>
    <path class="cls-1" d="M616.6398,335.3101c-1.4746,0-2.667-.8008-2.667-2.3848s1.5537-2.1963,3.1221-2.3057l1.8193-.126v-.2031c0-.9727-.6426-1.4277-1.6943-1.4277-1.0039,0-1.835.377-2.1641.627l-.6123-1.2861c.5811-.3447,1.6475-.7998,2.9648-.7998,1.3486,0,2.1172.3457,2.6826.8789.5488.5332.8311,1.2236.8311,2.5098v4.3447h-1.9297l-.0312-.8779c-.3135.5488-1.1914,1.0508-2.3213,1.0508ZM615.9807,332.8628c0,.6426.4863,1.082,1.3184,1.082.7842,0,1.3643-.4551,1.6309-.8311v-1.3965l-1.3643.0791c-1.0674.0625-1.585.4229-1.585,1.0664Z"/>
    <path class="cls-1" d="M626.5246,333.6314c.4072,0,.7217-.126.7217-.126l.1094,1.5537c-.0938.0312-.6904.251-1.5371.251-1.5527,0-2.1963-.7061-2.1963-2.6826v-3.5137h-1.1289v-1.5527h1.1289v-2.165h1.9922v2.165h1.7568v1.5527h-1.7568v3.0742c0,1.1611.2041,1.4434.9102,1.4434Z"/>
    <path class="cls-1" d="M632.9719,333.773c1.0195,0,1.9297-.4551,2.29-.7695l.7842,1.083c-.4229.4395-1.5684,1.2236-3.4189,1.2236-2.291,0-3.9844-1.3965-3.9844-3.8438,0-2.4307,1.7725-4.0625,3.9365-4.0625,2.3379,0,3.749,1.5371,3.749,3.5605,0,.3926-.0312,1.0195-.0312,1.0195h-5.584c.1885,1.208,1.1133,1.7891,2.2588,1.7891ZM630.6818,330.6822h3.6387c-.0312-.8311-.3447-1.7881-1.7568-1.7881-1.1914,0-1.8193.8311-1.8818,1.7881Z"/>
    <path class="cls-1" d="M641.4445,334.8863c-1.9141,0-3.5449-1.2236-3.5449-3.6387,0-2.1025,1.4746-3.8438,3.7334-3.8438,1.0195,0,1.8818.377,2.415,1.1924h.0312l-.0156-1.0508h1.9922v6.0234c0,1.6621-.3447,2.6035-.9883,3.2783-.6582.6904-1.6309,1.333-3.4502,1.333-1.8047,0-3.1533-.8623-3.5293-1.1289l.8311-1.3965c.4863.3447,1.7256.8945,2.6982.8945,1.082,0,1.6465-.3457,1.9287-.6748s.5176-.957.5176-1.8037v-.377h-.0312c-.5176.7842-1.4268,1.1924-2.5879,1.1924ZM642.0402,328.9878c-1.3174,0-2.1016.9727-2.1016,2.2119,0,1.1611.7529,2.1182,2.0703,2.1182,1.4434,0,2.165-.957,2.165-2.1182,0-1.0977-.8154-2.2119-2.1338-2.2119Z"/>
    <path class="cls-1" d="M648.0969,331.3726c0-2.4004,1.7881-3.9688,4.125-3.9688,2.3213,0,4.1104,1.5684,4.1104,3.9688s-1.7891,3.9375-4.1104,3.9375c-2.3369,0-4.125-1.5371-4.125-3.9375ZM652.2219,329.0201c-1.3174,0-2.0391,1.0039-2.0391,2.3057s.7217,2.3213,2.0391,2.3213c1.2861,0,2.0391-1.0195,2.0391-2.3213s-.7529-2.3057-2.0391-2.3057Z"/>
    <path class="cls-1" d="M660.3342,327.5455l-.0312,1.2236h.0469c.2979-.8164,1.0508-1.3652,1.8662-1.3652.5176,0,.7998.1416.7998.1416l-.1406,1.7412h-.0947c-.2197-.0635-.5645-.0947-.8311-.0947-.5957,0-1.0508.251-1.333.7373-.1885.377-.2822.8945-.2822,1.4746v3.7334h-1.9922v-7.5918h1.9922Z"/>
    <path class="cls-1" d="M665.7473,327.5455l2.0078,5.3799,1.9766-5.3799h2.0859l-3.5293,8.6113c-.5488,1.333-1.1758,1.9766-2.2432,1.9766-1.082,0-1.7881-.3135-1.7881-.3135l.4082-1.5371s.5332.1875.9092.1875c.3926,0,.7217-.1094.8789-.502l.3291-.7842-3.1367-7.6387h2.1016Z"/>
    <path class="cls-1" d="M682.7209,331.5923c0-1.459-1.0352-2.1025-2.2588-2.1025-.7207,0-1.4424.2354-1.9443.5654l-.9258-.5488,1.0195-5.1924h5.7568l-.0156,1.6787h-4.4551l-.5176,2.415c.5176-.2197,1.1611-.3604,1.8193-.3604,1.9766,0,3.5928,1.3018,3.5928,3.5762,0,2.3682-1.9922,3.6865-4.2354,3.6865-2.0547,0-3.4512-1.4277-3.7178-1.8047l1.082-1.2861c.5498.6904,1.4746,1.3965,2.7139,1.3965.9414,0,2.0859-.5488,2.0859-2.0234Z"/>
    <path d="M614.675,353.3433h-1.9248v-.8086h2.957v9.623h-1.0322v-8.8145Z"/>
    <path d="M619.0529,360.6519l.6562-.5996c.418.7109,1.2266,1.3799,2.3564,1.3799,1.2139,0,2.3848-.7803,2.3848-2.3145,0-1.5205-1.1152-2.2461-2.3428-2.2461-.6553,0-1.3809.251-1.7295.5166l-.5859-.335.8926-4.5186h4.5752l-.0146.9199h-3.8066l-.6143,2.9014c.3486-.2236,1.0039-.3203,1.5479-.3203,1.7295,0,3.1387,1.0596,3.1387,3.0537,0,2.0918-1.6738,3.2354-3.459,3.2354-1.7715,0-2.6914-1.0879-2.999-1.6729Z"/>
    <path d="M632.8605,353.4546h-5.4395v-.9199h6.4434l.293.5996-4.7695,9.0234h-1.1855l4.6582-8.7031Z"/>
    <path d="M639.2902,357.7642h-3.166v-.8223h3.166v-3.166h.8369v3.166h3.166v.8223h-3.166v3.166h-.8369v-3.166Z"/>
    <path d="M656.0949,355.4917c1.9102,0,2.2734,1.3525,2.2734,2.7188v3.9473h-1.0322v-3.8906c0-.7949-.209-1.8828-1.3809-1.8828-1.0742,0-1.6738,1.0459-1.6738,2.3291v3.4443h-1.0322v-3.8906c0-.7949-.209-1.8828-1.3799-1.8828-1.0742,0-1.6875,1.0459-1.6875,2.3291v3.4443h-1.0322v-6.541h1.0322l-.0146,1.0459h.042c.3213-.6689,1.0039-1.1709,1.7988-1.1709,1.2832,0,1.8691.5996,2.1064,1.4082.2783-.8086,1.0596-1.4082,1.9805-1.4082Z"/>
    <path d="M660.8771,355.6031h1.0322v1.1572h.0137c.3623-.6133,1.2275-1.2686,2.3848-1.2686,2.0088,0,3.1797,1.4502,3.1797,3.3887s-1.3242,3.417-3.1514,3.417c-.9629,0-1.9111-.377-2.4131-1.2549l-.0137-.0146v3.752h-1.0322v-9.1768ZM666.4143,358.8804c0-1.4229-.8232-2.5244-2.2734-2.5244-1.3115,0-2.2734,1.1016-2.2734,2.5244,0,1.4082.7812,2.5107,2.2451,2.5107,1.4512,0,2.3018-1.1025,2.3018-2.5107Z"/>
    <path d="M675.0197,358.1968v3.9609h-1.0322v-3.8906c0-1.2139-.3906-1.8828-1.6045-1.8828-1.1709,0-1.7568.9619-1.7568,2.0918v3.6816h-1.0322v-9.623h1.0322v4.1416h.042c.293-.6973,1.1016-1.1846,2.0361-1.1846,1.8682,0,2.3154,1.1436,2.3154,2.7051Z"/>
  </g>
  <g id="_8J29PC" data-name="8J29PC">
    <path class="cls-2" d="M102.0244,277.7337c-.231-.3424.3221-.368.5448-.461.8399-.3507,1.9439-.6557,2.7354-1.0248,5.8764-2.7403,12.4864-8.239,17.4073-12.5153.7178-.6238,7.0892-6.1658,6.8602-6.5833-17.8973-4.6228-30.0577-21.677-28.3768-40.194,1.8796-20.7058,20.7407-35.1184,38.4534-43.0916,11.5418-5.1955,23.9369-8.3998,36.2968-10.7984.2308.3433-.3219.3679-.5449.4613-1.7678.7409-3.352,1.2831-5.0578,2.239-4.379,2.454-8.8836,6.0625-12.7462,9.2829-3.2063,2.6732-6.1938,5.5954-9.3542,8.3157-.0956.3876,1.8414.6314,2.2609.7686,23.8196,7.7929,33.8256,35.6558,20.4117,56.7614-9.7695,15.3715-26.9765,24.5408-43.7699,30.3937-8.1813,2.8514-16.638,4.8187-25.1208,6.4458ZM142.5335,204.4645c-21.2595-4.581-27.8671,27.4398-6.8441,31.8329,20.9594,4.3798,27.5557-27.3699,6.8441-31.8329Z"/>
  </g>
  <g id="_8J29PC-2" data-name="8J29PC">
    <path class="cls-2" d="M210.2431,283.2202c-.2531-.3752.3529-.4031.5969-.505.9202-.3842,2.1298-.7184,2.9971-1.1229,6.4385-3.0024,13.6808-9.0272,19.0724-13.7125.7865-.6835,7.7673-6.7556,7.5164-7.213-19.6094-5.065-32.933-23.7506-31.0913-44.0389,2.0594-22.6865,22.7247-38.4777,42.1318-47.2137,12.6459-5.6924,26.2267-9.2033,39.7689-11.8314.2529.3761-.3527.4031-.597.5055-1.9369.8118-3.6726,1.4058-5.5416,2.4532-4.7978,2.6887-9.7334,6.6424-13.9655,10.1709-3.513,2.9289-6.7863,6.1306-10.249,9.1112-.1048.4246,2.0176.6918,2.4771.8422,26.0982,8.5383,37.0613,39.0665,22.3642,62.1911-10.7041,16.8419-29.557,26.8883-47.9568,33.3011-8.9639,3.1241-18.2296,5.2796-27.5239,7.0624ZM254.6273,202.9423c-23.2932-5.0192-30.5328,30.0647-7.4988,34.878,22.9644,4.7988,30.1916-29.9881,7.4988-34.878Z"/>
  </g>
  <g id="_8J29PC-3" data-name="8J29PC">
    <path class="cls-2" d="M332.8029,291.7326c-.2874-.426.4007-.4578.6777-.5735,1.0448-.4363,2.4183-.8157,3.4031-1.275,7.3107-3.4091,15.534-10.25,21.6559-15.57.893-.776,8.8194-7.6707,8.5346-8.1901-22.2656-5.7511-37.394-26.9678-35.3028-50.0043,2.3384-25.7595,25.8029-43.6898,47.8389-53.6092,14.3589-6.4635,29.7793-10.4499,45.1559-13.4341.2871.4271-.4005.4577-.6779.5739-2.1992.9218-4.1701,1.5962-6.2923,2.7855-5.4477,3.0529-11.0519,7.5421-15.8572,11.5486-3.9888,3.3257-7.7056,6.961-11.6373,10.3454-.1189.4821,2.2909.7855,2.8127.9562,29.6334,9.6949,42.0815,44.3584,25.3936,70.6153-12.154,19.1233-33.5608,30.5305-54.4529,37.812-10.1781,3.5473-20.6989,5.9948-31.2522,8.0191ZM383.1993,200.5804c-26.4484-5.6991-34.6687,34.1371-8.5146,39.6025,26.0751,5.4488,34.2813-34.0502,8.5146-39.6025Z"/>
  </g>
  <g id="_8J29PC-4" data-name="8J29PC">
    <path class="cls-2" d="M458.6909,295.0787c-.3009-.446.4194-.4792.7095-.6004,1.0938-.4568,2.5317-.854,3.5627-1.3347,7.6535-3.569,16.2625-10.7306,22.6715-16.3001.9349-.8124,9.233-8.0304,8.9348-8.5742-23.3097-6.0208-39.1475-28.2325-36.9583-52.3492,2.448-26.9675,27.0129-45.7386,50.0823-56.1231,15.0322-6.7666,31.1758-10.94,47.2734-14.064.3006.4471-.4192.4791-.7097.6009-2.3024.965-4.3656,1.6711-6.5873,2.9161-5.7032,3.1961-11.5701,7.8958-16.6008,12.0902-4.1759,3.4816-8.0669,7.2875-12.183,10.8305-.1245.5048,2.3983.8223,2.9446,1.0011,31.023,10.1495,44.0549,46.4385,26.5845,73.9267-12.724,20.0201-35.1346,31.9622-57.0064,39.5851-10.6554,3.7137-21.6696,6.2759-32.7177,8.3951ZM511.4506,199.652c-27.6887-5.9664-36.2945,35.738-8.9138,41.4596,27.2978,5.7043,35.8889-35.647,8.9138-41.4596Z"/>
  </g>
  <g id="_8J29PC-5" data-name="8J29PC">
    <path class="cls-2" d="M593.6687,309.6023c-.3594-.5327.501-.5724.8475-.7171,1.3065-.5456,3.024-1.02,4.2553-1.5942,9.1415-4.2629,19.4243-12.8169,27.0794-19.4693,1.1166-.9704,11.0281-9.5917,10.6719-10.2412-27.8417-7.1914-46.7588-33.7215-44.1439-62.5271,2.924-32.2106,32.2649-54.6313,59.8195-67.0348,17.9549-8.0822,37.2371-13.067,56.4645-16.7984.359.534-.5008.5723-.8477.7177-2.75,1.1526-5.2144,1.996-7.8681,3.4831-6.812,3.8175-13.8196,9.431-19.8284,14.4408-4.9878,4.1586-9.6354,8.7043-14.5516,12.9362-.1487.6029,2.8646.9822,3.5171,1.1957,37.0546,12.1229,52.6202,55.4673,31.7531,88.2999-15.1978,23.9125-41.9656,38.1765-68.0899,47.2814-12.7271,4.4357-25.8827,7.4961-39.0788,10.0273ZM656.6861,195.6223c-33.072-7.1264-43.351,42.6863-10.6469,49.5203,32.6052,6.8134,42.8666-42.5776,10.6469-49.5203Z"/>
  </g>
</svg>