<?xml version="1.0" encoding="UTF-8"?>
<svg id="Layer_1" data-name="Layer 1" xmlns="http://www.w3.org/2000/svg" viewBox="0 0 800 496">
  <defs>
    <style>
      .cls-1 {
        fill: #010101;
      }

      .cls-2 {
        fill: #231f20;
      }

      .cls-3 {
        fill: #ee2b2f;
      }

      .cls-4 {
        fill: #999;
      }
    </style>
  </defs>
  <g>
    <g>
      <path class="cls-2" d="M128.1673,322.6391c-3.168,0-5.6152-2.1494-5.6152-5.584s2.4785-5.585,5.6152-5.585c2.1172,0,3.3418.8945,3.7793,1.334l-.7207,1.6621c-.3145-.4072-1.5371-1.2393-3.0742-1.2393-1.8828,0-3.498,1.2393-3.498,3.7959,0,2.3379,1.459,3.8594,3.623,3.8594,1.4434,0,2.4473-.6279,3.0898-1.3174l.7227,1.5371c-.6113.6582-1.7891,1.5371-3.9219,1.5371Z"/>
      <path class="cls-2" d="M136.388,322.6235c-1.4746,0-2.666-.8008-2.666-2.3848s1.5527-2.1963,3.1211-2.3057l1.8203-.126v-.2031c0-.9727-.6426-1.4277-1.6953-1.4277-1.0039,0-1.834.377-2.1641.627l-.6113-1.2861c.5801-.3447,1.6465-.7998,2.9648-.7998,1.3477,0,2.1172.3457,2.6816.8789.5488.5332.832,1.2236.832,2.5098v4.3447h-1.9297l-.0312-.8779c-.3145.5488-1.1914,1.0508-2.3223,1.0508ZM135.7298,320.1762c0,.6426.4863,1.082,1.3184,1.082.7832,0,1.3633-.4551,1.6309-.8311v-1.3965l-1.3652.0791c-1.0664.0625-1.584.4229-1.584,1.0664Z"/>
      <path class="cls-2" d="M146.2727,320.9448c.4082,0,.7227-.126.7227-.126l.1094,1.5537c-.0938.0312-.6914.251-1.5371.251-1.5527,0-2.1973-.7061-2.1973-2.6826v-3.5137h-1.1289v-1.5527h1.1289v-2.165h1.9922v2.165h1.7578v1.5527h-1.7578v3.0742c0,1.1611.2051,1.4434.9102,1.4434Z"/>
      <path class="cls-2" d="M152.72,321.0864c1.0195,0,1.9297-.4551,2.291-.7695l.7832,1.083c-.4219.4395-1.5684,1.2236-3.418,1.2236-2.291,0-3.9844-1.3965-3.9844-3.8438,0-2.4307,1.7715-4.0625,3.9355-4.0625,2.3379,0,3.75,1.5371,3.75,3.5605,0,.3926-.0312,1.0195-.0312,1.0195h-5.584c.1875,1.208,1.1133,1.7891,2.2578,1.7891ZM150.4309,317.9956h3.6387c-.0312-.8311-.3457-1.7881-1.7578-1.7881-1.1914,0-1.8184.8311-1.8809,1.7881Z"/>
      <path class="cls-2" d="M161.1927,322.1997c-1.9141,0-3.5449-1.2236-3.5449-3.6387,0-2.1025,1.4746-3.8438,3.7344-3.8438,1.0195,0,1.8809.377,2.4141,1.1924h.0312l-.0156-1.0508h1.9922v6.0234c0,1.6621-.3438,2.6035-.9883,3.2783-.6582.6904-1.6309,1.333-3.4492,1.333-1.8047,0-3.1543-.8623-3.5293-1.1289l.8301-1.3965c.4863.3447,1.7266.8945,2.6992.8945,1.082,0,1.6465-.3457,1.9277-.6748.2832-.3291.5176-.957.5176-1.8037v-.377h-.0312c-.5176.7842-1.4258,1.1924-2.5879,1.1924ZM161.7884,316.3012c-1.3164,0-2.1016.9727-2.1016,2.2119,0,1.1611.7539,2.1182,2.0703,2.1182,1.4434,0,2.166-.957,2.166-2.1182,0-1.0977-.8164-2.2119-2.1348-2.2119Z"/>
      <path class="cls-2" d="M167.845,318.686c0-2.4004,1.7891-3.9688,4.125-3.9688,2.3223,0,4.1113,1.5684,4.1113,3.9688s-1.7891,3.9375-4.1113,3.9375c-2.3359,0-4.125-1.5371-4.125-3.9375ZM171.97,316.3335c-1.3164,0-2.0391,1.0039-2.0391,2.3057s.7227,2.3213,2.0391,2.3213c1.2871,0,2.0391-1.0195,2.0391-2.3213s-.752-2.3057-2.0391-2.3057Z"/>
      <path class="cls-2" d="M180.0833,314.8589l-.0312,1.2236h.0469c.2969-.8164,1.0508-1.3652,1.8652-1.3652.5176,0,.8008.1416.8008.1416l-.1406,1.7412h-.0957c-.2188-.0635-.5645-.0947-.8301-.0947-.5957,0-1.0508.251-1.334.7373-.1875.377-.2812.8945-.2812,1.4746v3.7334h-1.9922v-7.5918h1.9922Z"/>
      <path class="cls-2" d="M185.4954,314.8589l2.0078,5.3799,1.9766-5.3799h2.0859l-3.5293,8.6113c-.5488,1.333-1.1758,1.9766-2.2422,1.9766-1.082,0-1.7891-.3135-1.7891-.3135l.4082-1.5371s.5332.1875.9102.1875c.3926,0,.7207-.1094.8789-.502l.3281-.7842-3.1367-7.6387h2.1016Z"/>
      <path class="cls-2" d="M196.1946,320.1294v-1.5215l5.2246-7.0273h2.1016v6.9014h1.5059v1.6475h-1.5059v2.3213h-1.9609v-2.3213h-5.3652ZM201.6067,313.8237l-3.4824,4.6895h3.4824v-4.6895Z"/>
      <path d="M125.3177,340.6567h-1.9258v-.8086h2.957v9.623h-1.0312v-8.8145Z"/>
      <path d="M136.138,346.8218c0,1.7012-1.4219,2.7891-3.3457,2.7891-1.8965,0-2.9434-1.4785-3.0137-1.6455l.6562-.6416c.1387.2227,1.0879,1.3945,2.3574,1.3945,1.3516,0,2.2871-.6836,2.2871-1.9385,0-1.2275-1.0039-1.8828-2.1895-1.8828h-.6289v-.9072h.6699c1.0469,0,1.8691-.6553,1.8691-1.7012,0-1.1016-.8652-1.6875-1.9238-1.6875-1.0195,0-1.7168.5439-2.3164,1.1719l-.5566-.6416c.5293-.7256,1.4922-1.4229,2.9414-1.4229,1.6465,0,2.9023.9346,2.9023,2.4688,0,1.4785-1.0742,2.0498-1.6191,2.2031v.042c.9492.209,1.9102.8369,1.9102,2.3994Z"/>
      <path d="M137.9798,344.6733c0-2.4961,1.0879-4.9648,3.584-4.9648,2.5234,0,3.584,2.4688,3.584,4.9648,0,2.4824-1.0605,4.9512-3.584,4.9512-2.5098,0-3.584-2.4688-3.584-4.9512ZM144.0599,344.646c0-2.3574-.8496-4.0166-2.4961-4.0166s-2.4961,1.6592-2.4961,4.0166.8496,4.0439,2.4961,4.0439,2.4961-1.6875,2.4961-4.0439Z"/>
      <path d="M146.4446,345.1753h3.207v.9072h-3.207v-.9072Z"/>
      <path d="M152.888,340.6567h-1.9238v-.8086h2.957v9.623h-1.0332v-8.8145Z"/>
      <path d="M157.2669,347.9653l.6562-.5996c.418.7109,1.2266,1.3799,2.3555,1.3799,1.2148,0,2.3848-.7803,2.3848-2.3145,0-1.5205-1.1152-2.2461-2.3418-2.2461-.6562,0-1.3809.251-1.7305.5166l-.5859-.335.8926-4.5186h4.5762l-.0156.9199h-3.8066l-.6133,2.9014c.3477-.2236,1.0039-.3203,1.5469-.3203,1.7305,0,3.1387,1.0596,3.1387,3.0537,0,2.0918-1.6738,3.2354-3.459,3.2354-1.7715,0-2.6914-1.0879-2.998-1.6729Z"/>
      <path d="M172.3001,340.7124l-.5293.7119c-.543-.4883-1.2129-.8232-2.1191-.8232-2.3438,0-2.748,2.5244-2.748,4.3516.3633-.7529,1.1719-1.5479,2.7617-1.5479,1.5195,0,2.873,1.1709,2.873,2.9561,0,1.8408-1.2285,3.2773-3.1797,3.2773-2.7754,0-3.4727-2.5098-3.4727-4.7832,0-2.4551.9473-5.1465,3.8066-5.1465,1.5898,0,2.4277.8652,2.6074,1.0039ZM169.3724,348.7739c1.3809,0,2.1191-1.1016,2.1191-2.2734s-.752-2.2734-2.1465-2.2734c-1.3535,0-2.2051,1.0879-2.2051,2.2598,0,1.1709.8379,2.2871,2.2324,2.2871Z"/>
      <path d="M184.9505,342.8052c1.9102,0,2.2734,1.3525,2.2734,2.7188v3.9473h-1.0332v-3.8906c0-.7949-.209-1.8828-1.3809-1.8828-1.0742,0-1.6738,1.0459-1.6738,2.3291v3.4443h-1.0312v-3.8906c0-.7949-.209-1.8828-1.3809-1.8828-1.0742,0-1.6875,1.0459-1.6875,2.3291v3.4443h-1.0312v-6.541h1.0312l-.0137,1.0459h.041c.3223-.6689,1.0039-1.1709,1.7988-1.1709,1.2832,0,1.8691.5996,2.1074,1.4082.2773-.8086,1.0586-1.4082,1.9805-1.4082Z"/>
      <path d="M189.7337,342.9165h1.0312v1.1572h.0137c.3633-.6133,1.2285-1.2686,2.3848-1.2686,2.0098,0,3.1797,1.4502,3.1797,3.3887s-1.3242,3.417-3.1504,3.417c-.9629,0-1.9121-.377-2.4141-1.2549l-.0137-.0146v3.752h-1.0312v-9.1768ZM195.2708,346.1938c0-1.4229-.8242-2.5244-2.2734-2.5244-1.3125,0-2.2734,1.1016-2.2734,2.5244,0,1.4082.7812,2.5107,2.2441,2.5107,1.4512,0,2.3027-1.1025,2.3027-2.5107Z"/>
      <path d="M203.8743,345.5102v3.9609h-1.0312v-3.8906c0-1.2139-.3906-1.8828-1.6055-1.8828-1.1699,0-1.7559.9619-1.7559,2.0918v3.6816h-1.0332v-9.623h1.0332v4.1416h.041c.293-.6973,1.1016-1.1846,2.0371-1.1846,1.8691,0,2.3145,1.1436,2.3145,2.7051Z"/>
    </g>
    <g id="_8J29PC" data-name="8J29PC">
      <path class="cls-3" d="M115.5607,282.3921c-.3009-.446.4194-.4792.7095-.6004,1.0938-.4568,2.5317-.854,3.5627-1.3347,7.6535-3.569,16.2625-10.7306,22.6715-16.3001.9349-.8124,9.233-8.0304,8.9348-8.5742-23.3097-6.0208-39.1475-28.2325-36.9583-52.3492,2.448-26.9675,27.0129-45.7386,50.0823-56.1231,15.0322-6.7666,31.1758-10.94,47.2734-14.064.3006.4471-.4192.4791-.7097.6009-2.3024.965-4.3656,1.6711-6.5873,2.9161-5.7032,3.1961-11.5701,7.8958-16.6008,12.0902-4.1759,3.4816-8.0669,7.2875-12.183,10.8305-.1245.5048,2.3983.8223,2.9446,1.0011,31.023,10.1495,44.0549,46.4385,26.5845,73.9267-12.724,20.0201-35.1346,31.9622-57.0064,39.5851-10.6554,3.7137-21.6696,6.2759-32.7177,8.3951ZM168.3203,186.9654c-27.6887-5.9664-36.2945,35.738-8.9138,41.4596,27.2978,5.7043,35.8889-35.647,8.9138-41.4596Z"/>
    </g>
  </g>
  <path class="cls-4" d="M348.1868,208.3315v8.418h-47.4941v-8.418h47.4941ZM348.1868,225.0786v8.418h-47.4941v-8.418h47.4941Z"/>
  <g>
    <path class="cls-2" d="M470.7786,311.4331v9.1289h3.7812v1.6943h-5.8047v-10.8232h2.0234Z"/>
    <path class="cls-2" d="M476.2083,312.3432c0-.6436.502-1.1143,1.207-1.1143.707,0,1.209.4707,1.209,1.1143,0,.6582-.502,1.1133-1.209,1.1133-.7051,0-1.207-.4551-1.207-1.1133ZM478.4192,314.6645v7.5918h-2.0078v-7.5918h2.0078Z"/>
    <path class="cls-2" d="M483.0325,319.6372v2.6191h-1.9922v-10.8232h1.9922v6.1963l2.7441-2.9648h2.2129l-2.8086,2.8701,3.1836,4.7217h-2.3203l-2.2129-3.4668-.7988.8477Z"/>
    <path class="cls-2" d="M493.5599,320.8921c1.0195,0,1.9297-.4551,2.2891-.7695l.7852,1.083c-.4238.4395-1.5684,1.2236-3.4199,1.2236-2.291,0-3.9844-1.3965-3.9844-3.8438,0-2.4307,1.7734-4.0625,3.9375-4.0625,2.3379,0,3.748,1.5371,3.748,3.5605,0,.3926-.0312,1.0195-.0312,1.0195h-5.584c.1895,1.208,1.1133,1.7891,2.2598,1.7891ZM491.2688,317.8012h3.6387c-.0312-.8311-.3438-1.7881-1.7559-1.7881-1.1914,0-1.8203.8311-1.8828,1.7881Z"/>
    <path class="cls-2" d="M501.7806,313.0796v-1.6465h7.9688v1.6465h-2.9648v9.1768h-2.0234v-9.1768h-2.9805Z"/>
    <path class="cls-2" d="M518.5052,317.7544v4.502h-2.0078v-4.0625c0-1.1299-.2051-2.0234-1.3652-2.0234-1.2383,0-1.6621,1.0352-1.6621,2.3057v3.7803h-1.9922v-10.8232h1.9922v4.376h.0312c.4082-.7998,1.1758-1.2861,2.2734-1.2861,2.1816,0,2.7305,1.4121,2.7305,3.2314Z"/>
    <path class="cls-2" d="M524.7649,320.8921c1.0195,0,1.9297-.4551,2.2891-.7695l.7852,1.083c-.4238.4395-1.5684,1.2236-3.4199,1.2236-2.291,0-3.9844-1.3965-3.9844-3.8438,0-2.4307,1.7734-4.0625,3.9375-4.0625,2.3379,0,3.748,1.5371,3.748,3.5605,0,.3926-.0312,1.0195-.0312,1.0195h-5.584c.1895,1.208,1.1133,1.7891,2.2598,1.7891ZM522.4739,317.8012h3.6387c-.0312-.8311-.3438-1.7881-1.7559-1.7881-1.1914,0-1.8203.8311-1.8828,1.7881Z"/>
    <path class="cls-2" d="M538.0852,322.272h-2.0234l-3.1211-10.8389h2.1172l2.1172,7.9209,2.2285-7.9209h2.0547l2.2109,7.9209,2.1016-7.9209h2.0723l-3.123,10.8389h-1.9766l-2.3203-8.0938-2.3379,8.0938Z"/>
    <path class="cls-2" d="M549.304,312.3432c0-.6436.502-1.1143,1.207-1.1143.707,0,1.209.4707,1.209,1.1143,0,.6582-.502,1.1133-1.209,1.1133-.7051,0-1.207-.4551-1.207-1.1133ZM551.5149,314.6645v7.5918h-2.0078v-7.5918h2.0078Z"/>
    <path class="cls-2" d="M557.7278,316.1704c-1.2383,0-1.6621,1.0352-1.6621,2.3057v3.7803h-2.0078v-7.5918h2.0078l-.0156,1.1445h.0469c.4082-.7998,1.1777-1.2861,2.2754-1.2861,2.1797,0,2.7285,1.4121,2.7285,3.2314v4.502h-2.0078v-4.0625c0-1.1299-.2031-2.0234-1.3652-2.0234Z"/>
    <path class="cls-2" d="M569.261,321.0639c-.6133.9727-1.5547,1.3652-2.6055,1.3652-2.2266,0-3.5918-1.7256-3.5918-3.9844,0-2.1494,1.4277-3.9219,3.7344-3.9219,1.0195,0,1.8809.377,2.4141,1.1924h.0312c-.0156-.3447-.0156-.7529-.0156-1.2861v-2.9961h1.9922v10.8232h-1.8965l-.0156-1.1924h-.0469ZM569.2766,318.4448c0-1.2705-.832-2.3848-2.1191-2.3848-1.3008,0-2.0547,1.1143-2.0547,2.3848,0,1.3174.8164,2.3525,2.1172,2.3525,1.209,0,2.0566-.9248,2.0566-2.3525Z"/>
    <path class="cls-2" d="M581.136,311.4331c.8789,0,1.6953.0781,2.4004.4238.8477.4072,1.3965,1.0664,1.3965,2.3057,0,1.3174-.9727,2.0859-1.6777,2.3682v.0312c1.3945.3145,2.3203,1.2236,2.3203,2.6045,0,1.1758-.5488,2.0234-1.2852,2.4941-.6758.4229-1.6328.5957-2.668.5957h-3.9531v-10.8232h3.4668ZM582.2669,315.6841c.375-.2354.5957-.6123.5957-1.2549,0-.9414-.7383-1.3965-1.7891-1.3965h-1.3652v2.918h1.2715c.5645,0,.957-.0625,1.2871-.2666ZM582.9095,320.3579c.3613-.2354.5957-.7207.5957-1.2861,0-.5957-.2656-1.0039-.6738-1.2861s-.832-.3447-1.459-.3447h-1.6641v3.2158h1.7578c.5176,0,1.0195-.0156,1.4434-.2988Z"/>
    <path class="cls-2" d="M589.7024,311.4331v10.8232h-1.9922v-10.8232h1.9922Z"/>
    <path class="cls-2" d="M594.347,322.4292c-1.4746,0-2.666-.8008-2.666-2.3848s1.5527-2.1963,3.1211-2.3057l1.8203-.126v-.2031c0-.9727-.6426-1.4277-1.6953-1.4277-1.0039,0-1.834.377-2.1641.627l-.6113-1.2861c.5801-.3447,1.6465-.7998,2.9648-.7998,1.3477,0,2.1172.3457,2.6816.8789.5488.5332.832,1.2236.832,2.5098v4.3447h-1.9297l-.0312-.8779c-.3145.5488-1.1914,1.0508-2.3223,1.0508ZM593.6888,319.9819c0,.6426.4863,1.082,1.3184,1.082.7832,0,1.3633-.4551,1.6309-.8311v-1.3965l-1.3652.0791c-1.0664.0625-1.584.4229-1.584,1.0664Z"/>
    <path class="cls-2" d="M603.5891,316.0288c-.6602,0-.9883.251-.9883.6123,0,.3291.25.5957,1.0977.8623l.5332.1729c1.6777.5488,2.2754,1.1445,2.2754,2.2432,0,1.4424-1.1465,2.5098-3.0117,2.5098-1.1621,0-2.4629-.4707-3.0762-1.1768l.8164-1.3643c.8945.6895,1.6621,1.0352,2.3066,1.0352.752,0,1.0977-.2822,1.0977-.7217,0-.3926-.2988-.6123-1.2715-.9414l-.877-.2979c-1.1309-.377-1.7109-1.0508-1.7109-2.165,0-1.3799,1.2559-2.2744,2.7148-2.2744,1.3477,0,2.1016.3613,2.7285.8154l-.8633,1.334c-.4395-.3301-1.082-.6436-1.7715-.6436Z"/>
    <path class="cls-2" d="M611.636,320.7505c.4082,0,.7227-.126.7227-.126l.1094,1.5537c-.0938.0312-.6914.251-1.5371.251-1.5527,0-2.1973-.7061-2.1973-2.6826v-3.5137h-1.1289v-1.5527h1.1289v-2.165h1.9922v2.165h1.7578v1.5527h-1.7578v3.0742c0,1.1611.2051,1.4434.9102,1.4434Z"/>
    <path class="cls-2" d="M617.2708,316.2329v-1.5527h1.0352v-.5811c0-.9248.25-1.6777.6426-2.1016.3926-.4551,1.0195-.7529,1.8984-.7529.9258,0,1.4902.1572,1.4902.1572l-.125,1.4434s-.4395-.126-.8633-.126c-.8633,0-1.0664.5801-1.0664,1.3018v.6592h1.7402v1.5527h-1.709v6.0234h-2.0078v-6.0234h-1.0352Z"/>
    <path class="cls-2" d="M625.3802,314.6645l-.0312,1.2236h.0469c.2988-.8164,1.0508-1.3652,1.8672-1.3652.5176,0,.7988.1416.7988.1416l-.1406,1.7412h-.0938c-.2188-.0635-.5645-.0947-.832-.0947-.5957,0-1.0508.251-1.332.7373-.1895.377-.2832.8945-.2832,1.4746v3.7334h-1.9922v-7.5918h1.9922Z"/>
    <path class="cls-2" d="M629.1321,318.4917c0-2.4004,1.7871-3.9688,4.125-3.9688,2.3223,0,4.1094,1.5684,4.1094,3.9688s-1.7871,3.9375-4.1094,3.9375c-2.3379,0-4.125-1.5371-4.125-3.9375ZM633.2571,316.1391c-1.3184,0-2.0391,1.0039-2.0391,2.3057s.7207,2.3213,2.0391,2.3213c1.2852,0,2.0391-1.0195,2.0391-2.3213s-.7539-2.3057-2.0391-2.3057Z"/>
    <path class="cls-2" d="M647.6282,316.1704c-1.0039,0-1.5215.8623-1.5215,2.1641v3.9219h-2.0078v-4.2666c0-1.0352-.2676-1.8193-1.2246-1.8193-1.0352,0-1.4902.9727-1.4902,2.1641v3.9219h-2.0078v-7.5918h2.0078l-.0156,1.1445h.0469c.3457-.7061,1.2715-1.2861,2.2598-1.2861,1.0977,0,1.7559.4395,2.1172,1.4434.5332-.9258,1.3965-1.4434,2.4941-1.4434,1.9922,0,2.541,1.4121,2.541,3.1533v4.5801h-2.0078v-4.251c0-.9258-.2031-1.835-1.1914-1.835Z"/>
    <path class="cls-2" d="M461.4505,337.9302c0,2.0078-1.4746,3.3418-3.7637,3.3418-1.8516,0-3.1211-.8633-3.8281-1.6787l.9727-1.4746c.8477.9258,1.8672,1.4277,2.8867,1.4277,1.0039,0,1.6934-.4863,1.6934-1.4277,0-.8467-.5645-1.1289-1.4902-1.5059l-1.6934-.6738c-1.1758-.4707-1.9609-1.3027-1.9609-2.6201,0-1.8818,1.4746-3.1846,3.748-3.1846,1.5391,0,2.6523.6436,3.2949,1.3027l-.9727,1.458c-.6895-.627-1.5215-1.082-2.4473-1.082-.8945,0-1.5996.4395-1.5996,1.2393,0,.7842.6738,1.082,1.2383,1.3174l1.8047.7373c1.5215.6279,2.1172,1.4746,2.1172,2.8232Z"/>
    <path class="cls-2" d="M466.7239,339.5776c.4082,0,.7227-.125.7227-.125l.1094,1.5527c-.0938.0312-.6914.251-1.5371.251-1.5527,0-2.1973-.7061-2.1973-2.6826v-3.5137h-1.1289v-1.5527h1.1289v-2.165h1.9922v2.165h1.7578v1.5527h-1.7578v3.0742c0,1.1611.2051,1.4434.9102,1.4434Z"/>
    <path class="cls-2" d="M471.4309,341.2563c-1.4746,0-2.668-.7998-2.668-2.3848,0-1.584,1.5547-2.1963,3.123-2.3057l1.8184-.125v-.2041c0-.9727-.6426-1.4277-1.6934-1.4277-1.0039,0-1.8359.376-2.1641.6279l-.6133-1.2871c.582-.3447,1.6484-.7998,2.9648-.7998,1.3496,0,2.1191.3457,2.6836.8789.5488.5332.8301,1.2236.8301,2.5098v4.3447h-1.9297l-.0312-.8789c-.3125.5498-1.1914,1.0518-2.3203,1.0518ZM470.7708,338.8091c0,.6436.4863,1.082,1.3184,1.082.7852,0,1.3652-.4551,1.6309-.8311v-1.3965l-1.3633.0791c-1.0684.0625-1.5859.4229-1.5859,1.0664Z"/>
    <path class="cls-2" d="M481.7376,334.9975c-1.2383,0-1.6621,1.0352-1.6621,2.3057v3.7803h-2.0078v-7.5918h2.0078l-.0156,1.1445h.0469c.4082-.7998,1.1777-1.2861,2.2754-1.2861,2.1797,0,2.7285,1.4121,2.7285,3.2314v4.502h-2.0078v-4.0625c0-1.1299-.2031-2.0234-1.3652-2.0234Z"/>
    <path class="cls-2" d="M493.2708,339.8911c-.6133.9727-1.5547,1.3652-2.6055,1.3652-2.2266,0-3.5918-1.7256-3.5918-3.9844,0-2.1494,1.4277-3.9219,3.7344-3.9219,1.0195,0,1.8809.377,2.4141,1.1924h.0312c-.0156-.3447-.0156-.7529-.0156-1.2861v-2.9961h1.9922v10.8232h-1.8965l-.0156-1.1924h-.0469ZM493.2864,337.272c0-1.2705-.832-2.3848-2.1191-2.3848-1.3008,0-2.0547,1.1143-2.0547,2.3848,0,1.3174.8164,2.3525,2.1172,2.3525,1.209,0,2.0566-.9258,2.0566-2.3525Z"/>
    <path class="cls-2" d="M497.6477,331.1694c0-.6426.502-1.1133,1.207-1.1133.707,0,1.209.4707,1.209,1.1133,0,.6592-.502,1.1143-1.209,1.1143-.7051,0-1.207-.4551-1.207-1.1143ZM499.8587,333.4917v7.5918h-2.0078v-7.5918h2.0078Z"/>
    <path class="cls-2" d="M506.0716,334.9975c-1.2383,0-1.6621,1.0352-1.6621,2.3057v3.7803h-2.0078v-7.5918h2.0078l-.0156,1.1445h.0469c.4082-.7998,1.1777-1.2861,2.2754-1.2861,2.1797,0,2.7285,1.4121,2.7285,3.2314v4.502h-2.0078v-4.0625c0-1.1299-.2031-2.0234-1.3652-2.0234Z"/>
    <path class="cls-2" d="M514.9524,340.8325c-1.9141,0-3.5449-1.2236-3.5449-3.6396,0-2.1016,1.4746-3.8428,3.7324-3.8428,1.0195,0,1.8828.377,2.416,1.1924h.0312l-.0156-1.0508h1.9922v6.0234c0,1.6621-.3457,2.6035-.9883,3.2783-.6582.6904-1.6309,1.333-3.4512,1.333-1.8047,0-3.1523-.8623-3.5293-1.1289l.832-1.3965c.4863.3447,1.7246.8945,2.6973.8945,1.082,0,1.6465-.3457,1.9297-.6748.2812-.3291.5176-.957.5176-1.8037v-.377h-.0312c-.5176.7842-1.4277,1.1924-2.5879,1.1924ZM515.5481,334.935c-1.3184,0-2.1016.9717-2.1016,2.2109,0,1.1611.752,2.1182,2.0703,2.1182,1.4434,0,2.1641-.957,2.1641-2.1182,0-1.0977-.8145-2.2109-2.1328-2.2109Z"/>
    <path class="cls-2" d="M529.4329,330.2602c.8789,0,1.6953.0781,2.4004.4238.8477.4072,1.3965,1.0664,1.3965,2.3057,0,1.3174-.9727,2.0859-1.6777,2.3682v.0312c1.3945.3145,2.3203,1.2236,2.3203,2.6045,0,1.1758-.5488,2.0234-1.2852,2.4941-.6758.4229-1.6328.5957-2.668.5957h-3.9531v-10.8232h3.4668ZM530.5638,334.5112c.375-.2354.5957-.6123.5957-1.2549,0-.9414-.7383-1.3965-1.7891-1.3965h-1.3652v2.918h1.2715c.5645,0,.957-.0625,1.2871-.2666ZM531.2063,339.185c.3613-.2344.5957-.7207.5957-1.2861,0-.5957-.2656-1.0039-.6738-1.2861s-.832-.3447-1.459-.3447h-1.6641v3.2158h1.7578c.5176,0,1.0195-.0156,1.4434-.2988Z"/>
    <path class="cls-2" d="M539.7571,339.7192c1.0195,0,1.9297-.4551,2.2891-.7686l.7852,1.082c-.4238.4395-1.5684,1.2236-3.4199,1.2236-2.291,0-3.9844-1.3965-3.9844-3.8438,0-2.4307,1.7734-4.0625,3.9375-4.0625,2.3379,0,3.748,1.5371,3.748,3.5605,0,.3926-.0312,1.0195-.0312,1.0195h-5.584c.1895,1.208,1.1133,1.7891,2.2598,1.7891ZM537.4661,336.6284h3.6387c-.0312-.8311-.3438-1.7881-1.7559-1.7881-1.1914,0-1.8203.8311-1.8828,1.7881Z"/>
    <path class="cls-2" d="M547.6809,334.8559c-.6602,0-.9883.251-.9883.6123,0,.3291.25.5957,1.0977.8623l.5332.1729c1.6777.5488,2.2754,1.1445,2.2754,2.2432,0,1.4424-1.1465,2.5098-3.0117,2.5098-1.1621,0-2.4629-.4707-3.0762-1.1768l.8164-1.3643c.8945.6895,1.6621,1.0352,2.3066,1.0352.752,0,1.0977-.2822,1.0977-.7217,0-.3926-.2988-.6123-1.2715-.9414l-.877-.2979c-1.1309-.377-1.7109-1.0508-1.7109-2.165,0-1.3799,1.2559-2.2744,2.7148-2.2744,1.3477,0,2.1016.3613,2.7285.8154l-.8633,1.334c-.4395-.3301-1.082-.6436-1.7715-.6436Z"/>
    <path class="cls-2" d="M552.3411,331.1694c0-.6426.502-1.1133,1.207-1.1133.707,0,1.209.4707,1.209,1.1133,0,.6592-.502,1.1143-1.209,1.1143-.7051,0-1.207-.4551-1.207-1.1143ZM554.552,333.4917v7.5918h-2.0078v-7.5918h2.0078Z"/>
    <path class="cls-2" d="M562.8196,339.8911c-.6113.9727-1.5527,1.3652-2.6035,1.3652-2.2285,0-3.5918-1.7256-3.5918-3.9844,0-2.1494,1.4277-3.9219,3.7324-3.9219,1.0195,0,1.8828.377,2.416,1.1924h.0312c-.0156-.3447-.0156-.7529-.0156-1.2861v-2.9961h1.9922v10.8232h-1.8984l-.0156-1.1924h-.0469ZM562.8352,337.272c0-1.2705-.832-2.3848-2.1172-2.3848-1.3027,0-2.0547,1.1143-2.0547,2.3848,0,1.3174.8145,2.3525,2.1172,2.3525,1.207,0,2.0547-.9258,2.0547-2.3525Z"/>
    <path class="cls-2" d="M571.1673,339.7192c1.0195,0,1.9297-.4551,2.2891-.7686l.7852,1.082c-.4238.4395-1.5684,1.2236-3.4199,1.2236-2.291,0-3.9844-1.3965-3.9844-3.8438,0-2.4307,1.7734-4.0625,3.9375-4.0625,2.3379,0,3.748,1.5371,3.748,3.5605,0,.3926-.0312,1.0195-.0312,1.0195h-5.584c.1895,1.208,1.1133,1.7891,2.2598,1.7891ZM568.8763,336.6284h3.6387c-.0312-.8311-.3438-1.7881-1.7559-1.7881-1.1914,0-1.8203.8311-1.8828,1.7881Z"/>
    <path class="cls-2" d="M582.3216,338.5893l-.9414,2.4941h-2.1172l4.252-10.8389h1.9766l4.25,10.8389h-2.2266l-.9414-2.4941h-4.252ZM586.0716,336.9585l-1.6152-4.377-1.6328,4.377h3.248Z"/>
    <path class="cls-2" d="M601.5559,330.2602v1.71h-4.3457v3.043h4.0957v1.6777h-4.0957v4.3926h-2.0391v-10.8232h6.3848Z"/>
    <path class="cls-2" d="M602.9075,337.3188c0-2.4004,1.7871-3.9688,4.125-3.9688,2.3223,0,4.1094,1.5684,4.1094,3.9688s-1.7871,3.9375-4.1094,3.9375c-2.3379,0-4.125-1.5371-4.125-3.9375ZM607.0325,334.9663c-1.3184,0-2.0391,1.0039-2.0391,2.3057s.7207,2.3213,2.0391,2.3213c1.2852,0,2.0391-1.0195,2.0391-2.3213s-.7539-2.3057-2.0391-2.3057Z"/>
    <path class="cls-2" d="M615.1438,333.4917l-.0312,1.2236h.0469c.2988-.8164,1.0508-1.3652,1.8672-1.3652.5176,0,.7988.1416.7988.1416l-.1406,1.7412h-.0938c-.2188-.0635-.5645-.0947-.832-.0947-.5957,0-1.0508.251-1.332.7373-.1895.377-.2832.8945-.2832,1.4746v3.7334h-1.9922v-7.5918h1.9922Z"/>
    <path class="cls-2" d="M627.6946,334.9975c-1.0039,0-1.5215.8623-1.5215,2.1641v3.9219h-2.0078v-4.2666c0-1.0352-.2676-1.8193-1.2246-1.8193-1.0352,0-1.4902.9727-1.4902,2.1641v3.9219h-2.0078v-7.5918h2.0078l-.0156,1.1445h.0469c.3457-.7051,1.2715-1.2861,2.2598-1.2861,1.0977,0,1.7559.4395,2.1172,1.4434.5332-.9258,1.3965-1.4434,2.4941-1.4434,1.9922,0,2.541,1.4121,2.541,3.1533v4.5801h-2.0078v-4.251c0-.9258-.2031-1.835-1.1914-1.835Z"/>
    <path class="cls-2" d="M636.5442,339.5776c1.207,0,1.6621-.957,1.6621-2.2275v-3.8584h2.0078v7.5918h-1.9453l-.0156-1.0664c-.4395.7529-1.2559,1.208-2.3535,1.208-2.1797,0-2.7129-1.4121-2.7129-3.2314v-4.502h2.0078v4.0625c0,1.1289.1875,2.0234,1.3496,2.0234Z"/>
    <path class="cls-2" d="M644.7649,330.2602v10.8232h-1.9922v-10.8232h1.9922Z"/>
    <path class="cls-2" d="M649.4095,341.2563c-1.4746,0-2.668-.7998-2.668-2.3848,0-1.584,1.5547-2.1963,3.123-2.3057l1.8184-.125v-.2041c0-.9727-.6426-1.4277-1.6934-1.4277-1.0039,0-1.8359.376-2.1641.6279l-.6133-1.2871c.582-.3447,1.6484-.7998,2.9648-.7998,1.3496,0,2.1191.3457,2.6836.8789.5488.5332.8301,1.2236.8301,2.5098v4.3447h-1.9297l-.0312-.8789c-.3125.5498-1.1914,1.0518-2.3203,1.0518ZM648.7493,338.8091c0,.6436.4863,1.082,1.3184,1.082.7852,0,1.3652-.4551,1.6309-.8311v-1.3965l-1.3633.0791c-1.0684.0625-1.5859.4229-1.5859,1.0664Z"/>
    <path class="cls-2" d="M659.8431,331.7973v-1.5371h4.0156v10.8232h-1.9766v-9.2861h-2.0391Z"/>
    <path class="cls-2" d="M463.5149,355.519v4.3916h-2.0391v-10.8232h3.4824c1.1465,0,2.0547.251,2.7305.7686.6738.5176,1.1602,1.3486,1.1602,2.3838,0,1.8672-1.0195,2.6201-2.3379,3.0273l2.918,4.6436h-2.3828l-2.5586-4.3916h-.9727ZM466.1204,353.5737c.4062-.2979.627-.6592.627-1.2705,0-.5967-.2207-.9883-.627-1.2705-.3926-.2988-.8945-.3457-1.5527-.3457h-1.0684v3.2314h1.0684c.6582,0,1.1602-.0469,1.5527-.3447Z"/>
    <path class="cls-2" d="M473.6048,360.0835c-1.4746,0-2.668-.8008-2.668-2.3848s1.5547-2.1963,3.123-2.3057l1.8184-.126v-.2031c0-.9727-.6426-1.4277-1.6934-1.4277-1.0039,0-1.8359.377-2.1641.627l-.6133-1.2861c.582-.3447,1.6484-.7998,2.9648-.7998,1.3496,0,2.1191.3457,2.6836.8789.5488.5332.8301,1.2236.8301,2.5098v4.3447h-1.9297l-.0312-.8779c-.3125.5488-1.1914,1.0508-2.3203,1.0508ZM472.9446,357.6362c0,.6426.4863,1.082,1.3184,1.082.7852,0,1.3652-.4551,1.6309-.8311v-1.3965l-1.3633.0791c-1.0684.0625-1.5859.4229-1.5859,1.0664Z"/>
    <path class="cls-2" d="M486.0911,357.5893l.5645,1.4746c-.1562.1406-.9395,1.0195-2.9648,1.0195-2.0703,0-3.9824-1.4277-3.9824-3.9062,0-2.4941,1.9746-4,4.0156-4,1.9121,0,2.666.7686,2.8691.9727l-.5488,1.5059c-.2344-.2197-.9102-.7998-2.0859-.7998-1.1914,0-2.1484.8311-2.1484,2.2275,0,1.3955.957,2.3057,2.2578,2.3057,1.3027,0,2.0234-.7998,2.0234-.7998Z"/>
    <path class="cls-2" d="M492.1946,358.5464c1.0195,0,1.9297-.4551,2.291-.7695l.7832,1.083c-.4219.4395-1.5684,1.2236-3.418,1.2236-2.291,0-3.9844-1.3965-3.9844-3.8438,0-2.4307,1.7715-4.0625,3.9355-4.0625,2.3379,0,3.75,1.5371,3.75,3.5605,0,.3926-.0312,1.0195-.0312,1.0195h-5.584c.1875,1.208,1.1133,1.7891,2.2578,1.7891ZM489.9056,355.4555h3.6387c-.0312-.8311-.3457-1.7881-1.7578-1.7881-1.1914,0-1.8184.8311-1.8809,1.7881Z"/>
    <path class="cls-2" d="M506.4407,360.0991c-3.168,0-5.6152-2.1494-5.6152-5.584s2.4785-5.585,5.6152-5.585c2.1172,0,3.3418.8945,3.7793,1.334l-.7207,1.6621c-.3145-.4072-1.5371-1.2393-3.0742-1.2393-1.8828,0-3.498,1.2393-3.498,3.7959,0,2.3379,1.459,3.8594,3.623,3.8594,1.4434,0,2.4473-.6279,3.0898-1.3174l.7227,1.5371c-.6113.6582-1.7891,1.5371-3.9219,1.5371Z"/>
    <path class="cls-2" d="M514.6614,360.0835c-1.4746,0-2.666-.8008-2.666-2.3848s1.5527-2.1963,3.1211-2.3057l1.8203-.126v-.2031c0-.9727-.6426-1.4277-1.6953-1.4277-1.0039,0-1.834.377-2.1641.627l-.6113-1.2861c.5801-.3447,1.6465-.7998,2.9648-.7998,1.3477,0,2.1172.3457,2.6816.8789.5488.5332.832,1.2236.832,2.5098v4.3447h-1.9297l-.0312-.8779c-.3145.5488-1.1914,1.0508-2.3223,1.0508ZM514.0032,357.6362c0,.6426.4863,1.082,1.3184,1.082.7832,0,1.3633-.4551,1.6309-.8311v-1.3965l-1.3652.0791c-1.0664.0625-1.584.4229-1.584,1.0664Z"/>
    <path class="cls-2" d="M523.2903,352.3188l-.0312,1.2236h.0469c.2988-.8164,1.0508-1.3652,1.8672-1.3652.5176,0,.7988.1416.7988.1416l-.1406,1.7412h-.0938c-.2188-.0635-.5645-.0947-.832-.0947-.5957,0-1.0508.251-1.332.7373-.1895.377-.2832.8945-.2832,1.4746v3.7334h-1.9922v-7.5918h1.9922Z"/>
    <path class="cls-2" d="M536.6106,353.9497h4.5801v4.3457c-.375.3604-1.7715,1.8037-4.6738,1.8037-3.0742,0-5.6152-1.9453-5.6152-5.584,0-3.4824,2.541-5.585,5.584-5.585,2.791,0,4.0469,1.4902,4.4238,1.8828l-1.3652,1.208c-.5488-.6279-1.4746-1.3652-3.0586-1.3652-1.9766,0-3.4824,1.4121-3.4824,3.8428s1.5527,3.8438,3.5605,3.8438c1.9922,0,2.6504-.8154,2.6504-.8154v-1.9922h-2.6035v-1.585Z"/>
    <path class="cls-2" d="M543.1692,356.146c0-2.4004,1.7891-3.9688,4.125-3.9688,2.3223,0,4.1113,1.5684,4.1113,3.9688s-1.7891,3.9375-4.1113,3.9375c-2.3359,0-4.125-1.5371-4.125-3.9375ZM547.2942,353.7934c-1.3164,0-2.0391,1.0039-2.0391,2.3057s.7227,2.3213,2.0391,2.3213c1.2871,0,2.0391-1.0195,2.0391-2.3213s-.752-2.3057-2.0391-2.3057Z"/>
    <path class="cls-2" d="M553.2727,349.9975c0-.6436.502-1.1143,1.209-1.1143.7051,0,1.207.4707,1.207,1.1143,0,.6582-.502,1.1133-1.207,1.1133-.707,0-1.209-.4551-1.209-1.1133ZM555.4856,352.3188v7.5918h-2.0078v-7.5918h2.0078Z"/>
    <path class="cls-2" d="M561.6985,353.8247c-1.2402,0-1.6621,1.0352-1.6621,2.3057v3.7803h-2.0078v-7.5918h2.0078l-.0156,1.1445h.0469c.4062-.7998,1.1758-1.2861,2.2734-1.2861,2.1816,0,2.7305,1.4121,2.7305,3.2314v4.502h-2.0078v-4.0625c0-1.1299-.2051-2.0234-1.3652-2.0234Z"/>
    <path class="cls-2" d="M570.5774,359.6596c-1.9141,0-3.5449-1.2236-3.5449-3.6387,0-2.1025,1.4746-3.8438,3.7344-3.8438,1.0195,0,1.8809.377,2.4141,1.1924h.0312l-.0156-1.0508h1.9922v6.0234c0,1.6621-.3438,2.6035-.9883,3.2783-.6582.6904-1.6309,1.333-3.4492,1.333-1.8047,0-3.1543-.8623-3.5293-1.1289l.8301-1.3965c.4863.3447,1.7266.8945,2.6992.8945,1.082,0,1.6465-.3457,1.9277-.6748.2832-.3291.5176-.957.5176-1.8037v-.377h-.0312c-.5176.7842-1.4258,1.1924-2.5879,1.1924ZM571.1731,353.7612c-1.3164,0-2.1016.9727-2.1016,2.2119,0,1.1611.7539,2.1182,2.0703,2.1182,1.4434,0,2.166-.957,2.166-2.1182,0-1.0977-.8164-2.2119-2.1348-2.2119Z"/>
    <path class="cls-2" d="M587.9759,349.0874v1.71h-4.3457v3.043h4.0957v1.6787h-4.0957v4.3916h-2.0391v-10.8232h6.3848Z"/>
    <path class="cls-2" d="M593.3274,358.4048c1.207,0,1.6621-.957,1.6621-2.2275v-3.8584h2.0078v7.5918h-1.9453l-.0156-1.0664c-.4395.7529-1.2559,1.208-2.3535,1.208-2.1797,0-2.7129-1.4121-2.7129-3.2314v-4.502h2.0078v4.0625c0,1.1289.1875,2.0234,1.3496,2.0234Z"/>
    <path class="cls-2" d="M601.5481,349.0874v10.8232h-1.9922v-10.8232h1.9922Z"/>
    <path class="cls-2" d="M606.177,349.0874v10.8232h-1.9922v-10.8232h1.9922Z"/>
    <path class="cls-2" d="M619.5911,356.7573c0,2.0078-1.4746,3.3418-3.7656,3.3418-1.8496,0-3.1211-.8633-3.8262-1.6787l.9727-1.4746c.8457.9258,1.8652,1.4277,2.8848,1.4277,1.0039,0,1.6953-.4863,1.6953-1.4277,0-.8467-.5645-1.1289-1.4902-1.5059l-1.6953-.6748c-1.1758-.4697-1.9609-1.3018-1.9609-2.6191,0-1.8818,1.4746-3.1846,3.75-3.1846,1.5371,0,2.6504.6436,3.2949,1.3027l-.9727,1.458c-.6914-.627-1.5215-1.082-2.4473-1.082-.8945,0-1.5996.4395-1.5996,1.2393,0,.7842.6738,1.082,1.2383,1.3174l1.8047.7373c1.5215.6279,2.1172,1.4746,2.1172,2.8232Z"/>
    <path class="cls-2" d="M623.7024,353.4009c.6113-.9102,1.5215-1.2549,2.5254-1.2549,2.2266,0,3.5918,1.7256,3.5918,3.9844,0,2.1484-1.4277,3.9219-3.7324,3.9219-1.1621,0-1.8047-.4082-2.4316-1.1611l-.0312.0156c.0156.3604.0312.7061.0312,1.2393v2.6348h-1.9922v-10.4619h2.0391l-.0312,1.0664.0312.0156ZM623.6087,356.1303c0,1.2705.8301,2.3838,2.1172,2.3838,1.3008,0,2.0547-1.1133,2.0547-2.3838,0-1.3174-.8164-2.3525-2.1172-2.3525-1.209,0-2.0547.9248-2.0547,2.3525Z"/>
    <path class="cls-2" d="M635.6731,358.5464c1.0195,0,1.9297-.4551,2.2891-.7695l.7852,1.083c-.4238.4395-1.5684,1.2236-3.4199,1.2236-2.291,0-3.9844-1.3965-3.9844-3.8438,0-2.4307,1.7734-4.0625,3.9375-4.0625,2.3379,0,3.748,1.5371,3.748,3.5605,0,.3926-.0312,1.0195-.0312,1.0195h-5.584c.1895,1.208,1.1133,1.7891,2.2598,1.7891ZM633.3821,355.4555h3.6387c-.0312-.8311-.3438-1.7881-1.7559-1.7881-1.1914,0-1.8203.8311-1.8828,1.7881Z"/>
    <path class="cls-2" d="M644.8977,358.5464c1.0195,0,1.9297-.4551,2.291-.7695l.7832,1.083c-.4219.4395-1.5684,1.2236-3.418,1.2236-2.291,0-3.9844-1.3965-3.9844-3.8438,0-2.4307,1.7715-4.0625,3.9355-4.0625,2.3379,0,3.75,1.5371,3.75,3.5605,0,.3926-.0312,1.0195-.0312,1.0195h-5.584c.1875,1.208,1.1133,1.7891,2.2578,1.7891ZM642.6087,355.4555h3.6387c-.0312-.8311-.3457-1.7881-1.7578-1.7881-1.1914,0-1.8184.8311-1.8809,1.7881Z"/>
    <path class="cls-2" d="M656.0227,358.7182c-.6133.9727-1.5547,1.3652-2.6055,1.3652-2.2266,0-3.5918-1.7256-3.5918-3.9844,0-2.1494,1.4277-3.9219,3.7344-3.9219,1.0195,0,1.8809.377,2.4141,1.1924h.0312c-.0156-.3447-.0156-.7529-.0156-1.2861v-2.9961h1.9922v10.8232h-1.8965l-.0156-1.1924h-.0469ZM656.0384,356.0991c0-1.2705-.832-2.3848-2.1191-2.3848-1.3008,0-2.0547,1.1143-2.0547,2.3848,0,1.3174.8164,2.3525,2.1172,2.3525,1.209,0,2.0566-.9248,2.0566-2.3525Z"/>
  </g>
  <g>
    <path class="cls-1" d="M617.9136,234.4851c1.6201-1.25,3.46-2.24,5.4697-2.8701-2.1299-.1699-4.2402-.3098-6.3301-.4099-1.5-.0901-2.9795-.1699-4.4297-.23-.3105-.02-.6201-.04-.9199-.04-1.5801-.0801-3.1602-.1201-4.7197-.1699-1.3506-.04-2.7109-.0801-4.04-.1001-.96-.02-1.9502-.04-2.8906-.04-1.4297-.02-2.8496-.04-4.2402-.04-4.9697-2.9299-10.5596-5.72-13.7793-6.54-.7207-.1599-1.3301-.25-1.7607-.21-3.4092.3101-4.5596,4.29-4.9492,7.1001-.0801.02-.1602.02-.2207.02-2.5.0801-4.7197.1599-6.6191.25-.54.02-1.0303.04-1.5.0601-.4102.02-.8008.02-1.1709.04-.5498.02-1.0693.0398-1.5195.0398-.4902.02-.9199.04-1.3096.04-.7002.02-1.2305,0-1.6006-.02-.2598-.02-.4297-.0398-.4902-.0798-1.6592-.8201-2.3398-3.3201-7.1396-3.98-.1602-.02-.3203-.04-.5098-.04-.2207,0-.4707.02-.7402.0601-.2002.0198-.4102.0598-.6104.0999-.21.04-.4297.0801-.6797.1501-.2197.0598-.4697.1199-.7402.2-.6699.21-1.4102.47-2.21.78-.3496.1199-.7002.27-1.0693.4099-1.0205.4099-2.1309.8799-3.2607,1.3499.0703-1.3098.1504-3.0298.1904-4.8799.1602-5.1001.1797-11.1299-.4697-11.8701-1.1504-1.3298-19.5405-.5098-34.1006,1.9902-2.8896.47-6.3301,1.6799-10.0498,3.2798l-.02.02c-9.2202,3.98-19.9497,10.5-26.9199,14.9702,1.25.8398,2.3999,1.8398,3.3901,2.95h.8198c-.27.0198-.54.0198-.8003.0198,2.8105,3.1602,4.5103,7.3201,4.5103,11.8701,0,3.9199-1.27,7.55-3.4302,10.5l138.0098.99c-2.5596-3.0798-4.1191-7.02-4.1592-11.3201v-.1699c0-5.1001,2.1299-9.71,5.5498-12.97-19.3701-.76-40.3105-.97-50.4307-.6001,15.2305-1.2698,34.5801-1.45,51.8906-.6099ZM508.6133,236.2651h.02c2.1899.6399,4.73,1.5601,6.8101,2.77-1.1099-.3101-2.4399-.6001-3.98-.8601h-.04c-1.5601-.4299-2.9399-.72-4-.8899-.02,0-.02-.02-.02-.02-1.46-.2202-2.3398-.26-2.3398-.26,0,0-.02-.3301-.0801-.7-.02-.04-.02-.0601-.04-.1001-.0601-.3301-.1899-.6799-.3701-.8601.8403.1201,2.3403.4302,4.04.9202ZM499.9337,235.7551c0,.02.0298.02.0298.0398v-.0398c-.0298-.0901-.0498-.1702-.0698-.25-.04-.3501-.0601-.6799-.02-.9602.02-.21.0601-.3899.1299-.5598.1001-.28.2598-.47.4902-.55h.0195c.25,0,.6602.1599,1.1104.45.5898.3901,1.27,1.01,1.6997,1.74.1201.23.2402.4502.3101.7002.0601.1599.0801.3298.1001.4897.02.1101.02.23.02.3501,0,.23-.04.47-.1499.72-.1401.45-.4502.9001-.9399,1.3501-.1001-.02-.2202-.0601-.3301-.1001-.2002-.0798-.4102-.1799-.5898-.3098-.0801-.0601-.1602-.1201-.25-.1802-.4302-.3699-.7803-.8599-1.04-1.3999-1.29-.2002-2.0903-.24-2.0903-.24,0,0,0-.1301-.04-.3101,0-.0801-.0298-.1799-.0498-.29-.0601-.3899-.1802-.8401-.4102-1.0601.5.0601,1.21.2,2.0703.4102ZM493.1934,234.4651c0-.0901,0-.1702.04-.23.04-.23.1001-.3901.23-.53.02-.04.04-.0901.0801-.1101l.02-.0198c.0601-.0601.1401-.1201.2202-.1401h.0195c.3301,0,.9302.29,1.52.76.7002.55,1.3804,1.3499,1.6201,2.25,0,.04.02.1101.02.1499.1899.8401-.04,1.76-1,2.6401-.29-.0601-.5601-.1799-.7798-.3301-.1201-.0798-.25-.1599-.3501-.24-.3301-.27-.5898-.6001-.8203-.97-.0996-.1399-.1797-.3-.2695-.45-.0801-.1602-.1401-.3201-.2002-.49-.04-.0801-.0601-.1602-.0801-.27h-.02c-.1099-.26-.1699-.53-.21-.79-.04-.23-.0698-.45-.0698-.6599-.0103-.2002,0-.3901.0298-.5701ZM580.8638,230.7651c-.7402.0298-1.4805.0498-2.1904.0698,1.0801-.04,2.2305-.0898,3.4004-.1099-.4102.02-.8008.02-1.21.04ZM590.1334,230.605c-1.21,0-2.3994.02-3.5498.04-.2002,0-.3896,0-.5898.02h-.5801c-.3105,0-.6299.01-.9404.01.1299-.01.2607-.01.3906-.01-1.9502-2.1899-4.0605-4.98-2.79-5.1899,1.4795-.22,6.7197,3.04,9.8994,5.1099h2.4805c-1.4697,0-2.9307,0-4.3203.02Z"/>
    <path class="cls-1" d="M684.9136,248.345h-19.21l2.4199,2.97h13.29c1.7598,0,3.1699,1.4302,3.1699,3.2002v3.73c0,1.76-1.4102,3.1799-3.1699,3.1799h-24.6104c-.9199,0-1.7402-.3899-2.3096-1.01l-12.1504-.0801c.8906-1.02,1.6504-2.1499,2.2803-3.3599,1.2998-2.48,2.0303-5.3101,2.0303-8.3101,0-.1299,0-.26-.0107-.3899.0107-.01.0107-.02,0-.03-.0098-.5701-.0498-1.1301-.1201-1.6899-.0293-.29-.0693-.5901-.1299-.8801-.0596-.45-.1494-.8899-.2695-1.3301-.0498-.24-.1104-.47-.1904-.71-.0596-.24-.1299-.47-.2197-.7-.0703-.24-.1504-.47-.25-.6899-.6904-1.8301-1.6699-3.5-2.8896-4.98,4.2393.3699,7.8594.8198,10.54,1.2998-3.0703-.7798-6.8701-1.46-11.1904-2.0498-.1699-.1899-.3496-.3801-.54-.5601-1.1299-1.1401-2.4102-2.1201-3.8203-2.9199,2.1006.27,4.1807.5598,6.2803.8899,39.6006,6.1301,44.2305,14.4199,41.0703,14.4199Z"/>
    <path class="cls-1" d="M637.5631,233.0352c1.4102.7998,2.6904,1.7798,3.8203,2.9199-1.1602-1.1401-2.4795-2.1201-3.9102-2.9299.0303,0,.0605.01.0898.01Z"/>
    <path class="cls-1" d="M642.5738,237.2651c1.2197,1.48,2.1992,3.1499,2.8896,4.98-.7002-1.8201-1.6904-3.5-2.9102-4.98h.0205Z"/>
    <path class="cls-1" d="M643.3424,259.0366c-.2588.3623-.5303.7156-.8145,1.0586.2861-.3408.5566-.6953.8145-1.0586Z"/>
    <path class="cls-1" d="M643.7779,258.3955c-.1406.2178-.2861.4304-.4355.6411.1504-.2104.2949-.4241.4355-.6411Z"/>
    <path class="cls-1" d="M642.3336,260.335c.0664-.0781.1289-.1604.1943-.2397-.0645.0771-.1182.1638-.1846.2397h-.0098Z"/>
    <path class="cls-1" d="M644.3697,257.4009c-.1846.3389-.3818.6704-.5918.9946.209-.3237.4043-.6567.5918-.9946Z"/>
    <path class="cls-1" d="M644.6236,256.9751c-.0771.147-.1729.281-.2539.4258.0781-.1421.1611-.2812.2334-.4258h.0205Z"/>
    <path class="cls-1" d="M646.6431,248.2451c-.0098-.5701-.0498-1.1301-.1201-1.6899.0605.5.1006,1.0098.1104,1.52.0098.0598.0098.1199.0098.1699Z"/>
    <path class="cls-1" d="M437.7327,210.882h27.4534c1.0456,0,1.9273.7381,2.0708,1.7632.5536,3.5265.2255,10.928-.5536,12.0147-1.0046,1.3737-5.1052,3.0959-5.7203,4.4696-.1025.2255-.2255.8816-.3485,1.7838-.6561.0615-1.3122.164-1.9478.328l.3691-3.1369c.082-.8201.5331-1.5582,1.2097-2.0503l3.3625-2.3578c.7586-.5331,1.2097-1.4147,1.2302-2.3373l.123-7.2785c0-.8201-.6561-1.5172-1.4967-1.5172l-24.3164-.164s17.3864,1.6607,16.2178,13.7574c-.287,2.9319-1.2302,5.4538-2.5834,7.5656-2.2963,1.4967-4.2236,3.506-5.6178,5.8843-4.5721,3.342-9.3493,4.5926-9.3493,4.5926l7.4836-.123c-.2255.7381-.3691,1.5172-.4511,2.2963h-7.135c-1.0867,0-1.9683-.9021-1.9683-1.9888v-31.5334c0-1.0867.8816-1.9683,1.9683-1.9683Z"/>
    <path class="cls-1" d="M612.0071,248.8123c.041,4.3876,1.7632,8.3652,4.5721,11.3381,3.0344,3.26,7.381,5.2897,12.1992,5.2897,4.7362,0,9.0008-1.9478,12.0352-5.1052.9841-1.0251,1.8453-2.1733,2.5424-3.4035,1.3942-2.4398,2.1938-5.2487,2.1938-8.2627v-.1025c0-.164,0-.3075-.0205-.4716-.1435-4.2441-1.8658-8.0986-4.5926-10.969-.2665-.3075-.5536-.5741-.8611-.8406-1.8863-1.7222-4.1416-3.0139-6.6634-3.7315h-.0205c-1.4557-.4306-3.0139-.6561-4.6131-.6561-.4511,0-.9021.0205-1.3532.0615h-.0615c-2.8089.2255-5.4128,1.1687-7.6476,2.6039-.5741.3691-1.1277.7791-1.6402,1.1892-3.711,3.0754-6.0689,7.7296-6.0689,12.9168v.1435ZM620.9054,244.8142c.3691.3896,1.1277,1.2917,1.0867,1.6607-.1845.3075-1.3327.5946-1.8453.6971.123-.8406.3896-1.6197.7586-2.3578ZM628.1429,242.0258c.1025.246-.205,1.5172-.3691,2.2143-.2255.0615-.4306.123-.6356.205-.082.0205-.164.0615-.246.1025-.164.082-.328.164-.4921.2665-.1025.0615-.205.123-.287.205-.123.082-.246.164-.3485.287-.123.082-.2255.1845-.328.3075s-.1845.246-.287.3691c-.1025.1025-.1845.2255-.246.3691-.7176-.0615-2.0708-.164-2.2553-.328-.205-.1845-1.1482-1.3942-1.4352-1.7838,1.2097-2.0913,3.26-3.6085,5.6998-4.1416.287.4306,1.1277,1.6812,1.2302,1.9273ZM623.9193,247.0285c.1435-.0615.4306-.082.6766-.1025-.0615.1435-.1025.2665-.1435.4101-.041.1025-.0615.205-.082.3075-.1845-.1435-.3896-.3485-.4921-.4921l-.1025-.1025c.0615,0,.123-.0205.1435-.0205ZM625.7236,252.7693c-.0205-.164.041-.4511.1025-.6766.1025.1025.205.1845.3075.246.1025.082.205.1435.3075.205-.205.123-.4716.2665-.6151.3075-.041.0205-.082.041-.1435.082.0205-.0615.041-.123.041-.164ZM630.0497,239.996c-.2665.4306-.9226,1.4557-1.2712,1.5377-.3485-.082-1.0046-1.1072-1.2712-1.5377.4101-.0615.8406-.1025,1.2712-.1025s.8611.041,1.2712.1025ZM628.717,243.543c.0205-.0205.041-.082.0615-.123.0205.041.041.1025.0615.123.1025.123.2255.4101.328.6151-.164,0-.328-.0205-.4921-.0205-.1025,0-.1845,0-.287.0205.1025-.205.2255-.4921.328-.6151ZM636.3441,244.2401c-.287.3896-1.2302,1.5992-1.4352,1.7838-.205.164-1.5582.2665-2.2553.3075-.6151-1.0456-1.6402-1.8043-2.8499-2.0708-.1845-.6971-.4921-1.9888-.3896-2.2348s.9431-1.4967,1.2302-1.9273c2.4398.5331,4.4901,2.0503,5.6998,4.1416ZM631.7514,252.0722c.041.246.1025.5331.1025.6971,0,.041,0,.1025.0205.164-.0615-.041-.1025-.0615-.1435-.082-.164-.041-.4101-.1845-.6356-.3075.246-.123.4511-.287.6561-.4716ZM637.4102,247.1926c-.5126-.123-1.6607-.4101-1.8453-.7176-.041-.3691.7176-1.2712,1.0867-1.6607.3691.7381.6356,1.5377.7586,2.3783ZM635.3394,254.4916c-.4511-.1435-1.8863-.6561-2.1528-.8201-.205-.123-.7176-1.3532-.9841-2.0093,0-.0205,0-.041-.0205-.041.6971-.7791,1.1277-1.8248,1.1277-2.9524,0-.1025,0-.2255-.0205-.328v-.0615c.5946-.3691,1.7222-1.0661,2.0093-1.0661.2665.041,1.7222.4511,2.2143.5741.0205.164.0205.3075.0205.4716.0205.1435.0205.2665.0205.4101,0,.4511-.041.8816-.1025,1.3122-.246,1.7222-1.0046,3.2805-2.1118,4.5106ZM632.8176,255.3322c0-.4101.0615-.7586.164-.8816.328-.1435,1.4762.328,1.9273.5126-.287.2665-.5741.5331-.9021.7586-.3485.2665-.7381.5126-1.1482.6971-.0205-.246-.0615-.6971-.041-1.0867ZM625.2725,256.6854c0-.5331.0615-1.9888.1025-2.2758.0615-.2255,1.0661-1.0867,1.6197-1.5582l.3691.123.4306.123c.287.0615.5741.1025.8816.1025.1435,0,.3075-.0205.4511-.0205.4921-.0205.9636-.1435,1.4147-.328.041.041.1025.082.164.1025.5741.5126,1.4147,1.2302,1.4762,1.4557.0205.1025.041.3691.0615.6971.0205.5536.041,1.2712.0615,1.5992-1.0867.4716-2.2758.7381-3.5265.7381s-2.4398-.2665-3.506-.7586ZM622.6686,254.9631c.4511-.205,1.5787-.6561,1.9068-.5126.246.2665.164,1.4762.123,1.9683-.7381-.3691-1.4352-.8816-2.0298-1.4557ZM620.0033,248.6278c0-.287.0205-.5536.041-.8406.4921-.123,1.9478-.5331,2.2348-.5741.2665,0,1.3942.6971,1.9888,1.0661-.0205.082-.0205.164-.0205.246v.1435c0,.287.0205.5536.082.8201.0205.1845.0615.3485.123.5126.1845.6151.4921,1.1687.9021,1.6402-.246.6561-.7791,1.9068-.9841,2.0298-.246.1435-1.6402.6561-2.1323.8201-1.3942-1.5377-2.2348-3.588-2.2348-5.8228v-.041Z"/>
    <path class="cls-1" d="M445.8723,246.3724c-.082.7381-.1435,1.5172-.1435,2.2963,0,9.3288,7.5451,16.8739,16.8739,16.8739,5.3513,0,10.1079-2.4808,13.2039-6.3764,2.2963-2.8704,3.67-6.5199,3.67-10.4975,0-4.6131-1.8453-8.7957-4.8592-11.8302l-.0205-.0205c-.8816-.9021-1.8863-1.7017-2.9524-2.3988-2.6244-1.6607-5.7203-2.6244-9.0418-2.6244-.7176,0-1.4147.041-2.1118.123-.6561.082-1.2917.205-1.9273.3691-5.8843,1.4352-10.559,5.9663-12.1992,11.7687-.205.7586-.3691,1.5172-.4921,2.3168ZM454.75,244.8142c.3075.3691.9841,1.1687,1.0251,1.5582.0205.041.0205.082.0205.1025-.1845.3075-1.3327.5946-1.8248.6971.0205-.287.082-.5331.164-.7996.1435-.5536.3485-1.0661.6151-1.5582ZM460.7369,240.0986c.287.4306,1.1072,1.6812,1.2302,1.9273.1025.2255-.205,1.5172-.3896,2.2143-.2255.0615-.4511.123-.6766.2255-.1845.0615-.3485.1435-.5126.246-.2665.1435-.4921.3075-.7176.4921-.164.1435-.3075.287-.4511.4511-.1845.205-.3691.4511-.4921.6971-.7176-.0615-2.0503-.164-2.2553-.328-.2255-.1845-1.1277-1.3532-1.4557-1.7632.0615-.123.1435-.2255.2255-.3485.5946-.9226,1.3532-1.7427,2.2553-2.3578.6561-.4921,1.3737-.8816,2.1528-1.1482.3485-.123.7176-.2255,1.0867-.3075ZM457.7435,247.0285c.1435-.0615.4306-.082.6766-.1025-.082.205-.164.4101-.205.6356-.0205.0205-.0205.0615-.0205.082-.1845-.1435-.4101-.3485-.4921-.4921l-.1025-.1025c.0615,0,.1025-.0205.1435-.0205ZM459.5272,252.7693c-.0205-.164.041-.4511.1025-.6766.205.1845.4101.328.6356.4511-.205.123-.4716.2665-.6356.3075-.0205.0205-.082.041-.123.082.0205-.0615.0205-.123.0205-.164ZM463.8533,239.996c-.246.4306-.9021,1.4557-1.2507,1.5377-.2255-.041-.5741-.4921-.8611-.9021v-.0205c-.164-.2255-.3075-.4716-.4101-.6151.0615-.0205.1435-.0205.205-.041.3485-.041.6971-.0615,1.0661-.0615.4306,0,.8406.0205,1.2507.1025ZM462.5616,243.4815v-.0205c.0205-.0205.041-.0205.041-.041.0205.041.041.1025.0615.123.1025.123.2255.4101.328.6151,0,0-.0205.0205-.041,0-.0615-.0205-.123-.0205-.1845-.0205h-.2665c-.1025,0-.205,0-.3075.0205.1025-.205.2255-.4921.328-.6151.0205,0,.0205-.041.041-.0615ZM464.4684,240.0986c2.4398.5331,4.4901,2.0503,5.6998,4.1416-.287.3896-1.2302,1.5992-1.4557,1.7838-.1845.164-1.5172.2665-2.2348.3075-.6151-1.0456-1.6402-1.8043-2.8499-2.0708h-.0205c-.164-.6971-.4716-1.9888-.3896-2.2348.123-.246.9636-1.4967,1.2507-1.9273ZM465.186,252.3798c.1435-.082.2665-.1845.3691-.287.0615.2255.123.5126.1025.6766,0,.041.0205.1025.0205.164-.041-.041-.1025-.0615-.123-.082-.082-.0205-.164-.0615-.2665-.1025v-.0205c-.123-.041-.246-.123-.3691-.1845.1025-.041.1845-.1025.2665-.164ZM467.4413,247.0285c.041,0,.1025.0205.164.0205-.0615.041-.1025.082-.123.1025-.082.1435-.287.3485-.4716.4921-.0615-.246-.123-.4921-.2255-.7176.246.0205.5126.0615.6561.1025ZM471.2344,247.1926c-.5126-.123-1.6607-.4101-1.8453-.7176-.041-.3691.7381-1.3122,1.0661-1.6812.3896.7381.6561,1.5377.7791,2.3988ZM469.1636,254.4916c-.4716-.1435-1.9068-.6561-2.1528-.8201-.2255-.123-.7381-1.3737-1.0046-2.0298.6971-.7791,1.1277-1.8248,1.1277-2.9729,0-.123,0-.2665-.0205-.3896.5946-.3896,1.7222-1.0661,1.9888-1.0661.287.041,1.7632.4511,2.2348.5946.0205.287.041.5741.041.8611,0,2.2348-.8406,4.2851-2.2143,5.8228ZM466.7852,254.4506c.3485-.1435,1.4967.328,1.9478.5126-.5946.5741-1.2917,1.0867-2.0503,1.4557-.0615-.5126-.1435-1.7017.1025-1.9683ZM459.0762,256.7059c.0205-.5126.0615-2.0093.123-2.2963.0615-.246,1.0661-1.1072,1.6197-1.5582.3485.1435.7381.246,1.1482.3075.164.0205.3485.041.5331.041.164,0,.3075-.0205.4511-.0205.4921-.0205.9636-.1435,1.4147-.328.3691.3075.9431.7996,1.2917,1.1482.1845.1845.3075.328.328.4101.041.123.0615.5536.082,1.0251q0,.0205.0205.041c0,.4716.0205.9841.041,1.2302-1.0867.4716-2.2758.7381-3.5265.7381-1.2712,0-2.4603-.2665-3.5265-.7381ZM456.4928,254.9426c.4716-.205,1.5787-.6356,1.9068-.4921.246.2665.164,1.4557.1025,1.9683-.7586-.3896-1.4147-.8611-2.0093-1.4762ZM453.8274,248.6688c0-.287.0205-.5946.041-.8816.4921-.123,1.9273-.5331,2.2143-.5741.287,0,1.4147.6971,2.0093,1.0661-.0205.123-.0205.2665-.0205.3896,0,.287.0205.5536.082.8201.0205.1845.0615.3485.123.5126.1845.6151.4921,1.1687.9021,1.6402-.246.6561-.7791,1.9068-1.0046,2.0298-.246.1435-1.6402.6561-2.1323.8201-1.3737-1.5377-2.2143-3.588-2.2143-5.8228Z"/>
  </g>
</svg>