<?xml version="1.0" encoding="UTF-8"?>
<svg id="Layer_1" data-name="Layer 1" xmlns="http://www.w3.org/2000/svg" viewBox="0 0 800 496">
  <defs>
    <style>
      .cls-1 {
        fill: #231f20;
      }

      .cls-2 {
        fill: #fff;
      }

      .cls-3 {
        fill: #999;
        font-family: Gibson-Medium, Gibson;
        font-size: 88.6084px;
        font-weight: 500;
        letter-spacing: .04em;
      }

      .cls-4 {
        fill: #ee2b2f;
      }
    </style>
  </defs>
  <g>
    <text class="cls-3" transform="translate(304.8051 265.8241)"><tspan x="0" y="0">=</tspan></text>
    <g>
      <path class="cls-1" d="M124.281,327.2907c-3.168,0-5.6152-2.1494-5.6152-5.584s2.4785-5.585,5.6152-5.585c2.1182,0,3.3418.8945,3.7803,1.334l-.7207,1.6621c-.3145-.4072-1.5381-1.2393-3.0752-1.2393-1.8818,0-3.498,1.2393-3.498,3.7959,0,2.3379,1.459,3.8594,3.624,3.8594,1.4434,0,2.4473-.6279,3.0898-1.3174l.7217,1.5371c-.6113.6582-1.7881,1.5371-3.9219,1.5371Z"/>
      <path class="cls-1" d="M132.5027,327.2751c-1.4746,0-2.667-.8008-2.667-2.3848s1.5537-2.1963,3.1221-2.3057l1.8193-.126v-.2031c0-.9727-.6426-1.4277-1.6943-1.4277-1.0039,0-1.835.377-2.1641.627l-.6123-1.2861c.5811-.3447,1.6475-.7998,2.9648-.7998,1.3486,0,2.1172.3457,2.6826.8789.5488.5332.8311,1.2236.8311,2.5098v4.3447h-1.9297l-.0312-.8779c-.3135.5488-1.1914,1.0508-2.3213,1.0508ZM131.8435,324.8278c0,.6426.4863,1.082,1.3184,1.082.7842,0,1.3643-.4551,1.6309-.8311v-1.3965l-1.3643.0791c-1.0674.0625-1.585.4229-1.585,1.0664Z"/>
      <path class="cls-1" d="M142.3874,325.5964c.4072,0,.7217-.126.7217-.126l.1094,1.5537c-.0938.0312-.6904.251-1.5371.251-1.5527,0-2.1963-.7061-2.1963-2.6826v-3.5137h-1.1289v-1.5527h1.1289v-2.165h1.9922v2.165h1.7568v1.5527h-1.7568v3.0742c0,1.1611.2041,1.4434.9102,1.4434Z"/>
      <path class="cls-1" d="M148.8347,325.738c1.0195,0,1.9297-.4551,2.29-.7695l.7842,1.083c-.4229.4395-1.5684,1.2236-3.4189,1.2236-2.291,0-3.9844-1.3965-3.9844-3.8438,0-2.4307,1.7725-4.0625,3.9365-4.0625,2.3379,0,3.749,1.5371,3.749,3.5605,0,.3926-.0312,1.0195-.0312,1.0195h-5.584c.1885,1.208,1.1133,1.7891,2.2588,1.7891ZM146.5447,322.6472h3.6387c-.0312-.8311-.3447-1.7881-1.7568-1.7881-1.1914,0-1.8193.8311-1.8818,1.7881Z"/>
      <path class="cls-1" d="M157.3073,326.8513c-1.9141,0-3.5449-1.2236-3.5449-3.6387,0-2.1025,1.4746-3.8438,3.7334-3.8438,1.0195,0,1.8818.377,2.415,1.1924h.0312l-.0156-1.0508h1.9922v6.0234c0,1.6621-.3447,2.6035-.9883,3.2783-.6582.6904-1.6309,1.333-3.4502,1.333-1.8047,0-3.1533-.8623-3.5293-1.1289l.8311-1.3965c.4863.3447,1.7256.8945,2.6982.8945,1.082,0,1.6465-.3457,1.9287-.6748s.5176-.957.5176-1.8037v-.377h-.0312c-.5176.7842-1.4268,1.1924-2.5879,1.1924ZM157.903,320.9528c-1.3174,0-2.1016.9727-2.1016,2.2119,0,1.1611.7529,2.1182,2.0703,2.1182,1.4434,0,2.165-.957,2.165-2.1182,0-1.0977-.8154-2.2119-2.1338-2.2119Z"/>
      <path class="cls-1" d="M163.9597,323.3376c0-2.4004,1.7881-3.9688,4.125-3.9688,2.3213,0,4.1104,1.5684,4.1104,3.9688s-1.7891,3.9375-4.1104,3.9375c-2.3369,0-4.125-1.5371-4.125-3.9375ZM168.0847,320.9851c-1.3174,0-2.0391,1.0039-2.0391,2.3057s.7217,2.3213,2.0391,2.3213c1.2861,0,2.0391-1.0195,2.0391-2.3213s-.7529-2.3057-2.0391-2.3057Z"/>
      <path class="cls-1" d="M176.197,319.5105l-.0312,1.2236h.0469c.2979-.8164,1.0508-1.3652,1.8662-1.3652.5176,0,.7998.1416.7998.1416l-.1406,1.7412h-.0947c-.2197-.0635-.5645-.0947-.8311-.0947-.5957,0-1.0508.251-1.333.7373-.1885.377-.2822.8945-.2822,1.4746v3.7334h-1.9922v-7.5918h1.9922Z"/>
      <path class="cls-1" d="M181.6101,319.5105l2.0078,5.3799,1.9766-5.3799h2.0859l-3.5293,8.6113c-.5488,1.333-1.1758,1.9766-2.2432,1.9766-1.082,0-1.7881-.3135-1.7881-.3135l.4082-1.5371s.5332.1875.9092.1875c.3926,0,.7217-.1094.8789-.502l.3291-.7842-3.1367-7.6387h2.1016Z"/>
      <path class="cls-1" d="M198.5837,323.5573c0-1.459-1.0352-2.1025-2.2588-2.1025-.7207,0-1.4424.2354-1.9443.5654l-.9258-.5488,1.0195-5.1924h5.7568l-.0156,1.6787h-4.4551l-.5176,2.415c.5176-.2197,1.1611-.3604,1.8193-.3604,1.9766,0,3.5928,1.3018,3.5928,3.5762,0,2.3682-1.9922,3.6865-4.2354,3.6865-2.0547,0-3.4512-1.4277-3.7178-1.8047l1.082-1.2861c.5498.6904,1.4746,1.3965,2.7139,1.3965.9414,0,2.0859-.5488,2.0859-2.0234Z"/>
      <path d="M130.5378,345.3083h-1.9248v-.8086h2.957v9.623h-1.0322v-8.8145Z"/>
      <path d="M134.9157,352.6169l.6562-.5996c.418.7109,1.2266,1.3799,2.3564,1.3799,1.2139,0,2.3848-.7803,2.3848-2.3145,0-1.5205-1.1152-2.2461-2.3428-2.2461-.6553,0-1.3809.251-1.7295.5166l-.5859-.335.8926-4.5186h4.5752l-.0146.9199h-3.8066l-.6143,2.9014c.3486-.2236,1.0039-.3203,1.5479-.3203,1.7295,0,3.1387,1.0596,3.1387,3.0537,0,2.0918-1.6738,3.2354-3.459,3.2354-1.7715,0-2.6914-1.0879-2.999-1.6729Z"/>
      <path d="M148.7234,345.4196h-5.4395v-.9199h6.4434l.293.5996-4.7695,9.0234h-1.1855l4.6582-8.7031Z"/>
      <path d="M155.153,349.7292h-3.166v-.8223h3.166v-3.166h.8369v3.166h3.166v.8223h-3.166v3.166h-.8369v-3.166Z"/>
      <path d="M171.9577,347.4567c1.9102,0,2.2734,1.3525,2.2734,2.7188v3.9473h-1.0322v-3.8906c0-.7949-.209-1.8828-1.3809-1.8828-1.0742,0-1.6738,1.0459-1.6738,2.3291v3.4443h-1.0322v-3.8906c0-.7949-.209-1.8828-1.3799-1.8828-1.0742,0-1.6875,1.0459-1.6875,2.3291v3.4443h-1.0322v-6.541h1.0322l-.0146,1.0459h.042c.3213-.6689,1.0039-1.1709,1.7988-1.1709,1.2832,0,1.8691.5996,2.1064,1.4082.2783-.8086,1.0596-1.4082,1.9805-1.4082Z"/>
      <path d="M176.74,347.5681h1.0322v1.1572h.0137c.3623-.6133,1.2275-1.2686,2.3848-1.2686,2.0088,0,3.1797,1.4502,3.1797,3.3887s-1.3242,3.417-3.1514,3.417c-.9629,0-1.9111-.377-2.4131-1.2549l-.0137-.0146v3.752h-1.0322v-9.1768ZM182.2771,350.8454c0-1.4229-.8232-2.5244-2.2734-2.5244-1.3115,0-2.2734,1.1016-2.2734,2.5244,0,1.4082.7812,2.5107,2.2451,2.5107,1.4512,0,2.3018-1.1025,2.3018-2.5107Z"/>
      <path d="M190.8825,350.1618v3.9609h-1.0322v-3.8906c0-1.2139-.3906-1.8828-1.6045-1.8828-1.1709,0-1.7568.9619-1.7568,2.0918v3.6816h-1.0322v-9.623h1.0322v4.1416h.042c.293-.6973,1.1016-1.1846,2.0361-1.1846,1.8682,0,2.3154,1.1436,2.3154,2.7051Z"/>
    </g>
    <g id="_8J29PC" data-name="8J29PC">
      <path class="cls-4" d="M109.5311,301.567c-.3594-.5327.501-.5724.8475-.7171,1.3065-.5456,3.024-1.02,4.2553-1.5942,9.1415-4.2629,19.4243-12.8169,27.0794-19.4693,1.1166-.9704,11.0281-9.5917,10.6719-10.2412-27.8417-7.1914-46.7588-33.7215-44.1439-62.5271,2.924-32.2106,32.2649-54.6313,59.8195-67.0348,17.9549-8.0822,37.2371-13.067,56.4645-16.7984.359.534-.5008.5723-.8477.7177-2.75,1.1526-5.2144,1.996-7.8681,3.4831-6.812,3.8175-13.8196,9.431-19.8284,14.4408-4.9878,4.1586-9.6354,8.7043-14.5516,12.9362-.1487.6029,2.8646.9822,3.5171,1.1957,37.0546,12.1229,52.6202,55.4673,31.7531,88.2999-15.1978,23.9125-41.9656,38.1765-68.0899,47.2814-12.7271,4.4357-25.8827,7.4961-39.0788,10.0273ZM172.5485,187.587c-33.072-7.1264-43.351,42.6863-10.6469,49.5203,32.6052,6.8134,42.8666-42.5776,10.6469-49.5203Z"/>
    </g>
    <g>
      <path class="cls-1" d="M469.7077,340.0749v9.1289h3.7803v1.6943h-5.8037v-10.8232h2.0234Z"/>
      <path class="cls-1" d="M475.1364,340.9851c0-.6436.502-1.1143,1.208-1.1143s1.208.4707,1.208,1.1143c0,.6582-.502,1.1133-1.208,1.1133s-1.208-.4551-1.208-1.1133ZM477.3484,343.3064v7.5918h-2.0078v-7.5918h2.0078Z"/>
      <path class="cls-1" d="M481.9607,348.279v2.6191h-1.9922v-10.8232h1.9922v6.1963l2.7451-2.9648h2.2119l-2.8076,2.8701,3.1836,4.7217h-2.3213l-2.2119-3.4668-.7998.8477Z"/>
      <path class="cls-1" d="M492.488,349.5339c1.0195,0,1.9297-.4551,2.29-.7695l.7842,1.083c-.4229.4395-1.5684,1.2236-3.4189,1.2236-2.291,0-3.9844-1.3965-3.9844-3.8438,0-2.4307,1.7725-4.0625,3.9365-4.0625,2.3379,0,3.749,1.5371,3.749,3.5605,0,.3926-.0312,1.0195-.0312,1.0195h-5.584c.1885,1.208,1.1133,1.7891,2.2588,1.7891ZM490.198,346.4431h3.6387c-.0312-.8311-.3447-1.7881-1.7568-1.7881-1.1914,0-1.8193.8311-1.8818,1.7881Z"/>
      <path class="cls-1" d="M508.6628,347.7448c0,2.0078-1.4746,3.3418-3.7646,3.3418-1.8506,0-3.1211-.8633-3.8271-1.6787l.9727-1.4746c.8467.9258,1.8662,1.4277,2.8857,1.4277,1.0039,0,1.6943-.4863,1.6943-1.4277,0-.8467-.5645-1.1289-1.4902-1.5059l-1.6943-.6748c-1.1758-.4697-1.9609-1.3018-1.9609-2.6191,0-1.8818,1.4746-3.1846,3.749-3.1846,1.5371,0,2.6514.6436,3.2949,1.3027l-.9727,1.458c-.6904-.627-1.5215-1.082-2.4473-1.082-.8945,0-1.5996.4395-1.5996,1.2393,0,.7842.6738,1.082,1.2383,1.3174l1.8047.7373c1.5215.6279,2.1172,1.4746,2.1172,2.8232Z"/>
      <path class="cls-1" d="M513.9363,349.3923c.4072,0,.7207-.126.7207-.126l.1104,1.5537c-.0938.0312-.6904.251-1.5371.251-1.5527,0-2.1963-.7061-2.1963-2.6826v-3.5137h-1.1289v-1.5527h1.1289v-2.165h1.9922v2.165h1.7568v1.5527h-1.7568v3.0742c0,1.1611.2041,1.4434.9102,1.4434Z"/>
      <path class="cls-1" d="M518.6423,351.071c-1.4746,0-2.667-.8008-2.667-2.3848s1.5537-2.1963,3.1221-2.3057l1.8193-.126v-.2031c0-.9727-.6426-1.4277-1.6943-1.4277-1.0039,0-1.835.377-2.1641.627l-.6123-1.2861c.5811-.3447,1.6475-.7998,2.9648-.7998,1.3486,0,2.1172.3457,2.6826.8789.5488.5332.8311,1.2236.8311,2.5098v4.3447h-1.9297l-.0312-.8779c-.3135.5488-1.1914,1.0508-2.3213,1.0508ZM517.9831,348.6237c0,.6426.4863,1.082,1.3184,1.082.7842,0,1.3643-.4551,1.6309-.8311v-1.3965l-1.3643.0791c-1.0674.0625-1.585.4229-1.585,1.0664Z"/>
      <path class="cls-1" d="M528.9499,344.8122c-1.2393,0-1.6621,1.0352-1.6621,2.3057v3.7803h-2.0078v-7.5918h2.0078l-.0156,1.1445h.0469c.4072-.7998,1.1758-1.2861,2.2744-1.2861,2.1807,0,2.7295,1.4121,2.7295,3.2314v4.502h-2.0078v-4.0625c0-1.1299-.2041-2.0234-1.3652-2.0234Z"/>
      <path class="cls-1" d="M540.4812,349.7058c-.6123.9727-1.5537,1.3652-2.6045,1.3652-2.2275,0-3.5918-1.7256-3.5918-3.9844,0-2.1494,1.4268-3.9219,3.7334-3.9219,1.0195,0,1.8818.377,2.415,1.1924h.0312c-.0156-.3447-.0156-.7529-.0156-1.2861v-2.9961h1.9922v10.8232h-1.8975l-.0156-1.1924h-.0469ZM540.4968,347.0866c0-1.2705-.832-2.3848-2.1182-2.3848-1.3018,0-2.0547,1.1143-2.0547,2.3848,0,1.3174.8154,2.3525,2.1172,2.3525,1.208,0,2.0557-.9248,2.0557-2.3525Z"/>
      <path class="cls-1" d="M544.8591,340.9851c0-.6436.502-1.1143,1.208-1.1143s1.208.4707,1.208,1.1143c0,.6582-.502,1.1133-1.208,1.1133s-1.208-.4551-1.208-1.1133ZM547.071,343.3064v7.5918h-2.0078v-7.5918h2.0078Z"/>
      <path class="cls-1" d="M553.2829,344.8122c-1.2393,0-1.6621,1.0352-1.6621,2.3057v3.7803h-2.0078v-7.5918h2.0078l-.0156,1.1445h.0469c.4072-.7998,1.1768-1.2861,2.2744-1.2861,2.1807,0,2.7295,1.4121,2.7295,3.2314v4.502h-2.0078v-4.0625c0-1.1299-.2041-2.0234-1.3652-2.0234Z"/>
      <path class="cls-1" d="M562.1638,350.6472c-1.9141,0-3.5449-1.2236-3.5449-3.6387,0-2.1025,1.4746-3.8438,3.7334-3.8438,1.0195,0,1.8818.377,2.415,1.1924h.0312l-.0156-1.0508h1.9922v6.0234c0,1.6621-.3447,2.6035-.9883,3.2783-.6582.6904-1.6309,1.333-3.4502,1.333-1.8047,0-3.1533-.8623-3.5293-1.1289l.8311-1.3965c.4863.3447,1.7256.8945,2.6982.8945,1.082,0,1.6465-.3457,1.9287-.6748s.5176-.957.5176-1.8037v-.377h-.0312c-.5176.7842-1.4268,1.1924-2.5879,1.1924ZM562.7595,344.7487c-1.3174,0-2.1016.9727-2.1016,2.2119,0,1.1611.7529,2.1182,2.0703,2.1182,1.4434,0,2.165-.957,2.165-2.1182,0-1.0977-.8154-2.2119-2.1338-2.2119Z"/>
      <path class="cls-1" d="M576.6443,340.0749c.8789,0,1.6943.0781,2.4004.4238.8467.4072,1.3955,1.0664,1.3955,2.3057,0,1.3174-.9727,2.0859-1.6777,2.3682v.0312c1.3955.3145,2.3213,1.2236,2.3213,2.6045,0,1.1758-.5488,2.0234-1.2861,2.4941-.6748.4229-1.6318.5957-2.667.5957h-3.9531v-10.8232h3.4668ZM577.7741,344.3259c.376-.2354.5957-.6123.5957-1.2549,0-.9414-.7373-1.3965-1.7881-1.3965h-1.3652v2.918h1.2705c.5654,0,.957-.0625,1.2871-.2666ZM578.4167,348.9997c.3613-.2354.5967-.7207.5967-1.2861,0-.5957-.2666-1.0039-.6748-1.2861s-.8311-.3447-1.459-.3447h-1.6631v3.2158h1.7568c.5176,0,1.0195-.0156,1.4434-.2988Z"/>
      <path class="cls-1" d="M586.9685,349.5339c1.0195,0,1.9297-.4551,2.29-.7695l.7842,1.083c-.4229.4395-1.5684,1.2236-3.4189,1.2236-2.291,0-3.9844-1.3965-3.9844-3.8438,0-2.4307,1.7725-4.0625,3.9365-4.0625,2.3379,0,3.749,1.5371,3.749,3.5605,0,.3926-.0312,1.0195-.0312,1.0195h-5.584c.1885,1.208,1.1133,1.7891,2.2588,1.7891ZM584.6784,346.4431h3.6387c-.0312-.8311-.3447-1.7881-1.7568-1.7881-1.1914,0-1.8193.8311-1.8818,1.7881Z"/>
      <path class="cls-1" d="M599.3933,346.3962v4.502h-2.0078v-4.0625c0-1.1299-.2041-2.0234-1.3643-2.0234-1.2393,0-1.6631,1.0352-1.6631,2.3057v3.7803h-1.9922v-10.8232h1.9922v4.376h.0312c.4082-.7998,1.1768-1.2861,2.2744-1.2861,2.1807,0,2.7295,1.4121,2.7295,3.2314Z"/>
      <path class="cls-1" d="M601.6853,340.9851c0-.6436.502-1.1143,1.208-1.1143s1.208.4707,1.208,1.1143c0,.6582-.502,1.1133-1.208,1.1133s-1.208-.4551-1.208-1.1133ZM603.8972,343.3064v7.5918h-2.0078v-7.5918h2.0078Z"/>
      <path class="cls-1" d="M610.1091,344.8122c-1.2393,0-1.6621,1.0352-1.6621,2.3057v3.7803h-2.0078v-7.5918h2.0078l-.0156,1.1445h.0469c.4072-.7998,1.1768-1.2861,2.2744-1.2861,2.1807,0,2.7295,1.4121,2.7295,3.2314v4.502h-2.0078v-4.0625c0-1.1299-.2041-2.0234-1.3652-2.0234Z"/>
      <path class="cls-1" d="M621.6413,349.7058c-.6123.9727-1.5537,1.3652-2.6045,1.3652-2.2275,0-3.5918-1.7256-3.5918-3.9844,0-2.1494,1.4268-3.9219,3.7334-3.9219,1.0195,0,1.8818.377,2.415,1.1924h.0312c-.0156-.3447-.0156-.7529-.0156-1.2861v-2.9961h1.9922v10.8232h-1.8975l-.0156-1.1924h-.0469ZM621.657,347.0866c0-1.2705-.832-2.3848-2.1182-2.3848-1.3018,0-2.0547,1.1143-2.0547,2.3848,0,1.3174.8154,2.3525,2.1172,2.3525,1.208,0,2.0557-.9248,2.0557-2.3525Z"/>
      <path class="cls-1" d="M496.0808,369.8982c-1.4746,0-2.667-.7998-2.667-2.3848,0-1.584,1.5537-2.1963,3.1221-2.3057l1.8193-.125v-.2041c0-.9727-.6436-1.4277-1.6943-1.4277-1.0039,0-1.835.376-2.1641.6279l-.6123-1.2871c.5811-.3447,1.6475-.7998,2.9648-.7998,1.3486,0,2.1182.3457,2.6826.8789.5488.5332.8311,1.2236.8311,2.5098v4.3447h-1.9297l-.0312-.8789c-.3135.5498-1.1924,1.0518-2.3213,1.0518ZM495.4216,367.4509c0,.6436.4863,1.082,1.3184,1.082.7842,0,1.3643-.4551,1.6309-.8311v-1.3965l-1.3643.0791c-1.0674.0625-1.585.4229-1.585,1.0664Z"/>
      <path class="cls-1" d="M505.7146,371.2155c.7529,0,.8936-.6748.8936-1.5684v-10.7451h2.0234v10.6982c0,1.1133-.2031,1.8818-.5801,2.3682-.3604.4707-.9883.8467-1.8506.8467-.6904,0-1.3018-.1562-1.3965-.2197l.0625-1.5059c.2041.0791.4863.126.8477.126Z"/>
      <path class="cls-1" d="M515.1111,368.361c1.0195,0,1.9297-.4551,2.29-.7686l.7842,1.082c-.4229.4395-1.5684,1.2236-3.4189,1.2236-2.291,0-3.9844-1.3965-3.9844-3.8438,0-2.4307,1.7725-4.0625,3.9365-4.0625,2.3379,0,3.749,1.5371,3.749,3.5605,0,.3926-.0312,1.0195-.0312,1.0195h-5.584c.1885,1.208,1.1133,1.7891,2.2588,1.7891ZM512.821,365.2702h3.6387c-.0312-.8311-.3447-1.7881-1.7568-1.7881-1.1914,0-1.8193.8311-1.8818,1.7881Z"/>
      <path class="cls-1" d="M523.6784,368.2194c.4072,0,.7207-.125.7207-.125l.1104,1.5527c-.0938.0312-.6904.251-1.5371.251-1.5527,0-2.1963-.7061-2.1963-2.6826v-3.5137h-1.1289v-1.5527h1.1289v-2.165h1.9922v2.165h1.7568v1.5527h-1.7568v3.0742c0,1.1611.2041,1.4434.9102,1.4434Z"/>
      <path class="cls-1" d="M532.1189,369.8982c-1.4746,0-2.667-.7998-2.667-2.3848,0-1.584,1.5537-2.1963,3.1221-2.3057l1.8193-.125v-.2041c0-.9727-.6426-1.4277-1.6943-1.4277-1.0039,0-1.835.376-2.1641.6279l-.6123-1.2871c.5811-.3447,1.6475-.7998,2.9648-.7998,1.3486,0,2.1172.3457,2.6826.8789.5488.5332.8311,1.2236.8311,2.5098v4.3447h-1.9297l-.0312-.8789c-.3135.5498-1.1914,1.0518-2.3213,1.0518ZM531.4597,367.4509c0,.6436.4863,1.082,1.3184,1.082.7842,0,1.3643-.4551,1.6309-.8311v-1.3965l-1.3643.0791c-1.0674.0625-1.585.4229-1.585,1.0664Z"/>
      <path class="cls-1" d="M542.0027,368.2194c.4072,0,.7207-.125.7207-.125l.1104,1.5527c-.0938.0312-.6904.251-1.5371.251-1.5527,0-2.1963-.7061-2.1963-2.6826v-3.5137h-1.1289v-1.5527h1.1289v-2.165h1.9922v2.165h1.7568v1.5527h-1.7568v3.0742c0,1.1611.2041,1.4434.9102,1.4434Z"/>
      <path class="cls-1" d="M547.5251,360.5485v-1.6465h7.9688v1.6465h-2.9648v9.1768h-2.0234v-9.1768h-2.9805Z"/>
      <path class="cls-1" d="M558.9939,369.8982c-1.4746,0-2.667-.7998-2.667-2.3848,0-1.584,1.5537-2.1963,3.1221-2.3057l1.8193-.125v-.2041c0-.9727-.6426-1.4277-1.6943-1.4277-1.0039,0-1.835.376-2.1641.6279l-.6123-1.2871c.5811-.3447,1.6475-.7998,2.9648-.7998,1.3486,0,2.1172.3457,2.6826.8789.5488.5332.8311,1.2236.8311,2.5098v4.3447h-1.9297l-.0312-.8789c-.3135.5498-1.1914,1.0518-2.3213,1.0518ZM558.3347,367.4509c0,.6436.4863,1.082,1.3184,1.082.7842,0,1.3643-.4551,1.6309-.8311v-1.3965l-1.3643.0791c-1.0674.0625-1.585.4229-1.585,1.0664Z"/>
      <path class="cls-1" d="M567.7019,367.1062v2.6191h-1.9922v-10.8232h1.9922v6.1963l2.7451-2.9648h2.2119l-2.8086,2.8701,3.1846,4.7217h-2.3213l-2.2119-3.4668-.7998.8477Z"/>
      <path class="cls-1" d="M578.2282,368.361c1.0195,0,1.9297-.4551,2.29-.7686l.7842,1.082c-.4229.4395-1.5684,1.2236-3.4189,1.2236-2.291,0-3.9844-1.3965-3.9844-3.8438,0-2.4307,1.7725-4.0625,3.9365-4.0625,2.3379,0,3.749,1.5371,3.749,3.5605,0,.3926-.0312,1.0195-.0312,1.0195h-5.584c.1885,1.208,1.1133,1.7891,2.2588,1.7891ZM575.9382,365.2702h3.6387c-.0312-.8311-.3447-1.7881-1.7568-1.7881-1.1914,0-1.8193.8311-1.8818,1.7881Z"/>
      <path class="cls-1" d="M583.156,365.9607c0-2.4004,1.7881-3.9688,4.125-3.9688,2.3213,0,4.1104,1.5684,4.1104,3.9688s-1.7891,3.9375-4.1104,3.9375c-2.3369,0-4.125-1.5371-4.125-3.9375ZM587.281,363.6081c-1.3174,0-2.0391,1.0039-2.0391,2.3057s.7217,2.3213,2.0391,2.3213c1.2861,0,2.0391-1.0195,2.0391-2.3213s-.7529-2.3057-2.0391-2.3057Z"/>
      <path class="cls-1" d="M595.7224,363.7019v6.0234h-2.0078v-6.0234h-1.0352v-1.5527h1.0352v-.5801c0-.9258.251-1.6787.6436-2.1025.3916-.4551,1.0195-.7529,1.8975-.7529.9258,0,1.4902.1572,1.4902.1572l-.126,1.4424s-.4385-.125-.8623-.125c-.8623,0-1.0664.5801-1.0664,1.3018v.6592h2.7295v-.5801c0-.9258.2666-1.6631.6426-2.1025.3926-.4551,1.0195-.7529,1.8984-.7529.9258,0,1.4902.1572,1.4902.1572l-.126,1.4424s-.4385-.125-.8623-.125c-.8633,0-1.0664.5801-1.0664,1.3018v.6592h1.7402v1.5527h-1.709v6.0234h-2.0078v-6.0234h-2.6982Z"/>
    </g>
    <path d="M689.6624,230.749c-.1237-.0425-.2622-.0704-.3926-.0805-24.1555-1.8715-25.8524-1.4823-29.414-3.2298-13.6808-6.7127-40.8322-5.9704-59.921-6.3498-.1487-.003-.2933-.0277-.4348-.0735l-40.194-13.0037c-.2563-.0829-.4858-.2329-.6647-.4343l-40.0455-45.0953c-.3694-.416-.4803-1.0013-.2888-1.5237l.6459-1.7609c.2183-.5951.7848-.9907,1.4186-.9907h14.5769c.7927,0,1.4506-.6126,1.5072-1.4033l.0384-.5372c.0564-.7884.7153-1.3922,1.5057-1.4015,7.052-.0825,7.3157-2.9005-.3225-2.7289-.8524.0191-1.5617-.656-1.5617-1.5086v-.7489c0-.8345-.6765-1.511-1.511-1.511h-2.9778c-.8345,0-1.511.6765-1.511,1.511v.0977c0,.8345-.6765,1.511-1.511,1.511h-25.2967c-.8345,0-1.511-.6765-1.511-1.511v-.0977c0-.8345-.6765-1.511-1.511-1.511h-6.0975c-.8345,0-1.511.6765-1.511,1.511v5.1375c0,.8345.6765,1.511,1.511,1.511h3.6975c.8345,0,1.511.6765,1.511,1.511v54.8154c0,.8345-.6765,1.511-1.511,1.511h-19.7023c-.4701,0-.9135-.2188-1.1994-.592l-20.3316-26.5347c-.2859-.3732-.7293-.592-1.1994-.592h-9.6232c-.8345,0-1.511.6765-1.511,1.511v88.8947c0,.8345.6765,1.511,1.511,1.511h9.6232c.4701,0,.9135-.2188,1.1994-.592l20.3316-26.5352c.2859-.3732.7293-.592,1.1994-.592h19.7023c.8345,0,1.511.6765,1.511,1.511v54.8158c0,.8345-.6765,1.511-1.511,1.511h-3.6975c-.8345,0-1.511.6765-1.511,1.511v5.1375c0,.8345.6765,1.511,1.511,1.511h6.0975c.8345,0,1.511-.6765,1.511-1.511v-.0977c0-.8345.6765-1.511,1.511-1.511h25.2967c.8345,0,1.511.6765,1.511,1.511v.0977c0,.8345.6765,1.511,1.511,1.511h2.9778c.8345,0,1.511-.6765,1.511-1.511v-.7603c0-.8477.6965-1.525,1.5441-1.5106,2.1154.0359,5.6555-.08,5.6555-1.2579,0-1.1894-3.3668-1.4165-5.3341-1.4477-.7857-.0125-1.4303-.619-1.4864-1.4028l-.0391-.5463c-.0565-.7907-.7145-1.4033-1.5072-1.4033h-14.5769c-.6338,0-1.2003-.3956-1.4186-.9906l-.6458-1.7605c-.1916-.5223-.0807-1.1077.2887-1.5237l40.0455-45.0953c.1789-.2015.4084-.3514.6647-.4343l40.1957-13.0042c.1404-.0454.2867-.07.4343-.0731l34.978-.7141c.0524-.0011.0969-.0039.149-.0104,1.2246-.1531,18.0071-2.2962,24.7928-5.6258,3.5565-1.7445,5.2536-1.3594,29.3104-3.2213.1972-.0153.4022-.0708.5787-.1601,3.0666-1.5512,2.9725-2.5883-.0825-3.6385ZM602.3876,237.0841c0,.9278-.8323,1.6337-1.7495,1.494-8.7612-1.3341-14.4859-3.5095-14.4859-5.9741s5.7247-4.6409,14.4859-5.9747c.9172-.1396,1.7494.5663,1.7494,1.4941v8.9607ZM630.5603,238.2252c0,.8013-.6217,1.4677-1.4219,1.5106-2.6792.1433-5.4772.2228-8.367.2228-5.4251,0-10.5581-.2657-15.1285-.7381-.7677-.0794-1.3452-.7319-1.3452-1.5037v-10.2259c0-.7718.5774-1.4243,1.3451-1.5037,4.5704-.4727,9.7034-.738,15.1286-.738,2.8899,0,5.6879.0795,8.3672.2231.8001.0429,1.4217.7093,1.4217,1.5106v11.2426ZM644.3989,237.9727c-2.9844.5916-6.4685,1.0692-10.2929,1.4091-.8802.0782-1.6359-.6222-1.6359-1.5059v-10.5443c0-.8837.7557-1.5842,1.6359-1.5059,3.8244.3399,7.3085.8176,10.2929,1.4091.7023.1392,1.2024.7636,1.2024,1.4796v7.7787c0,.7159-.5002,1.3404-1.2024,1.4796Z"/>
    <path class="cls-2" d="M509.324,283.3403v14.9429c0,.257.3107.3857.4924.204l14.9429-14.9429c.1817-.1817.053-.4924-.204-.4924h-14.9429c-.1593,0-.2885.1292-.2885.2885Z"/>
  </g>
  <path class="cls-2" d="M507.9133,181.7979v-14.9429c0-.257.3107-.3857.4924-.204l14.9429,14.9429c.1817.1817.053.4924-.204.4924h-14.9429c-.1593,0-.2885-.1292-.2885-.2885Z"/>
</svg>