<?xml version="1.0" encoding="UTF-8"?>
<svg id="Layer_1" data-name="Layer 1" xmlns="http://www.w3.org/2000/svg" viewBox="0 0 800 496">
  <defs>
    <style>
      .cls-1 {
        stroke-width: 3px;
      }

      .cls-1, .cls-2 {
        stroke: #000;
      }

      .cls-3 {
        fill: #231f20;
      }

      .cls-4 {
        fill: #fff;
      }

      .cls-2 {
        fill: none;
        stroke-miterlimit: 10;
        stroke-width: 2px;
      }

      .cls-5 {
        fill: #999;
      }
    </style>
  </defs>
  <g>
    <rect x="439.0621" y="298.8354" width="206.2062" height="96.6859" rx="3.0311" ry="3.0311"/>
    <rect x="439.0621" y="197.0158" width="206.2062" height="96.6859" rx="3.0311" ry="3.0311"/>
    <rect x="439.0621" y="95.1962" width="206.2062" height="96.6859" rx="3.0311" ry="3.0311"/>
    <path d="M675.517,90.0624h-266.7036c-2.4646,0-3.6369-3.0341-1.8126-4.6913l71.5772-65.02c.4961-.4507,1.1424-.7004,1.8126-.7004h123.5492c.6703,0,1.3165.2497,1.8126.7004l71.5772,65.02c1.8243,1.6572.6519,4.6913-1.8126,4.6913Z"/>
    <rect class="cls-4" x="463.3655" y="220.0236" width="67.5602" height="50.6702" rx="3.9115" ry="3.9115"/>
    <rect class="cls-4" x="555.4059" y="220.0236" width="67.5602" height="50.6702" rx="3.9115" ry="3.9115"/>
    <rect class="cls-4" x="463.3655" y="118.6863" width="67.5602" height="50.6702" rx="3.9115" ry="3.9115"/>
    <rect class="cls-4" x="555.4059" y="118.6863" width="67.5602" height="50.6702" rx="3.9115" ry="3.9115"/>
    <line class="cls-1" x1="497.1456" y1="274.286" x2="497.1456" y2="216.4315"/>
    <line class="cls-1" x1="589.186" y1="274.286" x2="589.186" y2="216.4315"/>
    <line class="cls-1" x1="552.3817" y1="245.3587" x2="625.9903" y2="245.3587"/>
    <line class="cls-1" x1="460.3413" y1="245.3587" x2="533.9499" y2="245.3587"/>
    <line class="cls-1" x1="497.1456" y1="173.8592" x2="497.1456" y2="116.0047"/>
    <line class="cls-1" x1="589.186" y1="173.8592" x2="589.186" y2="116.0047"/>
    <line class="cls-1" x1="552.3817" y1="144.9319" x2="625.9903" y2="144.9319"/>
    <line class="cls-1" x1="460.3413" y1="144.9319" x2="533.9499" y2="144.9319"/>
    <path class="cls-4" d="M527.0854,331.8754h30.1596c2.5674,0,4.6519,2.0844,4.6519,4.6519v64.8022h-39.4633v-64.8022c0-2.5674,2.0844-4.6519,4.6519-4.6519Z"/>
  </g>
  <path class="cls-5" d="M348.2103,444.3014v8.418h-47.4941v-8.418h47.4941ZM348.2103,461.0484v8.418h-47.4941v-8.418h47.4941Z"/>
  <g>
    <path class="cls-3" d="M509.9574,449.7574c.8623-.7998,1.6465-1.6943,1.6465-2.7607,0-1.082-.6904-1.7725-1.9131-1.7725-1.3652,0-2.1338.8623-2.6514,1.4434l-.9414-1.2393c.3457-.502,1.459-1.8828,3.749-1.8828,2.3057,0,3.7959,1.2705,3.7959,3.1846,0,1.8506-1.458,3.2158-2.1328,3.8584l-2.416,2.2588h5.0039v1.6787h-7.623l-.2666-1.3018,3.749-3.4668Z"/>
    <path class="cls-3" d="M516.5941,453.5377c0-.7373.5176-1.1768,1.2705-1.1768.7217,0,1.2549.4395,1.2549,1.1768,0,.7217-.5332,1.1611-1.2549,1.1611-.7529,0-1.2705-.4395-1.2705-1.1611Z"/>
    <path class="cls-3" d="M527.5746,450.981c0-1.459-1.0352-2.1025-2.2588-2.1025-.7207,0-1.4424.2354-1.9443.5654l-.9258-.5488,1.0195-5.1924h5.7568l-.0156,1.6787h-4.4551l-.5176,2.415c.5176-.2197,1.1611-.3604,1.8193-.3604,1.9766,0,3.5928,1.3018,3.5928,3.5762,0,2.3682-1.9922,3.6865-4.2354,3.6865-2.0547,0-3.4512-1.4277-3.7178-1.8047l1.082-1.2861c.5488.6904,1.4746,1.3965,2.7139,1.3965.9414,0,2.0859-.5488,2.0859-2.0234Z"/>
    <path class="cls-3" d="M538.3383,448.2984c-.6592,0-.9883.251-.9883.6123,0,.3291.251.5957,1.0986.8623l.5332.1729c1.6777.5488,2.2744,1.1445,2.2744,2.2432,0,1.4424-1.1455,2.5098-3.0117,2.5098-1.1611,0-2.4629-.4707-3.0752-1.1768l.8164-1.3643c.8936.6895,1.6621,1.0352,2.3057,1.0352.7529,0,1.0977-.2822,1.0977-.7217,0-.3926-.2979-.6123-1.2705-.9414l-.8779-.2979c-1.1299-.377-1.71-1.0508-1.71-2.165,0-1.3799,1.2549-2.2744,2.7139-2.2744,1.3486,0,2.1016.3613,2.7295.8154l-.8633,1.334c-.4395-.3301-1.082-.6436-1.7725-.6436Z"/>
    <path class="cls-3" d="M546.3871,453.0201c.4072,0,.7217-.126.7217-.126l.1094,1.5537c-.0938.0312-.6904.251-1.5371.251-1.5527,0-2.1963-.7061-2.1963-2.6826v-3.5137h-1.1289v-1.5527h1.1289v-2.165h1.9922v2.165h1.7568v1.5527h-1.7568v3.0742c0,1.1611.2041,1.4434.9102,1.4434Z"/>
    <path class="cls-3" d="M548.5375,450.7613c0-2.4004,1.7881-3.9688,4.125-3.9688,2.3213,0,4.1104,1.5684,4.1104,3.9688s-1.7891,3.9375-4.1104,3.9375c-2.3369,0-4.125-1.5371-4.125-3.9375ZM552.6625,448.4088c-1.3174,0-2.0391,1.0039-2.0391,2.3057s.7217,2.3213,2.0391,2.3213c1.2861,0,2.0391-1.0195,2.0391-2.3213s-.7529-2.3057-2.0391-2.3057Z"/>
    <path class="cls-3" d="M560.7748,446.9342l-.0312,1.2236h.0469c.2979-.8164,1.0508-1.3652,1.8662-1.3652.5176,0,.7998.1416.7998.1416l-.1406,1.7412h-.0947c-.2197-.0635-.5645-.0947-.8311-.0947-.5957,0-1.0508.251-1.333.7373-.1885.377-.2822.8945-.2822,1.4746v3.7334h-1.9922v-7.5918h1.9922Z"/>
    <path class="cls-3" d="M564.932,444.6129c0-.6436.502-1.1143,1.208-1.1143s1.208.4707,1.208,1.1143c0,.6582-.502,1.1133-1.208,1.1133s-1.208-.4551-1.208-1.1133ZM567.1439,446.9342v7.5918h-2.0078v-7.5918h2.0078Z"/>
    <path class="cls-3" d="M573.5131,453.1617c1.0195,0,1.9297-.4551,2.29-.7695l.7842,1.083c-.4238.4395-1.5684,1.2236-3.4189,1.2236-2.291,0-3.9844-1.3965-3.9844-3.8438,0-2.4307,1.7725-4.0625,3.9365-4.0625,2.3379,0,3.749,1.5371,3.749,3.5605,0,.3926-.0312,1.0195-.0312,1.0195h-5.584c.1885,1.208,1.1133,1.7891,2.2588,1.7891ZM571.223,450.0709h3.6387c-.0312-.8311-.3447-1.7881-1.7568-1.7881-1.1914,0-1.8193.8311-1.8818,1.7881Z"/>
    <path class="cls-3" d="M581.4369,448.2984c-.6592,0-.9883.251-.9883.6123,0,.3291.251.5957,1.0977.8623l.5342.1729c1.6777.5488,2.2744,1.1445,2.2744,2.2432,0,1.4424-1.1455,2.5098-3.0117,2.5098-1.1611,0-2.4629-.4707-3.0752-1.1768l.8164-1.3643c.8936.6895,1.6621,1.0352,2.3057,1.0352.7529,0,1.0977-.2822,1.0977-.7217,0-.3926-.2979-.6123-1.2705-.9414l-.8779-.2979c-1.1299-.377-1.71-1.0508-1.71-2.165,0-1.3799,1.2549-2.2744,2.7139-2.2744,1.3486,0,2.1016.3613,2.7295.8154l-.8633,1.334c-.4395-.3301-1.082-.6436-1.7725-.6436Z"/>
    <path class="cls-3" d="M481.5609,469.5885c0-2.4004,1.7881-3.9688,4.125-3.9688,2.3213,0,4.1104,1.5684,4.1104,3.9688s-1.7891,3.9375-4.1104,3.9375c-2.3369,0-4.125-1.5371-4.125-3.9375ZM485.6859,467.2359c-1.3174,0-2.0391,1.0039-2.0391,2.3057s.7217,2.3213,2.0391,2.3213c1.2861,0,2.0391-1.0195,2.0391-2.3213s-.7529-2.3057-2.0391-2.3057Z"/>
    <path class="cls-3" d="M491.0844,467.3297v-1.5527h1.0352v-.5801c0-.9258.251-1.6787.6436-2.1025.3916-.4551,1.0195-.7529,1.8975-.7529.9258,0,1.4902.1572,1.4902.1572l-.126,1.4424s-.4385-.125-.8623-.125c-.8623,0-1.0664.5801-1.0664,1.3018v.6592h1.7412v1.5527h-1.71v6.0234h-2.0078v-6.0234h-1.0352Z"/>
    <path class="cls-3" d="M502.9447,473.526c-1.4746,0-2.667-.7998-2.667-2.3848,0-1.584,1.5537-2.1963,3.1221-2.3057l1.8193-.125v-.2041c0-.9727-.6436-1.4277-1.6943-1.4277-1.0039,0-1.835.376-2.1641.6279l-.6123-1.2871c.5811-.3447,1.6475-.7998,2.9648-.7998,1.3486,0,2.1182.3457,2.6826.8789.5488.5332.8311,1.2236.8311,2.5098v4.3447h-1.9297l-.0312-.8789c-.3135.5498-1.1924,1.0518-2.3213,1.0518ZM502.2855,471.0787c0,.6436.4863,1.082,1.3184,1.082.7842,0,1.3643-.4551,1.6309-.8311v-1.3965l-1.3643.0791c-1.0674.0625-1.585.4229-1.585,1.0664Z"/>
    <path class="cls-3" d="M520.9857,470.232c0,2.0703-1.8037,3.2939-4.0156,3.2939-2.0547,0-3.4512-1.4277-3.7178-1.8037l1.083-1.2871c.5488.6904,1.4746,1.3965,2.7139,1.3965s1.9131-.5332,1.9131-1.6787c0-1.1289-1.0352-1.6465-2.1484-1.6465h-.7217v-1.4902h.8779c1.0039,0,1.6943-.5332,1.6943-1.5215,0-.8633-.6748-1.4434-1.7725-1.4434-.9727,0-1.7412.4082-2.2588,1.0508l-1.0195-1.1445c.502-.6123,1.7412-1.585,3.4512-1.585,2.0078,0,3.5762,1.0508,3.5762,2.8555,0,1.3018-.9883,2.2109-1.6943,2.4619v.0479c.8789.2031,2.0391.9404,2.0391,2.4941Z"/>
    <path class="cls-3" d="M529.7885,467.1256c-.6592,0-.9883.251-.9883.6123,0,.3291.251.5957,1.0977.8623l.5342.1729c1.6777.5488,2.2744,1.1445,2.2744,2.2432,0,1.4424-1.1455,2.5098-3.0117,2.5098-1.1611,0-2.4629-.4707-3.0752-1.1768l.8164-1.3643c.8936.6895,1.6621,1.0352,2.3057,1.0352.7529,0,1.0977-.2822,1.0977-.7217,0-.3926-.2979-.6123-1.2705-.9414l-.8779-.2979c-1.1299-.377-1.71-1.0508-1.71-2.165,0-1.3799,1.2549-2.2744,2.7139-2.2744,1.3486,0,2.1016.3613,2.7295.8154l-.8633,1.334c-.4395-.3301-1.082-.6436-1.7725-.6436Z"/>
    <path class="cls-3" d="M537.8373,471.8473c.4072,0,.7207-.125.7207-.125l.1104,1.5527c-.0938.0312-.6904.251-1.5371.251-1.5527,0-2.1963-.7061-2.1963-2.6826v-3.5137h-1.1289v-1.5527h1.1289v-2.165h1.9922v2.165h1.7568v1.5527h-1.7568v3.0742c0,1.1611.2041,1.4434.9102,1.4434Z"/>
    <path class="cls-3" d="M539.9867,469.5885c0-2.4004,1.7881-3.9688,4.125-3.9688,2.3213,0,4.1104,1.5684,4.1104,3.9688s-1.7891,3.9375-4.1104,3.9375c-2.3369,0-4.125-1.5371-4.125-3.9375ZM544.1117,467.2359c-1.3174,0-2.0391,1.0039-2.0391,2.3057s.7217,2.3213,2.0391,2.3213c1.2861,0,2.0391-1.0195,2.0391-2.3213s-.7529-2.3057-2.0391-2.3057Z"/>
    <path class="cls-3" d="M552.224,465.7613l-.0312,1.2236h.0469c.2979-.8164,1.0508-1.3652,1.8662-1.3652.5176,0,.7998.1416.7998.1416l-.1406,1.7412h-.0947c-.2197-.0635-.5645-.0947-.8311-.0947-.5957,0-1.0508.251-1.333.7373-.1885.377-.2822.8945-.2822,1.4746v3.7334h-1.9922v-7.5918h1.9922Z"/>
    <path class="cls-3" d="M557.6361,465.7613l2.0078,5.3799,1.9766-5.3799h2.0859l-3.5293,8.6113c-.5488,1.333-1.1758,1.9766-2.2432,1.9766-1.082,0-1.7881-.3135-1.7881-.3135l.4082-1.5371s.5332.1875.9092.1875c.3926,0,.7217-.1094.8789-.502l.3291-.7842-3.1367-7.6387h2.1016Z"/>
    <path class="cls-3" d="M576.0072,468.8512v4.502h-2.0078v-4.0625c0-1.1299-.2041-2.0234-1.3643-2.0234-1.2393,0-1.6631,1.0352-1.6631,2.3057v3.7803h-1.9922v-10.8232h1.9922v4.376h.0312c.4082-.7998,1.1768-1.2861,2.2744-1.2861,2.1807,0,2.7295,1.4121,2.7295,3.2314Z"/>
    <path class="cls-3" d="M577.9701,469.5885c0-2.4004,1.7881-3.9688,4.125-3.9688,2.3223,0,4.1104,1.5684,4.1104,3.9688s-1.7881,3.9375-4.1104,3.9375c-2.3369,0-4.125-1.5371-4.125-3.9375ZM582.0951,467.2359c-1.3174,0-2.0391,1.0039-2.0391,2.3057s.7217,2.3213,2.0391,2.3213c1.2861,0,2.0391-1.0195,2.0391-2.3213s-.7529-2.3057-2.0391-2.3057Z"/>
    <path class="cls-3" d="M591.431,471.8473c1.207,0,1.6621-.957,1.6621-2.2275v-3.8584h2.0078v7.5918h-1.9453l-.0156-1.0664c-.4385.7529-1.2549,1.208-2.3525,1.208-2.1807,0-2.7139-1.4121-2.7139-3.2314v-4.502h2.0078v4.0625c0,1.1289.1885,2.0234,1.3496,2.0234Z"/>
    <path class="cls-3" d="M600.1849,467.1256c-.6592,0-.9883.251-.9883.6123,0,.3291.251.5957,1.0977.8623l.5342.1729c1.6777.5488,2.2744,1.1445,2.2744,2.2432,0,1.4424-1.1455,2.5098-3.0117,2.5098-1.1611,0-2.4629-.4707-3.0752-1.1768l.8164-1.3643c.8936.6895,1.6621,1.0352,2.3057,1.0352.7529,0,1.0977-.2822,1.0977-.7217,0-.3926-.2979-.6123-1.2705-.9414l-.8779-.2979c-1.1299-.377-1.71-1.0508-1.71-2.165,0-1.3799,1.2549-2.2744,2.7139-2.2744,1.3486,0,2.1016.3613,2.7295.8154l-.8633,1.334c-.4395-.3301-1.082-.6436-1.7725-.6436Z"/>
    <path class="cls-3" d="M608.8139,471.9889c1.0195,0,1.9297-.4551,2.29-.7686l.7842,1.082c-.4238.4395-1.5684,1.2236-3.4189,1.2236-2.291,0-3.9844-1.3965-3.9844-3.8438,0-2.4307,1.7725-4.0625,3.9365-4.0625,2.3379,0,3.749,1.5371,3.749,3.5605,0,.3926-.0312,1.0195-.0312,1.0195h-5.584c.1885,1.208,1.1133,1.7891,2.2588,1.7891ZM606.5238,468.898h3.6387c-.0312-.8311-.3447-1.7881-1.7568-1.7881-1.1914,0-1.8193.8311-1.8818,1.7881Z"/>
  </g>
  <g>
    <path class="cls-3" d="M110.0619,443.2247c.8623-.7998,1.6465-1.6943,1.6465-2.7607,0-1.082-.6904-1.7725-1.9131-1.7725-1.3652,0-2.1338.8623-2.6514,1.4434l-.9414-1.2393c.3457-.502,1.459-1.8828,3.749-1.8828,2.3057,0,3.7959,1.2705,3.7959,3.1846,0,1.8506-1.458,3.2158-2.1328,3.8584l-2.416,2.2588h5.0039v1.6787h-7.623l-.2666-1.3018,3.749-3.4668Z"/>
    <path class="cls-3" d="M122.141,444.4483c0-1.459-1.0352-2.1025-2.2588-2.1025-.7207,0-1.4424.2354-1.9443.5654l-.9258-.5488,1.0195-5.1924h5.7568l-.0156,1.6787h-4.4551l-.5176,2.415c.5176-.2197,1.1611-.3604,1.8193-.3604,1.9766,0,3.5928,1.3018,3.5928,3.5762,0,2.3682-1.9922,3.6865-4.2354,3.6865-2.0547,0-3.4512-1.4277-3.7178-1.8047l1.082-1.2861c.5498.6904,1.4746,1.3965,2.7139,1.3965.9414,0,2.0859-.5488,2.0859-2.0234Z"/>
    <path class="cls-3" d="M136.7006,446.4874c.4082,0,.7217-.126.7217-.126l.1104,1.5537c-.0947.0312-.6904.251-1.5381.251-1.5527,0-2.1953-.7061-2.1953-2.6826v-3.5137h-2.7139v6.0234h-2.0078v-6.0234h-1.0352v-1.5527h1.0352v-.5811c0-.9248.251-1.6777.6436-2.1016.3916-.4551,1.0195-.7529,1.8975-.7529.9258,0,1.4902.1572,1.4902.1572l-.126,1.4434s-.4385-.126-.8623-.126c-.8623,0-1.0664.5801-1.0664,1.3018v.6592h2.7451v-2.165h1.9922v2.165h1.7568v1.5527h-1.7568v3.0742c0,1.1611.2031,1.4434.9092,1.4434Z"/>
    <path class="cls-3" d="M82.6381,460.5929c-.6592,0-.9883.251-.9883.6123,0,.3291.251.5957,1.0986.8623l.5332.1729c1.6777.5488,2.2744,1.1445,2.2744,2.2432,0,1.4424-1.1455,2.5098-3.0117,2.5098-1.1611,0-2.4629-.4707-3.0752-1.1768l.8164-1.3643c.8936.6895,1.6621,1.0352,2.3057,1.0352.7529,0,1.0977-.2822,1.0977-.7217,0-.3926-.2979-.6123-1.2705-.9414l-.8779-.2979c-1.1299-.377-1.71-1.0508-1.71-2.165,0-1.3799,1.2549-2.2744,2.7139-2.2744,1.3486,0,2.1016.3613,2.7295.8154l-.8633,1.334c-.4395-.3301-1.082-.6436-1.7725-.6436Z"/>
    <path class="cls-3" d="M90.6869,465.3145c.4072,0,.7217-.125.7217-.125l.1094,1.5527c-.0938.0312-.6904.251-1.5371.251-1.5527,0-2.1963-.7061-2.1963-2.6826v-3.5137h-1.1289v-1.5527h1.1289v-2.165h1.9922v2.165h1.7568v1.5527h-1.7568v3.0742c0,1.1611.2041,1.4434.9102,1.4434Z"/>
    <path class="cls-3" d="M92.8373,463.0558c0-2.4004,1.7881-3.9688,4.125-3.9688,2.3213,0,4.1104,1.5684,4.1104,3.9688s-1.7891,3.9375-4.1104,3.9375c-2.3369,0-4.125-1.5371-4.125-3.9375ZM96.9623,460.7032c-1.3174,0-2.0391,1.0039-2.0391,2.3057s.7217,2.3213,2.0391,2.3213c1.2861,0,2.0391-1.0195,2.0391-2.3213s-.7529-2.3057-2.0391-2.3057Z"/>
    <path class="cls-3" d="M105.0736,459.2286l-.0322,1.2236h.0479c.2979-.8164,1.0508-1.3652,1.8662-1.3652.5176,0,.7998.1416.7998.1416l-.1406,1.7412h-.0947c-.2188-.0635-.5645-.0947-.8311-.0947-.5957,0-1.0508.251-1.333.7373-.1885.377-.2822.8945-.2822,1.4746v3.7334h-1.9922v-7.5918h1.9922Z"/>
    <path class="cls-3" d="M117.6244,460.7345c-1.0039,0-1.5225.8623-1.5225,2.1641v3.9219h-2.0078v-4.2666c0-1.0352-.2666-1.8193-1.2227-1.8193-1.0352,0-1.4902.9727-1.4902,2.1641v3.9219h-2.0078v-7.5918h2.0078l-.0156,1.1445h.0469c.3447-.7051,1.2705-1.2861,2.2588-1.2861,1.0977,0,1.7568.4395,2.1172,1.4434.5332-.9258,1.3965-1.4434,2.4941-1.4434,1.9922,0,2.541,1.4121,2.541,3.1533v4.5801h-2.0078v-4.251c0-.9258-.2041-1.835-1.1914-1.835Z"/>
    <path class="cls-3" d="M129.5951,460.5929c-.6592,0-.9883.251-.9883.6123,0,.3291.251.5957,1.0986.8623l.5332.1729c1.6777.5488,2.2744,1.1445,2.2744,2.2432,0,1.4424-1.1455,2.5098-3.0117,2.5098-1.1611,0-2.4629-.4707-3.0752-1.1768l.8164-1.3643c.8936.6895,1.6621,1.0352,2.3057,1.0352.7529,0,1.0977-.2822,1.0977-.7217,0-.3926-.2979-.6123-1.2705-.9414l-.8779-.2979c-1.1299-.377-1.71-1.0508-1.71-2.165,0-1.3799,1.2549-2.2744,2.7139-2.2744,1.3486,0,2.1016.3613,2.7295.8154l-.8633,1.334c-.4395-.3301-1.082-.6436-1.7725-.6436Z"/>
    <path class="cls-3" d="M137.6117,465.3145c1.208,0,1.6631-.957,1.6631-2.2275v-3.8584h2.0078v7.5918h-1.9453l-.0156-1.0664c-.4385.7529-1.2549,1.208-2.3525,1.208-2.1807,0-2.7139-1.4121-2.7139-3.2314v-4.502h2.0078v4.0625c0,1.1289.1885,2.0234,1.3486,2.0234Z"/>
    <path class="cls-3" d="M145.7553,459.2286l-.0322,1.2236h.0479c.2979-.8164,1.0508-1.3652,1.8662-1.3652.5176,0,.7998.1416.7998.1416l-.1406,1.7412h-.0947c-.2188-.0635-.5645-.0947-.8311-.0947-.5957,0-1.0508.251-1.333.7373-.1885.377-.2822.8945-.2822,1.4746v3.7334h-1.9922v-7.5918h1.9922Z"/>
    <path class="cls-3" d="M153.0512,466.5694c-1.9141,0-3.5449-1.2236-3.5449-3.6396,0-2.1016,1.4746-3.8428,3.7334-3.8428,1.0195,0,1.8818.377,2.415,1.1924h.0312l-.0156-1.0508h1.9922v6.0234c0,1.6621-.3447,2.6035-.9883,3.2783-.6582.6904-1.6309,1.333-3.4502,1.333-1.8047,0-3.1533-.8623-3.5293-1.1289l.8311-1.3965c.4863.3447,1.7256.8945,2.6982.8945,1.082,0,1.6465-.3457,1.9287-.6748s.5176-.957.5176-1.8037v-.377h-.0312c-.5176.7842-1.4268,1.1924-2.5879,1.1924ZM153.6469,460.672c-1.3174,0-2.1016.9717-2.1016,2.2109,0,1.1611.7529,2.1182,2.0703,2.1182,1.4434,0,2.165-.957,2.165-2.1182,0-1.0977-.8154-2.2109-2.1338-2.2109Z"/>
    <path class="cls-3" d="M164.0014,465.4561c1.0195,0,1.9297-.4551,2.29-.7686l.7842,1.082c-.4229.4395-1.5684,1.2236-3.4189,1.2236-2.291,0-3.9844-1.3965-3.9844-3.8438,0-2.4307,1.7725-4.0625,3.9365-4.0625,2.3379,0,3.749,1.5371,3.749,3.5605,0,.3926-.0312,1.0195-.0312,1.0195h-5.584c.1885,1.208,1.1133,1.7891,2.2588,1.7891ZM161.7113,462.3653h3.6387c-.0312-.8311-.3447-1.7881-1.7568-1.7881-1.1914,0-1.8193.8311-1.8818,1.7881Z"/>
  </g>
  <path class="cls-5" d="M274.1099,161.254c39.5988-38.0159,92.1544-50.9393,130.2761-49.5706,13.8279.4965,27.1604,2.9238,40.4695,8.9872,34.2088,15.5848,64.5804,53.5138,58.0197,85.1729-.7578,3.6569-1.8765,6.594-2.7607,8.5996-8.4791-25.5646-26.623-44.4764-47.8354-47.5283-30.6877-4.4152-60.3964,25.428-66.1603,52.7131-12.035,56.9711,73.4247,135.4391,147.9777,134.804.0353-.0002.0705-.0006.1057-.001,5.3583-.051,10.2362-3.0754,12.751-7.8071,5.6249-10.5835,14.2164-24.676,22.7787-26.9307,9.2809-2.4438,22.5988,1.0591,23.2125,12.75-5.0508-2.2432-5.4242-5.7769-11.9808-5.0566-18.7459,2.0605,10.5872,33.1968,18.2211,26.0718,1.0866-1.0137,6.9104-13.8823,9.2552-17.3242,3.9094-5.7388,11.6439-15.4951,18.5463-16.624,11.4513-1.8735,22.4824,2.436,22.4245,15.9346-2.2845-1.9243-3.9689-5.9683-6.924-7.2344-3.7445-1.604-9.1248-1.6094-11.4709,2.4429-.6039,1.0435-.8707,2.5962-1.0231,3.4346-.0032.0178-.0065.0358-.0096.0536-.4163,2.3342-.0503,4.7389.946,6.8905,4.2827,9.2487,11.0317,20.8583,21.6465,31.9958,25.3647,26.6133,55.925,32.8237,67.9554,34.5645-194.8105-.4178-389.621-.8356-584.4315-1.2534,5.6635-4.6115,14.7041-12.3497,24.7774-22.8805,80.3227-83.9697,47.6518-159.2444,113.2331-222.2041Z"/>
  <g>
    <line class="cls-2" x1="119.7798" y1="112.3806" x2="119.7798" y2="407.2824"/>
    <line class="cls-2" x1="112.3933" y1="112.3806" x2="128.7477" y2="112.3806"/>
    <line class="cls-2" x1="112.3933" y1="407.4493" x2="128.7477" y2="407.4493"/>
  </g>
</svg>