<?xml version="1.0" encoding="UTF-8"?>
<svg id="Layer_1" data-name="Layer 1" xmlns="http://www.w3.org/2000/svg" xmlns:xlink="http://www.w3.org/1999/xlink" viewBox="0 0 800 496">
  <defs>
    <style>
      .cls-1, .cls-2, .cls-3, .cls-4 {
        fill: none;
      }

      .cls-2 {
        stroke-dasharray: 6 7;
        stroke-width: .75px;
      }

      .cls-2, .cls-3, .cls-4, .cls-5, .cls-6, .cls-7, .cls-8 {
        stroke: #fff;
        stroke-miterlimit: 10;
      }

      .cls-3 {
        stroke-width: 12px;
      }

      .cls-5 {
        fill: #191919;
      }

      .cls-6 {
        fill: url(#New_Pattern_Swatch_2);
      }

      .cls-6, .cls-8 {
        stroke-width: 1.5px;
      }

      .cls-7 {
        fill: #fff;
      }

      .cls-8 {
        fill: gray;
      }
    </style>
    <pattern id="New_Pattern_Swatch_2" data-name="New Pattern Swatch 2" x="0" y="0" width="226.5294" height="226.5294" patternTransform="translate(-12275.5855 -9116.8244) scale(.0545)" patternUnits="userSpaceOnUse" viewBox="0 0 226.5294 226.5294">
      <g>
        <rect class="cls-1" x="0" y="0" width="226.5294" height="226.5294"/>
        <line class="cls-3" x1="453.2068" y1="453.2069" x2="226.3811" y2="226.3812"/>
        <line class="cls-3" x1="226.6774" y1="453.2069" x2="-.1483" y2="226.3812"/>
        <line class="cls-3" x1=".148" y1="453.2069" x2="-226.6777" y2="226.3812"/>
        <line class="cls-3" x1="453.2068" y1="226.6775" x2="226.3811" y2="-.1482"/>
        <line class="cls-3" x1="226.6774" y1="226.6775" x2="-.1483" y2="-.1482"/>
        <line class="cls-3" x1=".148" y1="226.6775" x2="-226.6777" y2="-.1482"/>
        <line class="cls-3" x1="453.2068" y1=".1481" x2="226.3811" y2="-226.6776"/>
        <line class="cls-3" x1="226.6774" y1=".1481" x2="-.1483" y2="-226.6776"/>
        <line class="cls-3" x1=".148" y1=".1481" x2="-226.6777" y2="-226.6776"/>
      </g>
    </pattern>
  </defs>
  <g>
    <rect class="cls-7" x="481.1605" y="442.1575" width="84.6495" height="20.0284" rx="10.0142" ry="10.0142"/>
    <g>
      <path d="M494.0669,456.3598l-2.6768-4.0439-.8291.8418v3.2021h-1.1338v-8.0645h1.1338v3.4355l3.2842-3.4355h1.3789l-3.0742,3.1787,3.2969,4.8857h-1.3799Z"/>
      <path d="M500.1207,456.3598l-.0117-.7012c-.2217.2334-.748.8301-1.7646.8301-1.0283,0-1.917-.6436-1.917-1.7188,0-1.0869.8887-1.6357,2.1738-1.6943l1.4844-.0586v-.2217c0-.8418-.5723-1.2627-1.3789-1.2627s-1.4844.3623-1.6709.4795l-.3398-.748c.4092-.2344,1.1572-.5615,2.0811-.5615,1.625,0,2.4307.8184,2.4307,2.4316v3.2256h-1.0869ZM498.8003,453.7768c-.9004.0469-1.2627.4326-1.2627.958,0,.5264.4092.959,1.1455.959.7246,0,1.2041-.4912,1.4141-.8066v-1.1924l-1.2969.082Z"/>
      <path d="M504.7945,456.4887c-1.3906,0-1.4609-1.1455-1.4609-2.2324v-2.5371h-.8174v-.8994h.8174v-1.6602h1.1221v1.6602h1.333v.8994h-1.333v2.5137c0,.4668.0117.7832.1406,1.0166.1055.1758.2568.2803.5723.2803.3281,0,.5732-.1279.5732-.1279l.0703.8994c-.293.1289-.6318.1875-1.0176.1875Z"/>
      <path d="M510.2417,451.8364h-.0469c-.1055-.0469-.3037-.1172-.6074-.1172-1.0059,0-1.251,1.0645-1.251,1.8701v2.7705h-1.1221v-5.5518h1.1221l-.0117.8535h.0352c.2686-.6318.7715-.959,1.3672-.959.374,0,.585.0938.585.0938l-.0703,1.04Z"/>
      <path d="M512.2046,449.6742c-.4326,0-.7363-.292-.7363-.6895s.3037-.6895.7363-.6895c.4209,0,.7246.292.7246.6895s-.3037.6895-.7246.6895ZM511.6441,456.3598v-5.5518h1.1221v5.5518h-1.1221Z"/>
      <path d="M518.5269,456.3598v-3.0977c0-.9346-.1641-1.6357-1.1572-1.6357-1.04,0-1.4258.876-1.4258,1.9395v2.7939h-1.1221v-5.5518h1.1221l-.0117.877h.0352c.292-.5498.8877-.9824,1.6943-.9824,1.5781,0,1.9873,1.04,1.9873,2.373v3.2842h-1.1221Z"/>
      <path d="M524.8375,456.3598l-.0117-.7012c-.2217.2334-.748.8301-1.7646.8301-1.0283,0-1.917-.6436-1.917-1.7188,0-1.0869.8887-1.6357,2.1738-1.6943l1.4844-.0586v-.2217c0-.8418-.5723-1.2627-1.3789-1.2627s-1.4844.3623-1.6709.4795l-.3398-.748c.4092-.2344,1.1572-.5615,2.0811-.5615,1.625,0,2.4307.8184,2.4307,2.4316v3.2256h-1.0869ZM523.5171,453.7768c-.9004.0469-1.2627.4326-1.2627.958,0,.5264.4092.959,1.1455.959.7246,0,1.2041-.4912,1.4141-.8066v-1.1924l-1.2969.082Z"/>
      <path d="M530.7388,456.3598l-.1641-.7598,2.8516-2.7002c.6201-.5957,1.3096-1.332,1.3096-2.2324,0-.9111-.6309-1.5664-1.6602-1.5664-1.0166,0-1.6475.7598-1.9746,1.2979l-.5967-.666c.2227-.4912,1.04-1.5547,2.6416-1.5547,1.6133,0,2.7002.9463,2.7002,2.373,0,1.4258-1.2041,2.4307-1.7061,2.8984l-2.0693,1.9756h4.1143v.9346h-5.4463Z"/>
      <path d="M540.5914,456.4887c-2.1738,0-3.0859-2.0576-3.0859-4.1494,0-2.1045.9238-4.1611,3.0859-4.1611,2.1738,0,3.0859,2.0566,3.0859,4.1611,0,2.0918-.9121,4.1494-3.0859,4.1494ZM540.5914,449.1362c-1.2979,0-1.9404,1.333-1.9404,3.1797,0,1.835.6426,3.1787,1.9404,3.1787,1.2969,0,1.9404-1.3438,1.9404-3.1787,0-1.8467-.6436-3.1797-1.9404-3.1797Z"/>
      <path d="M547.9078,456.4887c-2.1738,0-3.0859-2.0576-3.0859-4.1494,0-2.1045.9238-4.1611,3.0859-4.1611,2.1738,0,3.0859,2.0566,3.0859,4.1611,0,2.0918-.9121,4.1494-3.0859,4.1494ZM547.9078,449.1362c-1.2979,0-1.9404,1.333-1.9404,3.1797,0,1.835.6426,3.1787,1.9404,3.1787,1.2969,0,1.9404-1.3438,1.9404-3.1787,0-1.8467-.6436-3.1797-1.9404-3.1797Z"/>
      <path d="M554.9781,456.5004c-1.5195,0-2.3613-.8418-2.6533-1.3564l.6309-.6543c.3506.5957,1.1104,1.0752,2.0107,1.0752.9111,0,1.8701-.5605,1.8701-1.7881s-.9473-1.7881-1.8701-1.7881c-.5264,0-1.1113.1514-1.4268.4326l-.5723-.3398.7012-3.7861h4.0557v.9111h-3.2373l-.4209,2.1387c.3154-.1396.7012-.21,1.1455-.21,1.3086,0,2.7471.877,2.7471,2.6416s-1.4619,2.7236-2.9805,2.7236Z"/>
    </g>
    <rect class="cls-4" x="477.5016" y="439.1327" width="91.9674" height="26.078" rx="13.039" ry="13.039"/>
  </g>
  <g>
    <g>
      <path d="M285.7496,456.3598l-2.6768-4.0439-.8291.8418v3.2021h-1.1338v-8.0645h1.1338v3.4355l3.2842-3.4355h1.3789l-3.0742,3.1787,3.2969,4.8857h-1.3799Z"/>
      <path d="M291.8033,456.3598l-.0117-.7012c-.2217.2334-.748.8301-1.7646.8301-1.0283,0-1.917-.6436-1.917-1.7188,0-1.0869.8887-1.6357,2.1738-1.6943l1.4844-.0586v-.2217c0-.8418-.5723-1.2627-1.3789-1.2627s-1.4844.3623-1.6709.4795l-.3398-.748c.4092-.2344,1.1572-.5615,2.0811-.5615,1.625,0,2.4307.8184,2.4307,2.4316v3.2256h-1.0869ZM290.483,453.7768c-.9004.0469-1.2627.4326-1.2627.958,0,.5264.4092.959,1.1455.959.7246,0,1.2041-.4912,1.4141-.8066v-1.1924l-1.2969.082Z"/>
      <path d="M296.4771,456.4887c-1.3906,0-1.4609-1.1455-1.4609-2.2324v-2.5371h-.8174v-.8994h.8174v-1.6602h1.1221v1.6602h1.333v.8994h-1.333v2.5137c0,.4668.0117.7832.1406,1.0166.1055.1758.2568.2803.5723.2803.3281,0,.5732-.1279.5732-.1279l.0703.8994c-.292.1289-.6318.1875-1.0176.1875Z"/>
      <path d="M301.9244,451.8364h-.0469c-.1055-.0469-.3037-.1172-.6074-.1172-1.0059,0-1.251,1.0645-1.251,1.8701v2.7705h-1.1221v-5.5518h1.1221l-.0117.8535h.0352c.2686-.6318.7715-.959,1.3672-.959.374,0,.585.0938.585.0938l-.0703,1.04Z"/>
      <path d="M303.8873,449.6742c-.4326,0-.7363-.292-.7363-.6895s.3037-.6895.7363-.6895c.4209,0,.7246.292.7246.6895s-.3037.6895-.7246.6895ZM303.3267,456.3598v-5.5518h1.1221v5.5518h-1.1221Z"/>
      <path d="M310.2095,456.3598v-3.0977c0-.9346-.1641-1.6357-1.1572-1.6357-1.04,0-1.4258.876-1.4258,1.9395v2.7939h-1.1221v-5.5518h1.1221l-.0117.877h.0352c.292-.5498.8887-.9824,1.6943-.9824,1.5781,0,1.9873,1.04,1.9873,2.373v3.2842h-1.1221Z"/>
      <path d="M316.5201,456.3598l-.0117-.7012c-.2217.2334-.748.8301-1.7646.8301-1.0283,0-1.917-.6436-1.917-1.7188,0-1.0869.8887-1.6357,2.1738-1.6943l1.4844-.0586v-.2217c0-.8418-.5723-1.2627-1.3789-1.2627s-1.4844.3623-1.6709.4795l-.3398-.748c.4092-.2344,1.1572-.5615,2.0811-.5615,1.625,0,2.4307.8184,2.4307,2.4316v3.2256h-1.0869ZM315.1998,453.7768c-.9004.0469-1.2627.4326-1.2627.958,0,.5264.4092.959,1.1455.959.7246,0,1.2041-.4912,1.4141-.8066v-1.1924l-1.2969.082Z"/>
      <path d="M322.4214,456.3598l-.1641-.7598,2.8516-2.7002c.6201-.5957,1.3096-1.332,1.3096-2.2324,0-.9111-.6309-1.5664-1.6602-1.5664-1.0166,0-1.6475.7598-1.9746,1.2979l-.5967-.666c.2227-.4912,1.04-1.5547,2.6416-1.5547,1.6133,0,2.7002.9463,2.7002,2.373,0,1.4258-1.2041,2.4307-1.7061,2.8984l-2.0693,1.9756h4.1143v.9346h-5.4463Z"/>
      <path d="M332.274,456.4887c-2.1738,0-3.0859-2.0576-3.0859-4.1494,0-2.1045.9238-4.1611,3.0859-4.1611,2.1738,0,3.0859,2.0566,3.0859,4.1611,0,2.0918-.9121,4.1494-3.0859,4.1494ZM332.274,449.1362c-1.2979,0-1.9404,1.333-1.9404,3.1797,0,1.835.6426,3.1787,1.9404,3.1787,1.2969,0,1.9404-1.3438,1.9404-3.1787,0-1.8467-.6436-3.1797-1.9404-3.1797Z"/>
      <path d="M339.5904,456.4887c-2.1738,0-3.0859-2.0576-3.0859-4.1494,0-2.1045.9238-4.1611,3.0859-4.1611,2.1738,0,3.0859,2.0566,3.0859,4.1611,0,2.0918-.9121,4.1494-3.0859,4.1494ZM339.5904,449.1362c-1.2979,0-1.9404,1.333-1.9404,3.1797,0,1.835.6426,3.1787,1.9404,3.1787,1.2969,0,1.9404-1.3438,1.9404-3.1787,0-1.8467-.6436-3.1797-1.9404-3.1797Z"/>
      <path d="M346.6597,456.5004c-1.5186,0-2.3604-.8418-2.6523-1.3564l.6309-.6543c.3506.5957,1.1104,1.0752,2.0107,1.0752.9111,0,1.8701-.5605,1.8701-1.7881s-.9473-1.7881-1.8701-1.7881c-.5264,0-1.1104.1514-1.4268.4326l-.5723-.3398.7012-3.7861h4.0557v.9111h-3.2373l-.4209,2.1387c.3154-.1396.7012-.21,1.1455-.21,1.3086,0,2.7471.877,2.7471,2.6416s-1.4619,2.7236-2.9814,2.7236Z"/>
    </g>
    <rect class="cls-7" x="272.8426" y="442.1575" width="130.6397" height="20.0284" rx="10.0142" ry="10.0142"/>
    <g>
      <path d="M282.1304,456.5004c-2.3027,0-4.1143-1.6602-4.1143-4.1729s1.8115-4.1494,4.1025-4.1494c2.0684,0,2.957,1.0869,3.2607,1.4023l-.7715.7129c-.4795-.5605-1.2275-1.1455-2.4893-1.1455-1.6602,0-2.9336,1.1924-2.9336,3.1797s1.3203,3.1787,3.0039,3.1787c1.6709,0,2.2676-.7363,2.2676-.7363v-1.7881h-2.1748v-.9238h3.2734v3.1328c-.1523.1523-1.1338,1.3096-3.4248,1.3096Z"/>
      <path d="M290.5796,451.8364h-.0469c-.1055-.0469-.3037-.1172-.6074-.1172-1.0059,0-1.251,1.0645-1.251,1.8701v2.7705h-1.1221v-5.5518h1.1221l-.0117.8535h.0352c.2686-.6318.7715-.959,1.3672-.959.374,0,.585.0938.585.0938l-.0703,1.04Z"/>
      <path d="M296.9126,453.8471h-4.2773c.0586,1.0986.7598,1.7646,1.7881,1.7646,1.04,0,1.707-.5615,1.835-.6426l.4678.6426c-.0703.0586-.7832.877-2.4434.877-1.6475,0-2.7812-1.1455-2.7812-2.9111,0-1.7529,1.2744-2.875,2.8164-2.875,1.543,0,2.6299,1.0986,2.6299,2.6533,0,.21-.0352.4912-.0352.4912ZM294.2828,451.5092c-1.1104,0-1.6006.9238-1.6357,1.5898h3.2373c-.0117-.6201-.4785-1.5898-1.6016-1.5898Z"/>
      <path d="M301.8677,456.3598l-.0117-.7012c-.2217.2334-.748.8301-1.7646.8301-1.0283,0-1.917-.6436-1.917-1.7188,0-1.0869.8887-1.6357,2.1738-1.6943l1.4844-.0586v-.2217c0-.8418-.5723-1.2627-1.3789-1.2627s-1.4844.3623-1.6709.4795l-.3398-.748c.4092-.2344,1.1572-.5615,2.0811-.5615,1.625,0,2.4307.8184,2.4307,2.4316v3.2256h-1.0869ZM300.5474,453.7768c-.9004.0469-1.2627.4326-1.2627.958,0,.5264.4092.959,1.1455.959.7246,0,1.2041-.4912,1.4141-.8066v-1.1924l-1.2969.082Z"/>
      <path d="M306.5425,456.4887c-1.3906,0-1.4609-1.1455-1.4609-2.2324v-2.5371h-.8174v-.8994h.8174v-1.6602h1.1221v1.6602h1.333v.8994h-1.333v2.5137c0,.4668.0117.7832.1406,1.0166.1055.1758.2568.2803.5723.2803.3281,0,.5732-.1279.5732-.1279l.0703.8994c-.293.1289-.6318.1875-1.0176.1875Z"/>
      <path d="M315.5298,456.5004c-2.3496,0-4.1143-1.6484-4.1143-4.1611s1.8115-4.1611,4.126-4.1611c1.5078,0,2.4189.6309,2.8633,1.0635l-.4795.9121c-.3154-.3975-1.2148-.9824-2.3369-.9824-1.7422,0-3.0039,1.251-3.0039,3.1445s1.2734,3.1436,3.0039,3.1436c1.0635,0,1.8818-.4092,2.4072-.9814l.4912.8301c-.5029.5605-1.4258,1.1924-2.957,1.1924Z"/>
      <path d="M322.0503,457.3295c-.3857.959-.8418,1.2861-1.4609,1.2861s-1.0518-.1982-1.0518-.1982l.2217-.9121s.3037.1289.585.1289c.4551,0,.5723-.2461.7246-.6553l.2686-.7363-2.2559-5.4463,1.1689.0117,1.6826,4.3125,1.6367-4.3242,1.1572.0117-2.6768,6.5215Z"/>
      <path d="M328.3375,456.4887c-1.4961,0-2.8047-1.1221-2.8047-2.8994,0-1.7881,1.3672-2.8867,2.8398-2.8867,1.4844,0,2.0928.7246,2.1514.7949l-.3975.8184c-.1875-.1875-.6787-.6777-1.6602-.6777s-1.7998.748-1.7998,1.916c0,1.1689.7246,1.9756,1.7998,1.9756,1.0869,0,1.6953-.7012,1.6953-.7012l.3965.8184c-.1631.1631-.7363.8418-2.2207.8418Z"/>
      <path d="M331.9839,456.3598v-8.0645h1.1104v8.0645h-1.1104Z"/>
      <path d="M337.7339,456.4887c-1.6602,0-2.9453-1.1572-2.9453-2.8877,0-1.7178,1.2852-2.8984,2.9453-2.8984,1.6484,0,2.9336,1.1807,2.9336,2.8984,0,1.7305-1.2852,2.8877-2.9336,2.8877ZM337.7339,451.6147c-1.1221,0-1.8115.8643-1.8115,1.9512,0,1.0996.6895,1.9639,1.8115,1.9639,1.1104,0,1.7998-.8643,1.7998-1.9639,0-1.0869-.6895-1.9512-1.7998-1.9512Z"/>
      <path d="M346.0074,456.3598v-3.0977c0-.9346-.1641-1.6357-1.1572-1.6357-1.04,0-1.4258.876-1.4258,1.9395v2.7939h-1.1221v-5.5518h1.1221l-.0117.877h.0352c.292-.5498.8877-.9824,1.6943-.9824,1.5781,0,1.9873,1.04,1.9873,2.373v3.2842h-1.1221Z"/>
      <path d="M354.1294,453.8471h-4.2773c.0586,1.0986.7598,1.7646,1.7881,1.7646,1.04,0,1.707-.5615,1.835-.6426l.4678.6426c-.0703.0586-.7832.877-2.4434.877-1.6475,0-2.7812-1.1455-2.7812-2.9111,0-1.7529,1.2744-2.875,2.8164-2.875,1.543,0,2.6299,1.0986,2.6299,2.6533,0,.21-.0352.4912-.0352.4912ZM351.4996,451.5092c-1.1104,0-1.6006.9238-1.6357,1.5898h3.2373c-.0117-.6201-.4785-1.5898-1.6016-1.5898Z"/>
      <path d="M361.105,456.4887c-1.6602,0-2.9453-1.1572-2.9453-2.8877,0-1.7178,1.2852-2.8984,2.9453-2.8984,1.6484,0,2.9336,1.1807,2.9336,2.8984,0,1.7305-1.2852,2.8877-2.9336,2.8877ZM361.105,451.6147c-1.1221,0-1.8115.8643-1.8115,1.9512,0,1.0996.6895,1.9639,1.8115,1.9639,1.1104,0,1.7998-.8643,1.7998-1.9639,0-1.0869-.6895-1.9512-1.7998-1.9512Z"/>
      <path d="M368.4791,449.1244s-.3154-.1045-.6309-.1045c-.7363,0-.8535.5488-.8535,1.1797v.6201h1.3213v.8994h-1.3213v4.6406h-1.1104v-4.6406h-.7949v-.8994h.7949v-.5615c0-.7246.1406-1.1924.374-1.4844.2461-.3037.6904-.6074,1.333-.6074s.958.1289.958.1289l-.0703.8291Z"/>
      <path d="M373.6675,456.3598v-7.2354h-1.5781v-.8291h2.6768v8.0645h-1.0986Z"/>
      <path d="M379.9429,456.5004c-1.4023,0-2.127-.6553-2.3379-.8301l.4795-.748c.3271.3037,1.0049.666,1.835.666,1.7529,0,2.1621-1.9404,2.1621-3.3428-.2686.5498-.9111,1.1924-2.1855,1.1924-1.2627,0-2.4775-.9355-2.4775-2.4785,0-1.5537,1.0518-2.7812,2.7461-2.7812,1.4609,0,2.1514.9111,2.4434,1.3906.2686.4326.5605,1.2627.5605,2.6299,0,2.0459-.8525,4.3018-3.2256,4.3018ZM380.188,449.0551c-1.1104,0-1.6709.8525-1.6709,1.7646,0,.9111.5605,1.7646,1.6709,1.7646,1.1221,0,1.6953-.8535,1.6953-1.7646,0-.9121-.5732-1.7646-1.6953-1.7646Z"/>
      <path d="M386.3941,456.3598h-1.1924l3.8105-7.1533h-4.5352v-.9111h5.4932l.3047.6543-3.8809,7.4102Z"/>
      <path d="M394.2828,456.4887c-2.1738,0-3.0859-2.0576-3.0859-4.1494,0-2.1045.9238-4.1611,3.0859-4.1611,2.1738,0,3.0859,2.0566,3.0859,4.1611,0,2.0918-.9121,4.1494-3.0859,4.1494ZM394.2828,449.1362c-1.2979,0-1.9404,1.333-1.9404,3.1797,0,1.835.6426,3.1787,1.9404,3.1787,1.2969,0,1.9404-1.3438,1.9404-3.1787,0-1.8467-.6436-3.1797-1.9404-3.1797Z"/>
    </g>
    <rect class="cls-4" x="269.1837" y="439.1327" width="137.9576" height="26.078" rx="13.039" ry="13.039"/>
  </g>
  <line class="cls-2" x1="247.3827" y1="386.4836" x2="613.4931" y2="386.4836"/>
  <line class="cls-2" x1="247.3827" y1="277.1722" x2="613.4931" y2="277.1722"/>
  <line class="cls-2" x1="247.3827" y1="162.1401" x2="613.4931" y2="162.1401"/>
  <line class="cls-2" x1="247.3827" y1="47.935" x2="613.4931" y2="47.935"/>
  <line class="cls-2" x1="247.3827" y1="47.935" x2="613.4931" y2="47.935"/>
  <rect x="454.9315" y="130.4067" width="138.0354" height="289.3877"/>
  <rect x="267.4755" y="406.3852" width="138.0354" height="13.4092"/>
  <rect class="cls-5" x="454.9315" y="130.4067" width="138.0354" height="289.3877"/>
  <rect class="cls-8" x="267.4755" y="406.3852" width="138.0354" height="13.4092"/>
  <line class="cls-7" x1="247.3827" y1="420.0059" x2="613.4931" y2="420.0059"/>
  <rect class="cls-6" x="454.9315" y="130.4067" width="138.0354" height="289.3877"/>
</svg>