<?xml version="1.0" encoding="UTF-8"?>
<svg id="Layer_1" data-name="Layer 1" xmlns="http://www.w3.org/2000/svg" xmlns:xlink="http://www.w3.org/1999/xlink" viewBox="0 0 800 496">
  <defs>
    <style>
      .cls-1, .cls-2, .cls-3, .cls-4 {
        fill: none;
      }

      .cls-2 {
        stroke-dasharray: 6 7;
        stroke-width: .75px;
      }

      .cls-2, .cls-3, .cls-4, .cls-5, .cls-6, .cls-7, .cls-8, .cls-9, .cls-10, .cls-11 {
        stroke-miterlimit: 10;
      }

      .cls-2, .cls-3, .cls-4, .cls-8, .cls-9, .cls-10, .cls-11 {
        stroke: #fff;
      }

      .cls-3 {
        stroke-width: 12px;
      }

      .cls-5 {
        fill: url(#New_Pattern_Swatch_2-3);
      }

      .cls-5, .cls-6, .cls-7 {
        stroke: #f2f2f3;
      }

      .cls-6 {
        fill: url(#New_Pattern_Swatch_2-2);
      }

      .cls-12, .cls-10 {
        fill: #fff;
      }

      .cls-8 {
        fill: #191919;
      }

      .cls-9 {
        fill: url(#New_Pattern_Swatch_2);
      }

      .cls-9, .cls-11 {
        stroke-width: 1.5px;
      }

      .cls-11 {
        fill: gray;
      }
    </style>
    <pattern id="New_Pattern_Swatch_2" data-name="New Pattern Swatch 2" x="0" y="0" width="226.5294" height="226.5294" patternTransform="translate(-12275.5855 -9808.6497) scale(.0545)" patternUnits="userSpaceOnUse" viewBox="0 0 226.5294 226.5294">
      <g>
        <rect class="cls-1" x="0" y="0" width="226.5294" height="226.5294"/>
        <line class="cls-3" x1="453.2068" y1="453.2069" x2="226.3811" y2="226.3812"/>
        <line class="cls-3" x1="226.6774" y1="453.2069" x2="-.1483" y2="226.3812"/>
        <line class="cls-3" x1=".148" y1="453.2069" x2="-226.6777" y2="226.3812"/>
        <line class="cls-3" x1="453.2068" y1="226.6775" x2="226.3811" y2="-.1482"/>
        <line class="cls-3" x1="226.6774" y1="226.6775" x2="-.1483" y2="-.1482"/>
        <line class="cls-3" x1=".148" y1="226.6775" x2="-226.6777" y2="-.1482"/>
        <line class="cls-3" x1="453.2068" y1=".1481" x2="226.3811" y2="-226.6776"/>
        <line class="cls-3" x1="226.6774" y1=".1481" x2="-.1483" y2="-226.6776"/>
        <line class="cls-3" x1=".148" y1=".1481" x2="-226.6777" y2="-226.6776"/>
      </g>
    </pattern>
    <pattern id="New_Pattern_Swatch_2-2" data-name="New Pattern Swatch 2" patternTransform="translate(-12206.7182 -9755.4939) scale(.006)" xlink:href="#New_Pattern_Swatch_2"/>
    <pattern id="New_Pattern_Swatch_2-3" data-name="New Pattern Swatch 2" patternTransform="translate(-12217.7496 -9656.9528) scale(.006)" xlink:href="#New_Pattern_Swatch_2"/>
  </defs>
  <g>
    <rect class="cls-10" x="481.1605" y="442.1575" width="84.6495" height="20.0284" rx="10.0142" ry="10.0142"/>
    <g>
      <path d="M494.067,456.3585l-2.6768-4.0439-.8291.8418v3.2021h-1.1338v-8.0645h1.1338v3.4355l3.2842-3.4355h1.3789l-3.0742,3.1787,3.2969,4.8857h-1.3799Z"/>
      <path d="M500.1207,456.3585l-.0117-.7012c-.2217.2334-.748.8301-1.7646.8301-1.0283,0-1.917-.6436-1.917-1.7188,0-1.0869.8887-1.6357,2.1738-1.6943l1.4844-.0586v-.2217c0-.8418-.5723-1.2627-1.3789-1.2627s-1.4844.3623-1.6709.4795l-.3398-.748c.4092-.2344,1.1572-.5615,2.0811-.5615,1.625,0,2.4307.8184,2.4307,2.4316v3.2256h-1.0869ZM498.8004,453.7755c-.9004.0469-1.2627.4326-1.2627.958,0,.5264.4092.959,1.1455.959.7246,0,1.2041-.4912,1.4141-.8066v-1.1924l-1.2969.082Z"/>
      <path d="M504.7945,456.4875c-1.3906,0-1.4609-1.1455-1.4609-2.2324v-2.5371h-.8174v-.8994h.8174v-1.6602h1.1221v1.6602h1.333v.8994h-1.333v2.5137c0,.4668.0117.7832.1406,1.0166.1055.1758.2568.2803.5723.2803.3281,0,.5732-.1279.5732-.1279l.0703.8994c-.293.1289-.6318.1875-1.0176.1875Z"/>
      <path d="M510.2418,451.8351h-.0469c-.1055-.0469-.3037-.1172-.6074-.1172-1.0059,0-1.251,1.0645-1.251,1.8701v2.7705h-1.1221v-5.5518h1.1221l-.0117.8535h.0352c.2686-.6318.7715-.959,1.3672-.959.374,0,.585.0938.585.0938l-.0703,1.04Z"/>
      <path d="M512.2047,449.673c-.4326,0-.7363-.292-.7363-.6895s.3037-.6895.7363-.6895c.4209,0,.7246.292.7246.6895s-.3037.6895-.7246.6895ZM511.6441,456.3585v-5.5518h1.1221v5.5518h-1.1221Z"/>
      <path d="M518.5269,456.3585v-3.0977c0-.9346-.1641-1.6357-1.1572-1.6357-1.04,0-1.4258.876-1.4258,1.9395v2.7939h-1.1221v-5.5518h1.1221l-.0117.877h.0352c.292-.5498.8877-.9824,1.6943-.9824,1.5781,0,1.9873,1.04,1.9873,2.373v3.2842h-1.1221Z"/>
      <path d="M524.8375,456.3585l-.0117-.7012c-.2217.2334-.748.8301-1.7646.8301-1.0283,0-1.917-.6436-1.917-1.7188,0-1.0869.8887-1.6357,2.1738-1.6943l1.4844-.0586v-.2217c0-.8418-.5723-1.2627-1.3789-1.2627s-1.4844.3623-1.6709.4795l-.3398-.748c.4092-.2344,1.1572-.5615,2.0811-.5615,1.625,0,2.4307.8184,2.4307,2.4316v3.2256h-1.0869ZM523.5172,453.7755c-.9004.0469-1.2627.4326-1.2627.958,0,.5264.4092.959,1.1455.959.7246,0,1.2041-.4912,1.4141-.8066v-1.1924l-1.2969.082Z"/>
      <path d="M530.7389,456.3585l-.1641-.7598,2.8516-2.7002c.6201-.5957,1.3096-1.332,1.3096-2.2324,0-.9111-.6309-1.5664-1.6602-1.5664-1.0166,0-1.6475.7598-1.9746,1.2979l-.5967-.666c.2227-.4912,1.04-1.5547,2.6416-1.5547,1.6133,0,2.7002.9463,2.7002,2.373,0,1.4258-1.2041,2.4307-1.7061,2.8984l-2.0693,1.9756h4.1143v.9346h-5.4463Z"/>
      <path d="M540.5914,456.4875c-2.1738,0-3.0859-2.0576-3.0859-4.1494,0-2.1045.9238-4.1611,3.0859-4.1611,2.1738,0,3.0859,2.0566,3.0859,4.1611,0,2.0918-.9121,4.1494-3.0859,4.1494ZM540.5914,449.1349c-1.2979,0-1.9404,1.333-1.9404,3.1797,0,1.835.6426,3.1787,1.9404,3.1787,1.2969,0,1.9404-1.3438,1.9404-3.1787,0-1.8467-.6436-3.1797-1.9404-3.1797Z"/>
      <path d="M547.9078,456.4875c-2.1738,0-3.0859-2.0576-3.0859-4.1494,0-2.1045.9238-4.1611,3.0859-4.1611,2.1738,0,3.0859,2.0566,3.0859,4.1611,0,2.0918-.9121,4.1494-3.0859,4.1494ZM547.9078,449.1349c-1.2979,0-1.9404,1.333-1.9404,3.1797,0,1.835.6426,3.1787,1.9404,3.1787,1.2969,0,1.9404-1.3438,1.9404-3.1787,0-1.8467-.6436-3.1797-1.9404-3.1797Z"/>
      <path d="M554.9781,456.4992c-1.5195,0-2.3613-.8418-2.6533-1.3564l.6309-.6543c.3506.5957,1.1104,1.0752,2.0107,1.0752.9111,0,1.8701-.5605,1.8701-1.7881s-.9473-1.7881-1.8701-1.7881c-.5264,0-1.1113.1514-1.4268.4326l-.5723-.3398.7012-3.7861h4.0557v.9111h-3.2373l-.4209,2.1387c.3154-.1396.7012-.21,1.1455-.21,1.3086,0,2.7471.877,2.7471,2.6416s-1.4619,2.7236-2.9805,2.7236Z"/>
    </g>
    <rect class="cls-4" x="477.5016" y="439.1327" width="91.9674" height="26.078" rx="13.039" ry="13.039"/>
  </g>
  <g>
    <g>
      <path d="M285.7496,456.3585l-2.6768-4.0439-.8291.8418v3.2021h-1.1338v-8.0645h1.1338v3.4355l3.2842-3.4355h1.3789l-3.0742,3.1787,3.2969,4.8857h-1.3799Z"/>
      <path d="M291.8033,456.3585l-.0117-.7012c-.2217.2334-.748.8301-1.7646.8301-1.0283,0-1.917-.6436-1.917-1.7188,0-1.0869.8887-1.6357,2.1738-1.6943l1.4844-.0586v-.2217c0-.8418-.5723-1.2627-1.3789-1.2627s-1.4844.3623-1.6709.4795l-.3398-.748c.4092-.2344,1.1572-.5615,2.0811-.5615,1.625,0,2.4307.8184,2.4307,2.4316v3.2256h-1.0869ZM290.483,453.7755c-.9004.0469-1.2627.4326-1.2627.958,0,.5264.4092.959,1.1455.959.7246,0,1.2041-.4912,1.4141-.8066v-1.1924l-1.2969.082Z"/>
      <path d="M296.4771,456.4875c-1.3906,0-1.4609-1.1455-1.4609-2.2324v-2.5371h-.8174v-.8994h.8174v-1.6602h1.1221v1.6602h1.333v.8994h-1.333v2.5137c0,.4668.0117.7832.1406,1.0166.1055.1758.2568.2803.5723.2803.3281,0,.5732-.1279.5732-.1279l.0703.8994c-.292.1289-.6318.1875-1.0176.1875Z"/>
      <path d="M301.9244,451.8351h-.0469c-.1055-.0469-.3037-.1172-.6074-.1172-1.0059,0-1.251,1.0645-1.251,1.8701v2.7705h-1.1221v-5.5518h1.1221l-.0117.8535h.0352c.2686-.6318.7715-.959,1.3672-.959.374,0,.585.0938.585.0938l-.0703,1.04Z"/>
      <path d="M303.8873,449.673c-.4326,0-.7363-.292-.7363-.6895s.3037-.6895.7363-.6895c.4209,0,.7246.292.7246.6895s-.3037.6895-.7246.6895ZM303.3267,456.3585v-5.5518h1.1221v5.5518h-1.1221Z"/>
      <path d="M310.2096,456.3585v-3.0977c0-.9346-.1641-1.6357-1.1572-1.6357-1.04,0-1.4258.876-1.4258,1.9395v2.7939h-1.1221v-5.5518h1.1221l-.0117.877h.0352c.292-.5498.8887-.9824,1.6943-.9824,1.5781,0,1.9873,1.04,1.9873,2.373v3.2842h-1.1221Z"/>
      <path d="M316.5201,456.3585l-.0117-.7012c-.2217.2334-.748.8301-1.7646.8301-1.0283,0-1.917-.6436-1.917-1.7188,0-1.0869.8887-1.6357,2.1738-1.6943l1.4844-.0586v-.2217c0-.8418-.5723-1.2627-1.3789-1.2627s-1.4844.3623-1.6709.4795l-.3398-.748c.4092-.2344,1.1572-.5615,2.0811-.5615,1.625,0,2.4307.8184,2.4307,2.4316v3.2256h-1.0869ZM315.1998,453.7755c-.9004.0469-1.2627.4326-1.2627.958,0,.5264.4092.959,1.1455.959.7246,0,1.2041-.4912,1.4141-.8066v-1.1924l-1.2969.082Z"/>
      <path d="M322.4215,456.3585l-.1641-.7598,2.8516-2.7002c.6201-.5957,1.3096-1.332,1.3096-2.2324,0-.9111-.6309-1.5664-1.6602-1.5664-1.0166,0-1.6475.7598-1.9746,1.2979l-.5967-.666c.2227-.4912,1.04-1.5547,2.6416-1.5547,1.6133,0,2.7002.9463,2.7002,2.373,0,1.4258-1.2041,2.4307-1.7061,2.8984l-2.0693,1.9756h4.1143v.9346h-5.4463Z"/>
      <path d="M332.274,456.4875c-2.1738,0-3.0859-2.0576-3.0859-4.1494,0-2.1045.9238-4.1611,3.0859-4.1611,2.1738,0,3.0859,2.0566,3.0859,4.1611,0,2.0918-.9121,4.1494-3.0859,4.1494ZM332.274,449.1349c-1.2979,0-1.9404,1.333-1.9404,3.1797,0,1.835.6426,3.1787,1.9404,3.1787,1.2969,0,1.9404-1.3438,1.9404-3.1787,0-1.8467-.6436-3.1797-1.9404-3.1797Z"/>
      <path d="M339.5904,456.4875c-2.1738,0-3.0859-2.0576-3.0859-4.1494,0-2.1045.9238-4.1611,3.0859-4.1611,2.1738,0,3.0859,2.0566,3.0859,4.1611,0,2.0918-.9121,4.1494-3.0859,4.1494ZM339.5904,449.1349c-1.2979,0-1.9404,1.333-1.9404,3.1797,0,1.835.6426,3.1787,1.9404,3.1787,1.2969,0,1.9404-1.3438,1.9404-3.1787,0-1.8467-.6436-3.1797-1.9404-3.1797Z"/>
      <path d="M346.6598,456.4992c-1.5186,0-2.3604-.8418-2.6523-1.3564l.6309-.6543c.3506.5957,1.1104,1.0752,2.0107,1.0752.9111,0,1.8701-.5605,1.8701-1.7881s-.9473-1.7881-1.8701-1.7881c-.5264,0-1.1104.1514-1.4268.4326l-.5723-.3398.7012-3.7861h4.0557v.9111h-3.2373l-.4209,2.1387c.3154-.1396.7012-.21,1.1455-.21,1.3086,0,2.7471.877,2.7471,2.6416s-1.4619,2.7236-2.9814,2.7236Z"/>
    </g>
    <rect class="cls-10" x="272.8426" y="442.1575" width="130.6397" height="20.0284" rx="10.0142" ry="10.0142"/>
    <g>
      <path d="M282.1305,456.4992c-2.3027,0-4.1143-1.6602-4.1143-4.1729s1.8115-4.1494,4.1025-4.1494c2.0684,0,2.957,1.0869,3.2607,1.4023l-.7715.7129c-.4795-.5605-1.2275-1.1455-2.4893-1.1455-1.6602,0-2.9336,1.1924-2.9336,3.1797s1.3203,3.1787,3.0039,3.1787c1.6709,0,2.2676-.7363,2.2676-.7363v-1.7881h-2.1748v-.9238h3.2734v3.1328c-.1523.1523-1.1338,1.3096-3.4248,1.3096Z"/>
      <path d="M290.5797,451.8351h-.0469c-.1055-.0469-.3037-.1172-.6074-.1172-1.0059,0-1.251,1.0645-1.251,1.8701v2.7705h-1.1221v-5.5518h1.1221l-.0117.8535h.0352c.2686-.6318.7715-.959,1.3672-.959.374,0,.585.0938.585.0938l-.0703,1.04Z"/>
      <path d="M296.9127,453.8459h-4.2773c.0586,1.0986.7598,1.7646,1.7881,1.7646,1.04,0,1.707-.5615,1.835-.6426l.4678.6426c-.0703.0586-.7832.877-2.4434.877-1.6475,0-2.7812-1.1455-2.7812-2.9111,0-1.7529,1.2744-2.875,2.8164-2.875,1.543,0,2.6299,1.0986,2.6299,2.6533,0,.21-.0352.4912-.0352.4912ZM294.2828,451.508c-1.1104,0-1.6006.9238-1.6357,1.5898h3.2373c-.0117-.6201-.4785-1.5898-1.6016-1.5898Z"/>
      <path d="M301.8678,456.3585l-.0117-.7012c-.2217.2334-.748.8301-1.7646.8301-1.0283,0-1.917-.6436-1.917-1.7188,0-1.0869.8887-1.6357,2.1738-1.6943l1.4844-.0586v-.2217c0-.8418-.5723-1.2627-1.3789-1.2627s-1.4844.3623-1.6709.4795l-.3398-.748c.4092-.2344,1.1572-.5615,2.0811-.5615,1.625,0,2.4307.8184,2.4307,2.4316v3.2256h-1.0869ZM300.5475,453.7755c-.9004.0469-1.2627.4326-1.2627.958,0,.5264.4092.959,1.1455.959.7246,0,1.2041-.4912,1.4141-.8066v-1.1924l-1.2969.082Z"/>
      <path d="M306.5426,456.4875c-1.3906,0-1.4609-1.1455-1.4609-2.2324v-2.5371h-.8174v-.8994h.8174v-1.6602h1.1221v1.6602h1.333v.8994h-1.333v2.5137c0,.4668.0117.7832.1406,1.0166.1055.1758.2568.2803.5723.2803.3281,0,.5732-.1279.5732-.1279l.0703.8994c-.293.1289-.6318.1875-1.0176.1875Z"/>
      <path d="M315.5299,456.4992c-2.3496,0-4.1143-1.6484-4.1143-4.1611s1.8115-4.1611,4.126-4.1611c1.5078,0,2.4189.6309,2.8633,1.0635l-.4795.9121c-.3154-.3975-1.2148-.9824-2.3369-.9824-1.7422,0-3.0039,1.251-3.0039,3.1445s1.2734,3.1436,3.0039,3.1436c1.0635,0,1.8818-.4092,2.4072-.9814l.4912.8301c-.5029.5605-1.4258,1.1924-2.957,1.1924Z"/>
      <path d="M322.0504,457.3283c-.3857.959-.8418,1.2861-1.4609,1.2861s-1.0518-.1982-1.0518-.1982l.2217-.9121s.3037.1289.585.1289c.4551,0,.5723-.2461.7246-.6553l.2686-.7363-2.2559-5.4463,1.1689.0117,1.6826,4.3125,1.6367-4.3242,1.1572.0117-2.6768,6.5215Z"/>
      <path d="M328.3375,456.4875c-1.4961,0-2.8047-1.1221-2.8047-2.8994,0-1.7881,1.3672-2.8867,2.8398-2.8867,1.4844,0,2.0928.7246,2.1514.7949l-.3975.8184c-.1875-.1875-.6787-.6777-1.6602-.6777s-1.7998.748-1.7998,1.916c0,1.1689.7246,1.9756,1.7998,1.9756,1.0869,0,1.6953-.7012,1.6953-.7012l.3965.8184c-.1631.1631-.7363.8418-2.2207.8418Z"/>
      <path d="M331.984,456.3585v-8.0645h1.1104v8.0645h-1.1104Z"/>
      <path d="M337.734,456.4875c-1.6602,0-2.9453-1.1572-2.9453-2.8877,0-1.7178,1.2852-2.8984,2.9453-2.8984,1.6484,0,2.9336,1.1807,2.9336,2.8984,0,1.7305-1.2852,2.8877-2.9336,2.8877ZM337.734,451.6134c-1.1221,0-1.8115.8643-1.8115,1.9512,0,1.0996.6895,1.9639,1.8115,1.9639,1.1104,0,1.7998-.8643,1.7998-1.9639,0-1.0869-.6895-1.9512-1.7998-1.9512Z"/>
      <path d="M346.0074,456.3585v-3.0977c0-.9346-.1641-1.6357-1.1572-1.6357-1.04,0-1.4258.876-1.4258,1.9395v2.7939h-1.1221v-5.5518h1.1221l-.0117.877h.0352c.292-.5498.8877-.9824,1.6943-.9824,1.5781,0,1.9873,1.04,1.9873,2.373v3.2842h-1.1221Z"/>
      <path d="M354.1295,453.8459h-4.2773c.0586,1.0986.7598,1.7646,1.7881,1.7646,1.04,0,1.707-.5615,1.835-.6426l.4678.6426c-.0703.0586-.7832.877-2.4434.877-1.6475,0-2.7812-1.1455-2.7812-2.9111,0-1.7529,1.2744-2.875,2.8164-2.875,1.543,0,2.6299,1.0986,2.6299,2.6533,0,.21-.0352.4912-.0352.4912ZM351.4996,451.508c-1.1104,0-1.6006.9238-1.6357,1.5898h3.2373c-.0117-.6201-.4785-1.5898-1.6016-1.5898Z"/>
      <path d="M361.1051,456.4875c-1.6602,0-2.9453-1.1572-2.9453-2.8877,0-1.7178,1.2852-2.8984,2.9453-2.8984,1.6484,0,2.9336,1.1807,2.9336,2.8984,0,1.7305-1.2852,2.8877-2.9336,2.8877ZM361.1051,451.6134c-1.1221,0-1.8115.8643-1.8115,1.9512,0,1.0996.6895,1.9639,1.8115,1.9639,1.1104,0,1.7998-.8643,1.7998-1.9639,0-1.0869-.6895-1.9512-1.7998-1.9512Z"/>
      <path d="M368.4791,449.1232s-.3154-.1045-.6309-.1045c-.7363,0-.8535.5488-.8535,1.1797v.6201h1.3213v.8994h-1.3213v4.6406h-1.1104v-4.6406h-.7949v-.8994h.7949v-.5615c0-.7246.1406-1.1924.374-1.4844.2461-.3037.6904-.6074,1.333-.6074s.958.1289.958.1289l-.0703.8291Z"/>
      <path d="M373.6676,456.3585v-7.2354h-1.5781v-.8291h2.6768v8.0645h-1.0986Z"/>
      <path d="M379.943,456.4992c-1.4023,0-2.127-.6553-2.3379-.8301l.4795-.748c.3271.3037,1.0049.666,1.835.666,1.7529,0,2.1621-1.9404,2.1621-3.3428-.2686.5498-.9111,1.1924-2.1855,1.1924-1.2627,0-2.4775-.9355-2.4775-2.4785,0-1.5537,1.0518-2.7812,2.7461-2.7812,1.4609,0,2.1514.9111,2.4434,1.3906.2686.4326.5605,1.2627.5605,2.6299,0,2.0459-.8525,4.3018-3.2256,4.3018ZM380.1881,449.0539c-1.1104,0-1.6709.8525-1.6709,1.7646,0,.9111.5605,1.7646,1.6709,1.7646,1.1221,0,1.6953-.8535,1.6953-1.7646,0-.9121-.5732-1.7646-1.6953-1.7646Z"/>
      <path d="M386.3941,456.3585h-1.1924l3.8105-7.1533h-4.5352v-.9111h5.4932l.3047.6543-3.8809,7.4102Z"/>
      <path d="M394.2828,456.4875c-2.1738,0-3.0859-2.0576-3.0859-4.1494,0-2.1045.9238-4.1611,3.0859-4.1611,2.1738,0,3.0859,2.0566,3.0859,4.1611,0,2.0918-.9121,4.1494-3.0859,4.1494ZM394.2828,449.1349c-1.2979,0-1.9404,1.333-1.9404,3.1797,0,1.835.6426,3.1787,1.9404,3.1787,1.2969,0,1.9404-1.3438,1.9404-3.1787,0-1.8467-.6436-3.1797-1.9404-3.1797Z"/>
    </g>
    <rect class="cls-4" x="269.1837" y="439.1327" width="137.9576" height="26.078" rx="13.039" ry="13.039"/>
  </g>
  <line class="cls-2" x1="247.3827" y1="386.4836" x2="613.4931" y2="386.4836"/>
  <line class="cls-2" x1="247.3827" y1="277.1722" x2="613.4931" y2="277.1722"/>
  <line class="cls-2" x1="247.3827" y1="162.1401" x2="613.4931" y2="162.1401"/>
  <line class="cls-2" x1="247.3827" y1="47.935" x2="613.4931" y2="47.935"/>
  <line class="cls-2" x1="247.3827" y1="47.935" x2="613.4931" y2="47.935"/>
  <rect x="454.9315" y="130.4067" width="138.0354" height="289.3877"/>
  <rect x="267.4755" y="406.3852" width="138.0354" height="13.4092"/>
  <rect class="cls-8" x="454.9315" y="130.4067" width="138.0354" height="289.3877"/>
  <rect class="cls-11" x="267.4755" y="406.3852" width="138.0354" height="13.4092"/>
  <line class="cls-10" x1="247.3827" y1="420.0059" x2="613.4931" y2="420.0059"/>
  <rect class="cls-9" x="454.9315" y="130.4067" width="138.0354" height="289.3877"/>
  <path class="cls-6" d="M470.0816,98.0687h-75.0727c-.5497,0-.9955.4458-.9955.9959v24.5264c0,.55.4458.9958.9955.9958h67.5801l5.8199,5.8199v-5.8199h1.6727c.5497,0,.9959-.4458.9959-.9958v-24.5264c0-.55-.4462-.9959-.9959-.9959Z"/>
  <g>
    <path class="cls-12" d="M400.8658,113.6632l.5801-.748c.2988.4863.9355.833,1.4121.8418l.0186-1.9268-.3369-.1494c-.3271-.1406-.5889-.2715-.7852-.4307-.2344-.1865-.6641-.5889-.6641-1.3096,0-.9814.7852-1.665,1.7578-1.7676l.0195-.5703h.5986l-.0098.5801c.5801.0459,1.2725.3359,1.6367.7666l-.5049.7109c-.2998-.3555-.748-.543-1.1318-.5898l-.0098,1.7959.5898.2715c.7764.3555,1.2061.8232,1.2061,1.6836,0,.6172-.2988,1.123-.6729,1.4131-.3184.2617-.7676.4014-1.1318.4395l-.0098.5986h-.5986l.0098-.5898c-.748-.0186-1.5059-.3926-1.9736-1.0195ZM402.1568,109.838c0,.4395.3457.6455.6455.7852l.1025.0469.0088-1.6084c-.4482.0469-.7568.2715-.7568.7764ZM404.1861,112.9621c0-.458-.2246-.6826-.5801-.8516l-.1865-.0928-.0186,1.749c.3643-.0283.7852-.3369.7852-.8047Z"/>
    <path class="cls-12" d="M406.8482,109.1085v-.917h2.3945v6.4541h-1.1777v-5.5371h-1.2168Z"/>
    <path class="cls-12" d="M413.3277,113.8039c.4775,0,.8516-.1025,1.123-.4307.3086-.3643.4678-1.0098.4678-1.8613-.1875.3555-.6826.833-1.6836.833-1.0107,0-1.9922-.6641-1.9922-1.9834,0-1.2529.8789-2.2637,2.3096-2.2637,1.0947,0,1.665.5332,1.9648.9922.2715.4014.5518,1.1973.5518,2.2441,0,1.1504-.2529,2.0771-.748,2.6377-.4307.5059-1.123.7861-1.9551.7861-1.085,0-1.7217-.4307-1.9453-.6084l.458-.832c.3184.2334.8135.4863,1.4492.4863ZM413.5904,109.005c-.7764,0-1.1885.5898-1.1885,1.2354s.4121,1.2441,1.1885,1.2441,1.1973-.5244,1.1973-1.2441c0-.6455-.4209-1.2354-1.1973-1.2354Z"/>
    <path class="cls-12" d="M420.8551,112.5314c0-.8691-.6182-1.2529-1.3477-1.2529-.4297,0-.8604.1406-1.1592.3369l-.5518-.3281.6074-3.0957h3.4326l-.0088,1.001h-2.6572l-.3086,1.4404c.3086-.1309.6924-.2148,1.085-.2148,1.1787,0,2.1426.7764,2.1426,2.1328,0,1.4121-1.1885,2.1973-2.5254,2.1973-1.2256,0-2.0576-.8506-2.2168-1.0752l.6455-.7676c.3271.4121.8789.833,1.6182.833.5605,0,1.2441-.3271,1.2441-1.207Z"/>
    <path class="cls-12" d="M425.276,113.4669l-.9355,2.4883h-.9639l.7207-2.4883h1.1787Z"/>
    <path class="cls-12" d="M428.8844,108.0978c1.8057,0,2.6006,1.6367,2.6006,3.3301s-.7949,3.3301-2.6006,3.3301c-1.8145,0-2.6094-1.6367-2.6094-3.3301s.8047-3.3301,2.6094-3.3301ZM428.8844,109.1457c-.9355,0-1.375.9443-1.375,2.2637,0,1.3096.4395,2.2637,1.375,2.2637s1.3662-.9541,1.3662-2.2637c0-1.3193-.4307-2.2637-1.3662-2.2637Z"/>
    <path class="cls-12" d="M434.8863,111.8019c.5146-.4766.9824-1.0098.9824-1.6455,0-.6455-.4121-1.0576-1.1416-1.0576-.8135,0-1.2725.5146-1.5811.8604l-.5605-.7383c.2051-.2998.8691-1.123,2.2354-1.123,1.375,0,2.2637.7578,2.2637,1.8994,0,1.1035-.8701,1.917-1.2725,2.3008l-1.4404,1.3467h2.9834v1.001h-4.5449l-.1592-.7764,2.2354-2.0674Z"/>
    <path class="cls-12" d="M440.5787,113.8039c.4775,0,.8516-.1025,1.123-.4307.3086-.3643.4678-1.0098.4678-1.8613-.1875.3555-.6826.833-1.6836.833-1.0107,0-1.9922-.6641-1.9922-1.9834,0-1.2529.8789-2.2637,2.3096-2.2637,1.0947,0,1.665.5332,1.9648.9922.2715.4014.5518,1.1973.5518,2.2441,0,1.1504-.2529,2.0771-.748,2.6377-.4307.5059-1.123.7861-1.9551.7861-1.085,0-1.7217-.4307-1.9453-.6084l.458-.832c.3184.2334.8135.4863,1.4492.4863ZM440.8414,109.005c-.7764,0-1.1885.5898-1.1885,1.2354s.4121,1.2441,1.1885,1.2441,1.1973-.5244,1.1973-1.2441c0-.6455-.4209-1.2354-1.1973-1.2354Z"/>
    <path class="cls-12" d="M446.318,113.4669l-.9355,2.4883h-.9639l.7207-2.4883h1.1787Z"/>
    <path class="cls-12" d="M447.7183,112.84c0-.7764.4961-1.3555,1.2344-1.5713v-.0273c-.4668-.1777-1.0381-.6553-1.0381-1.4502,0-1.1035,1.0381-1.6934,2.1982-1.6934s2.1982.5898,2.1982,1.6934c0,.7949-.5703,1.2725-1.0381,1.4502v.0273c.7393.2158,1.2344.7949,1.2344,1.5713,0,1.2539-1.085,1.9082-2.3945,1.9082s-2.3945-.6543-2.3945-1.9082ZM451.2818,112.7472c0-.6738-.5049-1.0664-1.1689-1.0664s-1.1689.3926-1.1689,1.0664c0,.6729.5332,1.0469,1.1689,1.0469s1.1689-.374,1.1689-1.0469ZM451.1139,109.9406c0-.5518-.4209-.9072-1.001-.9072s-1.001.3555-1.001.9072c0,.5615.4209.8887,1.001.8887s1.001-.3271,1.001-.8887Z"/>
    <path class="cls-12" d="M453.7574,112.84c0-.7764.4961-1.3555,1.2344-1.5713v-.0273c-.4668-.1777-1.0381-.6553-1.0381-1.4502,0-1.1035,1.0381-1.6934,2.1982-1.6934s2.1982.5898,2.1982,1.6934c0,.7949-.5703,1.2725-1.0381,1.4502v.0273c.7393.2158,1.2344.7949,1.2344,1.5713,0,1.2539-1.085,1.9082-2.3945,1.9082s-2.3945-.6543-2.3945-1.9082ZM457.3209,112.7472c0-.6738-.5049-1.0664-1.1689-1.0664s-1.1689.3926-1.1689,1.0664c0,.6729.5332,1.0469,1.1689,1.0469s1.1689-.374,1.1689-1.0469ZM457.1529,109.9406c0-.5518-.4209-.9072-1.001-.9072s-1.001.3555-1.001.9072c0,.5615.4209.8887,1.001.8887s1.001-.3271,1.001-.8887Z"/>
    <path class="cls-12" d="M461.8072,113.8039c.4775,0,.8516-.1025,1.123-.4307.3086-.3643.4678-1.0098.4678-1.8613-.1875.3555-.6826.833-1.6836.833-1.0107,0-1.9922-.6641-1.9922-1.9834,0-1.2529.8789-2.2637,2.3096-2.2637,1.0947,0,1.665.5332,1.9648.9922.2715.4014.5518,1.1973.5518,2.2441,0,1.1504-.2529,2.0771-.748,2.6377-.4307.5059-1.123.7861-1.9551.7861-1.085,0-1.7217-.4307-1.9453-.6084l.458-.832c.3184.2334.8135.4863,1.4492.4863ZM462.0699,109.005c-.7764,0-1.1885.5898-1.1885,1.2354s.4121,1.2441,1.1885,1.2441,1.1973-.5244,1.1973-1.2441c0-.6455-.4209-1.2354-1.1973-1.2354Z"/>
  </g>
  <path class="cls-7" d="M282.5641,373.0959h-57.3222c-.5497,0-.9955.4458-.9955.9959v24.5264c0,.55.4458.9958.9955.9958h49.8296l5.8199,5.8199v-5.8199h1.6727c.5497,0,.9959-.4458.9959-.9958v-24.5264c0-.55-.4462-.9959-.9959-.9959Z"/>
  <path class="cls-5" d="M282.5641,373.0959h-57.3222c-.5497,0-.9955.4458-.9955.9959v24.5264c0,.55.4458.9958.9955.9958h49.8296l5.8199,5.8199v-5.8199h1.6727c.5497,0,.9959-.4458.9959-.9958v-24.5264c0-.55-.4462-.9959-.9959-.9959Z"/>
  <g>
    <path class="cls-12" d="M232.7193,388.6906l.5801-.748c.2988.4863.9355.833,1.4121.8418l.0186-1.9268-.3369-.1494c-.3271-.1406-.5889-.2715-.7852-.4307-.2344-.1865-.6641-.5889-.6641-1.3096,0-.9814.7852-1.665,1.7578-1.7676l.0195-.5703h.5986l-.0098.5801c.5801.0459,1.2725.3359,1.6367.7666l-.5049.7109c-.2998-.3555-.748-.543-1.1318-.5898l-.0098,1.7959.5898.2715c.7764.3555,1.2061.8232,1.2061,1.6836,0,.6172-.2988,1.123-.6729,1.4131-.3184.2617-.7676.4014-1.1318.4395l-.0098.5986h-.5986l.0098-.5898c-.748-.0186-1.5059-.3926-1.9736-1.0195ZM234.0103,384.8654c0,.4395.3457.6455.6455.7852l.1025.0469.0088-1.6084c-.4482.0469-.7568.2715-.7568.7764ZM236.0396,387.9894c0-.458-.2246-.6826-.5801-.8516l-.1865-.0928-.0186,1.749c.3643-.0283.7852-.3369.7852-.8047Z"/>
    <path class="cls-12" d="M241.359,384.0792c-.4863,0-.8232.1592-1.1045.4775-.2803.3271-.5234.9258-.5234,1.7773.374-.4863.8701-.8145,1.7207-.8145,1.0107,0,1.9551.6553,1.9551,2.002,0,1.2539-.8789,2.2637-2.3105,2.2637-1.1406,0-1.7393-.6826-2.0107-1.0947-.2715-.4023-.5049-1.0381-.5049-2.123,0-1.1602.3643-2.0576.8516-2.6094.458-.5244,1.0381-.833,1.8887-.833.9072,0,1.4971.3184,1.8525.5713l-.459.8691c-.3457-.2803-.8135-.4863-1.3555-.4863ZM241.0504,386.4084c-.7207,0-1.1885.5615-1.1885,1.207,0,.6543.4678,1.2256,1.2539,1.2256.7666,0,1.1318-.5713,1.1318-1.2256,0-.6455-.4307-1.207-1.1973-1.207Z"/>
    <path class="cls-12" d="M244.4801,384.2296v-1.0107h4.499l.3271.7109-2.9932,5.7432h-1.2158l2.8994-5.4434h-3.5166Z"/>
    <path class="cls-12" d="M250.3033,387.8673c0-.7764.4961-1.3555,1.2344-1.5713v-.0273c-.4668-.1777-1.0381-.6553-1.0381-1.4502,0-1.1035,1.0381-1.6934,2.1982-1.6934s2.1982.5898,2.1982,1.6934c0,.7949-.5703,1.2725-1.0381,1.4502v.0273c.7393.2158,1.2344.7949,1.2344,1.5713,0,1.2539-1.085,1.9082-2.3945,1.9082s-2.3945-.6543-2.3945-1.9082ZM253.8668,387.7746c0-.6738-.5049-1.0664-1.1689-1.0664s-1.1689.3926-1.1689,1.0664c0,.6729.5332,1.0469,1.1689,1.0469s1.1689-.374,1.1689-1.0469ZM253.6988,384.9679c0-.5518-.4209-.9072-1.001-.9072s-1.001.3555-1.001.9072c0,.5615.4209.8887,1.001.8887s1.001-.3271,1.001-.8887Z"/>
    <path class="cls-12" d="M258.2418,388.4943l-.9355,2.4883h-.9639l.7207-2.4883h1.1787Z"/>
    <path class="cls-12" d="M261.8502,383.1251c1.8057,0,2.6006,1.6367,2.6006,3.3301s-.7949,3.3301-2.6006,3.3301c-1.8145,0-2.6094-1.6367-2.6094-3.3301s.8047-3.3301,2.6094-3.3301ZM261.8502,384.173c-.9355,0-1.375.9443-1.375,2.2637,0,1.3096.4395,2.2637,1.375,2.2637s1.3662-.9541,1.3662-2.2637c0-1.3193-.4307-2.2637-1.3662-2.2637Z"/>
    <path class="cls-12" d="M265.2428,384.2296v-1.0107h4.499l.3271.7109-2.9932,5.7432h-1.2158l2.8994-5.4434h-3.5166Z"/>
    <path class="cls-12" d="M270.2808,388.2882v-.9072l3.1152-4.1904h1.2529v4.1162h.8984v.9814h-.8984v1.3848h-1.1689v-1.3848h-3.1992ZM273.5084,384.5285l-2.0771,2.7969h2.0771v-2.7969Z"/>
  </g>
</svg>