<?xml version="1.0" encoding="UTF-8"?>
<svg id="Layer_1" data-name="Layer 1" xmlns="http://www.w3.org/2000/svg" viewBox="0 0 480 496">
  <defs>
    <style>
      .cls-1 {
        fill: #fff;
      }

      .cls-2 {
        fill: #ee2b2f;
      }
    </style>
  </defs>
  <path class="cls-2" d="M325.4369,229.6957c.0703-.71,1.5-1.5,1.1201-4.47-.6899-5.39-2.04-12.43-4.2798-17.48-5.2002-11.71-14.1602-22.4901-23.9702-29.39-1.4399-1-1.7798-2.65-3.96-1.75.6499-.64-.3501-1.56-.9399-1.94-3.4902-2.21-14.2798-6.42-18.0903-7.09-2.0298-.35-3.1895.04-4.8198-.89-.4302-.25-1.1499.42-1.75.36-7-.74-14.5498-1.33-21.52.21-.77.17-1.6201.6-2.25,1.15l-.1997-.9-1.6304,1.35-.1997-.91c-1.1699,1.75-3.02,1.1-4.6201,1.67-2.8701,1.02-6.6099,2.44-8.77,4.15-.0801.06-1.1602-.24-2.0498.15-.25.11-1.5703,1.54-1.9004,1.73-2.8496,1.56-7.3896,3.15-9.5098,5.77-.3701.45.0098,1.02-.04,1.06-.3599.32-1.9102.18-2.3198.64-1.7603,1.99-3.9204,4.42-5.6304,6.68-6.2197,8.27-9.9199,15.53-11.0195,26.85l-.2305,10.1c-.9097-.41-1.0796-2.5-1.1699-3.47-1.2598-13.37,1.8901-20.7,8.4404-31.07.7798-1.25,2.5698-2.4,2.1597-4.21,1.2603,1.11,1.3799-1.48,1.8101-1.85.3901-.34.9302.01.9902-.05.2598-.29.1899-1.13.4297-1.46.3604-.5,2.1104-.21,1.6802-2.56-.6099-.1-1.0601.23-1.5.62-3.2803,2.89-5.4399,6.34-7.7803,9.5l.27.81c-1.8198-.23-2.6201,3.56-3.3999,5.08-2.6001,5.05-4.04,8.93-5.02,14.97-.9297,5.72-.2002,13.08,2.3398,18.18,1.4004-.87,1.6904,3.68,2.4004,5.21,6.73,14.6,25.1699,20.36,39.1099,20.39,1.0103,0,2.3999-.61,3.4897-.68.9302-1.18.0303-.45-.4297-.49-9.2998-.94-22.8398-4.32-29.3301-12.21-12.0303-14.64-10.1499-36.33,2.52-49.52,16.2998-16.95,44.5103-22.5,65.7397-13.83,23.0103,9.4,41.1401,35.53,36.3604,63.63-1.4702,8.58-5.3701,17.13-9.7202,24.37-7.6099,12.65-15.6299,20.24-27.6196,28-8.7402,5.64-19.2402,9.75-29.6001,12.61-8.8101,2.44-20.23,3.37-29.8701,3.28-1.9502-.02-4.2798-.7401-6.1201-.47-.5601.09-1.2998.34-.6099.92,3.3398.31,6.6797,1.17,10.0298,1.34,33.3003,1.74,77.46-14.77,91.2603-50.48.0498-.1201,2.2598-2.7,1.9199-1.2401-.8203,1.57-1.4199,3.28-2.1499,4.89-8.3599,18.4-29.3203,34.85-46.0801,40.89-3.4302,1.24-7.1602,2.42-10.6699,3.54-1.1704.38-3.79-.02-3.77,1.51l-.6001-.91c-.2397.31-.5103.68-.8901.77-7.54,1.72-15.4497,1.9-22.8896,2.88-.2002.02-.1201-.76-.3804-.83-3.8198-.98-13.7197-.25-18.4199-.53-1.2798-.07-2.7202-.68-4.1201-.66-.3896,0-1.5396-.04-1.4297.65,5.8599,1.48,11.8198,2.64,17.8198,3.19,4.7202.43,11.8301.95,16.3901.51.7998-.08.5601-.91.7798-.91,3.8003.28,7.6201-.27,11.4004-1.08,1.5-.32,5.2896-.93,5.6396-2.15,1.4702,1.85,2.5303-.46,2.6899-.46,2.8501-.05,6.7002-1.22,9.4902-2.61.5298-.27.4897-1.06.7598-1.08.5601-.04,1.2002.54,1.5601.5099.3301-.02.25-.98.9199-1.3.3901-.18,1.0103-.03,1.4404-.23,27.3296-13.02,49.0396-34.76,50.2397-69.85l-.7202-.4c.6001-16.2-5.2397-35.41-15.7598-46.8l-3.1099-4.06c2.0396-.31,2.1997,1.66,3.4097,3.03,4.98,5.62,8.5,11.36,11.5303,18.86,1.1602,2.88,2.7397,6.9901,2.6699,10.02l1.2197-.45,1.6104,17.03.8599.51c-1.6997.52-.5498,3.46-.6201,5.04l-1.0298,6.82c1.8501,0,.8999-.65,1.0498-1.65.9702-6.38.46-11.29.96-17.06ZM301.9169,186.1957c-2.3896-2.27-4.9199-4.37-7.71-6.01-9.2798-5.48-21.2598-9.7599-32.0098-10.39-5.1001-.3-9.9102.41-14.9502.2.48-.79,1.1201-.6201,1.8198-.7,11.4702-1.28,21.8604-1.23,32.9102,2.88,3.4902,1.3,10.0503,5.0099,13.46,7.34.5303.36,2.9302,2.8,3.1104,2.89.5698.28,1.3301.01,1.54.13.0298.03-.3403.62-.1802.91.1001.17,3.5698,2.76,2.0098,2.75Z"/>
  <path class="cls-2" d="M263.827,112.7157c-.77.39-1.5298.78-2.2798,1.19-4.0801.31-8.1802.48-12.2202.93-3.0498.34-6.5698,1.37-9.6401,1.13l-.4097.86c-4.1304.39-8.0503,1.64-12.0903,2.99-.8496.29-2.0698-.3-3.1099,1.17l-.5601-.04-.4399-.86c-.4897,2.78-3.2798.46-4.3101,2.73l-1.0098-.9c.1201,1.54-1.1104.84-1.4404,1.01-5.3496,2.88-11.2798,4.73-16.5396,7.92-15.77,9.56-37.1401,29.51-43.5,48.61-.1802.56-1.1704-.04-.3804,1.71l-.8096-.46-3.8301,9.65c-16.7202,61.83,23.21,104.54,76.96,105.65,2.73.06,1.5698-.18,2.5098-.43.5898-.16,2.2803.39,3,.46l-7.9697,1.38c-19.29,1-42.1802-6-56.77-20.28-2.98-2.92-9.3203-10.14-11.2202-13.96-2.1001-4.22-5.5601-9.19-7.6201-14.34-3.25-8.11-6.3496-22.45-5.73-31.44.1499-2.27,1.3003-3.98.4604-5.95l.7896-.45c.8203-32.63,21.8301-61.21,45.9702-77.38,12.6299-8.46,27.71-14.55,42.3799-17.9,3.9199-.9,8-1.68,11.8101-1.12.1802.03.1699-.73.4897-.86,1.8301-.75,7.7402-.88,10.1201-.96,1.6504-.06,3.9404.71,4.9404-.44.3599-.15.0996.62.2695.77.1904.16,1.9404.11,1.77-.77.1304.16.27.29.4102.38Z"/>
  <path class="cls-2" d="M224.7069,293.2957c-2.5298-.45-5.0298.16-7.5698,0-27.3398-1.78-54.1099-19.93-64.1899-49.24-10.3599-30.1-2.4102-59.55,15.6401-83.19l.8296-.21-1.2197,2.51.7998.22c1.4102-2.04,2.8101-4.43,4.3599-6.32,4.5801-5.59,11.9502-11.98,17.7705-15.41,1.4097-.84,2.8696-2.23,4.5-2.42l-5.8203,4.47c-1.52-.87-2.02,1.22-2.4502,1.78-.1597.21-3.2197,2.28-4.0195,3.08-24.2305,24.41-38.6802,58.41-25.9902,94.58,8.4502,24.11,30.1499,40.72,51.9902,46.73,4.7397,1.3,9.5195,1.72,14.1997,2.81.4502.1,1.2798-.11,1.1699.61Z"/>
  <path d="M311.4071,251.1557c-.1602.51-.6499.64-1.0801.67l.77.48-3.8799,10.41c-18.0303,32.83-51.9199,46.06-85.1802,47.23-12.21.44-29.0801-2.94-39.4497-10.67-.4004-.3-2.0103-.85-2.1104-.97-.2798-.3701-.3701-.83.4004-.75,1.8696.17,3.4097,1.8,5.3398,1.67l-.4199.91c2.8398-.96,5.23,2.42,7.98,1.82l-.2002.91c1.2202-.51,2.2603-.21,3.48.13,12.6699,3.53,27.9702,4.77,41.4102,3.11.7598-.1.52-.84.7798-.88.8701-.11,2.9102.38,4.0503.2,7.2695-1.13,17.4497-4.56,24.1099-8.06.3301-.1801.3198-.88.5801-.9.96-.08,1.8599-.01,2.8901-.55.7197-.38,2.5-2.07,3.3096-2.58,2.0903-1.29,4-2.48,5.9302-3.82,16.7798-11.74,28.75-27.91,31.2397-51.82.5103-4.93-.4297-7.94-1.1396-12.42-.4302-2.66-.8101-5.41-1.1201-8.1l2.2197,2.2599c.4102,2.21.75,4.52,1.1904,6.73.02.11.6099.13.6797.44,1.0703,5.11-.2197,19.4-1.7798,24.55Z"/>
  <path class="cls-2" d="M348.787,264.2857c-5.8101,24.79-26.1802,51.33-45.6997,64.49-10.7402,7.23-22.6904,13.15-34.9502,16.03.4297-1.66,2.1001-1.04,3.0498-1.5,8.2603-4.02,17.2202-8.64,25.29-13.58,6.1802-3.78,11.25-8.74,16.98-13.12,3.6001-2.75,6.1099-6.09,9.27-9.5.5703-.62,1.8398-.12,1.9199-2.2l1.2305.25c.5996-2.29,2.6797-4.59,4.1196-6.62,4.8003-6.79,7.8198-12.04,11.52-19.99.3901-.85,1.4502-1.07.75-2.33l.8203.22c-.0205-.64-.3403-1.17-.2305-1.84.2402-1.49,1.8203-5.21,2.3901-7.05,5-16.3,5.1099-40.64-1.4497-56.86-.2603-.64-.96-3.4-1.1504-4.21-.3696-1.5-.5098-3.47,1.27-2.97-.8599,1.46.4902,1.78.8999,2.86,7.1602,19.0699,8.5903,38.18,3.9702,57.92Z"/>
  <path class="cls-2" d="M383.0272,274.1557c-5.7202,28.69-18.0303,52.06-36.3403,72.49-4.5098,5.04-9.0801,9.86-14.2397,14.1099.0698-.5299-.3999-1.0199-.3301-1.5199.1099-.76,9.04-8.56,10.4199-10.03,5.9502-6.35,12.5-14.97,17.3501-22.42,10.3599-15.9,18.6699-35.83,22.0098-56.17.4004-2.45.1304-5.6801,1.3403-7.63l-.8203-.45c1.3003-1.04.3501-3.61.48-5.04.0303-.3.6304-.17.6904-.4301.2197-.81-1.0601-6.05.4697-6.38l-.8198-2.06,1.96.56c1.5801,2.03-1.46,21.4301-2.1699,24.97Z"/>
  <path class="cls-2" d="M141.4071,137.6957c-.5298.89-2.0298,2.18-2.7002,3.14-15.6001,22.28-29.1797,54.07-28.54,82.88.1001,4.11,1.2603,8.78,1.4204,12.9.0195.5099.0898,2.89-.54,2.89l-1.0503-.77c-.0298-.57.29-1.23.23-1.76-1.3398-12.18-2.6099-20.58-.4102-33.02,2.7402-15.41,7.8604-29.05,14.5605-42.96,2.9297-6.09,7.1499-13.6801,11.2598-19.46.75-1.05,5.1499-6.82,5.73-6.76l.8301.8c.1899.5-.5103,1.64-.79,2.12Z"/>
  <path class="cls-2" d="M137.0472,155.1757c-.29-.01-.6602.04-.8101.32-.9502,1.71-1.79,3.33-2.8101,5.0099-1.04,1.72-2.73,4.07-3.5703,6.02-1.3599,3.15-2.3496,6.45-3.46,9.62l-.8096-.45c-.2402.83-.0303,2.91-.3003,3.53-.5698,1.31-2.1099.63-.8999,3.06l-.7998.46.3696,1.15-1.2397.01c.4399,1.1-.1602,3.1-.52,4.32-2.48,8.33-3.8501,14-4.5903,22.59-.1997,2.31-.3799,7.98-.7798,9.58-.1899.76-.5801,1.06-1.0698,1.57,1.1201.44,1.25,1.42,1.2598,2.68l-.8501.29.7402.65c.3901,8.04,1.5,16.22,3.5601,23.96.8896,3.35,2.7197,9.48,4,12.53.1299.32,1.4399.24.5098,1.12-1.4199-.04-2.8701-3.58-3.54-5.15-2.2598-5.3-3.2197-12.38-4.71-18.39-.1299-.54.7002-1.2-.5498-1.06l-.0103-.91.8101-.45c-2.1099-.24-.3301-2.57-.4199-2.72-.02-.04-.6201.13-.79-.34-.6499-1.88-.02-4.86-.7998-6.78l.7998-.42c-1.5298-1.72.7803-2.4-.71-2.6l-.1602-.55c.52-3.82-.1396-9.67.5503-13.27.3501-1.84.4199-3.55.7598-5.8701,2.1201-14.54,10.3901-38.17,18.6304-49.62.0796-.11.0898-2.2,1.3398-1.63l.8701,1.7401Z"/>
  <path class="cls-2" d="M346.3671,243.8157c.4897,18.57-8.5898,39.29-19.0898,53.3-1.6104,2.15-3.7104,4.97-5.4702,6.92-3.48,3.85-7.5298,6.77-11.4697,10.04-.3604.29-.3901,1.04-.4404,1.09-.3398.26-1.1797-.39-1.1997-.67-.0801-.96,5.3501-5.19,6.3301-6.17,8.1099-8.06,12.96-15.63,18.27-24.69,1.6099-2.75,1.6499-1.48,2.4097-5.06.1099-.48.9399-.39,1.1704-1.08,1.8496-5.4901,4.1699-11.42,5.5796-17.4901,1.3301-5.71,2.0601-11.56,1.8403-17.5099l1.21-.27.25-1.8c.6699.7599.5801,2.38.6099,3.39Z"/>
  <path class="cls-2" d="M374.6273,200.3057l-7.3604-10.81c-.1201-2.1-1.9102-2.22-2.0898-4.2l-.7202.35c-3.1797-5.89-8.5098-10.27-11.5498-15.88l-.7202.34c-8.2998-9.42-18.79-17.13-29.1099-23.39-4.9102-2.98-10.1499-6.1-15.1299-8.35-3.1899-1.45-6.6401-2.46-9.9102-3.7-.4097-1.7,2.1201-.46,2.8701-.22,3.9199,1.22,8.3901,3.21,12.1299,4.95,11.3701,5.3,20.46,11.98,29.9902,19.77,7.0898,5.79,14,13.08,19.9897,20.74,1.3701,1.76,2.6899,4.14,4.2402,6.39,2.6899,3.89,5.8096,7.75,7.4199,12.41.2598.75.1299.86-.0498,1.6Z"/>
  <path class="cls-2" d="M365.4271,285.0757c-.6299,2.13-1.8799,6.53-2.6802,8.33-.8799,1.99-.8398,2.17-1.4399,4.04-.6602,2.03-2.1099,3.73-2.4399,5.88-.8003-.66-.6499-1.46-.5298-2.39.1899-1.52,1.5498-6.02,2.0698-7.74,5.3301-17.82,8.4897-29.22,6.8901-48.46-.29-3.6-1.2603-7.42-1.4805-10.45-.1099-1.42.5205-3.64.2202-5.26,1.75.56.6899,2.11.8999,2.63,5.5801,14.11,2.6401,39.43-1.5098,53.42Z"/>
  <path class="cls-2" d="M337.7469,246.5157c-1,2.63-.7798,7.99-1.3198,11.33-.6699,4.2-2.3501,9.06-3.5801,12.84-2.2803,7.02-10.3101,24.86-16.2402,27.35-.5298.22-.8696.3-1.3599.73-.29-.33,1.5-2.8,1.8198-3.2,5.5103-6.98,11.1001-16.08,13.5703-25.11.3301-1.22,1.54-2.19.9902-4.05l.8096.46c-.8496-1.91.6504-3.1801,1.02-4.78,1.6099-7.16,2.3599-17.58,2.4702-25.11.0098-.66-.8101-1.8-.1602-2.89l1.5898-.04.3901,12.47Z"/>
  <path class="cls-2" d="M270.9969,272.3357c-2.9897,2.72-7.1802,3.73-10.4697,6.36l-.79-.89-1.4302,1.8199-.0098-.91h-.8101c.3799,1.86-1.9399,2.26-3.2803,2.27l.4102-.9h-.8101c-.1602,2.57-2.1797.6-2.0601,2.27h-.8198l-.3999-.9c-.4902,1.93-4.0303,1.38-5.52,2.29l-.4199-.9301c-1.3301,2.16-3.4702,1.4-5.3403,1.77-1.8696.37-4.0498,1.79-6.1699.55l-.4199.9-5.48-.03.3999-1.36h-.8101c.3999,1.21-2.1396,1.48-2.6099,1.35-2.6299-.6801-6.2402-.79-9.3701-1.5-3.4097-.77-6.7798-2.03-10.1401-3.05-.0996-.8.9302-.43,1.4199-.45,4.5503-.22,7.2402,1.4,11.2202,2.02,3.8101.6,9.1499-.39,12.5503,1.16l.1997-.9c1.2798.28,2.6899-.9,3.4902.45l.8101-.93,1.4199.92c-.29-1.21,3.5898-1.53,4.2598-1.37.4302.1-.02,1.36,1.0801.92l-.4102-1.36c.4302-.01.8501.27,1.29.2,6.9702-1.22,13.8901-3.55,20.1299-6.68.8301-.42,2.5103-.08,3.3701-1.73,1.0703,2.56.79-.07.98-.22.6704-.43,1.4902-.4,2.1899-.72.5103-.23.2002-1.41,2.3501-.42Z"/>
  <path class="cls-2" d="M377.4369,271.5157c-.0596,1.45-1.8096,8.8-2.29,10.73-3.6699,14.74-10.5801,31.11-19.54,42.08-.46.56-.8198,2.06-1.6099,2.51-.71.41-2.3198,1.03-1.48-.48.5103-.92.9199-2.03,1.2603-2.61.7998-1.35,2.8696-3.1201,3.6597-4.35,9.3403-14.57,15.2803-32.3,18.1299-50.02l1.5205-2.06c-.7705,1.72.3896,3.11.3496,4.2Z"/>
  <path class="cls-2" d="M298.4471,222.8557l.6401,2.09-1.46.89-1.9502-8.05c-3.98-10.59-15.6104-21.65-25-26-4.3901-2.04-10.1602-4.15-14.8301-3.78v-1.37l6.5,1.31c.2002-.19-.2402-1.05.46-.85l.2002,1.35c1.4297-1.36,2.23.81,2.5298.89.6401.19,2.4502-.61,3.1299-.45.4502.1.4302,1.23.9204,1.35.4097.09,1.0596-.49,1.5698-.44.2598.03.1802.8.5498.92.9102.3,3.98,1.42,4.77,1.93.5703.36.5898,1.12.73,1.23.3203.26,1.02-.54,1.5-.33.1099.04.7202,1.21,1.52,1.75,2.1401,1.43,4.3203,2.87,6.2202,4.23.46.33,3.8101,4.51,4.0298,4.88.3398.58-.3701,1.22-.2197,1.37,1.8198-.96,3.4097,3.36,4.3496,4.98,1.0903,1.87,1.79,3.41,2.9502,5.15.1602.23.2803,5.1.48,5.83l.8003-.45.4297,1.14-.8198.43Z"/>
  <path d="M187.0272,318.1357c-.4204,1.33-2.3301-.54-2.9902-.77-13.3301-4.7-29.4097-14.4301-40.02-24.7401-.7197-.7-3.6499-3.49-3.9502-4.03-.3599-.64-.0298-1.65-.7598-2.13l-.4102.91c-.46-.91-2.0195-2.11-2.4297-2.7599-.2803-.44-.1104-1.12-.2603-1.45-.2598-.57-.9097-.21-.79-.58.5503-1.67,1.48.72,1.8003,1,1.0996.97,1.6299,1.5,2.7397,2.61.8999.89,2.5903.64,1.6001,2.54,1.0098-.31,2.9902,1.17,3.5801,1.98.23.3.04.98.1401,1.18.0396.07.6499-.34,1.3296.07,1.0303.62,2.3003,2.62,3.3101,3.43,10.4204,8.38,20.8501,13.96,32.52,20.1,1.52.8,3.2002.91,4.5903,2.64Z"/>
  <path d="M160.1971,282.3557c-.8501-.68-1.6499-.95-2.5503-1.68-2.25-1.84-10.3096-10.43-11.6196-12.78-.3003-.54.0498-1.39,0-1.43-.23-.21-1.1401-.06-1.6499-.71-.3403-.44.0996-1.14-.1602-1.62-2.0703-3.73-5.2803-7.34-7.1299-11.76-1.0601-2.55-4.3203-11.66-4.5303-14.03-.0698-.84-.0601-1.48.6099-2.02.6602-.31,4.3403,11.7,4.8203,12.87,3.1001,7.55,7.8696,15.86,13.2798,21.48,1.27,3.52,6.79,6.69,8.48,9.45.2402.38.9399,1.83.4502,2.23Z"/>
  <path d="M251.1273,246.3457l-.2002-.91-1.02.92-.6099-.92c-.02.57-.1802,1.05-.6904,1.29-.6699.32-5.6299,1.46-6.6396,1.62-6.0801.99-14.25-.73-19.5103-4.27-4.5-3.03-8.1997-9.05-8.1899-15.05,1.6499,1.5,1.8501,4.33,2.7202,6.09.46.93,1.8999,2.87,2.5796,3.75,6.6802,8.61,20.0303,8.61,29.2402,5.8,1.3999-.42,2.5498-2.18,4.1699-1.05v-1.37l.9902.48.2397-.93.8203.22c.3198,2.44-2.5801,3.1-3.8999,4.33Z"/>
  <path class="cls-2" d="M300.5472,234.2357c.79,12.76-8.0801,32.7-17.52,39.86-.5503.42-1.48.36-1.7202.58-.0698.06.4102,1.05-.27,1.3l-.3799-.88-1.46.42c-.6099-.52,5.21-5.63,5.5898-6.07,8.2002-9.68,12.2798-20.1,14.6602-33.06.1196-.62-.3301-1.38-.1401-2.04.1899-.65,1.3398-.68,1.1899-1.67.5-.17.75,1.12.7002,1.27-.04.1-.6499.04-.6499.29Z"/>
  <path d="M341.0472,214.8957c-2.52-.38-3.3804-4.04-4.4404-6.28-1.7197-3.66-3.5596-7.76-5.3799-11.65-.0801-.17-1.2998-1.3-2.1099-2.65-3.27-5.4-6.77-9.64-11.23-14.05-.9199-.92-2.9399-1.28-2.0303-2.75,1.9102-.28,5.1401,2.41,6.5801,3.85,3.5801,3.58,9.2202,12.89,11.8101,17.62,1.3701,2.49,2.5698,5.44,3.5103,7.58,1.1997,2.71,2.9399,5.25,3.29,8.33Z"/>
  <path class="cls-2" d="M302.1273,307.8857c-.4805,2.27-1.2402,1.81-2.5205,2.78-10.0596,7.57-21.3599,13.38-33.0996,17.06-4.1201,1.29-8.4199,2.47-12.71,2.49-.3203-1.8,1.9697-.05,2.8696-.91l-.4097-1.36c.5596-.07,1.1299.3,1.6899.21,11.2598-1.9,23.5-8.13,33.8101-13.36l10.3701-6.91Z"/>
  <path class="cls-2" d="M220.2069,106.4157c-.0898.98-1.21.61-1.5498,1.04-.21.26.1099,1.01-.3501,1.25-1.0801.53-4.3501.97-5.8901,1.57-1.9897.78-4.4199,2.19-6.0396,2.93-5.4302,2.46-9.3501,4.74-14.5103,7.84-.3301.19-.3501.76-.4199.79-.6499.31-1.2202-1.41-1.21.88-.3301.43-2.1201.27-2.6899.69-.2803.2-.4404,1.09-.9004,1.49-2.1699,1.86-4.46,4.07-6.9897,5.22-1.2002-1.4,6.4497-7.27,7.3999-7.95,7.1201-5.11,16.5498-10.2,24.5703-13.23,2.7197-1.03,5.75-2.2,8.5796-2.52Z"/>
  <path d="M275.0873,240.5157c-.1904.69-2.21,6.14-2.5601,6.66-.2803.42-2.52,1.41-.3501,1.95l.04.86c-1-.09-1.0801.91-1.2402,1.83l-.73-.39c-.6597,2.15-2.7397,3.63-4.3799,4.94-1.23.98-5.6299,4.27-6.77,4.77-.6802.31-1.3101.33-2.02.25l.52-1.7c4.77-3.43,10.48-7.1299,13.02-13.08.9199-2.17,1.4897-4.32,2.4302-6.78.0996-.25,1.5098-3.51,1.5596-3.74.1504-.73-.6699-4.66.1001-5.22l1.21-.02c.6001,3.56.0903,6.32-.8296,9.67Z"/>
  <path d="M374.2172,244.9757c-.8799-.06-.0898-1.62-.2202-2.32-.2197-1.12-1.9302-3.3-.1997-3.16v-.88l-.8403-.28c1.0303-2.21-.27-1.91-.3696-2.32-2.5303-11.12-3.4004-17.6-7.8301-28.49-.1602-.4-1.54-1.91-1.5601-2.04-.0801-.56.4097-2.01-.0303-2.89,1.0601-.2,1.2202.99,1.2402,1.82l.7397-.39c2.7202,6.74,5.6401,13,7.4102,20.25.3799,1.55.4302,3.01.6699,4.34.48,2.63,1.0303,5.25,1.4399,7.89l-.8501.72,1.2305.01c-.8203,2.79.2798,5.13-.8301,7.74Z"/>
  <path class="cls-2" d="M124.9969,201.6957c-1.5,6.94-2.5498,14.86-2.1802,22.06.2202,4.2401,1.2104,8.95,1.5503,13.2401l-1.0298.24c-.3003-.1-.8804-2.59-.9502-3.1-1.8501-13.86-.6499-29.36,3.52-42.81.1201-.37,1.0298-3.08,1.7202-2.41,1.1895,1.16-2.2803,9.52-2.7104,11.26-.1001.4.1899,1.02.0801,1.52Z"/>
  <path d="M234.9471,160.6557c-.21.67-1.5801,1.17-2.1699,1.45-5.0103,2.35-9.6001,3.99-14.3301,7.32-2.9399,2.08-7.1699,5.88-9.3999,8.08-.6201.61-2.8203,3.51-3.4302,3.63l-1.3799-1.11c2.4199-1.47,4.3501-4.39,6.4497-6.16,3.0601-2.58,8.25-6.25,11.7002-8.27,2.1797-1.28,8.0898-4.57,10.2002-5.1.9795-.25,1.4199-.25,2.3599.16Z"/>
  <path d="M140.327,231.7557c-.8799.93-1.6899-1.23-1.8999-1.74-2.0498-5.01-2.0703-18.41-1.3701-24.01.1001-.86.1201-2.39,1.2202-2.05,1.1001,1.71.1997,2.77.1899,4.42-.04,3.47-.0801,4.77-.5898,8.13-.0205.14,1.1499-.05.8496,2.3-.1201.99-1.0098.52-.8496.87,1.3896,1.5099.71,4.23,1.6396,6.16l-1.23-.45v.9l1.2002.74c.0698.87-.52,1.74-.3999,2.61.0195.13,1.9097,1.42,1.2397,2.12Z"/>
  <path class="cls-2" d="M239.0472,340.6957c-11.5103,1.99-23.2402-.13-34.8203-1.13-.0098-1.55,16.48.63,18.23.69,4.0503.15,8.23.03,12.2803-.02,1.1499-.02,3.4097-1.06,4.3101.46Z"/>
  <path d="M203.787,186.3557c-.0801.27-3.0298,3.57-3.4497,3.96-.3501.33-.9004-.0099-.96.05-.3804.42-3.8604,7.4-4.3804,8.56-1.2998,2.87-1.9199,5.74-2.98,8.53-.1797.47-.79,1.87-1.2998,1.97.4399-1.19-.0601-2.58.1699-3.64,1.0898-5.04,5.3999-12.69,8.4502-16.97.4497-.64,2.8696-3.5699,3.25-3.78.9097-.52,1.4399.47,1.1997,1.32Z"/>
  <path d="M262.287,186.0557c-1.54-.16-5.6299-.36-6.98.1299-.3599.13-.3301.57-.29.9l-.3999-.56-1.6401-.34,1.23,1.36c-2.5298.03-5.4697-.05-7.9497.5-2.1504.48-3.9199,2.26-5.98,1.32.1797-.76.8296-1.09,1.4199-1.38,3.0898-1.59,10.4897-3.06,13.9199-3.2,2.4399-.09,4.79.16,7.1899.48.1699.15.4102.9-.52.79Z"/>
  <path d="M165.537,197.1257c-1.73,5.8701-2.1401,12.59-3.0898,18.6801-2.1499-.16-.77-4.2401-.6401-5.86.1899-2.4.2402-5.03.7598-7.46.5503-2.58,1.79-5.92,2.6504-8.1.1899-.49.48-1.64,1.1201-1.36,1.3896.58-.5303,3.18-.8003,4.1Z"/>
  <path d="M217.4969,209.7857c-.4097,4.18-2.7397,9.59-2.2397,14,.1699,1.48,1.3496,2.1.4399,3.87-.8999.17-.9702-.42-1.2002-1.16-1.02-3.28-.6997-9.1801.1802-12.51.5498-2.08,1.7598-3.92,2.46-5.92.7998.59.4399.98.3599,1.72Z"/>
  <path d="M268.5472,161.1057c-2.54-.3-5.2305-.63-7.77-.75-1.8101-.08-4.6899.67-6.0601-.04-.6104-.3199-.7803-.37-.5103-1.25.3101-.97.8101-.38,1.1401-.34,3.5801.41,8.6602-.04,11.8799,1.35.5103.22,1.2002.26,1.3203,1.03Z"/>
  <path d="M155.8968,323.3857c-.4697,2.21-1.5996,1.51-2.8799,2.03-1.27.52-1.3799,1.05-3.1699,1.02-1.8599-.03-2.6899-.7599-.5498-1.52,2.1797-.78,4.3096-2.48,6.5996-1.53Z"/>
  <polygon points="171.8773 331.1357 171.1869 332.9657 164.9071 332.9557 164.9071 331.5857 171.8773 331.1357"/>
  <path d="M160.3968,330.3357c-1.5801.59-4.6099,1.43-5.7197-.35l2.2197-.89,5.1401-.24c.3003,1.03-1.02,1.25-1.6401,1.48Z"/>
  <path d="M184.9769,103.2057l-6.96,3.2c-.46-2,1.3101-1.58,1.96-1.99.1899-.11.23-.81.6699-1,.2603-.12,3.25-.9,3.4702-.92.54-.05.7603.15.8599.71Z"/>
  <path d="M354.1468,131.0257c-.4399.4-6.8896-3.46-7.2695-4.19-.8701-1.69.3599-1.28,1.3696-.63.9702.62,2.0801,1.78,2.98,2.41,1.02.72,2.6104.45,2.9199,2.41Z"/>
  <path d="M272.8773,236.9257c-.0801.46-.0605,1.33-.6401,1.22l.3198-8.43c-.0498-1.47-1.6797-4.09.8599-2.92.3604.66-.2896,8.74-.5396,10.13Z"/>
  <path d="M218.9769,245.8957c-.71.77-5.7798-4.89-6.1396-6.17-.0601-.23-.1104-.74.1997-.67.8799.6,1.3599,1.9,1.9902,2.58.8296.9,2.1196,1.83,3.0098,2.8.4102.45,1.1602.45.9399,1.46Z"/>
  <path d="M180.8871,336.1457l-5.73-.46c.0098-2.48,1.77-.28,2-.5l.2397-.87c.79,1.52,3.5801-.33,3.4902,1.83Z"/>
  <path d="M127.2269,313.8057c-.27-1.11.9902-1.29,1.6504-1.57.9297-.4,1.8096-.85,2.8496-.7.3604,2.35-2.98,2.36-4.5,2.27Z"/>
  <path class="cls-1" d="M350.1068,284.5557c-3.6299,9.49-10.0195,18.71-16.4199,26.3-12.9897,15.41-32.46,29.57-50.71,37.93-5.3496,2.45-12.1396,4.26-16.25,6.91-13.9297,3.0599-28.25,7.54-42.9297,7.9601-.5801.02-.9902.6099-1.54-.3901l2.7197-.98c3.1201.49,6.4102-.21,9.5103-.8199,4.5698-.9,10.3101-1.6901,15.46-2.9401,20.2798-4.9299,36.9399-12.7399,55.1699-24.7499.7202-.47,2.3701-.74,2.8799-1.24.4502-.44.2803-1.3.6602-1.64.1597-.13.8701.2,1.4702-.16,1.8398-1.11,5.46-4.49,7.3096-6.07,4.3799-3.73,9.3799-9.47,13.3501-12.54,2.0298-1.5699,5.3101-6.18,7.2603-8.52.3198-.39-.2402-1.6,1.3599-1.2l-.3101-.81c3.8101-4.36,7.02-10.46,9.48-15.88l2.3003-3.81c.2998,1.65-.5605,2.07-.7705,2.65Z"/>
  <path class="cls-1" d="M230.4471,242.2457c-2.29-1.11-6.5903-3.8101-7.5601-6.39-.1899-.51.2002-.83.1899-.9,1.4399.85,2.8701,3.26,4.4102,4.53.6196.52,3.8599,1.49,2.96,2.76Z"/>
  <path class="cls-1" d="M257.0668,195.2957l-1.0195,1.37-.21-.91-1.0103.91c-.3901.06-.0898-.61-.29-.8-.3599-.34-8.4199-.17-9.1499,1.2599l-.3999-.94c-.5103.01-.79.61-1.23.7-2.7202.55-9.1699,3.29-11.2202,5.06-4.8701,4.18-8.6201,9.12-10.7202,15.8-.1299.42-.7397.3199-.7695.6299-.75,6.94.6899,10.3701,2.0298,16.58-1.6499-.98-3.0103-5.39-3.1499-7.58-.1499-2.48.5801-6.23.6899-8.83l-1.4302,2.77.2002,1.79c-1.27-.59-.3701-5.2-.02-6.6,1.5498-6.32,4.6997-9.29,9.3101-12.93,8.3896-6.63,17.9102-9.81,28.3896-8.28Z"/>
  <path class="cls-1" d="M285.7372,234.2657c-.0801,1.67-.6899,7.62-1.25,8.99-.2803.66-1.9502,1.55-1.6099,3.09l-.75-.6c1.0596-2.28,1.8696-3.9901,2.2896-6.58,1.8501-11.36-1.1396-24.27-9.5098-31.6-.3799-.34-.9502.05-1-.03-1.6099-3.2-9.7603-7.57-13.5103-8.31-4.21-.83-9.2598-.63-13.5596-.74-.6602-.56-.0103-.83.5996-.91,7.8301-1.05,17.4102,1.31,24.23,5.64.7104.45,7.04,6.27,7.4102,6.79.46.66.3198,1.66.6201,2.05.5601.77.52-.21,1.52,1.7,3.4297,6.54,4.9199,12.77,4.52,20.51Z"/>
  <path class="cls-1" d="M221.847,363.0457c-.1899.92-1.2402.78-1.8701.8401-7.3896.6899-15.3799.26-22.71-.6201l15.3101.1501,9.27-.3701Z"/>
  <path class="cls-1" d="M343.0873,146.5157l-4.8101-1.97-.6104-.89c-5.1699-2.84-10.3398-6.05-15.5898-8.61-2.4102-1.18-5.21-2-7.6499-3.11l1.02-.9c.3999.23.46,1.04.6899,1.24.0898.08,1.5801-.02,2.3799.34,7.2002,3.31,15.9102,7.63,22.3999,11.99.6401.43,1.79,1.23,2.1704,1.91Z"/>
  <path class="cls-1" d="M362.347,129.6557l-6.0498-2.6c-.7202-.9301-2.2002-1.88-3.3701-1.5l.3999-1.8c-1.9199-.88-3.79-1.74-5.75-2.53-5.9102-2.4-13.0698-4.78-19.4399-7.09-.9102-.33-4.6802-.9-5.1201-1.35,0-.7-.2397-1.04.5498-.84,4.6504,1.18,9.1802,3.02,13.8003,4.27.8398.22,1.5601-.46,2.4399.68l.4102-.91.1997,1.36c1.3501-1.33,2.2803.41,3.0801.63,1.8301.5,4.7002,1.04,6.4199,2,3,1.67,8.6201,6.02,11.3301,8.39.3999.35.9902.69,1.1001,1.29Z"/>
  <path class="cls-1" d="M115.7572,301.0457c-2.3301-.21-4.1699,1.6-5.73-1.14l2.0498-.68-.1899-1.39c-1.0601-.89-2.3701-.53-3.3101.37l-2.23-2.4c.8999-1.1201,2.6499.35,1.6299-2.05l.8101.01c1.5801,2.51,4.29,4.2,6.4502,6.24.2998.28.77-.02.52,1.04Z"/>
  <path class="cls-1" d="M107.9672,293.2957c-.8398-.24-2.0303.97-2.6001.85-1.6299-.36-3.77-5.33-5.1699-6.55,1.0498-1.14,1.8101.2,2.7197.85l5.0503,4.85Z"/>
  <path class="cls-1" d="M120.2572,303.3357l-.2002.9c-1.75-.26-2.9902.33-4.1001,1.8-.25-.53-3.3599-2.51-2.6597-3.16,1.5298.91,3.2397-1.36,3.8096-1.3.9102.08,2.1001,1.66,3.1504,1.76Z"/>
  <path class="cls-1" d="M281.9813,172.1777c3.4857,1.2957,10.0468,5.0093,13.4513,7.3341.5329.3639,2.9318,2.8077,3.1181,2.8975.5662.2729,1.329.0072,1.5327.1308.0367.0223-.3398.6134-.1732.9096.0921.1637,3.5666,2.7573,2.0077,2.7442-2.3929-2.2664-4.9193-4.3672-7.7089-6.012-9.2806-5.4723-21.2648-9.7537-32.0075-10.3876-5.1085-.3014-9.9125.4127-14.9567.2063.4819-.7919,1.118-.6248,1.825-.704,11.4677-1.2855,21.8534-1.2292,32.9115,2.8811Z"/>
  <path d="M385.4471,182.1257c-2.6304-4.47-8.9702-14.25-12.1201-17.71-.0601-.07-1.0801.15-1.6699-.54-10.71-12.52-20.0298-20.93-33.8101-29.5099-3.1602-1.97-6.7803-3.16-9.71-5.62l-.6001.91c.04-.52-.1001-.81-.5098-1.05-2.5703-1.53-7.9702-3.65-10.8804-4.75-5.8999-2.21-13.1299-3.9-18.5996-4.98-8.4902-1.67-15.8101-2.52-24.29-2.67-3.25-.06-6.5601-.22-9.8301.08,6.4897-3.45,13.5498-5.78,20.7598-6.82,7.2803-1.04,14.6504-.81,21.9004.7h.0098c7.2402,1.93,14.3901,4.3,21.3999,6.92,1.1201.42,2.4702.68,3.8301,1.27,2.1802.95,4.6201,2.23,6.6499,3.55l.6001-.91c.1201,2.17,1.5601,1.31,2.0801,1.64.2598.16.29.45,1.1802.96.6099.35,3.0796,2.77,2.8999.59l-1.6401-.91c4.3501,1.06,8.5498,3.9,12.4199,6.46.9902.65,1.9399,1.18,2.8604,1.79.8296.56,1.6997,1.59,2.5396,2.23l.6001-.9c-.2197,1.1.8501.74,1.1201,1.03.3301.36-.1299,1.3,1.3501,1.86,5.6899,2.1299,14.1099,10.84,18.8501,15.52,3.3198,3.26,7.9199,8.36,11.4897,10.96,2.02,1.47,2.8003-1.07,1.7603-3.35-1.0503-2.33-4.9404-8.21-6.5303-10.5099-2.4297-3.53-5.4199-6.83-8.04-9.63-9.8301-10.52-19.6099-19.05-31.5298-26.45-16.73-10.37-36.1304-18.29-55.25-22.49-15.2803-3.35-32.0303-3.93-47.5703-2.27-5.9897.64-12.9697,1.99-18.5698,4.3l-.3901-.92c-.6401.55-1.3999,1.02-2.1797,1.24-7.6401,2.19-13.3804,3.61-20.5503,6.76-1.3896.6-2.6396,1.75-4.1099,2.03,2.9302-3.24,7.27-4.62,10.9302-6.75,5.1299-3,9.1597-5.67,14.2695-7.8799,16.2305-7.02,35.0703-12.1,52.8301-13.85,11.8101-1.17,23.0103-.28,34.8901.13.73.03,1.1602-1.31,2.3901-.01.8896-.44.98-1.58.9502-2.53-.7002-.17-1.3403-1.25-1.8604-1.39-42.1602-11.39-86.3599-7.57-125.8501,11.63-24.5698,11.93-45.8296,27.5-63.1099,49.92-25.1001,32.57-38.1499,73.66-28.0601,116.15,4.04,16.98,11.3301,30.99,21.27,44.5l9.25,10.65c-3.1099-1.55-6.5-3.63-9.3101-5.79-19.3599-14.9-32.9297-37.08-39.2397-62.57-.8203-3.31-1.1699-6.79-2.2402-10.04-.3198.77-1.5801,1.27-1.6299,1.37-.1401.27.6001.66.6499,1.11.0698.66-.5098,1.6-.5098,2.37-.1304,23.76,5.4297,44.89,18.1099,63.95,4.5098,6.77,12.3301,14.83,17.5698,19.64,11.5801,10.61,21.79,18.51,35.4902,25.24,29.6001,14.56,58.9497,19.67,91.02,13.32.6899-.14,1.3896-.28,2.0801-.43.5596-.12,1.1299-.2401,1.6899-.37.52-.1201,1.04-.2401,1.5601-.3701.5898-.14,1.1797-.28,1.77-.43.5898-.15,1.1797-.3,1.77-.46,1.7598-.47,3.5195-.97,5.2598-1.5-.0098.01-.0298.01-.04.02-13.6099,6.44-32.6699,13.6001-54.77,13.6001-.5,0-1.0098-.01-1.5098-.02-1.5503-.02-3.1099-.0901-4.6802-.1901-.8701-.08-1.7402-.15-2.6099-.23-2.6001-.24-5.2002-.48-7.79-.75-1.1401-.11-2.2798-.23-3.4199-.36-1.5-.17-3-.3501-4.5-.55-.4204-.05-.8301-.11-1.25-.1699-.5303-.0601-1.0503-.1401-1.5801-.22-.75-.1001-1.5103-.2201-2.2603-.3401-.7598-.11-1.5098-.24-2.2598-.37-.6699-.11-1.3301-.23-1.9902-.35-.25-.05-.4897-.09-.7397-.14-1.3403-.25-2.6699-.52-4-.82l-17.1099-4.47-.8203.91.54,1.69c4.29,2.33,8.8604,4.1401,13.3901,5.85,2.46.9399,5.7598,2.02,9.1099,3.0599,8.23,2.55,16.7803,4.9501,24.3604,6.24,2.6797.4601,5.4697.5699,7.7998.8,33.8799,3.26,70.1602-4.09,99.7397-20.66,10.3203-5.79,23.48-14.83,32.3901-23.51,1.3799-1.34,1.9702-3.27,3.54-4.0099l-3.0098,6c-30.8701,42.66-73.8203,71.85-118.6401,93.61-3.9102,1.8999-10.77,4.25-13.5903,6.49-.0796.0699-1.3096-.2001-2.1499.1199-1.7998.6901-3.6099,1.8901-5.5498,2.3l.3301.8101c-2.6099,1.5599-.9302,3.02,1.4897,2.83,1.3398-.1,3.6602-.74,5.29-.99,12.71-1.9501,25.4502-5.1,37.75-7.76l.4102-.87c39.8999-8.7,82.8599-29.63,115.3398-58.47,9.2803-8.24,18.1602-17.95,25.5103-28.16,30.9097-42.95,37.2798-107.85,9.4199-155.34ZM315.4471,131.0357c.3999.23.46,1.04.6899,1.24.0898.08,1.5801-.02,2.3799.34,7.2002,3.31,15.9102,7.63,22.3999,11.99.6401.43,1.79,1.23,2.1704,1.91l-4.8101-1.97-.6104-.89c-5.1699-2.84-10.3398-6.05-15.5898-8.61-2.4102-1.18-5.21-2-7.6499-3.11l1.02-.9ZM361.2469,128.3657c.3999.35.9902.69,1.1001,1.29l-6.0498-2.6c-.7202-.9301-2.2002-1.88-3.3701-1.5l.3999-1.8c-1.9199-.88-3.79-1.74-5.75-2.53-5.9102-2.4-13.0698-4.78-19.4399-7.09-.9102-.33-4.6802-.9-5.1201-1.35,0-.7-.2397-1.04.5498-.84,4.6504,1.18,9.1802,3.02,13.8003,4.27.8398.22,1.5601-.46,2.4399.68l.4102-.91.1997,1.36c1.3501-1.33,2.2803.41,3.0801.63,1.8301.5,4.7002,1.04,6.4199,2,3,1.67,8.6201,6.02,11.3301,8.39ZM100.1971,287.5957c1.0498-1.14,1.8101.2,2.7197.85l5.0503,4.85c-.8398-.24-2.0303.97-2.6001.85-1.6299-.36-3.77-5.33-5.1699-6.55ZM110.0272,299.9057l2.0498-.68-.1899-1.39c-1.0601-.89-2.3701-.53-3.3101.37l-2.23-2.4c.8999-1.1201,2.6499.35,1.6299-2.05l.8101.01c1.5801,2.51,4.29,4.2,6.4502,6.24.2998.28.77-.02.52,1.04-2.3301-.21-4.1699,1.6-5.73-1.14ZM115.9569,306.0357c-.25-.53-3.3599-2.51-2.6597-3.16,1.5298.91,3.2397-1.36,3.8096-1.3.9102.08,2.1001,1.66,3.1504,1.76l-.2002.9c-1.75-.26-2.9902.33-4.1001,1.8ZM219.9769,363.8858c-7.3896.6899-15.3799.26-22.71-.6201l15.3101.1501,9.27-.3701c-.1899.92-1.2402.78-1.8701.8401ZM282.9769,348.7857c-5.3496,2.45-12.1396,4.26-16.25,6.91-13.9297,3.0599-28.25,7.54-42.9297,7.9601-.5801.02-.9902.6099-1.54-.3901l2.7197-.98c3.1201.49,6.4102-.21,9.5103-.8199,4.5698-.9,10.3101-1.6901,15.46-2.9401,20.2798-4.9299,36.9399-12.7399,55.1699-24.7499.7202-.47,2.3701-.74,2.8799-1.24.4502-.44.2803-1.3.6602-1.64.1597-.13.8701.2,1.4702-.16,1.8398-1.11,5.46-4.49,7.3096-6.07,4.3799-3.73,9.3799-9.47,13.3501-12.54,2.0298-1.5699,5.3101-6.18,7.2603-8.52.3198-.39-.2402-1.6,1.3599-1.2l-.3101-.81c3.8101-4.36,7.02-10.46,9.48-15.88l2.3003-3.81c.2998,1.65-.5605,2.07-.7705,2.65-3.6299,9.49-10.0195,18.71-16.4199,26.3-12.9897,15.41-32.46,29.57-50.71,37.93ZM304.557,390.1257c-2.9902,1.73-6.1797,3.04-9.0801,4.97l-1.1299-.6c.73.1,1.2197-.0601,1.8599-.4401,5.5303-3.34,10.8403-7.1,16.3003-10.58,14.5098-9.28,26.8599-18.91,39.3301-31.66,2.46-2.5099,5.7397-6.84,7.96-8.83.6196-.57,1.7598-.75,2.0298-1.03.71-.75-.0898-2.67,1.75-2.16-.3198-3.09-2.23,2.16-2.46-.22,2.21-2.87,4.5801-6.51,6.3901-9.77.21-.38,1.0298-.98.3701-1.41-1.2305,1.6-2.5205,3.17-3.7402,4.75-18.2598,23.62-37.1201,39.55-61.5098,54.0101-3.3901,2.01-8.6304,5.6499-11.0503,6.8799-1.2798.6401-4.1699.5801-3.7798,2.73h-.8203l-.1997-.8999c-1.54,1.74-3.98,2.34-5.8901,3.48-1.21.72-2.8599,1.74-3.3901,2.86l-1.1699-.4301v1.3801l-1.6401-.4601.2002.92c-1.5801-.52-3.9502,1.08-5.6201,1.86-.5801.27-1.0298.5-1.7397.8199-6.6704,3.01-17.52,8.46-24.27,9.97-.8604.1901-1.71.1201-2.5703.1001.1602-.9301.8799-.73,1.4404-.9,8.1699-2.49,13.5098-5.5599,20.5996-9.5399,16.6299-9.3401,33.5303-19.6801,47.5103-32.4001.6196-.5599,1.3398-1.1099,2.0898-1.4299l-.3901-1.28c-1.1201-.23-1.8999.5901-2.6699,1.3201-3.5801,3.3799-7.9297,6.5599-12.3599,9.8799-1.1401.8501-1.7002,2.6602-3.7402,2.49-.1196,1.0701-3.8999,3.5801-5.21,4.4501-13.3999,8.85-27.6797,16.5599-42.3398,23.5499-2.4502,1.1702-4.8003,2.6401-7.3799,3.4202l.8101,1.3499-1.4302-.9099-1.8398.9199c-.1899-1.02.4399-1.03,1-1.3899,3.7998-2.3701,8.7998-4.1401,12.7896-6.28,15.5801-8.3601,31.6602-18.3401,45.3105-29.4301.6895-.5599,2.25-.74,2.8799-1.62.4497-.62.2197-1.3101.2798-1.3999.0298-.03.5298.4199.71.3099,1.3501-.84,9.77-7.63,10.7202-8.77.5098-.61.8301-1.17.8599-2.02l1.2202.4501-.4102-1.3601c1.25-.09,2.8799-1.3599,3.8198-2.27,5.0601-4.8699,10.4702-11.0799,15.4502-16.1699.52-.52,2.6802-3.91,2.2397-4.81-2.5498,2.42-4.8398,4.78-7.2798,7.32-3.0898,3.22-6.0898,6.96-9.3398,10.1799-2.04,2.02-5.9902,4.67-7.6001,6.8501-1.3604,1.85-.8799.71-2.5898,1.8799-2.6401,1.8-3.4102,4.8201-6.6802,5.6901-.3701.1-.3301.7101-.6099.88-.5503.37-3.6104,2.17-3.7305,2.37-.2295.42-.0098,1.2301-.0596,1.75-2.04-1.35-3.7402,2.03-5.0601,3.03-2.6802,2.01-5.8101,3.4501-8.6001,5.24-1.25.8099-2.5898,2.66-4.3599,2.4501,11.1899-8.77,22.1597-17.4501,32.1797-27.5601,16.6802-16.85,28.7104-34.98,39.8804-56.91,1.4697-2.89,5.0898-9.42,5.9399-11.99.3599-1.05.4399-1.73.9097-3.11,9.6904-28.96,9.3804-62.72-3.6196-89.97-5.6001-11.74-12.1201-19.03-20.2603-27.37-37.9102-38.82-100.2002-38.09-138.27-1.63l-9.7397,11.36c-.0903-1.27.9697-2.5,1.6499-3.4,25.8701-34.41,75.23-44.86,112.6201-30.09,19.1196,7.55,39.4697,23.6299,51.0498,41.8799.5801.92.77,3.06,2.21,3.01.1201-.83-.0698-1.37-.3799-2.09-2.8301-6.58-10.46-15.06-15.3403-20.07-9.3198-9.57-20.7798-18.14-31.8696-23.57-10.52-5.15-21.1001-7.67-32.6201-8.82-1.6899-.17-4.1699-.7-5.3999.3l-.1699-.87c-26.8604.78-54.6699,8.61-75.2803,29.17-14.1499,14.13-22.96,37.89-20.2998,58.52.9697,7.48,4.8398,18.4,8.98,25.01,3.0298,4.83,6.96,8.64,10.9897,12.39-.3999.54-1.98-.54-2.4497-.93-12.4399-10.52-19.9102-28.72-19.5103-46.3.2603-11.71,3.5903-21.29,7.9102-31.75.1899-.46.4697-.55.8799-.62l-.3496-1.31c1.6699.42,1.9097-2.32,2.71-3.59,1.29-2.05,3.4697-5.47,4.7998-7.17,1.1899-1.5099,3.9399-2.59,3.5601-5.1899l.6001.91c.3999-.24,2.3096-3.02,2.7998-3.5,5.9502-5.88,13.8999-11.18,21.6401-15.25,6.1299-3.21,11.29-5.35,17.8696-7.56,2.5903-.87,5.3501-1.28,7.8701-2.42,0-.85-1.73-.46-2.1997-.4-5.4604.66-16.4302,4.5-21.52,7.06-1.0103.51-2.4502,1.15-2.0903,2.47-1.3101-1.54-2.1001.09-3.5796.83-24.0503,12.15-42.8804,39.01-43.79,69.08-.0703,2.19-.3101,5.04.6797,6.91l-.8198.4301c1.8999,6.33,2.6899,13.37,5.4399,19.49,4.3701,9.76,10.6499,15.13,17.6201,21.04,3.8799,3.29,17.23,9.64,21.9697,10.92,26.1699,7.08,62.6104-2.67,76.6201-29.66.6401-1.23.5303-2.99,1.6499-4.01l-.8198-.67c1.4697.51,1.2402-1.39,1.6899-2.83,1.5601-5,1.7202-11.96.2202-17.44-3.2803-12.04-16.04-23.87-25.9805-27.11-7.1597-2.33-12.6895-2.77-19.9097-1.88-.29.04-.21.83-.54.93-3.98,1.12-5.6499.87-9.54,2.98-12.1499,6.56-20.0801,19.02-14.02,34.26.46,1.16,1.6299,2.02,1.7202,3.33-.3701.48-1.6001-1.24-1.7603-1.48-.5-.76-1.0098-1.67-1.1099-2.62l-.8101.68c2.75,5.44,7.5098,10.31,13.0698,11.88,2.23.63,7.1401,1.5699,8.8501-.26.5103,2.33,2.3901-1.13,2.8501.84,9.3198-.95,19.4102-5.52,17.8398-17.95-.0698-.61-.9199-2.72-1.2197-3.1-.3501-.42-.8599-.22-1.1001-.44-.4502-.41-.54-1.26-1.3398-1.48-1.3604-.36-1.4199,1.3-1.8203,1.93-.2197.34-.98.45-1.02.81-.0298.26.5801,1.31.6499,1.95,1.1401,9.75-10.4097,11.85-16.9097,10.51-.2002-.04-.1699-.69-.2603-.73-.4297-.19-.8599.4-1.1099.3-.0601-.02-.0698-.72-.3301-.84-1.5601-.78-3.5-1.24-4.8101-2.75-3.3198-3.83-3.73-8.85-2.1499-13.74,2.8403-8.82,14.0903-13.68,21.77-14.07,2.1401-.11,6.0303.26,7.5898.69,23.2002,6.38,28.9199,32.22,11.52,50.22-11.5098,11.9-33.5,17.82-48.02,15.41-12.9399-2.15-24.8799-8.32-33.7695-18.42-6.1802-7.02-10.9502-21.55-11.4302-31.2401-1.3999-28.19,15.4302-47.91,36.1499-59.89,1.4902-.86,4.2197-1.9301,5.8101-2.33l-.4102-1.36c.7202.0099,1.4399.1,2.1401-.13,4.1401-1.32,8.4502-3.82,12.5801-5.15,18.3896-5.89,39.5098-6.27,57.2998.2,1.1802.43,2.1602,1.11,3.3501.52l-.4102.9c.1802.3,5.3301,1.49,6.2402,1.88,2.96,1.27,7.48,3.81,10.5698,5.57,32.1802,18.3,46.9902,49.29,45.0601,89.44-.8599,18.07-9.5,37.63-19.6899,51.02-18,23.65-44.8999,41.1-70.7598,49.43-3.0903,1-6.0703,2.18-8.8901,3.12-.6602.22-2.3999-.56-2.27,1l-.8003.01-.1899-.9c-.8301.52-1.7798.9-2.6899,1.16-7.6401,2.1899-18.0098,3.1801-26.3799,3.8199l-.4199.92c-.23-.1-.48-.1901-.7202-.26-.25-.0699-.5-.12-.7598-.17h-.0103c-.5-.08-1.0098-.1299-1.5498-.1299-.1201,0-.25.0099-.3701.0099,20.3101-3.86,36.6499-12.43,46.6099-17.65,1.2803-.67,2.5503-1.37,3.8301-2.08.02-.01.0498-.02.0703-.03.0898-.05.1797-.1.2695-.15.5103-.24,1.04-.47,1.5503-.71,2.6201-1.25,5.3901-3.43,8.1997-3.88l-.4199-.9,3.29-2.05c.8398-.94.25-.82-.4497-.5-17.2402,7.85-31.54,13.7-50.4102,15.09-.4702.03-.9897.38-1.3901.67-.7598-2.46-.8198.48-2.04.0099l-.5996-.91c.1899,1.21-1.2803,1.04-1.4404-.01-.6299.96-.5298,1.69-1.8398,1.36l.2002-.91-1.6299.93-.4204-.93-.46.94-4.25-.03-.1997-1.36-.4199,1.38-4.7002-.01c-.4302-1.86,1.8599-.15,2.04-1.36l-2.23-.04-.23,1.4c-8.5303-.63-16.9102-3.17-25.29-5.36-.8604-.22-1.79-.01-2.6602-.22l-22.4199-7.19c-.2598-1.73.9902-.37,1.8301-.4399l-.2002-.92h1.23l.0103,1.37,1.6299-.91-.4102,1.36c6.3604.93,12.4102,3.25,18.7603,4.43,1.54.28,3.3696.79,4.77.11.4097,1.58.75.33,1.6201.51,2.5796.52,5.1196.73,7.5098,1.22.7998.16.5.02.52-.79-2.25-.6-4.5298-.95-6.8003-1.35-2.3096-.41-5.4097-.64-8.2598-1.23-4.48-.93-9.8501-1.93-14.1602-3.06-2.8599-.76-5.4897-3.2-8.8799-2.11l.4199.9c-.4497.1-.8301-.09-1.25-.2-6.6797-1.84-14.5801-7.15-20.71-10.69-.5601-.32-1.1699-.49-1.7998-.51l7.25-1.27c1.1396-.57,2.3896-1.18,2.1699-2.82-1.6802.08-3.1001,1.17-4.5801,1.55-1.3901.36-3.6797.37-4.9902.72-.4199.11-.1196,1.0699-.46.91-1.5996-1.49-3.54-2.46-5.2798-3.72-2.5-1.8101-5.1099-3.75-7.5298-5.83-.9805-.83-2.9805-.93-2.5503-2.75,2.1401,1.24,3.6201.05,4.9102-1.82-2.1699-1.06-4.1499.94-6.29,1.27l-3.1299-2.87,4.0898-.6801c.25-.28-.5298-2.2.6099-1.8199l17.8301,10.25c-2.5298-.35-4.2598,2.17-6.9697,2.06v1.36c2.7197,1.17,7.4697-2.9,9.4399-2.55.6597.12,2.4897.91,3.3501,1.22.5498.2,1.1899.46,1.8799.72,1.46.56,2.8301,1.64,4.4102,1.95l.5796-.88c-.1196,2.16.1201.97.96,1.07,5.77.66,15.5601,4.84,21.3804,6.78.2598.09.6797,1.55,2.6499.35l-.4102.9c3.2603,1.07,6.8003,2.31,10.2402,1.61-.7104-1.2-2.23-.13-3.0103-.37-.2197-.07-1.21-.71-1.79-.98-3.4199-1.6-6.7998-3.13-10.6396-5.25-12.4404-6.91-23.1304-13.04-33.9102-22.8-28.1104-25.43-40.21-63.58-33.75-103.64,3.9297-24.36,14.96-44.01,28.21-61.49,27.1499-35.82,71.9902-57.35,112.8799-64.13,1.1299-.2401.25.75-.02.9-.8301.45-2.8999.38-4,.56-1.1001.17-1.8398,1.07-3.1699.34l2.4502,1.82-7.7803,2.28v-1.82c.4702.16.77.42,1.3198.36.54-.06,4.7402-1.23,4.4102-1.72-2.04-1.22-2.71.16-4.1899.6-4.8101,1.4399-9.5601,2.75-14.02,4.9-1.1201.55-1.7002,1.95-3.4897,1.79.8501,1.51,4.1997.05,5.5396-.4399.9102-.33,3.25-2.6201,3.0605-.48-1.5103.41-3.1802,1.22-4.5801,1.97-1.3901.74-3.3301,2.15-4.3501,2.55-2.6602,1.02-6.96,1.02-8.9199,2.04-.77.41-.0903,1.56-1.8999.83l-7.5,2.59-.6104-.86c1.4702.11,2.52-.9,3.6602-1.66.27-.17.3701-.88.5098-.97.1299-.08,1.6802.64,1.98-1.0099-1.9097.46-4.3696,1.2-6.1396,2.05-1.1401.54-2.2002,1.65-3.3403,2.21-6.2798,3.13-13,5.7-18.3701,10.55-.6597,1.72,3.4102-1.03,3.8105-1.22,8.7197-4.08,20.3198-9.85,29.7295-11.6.6001-.11.9902-.57.8604.5-2.7603,1.53-5.4302,3.44-8.1899,4.94-5.5303,3.0099-10.8003,3.4-16.1104,5.81-6.7598,3.06-16.1597,8.49-22.1499,13.95-.4897.44-1.4697-.42-1.0601,1.7401l-1.23-.22c-.1797,1.25.21.88,1.04.92,1.8203.11,1.1201-.5099,1.9199-1.06,10.1001-6.95,19.0703-14.69,31.23-17.19l.2104.91-26.6201,16.88.21.91c3.04-1,6.04-2.93,8.5996-5.02.4604,1.99-2.5298,2.89-3.75,4.2599-2.4395,2.73-4.1895,4.69-6.9097,7.58-7.3501,7.77-15.96,19.13-19.4902,29.74-.1997.59-1.1099.04-.3696,2.18l-.8203-.46-.8101,3.2c.0801.11,1.1802-.67,1.3901-.96,1.4199-1.97,3-6.94,4.0601-8.52.6099-.91,2.8999-1.36,1.9199-3.74l1.2402.23c3.2798-4.4,6.6396-9.79,10.5498-13.42,3.5601-3.29,8.0298-5.89,11.3501-9.6,1.7998.37-.02,1-.3901,1.36-8.7798,8.48-16.1499,15.07-22.8501,26.11-1.77,2.93-7.9097,14.32-8.2598,17.19-.1001.87.2002,2.65,1.1001,1.26,1.2896-1.98,2.4199-5.57,3.6001-7.73,14-25.63,35.6099-42.96,60.5098-54.1,3.6099-1.62,8.8301-2.77,12.1899-4.34.4897-.23.4502-1.06.8799-1.19,12.1899-3.46,26.5-5.13,39.23-5.47,17.8901-.48,31.54,2.24,48.6299,7.44.8804.26,1.8901.69,2.7803,1.02.29.11,1.2598.2.6099.67l-10.27-2.7-.5698.87c.04-.3199.0698-.8-.2798-.91-1.6504-.51-5.2705-1.01-6.8701-.43-.3003-1.71-2.1802-.24-3.2402-.62-.5996-.21-.8799-1.01-1.3398-1.13-.7202-.18-2.0703.86-2.7803.82-.2397-.01-.25-.75-.5498-.88-2.1401-.95-5.7197-.09-8.1099-.1-.23,0-.1304-.74-.4399-.8199-.9902-.29-8.25-.72-9.6001-.71-1.52.02-2.6802,1.43-4.0698-.23-.0503.78-.1401,1.41.6699,1.72,1.2598.47,5.5801.07,7.2798.19,10.2603.73,21.29,1.67,31.1899,4.49l1.4102-.93-.2002.92c1.2603.03,3.5703.22,4.1699,1.35,4.1904.9,8.7002,1.82,12.1504,2.42.7397.13,1.79.9,2.5298,1.23l.6001-.9.21,1.37c2.4199-1.05,1.5698.19,2.2402.7.4199.31,1.04-.26,1.6196-.02,4.02,1.68,8.8203,5.1,12.8501,7.16.48.2401.9902.3701,1.5098.36l-.6099,1.36c-.5601-.7-1.2397-1.1-2.0298-1.38-6.98-2.47-13.9102-4.25-20.8604-5.96-3.5596-.87-7.0796-2.02-10.6997-2.69-1.4897.09.3599.97.6899,1.06,2.3501.63,4.9502.72,7.2998,1.69.0903.77-1.4795.52-1.8599.46-.9302-.14-6.8198-1.63-7.1001-1.89-.1597-.14,1.04-.92-1.4697-1.53-2.4502-.6-5.2803-.77-8.1201-.97-.9902-.06-1.98-.13-2.96-.22-1.5698-.14-3.0898-.33-4.5098-.66-2.3203,1.17-1.4404.09-2.3901-.29-1.5601-.63-3.25-.02-4.77-.84l-.8203,1.82c.6904.08,1.3804.16,2.0601.25-.7998.08-1.6099.18-2.4097.3-6.8901,1-13.6401,3.12-19.9302,6.22-.77.39-1.5298.78-2.2798,1.19-1.4805.8-2.9199,1.65-4.3301,2.56-4.6802,2.15-9.8101,2.3-14.71,3.39-.8799.2-15.4302,3.38-14.1104,5.24,3.3403.37,7.1602-1.42,10.6104-1.99,21.1396-3.51,49.3896.49,69.1201,8.27,1.25.5,4.6699,2.71,4.9497,2.77.4897.13,1.1499-.41,1.29-.32.1099.08.1899.9.6997,1.25,5.8105,3.95,13.0801,6.84,19.0801,11.04,5.3804,3.7599,14.3203,11.12,18.1104,15.92.9497,1.2,3.1099,2.9,4.3599,4.3,16.8901,18.87,27.98,40.5,32.5298,65.83.0703.39-.0596.79-.1797,1.16l1.23.26c.1699.75-.71.21-.8301.75-.3398,1.53-.0103,3.7,1.6499,3.82v.9h-1.23v3.87l.79-.2.8198,4.97-1.1997.26c1.1699,4.01-.5,8.99,1.2197,12.51l-.7896.3c-.1602,7.2-1.1704,14.41-2.4302,21.41-2.1802,12.16-7.1304,23.58-12.46,34.69-.1201.27-.8501.41-1.2002,1.16-.5601,1.19-.9399,3.09-1.1401,4.45l-1.6299-.46v1.37l.8101.22c-1.0698.85-1.48,2.42-2.27,3.41-.3398.43-1.0698.34-1.2998.59-.2803.3-3.02,6.12-3.79,7.4-.6699,1.1-2.3799,1.62-.2002,2.46,1.02-1.71,2.71-2.92,3.8799-4.41,7.2202-9.13,15.2002-24.42,17.6104-35.79.0801-.41.8301-.42,1.1396-1.09,2.4502-5.3,5.8501-22.08,6.77-28.48,3.4399-23.85-.5-52.79-11.25-73.92-.3999-.8-2.1699-4.06-2.5898-4.41-.6299-.54-1.04-.07-1.02.23l.8799,2.45,1.1602.06c-.96,1.59,1.0303,3.17,1.46,4.23,1.1001,2.78,1.4302,5.79,3.04,8.31l-1.1802.18-.9199-2.63-.7598.4c1.0498-2.45-.6899-2.92-1.1201-3.98-.4897-1.21-.7603-2.92-1.2603-4.09-2.6899-6.29-6.0195-12.32-9.0996-18.37-2.5.29.3398,2.89.9897,4.15.3999.78.4702,1.78,1.0601,2.46-1.2598.9-1-1.3-1.3501-1.92-.9697-1.74-3.3999-3.7-4.6499-5.31-6.79-8.76-13.1797-16.68-21.29-23.46-1.3398-1.12-3.0098-1.83-3.8301-3.5l3.9302,2.23c2.79,2.11,16.6899,14.3199,18.0698,16.81.29.5099.1401,1.49.5801,2.3199,1.2603,2.36,3.8901,4,4.8701,6.67l.6401-1.39-3.9204-5.22c.1904-2.01,1.6304.9399,2.0303,1.3799,2.7002,2.97,8.9902,10.28,10.46,13.92.2197.53-.2002,1.13-.1299,1.27.6499,1.23,3.4297,4.13,4.5898,6.5,19.9302,40.7401,15.73,88.86-5.0698,126.9-17.1499,31.35-45.4399,53.52-74.1802,70.16ZM274.9071,207.5657c-.3799-.34-.9502.05-1-.03-1.6099-3.2-9.7603-7.57-13.5103-8.31-4.21-.83-9.2598-.63-13.5596-.74-.6602-.56-.0103-.83.5996-.91,7.8301-1.05,17.4102,1.31,24.23,5.64.7104.45,7.04,6.27,7.4102,6.79.46.66.3198,1.66.6201,2.05.5601.77.52-.21,1.52,1.7,3.4297,6.54,4.9199,12.77,4.52,20.51-.0801,1.67-.6899,7.62-1.25,8.99-.2803.66-1.9502,1.55-1.6099,3.09l-.75-.6c1.0596-2.28,1.8696-3.9901,2.2896-6.58,1.8501-11.36-1.1396-24.27-9.5098-31.6ZM223.077,234.9557c1.4399.85,2.8701,3.26,4.4102,4.53.6196.52,3.8599,1.49,2.96,2.76-2.29-1.11-6.5903-3.8101-7.5601-6.39-.1899-.51.2002-.83.1899-.9-1.6499-.98-3.0103-5.39-3.1499-7.58-.1499-2.48.5801-6.23.6899-8.83l-1.4302,2.77.2002,1.79c-1.27-.59-.3701-5.2-.02-6.6,1.5498-6.32,4.6997-9.29,9.3101-12.93,8.3896-6.63,17.9102-9.81,28.3896-8.28l-1.0195,1.37-.21-.91-1.0103.91c-.3901.06-.0898-.61-.29-.8-.3599-.34-8.4199-.17-9.1499,1.2599l-.3999-.94c-.5103.01-.79.61-1.23.7-2.7202.55-9.1699,3.29-11.2202,5.06-4.8701,4.18-8.6201,9.12-10.7202,15.8-.1299.42-.7397.3199-.7695.6299-.75,6.94.6899,10.3701,2.0298,16.58Z"/>
  <path class="cls-1" d="M383.807,193.0657c-1.1602-2.37-3.9399-5.27-4.5898-6.5-.0703-.14.3496-.74.1299-1.27-1.4697-3.64-7.7598-10.95-10.46-13.92-.3999-.44-1.8398-3.39-2.0303-1.3799l3.9204,5.22-.6401,1.39c-.98-2.67-3.6099-4.31-4.8701-6.67-.4399-.83-.29-1.81-.5801-2.3199-1.3799-2.4901-15.2798-14.7-18.0698-16.81l-3.9302-2.23c.8203,1.67,2.4902,2.38,3.8301,3.5,8.1104,6.78,14.5,14.7,21.29,23.46,1.25,1.61,3.6802,3.57,4.6499,5.31.3501.62.0903,2.82,1.3501,1.92-.5898-.68-.6602-1.68-1.0601-2.46-.6499-1.26-3.4897-3.86-.9897-4.15,3.0801,6.05,6.4097,12.08,9.0996,18.37.5,1.17.7705,2.88,1.2603,4.09.4302,1.06,2.1699,1.53,1.1201,3.98l.7598-.4.9199,2.63,1.1802-.18c-1.6099-2.52-1.9399-5.53-3.04-8.31-.4297-1.06-2.4199-2.64-1.46-4.23l-1.1602-.06-.8799-2.45c-.02-.3.3901-.77,1.02-.23.4199.35,2.1899,3.61,2.5898,4.41,10.75,21.13,14.6899,50.07,11.25,73.92-.9199,6.4-4.3198,23.18-6.77,28.48-.3096.67-1.0596.68-1.1396,1.09-2.4102,11.37-10.3901,26.66-17.6104,35.79-1.1699,1.49-2.8599,2.7-3.8799,4.41-2.1797-.84-.4697-1.36.2002-2.46.77-1.28,3.5098-7.1,3.79-7.4.23-.25.96-.16,1.2998-.59.79-.99,1.2002-2.56,2.27-3.41l-.8101-.22v-1.37l1.6299.46c.2002-1.36.5801-3.26,1.1401-4.45.3501-.75,1.0801-.89,1.2002-1.16,5.3296-11.11,10.2798-22.53,12.46-34.69,1.2598-7,2.27-14.21,2.4302-21.41l.7896-.3c-1.7197-3.52-.0498-8.5-1.2197-12.51l1.1997-.26-.8198-4.97-.79.2v-3.87h1.23v-.9c-1.6602-.12-1.9897-2.29-1.6499-3.82.1201-.54,1,0,.8301-.75l-1.23-.26c.1201-.37.25-.77.1797-1.16-4.5498-25.33-15.6396-46.96-32.5298-65.83-1.25-1.4-3.4102-3.1-4.3599-4.3-3.79-4.8-12.73-12.16-18.1104-15.92-6-4.2-13.2695-7.09-19.0801-11.04-.5098-.35-.5898-1.17-.6997-1.25-.1401-.09-.8003.45-1.29.32-.2798-.06-3.6997-2.27-4.9497-2.77-19.7305-7.78-47.9805-11.78-69.1201-8.27-3.4502.57-7.27,2.36-10.6104,1.99-1.3198-1.86,13.2305-5.04,14.1104-5.24,4.8999-1.09,10.0298-1.24,14.71-3.39,1.4102-.91,2.8496-1.76,4.3301-2.56-4.0801.31-8.1802.48-12.2202.93-3.0498.34-6.5698,1.37-9.6401,1.13l-.4097.86c-4.1304.39-8.0503,1.64-12.0903,2.99-.8496.29-2.0698-.3-3.1099,1.17l-.5601-.04-.4399-.86c-.4897,2.78-3.2798.46-4.3101,2.73l-1.0098-.9c.1201,1.54-1.1104.84-1.4404,1.01-5.3496,2.88-11.2798,4.73-16.5396,7.92-15.77,9.56-37.1401,29.51-43.5,48.61-.1802.56-1.1704-.04-.3804,1.71l-.8096-.46-3.8301,9.65c-16.7202,61.83,23.21,104.54,76.96,105.65,2.73.06,1.5698-.18,2.5098-.43.5898-.16,2.2803.39,3,.46l-7.9697,1.38c-19.29,1-42.1802-6-56.77-20.28-2.98-2.92-9.3203-10.14-11.2202-13.96-2.1001-4.22-5.5601-9.19-7.6201-14.34-3.25-8.11-6.3496-22.45-5.73-31.44.1499-2.27,1.3003-3.98.4604-5.95l.7896-.45c.8203-32.63,21.8301-61.21,45.9702-77.38,12.6299-8.46,27.71-14.55,42.3799-17.9,3.9199-.9,8-1.68,11.8101-1.12.1802.03.1699-.73.4897-.86,1.8301-.75,7.7402-.88,10.1201-.96,1.6504-.06,3.9404.71,4.9404-.44.3599-.15.0996.62.2695.77.1904.16,1.9404.11,1.77-.77.1304.16.27.29.4102.38,6.29-3.1,13.04-5.22,19.9302-6.22.7998-.1201,1.6099-.22,2.4097-.3-.6797-.09-1.3696-.17-2.0601-.25l.8203-1.82c1.52.82,3.21.21,4.77.84.9497.38.0698,1.46,2.3901.29,1.4199.33,2.9399.52,4.5098.66.98.09,1.9697.16,2.96.22,2.8398.2,5.6699.37,8.1201.97,2.5098.61,1.3101,1.39,1.4697,1.53.2803.26,6.1699,1.75,7.1001,1.89.3804.06,1.9502.31,1.8599-.46-2.3496-.97-4.9497-1.06-7.2998-1.69-.3301-.09-2.1797-.97-.6899-1.06,3.6201.67,7.1401,1.82,10.6997,2.69,6.9502,1.71,13.8804,3.4901,20.8604,5.96.79.28,1.4697.68,2.0298,1.38l.6099-1.36c-.5195.01-1.0298-.12-1.5098-.36-4.0298-2.06-8.8301-5.48-12.8501-7.16-.5796-.24-1.1997.33-1.6196.02-.6704-.51.1797-1.75-2.2402-.7l-.21-1.37-.6001.9c-.7397-.33-1.79-1.1-2.5298-1.23-3.4502-.6-7.96-1.52-12.1504-2.42-.5996-1.13-2.9097-1.32-4.1699-1.35l.2002-.92-1.4102.93c-9.8999-2.82-20.9297-3.76-31.1899-4.49-1.6997-.12-6.02.28-7.2798-.19-.8101-.31-.7202-.94-.6699-1.72,1.3896,1.66,2.5498.25,4.0698.23,1.3501-.01,8.6099.42,9.6001.71.3096.08.21.8199.4399.8199,2.3901.01,5.9697-.85,8.1099.1.2998.13.3101.87.5498.88.71.04,2.0601-1,2.7803-.82.46.12.7402.92,1.3398,1.13,1.0601.38,2.9399-1.09,3.2402.62,1.5996-.58,5.2197-.08,6.8701.43.3496.11.3198.59.2798.91l.5698-.87,10.27,2.7c.6499-.47-.3198-.56-.6099-.67-.8901-.33-1.8999-.76-2.7803-1.02-17.0898-5.2-30.7397-7.92-48.6299-7.44-12.73.34-27.04,2.01-39.23,5.47-.4297.13-.3901.96-.8799,1.19-3.3599,1.57-8.5801,2.72-12.1899,4.34-24.8999,11.14-46.5098,28.47-60.5098,54.1-1.1802,2.16-2.3105,5.75-3.6001,7.73-.8999,1.39-1.2002-.39-1.1001-1.26.3501-2.87,6.4897-14.26,8.2598-17.19,6.7002-11.04,14.0703-17.63,22.8501-26.11.3701-.36,2.1899-.99.3901-1.36-3.3203,3.71-7.79,6.31-11.3501,9.6-3.9102,3.63-7.27,9.02-10.5498,13.42l-1.2402-.23c.98,2.38-1.3101,2.83-1.9199,3.74-1.0601,1.58-2.6401,6.55-4.0601,8.52-.21.29-1.3101,1.07-1.3901.96l.8101-3.2.8203.46c-.7402-2.14.1699-1.59.3696-2.18,3.5303-10.61,12.1401-21.97,19.4902-29.74,2.7202-2.89,4.4702-4.85,6.9097-7.58,1.2202-1.37,4.2104-2.27,3.75-4.2599-2.5596,2.09-5.5596,4.02-8.5996,5.02l-.21-.91,26.6201-16.88-.2104-.91c-12.1597,2.5-21.1299,10.2401-31.23,17.19-.7998.55-.0996,1.17-1.9199,1.06-.8301-.04-1.2197.33-1.04-.92l1.23.22c-.4097-2.16.5703-1.3,1.0601-1.7401,5.9902-5.46,15.3901-10.89,22.1499-13.95,5.3101-2.41,10.5801-2.8,16.1104-5.81,2.7598-1.5,5.4297-3.41,8.1899-4.94.1299-1.07-.2603-.61-.8604-.5-9.4097,1.75-21.0098,7.52-29.7295,11.6-.4004.19-4.4702,2.94-3.8105,1.22,5.3701-4.85,12.0903-7.42,18.3701-10.55,1.1401-.56,2.2002-1.67,3.3403-2.21,1.77-.85,4.23-1.59,6.1396-2.05-.2998,1.65-1.8501.93-1.98,1.0099-.1396.09-.2397.8-.5098.97-1.1401.76-2.1899,1.77-3.6602,1.66l.6104.86,7.5-2.59c1.8096.73,1.1299-.42,1.8999-.83,1.96-1.02,6.2598-1.02,8.9199-2.04,1.02-.4,2.96-1.81,4.3501-2.55,1.3999-.75,3.0698-1.56,4.5801-1.97.1895-2.14-2.1504.15-3.0605.48-1.3398.49-4.6895,1.95-5.5396.4399,1.7896.16,2.3696-1.24,3.4897-1.79,4.46-2.15,9.21-3.46,14.02-4.9,1.48-.44,2.1499-1.82,4.1899-.6.3301.49-3.8701,1.66-4.4102,1.72-.5498.06-.8496-.2-1.3198-.36v1.82l7.7803-2.28-2.4502-1.82c1.3301.73,2.0698-.17,3.1699-.34,1.1001-.18,3.1699-.11,4-.56.27-.15,1.1499-1.14.02-.9-40.8896,6.78-85.73,28.31-112.8799,64.13-13.25,17.48-24.2803,37.1299-28.21,61.49-6.46,40.06,5.6396,78.21,33.75,103.64,10.7798,9.76,21.4697,15.89,33.9102,22.8,3.8398,2.12,7.2197,3.65,10.6396,5.25.5801.27,1.5703.91,1.79.98.7803.24,2.2998-.83,3.0103.37-3.4399.7-6.98-.54-10.2402-1.61l.4102-.9c-1.9702,1.2-2.3901-.26-2.6499-.35-5.8203-1.94-15.6104-6.12-21.3804-6.78-.8398-.1-1.0796,1.09-.96-1.07l-.5796.88c-1.5801-.31-2.9502-1.39-4.4102-1.95-.6899-.26-1.3301-.52-1.8799-.72-.8604-.31-2.6904-1.1-3.3501-1.22-1.9702-.35-6.7202,3.72-9.4399,2.55v-1.36c2.71.11,4.4399-2.41,6.9697-2.06l-17.8301-10.25c-1.1396-.38-.3599,1.54-.6099,1.8199l-4.0898.6801,3.1299,2.87c2.1401-.33,4.1201-2.33,6.29-1.27-1.29,1.87-2.77,3.06-4.9102,1.82-.4302,1.82,1.5698,1.92,2.5503,2.75,2.4199,2.08,5.0298,4.02,7.5298,5.83,1.7397,1.2599,3.6802,2.23,5.2798,3.72.3403.16.04-.8.46-.91,1.3105-.35,3.6001-.36,4.9902-.72,1.48-.38,2.8999-1.47,4.5801-1.55.2197,1.64-1.0303,2.25-2.1699,2.82l-7.25,1.27c.6299.02,1.2397.19,1.7998.51,6.1299,3.54,14.0303,8.85,20.71,10.69.4199.11.8003.3,1.25.2l-.4199-.9c3.3901-1.09,6.02,1.35,8.8799,2.11,4.3101,1.13,9.6802,2.13,14.1602,3.06,2.8501.59,5.9502.82,8.2598,1.23,2.2705.4,4.5503.75,6.8003,1.35-.02.81.2798.95-.52.79-2.3901-.49-4.9302-.7-7.5098-1.22-.8701-.18-1.2104,1.07-1.6201-.51-1.4004.6801-3.23.17-4.77-.11-6.3501-1.18-12.3999-3.5-18.7603-4.43l.4102-1.36-1.6299.91-.0103-1.37h-1.23l.2002.92c-.8398.0699-2.0898-1.29-1.8301.4399l22.4199,7.19c.8701.21,1.7998,0,2.6602.22,8.3799,2.19,16.7598,4.73,25.29,5.36l.23-1.4,2.23.04c-.1802,1.21-2.4702-.5-2.04,1.36l4.7002.01.4199-1.38.1997,1.36,4.25.03.46-.94.4204.93,1.6299-.93-.2002.91c1.3101.33,1.21-.4,1.8398-1.36.1602,1.05,1.6304,1.22,1.4404.01l.5996.91c1.2202.47,1.2803-2.47,2.04-.0099.4004-.29.9199-.64,1.3901-.67,18.8701-1.39,33.1699-7.24,50.4102-15.09.6997-.32,1.2896-.44.4497.5l-3.29,2.05.4199.9c-2.8096.45-5.5796,2.63-8.1997,3.88-.6001.29-1.21.57-1.8198.86-.0205.0099-.0503.02-.0703.03-1.2798.71-2.5498,1.41-3.8301,2.08-9.96,5.22-26.2998,13.79-46.6099,17.65.1201,0,.25-.0099.3701-.0099.5298,0,1.0498.0399,1.5498.1299h.0103c.2598.04.5098.1001.7598.17.2402.0699.4902.16.7202.26l.4199-.92c8.3701-.6399,18.7397-1.63,26.3799-3.8199.9102-.26,1.8599-.64,2.6899-1.16l.1899.9.8003-.01c-.1299-1.56,1.6099-.78,2.27-1,2.8198-.94,5.7998-2.12,8.8901-3.12,25.8599-8.33,52.7598-25.78,70.7598-49.43,10.1899-13.39,18.8301-32.95,19.6899-51.02,1.9302-40.15-12.8799-71.14-45.0601-89.44-3.0898-1.76-7.6099-4.3-10.5698-5.57-.9102-.39-6.0601-1.58-6.2402-1.88l.4102-.9c-1.1899.59-2.1699-.09-3.3501-.52-17.79-6.47-38.9102-6.09-57.2998-.2-4.1299,1.33-8.4399,3.83-12.5801,5.15-.7002.23-1.4199.14-2.1401.13l.4102,1.36c-1.5903.4-4.3198,1.47-5.8101,2.33-20.7197,11.98-37.5498,31.7-36.1499,59.89.48,9.69,5.25,24.22,11.4302,31.2401,8.8896,10.1,20.8296,16.27,33.7695,18.42,14.52,2.41,36.5103-3.51,48.02-15.41,17.3999-18,11.6802-43.84-11.52-50.22-1.5596-.43-5.4497-.8-7.5898-.69-7.6797.39-18.9297,5.25-21.77,14.07-1.5801,4.89-1.1699,9.91,2.1499,13.74,1.3101,1.51,3.25,1.97,4.8101,2.75.2603.12.27.82.3301.84.25.1.6802-.4901,1.1099-.3.0903.04.0601.69.2603.73,6.5,1.34,18.0498-.76,16.9097-10.51-.0698-.64-.6797-1.69-.6499-1.95.04-.36.8003-.47,1.02-.81.4004-.63.46-2.29,1.8203-1.93.7998.22.8896,1.07,1.3398,1.48.2402.22.75.02,1.1001.44.2998.38,1.1499,2.49,1.2197,3.1,1.5703,12.43-8.52,17-17.8398,17.95-.46-1.97-2.3398,1.49-2.8501-.84-1.71,1.83-6.6201.89-8.8501.26-5.5601-1.57-10.3198-6.44-13.0698-11.88l.8101-.68c.1001.95.6099,1.86,1.1099,2.62.1602.24,1.3901,1.96,1.7603,1.48-.0903-1.31-1.2603-2.17-1.7202-3.33-6.0601-15.24,1.8701-27.7,14.02-34.26,3.8901-2.11,5.5601-1.86,9.54-2.98.3301-.1.25-.89.54-.93,7.2202-.89,12.75-.45,19.9097,1.88,9.9404,3.24,22.7002,15.07,25.9805,27.11,1.5,5.48,1.3398,12.44-.2202,17.44-.4497,1.44-.2202,3.34-1.6899,2.83l.8198.67c-1.1196,1.02-1.0098,2.78-1.6499,4.01-14.0098,26.99-50.4502,36.74-76.6201,29.66-4.7397-1.28-18.0898-7.63-21.9697-10.92-6.9702-5.91-13.25-11.28-17.6201-21.04-2.75-6.12-3.54-13.16-5.4399-19.49l.8198-.4301c-.9897-1.87-.75-4.72-.6797-6.91.9097-30.07,19.7397-56.93,43.79-69.08,1.4795-.74,2.2695-2.37,3.5796-.83-.3599-1.32,1.0801-1.96,2.0903-2.47,5.0898-2.56,16.0596-6.4,21.52-7.06.4697-.06,2.1997-.45,2.1997.4-2.52,1.14-5.2798,1.55-7.8701,2.42-6.5796,2.21-11.7397,4.35-17.8696,7.56-7.7402,4.07-15.6899,9.37-21.6401,15.25-.4902.48-2.3999,3.26-2.7998,3.5l-.6001-.91c.3799,2.6-2.3701,3.68-3.5601,5.1899-1.3301,1.7-3.5098,5.1201-4.7998,7.17-.8003,1.27-1.04,4.01-2.71,3.59l.3496,1.31c-.4102.07-.6899.16-.8799.62-4.3198,10.46-7.6499,20.04-7.9102,31.75-.3999,17.58,7.0703,35.78,19.5103,46.3.4697.39,2.0498,1.47,2.4497.93-4.0298-3.75-7.96-7.56-10.9897-12.39-4.1401-6.61-8.0103-17.53-8.98-25.01-2.6602-20.63,6.1499-44.39,20.2998-58.52,20.6104-20.56,48.4199-28.39,75.2803-29.17l.1699.87c1.23-1,3.71-.47,5.3999-.3,11.52,1.15,22.1001,3.67,32.6201,8.82,11.0898,5.43,22.5498,14,31.8696,23.57,4.8804,5.01,12.5103,13.49,15.3403,20.07.3101.72.5,1.26.3799,2.09-1.4399.05-1.6299-2.09-2.21-3.01-11.5801-18.25-31.9302-34.33-51.0498-41.8799-37.3901-14.77-86.75-4.32-112.6201,30.09-.6802.9-1.7402,2.13-1.6499,3.4l9.7397-11.36c38.0698-36.46,100.3599-37.19,138.27,1.63,8.1401,8.34,14.6602,15.63,20.2603,27.37,13,27.25,13.3101,61.01,3.6196,89.97-.4697,1.38-.5498,2.06-.9097,3.11-.8501,2.57-4.4702,9.1-5.9399,11.99-11.1699,21.93-23.2002,40.06-39.8804,56.91-10.02,10.11-20.9897,18.79-32.1797,27.5601,1.77.21,3.1099-1.6401,4.3599-2.4501,2.79-1.7899,5.9199-3.23,8.6001-5.24,1.3198-1,3.02-4.38,5.0601-3.03.0498-.5199-.1699-1.33.0596-1.75.1201-.2,3.1802-2,3.7305-2.37.2798-.1699.2397-.78.6099-.88,3.27-.87,4.04-3.89,6.6802-5.6901,1.71-1.1699,1.2295-.0299,2.5898-1.8799,1.6099-2.1801,5.5601-4.8301,7.6001-6.8501,3.25-3.2199,6.25-6.96,9.3398-10.1799,2.4399-2.54,4.73-4.9,7.2798-7.32.4404.9-1.7197,4.29-2.2397,4.81-4.98,5.09-10.3901,11.3-15.4502,16.1699-.9399.9102-2.5698,2.1801-3.8198,2.27l.4102,1.3601-1.2202-.4501c-.0298.85-.3501,1.41-.8599,2.02-.9502,1.14-9.3701,7.9301-10.7202,8.77-.1802.11-.6802-.34-.71-.3099-.0601.0898.1699.7799-.2798,1.3999-.6299.88-2.1904,1.0601-2.8799,1.62-13.6504,11.09-29.7305,21.0699-45.3105,29.4301-3.9897,2.1399-8.9897,3.9099-12.7896,6.28-.5601.3599-1.1899.3699-1,1.3899l1.8398-.9199,1.4302.9099-.8101-1.3499c2.5796-.78,4.9297-2.25,7.3799-3.4202,14.6602-6.99,28.9399-14.7,42.3398-23.5499,1.3101-.87,5.0903-3.38,5.21-4.4501,2.04.1702,2.6001-1.6399,3.7402-2.49,4.4302-3.3199,8.7798-6.5,12.3599-9.8799.77-.73,1.5498-1.55,2.6699-1.3201l.3901,1.28c-.75.3201-1.4702.87-2.0898,1.4299-13.98,12.7201-30.8804,23.0601-47.5103,32.4001-7.0898,3.98-12.4297,7.0499-20.5996,9.5399-.5605.17-1.2803-.03-1.4404.9.8604.02,1.71.09,2.5703-.1001,6.75-1.51,17.5996-6.96,24.27-9.97.71-.3199,1.1597-.5499,1.7397-.8199,1.6699-.78,4.04-2.38,5.6201-1.86l-.2002-.92,1.6401.4601v-1.3801l1.1699.4301c.5303-1.12,2.1802-2.14,3.3901-2.86,1.9102-1.14,4.3501-1.74,5.8901-3.48l.1997.8999h.8203c-.3901-2.1499,2.5-2.0898,3.7798-2.73,2.4199-1.23,7.6602-4.8699,11.0503-6.8799,24.3896-14.4601,43.25-30.3901,61.5098-54.0101,1.2197-1.58,2.5098-3.15,3.7402-4.75.6597.43-.1602,1.03-.3701,1.41-1.8101,3.2599-4.1802,6.9-6.3901,9.77.23,2.38,2.1401-2.87,2.46.22-1.8398-.51-1.04,1.41-1.75,2.16-.27.28-1.4102.46-2.0298,1.03-2.2202,1.99-5.5,6.32-7.96,8.83-12.4702,12.75-24.8203,22.38-39.3301,31.66-5.46,3.48-10.77,7.24-16.3003,10.58-.6401.38-1.1299.54-1.8599.4401l1.1299.6c2.9004-1.9299,6.0898-3.24,9.0801-4.97,28.7402-16.64,57.0303-38.8101,74.1802-70.16,20.7998-38.04,25-86.16,5.0698-126.9ZM187.057,122.1657c7.1201-5.11,16.5498-10.2,24.5703-13.23,2.7197-1.03,5.75-2.2,8.5796-2.52-.0898.98-1.21.61-1.5498,1.04-.21.26.1099,1.01-.3501,1.25-1.0801.53-4.3501.97-5.8901,1.57-1.9897.78-4.4199,2.19-6.0396,2.93-5.4302,2.46-9.3501,4.74-14.5103,7.84-.3301.19-.3501.76-.4199.79-.6499.31-1.2202-1.41-1.21.88-.3301.43-2.1201.27-2.6899.69-.2803.2-.4404,1.09-.9004,1.49-2.1699,1.86-4.46,4.07-6.9897,5.22-1.2002-1.4,6.4497-7.27,7.3999-7.95ZM179.9769,104.4157c.1899-.11.23-.81.6699-1,.2603-.12,3.25-.9,3.4702-.92.54-.05.7603.15.8599.71l-6.96,3.2c-.46-2,1.3101-1.58,1.96-1.99ZM127.2269,313.8057c-.27-1.11.9902-1.29,1.6504-1.57.9297-.4,1.8096-.85,2.8496-.7.3604,2.35-2.98,2.36-4.5,2.27ZM149.847,326.4357c-1.8599-.03-2.6899-.7599-.5498-1.52,2.1797-.78,4.3096-2.48,6.5996-1.53-.4697,2.21-1.5996,1.51-2.8799,2.03-1.27.52-1.3799,1.05-3.1699,1.02ZM160.3968,330.3357c-1.5801.59-4.6099,1.43-5.7197-.35l2.2197-.89,5.1401-.24c.3003,1.03-1.02,1.25-1.6401,1.48ZM171.1869,332.9657l-6.2798-.01v-1.37l6.9702-.45-.6904,1.83ZM175.1571,335.6857c.0098-2.48,1.77-.28,2-.5l.2397-.87c.79,1.52,3.5801-.33,3.4902,1.83l-5.73-.46ZM273.4169,226.7957c.3604.66-.2896,8.74-.5396,10.13-.0801.46-.0605,1.33-.6401,1.22l.3198-8.43c-.0498-1.47-1.6797-4.09.8599-2.92ZM257.597,259.6857c4.77-3.43,10.48-7.1299,13.02-13.08.9199-2.17,1.4897-4.32,2.4302-6.78.0996-.25,1.5098-3.51,1.5596-3.74.1504-.73-.6699-4.66.1001-5.22l1.21-.02c.6001,3.56.0903,6.32-.8296,9.67-.1904.69-2.21,6.14-2.5601,6.66-.2803.42-2.52,1.41-.3501,1.95l.04.86c-1-.09-1.0801.91-1.2402,1.83l-.73-.39c-.6597,2.15-2.7397,3.63-4.3799,4.94-1.23.98-5.6299,4.27-6.77,4.77-.6802.31-1.3101.33-2.02.25l.52-1.7ZM111.0472,239.5057l-1.0503-.77c-.0298-.57.29-1.23.23-1.76-1.3398-12.18-2.6099-20.58-.4102-33.02,2.7402-15.41,7.8604-29.05,14.5605-42.96,2.9297-6.09,7.1499-13.6801,11.2598-19.46.75-1.05,5.1499-6.82,5.73-6.76l.8301.8c.1899.5-.5103,1.64-.79,2.12-.5298.89-2.0298,2.18-2.7002,3.14-15.6001,22.28-29.1797,54.07-28.54,82.88.1001,4.11,1.2603,8.78,1.4204,12.9.0195.5099.0898,2.89-.54,2.89ZM138.7269,218.8057c-.1201.99-1.0098.52-.8496.87,1.3896,1.5099.71,4.23,1.6396,6.16l-1.23-.45v.9l1.2002.74c.0698.87-.52,1.74-.3999,2.61.0195.13,1.9097,1.42,1.2397,2.12-.8799.93-1.6899-1.23-1.8999-1.74-2.0498-5.01-2.0703-18.41-1.3701-24.01.1001-.86.1201-2.39,1.2202-2.05,1.1001,1.71.1997,2.77.1899,4.42-.04,3.47-.0801,4.77-.5898,8.13-.0205.14,1.1499-.05.8496,2.3ZM124.9969,201.6957c-1.5,6.94-2.5498,14.86-2.1802,22.06.2202,4.2401,1.2104,8.95,1.5503,13.2401l-1.0298.24c-.3003-.1-.8804-2.59-.9502-3.1-1.8501-13.86-.6499-29.36,3.52-42.81.1201-.37,1.0298-3.08,1.7202-2.41,1.1895,1.16-2.2803,9.52-2.7104,11.26-.1001.4.1899,1.02.0801,1.52ZM126.3968,176.1457l-.8096-.45c-.2402.83-.0303,2.91-.3003,3.53-.5698,1.31-2.1099.63-.8999,3.06l-.7998.46.3696,1.15-1.2397.01c.4399,1.1-.1602,3.1-.52,4.32-2.48,8.33-3.8501,14-4.5903,22.59-.1997,2.31-.3799,7.98-.7798,9.58-.1899.76-.5801,1.06-1.0698,1.57,1.1201.44,1.25,1.42,1.2598,2.68l-.8501.29.7402.65c.3901,8.04,1.5,16.22,3.5601,23.96.8896,3.35,2.7197,9.48,4,12.53.1299.32,1.4399.24.5098,1.12-1.4199-.04-2.8701-3.58-3.54-5.15-2.2598-5.3-3.2197-12.38-4.71-18.39-.1299-.54.7002-1.2-.5498-1.06l-.0103-.91.8101-.45c-2.1099-.24-.3301-2.57-.4199-2.72-.02-.04-.6201.13-.79-.34-.6499-1.88-.02-4.86-.7998-6.78l.7998-.42c-1.5298-1.72.7803-2.4-.71-2.6l-.1602-.55c.52-3.82-.1396-9.67.5503-13.27.3501-1.84.4199-3.55.7598-5.8701,2.1201-14.54,10.3901-38.17,18.6304-49.62.0796-.11.0898-2.2,1.3398-1.63l.8701,1.7401c-.29-.01-.6602.04-.8101.32-.9502,1.71-1.79,3.33-2.8101,5.0099-1.04,1.72-2.73,4.07-3.5703,6.02-1.3599,3.15-2.3496,6.45-3.46,9.62ZM132.557,238.3457c-.0698-.84-.0601-1.48.6099-2.02.6602-.31,4.3403,11.7,4.8203,12.87,3.1001,7.55,7.8696,15.86,13.2798,21.48,1.27,3.52,6.79,6.69,8.48,9.45.2402.38.9399,1.83.4502,2.23-.8501-.68-1.6499-.95-2.5503-1.68-2.25-1.84-10.3096-10.43-11.6196-12.78-.3003-.54.0498-1.39,0-1.43-.23-.21-1.1401-.06-1.6499-.71-.3403-.44.0996-1.14-.1602-1.62-2.0703-3.73-5.2803-7.34-7.1299-11.76-1.0601-2.55-4.3203-11.66-4.5303-14.03ZM184.037,317.3657c-13.3301-4.7-29.4097-14.4301-40.02-24.7401-.7197-.7-3.6499-3.49-3.9502-4.03-.3599-.64-.0298-1.65-.7598-2.13l-.4102.91c-.46-.91-2.0195-2.11-2.4297-2.7599-.2803-.44-.1104-1.12-.2603-1.45-.2598-.57-.9097-.21-.79-.58.5503-1.67,1.48.72,1.8003,1,1.0996.97,1.6299,1.5,2.7397,2.61.8999.89,2.5903.64,1.6001,2.54,1.0098-.31,2.9902,1.17,3.5801,1.98.23.3.04.98.1401,1.18.0396.07.6499-.34,1.3296.07,1.0303.62,2.3003,2.62,3.3101,3.43,10.4204,8.38,20.8501,13.96,32.52,20.1,1.52.8,3.2002.91,4.5903,2.64-.4204,1.33-2.3301-.54-2.9902-.77ZM204.2269,339.5657c-.0098-1.55,16.48.63,18.23.69,4.0503.15,8.23.03,12.2803-.02,1.1499-.02,3.4097-1.06,4.3101.46-11.5103,1.99-23.2402-.13-34.8203-1.13ZM266.5072,327.7257c-4.1201,1.29-8.4199,2.47-12.71,2.49-.3203-1.8,1.9697-.05,2.8696-.91l-.4097-1.36c.5596-.07,1.1299.3,1.6899.21,11.2598-1.9,23.5-8.13,33.8101-13.36l10.3701-6.91c-.4805,2.27-1.2402,1.81-2.5205,2.78-10.0596,7.57-21.3599,13.38-33.0996,17.06ZM343.9169,203.5057c-.8599,1.46.4902,1.78.8999,2.86,7.1602,19.0699,8.5903,38.18,3.9702,57.92-5.8101,24.79-26.1802,51.33-45.6997,64.49-10.7402,7.23-22.6904,13.15-34.9502,16.03.4297-1.66,2.1001-1.04,3.0498-1.5,8.2603-4.02,17.2202-8.64,25.29-13.58,6.1802-3.78,11.25-8.74,16.98-13.12,3.6001-2.75,6.1099-6.09,9.27-9.5.5703-.62,1.8398-.12,1.9199-2.2l1.2305.25c.5996-2.29,2.6797-4.59,4.1196-6.62,4.8003-6.79,7.8198-12.04,11.52-19.99.3901-.85,1.4502-1.07.75-2.33l.8203.22c-.0205-.64-.3403-1.17-.2305-1.84.2402-1.49,1.8203-5.21,2.3901-7.05,5-16.3,5.1099-40.64-1.4497-56.86-.2603-.64-.96-3.4-1.1504-4.21-.3696-1.5-.5098-3.47,1.27-2.97ZM331.6273,266.4057l.8096.46c-.8496-1.91.6504-3.1801,1.02-4.78,1.6099-7.16,2.3599-17.58,2.4702-25.11.0098-.66-.8101-1.8-.1602-2.89l1.5898-.04.3901,12.47c-1,2.63-.7798,7.99-1.3198,11.33-.6699,4.2-2.3501,9.06-3.5801,12.84-2.2803,7.02-10.3101,24.86-16.2402,27.35-.5298.22-.8696.3-1.3599.73-.29-.33,1.5-2.8,1.8198-3.2,5.5103-6.98,11.1001-16.08,13.5703-25.11.3301-1.22,1.54-2.19.9902-4.05ZM333.2972,283.6357c1.6099-2.75,1.6499-1.48,2.4097-5.06.1099-.48.9399-.39,1.1704-1.08,1.8496-5.4901,4.1699-11.42,5.5796-17.4901,1.3301-5.71,2.0601-11.56,1.8403-17.5099l1.21-.27.25-1.8c.6699.7599.5801,2.38.6099,3.39.4897,18.57-8.5898,39.29-19.0898,53.3-1.6104,2.15-3.7104,4.97-5.4702,6.92-3.48,3.85-7.5298,6.77-11.4697,10.04-.3604.29-.3901,1.04-.4404,1.09-.3398.26-1.1797-.39-1.1997-.67-.0801-.96,5.3501-5.19,6.3301-6.17,8.1099-8.06,12.96-15.63,18.27-24.69ZM315.8568,177.5157c1.9102-.28,5.1401,2.41,6.5801,3.85,3.5801,3.58,9.2202,12.89,11.8101,17.62,1.3701,2.49,2.5698,5.44,3.5103,7.58,1.1997,2.71,2.9399,5.25,3.29,8.33-2.52-.38-3.3804-4.04-4.4404-6.28-1.7197-3.66-3.5596-7.76-5.3799-11.65-.0801-.17-1.2998-1.3-2.1099-2.65-3.27-5.4-6.77-9.64-11.23-14.05-.9199-.92-2.9399-1.28-2.0303-2.75ZM254.2069,159.0657c.3101-.97.8101-.38,1.1401-.34,3.5801.41,8.6602-.04,11.8799,1.35.5103.22,1.2002.26,1.3203,1.03-2.54-.3-5.2305-.63-7.77-.75-1.8101-.08-4.6899.67-6.0601-.04-.6104-.3199-.7803-.37-.5103-1.25ZM210.6869,173.8657c3.0601-2.58,8.25-6.25,11.7002-8.27,2.1797-1.28,8.0898-4.57,10.2002-5.1.9795-.25,1.4199-.25,2.3599.16-.21.67-1.5801,1.17-2.1699,1.45-5.0103,2.35-9.6001,3.99-14.3301,7.32-2.9399,2.08-7.1699,5.88-9.3999,8.08-.6201.61-2.8203,3.51-3.4302,3.63l-1.3799-1.11c2.4199-1.47,4.3501-4.39,6.4497-6.16ZM190.7172,209.4257c.4399-1.19-.0601-2.58.1699-3.64,1.0898-5.04,5.3999-12.69,8.4502-16.97.4497-.64,2.8696-3.5699,3.25-3.78.9097-.52,1.4399.47,1.1997,1.32-.0801.27-3.0298,3.57-3.4497,3.96-.3501.33-.9004-.0099-.96.05-.3804.42-3.8604,7.4-4.3804,8.56-1.2998,2.87-1.9199,5.74-2.98,8.53-.1797.47-.79,1.87-1.2998,1.97ZM219.5668,238.8657c6.6802,8.61,20.0303,8.61,29.2402,5.8,1.3999-.42,2.5498-2.18,4.1699-1.05v-1.37l.9902.48.2397-.93.8203.22c.3198,2.44-2.5801,3.1-3.8999,4.33l-.2002-.91-1.02.92-.6099-.92c-.02.57-.1802,1.05-.6904,1.29-.6699.32-5.6299,1.46-6.6396,1.62-6.0801.99-14.25-.73-19.5103-4.27-4.5-3.03-8.1997-9.05-8.1899-15.05,1.6499,1.5,1.8501,4.33,2.7202,6.09.46.93,1.8999,2.87,2.5796,3.75ZM218.9769,245.8957c-.71.77-5.7798-4.89-6.1396-6.17-.0601-.23-.1104-.74.1997-.67.8799.6,1.3599,1.9,1.9902,2.58.8296.9,2.1196,1.83,3.0098,2.8.4102.45,1.1602.45.9399,1.46ZM217.4969,209.7857c-.4097,4.18-2.7397,9.59-2.2397,14,.1699,1.48,1.3496,2.1.4399,3.87-.8999.17-.9702-.42-1.2002-1.16-1.02-3.28-.6997-9.1801.1802-12.51.5498-2.08,1.7598-3.92,2.46-5.92.7998.59.4399.98.3599,1.72ZM213.8671,193.9357c-12.6699,13.19-14.5503,34.88-2.52,49.52,6.4902,7.89,20.0303,11.27,29.3301,12.21.46.04,1.3599-.69.4297.49-1.0898.07-2.4795.68-3.4897.68-13.9399-.03-32.3799-5.79-39.1099-20.39-.71-1.53-1-6.08-2.4004-5.21-2.54-5.1-3.2695-12.46-2.3398-18.18.98-6.04,2.4199-9.92,5.02-14.97.7798-1.52,1.5801-5.31,3.3999-5.08l-.27-.81c2.3403-3.16,4.5-6.61,7.7803-9.5.4399-.39.8901-.72,1.5-.62.4302,2.35-1.3198,2.06-1.6802,2.56-.2397.33-.1699,1.17-.4297,1.46-.0601.06-.6001-.29-.9902.05-.4302.37-.5498,2.96-1.8101,1.85.4102,1.81-1.3799,2.96-2.1597,4.21-6.5503,10.37-9.7002,17.7-8.4404,31.07.0903.97.2603,3.06,1.1699,3.47l.2305-10.1c1.0996-11.32,4.7998-18.58,11.0195-26.85,1.71-2.26,3.8701-4.69,5.6304-6.68.4097-.46,1.96-.32,2.3198-.64.0498-.04-.3301-.61.04-1.06,2.1201-2.62,6.6602-4.21,9.5098-5.77.3301-.19,1.6504-1.62,1.9004-1.73.8896-.39,1.9697-.09,2.0498-.15,2.1602-1.71,5.8999-3.13,8.77-4.15,1.6001-.57,3.4502.08,4.6201-1.67l.1997.91,1.6304-1.35.1997.9c.6299-.55,1.48-.98,2.25-1.15,6.9702-1.54,14.52-.95,21.52-.21.6001.06,1.3198-.61,1.75-.36,1.6304.9301,2.79.54,4.8198.89,3.8105.67,14.6001,4.88,18.0903,7.09.5898.38,1.5898,1.3.9399,1.94,2.1802-.9,2.52.75,3.96,1.75,9.8101,6.9,18.77,17.68,23.9702,29.39,2.2397,5.05,3.5898,12.09,4.2798,17.48.3799,2.97-1.0498,3.76-1.1201,4.47-.5,5.77.0103,10.68-.96,17.06-.1499,1,.8003,1.65-1.0498,1.65l1.0298-6.82c.0703-1.58-1.0796-4.52.6201-5.04l-.8599-.51-1.6104-17.03-1.2197.45c.0698-3.03-1.5098-7.14-2.6699-10.02-3.0303-7.5-6.5503-13.24-11.5303-18.86-1.21-1.37-1.3701-3.34-3.4097-3.03l3.1099,4.06c10.52,11.39,16.3599,30.6,15.7598,46.8l.7202.4c-1.2002,35.09-22.9102,56.83-50.2397,69.85-.4302.2-1.0503.05-1.4404.23-.6699.32-.5898,1.28-.9199,1.3-.3599.03-1-.55-1.5601-.5099-.27.02-.23.81-.7598,1.08-2.79,1.39-6.6401,2.56-9.4902,2.61-.1597,0-1.2197,2.31-2.6899.46-.3501,1.22-4.1396,1.83-5.6396,2.15-3.7803.81-7.6001,1.36-11.4004,1.08-.2197,0,.02.83-.7798.91-4.5601.44-11.6699-.08-16.3901-.51-6-.55-11.96-1.71-17.8198-3.19-.1099-.69,1.04-.65,1.4297-.65,1.3999-.02,2.8403.59,4.1201.66,4.7002.28,14.6001-.45,18.4199.53.2603.0699.1802.85.3804.83,7.4399-.98,15.3496-1.16,22.8896-2.88.3799-.09.6504-.46.8901-.77l.6001.91c-.02-1.53,2.5996-1.13,3.77-1.51,3.5098-1.12,7.2397-2.3,10.6699-3.54,16.7598-6.04,37.7202-22.49,46.0801-40.89.73-1.61,1.3296-3.32,2.1499-4.89.3398-1.46-1.8701,1.12-1.9199,1.2401-13.8003,35.71-57.96,52.22-91.2603,50.48-3.3501-.17-6.6899-1.03-10.0298-1.34-.6899-.58.0498-.83.6099-.92,1.8403-.27,4.1699.45,6.1201.47,9.6401.09,21.0601-.84,29.8701-3.28,10.3599-2.86,20.8599-6.97,29.6001-12.61,11.9897-7.76,20.0098-15.35,27.6196-28,4.3501-7.24,8.25-15.79,9.7202-24.37,4.7798-28.1-13.3501-54.23-36.3604-63.63-21.2295-8.67-49.4399-3.12-65.7397,13.83ZM255.017,187.0857l-.3999-.56-1.6401-.34,1.23,1.36c-2.5298.03-5.4697-.05-7.9497.5-2.1504.48-3.9199,2.26-5.98,1.32.1797-.76.8296-1.09,1.4199-1.38,3.0898-1.59,10.4897-3.06,13.9199-3.2,2.4399-.09,4.79.16,7.1899.48.1699.15.4102.9-.52.79-1.54-.16-5.6299-.36-6.98.1299-.3599.13-.3301.57-.29.9ZM270.6771,191.7857c-4.3901-2.04-10.1602-4.15-14.8301-3.78v-1.37l6.5,1.31c.2002-.19-.2402-1.05.46-.85l.2002,1.35c1.4297-1.36,2.23.81,2.5298.89.6401.19,2.4502-.61,3.1299-.45.4502.1.4302,1.23.9204,1.35.4097.09,1.0596-.49,1.5698-.44.2598.03.1802.8.5498.92.9102.3,3.98,1.42,4.77,1.93.5703.36.5898,1.12.73,1.23.3203.26,1.02-.54,1.5-.33.1099.04.7202,1.21,1.52,1.75,2.1401,1.43,4.3203,2.87,6.2202,4.23.46.33,3.8101,4.51,4.0298,4.88.3398.58-.3701,1.22-.2197,1.37,1.8198-.96,3.4097,3.36,4.3496,4.98,1.0903,1.87,1.79,3.41,2.9502,5.15.1602.23.2803,5.1.48,5.83l.8003-.45.4297,1.14-.8198.43.6401,2.09-1.46.89-1.9502-8.05c-3.98-10.59-15.6104-21.65-25-26ZM284.787,269.4457c8.2002-9.68,12.2798-20.1,14.6602-33.06.1196-.62-.3301-1.38-.1401-2.04.1899-.65,1.3398-.68,1.1899-1.67.5-.17.75,1.12.7002,1.27-.04.1-.6499.04-.6499.29.79,12.76-8.0801,32.7-17.52,39.86-.5503.42-1.48.36-1.7202.58-.0698.06.4102,1.05-.27,1.3l-.3799-.88-1.46.42c-.6099-.52,5.21-5.63,5.5898-6.07ZM280.1171,289.5157c16.7798-11.74,28.75-27.91,31.2397-51.82.5103-4.93-.4297-7.94-1.1396-12.42-.4302-2.66-.8101-5.41-1.1201-8.1l2.2197,2.2599c.4102,2.21.75,4.52,1.1904,6.73.02.11.6099.13.6797.44,1.0703,5.11-.2197,19.4-1.7798,24.55-.1602.51-.6499.64-1.0801.67l.77.48-3.8799,10.41c-18.0303,32.83-51.9199,46.06-85.1802,47.23-12.21.44-29.0801-2.94-39.4497-10.67-.4004-.3-2.0103-.85-2.1104-.97-.2798-.3701-.3701-.83.4004-.75,1.8696.17,3.4097,1.8,5.3398,1.67l-.4199.91c2.8398-.96,5.23,2.42,7.98,1.82l-.2002.91c1.2202-.51,2.2603-.21,3.48.13,12.6699,3.53,27.9702,4.77,41.4102,3.11.7598-.1.52-.84.7798-.88.8701-.11,2.9102.38,4.0503.2,7.2695-1.13,17.4497-4.56,24.1099-8.06.3301-.1801.3198-.88.5801-.9.96-.08,1.8599-.01,2.8901-.55.7197-.38,2.5-2.07,3.3096-2.58,2.0903-1.29,4-2.48,5.9302-3.82ZM206.0668,280.9957c4.5503-.22,7.2402,1.4,11.2202,2.02,3.8101.6,9.1499-.39,12.5503,1.16l.1997-.9c1.2798.28,2.6899-.9,3.4902.45l.8101-.93,1.4199.92c-.29-1.21,3.5898-1.53,4.2598-1.37.4302.1-.02,1.36,1.0801.92l-.4102-1.36c.4302-.01.8501.27,1.29.2,6.9702-1.22,13.8901-3.55,20.1299-6.68.8301-.42,2.5103-.08,3.3701-1.73,1.0703,2.56.79-.07.98-.22.6704-.43,1.4902-.4,2.1899-.72.5103-.23.2002-1.41,2.3501-.42-2.9897,2.72-7.1802,3.73-10.4697,6.36l-.79-.89-1.4302,1.8199-.0098-.91h-.8101c.3799,1.86-1.9399,2.26-3.2803,2.27l.4102-.9h-.8101c-.1602,2.57-2.1797.6-2.0601,2.27h-.8198l-.3999-.9c-.4902,1.93-4.0303,1.38-5.52,2.29l-.4199-.9301c-1.3301,2.16-3.4702,1.4-5.3403,1.77-1.8696.37-4.0498,1.79-6.1699.55l-.4199.9-5.48-.03.3999-1.36h-.8101c.3999,1.21-2.1396,1.48-2.6099,1.35-2.6299-.6801-6.2402-.79-9.3701-1.5-3.4097-.77-6.7798-2.03-10.1401-3.05-.0996-.8.9302-.43,1.4199-.45ZM165.537,197.1257c-1.73,5.8701-2.1401,12.59-3.0898,18.6801-2.1499-.16-.77-4.2401-.6401-5.86.1899-2.4.2402-5.03.7598-7.46.5503-2.58,1.79-5.92,2.6504-8.1.1899-.49.48-1.64,1.1201-1.36,1.3896.58-.5303,3.18-.8003,4.1ZM189.807,143.7057c-1.52-.87-2.02,1.22-2.4502,1.78-.1597.21-3.2197,2.28-4.0195,3.08-24.2305,24.41-38.6802,58.41-25.9902,94.58,8.4502,24.11,30.1499,40.72,51.9902,46.73,4.7397,1.3,9.5195,1.72,14.1997,2.81.4502.1,1.2798-.11,1.1699.61-2.5298-.45-5.0298.16-7.5698,0-27.3398-1.78-54.1099-19.93-64.1899-49.24-10.3599-30.1-2.4102-59.55,15.6401-83.19l.8296-.21-1.2197,2.51.7998.22c1.4102-2.04,2.8101-4.43,4.3599-6.32,4.5801-5.59,11.9502-11.98,17.7705-15.41,1.4097-.84,2.8696-2.23,4.5-2.42l-5.8203,4.47ZM374.2172,244.9757c-.8799-.06-.0898-1.62-.2202-2.32-.2197-1.12-1.9302-3.3-.1997-3.16v-.88l-.8403-.28c1.0303-2.21-.27-1.91-.3696-2.32-2.5303-11.12-3.4004-17.6-7.8301-28.49-.1602-.4-1.54-1.91-1.5601-2.04-.0801-.56.4097-2.01-.0303-2.89,1.0601-.2,1.2202.99,1.2402,1.82l.7397-.39c2.7202,6.74,5.6401,13,7.4102,20.25.3799,1.55.4302,3.01.6699,4.34.48,2.63,1.0303,5.25,1.4399,7.89l-.8501.72,1.2305.01c-.8203,2.79.2798,5.13-.8301,7.74ZM352.9071,169.7657l-.7202.34c-8.2998-9.42-18.79-17.13-29.1099-23.39-4.9102-2.98-10.1499-6.1-15.1299-8.35-3.1899-1.45-6.6401-2.46-9.9102-3.7-.4097-1.7,2.1201-.46,2.8701-.22,3.9199,1.22,8.3901,3.21,12.1299,4.95,11.3701,5.3,20.46,11.98,29.9902,19.77,7.0898,5.79,14,13.08,19.9897,20.74,1.3701,1.76,2.6899,4.14,4.2402,6.39,2.6899,3.89,5.8096,7.75,7.4199,12.41.2598.75.1299.86-.0498,1.6l-7.3604-10.81c-.1201-2.1-1.9102-2.22-2.0898-4.2l-.7202.35c-3.1797-5.89-8.5098-10.27-11.5498-15.88ZM358.3373,300.9357c.1899-1.52,1.5498-6.02,2.0698-7.74,5.3301-17.82,8.4897-29.22,6.8901-48.46-.29-3.6-1.2603-7.42-1.4805-10.45-.1099-1.42.5205-3.64.2202-5.26,1.75.56.6899,2.11.8999,2.63,5.5801,14.11,2.6401,39.43-1.5098,53.42-.6299,2.13-1.8799,6.53-2.6802,8.33-.8799,1.99-.8398,2.17-1.4399,4.04-.6602,2.03-2.1099,3.73-2.4399,5.88-.8003-.66-.6499-1.46-.5298-2.39ZM352.517,326.3557c.5103-.92.9199-2.03,1.2603-2.61.7998-1.35,2.8696-3.1201,3.6597-4.35,9.3403-14.57,15.2803-32.3,18.1299-50.02l1.5205-2.06c-.7705,1.72.3896,3.11.3496,4.2-.0596,1.45-1.8096,8.8-2.29,10.73-3.6699,14.74-10.5801,31.11-19.54,42.08-.46.56-.8198,2.06-1.6099,2.51-.71.41-2.3198,1.03-1.48-.48ZM346.6869,346.6457c-4.5098,5.04-9.0801,9.86-14.2397,14.1099.0698-.5299-.3999-1.0199-.3301-1.5199.1099-.76,9.04-8.56,10.4199-10.03,5.9502-6.35,12.5-14.97,17.3501-22.42,10.3599-15.9,18.6699-35.83,22.0098-56.17.4004-2.45.1304-5.6801,1.3403-7.63l-.8203-.45c1.3003-1.04.3501-3.61.48-5.04.0303-.3.6304-.17.6904-.4301.2197-.81-1.0601-6.05.4697-6.38l-.8198-2.06,1.96.56c1.5801,2.03-1.46,21.4301-2.1699,24.97-5.7202,28.69-18.0303,52.06-36.3403,72.49Z"/>
</svg>