<?xml version="1.0" encoding="UTF-8"?>
<svg id="Layer_1" data-name="Layer 1" xmlns="http://www.w3.org/2000/svg" viewBox="0 0 480 496">
  <defs>
    <style>
      .cls-1 {
        fill: #fff;
      }

      .cls-2 {
        fill: #ee2b2f;
      }
    </style>
  </defs>
  <path d="M319.1009,83.4379c50.4231,34.9569,57.6963,99.0437,17.2162,145.0702-24.8333,28.2358-58.4507,38.2612-67.7006,78.7537-2.2696,9.9354-1.0552,19.1004-2.5242,28.5771-.4825,3.113-3.4756,4.9016-6.3667,5.1454-8.2791.6981-17.4384-.8498-25.6797.0045-4.6396-.5803-12.9745.4356-17.1811-1.0107-.7562-.26-6.3044-6.309-6.6345-7.0918-1.3967-3.3127-1.1344-10.1452-1.2174-13.8297-.3678-16.3233,1.4039-33.0755,7.3159-48.4787,6.4692-16.8548,20.14-32.0791,33.1853-44.3015,16.6338-15.5846,41.4632-29.3649,43.6189-55.1215,3.3321-39.8121-24.8832-60.7463-63.0315-53.7343-32.2443,5.9267-44.6193,28.4939-49.819,58.662-.1705.9891.1452,2.1565-.0418,2.961-.0504.217-3.045,2.6152-3.7641,2.1216-12.2706-2.3804-24.8133-3.094-37.1521-4.9628-6.1145-.9261-14.1732-1.7705-18.9601-5.7298-3.2765-2.71-2.904-5.3153-2.5621-9.4907,1.9555-23.8866,13.4633-45.335,29.6494-62.4492,45.3998-48.0029,117.9416-52.3288,171.6492-15.0948ZM292.4147,250.8072c28.7367-23.8753,54.2022-44.5494,57.8404-84.9624,3.628-40.3-13.6438-68.6185-48.7568-87.1699-56.3201-29.7558-127.3309-15.1418-163.0715,38.2854-7.2038,10.7686-16.3926,32.292-14.8183,45.3015.272,2.248,2.0099,3.666,3.2639,1.5954.8957.9684,2.2845,1.5401,3.5825,1.7326,7.3792,1.0945,15.099,1.1215,22.5407,1.8123,3.3884.3145,8.4441,1.6632,11.6028,1.615,4.8102-.0733,4.1506-7.4363,5.0526-11.0913,8.5602-34.6869,38.3133-55.7095,74.1148-52.0704,30.4172,3.0918,54.1398,24.9353,54.5203,56.3763.5052,41.7506-33.3318,52.8187-57.1218,79.1627-21.7429,24.0772-28.4366,47.0392-26.8214,79.4096.4494,9.0061-2.1296,10.7475,8.6342,10.442,7.3111-.2076,14.7945-.5473,22.1026-.9222,1.8114-.0929,7.5158.4779,8.5494-.5316,1.5033-14.4177,1.0958-29.8805,7.2506-43.444,6.2614-13.7984,20.056-26.0038,31.535-35.5409ZM232.0328,111.1704c-2.0953-.7368-4.0436.6781-5.3101,2.2039.9483.0753,1.7926-.3511,2.6478-.6682.6984-.2589,2.3219-.8679,2.6623-1.5356ZM226.2797,111.612c-2.6618-.0086-4.185,1.084-5.7558,3.0908,2.0555-.407,4.3916-1.4508,5.7558-3.0908ZM220.0785,112.4954l-20.3264,12.2135c-6.0056,4.277-12.9461,10.9593-17.2824,16.9177-1.6843,2.3143-2.5861,4.7354-4.0102,7.1703,1.156.2821.7754-.3687,1.1419-.8337,10.8171-13.7222,19.8622-24.4974,36.4649-31.7358l4.0122-3.7319ZM213.4368,114.2687c-3.002.7597-5.7796,2.0613-8.1706,3.9979-.6903.5591-2.1289,1.2552-2.0087,2.1943l10.1793-6.1923ZM190.8571,129.3233l-3.7697,3.5317-1.5392,2.6627c1.8898-1.823,3.9902-3.9597,5.3089-6.1944ZM180.4892,151.7196c2.1463-2.9516,4.5584-6.1811,5.9358-9.5599-.6861.298-1.2658,1.0028-1.7535,1.5629-2.1221,2.4371-7.1862,9.0728-8.5985,11.7693-.2741.5234-.9057,2.0536-.4937,2.6058,1.5348-2.2073,3.3348-4.212,4.91-6.378ZM355.1293,150.351c-.429,1.4752.3129,4.6987,0,6.4203l2.228-5.0774-.4613-3.3333c-.3641.2092-1.7296,1.8626-1.7667,1.9904ZM174.026,166.5093l7.0857-12.3945c-2.8085,2.4738-6.4646,7.3026-7.4216,10.9522-.1135.4328-.4472,1.554.3359,1.4423ZM355.5653,164.297c.9024-3.0505,3.4584-4.8551,2.6591-8.4111-2.056,2.0615-3.1713,4.9652-3.5035,7.7915-.1025.8723.0801.6352.8444.6196ZM173.1504,171.8259c2.9586-2.5867,5.0998-6.2447,5.7473-10.1816l-5.334,8.164-.4133,2.0176ZM354.2382,174.9221c1.3928-4.2,4.6206-6.5709,3.5433-11.5068l-3.4395,6.5164-.1038,4.9904ZM140.378,170.4998l-4.1997-.4501c-1.3746,2.2359,4.1814,2.7221,4.1997.4501ZM147.9051,171.3878l-6.6371-.4451c-.3516,1.1634,1.163,1.2538,1.9835,1.3257,1.2296.1078,3.9705.3234,4.6536-.8807ZM158.0909,172.2735c-1.5644-.2563-4.4678-1.5768-4.8709.8782,1.6098-.0511,3.941.979,4.8709-.8782ZM167.8296,174.9222c-.1731-2.3638-3.6933-2.3944-4.8587-.6609.0197,1.1483,4.0292.8765,4.8587.6609ZM352.4659,184.6653c1.51-3.8007,4.3903-6.7069,4.4301-11.068-2.9572,3.1086-4.3217,6.7545-5.3016,10.8559l.8715.2122ZM348.3198,196.9026c2.7521-3.8966,6.2831-8.8048,6.8051-13.5642-4.0593,4.5539-6.16,10.5452-9.2876,15.7274-.0865,1.308.515.3377.8177-.0734.529-.7185,1.2619-1.5194,1.6648-2.0898ZM332.3671,221.2477c4.4722-4.6674,11.446-12.3455,14.9772-17.5778,1.5455-2.2901,2.7247-5.3694,3.7957-7.9335l-21.2608,26.7765-7.5135,7.541c.4426.7202.979-.1475,1.3297-.4415,2.5915-2.1727,6.2827-5.8715,8.6717-8.3647ZM338.1167,219.9016c1.5977-1.837,3.7583-5.0685,4.9675-7.2083.2197-.3889.9676-1.1183.3137-1.4576-5.9462,6.8872-12.09,13.5703-18.8142,19.7078-11.982,10.9365-25.5302,20.171-37.6488,30.9824-4.4232,3.9461-8.5969,8.2578-12.8356,12.4029l-.8802,1.5508c6.5774-7.248,14.8174-12.485,22.3439-18.6089,11.786-9.5897,22.7779-18.7171,33.652-29.2231,2.809-2.7139,6.3473-5.2091,8.9017-8.146ZM286.0552,267.0284c-.9887.1412-2.0877,1.1494-2.8667,1.778-5.2642,4.2481-10.4568,9.2874-14.9722,14.2921l-2.5246,5.1789,20.3635-21.249ZM263.4779,294.9192c2.1602-2.2029,3.9927-4.7154,6.0182-7.0394,1.0359-1.1886,2.9581-1.7304,2.8287-4.0299-2.3517,1.7225-4.1263,4.0201-5.9571,6.2269-.4005.4828-1.173.6625-1.4294.991-.6615.8477-1.4128,2.7244-1.4604,3.8514ZM264.1732,298.2755c1.5589-1.7811,3.7518-4.1467,4.1666-6.4555-1.6471,2.7611-5.9683,5.2228-5.9755,8.4104.5028-.7259,1.2722-1.3417,1.8089-1.9549ZM260.8213,306.8744c1.7412-1.5837,3.4331-4.3161,3.9762-6.6415-1.8383,1.8193-4.401,3.6879-3.9762,6.6415ZM263.916,306.436c-1.1492-.2947-.7783.3982-1.1514.8266-1.8795,2.1576-2.5595,3.8083-2.8292,6.696l3.9806-7.5226ZM259.4929,321.0434c1.6944-1.8056,3.1373-5.0042,3.0905-7.5272-1.7466,1.9215-3.3387,4.9157-3.0905,7.5272ZM259.4829,328.1247c.2798-2.8345,3.0923-4.5616,2.6578-7.524-.8166.9379-2.5324,3.5945-2.8703,4.6361-.1267.3906-.6134,2.8675.2125,2.8878ZM259.0479,332.9963c3.0046.2404,2.3682-4.165,2.65-6.1966-.9426.4171-2.9043,5.9416-2.65,6.1966ZM249.7471,334.7741c-1.784.077-4.2693-.5641-5.3131,1.3195,1.8091-.1716,4.3814.7825,5.3131-1.3195ZM230.2627,335.2149l-5.7507.8775c1.5353.343,5.5263,1.4678,5.7507-.8775ZM237.792,335.2169c-1.5255.0571-3.0845-.1281-4.6099.0363-.4278.0461-1.6658.1936-1.5867.8404,1.8478-.3305,4.9879.8699,6.1966-.8766Z"/>
  <path d="M213.2542,425.282c-12.0144-13.2996-12.4035-32.1169-2.1663-46.5683,21.3171-30.0923,70.2802-8.7584,66.1039,28.8893-3.508,31.623-44.6917,38.9837-63.9376,17.679ZM214.5993,417.7305c17.0594,23.7045,51.9928,10.5169,52.4434-17.6352.2011-12.568-8.6122-26.3553-21.1889-29.3305-27.4598-6.496-47.5496,24.3233-31.2545,46.9657ZM273.6566,400.306c-1.3507-.2511-.6788.4106-.9249,1.0416-.7819,2.0046-1.8924,3.8743-2.1695,6.0381,2.7554-1.6864,3.2337-4.0534,3.0944-7.0797ZM272.1687,410.3335c.4235-.5845.6529-1.3546.8392-2.046.0852-.3161.6126-1.7427-.2387-1.128-1.3531,2.2672-3.9852,3.973-3.9778,6.868l3.3774-3.6941ZM272.329,413.1465c-.7907-.168-1.0849.4058-1.5566.8743-1.1821,1.1739-3.0981,3.344-4.2005,4.6549-.418.4971-1.0737.7203-.8801,1.5508,2.3295-2.2446,5.5097-3.8437,6.6372-7.08ZM256.8318,429.9633c1.3454-.1424,3.1368-1.4155,4.2081-2.2078,1.1353-.8397,3.7619-3.1525,4.6474-4.2081.4171-.4971,1.0763-.7168.8813-1.5496l-9.7368,7.9655Z"/>
  <path class="cls-2" d="M292.4147,250.8072c-11.479,9.5371-25.2736,21.7424-31.535,35.5409-6.1548,13.5635-5.7473,29.0263-7.2506,43.444-1.0336,1.0095-6.738.4387-8.5494.5316-7.3081.3748-14.7915.7146-22.1026.9222-10.7638.3056-8.1848-1.4359-8.6342-10.442-1.6152-32.3703,5.0785-55.3324,26.8214-79.4096,23.79-26.344,57.627-37.4121,57.1218-79.1627-.3805-31.441-24.1031-53.2845-54.5203-56.3763-35.8016-3.6391-65.5546,17.3835-74.1148,52.0704-.902,3.655-.2425,11.018-5.0526,11.0913-3.1587.0482-8.2144-1.3005-11.6028-1.615-7.4417-.6907-15.1616-.7178-22.5407-1.8123-1.2981-.1925-2.6869-.7642-3.5825-1.7326-1.254,2.0707-2.9918.6526-3.2639-1.5954-1.5743-13.0094,7.6146-34.5328,14.8183-45.3015,35.7406-53.4272,106.7514-68.0411,163.0715-38.2854,35.1131,18.5514,52.3848,46.8699,48.7568,87.1699-3.6381,40.413-29.1037,61.0871-57.8404,84.9624Z"/>
  <path class="cls-1" d="M338.1167,219.9016c-2.5545,2.9369-6.0928,5.4321-8.9017,8.146-10.874,10.5059-21.866,19.6334-33.652,29.2231-7.5265,6.1239-15.7665,11.3609-22.3439,18.6089l.8802-1.5508c4.2387-4.1451,8.4123-8.4568,12.8356-12.4029,12.1186-10.8114,25.6668-20.0459,37.6488-30.9824,6.7242-6.1375,12.868-12.8206,18.8142-19.7078.654.3393-.0939,1.0687-.3137,1.4576-1.2091,2.1397-3.3697,5.3713-4.9675,7.2083Z"/>
  <path class="cls-1" d="M220.0785,112.4954l-4.0122,3.7319c-16.6026,7.2385-25.6478,18.0136-36.4649,31.7358-.3666.465.0141,1.1158-1.1419.8337,1.4241-2.4349,2.3259-4.856,4.0102-7.1703,4.3363-5.9584,11.2768-12.6407,17.2824-16.9177l20.3264-12.2135Z"/>
  <path class="cls-1" d="M332.3671,221.2477c-2.389,2.4933-6.0802,6.192-8.6717,8.3647-.3507.294-.8871,1.1617-1.3297.4415l7.5135-7.541,21.2608-26.7765c-1.0709,2.5641-2.2501,5.6435-3.7957,7.9335-3.5312,5.2323-10.505,12.9104-14.9772,17.5778Z"/>
  <path class="cls-1" d="M286.0552,267.0284l-20.3635,21.249,2.5246-5.1789c4.5154-5.0047,9.708-10.044,14.9722-14.2921.7789-.6286,1.878-1.6368,2.8667-1.778Z"/>
  <path class="cls-1" d="M348.3198,196.9026c-.4028.5704-1.1358,1.3713-1.6648,2.0898-.3027.4111-.9041,1.3814-.8177.0734,3.1275-5.1822,5.2283-11.1734,9.2876-15.7274-.522,4.7594-4.053,9.6676-6.8051,13.5642Z"/>
  <path class="cls-1" d="M180.4892,151.7196c-1.5751,2.1661-3.3752,4.1707-4.91,6.378-.412-.5521.2196-2.0824.4937-2.6058,1.4123-2.6965,6.4765-9.3323,8.5985-11.7693.4877-.5601,1.0674-1.2648,1.7535-1.5629-1.3774,3.3788-3.7895,6.6083-5.9358,9.5599Z"/>
  <path class="cls-1" d="M354.2382,174.9221l.1038-4.9904,3.4395-6.5164c1.0773,4.9359-2.1505,7.3068-3.5433,11.5068Z"/>
  <path class="cls-1" d="M352.4659,184.6653l-.8715-.2122c.9799-4.1014,2.3445-7.7473,5.3016-10.8559-.0399,4.3611-2.9201,7.2673-4.4301,11.068Z"/>
  <path class="cls-1" d="M174.026,166.5093c-.7831.1117-.4494-1.0095-.3359-1.4423.957-3.6496,4.6131-8.4784,7.4216-10.9522l-7.0857,12.3945Z"/>
  <path class="cls-1" d="M263.4779,294.9192c.0476-1.127.7989-3.0037,1.4604-3.8514.2563-.3285,1.0289-.5082,1.4294-.991,1.8307-2.2068,3.6054-4.5044,5.9571-6.2269.1294,2.2995-1.7928,2.8413-2.8287,4.0299-2.0255,2.324-3.858,4.8365-6.0182,7.0394Z"/>
  <path class="cls-1" d="M173.1504,171.8259l.4133-2.0176,5.334-8.164c-.6475,3.9369-2.7887,7.5949-5.7473,10.1816Z"/>
  <path class="cls-1" d="M355.5653,164.297c-.7643.0156-.9469.2528-.8444-.6196.3322-2.8263,1.4474-5.73,3.5035-7.7915.7993,3.556-1.7567,5.3606-2.6591,8.4111Z"/>
  <path class="cls-1" d="M355.1293,150.351c.0372-.1278,1.4026-1.7812,1.7667-1.9904l.4613,3.3333-2.228,5.0774c.3129-1.7217-.429-4.9452,0-6.4203Z"/>
  <path class="cls-1" d="M213.4368,114.2687l-10.1793,6.1923c-.1202-.9391,1.3185-1.6353,2.0087-2.1943,2.391-1.9367,5.1686-3.2382,8.1706-3.9979Z"/>
  <path class="cls-1" d="M259.4929,321.0434c-.2482-2.6115,1.344-5.6057,3.0905-7.5272.0467,2.523-1.3961,5.7216-3.0905,7.5272Z"/>
  <path class="cls-1" d="M264.1732,298.2755c-.5368.6133-1.3061,1.2291-1.8089,1.9549.0071-3.1877,4.3284-5.6494,5.9755-8.4104-.4147,2.3088-2.6077,4.6744-4.1666,6.4555Z"/>
  <path class="cls-1" d="M260.8213,306.8744c-.4248-2.9536,2.1379-4.8222,3.9762-6.6415-.5431,2.3253-2.235,5.0578-3.9762,6.6415Z"/>
  <path class="cls-1" d="M259.0479,332.9963c-.2543-.255,1.7074-5.7795,2.65-6.1966-.2818,2.0316.3546,6.437-2.65,6.1966Z"/>
  <path class="cls-1" d="M263.916,306.436l-3.9806,7.5226c.2696-2.8876.9497-4.5384,2.8292-6.696.3732-.4284.0022-1.1212,1.1514-.8266Z"/>
  <path class="cls-1" d="M167.8296,174.9222c-.8295.2156-4.839.4874-4.8587-.6609,1.1654-1.7335,4.6856-1.703,4.8587.6609Z"/>
  <path class="cls-1" d="M259.4829,328.1247c-.8259-.0204-.3393-2.4973-.2125-2.8878.3379-1.0416,2.0537-3.6982,2.8703-4.6361.4345,2.9624-2.378,4.6895-2.6578,7.524Z"/>
  <path class="cls-1" d="M147.9051,171.3878c-.6831,1.2041-3.4241.9885-4.6536.8807-.8205-.0719-2.335-.1624-1.9835-1.3257l6.6371.4451Z"/>
  <path class="cls-1" d="M140.378,170.4998c-.0182,2.272-5.5743,1.7857-4.1997-.4501l4.1997.4501Z"/>
  <path class="cls-1" d="M226.2797,111.612c-1.3643,1.6399-3.7003,2.6838-5.7558,3.0908,1.5708-2.0068,3.094-3.0994,5.7558-3.0908Z"/>
  <path class="cls-1" d="M158.0909,172.2735c-.9299,1.8572-3.2611.8271-4.8709.8782.4031-2.455,3.3065-1.1345,4.8709-.8782Z"/>
  <path class="cls-1" d="M249.7471,334.7741c-.9318,2.1021-3.504,1.1479-5.3131,1.3195,1.0438-1.8837,3.5291-1.2425,5.3131-1.3195Z"/>
  <path class="cls-1" d="M190.8571,129.3233c-1.3187,2.2347-3.4191,4.3715-5.3089,6.1944l1.5392-2.6627,3.7697-3.5317Z"/>
  <path class="cls-1" d="M230.2627,335.2149c-.2243,2.3453-4.2154,1.2205-5.7507.8775l5.7507-.8775Z"/>
  <path class="cls-1" d="M232.0328,111.1704c-.3403.6677-1.9639,1.2767-2.6623,1.5356-.8552.3171-1.6996.7435-2.6478.6682,1.2665-1.5258,3.2148-2.9407,5.3101-2.2039Z"/>
  <path class="cls-1" d="M237.792,335.2169c-1.2087,1.7465-4.3488.5462-6.1966.8766-.079-.6468,1.1589-.7943,1.5867-.8404,1.5254-.1644,3.0844.0208,4.6099-.0363Z"/>
  <path class="cls-2" d="M214.5993,417.7305c-16.2951-22.6425,3.7947-53.4618,31.2545-46.9657,12.5767,2.9752,21.39,16.7625,21.1889,29.3305-.4506,28.1522-35.3839,41.3397-52.4434,17.6352Z"/>
  <path class="cls-1" d="M256.8318,429.9633l9.7368-7.9655c.195.8328-.4642,1.0525-.8813,1.5496-.8855,1.0555-3.5121,3.3684-4.6474,4.2081-1.0713.7923-2.8627,2.0653-4.2081,2.2078Z"/>
  <path class="cls-1" d="M273.6566,400.306c.1393,3.0263-.3389,5.3933-3.0944,7.0797.2771-2.1638,1.3876-4.0335,2.1695-6.0381.2461-.631-.4257-1.2927.9249-1.0416Z"/>
  <path class="cls-1" d="M272.1687,410.3335l-3.3774,3.6941c-.0074-2.895,2.6248-4.6008,3.9778-6.868.8514-.6148.3239.8118.2387,1.128-.1863.6914-.4157,1.4615-.8392,2.046Z"/>
  <path class="cls-1" d="M272.329,413.1465c-1.1275,3.2363-4.3077,4.8353-6.6372,7.08-.1936-.8305.4621-1.0537.8801-1.5508,1.1024-1.3109,3.0184-3.481,4.2005-4.6549.4717-.4685.7659-1.0423,1.5566-.8743Z"/>
</svg>