<?xml version="1.0" encoding="UTF-8"?>
<svg id="Layer_1" data-name="Layer 1" xmlns="http://www.w3.org/2000/svg" viewBox="0 0 480 496">
  <defs>
    <style>
      .cls-1 {
        fill: #fff;
      }

      .cls-2 {
        fill: #ee2b2f;
      }
    </style>
  </defs>
  <path d="M216.2058,96.7811c4.5664,5.2726,7.343,12.3434,8.5429,19.1786,6.795,1.7109,12.9052,3.4352,19.0472,6.884,30.1004,16.9017,33.9671,45.0555,35.7601,76.5937.4147,7.2946.1885,14.6046.7826,21.8854.5809-.2858,1.059-.3935,1.7174-.4098,4.6855-.1162,10.1226-.2303,14.7675.0114,4.7912.2494,8.3555.9567,8.71,6.5806l3.0854.0187c.2461-11.6862,6.9751-24.8735,15.6993-32.5353,4.1467-3.6417,10.527-5.8857,11.0343-12.016-2.2763-.1228-3.6271-1.8662-3.877-4.073-.3338-2.9472-.2913-10.124.1178-13.0577.4181-2.9982,1.9641-4.9936,5.1109-5.3459,4.7398-.5307,10.1129.2054,14.891.2622,5.614.0668,14.8619-2.6111,15.5367,5.3432.2329,2.745.3982,10.6746-.0371,13.1623-.0899.5139-.9459,2.1893-1.3165,2.5571-.5709.5666-2.3987,1.061-2.491,1.1975-.1715.2535.1547,2.724.3143,3.2374.9993,3.2146,4.9809,4.6661,7.574,6.7962,11.9876,9.847,21.2985,26.9478,19.1838,42.7953-.944,7.074-5.5427,12.1332-3.2854,19.179.4026,1.2567,1.4217,2.5903,1.9274,3.8842,2.2028,5.6364,2.4186,21.2662,1.2715,27.2158-.2875,1.4909-1.7556,4.0203-1.8338,5.1505-.0998,1.4419,1.671,3.5512,2.0646,5.1753.7934,3.2735.9112,21.6984.4034,25.656-.2458,1.9159-1.6278,4.3206-1.6448,5.5573-.0259,1.8821,1.6468,4.1957,1.8778,6.2045.3107,2.7027-.0215,9.0324-.2158,12.0128-.4334,6.6475-.7925,13.5638-6.3716,18.0099l17.6475-1.8771,1.7164.9123-1.3407,1.1889-19.7444,1.7392-11.4496,3.8479,35.4503-3.1291c1.4982.0833,1.5955.7424.8714,1.8853-8.4794,1.3433-17.1364,1.246-25.668,2.0254-15.2463,1.3929-30.5656,3.4151-45.6544,5.867-1.9984.3247-7.9078,1.0487-9.2597,1.593-1.066.4291-2.6713,2.631-3.7822,3.3814,5.4705-.5833,10.9619-1.1057,16.3992-1.7078,1.5828-.1753,5.9204-1.8086,4.264,1.3586-17.01,2.6631-34.3327,3.1178-51.4179,5.4388-9.5859,1.3022-19.3227,2.9185-28.8333,4.4887-4.2231.6972-9.9109,2.5156-13.8778,2.8167-1.0094.0766-1.4701-.1571-2.0749-.9619,2.1215-2.1707,5.5383-1.6661,8.257-2.1843,8.0277-1.5301,15.8855-2.7879,23.9345-4.0603,4.7641-.7531,9.4491-2.0816,14.2903-2.0892.0902-.676-.8799-.364-1.3501-.3833-4.0983-.1683-8.2838-.009-12.3753-.0008-21.025.0419-40.7385,5.8727-61.3187,9.9896l-5.9243,3.9546,15.3728-2.6323c1.2121-.0093,1.6209,1.5551.3617,1.9318-4.6901.896-9.3906,1.7771-14.1055,2.5292-6.2369.9949-12.5874,1.5112-18.8162,2.4923-6.82,1.0741-15.2847,3.6122-21.8886,3.9868-.5425.0308-1.064-.1637-1.6038-.1701-.1289-.6017.1815-.8103.575-1.164,1.3697-1.2312,8.5638-1.8218,10.8371-2.3093.5601-.1201,1.2206-.0268,1.3708-.7821-3.385.3299-7.4059-1.3103-10.6564-1.1914-3.3415.1222-7.6752,2.163-10.848,2.5393-.492.0583-1.1659-.262-1.723-.2107l.2089-1.5689,9.0693-1.9005-6.4192-3.0986c-4.2738.2267-8.6364,2.3576-12.8144,2.6759-.676.0515-1.3415.2299-1.9009-.3281l-.1711-1.1774,12.784-2.721-2.572-3.9031c-6.3803,1.2706-12.7294,2.524-19.1371,3.7002-1.0045.1844-2.175.8124-2.9967.9139-2.4986.3086-2.9621-2.1689-.8671-1.092l.2509-1.1834,22.2111-3.8662.3972-3.4743-7.571,1.9108c-7.228.2819-14.3783,1.3302-21.4078,2.6264-3.7109.6842-8.6155,2.4207-12.2729,2.4493-1.5051.0118.0039-2.064.7667-1.9845l15.3022-2.8712-9.1228-2.0976c-2.745,1.7052-6.1357,1.6472-9.2272,2.3228-1.9274.4212-9.5012,3.007-10.5307,1.5338l-.1751-1.1761,16.6579-3.4946-4.6461-2.5156c-.8234-.2851-8.5674,1.1772-10.1641,1.4599-3.1851.5639-10.1766,2.7537-12.8808,2.7924-.5039.0072-2.1018-.2872-2.1293-.7619l1.4936-1.5223c5.686-1.364,11.903-1.8311,17.5688-3.041.5942-.1269,3.344-.7052,3.3817-1.2466l-1.313-2.4141c-5.0048.6376-9.9795,1.9406-14.9399,2.2146l.6815-1.5419,14.0391-2.331-.3944-29.8271c-.3989-.3598-5.2084,1.3062-6.1116,1.4662-.604.107-1.1623-.1503-1.6875-.0902-1.5646.179-2.995,1.3829-4.1968-.4115-.0107-1.3434,5.3661-1.3227,6.3217-1.5033,1.9378-.3663,4.101-1.052,6.0718-1.4063-.7527-.9976.4745-4.2168-.8159-4.0976-.4105.0379-1.7289.3163-2.2911.4231-6.5449,1.2434-13.0904,2.9966-19.6024,4.4268-.4313-.0034-2.0699-.1897-1.6995-.9376,1.2743-1.5747,3.3423-1.1582,4.828-1.5795,5.1355-1.4563,12.6652-3.5576,17.8884-4.0072.4695-.0404.8908.1636,1.2968.3532l.3891-1.5362-3.9011-1.7724c-5.9209,1.2057-11.9428,1.9012-17.8809,3.0243-3.3245.6288-6.8827,1.917-10.154,2.4062-.8704.1302-2.893.5821-3.3136-.383-.4314-.99,1.5183-1.5638,2.1636-1.7063,8.0403-1.7753,17.3224-2.4444,25.0364-4.4124.426-.1087,1.3655-.1629,1.0757-.8465l-2.8813-2.3646c-4.0917.6767-8.2301,1.1962-12.323,1.874-1.2401.2054-6.9898,1.8299-7.6515,1.0627-.0322-.6234-.135-.9024.3994-1.3411,1.3975-1.1472,14.9565-2.5679,18.0017-3.3131.2825-.0691.8921.1503.5805-.5671-.3327-.7658-2.0417-1.9715-2.1744-3.3223-13.7843.3474-23.2198-9.5501-26.4643-22.2808-7.5936-29.7954,3.498-70.0878,24.5948-92.3526,2.2075-23.0966,6.1896-48.4809,18.8423-68.3288,8.7895-13.7878,20.0616-22.3126,36.0612-26.3605.5728-.1449.9176-.1407,1.4435.1402,1.2567-9.6866,7.9193-20.3117,16.403-25.2521,12.4037-7.2232,34.8885-5.9133,44.6096,5.3114ZM212.6994,100.6705c-11.757-14.5191-39.1103-9.3907-48.139,6.2345-1.8067,3.1268-2.7149,6.4487-3.9399,9.8096l10.0215-.437c1.6049-10.5368,9.5237-17.9624,19.898-19.4548,12.7591-1.8354,26.002,3.8597,25.8674,18.3473l2.7138-.0057c-1.4115-5.3975-2.9117-10.1591-6.4218-14.4938ZM210.2085,114.7787c-.3893-14.5691-20.739-14.5289-29.4082-7.5185-1.7455,1.4115-4.3711,5.0201-4.3242,7.3305.0165.8137.714.7424,1.3775.7461,6.3844.036,12.8824-1.0713,19.378-1.1135,4.2944-.0279,8.7225.1318,12.9768.5554ZM243.9136,129.5079c-7.1287-3.3824-14.618-6.1379-22.3747-7.6441-21.2977-4.1357-43.0178-.657-64.4919-.0016-48.3314,6.7538-53.2854,79.1959-54.3801,116.9486-.0553,1.9088-1.089,8.7916-.3525,10.0169,7.7069,4.4967,16.2657,7.4187,24.9829,9.3008.3303-19.3393,1.214-39.119,3.9302-58.2554.6074-4.2794,1.3809-9.1094,2.1673-13.3417.732-3.9392,2.8115-8.1709,2.0453-12.0876l.9809.0173c3.7917-15.5916,13.9138-32.4036,28.3364-40.2394,23.8645-12.9656,52.5445-9.9587,77.8951-4.4207.3894.0851,1.3602.3915,1.2609-.2932ZM254.9583,220.9357h18.9839c.0884,0,.5161.7349.5829.1923.0665-4.08-.4972-8.1197-.6428-12.1824-.6295-17.5692-1.6595-48.8658-13.6855-62.4896-16.1344-18.278-63.3667-18.2939-84.4542-10.1599-26.4965,10.2204-33.3038,29.8852-37.7857,55.9641-4.9414,28.7526-4.8488,56.3362-5.0553,85.3482-.0625,8.7845-.5602,17.4637-.5659,26.2386l13.9467-.3905c-.1072-4.9475-.3901-9.9304-.3255-14.8787.1541-11.7954.3254-25.5444,1.4934-37.2261,1.2533-12.5355,3.2997-18.6423,16.6157-21.2639,13.5555-2.6687,32.6891-2.8181,46.7022-2.9663,13.1352-.1389,26.3184.8738,39.4958.4213.7685-3.1255,1.532-5.2627,4.6942-6.6072ZM336.8991,165.921v11.2354c.9659-.0747,2.0295.9331,2.6267-.1762l-.3047-11.4452-2.3219.3861ZM345.0351,177.5439v-12.0102l-3.1016.3855c.122,3.885-.1535,7.7814.4024,11.6128l2.6992.0119ZM350.4591,165.5336l-2.8553.0923-.5938.539c.4683,3.781.0951,7.5776-.0396,11.3806l3.4887-.0017v-12.0102ZM356.6579,165.5336l-3.8716.0009c.2507,3.9968-.3733,8.0049.0138,11.9934l3.8578.016v-12.0102ZM358.595,165.921v11.6228l3.145-.6178.188-10.0547c-.1696-1.2084-2.4046-.9813-3.333-.9503ZM358.2096,182.9655l-18.2126.0007c.2362,3.2908-.3987,6.1198-2.7103,8.5212l23.2454-.3874c-1.8815-2.236-2.326-5.2633-2.3225-8.1345ZM384.9401,235.8516v-5.6177c-6.2844,1.5543-12.712,2.5105-19.1762,2.8824-4.3963.253-10.344.393-14.6911.1471-2.374-.1343-7.59.1567-7.2012-3.0277,5.0968-.1314,10.2289.1654,15.3269.0113,8.6253-.2607,17.2199-1.3388,25.7425-2.7272-1.3202-7.5283-5.0238-15.4596-9.5194-21.6671-2.2515-3.1089-7.8492-8.5664-11.0437-10.6379-2.0312-1.3172-8.3858.2676-11.0047.3342-3.4005.0865-7.4552-.0431-10.8822-.1847-2.2477-.0929-7.8957-1.2862-9.4601-.5734-.3029.138-4.0646,3.3312-4.6606,3.8624-8.2168,7.3221-14.1334,17.7167-14.7184,28.8701,6.1513.1844,12.6934-.1101,18.8059.3722,3.263.2575,7.6808,2.0714,8.861,5.3956.3165.8916.5479,4.1279.6037,5.2719.2674,5.4821-.3484,12.2761-.765,17.8208-1.5634,20.8057-4.9328,41.5339-6.5981,62.3696l.3977.5858,6.1921-9.5c.7305-.3736,1.4429-.3319,1.9393.3957l-8.7312,11.7957-1.3287,10.0964c3.6855-4.1915,7.1362-8.4542,10.6274-12.8068.8018-.9996,1.8907-3.0273,2.7118-3.8767.5411-.5598,1.4016-1.1445,2.1444-.5585-.0294.6423-1.4474,2.708-1.9396,3.3903-3.9568,5.484-9.0924,11.0466-13.5727,16.0541l-1.5213,10.9699c2.2321-2.6069,4.0853-5.5269,6.2169-8.2153,2.8137-3.5487,7.5301-9.743,10.6685-12.6691,2.4542-2.2882,2.7996.9402-.0351,2.713-.448.2802-.9423-.0791-.9665-.0372-.1085.1876.329.7171.1679,1.1733-.4264,1.2077-6.5696,7.4822-7.9085,9.1041-2.6246,3.1795-4.873,6.6683-7.9316,9.5177l-1.1852,10.035c.9256-1.0026,2.0089-1.8783,2.8991-2.9123,3.7772-4.3876,7.7783-10.5775,11.8093-14.5354.7194-.7063,2.1121-1.761,2.1414-.1958.015.8017-1.4165,2.3754-1.948,3.1009-4.2354,5.7803-9.5154,11.3635-14.5143,16.4803l-.5753-.7715c-.4756,2.9259.8284,3.7518,3.2754,4.661,10.6144,3.944,37.3174,5.044,46.2812-2.5623,7.1918-6.1027,4.2881-16.601,5.4178-24.7245l-1.1282-6.8226c-4.4386,1.5303-9.0341,2.6837-13.7535,3.0991-1.1879.1046-6.8701.822-6.6958-1.3614.1968-.4198.5398-.721.9813-.8679,2.755-.917,7.4722-.7342,10.628-1.368,3.0293-.6084,5.8425-1.7641,8.7686-2.6707.946-2.5147.9407-5.204,1.0183-7.8711.1495-5.138.4708-18.1452-1.146-22.2693-.4792-1.2222-1.3051-2.2525-1.7728-3.472-2.7036.8228-5.548,1.4423-8.3454,1.862-6.6759,1.0015-23.4918,2.2814-29.3358.6889-1.1013-.3001-2.9588-1.7378-1.5419-2.6081,1.1919-.7321,10.9376.0897,13.1333.0441,6.3087-.1311,14.5733-.9554,20.7984-2.0447,2.0278-.3548,6.3642-.9424,7.3443-2.7299,1.9029-3.4706-.0225-12.689.694-16.9288-9.9373,2.5787-20.3514,3.6963-30.5687,3.1593l-.2297.7183c-.2396-1.244-1.2319-.3489-2.3071-.4193-1.8004-.1179-8.4294.0091-8.2668-2.1109.1303-1.6983,5.9927-.5824,7.4611-.5622,9.0884.1252,21.6775-.0094,30.3428-2.614,1.8265-.549,3.5595-.5423,3.605-2.6252.109-4.9825-5.8073-10.7132-4.299-16.4675-5.0025.9658-10.1639,1.7071-15.2828,1.9173-3.6535.15-8.8589.3286-12.4312.0342-2.0975-.1729-6.9895-.2619-6.373-3.1075,8.3172.4674,16.6496.6389,24.9319-.4516,2.0893-.2751,7.6776-.826,9.2678-1.5769,1.3272-.6268,3.1575-8.5427,4.1517-10.1831ZM88.5622,237.2074c3.0904-3.8055,6.8003-7.3315,7.7409-12.3974-3.1882,3.8547-6.5873,7.3338-7.7409,12.3974ZM300.0936,236.4328v-9.492l-43.9146-.6002c-.444,1.1982-.6136,3.4336-.6589,4.8435-.0602,1.8728.0843,3.7678.0174,5.6381l44.5561-.3894ZM94.9043,235.0259c.2255-.3106.8316-.4,1.1158-1.0026.2956-.6266.6374-2.2779.4824-3.0125-2.8425,3.0509-5.3751,6.3885-8.0802,9.5484-.5098.5955-2.7038,2.2711-2.9869,2.7278-.5502.8875-.9761,3.6084-1.1349,4.7686.7623-.8982,2.4684-2.0899,3.1039-2.894,2.5294-3.2003,5.0666-6.7843,7.4997-10.1357ZM221.0583,232.9497c-9.2667.0113-18.6804-.3898-27.9442.2293-8.8371.5906-20.0996,1.7532-25.8415,9.3253-2.5717,3.3914-3.6071,7.5181-3.5511,11.7482l53.6026-1.2143,3.7343-20.0885ZM168.753,234.1093c-1.581.3427-3.1225.1768-4.7338.4961-8.5564,1.6955-10.5394,8.7533-11.1198,16.4975l5.7813,1.9877c-.1156-4.8996,1.0283-9.9634,4.2547-13.7612l5.8177-5.2201ZM221.4459,377.4562l12.5671.4018c25.267-1.3944,51.7065,1.4222,76.7637-.0121,5.4314-.3109,8.5133-1.6554,9.7579-7.2623,1.8911-8.5199,2.1221-19.2683,3.0429-28.0355,3.3532-31.9274,7.5943-63.7187,11.3375-95.508.3311-2.8116,1.5559-9.7334-.9728-11.3309-4.1521-2.6231-16.6076-1.2371-22.0175-1.2348-2.2489.0009-4.5549-.2137-6.794-.363,1.2654,2.5474-.6281,7.6601-3.3796,8.4308-16.0455-.1469-32.2448.6089-48.1705-.0822-2.4156-1.5903-4.4363-4.426-3.5129-7.3944l-.532-.4845c-3.8389,1.237-20.667-.8734-22.9376.8064-.5692.4211-1.0537,2.116-1.2407,2.8533-.8735,3.4447-1.1505,8.9856-1.5769,12.7302-2.5247,22.1689-3.6193,44.4899-6.2411,66.6338.07,1.6953,3.9065,2.7001,3.9065,4.643v55.2083ZM94.9955,240.9397c.748-1.2322.9434-2.2812.9202-3.7321-2.8933,2.3188-4.6824,5.8589-6.9775,8.7094-2.6227,3.2573-6.6119,5.7656-6.9622,10.2743,2.0953-1.6505,3.4184-4.1229,5.1693-6.0621,2.8502-3.1569,5.5068-5.3289,7.8503-9.1895ZM79.2638,267.4266c3.5722-3.5532,6.1261-7.8958,9.3044-11.8064.7622-.9378,3.2978-3.0924,3.6567-3.7044.7364-1.2558.9619-4.6302,1.7538-6.1845l-13.1634,15.0027-1.5514,6.6927ZM335.7325,259.2886l1.1627-6.9713c-.7523.5678-1.1097,2.3144-1.2717,3.171-.1366.7224-.2747,1.6993-.2764,2.4224-.0011.4575-.2903,1.4675.3853,1.3779ZM98.6312,311.5898c-.3409-2.17-.9544-4.6255-1.1574-6.7808-.4207-4.4668-.5588-9.1249-.7138-13.61-.4377-12.6661.1173-25.4663.128-38.1108-5.2563,17.8902-14.3271,42.5369.8572,58.0098.2156.2197-.0207.7654.886.4918ZM88.4177,263.4183c.5925-.9644,1.8952-5.1034,2.2888-6.4348.0806-.2725.5224-1.5305-.2133-.99-1.8222,2.1879-3.2977,4.7481-5.0421,6.9701-1.6624,2.1176-5.1374,5.4221-6.353,7.5943-.8791,1.5709-.4244,3.3658-.999,5.0021.8735.3021.6993-.3285.8406-.4372,1.1985-.9216,8.5233-10.1509,9.4779-11.7046ZM102.8868,255.812l-.7703.1871-.3845,17.624,1.5281-1.4625c.7217-1.119,5.2889-7.4696,6.0279-7.436.5749.3924.5945.7143.6103,1.3637.0168.692-6.9613,8.5535-7.8079,10.0276l-.3591,7.5794,10.2636-12.8172.6006-.1958,1.1385.8127c-3.902,4.6579-7.0936,10.2936-11.8085,14.1611l-.1935,8.1128,9.7904-10.8657,6.2084-8.3827c.533-.3603,1.9168-1.0868,1.8378.0839-.0867,1.285-4.3593,6.6427-5.4613,8.012-3.6697,4.5602-8.002,8.6188-11.9234,12.9516l.3258,9.4373,3.1166-4.7275,13.9206-16.0063,1.152.4158c.0597,1.6679-1.107,1.6914-1.7432,2.4728-5.2592,6.4597-10.4861,12.9554-16.2234,18.9963l.5522,6.21,2.9469-3.8273c4.6236-4.3233,8.1035-9.2782,12.3568-13.988.6564-.7268,1.7-2.7866,2.4762-2.9459,2.5662-.5267.0051,2.4978-.584,3.2864-2.8979,3.8799-6.783,8.426-10.0284,12.0568-2.167,2.4243-4.5853,4.7392-6.9739,6.9395.3891,2.5098.3473,5.2843,1.9315,7.3895l6.9656-8.9558c2.0814-.0267,1.3127-.688,2.1386-1.7013,2.9727-3.647,7.9716-4.8202,12.4023-5.6203l-.0095-40.6669c-2.8975-.3806-6.1262-.8619-8.9048-1.7493-4.3966-1.4042-10.6073-4.0238-14.8142-6.03-.4517-.2154-.2679-.7163-.3009-.742ZM157.8538,258.5702l-5.3661-2.3786-1.203,28.8664.4267,18.7858,5.8069.0015.3354-45.2752ZM170.6929,274.9817v-15.3034l-7.3625-.3893-.7352,45.2936c3.1929.6032,12.8633,3.2986,13.5044,6.8347.106.5844-.0254,4.838.2163,4.8309,4.7344-1.1375,9.6228-1.774,14.5007-1.5649.0983-1.9905,2.0807-3.1843,3.1077-4.5461,1.1825-1.5681,1.7883-4.6584,4.274-3.9657.8311.7696-4.9867,6.8835-5.4219,8.1301l4.3822-.0693c1.4233-1.2384,7.6661-10.4097,8.9864-10.3779.5738.0138.606.941.3761,1.5285-.9456,2.4173-5.4634,6.6439-7.1583,8.9184l5.3252.522c1.0722-.9355,3.3133-5.4973,4.9347-5.1666.7781.5884.5223.6029.1318,1.2845-.7885,1.3764-2.5255,2.775-3.4181,4.1353l5.6014,1.1776,6.0212-57.3469-34.8376.414c-.5523.484.015,11.0529-.1158,12.8219-.2207,2.9857-.5109,4.5775-3.85,5.1034-.9126.1437-6.3676.0353-6.9191-.364-.0992-.0718-1.5098-1.7833-1.5435-1.901ZM178.4376,259.2906l-2.8453.0508-.4611.3261-.1785,12.7979h3.4908s-.0059-13.1748-.0059-13.1748ZM78.0929,282.5336c.8726-1.3896,2.0727-3.2143,3.113-4.4438,2.3179-2.7395,4.1097-3.6843,5.3121-7.0859.4211-1.1914.9243-2.3666,1.2618-3.5768l-9.2946,9.9586c-.421.803-.565,2.8767-.6628,3.9098-.0403.4257-.4603,1.3167.2706,1.2381ZM333.7954,278.2725c.6251-3.4527,1.6201-6.9217,1.5501-10.4562l-1.8923,7.5933.3422,2.8629ZM78.478,289.1198c.2973-.885.8562-1.9234,1.3996-2.6732.9518-1.3133,4.1693-4.5906,4.5938-5.4789.5445-1.1393.7337-3.6741.9837-5.0174l-7.6615,8.2147-.085,4.7628.7694.192ZM333.0208,290.2831l.7749-6.5823c-.53-.0951-.5864.6912-.6676,1.0664-.1906.8809-.4192,2.4857-.4857,3.3921-.0338.4603-.3254,2.1197.3783,2.1238ZM82.6402,291.7283c1.3088-1.4085.7105-5.3282,1.2652-7.2546-1.031,1.4207-5.5743,6.2892-5.8084,7.5712-.2409,1.319.4114,2.77.5803,4.0497.9883-1.1154,1.6868-2.6387,2.6316-3.7621.2882-.3427,1.008-.2563,1.3313-.6043ZM330.6954,304.617c1.3438-4.1348,1.8573-8.457,2.3254-12.7803-.5934-.0942-.4563.7238-.5693,1.164-.849,3.3086-1.4963,7.0579-1.9601,10.4434-.056.4086-.5312,1.2594.204,1.1729ZM81.345,300.8891c2.2297-2.5608,4.0528-5.2797,1.9813-8.665l-4.3669,6.4377.6921,4.0209c.8387-.2925,1.171-1.1934,1.6936-1.7936ZM81.9662,307.3316c1.4634-2.9418,5.5243-4.8296,2.9097-8.5212-.7663,2.7757-6.2501,5.8011-2.9097,8.5212ZM87.0066,303.8433c-.8976-.2196-.638.1807-.8842.4919-1.1998,1.5165-1.8404,3.4799-3.3362,4.8166l1.5163,3.2156.7955-.2383c.1079-1.3831,2.4572-4.5619,2.609-5.4476.1021-.5959-1.0498-1.8902-.7003-2.838ZM118.7775,313.9108c5.5359,3.6428,12.3141,4.4913,18.7941,5.0387,8.8901.751,24.3347.2464,31.8404-4.5687.4739-.304.9295-.5833,1.2731-1.0439-9.146-4.8018-19.8196-5.6572-30.0338-5.2462-5.4695.2201-14.4805,1.006-19.2864,3.5718-.4422.2361-2.8325,1.8991-2.5874,2.2483ZM87.3893,315.4687l2.7249-5.2368-1.364-1.7359c-.5956,2.2699-5.012,5.8438-1.3609,6.9726ZM328.7588,322.0518c1.0726-3.8373,2.2932-7.5725,2.3249-11.6186-.5576-.0556-.6284.9136-.7768,1.3462-.921,2.6857-1.7842,6.1232-1.8824,8.9439-.0159.4576-.3657,1.416.3343,1.3285ZM90.8788,318.1795l1.8691-4.5318-1.6729-2.4397c-.35,2.0219-1.4404,3.7961-2.8973,5.2282l2.7011,1.7434ZM113.3538,324.5724c.1817-3.25,0-6.7841,0-10.0731,0-.0898.7375-.5181.1898-.5831-.7996.0846-1.2166,1.7341-1.9676,2.6797-1.6624,2.0931-3.8652,4.0209-5.2109,6.4268.0027.5632,4.2048,5.7418,4.8631,6.0018.7445.294,1.1228-1.875,1.6242-2.2386.652-.8811.4605-1.4816.5014-2.2136ZM92.0444,318.9506l1.7473.7647c.3227-.9211,2.7331-3.1712,2.348-3.8686l-2.1527-1.5402-1.9427,4.6442ZM99.7899,320.5038c.3352-.5901-1.6704-2.9735-2.1529-3.0813-1.0297-.2302-1.1407,2.4704-2.4894,2.312-.1111.6276.5118.3492.9297.4384,1.2599.2689,2.4684.1368,3.7125.331ZM165.7341,324.4477c-.9995,1.7355,3.2972,3.1752,4.5569,3.626,10.0009,3.5785,33.4555,3.7304,43.2241-.5842,1.8337-.8099,3.7554-1.5595,2.1418-3.717-1.3785-1.8432-9.1182-3.5254-11.5563-3.9383-7.7521-1.3128-16.8642-1.2121-24.641-.0551-4.8044.7148-9.7674,1.7405-13.7256,4.6685ZM161.3946,322.8328c-5.2052,1.348-10.7124,1.7273-16.0612,1.7989-8.4205.1128-18.166-.4-25.6293-4.4831l-.8846.5759.1287,3.2648c12.5099,6.5304,28.0552,5.84,41.6494,3.4689l.797-4.6254ZM327.2118,336.0032c-.0724-2.109,1.1334-3.9915,1.5035-6.0514.1352-.7525.5328-2.2847-.1479-2.8593l-2.1215,8.7231.7659.1875ZM160.2287,331.3514c-11.0241,1.8871-23.4765,2.508-34.41-.2596-2.535-.6417-4.8892-1.3005-7.0371-2.8387l.7436,38.9636c7.8746,6.2204,18.7002,7.0244,28.3088,5.7833l12.3111-13.0593.4714-8.0541c-3.8735,4.0301-7.1089,8.7419-10.8493,12.8635-1.4263,1.5717-5.2632,5.945-6.7567,6.9131-.4757.3083-.7692.4795-1.3725.3671l.0758-1.2758c2.7459-2.8836,5.1595-6.0875,7.8064-9.0471,3.0627-3.4246,6.0831-6.5984,9.1359-10.034.4274-.481.9363-.7481,1.4937-1.028l.4664-7.6701c-2.4848,2.1859-17.7548,20.8727-19.1739,20.9132-.2523.0072-.8257-.8575-.5186-1.2792,6.1151-7.5263,12.5205-14.7885,19.462-21.5635l-.157-9.6943ZM166.0438,331.7398v6.0051c6.1197,3.1882,13.9292,4.4285,20.766,4.781,7.0933.3658,21.2094-.8111,27.3573-4.3112,2.8137-1.6019,2.2635-2.3489,2.256-5.4851-.0009-.3955.1696-1.2217-.2056-1.3753-1.1133.8445-3.0314,1.3865-4.4434,1.7554-11.2737,2.9458-24.3109,3.5656-35.7954,1.6739-3.4344-.5657-6.9462-1.1291-9.9349-3.0439ZM327.6006,341.0418c-1.1646-.1919-.6255.278-.7853.9365-.5488,2.2618-.8814,4.8707-1.1475,7.1938l1.062-3.0002.8708-5.1302ZM166.136,380.8542c3.6937,2.5478,8.2039,3.8221,12.6045,4.6326,12.7574,2.3496,25.51.6155,37.2956-4.7457l.1862-38.9292c-.5026-.6804-.4532-.1334-.7889-.0159-1.7071.5976-3.2777,1.5488-5.2238,2.1468-11.5001,3.5339-23.8249,3.5091-35.5658,1.0786-3.1736-.657-6.0184-1.5265-8.986-2.8185l.4783,38.6513ZM324.4971,362.3442c.9248-3.5568,1.706-7.1674,1.9376-10.8437l-1.8282,6.4957c.0401,1.0287-.3598,2.0906-.4445,3.0454-.0386.4349-.3603,1.3894.3352,1.3026ZM160.6186,361.9619l-10.068,11.2324c2.6292-.7604,5.7336-.2066,7.5562-2.7086,1.0181-.2805.3868.961.5778,1.1609l1.939-.3928c-.4837-2.921-.6715-6.3444-.005-9.292ZM335.7345,369.712l-6.5789-2.3316-.7794,3.8734c1.9244-.6638,3.9323-.5878,5.8982-.8796.3912-.0581,1.5434-.1116,1.46-.6623ZM353.1683,371.2586c-1.9816.9078-3.7393.0392-5.5989-.0171-6.6023-.1998-12.4812.7536-18.9517,1.6138l-1.0131,3.0509c8.1415-1.5738,16.3602-2.7279,24.5926-3.8855.7199-.1012,1.146.3904.9711-.7622ZM160.6198,379.7807v-5.424c-1.5446.8965-4.0373.718-5.404,1.376-1.4475.697-4.7738,6.0346-6.0143,6.2539-.1627.0288-.6056-.3852-.9806-.2725.7663-2.3028,2.8792-3.8583,4.2626-5.8041-11.0571,1.9533-22.7864,1.0926-33.1192-3.4962-1.0679,3.4409.8516,5.3716,3.7932,6.6675,6.6694,2.9381,18.3588,4.2742,25.6046,3.3702,3.8128-.4757,7.8939-2.5056,11.8576-2.6709ZM231.9046,383.659l-10.8479-.0058.0056,2.7136c3.0948-1.1209,6.5515-1.2638,9.7681-2.0481.3878-.0945,1.166-.1147,1.0742-.6597ZM259.4118,383.6589l-19.1346.4246c-6.3409,1.612-12.9694,2.7653-19.2401,4.0795l-.3625,3.6274,38.7372-8.1315ZM216.018,384.8174c-11.6552,5.122-26.6424,6.662-39.1397,4.0813-3.97-.8198-7.6016-2.3219-11.2199-4.0795-.5089,4.7064.1867,5.9158,4.2431,7.9569,8.5714,4.3128,22.5268,4.9248,31.8818,3.1791,5.4437-1.0158,15.5087-3.9786,14.2347-11.1377Z"/>
  <path d="M329.8582,386.065c1.0245-.0448,1.3272-.0333,1.9968.8831-.4075.5413-.7022.771-1.3713.9458-7.3784,1.9266-17.8502,1.9551-25.6725,3.0132-3.6779.4975-7.4396,1.0501-11.0913,1.6401-3.6709.5931-8.5301,2.1748-12.0886,2.3215-1.74.0717-1.7868-1.57-.1475-2.1223,3.8267-1.2892,9.7459-1.6329,13.7696-2.2909,11.0726-1.8107,23.4185-3.9011,34.6048-4.3904Z"/>
  <path d="M393.0749,374.3526c-4.6001,1.2014-9.4099,1.0598-14.1369,1.557-7.0496.7415-14.1102,1.8171-21.1803,2.4475-1.7726.1581-7.3724,1.1831-5.0992-1.6876l39.0792-3.8878,1.1662.3909.1709,1.18Z"/>
  <path d="M213.2371,403.1309c.4315-.0223.8964-.2474,1.369-.0627l.6391.9211c-.5654.8458-1.3535.9849-2.2462,1.2564-4.7473,1.4439-13.4178,2.0893-18.7418,2.9421-.9793.1569-5.7196,1.743-6.1282.0632-.3294-1.3542,2.2631-1.1015,2.7279-1.2424,5.7194-1.7331,16.3197-3.5651,22.3801-3.8777Z"/>
  <path class="cls-1" d="M221.4459,377.4562v-55.2083c0-1.9428-3.8365-2.9477-3.9065-4.643,2.6218-22.1439,3.7164-44.4649,6.2411-66.6338.4265-3.7446.7034-9.2855,1.5769-12.7302.187-.7373.6715-2.4323,1.2407-2.8533,2.2706-1.6797,19.0987.4307,22.9376-.8064l.532.4845c-.9233,2.9684,1.0973,5.8041,3.5129,7.3944,15.9258.6911,32.125-.0647,48.1705.0822,2.7514-.7707,4.645-5.8834,3.3796-8.4308,2.2391.1493,4.5451.364,6.794.363,5.4099-.0023,17.8655-1.3883,22.0175,1.2348,2.5287,1.5976,1.3039,8.5193.9728,11.3309-3.7432,31.7892-7.9843,63.5806-11.3375,95.508-.9208,8.7672-1.1518,19.5156-3.0429,28.0355-1.2445,5.6068-4.3265,6.9514-9.7579,7.2623-25.0572,1.4342-51.4967-1.3824-76.7637.0121l-12.5671-.4018ZM256.1568,260.6849c1.3849-1.9098,3.5525-4.3483,2.6774-6.8226-1.5691-2.6518-5.7637,2.568-6.9807,3.8735-2.8855,3.0953-5.5626,6.6656-7.944,10.0787-2.5065-1.5434-4.3612-9.5424-8.1521-6.8016-3.0979,2.2398.059,4.8317,1.1226,6.6707,1.7995,3.1113,3.9962,10.3816,8.1997,6.5245,2.7934-2.5632,8.6767-10.2132,11.077-13.5231ZM318.6336,262.4455c-1.2883-.6119-2.6286-.7337-4.025-.8063-13.3491-.6939-28.2436,1.324-41.8226.3653l-7.6646.3831c-1.0344.982-.909,2.7635.2751,3.5091,1.6286,1.0255,8.5524.1849,10.8703.198,12.1633.0689,25.1598.5835,37.1879-.0542,2.9941-.1587,6.0528.6049,5.1789-3.5949ZM256.558,285.501c1.2951-2.1816.6192-6.4615-2.5281-4.698-2.862,1.6036-8.0472,9.5018-10.5104,12.3782-.4454.5201-2.5166,2.943-2.9,2.9025-1.3014-1.3221-4.0032-6.8342-5.5038-7.2751-2.0976-.6164-3.9499,1.0225-3.5396,3.1271.1635.8386,6.1941,9.5149,7.0975,10.3728,1.2161,1.1548,2.4474,1.6295,3.9696.6437l13.9149-17.4512ZM313.9709,288.8017c-2.9515-.9091-5.8339-.1527-8.6764-.1409-13.7605.0571-27.6439.2348-41.4475.44-2.2949.0887-2.288,3.834-.0002,3.9183l48.4436-.5435,2.0796-1.3048-.3992-2.3692ZM240.711,331.6279l13.6032-19.1259c2.1377-3.7648-1.4187-5.0711-4.0033-2.4559l-11.6263,14.331c-2.2816-2.6314-4.683-9.281-8.9998-6.4797-.5831,1.1392-.3572,2.1744.2079,3.2671.988,1.9108,4.8405,7.3005,6.2918,9.1128,1.2031,1.5025,2.6179,2.9672,4.5267,1.3506ZM260.6809,319.629c2.0478,2.141,11.9236-.3202,14.8763.7293,10.6564-1.4645,23.6625,1.126,34.0461-.2234,2.249-.2923,2.399-3.1837.8398-3.9919-.249-.1291-2.6925-.2702-3.1552-.2924-13.5615-.6507-31.0716-.6135-44.5975.3759-.5649.0413-1.6582.0825-2.0182.5003-.3551.8593-.7046,2.1566.0086,2.9022ZM307.7819,343.0495c-.3114-.2805-7.2397-.3441-8.3741-.3585-19.2965-.2449-39.7753-.3356-59.171.1139-1.5668.0363-3.9748-.1763-4.0505,1.9132-.0349.9625,1.3952,2.6412,2.4791,2.5395,22.0013-.9118,44.4126.7114,66.2705-.2391.7125-.031,2.8051-.2086,3.1989-.6522.6041-.6806.2378-2.7848-.3528-3.3169Z"/>
  <path class="cls-1" d="M254.9583,220.9357c-3.1622,1.3445-3.9256,3.4817-4.6942,6.6072-13.1774.4525-26.3606-.5602-39.4958-.4213-14.0132.1482-33.1468.2976-46.7022,2.9663-13.316,2.6216-15.3624,8.7284-16.6157,21.2639-1.1679,11.6818-1.3393,25.4308-1.4934,37.2261-.0646,4.9482.2183,9.9311.3255,14.8787l-13.9467.3905c.0057-8.7748.5034-17.4541.5659-26.2386.2065-29.012.1139-56.5955,5.0553-85.3482,4.4819-26.0789,11.2892-45.7437,37.7857-55.9641,21.0875-8.134,68.3198-8.1181,84.4542,10.1599,12.026,13.6237,13.056,44.9204,13.6855,62.4896.1456,4.0628.7094,8.1024.6428,12.1824-.0668.5426-.4946-.1923-.5829-.1923h-18.9839ZM196.2631,153.3297v15.8845c-.3402.5529-.7724.5347-1.3363.6009-3.0912.3628-13.6235-1.1166-15.6017.864-1.8033,1.8055-.4413,5.7483-.4818,7.8152-.0594,3.032-.5739,6.0964-.4132,9.3395.0998,2.0147-.1379,4.0584,2.2229,4.7389l15.9975.0809v15.6908c0,1.026,1.8881,2.0218,2.8973,2.1393,3.6454.4245,11.7677.3194,15.519.005,1.0879-.0912,2.4344-.2458,3.3092-.9525,2.7728-2.2397.9342-13.2825,1.5181-16.8846,5.7436-1.0058,16.3531,3.1127,17.0623-5.2148.305-3.581.3332-10.4182.0014-13.9757-.5321-5.7042-5.0115-3.9463-9.1368-4.0365-2.4345-.0533-4.9753-.1364-7.3513-.3688-1.185-3.4753,1.2755-13.8402-.5672-16.5045-.2877-.4159-1.2049-1.2655-1.6555-1.4467-2.4557-.9878-8.5283-.1956-11.3302-.1242-2.567.0654-9.8761-1.3029-10.6538,2.3493Z"/>
  <path class="cls-1" d="M384.9401,235.8516c-.9943,1.6404-2.8245,9.5563-4.1517,10.1831-1.5902.7509-7.1786,1.3018-9.2678,1.5769-8.2823,1.0905-16.6147.919-24.9319.4516-.6164,2.8456,4.2756,2.9346,6.373,3.1075,3.5723.2944,8.7777.1158,12.4312-.0342,5.1189-.2101,10.2804-.9515,15.2828-1.9173-1.5082,5.7543,4.408,11.485,4.299,16.4675-.0456,2.083-1.7785,2.0762-3.605,2.6252-8.6653,2.6046-21.2544,2.7393-30.3428,2.614-1.4684-.0202-7.3309-1.1361-7.4611.5622-.1626,2.12,6.4664,1.993,8.2668,2.1109,1.0751.0704,2.0675-.8247,2.3071.4193l.2297-.7183c10.2172.5369,20.6313-.5807,30.5687-3.1593-.7165,4.2398,1.2089,13.4582-.694,16.9288-.9801,1.7876-5.3164,2.3751-7.3443,2.7299-6.225,1.0893-14.4896,1.9135-20.7984,2.0447-2.1957.0456-11.9414-.7762-13.1333-.0441-1.4168.8703.4406,2.308,1.5419,2.6081,5.844,1.5925,22.6599.3126,29.3358-.6889,2.7974-.4197,5.6418-1.0393,8.3454-1.862.4676,1.2195,1.2936,2.2497,1.7728,3.472,1.6168,4.1242,1.2955,17.1313,1.146,22.2693-.0776,2.667-.0723,5.3564-1.0183,7.8711-2.9261.9066-5.7393,2.0623-8.7686,2.6707-3.1558.6338-7.8729.4509-10.628,1.368-.4415.147-.7845.4481-.9813.8679-.1743,2.1834,5.5079,1.466,6.6958,1.3614,4.7194-.4155,9.315-1.5689,13.7535-3.0991l1.1282,6.8226c-1.1297,8.1234,1.774,18.6217-5.4178,24.7245-8.9638,7.6063-35.6667,6.5063-46.2812,2.5623-2.4469-.9092-3.751-1.7351-3.2754-4.661l.5753.7715c4.9989-5.1168,10.279-10.7,14.5143-16.4803.5316-.7255,1.963-2.2992,1.948-3.1009-.0293-1.5652-1.422-.5105-2.1414.1958-4.031,3.958-8.0321,10.1479-11.8093,14.5354-.8902,1.034-1.9735,1.9097-2.8991,2.9123l1.1852-10.035c3.0587-2.8494,5.307-6.3383,7.9316-9.5177,1.3389-1.6219,7.4821-7.8963,7.9085-9.1041.1611-.4562-.2763-.9857-.1679-1.1733.0242-.0419.5185.3174.9665.0372,2.8348-1.7728,2.4893-5.0012.0351-2.713-3.1384,2.9261-7.8548,9.1204-10.6685,12.6691-2.1316,2.6884-3.9848,5.6084-6.2169,8.2153l1.5213-10.9699c4.4803-5.0075,9.6159-10.5702,13.5727-16.0541.4923-.6823,1.9103-2.748,1.9396-3.3903-.7428-.586-1.6033-.0012-2.1444.5585-.8211.8494-1.91,2.877-2.7118,3.8767-3.4912,4.3526-6.9419,8.6154-10.6274,12.8068l1.3287-10.0964,8.7312-11.7957c-.4964-.7277-1.2088-.7693-1.9393-.3957l-6.1921,9.5-.3977-.5858c1.6653-20.8357,5.0347-41.564,6.5981-62.3696.4166-5.5448,1.0325-12.3388.765-17.8208-.0558-1.144-.2872-4.3802-.6037-5.2719-1.1802-3.3243-5.598-5.1382-8.861-5.3956-6.1125-.4823-12.6546-.1877-18.8059-.3722.5849-11.1534,6.5016-21.548,14.7184-28.8701.596-.5312,4.3578-3.7244,4.6606-3.8624,1.5644-.7128,7.2124.4806,9.4601.5734,3.427.1416,7.4818.2712,10.8822.1847,2.6189-.0666,8.9735-1.6514,11.0047-.3342,3.1945,2.0715,8.7922,7.529,11.0437,10.6379,4.4956,6.2075,8.1993,14.1389,9.5194,21.6671-8.5226,1.3884-17.1172,2.4665-25.7425,2.7272-5.0979.1541-10.2301-.1426-15.3269-.0113-.3889,3.1845,4.8271,2.8934,7.2012,3.0277,4.3472.2459,10.2948.1059,14.6911-.1471,6.4642-.3719,12.8918-1.3281,19.1762-2.8824v5.6177ZM333.4103,202.7286c-.9268-.9994-6.2465,5.4968-6.7553,6.2196-1.0072,1.4308-6.3267,11.4422-5.6419,12.3707,2.877,1.1954,2.1037-.9208,2.8384-2.7766.9914-2.5045,3.2448-6.5406,4.7521-8.8078,1.1133-1.6744,3.7124-4,4.4405-5.2448.3608-.6169.471-1.0429.3662-1.761ZM366.3445,204.2792c-.4541.6273,2.6924,4.2217,3.2593,5.0666,2.9235,4.3568,5.8332,9.0187,7.8027,13.8928l1.5155.795c1.7316-.3409-1.0743-5.9151-1.5846-6.9242-1.0365-2.0498-8.0324-12.8418-9.6957-13.1408-.1641-.0295-1.2581.2567-1.2972.3107ZM332.8364,212.0264c-1.0885.2255-5.1811,8.5047-5.4544,10.0574l.6024,1.0023c.5155.2254,1.4282-.5744,1.7264-1.0107.9713-1.4212,2.9603-5.8493,3.6709-7.5956.2806-.6897.7167-2.7148-.5452-2.4534ZM376.2966,256.7029c-.7727-.6102-2.1119-.5863-1.7444.764,1.6071,1.4112,2.7659,6.5603,3.9916,7.639.5629.4953,1.0632.4253,1.7451.3824.7236-.7262-3.2276-8.1816-3.9923-8.7854ZM379.4612,303.125l-1.5031.1536.068,15.4235c.3322,1.0278,1.4883.5482,2.2032.1898.2236-2.0356.3386-15.0913-.7681-15.7669ZM379.5114,334.8401c-.0522-.0382-1.0458.4526-1.1556.5824-.8133.9613-.2804,6.7543-.3733,8.5372-.0713,1.3682-1.5268,7.5958.2202,7.9068.4822.0859.8742-.4089,1.0931-.7834.7245-1.2396,1.1242-9.9155,1.0105-11.8035-.0873-1.4481-.526-3.0115-.7949-4.4396ZM339.8606,357.5608c-.5443.5725-2.8095,2.009-2.9307,2.7085.0348.6454.8245,1.5541,1.5157,1.1308,2.4335-2.9562,5.918-5.4909,8.3385-8.3462.5383-.635,2.301-2.5957,2.1247-3.2921-.5529-1.0525-1.7626-.1711-2.3099.4109-2.1274,2.2623-4.4594,4.9915-6.7383,7.3882ZM353.5565,354.9873l-1.5512.2702-6.7807,8.253c1.0517,1.2499,2.1023.1159,3.0625-.8182,1.0183-.9906,4.305-4.8245,4.8947-5.9524.3253-.6221.5121-1.0101.3746-1.7526ZM362.4673,356.5371c-2.3202-.6018-2.5636,1.662-3.6644,3.1207-1.0009,1.3264-2.7663,2.3793-2.5304,4.2365.635.6604,2.71-1.6852,3.0891-2.1372.4987-.5945,3.5106-4.8329,3.1057-5.22Z"/>
  <path class="cls-1" d="M243.9136,129.5079c.0992.6847-.8716.3782-1.2609.2932-25.3507-5.5381-54.0306-8.5449-77.8951,4.4207-14.4226,7.8358-24.5447,24.6478-28.3364,40.2394l-.9809-.0173c.7662,3.9166-1.3134,8.1484-2.0453,12.0876-.7864,4.2323-1.5599,9.0623-2.1673,13.3417-2.7163,19.1364-3.6,38.9161-3.9302,58.2554-8.7171-1.8821-17.276-4.8041-24.9829-9.3008-.7365-1.2253.2971-8.1081.3525-10.0169,1.0947-37.7527,6.0487-110.1947,54.3801-116.9486,21.4741-.6554,43.1942-4.1342,64.4919.0016,7.7567,1.5062,15.246,4.2617,22.3747,7.6441ZM143.7325,133.9347c2.3061-1.609,4.9701-2.4958,6.8065-4.6255.042-2.0786-6.8171,1.7554-7.4514,2.1417-8.8129,5.3673-15.9584,17.8513-19.9546,27.0088-.5308,1.2164-2.2279,2.0066-1.6413,3.9745,2.3331.5406,2.3269-2.476,3.1453-4.0202,4.266-8.0488,11.528-19.1996,19.0955-24.4794ZM137.229,151.8334c.4618-.6475.8352-1.3441,1.2984-1.9928-.5132-.8092-1.343-.6436-2.0411-.2079-.5441.3396-3.8738,5.1562-4.4685,6.089-2.0558,3.2247-3.4568,6.2065-4.6331,9.6932-.3787,1.1225-2.3644,2.4675-.6589,3.9908.5517.1124.8498-.4497,1.113-.8163,1.5849-2.2069,3.5237-7.562,5.1276-10.3694,1.331-2.33,2.772-4.2967,4.2626-6.3867ZM115.6762,189.9434c-1.8737-.0616-2.2396,2.222-2.7165,3.672-3.7845,11.5083-6.1917,36.051-4.9894,48.1.1775,1.7785,1.2624,1.7577,2.1267.3521-.4923-6.6714-.0387-13.5015.5465-20.1615.6221-7.0801,1.5286-14.6498,2.7584-21.6495.6123-3.4851,1.8453-6.8434,2.2743-10.3131ZM114.9052,245.7324c2.9228.5526,1.8012-3.1598,1.9395-5.2275.549-8.2082,1.1805-16.6529,2.3688-24.7511.5381-3.6674,1.4074-7.3138,2.2475-10.9196l-.9398-1.3251c-.7128.014-1.7111,4.297-1.9229,5.1884-2.8255,11.8967-3.549,24.822-3.6932,37.0349Z"/>
  <path class="cls-1" d="M170.6929,274.9817c.0337.1177,1.4444,1.8292,1.5435,1.901.5515.3993,6.0064.5077,6.9191.364,3.3391-.5259,3.6293-2.1177,3.85-5.1034.1308-1.769-.4366-12.3379.1158-12.8219l34.8376-.414-6.0212,57.3469-5.6014-1.1776c.8926-1.3603,2.6296-2.7588,3.4181-4.1353.3905-.6816.6462-.6961-.1318-1.2845-1.6214-.3307-3.8625,4.2311-4.9347,5.1666l-5.3252-.522c1.6949-2.2745,6.2127-6.5011,7.1583-8.9184.2298-.5875.1977-1.5147-.3761-1.5285-1.3203-.0318-7.5631,9.1395-8.9864,10.3779l-4.3822.0693c.4352-1.2466,6.2531-7.3605,5.4219-8.1301-2.4857-.6927-3.0914,2.3976-4.274,3.9657-1.027,1.3618-3.0094,2.5556-3.1077,4.5461-4.8779-.2091-9.7663.4275-14.5007,1.5649-.2417.0071-.1104-4.2465-.2163-4.8309-.6411-3.5362-10.3115-6.2315-13.5044-6.8347l.7352-45.2936,7.3625.3893v15.3034Z"/>
  <path class="cls-1" d="M166.136,380.8542l-.4783-38.6513c2.9677,1.292,5.8124,2.1615,8.986,2.8185,11.7409,2.4305,24.0657,2.4553,35.5658-1.0786,1.9462-.598,3.5167-1.5492,5.2238-2.1468.3357-.1175.2863-.6645.7889.0159l-.1862,38.9292c-11.7856,5.3612-24.5382,7.0953-37.2956,4.7457-4.4007-.8105-8.9108-2.0848-12.6045-4.6326ZM212.1474,351.4986l-1.1725-.2115c-.8185.7808-1.1837,1.8996-1.8054,2.8301-1.8322,2.7421-4.0856,5.6819-6.1596,8.5837-.6753.9448-5.0253,5.5881-4.0327,6.6174.7407.1322,1.0507-.1167,1.574-.553,2.0121-1.6774,9.595-12.4891,10.889-15.0673.3535-.7044.8334-1.3427.7072-2.1994ZM213.6953,359.6365l-1.8246.5006c-4.1103,5.8032-8.3909,11.5298-12.8831,17.0286-.3567.4366-1.0045.5721-1.3555,1.0675-1.098,1.5495-.5179,3.1832,1.155,1.553,4.3716-4.26,11.0097-12.4761,14.0647-17.704.4421-.7565.9363-1.5102.8434-2.4457ZM203.2387,384.4277c.7833.1696,1.0346-.1749,1.5649-.5621,1.2835-.9374,5.2344-6.7021,6.3426-8.3795.2718-.4113,3.3501-4.5416,1.5849-4.6066-.5248-.0193-2.2553,2.1795-2.6892,2.7275-1.5876,2.0054-5.1535,6.6098-6.2729,8.6378-.3657.6625-.5286,1.4283-.5303,2.183Z"/>
  <path class="cls-1" d="M160.2287,331.3514l.157,9.6943c-6.9415,6.775-13.3469,14.0373-19.462,21.5635-.3071.4218.2664,1.2864.5186,1.2792,1.4191-.0405,16.689-18.7274,19.1739-20.9132l-.4664,7.6701c-.5574.2799-1.0663.547-1.4937,1.028-3.0528,3.4356-6.0732,6.6094-9.1359,10.034-2.6469,2.9597-5.0605,6.1636-7.8064,9.0471l-.0758,1.2758c.6033.1124.8968-.0588,1.3725-.3671,1.4935-.9681,5.3304-5.3415,6.7567-6.9131,3.7404-4.1216,6.9758-8.8334,10.8493-12.8635l-.4714,8.0541-12.3111,13.0593c-9.6086,1.241-20.4342.4371-28.3088-5.7833l-.7436-38.9636c2.1479,1.5382,4.5021,2.197,7.0371,2.8387,10.9335,2.7676,23.3859,2.1467,34.41.2596ZM154.8064,338.7154c-.7835-.1687-1.0345.1732-1.5652.5618-2.0551,1.505-6.4575,6.2539-8.3398,8.3276-.4382.4827-.4391,1.2486-.6626,1.4613-.2622.2495-1.0077.1475-1.2685.4636-.4129.5004-.184,1.838.4151,1.9672.6291.1357,8.3198-7.8516,9.2471-8.9541.5227-.6214,2.8945-3.0767,2.1738-3.8273Z"/>
  <path class="cls-1" d="M102.8868,255.812c.0329.0257-.1508.5266.3009.742,4.2069,2.0062,10.4177,4.6258,14.8142,6.03,2.7786.8874,6.0073,1.3687,8.9048,1.7493l.0095,40.6669c-4.4307.8001-9.4296,1.9734-12.4023,5.6203-.8259,1.0133-.0573,1.6746-2.1386,1.7013l-6.9656,8.9558c-1.5841-2.1051-1.5424-4.8796-1.9315-7.3895,2.3886-2.2003,4.8069-4.5151,6.9739-6.9395,3.2454-3.6308,7.1305-8.1769,10.0284-12.0568.589-.7887,3.1502-3.8131.584-3.2864-.7763.1593-1.8199,2.2191-2.4762,2.9459-4.2534,4.7097-7.7333,9.6646-12.3568,13.988l-2.9469,3.8273-.5522-6.21c5.7373-6.0409,10.9642-12.5366,16.2234-18.9963.6362-.7814,1.8029-.8049,1.7432-2.4728l-1.152-.4158-13.9206,16.0063-3.1166,4.7275-.3258-9.4373c3.9214-4.3328,8.2537-8.3913,11.9234-12.9516,1.1019-1.3693,5.3745-6.727,5.4613-8.012.079-1.1707-1.3048-.4442-1.8378-.0839l-6.2084,8.3827-9.7904,10.8657.1935-8.1128c4.7149-3.8676,7.9065-9.5033,11.8085-14.1611l-1.1385-.8127-.6006.1958-10.2636,12.8172.3591-7.5794c.8465-1.4741,7.8247-9.3356,7.8079-10.0276-.0158-.6494-.0354-.9713-.6103-1.3637-.7391-.0336-5.3062,6.317-6.0279,7.436l-1.5281,1.4625.3845-17.624.7703-.1871Z"/>
  <path class="cls-1" d="M221.0583,232.9497l-3.7343,20.0885-53.6026,1.2143c-.056-4.2301.9794-8.3569,3.5511-11.7482,5.7419-7.572,17.0044-8.7346,25.8415-9.3253,9.2638-.6191,18.6775-.218,27.9442-.2293Z"/>
  <path class="cls-1" d="M300.0936,236.4328l-44.5561.3894c.0669-1.8703-.0776-3.7653-.0174-5.6381.0453-1.4098.2149-3.6453.6589-4.8435l43.9146.6002v9.492Z"/>
  <path class="cls-1" d="M165.7341,324.4477c3.9582-2.9281,8.9211-3.9537,13.7256-4.6685,7.7767-1.157,16.8889-1.2577,24.641.0551,2.4382.4129,10.1778,2.0951,11.5563,3.9383,1.6136,2.1575-.3082,2.9071-2.1418,3.717-9.7686,4.3146-33.2232,4.1627-43.2241.5842-1.2597-.4507-5.5564-1.8904-4.5569-3.626ZM209.0194,325.1101c-.1078-2.6677-2.2671-1.7448-3.8524-2.0815-7.8024-1.6571-15.0353-1.9619-22.9898-.9192-1.4075.1845-8.8702,1.4697-9.0678,2.8442-.3673,2.5553,6.8907-.3374,8.2786-.5343,5.1352-.7284,12.8776-.7531,18.0408-.3457,1.8235.1439,8.783,1.8824,9.5906,1.0365Z"/>
  <path class="cls-1" d="M212.6994,100.6705c3.5101,4.3347,5.0103,9.0963,6.4218,14.4938l-2.7138.0057c.1346-14.4876-13.1083-20.1827-25.8674-18.3473-10.3743,1.4924-18.2931,8.918-19.898,19.4548l-10.0215.437c1.225-3.3609,2.1332-6.6828,3.9399-9.8096,9.0287-15.6252,36.3821-20.7536,48.139-6.2345Z"/>
  <path class="cls-1" d="M118.7775,313.9108c-.2451-.3492,2.1453-2.0122,2.5874-2.2483,4.8059-2.5657,13.8169-3.3517,19.2864-3.5718,10.2142-.411,20.8878.4444,30.0338,5.2462-.3436.4606-.7991.7398-1.2731,1.0439-7.5057,4.8151-22.9503,5.3197-31.8404,4.5687-6.4801-.5474-13.2582-1.3959-18.7941-5.0387ZM162.4819,313.2098c-4.1833-1.9888-9.0734-2.5814-13.66-2.786-5.6519-.2521-13.4753.0465-18.8907,1.6686-1.2265.3674-5.4213,1.8757-2.4488,3.0321,1.3074.5086,2.286-.5087,3.5214-.7947,7.4286-1.7196,19.1381-2.2212,26.6776-.7663,1.4099.2721,2.6564.8859,3.9194,1.5252.9682.0244,1.1711-1.1737.8811-1.8789Z"/>
  <path class="cls-1" d="M166.0438,331.7398c2.9887,1.9148,6.5005,2.4782,9.9349,3.0439,11.4845,1.8917,24.5217,1.2718,35.7954-1.6739,1.412-.3689,3.3301-.9109,4.4434-1.7554.3752.1537.2046.9799.2056,1.3753.0075,3.1362.5578,3.8832-2.256,5.4851-6.1479,3.5001-20.264,4.677-27.3573,4.3112-6.8368-.3526-14.6462-1.5928-20.766-4.781v-6.0051Z"/>
  <path class="cls-1" d="M216.018,384.8174c1.274,7.1591-8.791,10.1219-14.2347,11.1377-9.355,1.7457-23.3104,1.1337-31.8818-3.1791-4.0565-2.041-4.752-3.2504-4.2431-7.9569,3.6182,1.7576,7.2499,3.2597,11.2199,4.0795,12.4973,2.5807,27.4845,1.0407,39.1397-4.0813Z"/>
  <path class="cls-1" d="M210.2085,114.7787c-4.2543-.4236-8.6824-.5834-12.9768-.5554-6.4956.0423-12.9936,1.1495-19.378,1.1135-.6635-.0037-1.361.0676-1.3775-.7461-.047-2.3104,2.5786-5.919,4.3242-7.3305,8.6692-7.0104,29.0189-7.0506,29.4082,7.5185Z"/>
  <path class="cls-1" d="M98.6312,311.5898c-.9066.2736-.6703-.2721-.886-.4918-15.1843-15.473-6.1135-40.1197-.8572-58.0098-.0107,12.6445-.5657,25.4447-.128,38.1108.155,4.4851.293,9.1432.7138,13.61.203,2.1553.8165,4.6109,1.1574,6.7808Z"/>
  <polygon class="cls-1" points="157.8538 258.5702 157.5184 303.8454 151.7115 303.8439 151.2848 285.0581 152.4878 256.1916 157.8538 258.5702"/>
  <path class="cls-1" d="M161.3946,322.8328l-.797,4.6254c-13.5942,2.371-29.1395,3.0615-41.6494-3.4689l-.1287-3.2648.8846-.5759c7.4633,4.0831,17.2088,4.5959,25.6293,4.4831,5.3488-.0716,10.856-.4509,16.0612-1.7989Z"/>
  <path class="cls-1" d="M358.2096,182.9655c-.0035,2.8711.441,5.8985,2.3225,8.1345l-23.2454.3874c2.3116-2.4015,2.9466-5.2305,2.7103-8.5212l18.2126-.0007Z"/>
  <path class="cls-1" d="M160.6198,379.7807c-3.9637.1653-8.0448,2.1952-11.8576,2.6709-7.2458.904-18.9352-.4321-25.6046-3.3702-2.9416-1.2959-4.8611-3.2266-3.7932-6.6675,10.3327,4.5888,22.062,5.4495,33.1192,3.4962-1.3834,1.9457-3.4963,3.5012-4.2626,5.8041.3749-.1126.8178.3013.9806.2725,1.2405-.2193,4.5668-5.557,6.0143-6.2539,1.3666-.658,3.8593-.4795,5.404-1.376v5.424Z"/>
  <path class="cls-1" d="M168.753,234.1093l-5.8177,5.2201c-3.2264,3.7977-4.3703,8.8616-4.2547,13.7612l-5.7813-1.9877c.5803-7.7441,2.5633-14.802,11.1198-16.4975,1.6113-.3193,3.1529-.1535,4.7338-.4961Z"/>
  <path class="cls-1" d="M259.4118,383.6589l-38.7372,8.1315.3625-3.6274c6.2707-1.3143,12.8992-2.4676,19.2401-4.0795l19.1346-.4246Z"/>
  <path class="cls-1" d="M113.3538,324.5724c-.0409.732.1506,1.3324-.5014,2.2136-.5014.3636-.8797,2.5326-1.6242,2.2386-.6583-.26-4.8604-5.4386-4.8631-6.0018,1.3458-2.406,3.5486-4.3337,5.2109-6.4268.751-.9456,1.168-2.5952,1.9676-2.6797.5476.0649-.1898.4933-.1898.5831,0,3.289.1817,6.8231,0,10.0731Z"/>
  <path class="cls-1" d="M79.2638,267.4266l1.5514-6.6927,13.1634-15.0027c-.7919,1.5543-1.0174,4.9287-1.7538,6.1845-.3589.612-2.8945,2.7667-3.6567,3.7044-3.1783,3.9106-5.7322,8.2532-9.3044,11.8064Z"/>
  <path class="cls-1" d="M353.1683,371.2586c.1749,1.1525-.2511.6609-.9711.7622-8.2324,1.1576-16.4511,2.3117-24.5926,3.8855l1.0131-3.0509c6.4705-.8602,12.3494-1.8136,18.9517-1.6138,1.8595.0563,3.6172.9248,5.5989.0171Z"/>
  <path class="cls-1" d="M88.4177,263.4183c-.9546,1.5536-8.2793,10.7829-9.4779,11.7046-.1413.1087.0329.7393-.8406.4372.5746-1.6364.1198-3.4312.999-5.0021,1.2156-2.1722,4.6907-5.4768,6.353-7.5943,1.7444-2.222,3.2199-4.7822,5.0421-6.9701.7357-.5405.2938.7175.2133.99-.3937,1.3314-1.6963,5.4704-2.2888,6.4348Z"/>
  <path class="cls-1" d="M356.6579,165.5336v12.0102l-3.8578-.016c-.3871-3.9884.2369-7.9965-.0138-11.9934l3.8716-.0009Z"/>
  <path class="cls-1" d="M160.6186,361.9619c-.6665,2.9476-.4787,6.3711.005,9.292l-1.939.3928c-.191-.1999.4403-1.4414-.5778-1.1609-1.8226,2.502-4.927,1.9482-7.5562,2.7086l10.068-11.2324Z"/>
  <polygon class="cls-1" points="178.4376 259.2906 178.4435 272.4655 174.9527 272.4654 175.1312 259.6675 175.5923 259.3414 178.4376 259.2906"/>
  <path class="cls-1" d="M350.4591,165.5336v12.0102l-3.4887.0017c.1347-3.803.5079-7.5996.0396-11.3806l.5938-.539,2.8553-.0923Z"/>
  <path class="cls-1" d="M94.9955,240.9397c-2.3434,3.8606-5.0001,6.0325-7.8503,9.1895-1.7508,1.9393-3.0739,4.4116-5.1693,6.0621.3504-4.5088,4.3395-7.017,6.9622-10.2743,2.2951-2.8505,4.0842-6.3906,6.9775-8.7094.0232,1.4509-.1722,2.4999-.9202,3.7321Z"/>
  <path class="cls-1" d="M358.595,165.921c.9285-.0309,3.1635-.258,3.333.9503l-.188,10.0547-3.145.6178v-11.6228Z"/>
  <path class="cls-1" d="M345.0351,177.5439l-2.6992-.0119c-.5559-3.8314-.2804-7.7278-.4024-11.6128l3.1016-.3855v12.0102Z"/>
  <path class="cls-1" d="M94.9043,235.0259c-2.4331,3.3514-4.9703,6.9354-7.4997,10.1357-.6355.8041-2.3416,1.9958-3.1039,2.894.1588-1.1602.5847-3.8811,1.1349-4.7686.2831-.4567,2.4771-2.1323,2.9869-2.7278,2.7052-3.1599,5.2377-6.4975,8.0802-9.5484.1549.7346-.1869,2.3859-.4824,3.0125-.2843.6027-.8904.6921-1.1158,1.0026Z"/>
  <path class="cls-1" d="M78.0929,282.5336c-.7308.0786-.3109-.8124-.2706-1.2381.0978-1.0331.2418-3.1068.6628-3.9098l9.2946-9.9586c-.3376,1.2102-.8407,2.3854-1.2618,3.5768-1.2024,3.4015-2.9941,4.3464-5.3121,7.0859-1.0403,1.2295-2.2404,3.0543-3.113,4.4438Z"/>
  <path class="cls-1" d="M78.478,289.1198l-.7694-.192.085-4.7628,7.6615-8.2147c-.25,1.3434-.4392,3.8781-.9837,5.0174-.4245.8883-3.642,4.1656-4.5938,5.4789-.5434.7497-1.1022,1.7881-1.3996,2.6732Z"/>
  <path class="cls-1" d="M336.8991,165.921l2.3219-.3861.3047,11.4452c-.5971,1.1093-1.6608.1015-2.6267.1762v-11.2354Z"/>
  <path class="cls-1" d="M82.6402,291.7283c-.3233.348-1.0431.2615-1.3313.6043-.9448,1.1234-1.6433,2.6468-2.6316,3.7621-.1689-1.2797-.8212-2.7308-.5803-4.0497.2341-1.282,4.7774-6.1505,5.8084-7.5712-.5547,1.9264.0437,5.8461-1.2652,7.2546Z"/>
  <path class="cls-1" d="M81.345,300.8891c-.5226.6002-.8549,1.5011-1.6936,1.7936l-.6921-4.0209,4.3669-6.4377c2.0715,3.3853.2484,6.1041-1.9813,8.665Z"/>
  <path class="cls-1" d="M87.0066,303.8433c-.3495.9478.8024,2.2422.7003,2.838-.1517.8857-2.5011,4.0645-2.609,5.4476l-.7955.2383-1.5163-3.2156c1.4959-1.3367,2.1365-3.3,3.3362-4.8166.2462-.3112-.0135-.7115.8842-.4919Z"/>
  <path class="cls-1" d="M81.9662,307.3316c-3.3404-2.7201,2.1434-5.7454,2.9097-8.5212,2.6146,3.6915-1.4463,5.5794-2.9097,8.5212Z"/>
  <path class="cls-1" d="M88.5622,237.2074c1.1536-5.0636,4.5527-8.5428,7.7409-12.3974-.9406,5.0659-4.6505,8.5919-7.7409,12.3974Z"/>
  <path class="cls-1" d="M231.9046,383.659c.0918.545-.6864.5652-1.0742.6597-3.2166.7843-6.6733.9272-9.7681,2.0481l-.0056-2.7136,10.8479.0058Z"/>
  <path class="cls-1" d="M90.8788,318.1795l-2.7011-1.7434c1.4568-1.4321,2.5473-3.2063,2.8973-5.2282l1.6729,2.4397-1.8691,4.5318Z"/>
  <path class="cls-1" d="M335.7345,369.712c.0833.5507-1.0688.6042-1.46.6623-1.9659.2918-3.9738.2157-5.8982.8796l.7794-3.8734,6.5789,2.3316Z"/>
  <path class="cls-1" d="M87.3893,315.4687c-3.651-1.1288.7653-4.7028,1.3609-6.9726l1.364,1.7359-2.7249,5.2368Z"/>
  <path class="cls-1" d="M92.0444,318.9506l1.9427-4.6442,2.1527,1.5402c.385.6974-2.0254,2.9475-2.348,3.8686l-1.7473-.7647Z"/>
  <path class="cls-1" d="M328.7588,322.0518c-.7.0875-.3502-.8709-.3343-1.3285.0982-2.8207.9614-6.2582,1.8824-8.9439.1484-.4326.2192-1.4018.7768-1.3462-.0316,4.0461-1.2522,7.7813-2.3249,11.6186Z"/>
  <path class="cls-1" d="M330.6954,304.617c-.7352.0864-.26-.7643-.204-1.1729.4638-3.3856,1.1111-7.1349,1.9601-10.4434.1129-.4402-.0241-1.2581.5693-1.164-.4681,4.3233-.9816,8.6455-2.3254,12.7803Z"/>
  <path class="cls-1" d="M99.7899,320.5038c-1.2441-.1942-2.4526-.0621-3.7125-.331-.418-.0892-1.0408.1892-.9297-.4384,1.3487.1583,1.4597-2.5422,2.4894-2.312.4825.1079,2.488,2.4913,2.1529,3.0813Z"/>
  <path class="cls-1" d="M324.4971,362.3442c-.6954.0868-.3738-.8677-.3352-1.3026.0847-.9548.4847-2.0167.4445-3.0454l1.8282-6.4957c-.2316,3.6763-1.0128,7.287-1.9376,10.8437Z"/>
  <path class="cls-1" d="M333.7954,278.2725l-.3422-2.8629,1.8923-7.5933c.07,3.5346-.925,7.0036-1.5501,10.4562Z"/>
  <path class="cls-1" d="M327.2118,336.0032l-.7659-.1875,2.1215-8.7231c.6806.5747.283,2.1069.1479,2.8593-.37,2.0599-1.5759,3.9424-1.5035,6.0514Z"/>
  <path class="cls-1" d="M335.7325,259.2886c-.6757.0896-.3864-.9204-.3853-1.3779.0017-.7231.1398-1.7.2764-2.4224.162-.8566.5193-2.6032,1.2717-3.171l-1.1627,6.9713Z"/>
  <path class="cls-1" d="M327.6006,341.0418l-.8708,5.1302-1.062,3.0002c.2661-2.3232.5987-4.932,1.1475-7.1938.1598-.6586-.3793-1.1284.7853-.9365Z"/>
  <path class="cls-1" d="M333.0208,290.2831c-.7037-.0041-.4121-1.6635-.3783-2.1238.0665-.9064.2951-2.5112.4857-3.3921.0812-.3752.1375-1.1614.6676-1.0664l-.7749,6.5823Z"/>
  <path d="M307.7819,343.0495c.5907.5321.957,2.6363.3528,3.3169-.3938.4436-2.4864.6212-3.1989.6522-21.8579.9505-44.2692-.6728-66.2705.2391-1.084.1017-2.514-1.577-2.4791-2.5395.0757-2.0895,2.4837-1.8769,4.0505-1.9132,19.3957-.4495,39.8746-.3588,59.171-.1139,1.1344.0144,8.0628.0779,8.3741.3585Z"/>
  <path d="M318.6336,262.4455c.8739,4.1998-2.1848,3.4362-5.1789,3.5949-12.0281.6377-25.0246.1231-37.1879.0542-2.3179-.0131-9.2417.8275-10.8703-.198-1.1841-.7456-1.3095-2.5271-.2751-3.5091l7.6646-.3831c13.5789.9588,28.4735-1.0591,41.8226-.3653,1.3964.0726,2.7367.1944,4.025.8063Z"/>
  <path d="M260.6809,319.629c-.7132-.7456-.3637-2.043-.0086-2.9022.36-.4178,1.4533-.459,2.0182-.5003,13.5259-.9894,31.036-1.0267,44.5975-.3759.4627.0222,2.9061.1634,3.1552.2924,1.5592.8081,1.4092,3.6996-.8398,3.9919-10.3836,1.3494-23.3897-1.241-34.0461.2234-2.9527-1.0495-12.8285,1.4117-14.8763-.7293Z"/>
  <path d="M313.9709,288.8017l.3992,2.3692-2.0796,1.3048-48.4436.5435c-2.2878-.0844-2.2947-3.8296.0002-3.9183,13.8036-.2052,27.6869-.3829,41.4475-.44,2.8425-.0118,5.7249-.7683,8.6764.1409Z"/>
  <path d="M256.558,285.501l-13.9149,17.4512c-1.5222.9858-2.7535.5111-3.9696-.6437-.9034-.8578-6.934-9.5341-7.0975-10.3728-.4103-2.1046,1.442-3.7435,3.5396-3.1271,1.5006.441,4.2024,5.953,5.5038,7.2751.3835.0404,2.4546-2.3824,2.9-2.9025,2.4631-2.8765,7.6484-10.7747,10.5104-12.3782,3.1474-1.7635,3.8232,2.5165,2.5281,4.698Z"/>
  <path d="M240.711,331.6279c-1.9088,1.6166-3.3236.152-4.5267-1.3506-1.4512-1.8124-5.3037-7.202-6.2918-9.1128-.565-1.0928-.791-2.128-.2079-3.2671,4.3168-2.8013,6.7182,3.8483,8.9998,6.4797l11.6263-14.331c2.5846-2.6152,6.141-1.3089,4.0033,2.4559l-13.6032,19.1259Z"/>
  <path d="M256.1568,260.6849c-2.4003,3.31-8.2837,10.9599-11.077,13.5231-4.2035,3.8571-6.4003-3.4132-8.1997-6.5245-1.0636-1.8389-4.2205-4.4309-1.1226-6.6707,3.7909-2.7407,5.6456,5.2582,8.1521,6.8016,2.3814-3.4131,5.0585-6.9834,7.944-10.0787,1.2171-1.3056,5.4116-6.5253,6.9807-3.8735.8751,2.4744-1.2925,4.9129-2.6774,6.8226Z"/>
  <path d="M196.2631,153.3297c.7777-3.6523,8.0868-2.2839,10.6538-2.3493,2.8019-.0714,8.8744-.8636,11.3302.1242.4505.1812,1.3678,1.0308,1.6555,1.4467,1.8427,2.6643-.6177,13.0291.5672,16.5045,2.3759.2323,4.9168.3155,7.3513.3688,4.1252.0902,8.6047-1.6677,9.1368,4.0365.3318,3.5575.3036,10.3947-.0014,13.9757-.7092,8.3275-11.3187,4.209-17.0623,5.2148-.584,3.6021,1.2547,14.6449-1.5181,16.8846-.8748.7066-2.2213.8613-3.3092.9525-3.7513.3143-11.8736.4195-15.519-.005-1.0091-.1175-2.8973-1.1133-2.8973-2.1393v-15.6908l-15.9975-.0809c-2.3607-.6805-2.1231-2.7242-2.2229-4.7389-.1606-3.2431.3538-6.3076.4132-9.3395.0405-2.0669-1.3216-6.0097.4818-7.8152,1.9782-1.9805,12.5105-.5011,15.6017-.864.5639-.0662.9961-.0479,1.3363-.6009v-15.8845ZM230.7045,174.8621c-3.0691-.2919-12.4263,1.1346-14.6789-.6144-.5622-.4365-.8409-.9915-.9614-1.6786l.001-16.3549-12.7021.1129-1.0772.5533c.1331,3.8686.5359,7.6926.413,11.5817-.059,1.8681.0433,4.913-1.7962,5.9402-2.5034,1.398-15.0974.2578-15.6517.815v12.0142s16.6756.1774,16.6756.1774c1.4549.9641,1.0198,15.5113,1.147,17.644l12.3959-.0029.5658-17.4494c5.1613-1.4965,11.0387-.2123,16.4156-.8259,1.083-.6967-.0398-10.3347-.7464-11.9126Z"/>
  <path d="M366.3445,204.2792c.0391-.054,1.1331-.3402,1.2972-.3107,1.6633.299,8.6592,11.091,9.6957,13.1408.5103,1.0091,3.3162,6.5833,1.5846,6.9242l-1.5155-.795c-1.9695-4.8741-4.8792-9.536-7.8027-13.8928-.5669-.8448-3.7134-4.4392-3.2593-5.0666Z"/>
  <path d="M333.4103,202.7286c.1048.7181-.0053,1.1441-.3662,1.761-.7281,1.2449-3.3273,3.5704-4.4405,5.2448-1.5074,2.2672-3.7607,6.3033-4.7521,8.8078-.7347,1.8558.0387,3.972-2.8384,2.7766-.6847-.9285,4.6348-10.9399,5.6419-12.3707.5087-.7227,5.8285-7.2189,6.7553-6.2196Z"/>
  <path d="M379.5114,334.8401c.2689,1.428.7076,2.9915.7949,4.4396.1138,1.888-.286,10.5639-1.0105,11.8035-.2189.3745-.6109.8692-1.0931.7834-1.7471-.3111-.2915-6.5387-.2202-7.9068.0929-1.7829-.44-7.576.3733-8.5372.1098-.1298,1.1034-.6207,1.1556-.5824Z"/>
  <path d="M379.4612,303.125c1.1068.6756.9917,13.7313.7681,15.7669-.7148.3585-1.871.838-2.2032-.1898l-.068-15.4235,1.5031-.1536Z"/>
  <path d="M339.8606,357.5608c2.2789-2.3966,4.611-5.1259,6.7383-7.3882.5473-.582,1.757-1.4634,2.3099-.4109.1763.6964-1.5865,2.6571-2.1247,3.2921-2.4205,2.8553-5.905,5.39-8.3385,8.3462-.6912.4233-1.4809-.4853-1.5157-1.1308.1211-.6995,2.3863-2.136,2.9307-2.7085Z"/>
  <path d="M332.8364,212.0264c1.2619-.2614.8258,1.7638.5452,2.4534-.7105,1.7463-2.6996,6.1744-3.6709,7.5956-.2982.4363-1.2109,1.2361-1.7264,1.0107l-.6024-1.0023c.2733-1.5527,4.3659-9.8319,5.4544-10.0574Z"/>
  <path d="M353.5565,354.9873c.1375.7425-.0494,1.1305-.3746,1.7526-.5898,1.1279-3.8765,4.9618-4.8947,5.9524-.9601.9341-2.0108,2.0681-3.0625.8182l6.7807-8.253,1.5512-.2702Z"/>
  <path d="M376.2966,256.7029c.7647.6038,4.7159,8.0593,3.9923,8.7854-.6819.0429-1.1822.1129-1.7451-.3824-1.2257-1.0787-2.3846-6.2278-3.9916-7.639-.3674-1.3503.9717-1.3742,1.7444-.764Z"/>
  <path d="M362.4673,356.5371c.4049.387-2.607,4.6255-3.1057,5.22-.3791.452-2.4541,2.7975-3.0891,2.1372-.2358-1.8572,1.5295-2.9101,2.5304-4.2365,1.1008-1.4587,1.3441-3.7225,3.6644-3.1207Z"/>
  <path d="M115.6762,189.9434c-.429,3.4698-1.6619,6.828-2.2743,10.3131-1.2299,6.9996-2.1363,14.5694-2.7584,21.6495-.5852,6.66-1.0389,13.4902-.5465,20.1615-.8643,1.4056-1.9492,1.4264-2.1267-.3521-1.2023-12.0491,1.2049-36.5918,4.9894-48.1.4769-1.4501.8428-3.7336,2.7165-3.672Z"/>
  <path d="M143.7325,133.9347c-7.5675,5.2798-14.8295,16.4306-19.0955,24.4794-.8184,1.5441-.8122,4.5608-3.1453,4.0202-.5866-1.9679,1.1105-2.7581,1.6413-3.9745,3.9962-9.1576,11.1416-21.6415,19.9546-27.0088.6343-.3863,7.4934-4.2204,7.4514-2.1417-1.8364,2.1297-4.5004,3.0165-6.8065,4.6255Z"/>
  <path d="M114.9052,245.7324c.1442-12.2129.8677-25.1382,3.6932-37.0349.2117-.8914,1.21-5.1744,1.9229-5.1884l.9398,1.3251c-.84,3.6058-1.7093,7.2522-2.2475,10.9196-1.1883,8.0982-1.8198,16.5429-2.3688,24.7511-.1383,2.0677.9833,5.7801-1.9395,5.2275Z"/>
  <path d="M137.229,151.8334c-1.4906,2.09-2.9316,4.0567-4.2626,6.3867-1.6038,2.8074-3.5426,8.1625-5.1276,10.3694-.2633.3666-.5613.9288-1.113.8163-1.7055-1.5233.2802-2.8684.6589-3.9908,1.1763-3.4867,2.5773-6.4685,4.6331-9.6932.5947-.9328,3.9244-5.7494,4.4685-6.089.6981-.4358,1.5279-.6013,2.0411.2079-.4632.6487-.8366,1.3453-1.2984,1.9928Z"/>
  <path d="M213.6953,359.6365c.0929.9355-.4014,1.6892-.8434,2.4457-3.055,5.2279-9.6931,13.4441-14.0647,17.704-1.6729,1.6302-2.253-.0036-1.155-1.553.351-.4954.9989-.6309,1.3555-1.0675,4.4922-5.4988,8.7727-11.2255,12.8831-17.0286l1.8246-.5006Z"/>
  <path d="M212.1474,351.4986c.1262.8567-.3537,1.495-.7072,2.1994-1.294,2.5782-8.8769,13.39-10.889,15.0673-.5233.4363-.8333.6852-1.574.553-.9926-1.0293,3.3574-5.6726,4.0327-6.6174,2.074-2.9018,4.3275-5.8416,6.1596-8.5837.6217-.9305.9869-2.0493,1.8054-2.8301l1.1725.2115Z"/>
  <path d="M203.2387,384.4277c.0017-.7546.1647-1.5205.5303-2.183,1.1194-2.028,4.6853-6.6324,6.2729-8.6378.4339-.548,2.1644-2.7469,2.6892-2.7275,1.7651.0651-1.3132,4.1953-1.5849,4.6066-1.1083,1.6774-5.0592,7.4421-6.3426,8.3795-.5302.3872-.7816.7317-1.5649.5621Z"/>
  <path d="M154.8064,338.7154c.7207.7507-1.6511,3.2059-2.1738,3.8273-.9274,1.1025-8.618,9.0898-9.2471,8.9541-.5991-.1292-.828-1.4667-.4151-1.9672.2609-.3162,1.0064-.2141,1.2685-.4636.2235-.2127.2244-.9786.6626-1.4613,1.8824-2.0736,6.2847-6.8225,8.3398-8.3276.5307-.3886.7817-.7305,1.5652-.5618Z"/>
  <path d="M209.0194,325.1101c-.8076.8459-7.767-.8926-9.5906-1.0365-5.1631-.4074-12.9056-.3827-18.0408.3457-1.3879.1969-8.6459,3.0896-8.2786.5343.1976-1.3745,7.6602-2.6597,9.0678-2.8442,7.9544-1.0427,15.1874-.7379,22.9898.9192,1.5853.3367,3.7446-.5862,3.8524,2.0815Z"/>
  <path d="M162.4819,313.2098c.29.7052.0871,1.9033-.8811,1.8789-1.263-.6394-2.5095-1.2531-3.9194-1.5252-7.5395-1.4549-19.249-.9532-26.6776.7663-1.2354.286-2.2141,1.3033-3.5214.7947-2.9725-1.1564,1.2223-2.6647,2.4488-3.0321,5.4155-1.6222,13.2389-1.9207,18.8907-1.6686,4.5866.2046,9.4767.7972,13.66,2.786Z"/>
  <path class="cls-2" d="M230.7045,174.8621c.7067,1.5778,1.8294,11.2159.7464,11.9126-5.3769.6136-11.2544-.6706-16.4156.8259l-.5658,17.4494-12.3959.0029c-.1272-2.1326.3079-16.6799-1.147-17.644l-16.6757-.1774v-12.0142c.5544-.5571,13.1484.5831,15.6518-.815,1.8394-1.0272,1.7371-4.0721,1.7962-5.9402.1229-3.8891-.28-7.7132-.413-11.5817l1.0772-.5533,12.7021-.1129-.001,16.3549c.1205.6871.3992,1.2421.9614,1.6786,2.2526,1.749,11.6098.3225,14.6789.6144Z"/>
</svg>