<?xml version="1.0" encoding="UTF-8"?>
<svg id="Layer_1" data-name="Layer 1" xmlns="http://www.w3.org/2000/svg" viewBox="0 0 480 496">
  <defs>
    <style>
      .cls-1 {
        fill: #fff;
      }

      .cls-2 {
        fill: #ee2b2f;
      }
    </style>
  </defs>
  <path d="M365.3502,378.5281c1.7378-1.8164,3.3403-4.1123,4.5542-6.3188,1.1089-2.0156,2.3667-6.478,3.2979-7.7734,2.9375-4.0874,12.5112-11.4077,16.6143-15.4121,2.396-2.3379,4.7085-4.8193,6.8994-7.3418l-.5942-.9746-1.5049.8604-21.2202,19.9033-.7856-.415.355-7.1343-.7534-.5557c.6689.0405,1.0898-.1802,1.6064-.5698,2.4673-1.8599,4.6035-5.0151,6.833-7.2041,4.186-4.1108,11.5332-9.7734,14.8589-14.2041.4839-.6445.5186-.9521.4204-1.7476-.5854-.6094-3.4077,1.7119-3.9565,2.168-4.4468,3.6914-8.4941,8.585-12.6958,12.5952-2.0283,1.9355-4.3218,3.5435-6.082,5.793-.4429-2.5718-1.0942-7.3345.2197-9.5796.3555-.6069,1.6812-1.3257,2.1685-1.8608,5.1343-5.6338,10.6558-10.9868,15.7798-16.6587.7739-.8564,1.9331-.7441,1.8062-2.5366-2.1377-.7383-3.873,2.3516-5.125,3.5781-4.9434,4.8418-9.6973,10.0791-15.0405,14.4067-.0776-2.4995-.8281-5.708.3911-8.0229.9048-1.7178,6.3701-6.2612,8.1108-8.1816,1.2163-1.3418,4.8872-4.5977,3.1572-5.9287l-11.2734,11.8506-.6343-2.1025c-.0088-45.8838-.519-92.0234-.165-137.6553.0469-6.0273.627-12.1279.4365-18.2061-.0283-.9126-.3306-1.8081-.0381-2.7129l-.7852-.4404.7979-.4292c-.5317-6.1968.5703-13.8433-2.1597-19.5542-3.7983-7.9463-11.6509-14.0874-20.1499-16.2598-9.6924-.0464-19.6001-.6509-29.3115-.3511-.6689.0205-1.1641.1128-1.7549.4155.6113-2.7349.3506-5.5854-.2046-8.3032-1.728-8.4575-6.3457-18.3315-14.3799-21.9771-11.686-5.3027-22.0591-.1079-27.8745,10.5605-3.1011,5.689-5.1323,12.1431-5.0732,18.6875l-.9072.6382-65.04-.0044c.3179-1.3276.3945-3.8291.248-5.25-.6934-6.7358-2.5962-14.1191-7.1953-19.2485-.3228-.3599-1.0127-.3257-1.2197-.54-.9399-.9736-1.7075-2.3687-2.9199-3.2114-8.1274-5.6509-17.8789-4.6914-25.4897,1.3677-6.3794,5.0786-11.6216,17.9106-12.0288,25.9497-.0278.5498.2036.8628.3677,1.3286-2.1089-.8931-4.1152-.021-6.1362.0029-12.46.1499-25.1768-3.0615-34.4023,7.4995-5.8745,6.7251-6.0337,15.0879-6.146,23.5391-.0713,5.3525.1445,10.6069.2534,15.4214.0796,3.519.3887,7.0991.1514,10.6143l.8159.4551-.8311.7622.0005,26.5483.8306.7617-.8306.7622c-.0776,18.8047.459,37.458.4551,56.1641-.0039,21.0942.4219,43.4023-.4536,64.4526-.0347.8335.3711,1.6831.311,2.3271-.1802,1.9229-3.7451,4.561-5.0405,5.9761-6.5571,7.1641-13.5586,13.8408-20.1279,20.9673-.9707,1.0527-3.3862,2.5093-3.1816,3.9409.1519,1.062,1.9536-.1284,2.3486-.4131,4.5869-3.311,8.1987-9.4043,12.8374-12.8613l12.8823-13.8013c-.3569,3.3784.9653,6.8711-.3662,10.106-4.7617,4.3516-9.6777,8.7041-14.1211,13.3579-.9795,1.0259-1.9561,2.5801-2.9087,3.6157-.7485.8135-4.936,3.9404-3.9492,4.9424,1.0361.1514,1.8682-.2866,2.627-.9277,4.6602-3.9351,9.6558-10.2993,14.1172-14.7461,1.4785-1.4736,2.9961-2.8711,4.4917-4.3774.2173-.2192-.022-.7847.9038-.5029-1.5361,2.1196.1831,7.3696-.999,9.0659-.4707.6753-1.3672.9805-1.9771,1.5952-1.4761,1.4878-2.8257,3.1465-4.2788,4.6167-1.7744,1.7954-5.0767,3.1719-5,6.0674,1.0635,1.1504,6.6025-5.5635,7.2534-6.186,1.3096-1.2529,2.481-2.0425,3.7808-3.4409,1.0645-1.145.5889.2573.6724.5503,1.3076,4.6025,2.2656,8.6143,5.688,12.2388-1.9434-.4702-3.9995.6616-5.8848.9541-7.4712,1.1587-17.1904,1.7275-24.3203,3.8354-2.8013.8281-3.8296,2.9614-.9297,2.6475,5.5635-.6021,12.5249-2.8779,18.394-3.7666,4.7891-.7251,9.6509-.96,14.437-1.6167.2886.4229,2.793,1.7026,2.2544,2.2983-.4258-.106-.6934-.3345-1.1851-.23-7.4175,1.5718-15.647,2.959-22.8335,5.269-.4297.1382-3.9097,1.1865-2.6602,2.0767.3638.1191.7207.3145,1.1187.2812,4.3003-.3589,10.624-2.8052,15.1938-3.7305,2.7603-.5586,12.0356-2.4712,14.1372-1.8828l4.9292,2.1665c-.9575-.0229-1.9004-.0381-2.855.1128-5.0513.7983-13.3921,2.063-18.0269,3.7188-1.2656.4521-2.4194,1.3022-1.064,2.4878,2.1797-.7954,4.5649-1.3838,6.8208-1.8472,5.6255-1.1562,11.9072-2.6401,17.498-3.5127,5.5269-.8623,11.7407.2231,17.3965-.1606l-23.6582,5.397-1.6426,1.1284c-.1274.6187.4731.8892.999.9795.6079.1045,10.9326-2.1479,12.0757-2.5498.8784-.3091.7588-.918.8174-.9385.2222-.0781.8335.3882,1.3154.335,7.0591-.7749,14.5952-3.7476,21.7632-4.3481,4.5581-.3818,9.6533.5815,14.2271-.4062l-.188.603c-6.7881.8452-13.4209,2.5522-20.0669,4.0522-1.9136.4316-4.2002-.1279-5.6387,1.8774-.1206.5659.4722.9443.9785.9941.7021.0688,4.3926-.7065,5.436-.9097,9.3438-1.8188,20.0073-5.144,29.3979-6.187,4.627-.5137,10.0659.4116,14.7935-.0273-.1968.4824-1.9614.8062-2.4639.8931-8.3228,1.4424-18.1089,3.0283-26.1758,5.4526-.7065.2124-3.7856,1.1372-3.772,1.7559l.9741.853,34.5132-7.6655c5.9717-1.457,10.9468-1.0874,16.96-1.0469,1.7529.0117,3.8105-.5161,5.6646-.2422l-22.9658,4.9761-12.6152,3.9214.9707,1.2173c9.752-2.1748,19.4741-4.7202,29.2544-6.7559,7.6787-1.5981,14.772-3.1157,22.542-3.3809,3.2178-.1099,6.4902-.1465,9.71-.2124.5962-.0122.9746-.1924,1.1787.6216-1.2593-.0176-2.541-.0093-3.7769.2041-9.5166,1.6416-20.9927,3.7646-30.2422,6.3081-1.3408.3687-3.0176.8711-2.146,2.5908l23.1089-4.9556c8.2319-.9443,16.9858-3.7822,25.1636-4.4907,5.1045-.4419,10.5117.5044,15.5654-.4429.1885,1.2031-.2861.6514-.9927.7734-9.7339,1.6807-19.3618,3.6973-28.9536,5.8486-1.5757.3535-10.0977,1.4468-10.3779,2.6738-.1206.5298.4556.9766.9717.9536,8.2329-1.4243,16.4082-3.4609,24.6392-5.0005,8.4946-1.5894,19.2549-4.0488,27.6187-4.8032,5.6011-.5049,11.5186.145,17.1465-.0469l-40.8325,7.9917-1.0728.9062,1.3887.7725c16.8701-2.6768,33.6177-7.0186,50.5806-9.064,5.1665-.6226,10.0239-.2305,15.0386-.6167,2.7705-.2139,5.6514-1.3716,8.5054-1.1777.1733,1.3442-.3442.5278-.7378.6221-13.0981,3.1382-26.6699,5.3418-39.9336,8.2275-2.0405.4443-4.7378.1118-6.3765,1.6309-.3364,1.4014,3.5703.9204,4.3413.813,8.0767-1.1255,17.6685-3.3984,25.7949-5.0791,4.9849-1.0308,10.0933-2.7642,15.0898-3.063l.6328-.7778.1685.7554c5.6392-1.207,11.3052-2.2739,16.9263-3.5605.2861-.0654.2891-.6602.5986-.7329l27.6831-3.2827.1177-1.6953c-11.0923.4517-22.3491,1.9756-33.2324,4.1597,2.8359-2.1626,6.0752-3.8628,8.5601-6.4609ZM358.5763,363.2546c1.082-2.3345,6.2441-5.4009,7.6992-7.916.5322,5.3579-5.0073,7.4004-7.8999,11.0708.0713-1.0171-.2505-2.1816.2007-3.1548ZM364.043,176.3645l2.2358-1.7139c-.9058,4.0405,1.0742,6.7559-3.8193,8.8296l-3.6885,4.2124-.3579-3.3867.7642-.4268c-.5776-2.8203,3.6416-5.0103,4.8657-7.5146ZM366.0665,195.9719c-.4473.8809-4.1646,3.8599-5.186,4.9062l-2.5083,2.6279-.0088-5.2515,7.9121-7.792c-.9585,1.4517.3164,4.4751-.209,5.5093ZM358.8853,189.7869l6.9985-6.4419v5.5356c-.8174-.5181-1.7178.6235-2.4531,1.2104-1.1841.9453-2.6328,2.4062-3.7002,3.5264-.4517.4736-.9453,2.3218-1.3604.5908-.3662-1.5259-.0127-2.9756.5151-4.4214ZM358.2764,207.1868c.4336-1.2715,5.5645-6.439,6.8887-7.7563.3486-.3462.3364-.8652,1.1128-.6626l-.1846,6.709-7.7178,7.127c.3501-1.3936-.4722-4.3247-.0991-5.417ZM358.3443,217.9148c.333-3.7329,5.084-6.4087,7.5396-8.8696v6.1289c-2.3496,2.5195-5.8115,4.9429-7.1221,8.1025-.6689.1011-.3623-.5527-.3667-.9907-.0142-1.3496-.1597-3.1558-.0508-4.3711ZM358.4464,225.9578l7.4336-7.8164.2153,5.9204c-2.4019,1.4727-3.9912,4.043-5.8906,5.8179-.2124.1982-1.4194.4165-1.8291,1.3071-.2607-1.7959-.5981-3.4702.0708-5.229ZM358.6744,234.4558c.2266-.5,5.3706-6.0103,6.0669-6.5718.2222-.1787,1.0244-.7373,1.1382-.6499,1.1777,4.8257-1.6035,6.5493-4.5059,9.7305-1.127,1.2349-2.311,2.4136-3.3936,3.7119.2441-2.022-.1714-4.3091.6943-6.2207ZM358.1265,254.3904c.4858-3.1572,5.5737-6.6274,7.7534-8.9692-.2686,1.209.3081,2.6201.2578,3.6958-.1172,2.4976-2.9585,4.5708-4.4775,6.3135-.3188.3662-.3052.9312-.5054,1.1558-.4399.4941-2.7451,3.0303-3.1782,2.6694.9775-1.4888-.085-3.3359.1499-4.8652ZM366.0655,267.1409c-.3862,1.0962-4.0088,4.564-5.0913,5.792-.8599.9751-1.6719,2.0234-2.5986,2.9331.1338-2.0073-.812-3.5098-.1719-5.5264.499-1.5732,6.688-6.7891,8.0723-8.312-.7212,1.3691.188,3.9824-.2104,5.1133ZM366.0631,294.4695c-.3232.8643-2.6689,2.2251-3.3667,2.9316-1.3926,1.4111-2.4326,3.2988-4.3208,4.1646-.1406-.1919-.0063-4.2651.248-4.7524.4961-.9507,5.5083-6.6118,6.5425-7.6289.3467-.3413.3325-.8677,1.1113-.6641-.8467,1.3911.0615,5.2114-.2144,5.9492ZM358.3756,294.447c.2085-1.54-.3472-3.8486.0757-5.2563.1572-.5229,6.6909-8.125,7.2349-8.1768l.5205,4.6768-7.8311,8.7563ZM362.5367,301.1931c.481-.4751,2.9712-4.2227,3.7427-3.5771-1.002,1.1206.1514,3.1323-.1855,3.9399-.0928.2222-2.5674,3.2578-2.9941,3.7661-1.375,1.6372-3.4111,3.1543-4.7241,4.9424-.8906-5.7988.9321-5.8809,4.1611-9.0713ZM358.3541,323.4919c.2988-2.1123,5.3594-6.8843,7.021-8.7676.2358-.2676-.0215-.7607.9028-.5034-.5801,1.168-.1167,2.9727-.5854,3.9644-.144.3042-3.3965,3.4033-3.9736,3.9165l-3.3433,4.3716c.0903-.9546-.1514-2.062-.0215-2.9814ZM364.5294,312.8626l-6.1538,6.8892c.3882-2.1851-.9307-5.625.5088-7.3984.2349-.2896.9302-.4644,1.2827-.8745,1.9277-2.2446,3.9702-4.2988,6.1084-6.354-.9946,2.6924.6494,5.6694-1.7461,7.7378ZM366.2735,334.1458c-.2603,2.3647-6.0996,7.3809-7.8979,9.3311-.8311-5.1377,1.0737-7.5566,4.4834-10.9321.3057-.3027,3.1489-2.7993,3.4189-2.5083-.7593,1.4829.1494,2.7104-.0044,4.1094ZM365.6803,259.6492l-7.3042,7.1221c-.1836-.1489-.2012-3.4004-.0474-3.7798.6968-1.7173,5.5063-6.7769,7.0449-8.7681.2544-.3286-.0063-.7241.9038-.4971l-.5972,5.9229ZM358.3907,333.7297c.124-.6118-.3315-2.7646-.2207-3.5093.4468-2.9966,6.3223-6.2827,7.3252-9.2803,1.2793.4028.3662,1.3813.3921,2.1992.0195.6333.397,2.8018.3032,3.0889-.0967.2964-1.2432,1.1514-1.6689,1.6475-1.7495,2.0376-4.1523,3.7734-5.6289,5.4097-.1089.1211.4546,1.4688-1.3101,1.0938-.1694-.667.708-.1553.8081-.6494ZM358.4683,346.9509l7.4155-8.2183v6.3262c-2.9307,1.5532-5.3013,3.9648-7.1221,6.7183l-.665-3.4199.3716-1.4062ZM366.2755,347.0354c-.9019,1.8193.6455,4.4238-.5098,5.8198-.2305.2778-.8906.4419-1.2847.8896-1.1963,1.3608-2.3765,2.7778-3.4785,4.2246l-2.6289,2.1118c-1.3423-6.272,4.022-9.3223,7.9019-13.0459ZM365.8824,273.6907c-.0049.7559.4297,1.4873.4116,2.3535-.0684,3.2256-3.6562,4.9775-5.8071,7.0771-.6406.625-1.0771,1.8794-2.1118,2.2329l-.1621-5.9473,8.0625-9.0767c.2803,1.1543-.3862,2.333-.3931,3.3604ZM365.8839,235.7341c0,1.8022.2759,4.7222,0,6.3262-.1436.835-4.3784,4.6899-5.1777,5.5308-.2764.291.0054.8027-.0806.9097-.3159.3921-1.6475.7139-2.0591,1.2671-.2334-1.2129-.5503-2.8535-.436-4.0811.4048-4.3369,5.5264-6.8901,7.5508-10.5513,1.6108-.9873.2026.4297.2026.5986ZM365.6886,172.2659c-.4619,1.0254-3.0635,2.7085-3.9722,3.5513l-2.9453,3.9678c-1.1279-5.6167,2.0703-7.5098,5.145-11.2749l2.3633-2.1626c-1.0659,1.4658-.0664,4.7559-.5908,5.9185ZM365.668,163.1624c-.146.4316-2.8179,3.9014-3.3506,4.5571-1.0054,1.2373-2.3511,2.7056-3.5464,3.7642.2534-1.3945-.2944-3.1382-.1807-4.4116.2466-2.7637,5.2896-7.3672,7.2905-9.4263-.3691,1.8228.4082,3.6846-.2129,5.5166ZM365.2745,154.8635c-.4434,1.0786-4.7202,6.084-5.7881,7.2568-.3516.3857-.3555.8481-1.1128.6626.2988-1.3589-.2632-4.3916.1992-5.5161,1.002-2.4375,4.5889-4.4326,5.9272-6.731.9829,1.0454,1.3096,3.0249.7744,4.3276ZM360.9415,144.2087c.4683.4004.7861.9277,1.1685,1.3979.4751.5845,1.853,2.4976,1.7402,3.084l-5.0796,5.0005c-.2173-4.188-1.9966-6.6729,2.1709-9.4824ZM287.1983,108.0203c11.979-10.3369,24.3784,3.7695,26.29,15.7954.3252,2.0474-.0259,4.1338.5986,6.1494l-1.9756-.001c1.085-5.5566-1.6187-15.3818-6.1299-18.9736-2.7202-2.166-6.9678-2.8843-10.0962-1.4004-10.9878,5.2124-11.7896,28.7109-6.5156,38.1772,2.6226,4.707,5.1494,4.459,10.0864,4.1421-2.2251,2.6841-4.2129,4.4668-7.9585,4.313-8.3838-.3447-11.3208-11.1079-12.3989-17.9458-1.5425-9.7856.2227-23.46,8.0996-30.2563ZM306.1807,129.5725h-12.4551c-.106,0-.4072.6191-.8037.0215-1.144-2.0967,1.9302-12.6299,4.4424-13.3813,6.3721-1.9062,9.2002,8.7578,8.8164,13.3599ZM165.1368,122.7629c3.1743-13.7642,16.5361-25.8638,28.5107-12.3174.7212.8159,1.4756,1.3525,2.1484,2.3945,3.2153,4.9805,4.1221,10.9517,4.8159,16.7285l-1.979.0063c-.1621-4.5571-.9805-9.5576-3.248-13.5684-.3213-.5688-.9834-.6279-1.0415-.7202-.1411-.2236.5938-.0679-.4355-1.4365-3.4409-4.5752-7.2559-6.7783-12.9429-4.1221-7.708,3.5996-9.5352,17.1982-9.2246,24.8057.3047,7.4639,2.5879,19.4941,12.6611,17.1846-5.7646,8.02-14.4902,3.6797-17.2896-4.2632-2.6958-7.6494-3.8096-16.7388-1.9751-24.6919ZM192.3087,129.9641c-.7529-.0562-1.3564-.3799-2.1499-.416-3.2358-.1475-7.4429-.1367-10.687.0093-.5464.0244-.9165.2231-1.3931.4102-.2363-2.3042.2231-4.3105.8105-6.5.314-1.168,2.2056-6.1265,2.8486-6.8325,1.4106-1.5498,5.1875-.4756,6.4829.8145,2.3643,2.3525,3.3667,9.2319,4.0879,12.5146ZM125.3614,139.5266c6.8394-4.5728,18.6387-2.7275,26.7944-2.8262,1.5669-.019,3.6846-.4331,5.3555-.4111l.7075,7.042-21.9165,19.1968c-.3975,1.106-2.6069,1.9702-1.1201,3.0244l23.9102-20.5596c.333,1.0356,1.9175,5.9644,1.5142,6.6475l-15.3682,12.9033c-.791,1.3779-.5034,2.6768,1.1768,1.5737,3.9668-2.605,8.1934-7.4067,12.0967-10.4424.478-.3721,3.4839-2.5771,3.7422-2.3784l2.1914,4.356-8.936,8.0679-.3647,1.8071c1.2852,1.3247,9.6191-8.0547,11.2725-8.6025l3.7363,3.2388c-.0913.4072-6.7334,5.9922-4.5298,6.1597,2.1201.2305,6.1021-5.7002,7.106-5.8037,2.4863,1.1455,5.1196.6152,7.7178.2695-1.3232,1.6377-4.188,2.687-3.9517,5.1338.5542.0493,1.0513.0439,1.5708-.2046,1.0029-.479,4.7368-4.7148,5.9858-5.8555.8135-.7432,2.7798-1.6816,3.707-2.6392,3.0698-3.1704,3.7085-7.7178,4.5459-11.8584l-1.5747.3955c-1.4219-4.0122-6.6699-7.5859-11.0952-6.5117-.5229-.2939-1.7871-4.3848-.5854-4.8096l92.0718-.0908.4619.3281c1.7891,5.1885,1.772,10.8818,4.3286,15.8491,4.2202,8.1987,14.5347,13.7988,23.4316,9.1553,4.7495-2.479,6.0459-5.5635,6.603-10.7139.1797-1.6597-.5947-1.2646,1.4165-2.6196-.0024-1.5654-2.251-.5098-2.3633-.5859-.1553-.105-.8501-2.521-1.4692-3.4561-1.5767-2.3813-6.6196-3.894-9.2065-2.4736l-1.5117-5.0439.5391-.8643c.6431.1572,1.2603.3848,1.939.3892,13.2686.0845,27.0684-.7158,40.3623-.0356,5.7241.293,8.4277.6426,12.2085,4.9912,1.2075,1.3892,2.1182,2.2793,2.7925,4.127,2.0322,8.3608.6377,17.21,1.3931,25.6826-2.021.562-4.0757-.0479-6.1387-.0166-70.8203,1.0723-142.0405.3193-213.5005.2485-4.4751-.0044-9.2788-.0776-13.6372.5684-.5801-2.6343-.0083-5.1401.0039-7.6909.041-8.4219-1.4961-19.2568,6.5869-24.6611ZM351.8184,363.7009c-.4697,4.1963-2.4248,9.4219-5.4478,12.4536-7.0347,7.0547-30.7524,4.4971-40.7939,4.5308-1.0625.0034-2.0791.3628-3.146.3677-42.0757.1787-84.2466-.3169-126.1377-.4375-12.4199-.0361-24.9668.7954-37.3809.251-19.1958-.8413-20.3457-12.3491-20.5552-28.5112-.1865-14.3643-.1221-28.9478-.1592-43.4746-.1104-43.521.3696-86.9414.5669-130.2822l232.9092-.603c.4009.2212.3701,4.9727.3862,5.9185.2959,17.7583-.3779,35.3428-.4233,52.9839-.1089,42.2891.0557,84.5518.1816,126.8032ZM359.0382,141.9475c1.3428,1.48-.6982,2.001-1.6558,3.0376l-4.147-6.7139c1.3555,1.3364,4.6743,2.4331,5.8027,3.6763ZM354.418,377.0813c2.5137-2.6348,3.4326-5.7563,5.1509-8.8813l6.7104-5.7402c-1.8882,5.3999-6.1406,10.1865-10.4766,13.8354-.4438.3735-.6436.9585-1.3848.7861Z"/>
  <path d="M399.8889,386.1771l-.0034,1.9773-25.4613,2.8028-.6268-.8207c.0347.2809.0759.6911-.2702.7878-3.2082.896-8.2181,1.067-11.7289,1.6466-5.7288.9458-13.6593,3.1054-19.1031,3.4643-1.6894.1114-2.4203-.7431-.9023-1.7235,1.8522-1.1963,16.7577-3.4535,20.1328-3.976,7.2922-1.129,14.7209-1.7556,22.0286-2.7949l15.9346-1.3636Z"/>
  <path d="M106.3433,325.1223c-7.6827,9.7318-17.3415,18.2049-25.804,27.1394-.1127.1189-.5885,2.5967-2.0998,2.2843l.2117-2.3705c8.2926-8.7631,16.4262-17.6425,24.6974-26.404.6332-.6707,2.9747-4.274,4.1423-4.0404,1.585.3171-.8087,2.9618-1.1477,3.3912Z"/>
  <path d="M105.5535,314.0529c-3.6975,5.5178-11.1327,11.9682-15.9067,16.9108-2.5133,2.602-4.3489,5.2285-7.2549,7.573-1.1934.9628-1.8858.4384-1.301-.8954.1015-.2316,2.8253-3.3335,3.2798-3.8488,1.2833-1.455,3.2582-3.0979,4.558-4.5249,4.7779-5.2453,10.3174-12.4071,15.4282-17.0039.4386-.3945,1.9657-1.1689,2.1542-.212.0936.8763-.5392,1.3768-.9576,2.0012Z"/>
  <path d="M394.4916,355.083c-5.9529,5.8985-12.043,11.4937-18.2809,17.121-1.1461,1.0339-2.9641,4.3396-4.3922,2.6922-.3442-1.7522,4.9923-5.4453,6.328-6.7019,5.0578-4.7582,10.1721-10.2904,15.3907-14.6476.3795-.3169,4.309-3.4907,4.3634-1.5713.0293,1.0332-2.7056,2.4107-3.409,3.1076Z"/>
  <path d="M108.485,333.1991c.3279.2894-1.6662,2.8261-1.9966,3.2428-5.7011,7.1895-13.2109,13.7599-19.318,20.6994-.7932,1.0218-2.3173.6021-1.9508-.7472,2.4759-2.3965,4.6949-5.0638,7.0369-7.603,1.3621-1.4768,2.7694-3.0466,4.1656-4.5288,2.0605-2.1874,8.1022-9.173,10.0657-10.4943.7101-.4779,1.059-.7378,1.9973-.5687Z"/>
  <path d="M401.4668,359.6899c.7818.7924-3.5648,4.4827-4.2662,5.1159-3.9202,3.539-7.9947,6.6061-12.0299,9.924-.3379.2778-3.0449,3.876-3.4672,2.148-.4884-1.9985,4.9289-5.4078,6.3466-6.6986,1.1382-1.0363,2.5469-2.7489,3.7259-3.7579,1.1362-.9723,8.725-7.7104,9.6908-6.7314Z"/>
  <path d="M101.5217,305.6653c-2.9978,4.2227-9.8151,12.4233-13.5796,15.8729-.7285.6675-1.2065,1.6025-2.3847,1.3778-.7503-1.4469.6381-2.8972,1.5738-4.0425,2.387-2.9219,5.8686-5.8645,8.4655-8.649,2.0259-2.1723,3.8926-4.5785,5.7641-6.8884,3.0093-.3069.7899,1.4432.1609,2.3292Z"/>
  <path d="M401.0714,369.97c.158.7809-.1574,1.0602-.5695,1.6011-.6407.8409-4.5326,3.8306-5.5488,4.343-1.2943.6527-1.1288-.6671-.4208-1.6137.6765-.9044,5.7182-5.1507,6.5392-4.3304Z"/>
  <path class="cls-1" d="M351.6368,236.8977c.0454-17.6411.7192-35.2256.4233-52.9839-.0161-.9458.0146-5.6973-.3862-5.9185l-232.9092.603c-.1973,43.3408-.6772,86.7612-.5669,130.2822.0371,14.5269-.0273,29.1104.1592,43.4746.2095,16.1621,1.3594,27.6699,20.5552,28.5112,12.4141.5444,24.9609-.2871,37.3809-.251,41.8911.1206,84.062.6162,126.1377.4375,1.0669-.0049,2.0835-.3643,3.146-.3677,10.0415-.0337,33.7593,2.5239,40.7939-4.5308,3.0229-3.0317,4.978-8.2573,5.4478-12.4536-.126-42.2515-.2905-84.5142-.1816-126.8032ZM334.5528,226.7688l-.7168.2871c.4243,23.4092.4453,47.0361.4492,70.3652.0034,20.2793.4165,40.7988-.6978,61.0078-2.7056,7.9497-8.355,8.3857-15.7031,8.6113-6.4399.1982-13.0396-.4575-19.396-.4312-46.3203.1899-92.2178.6807-138.4033.2217-6.0278-.0601-16.23,1.7217-20.958-2.4126-4.7388-4.144-3.5073-9.4404-3.5815-14.8135-.7129-51.4722.1064-103.2017.0571-154.4429.7134-2.5605,2.5781-3.6372,5.1055-3.9116,6.4077-.6963,15.1055.0601,21.7563.0195,53.1753-.3213,105.8037-1.1445,158.9385-.5859,2.4141.0254,9.147-.1504,10.8394.8008,1.1216.6304,1.7974,1.9102,1.9746,3.165,1.3848,9.8003-1.1636,22.103.3359,32.1191Z"/>
  <path class="cls-1" d="M347.8615,141.2689c1.2075,1.389,2.1181,2.2793,2.7926,4.1267,2.0322,8.361.6376,17.2102,1.3928,25.6827-2.0209.5621-4.0754-.0477-6.1385-.0164-70.8201,1.072-142.0405.3193-213.5006.2484-4.4748-.0044-9.2784-.0779-13.6369.5685-.5804-2.6347-.0084-5.1405.004-7.6912.0409-8.422-1.4965-19.2566,6.5869-24.6611,6.8392-4.5727,18.6385-2.7277,26.7944-2.8262,1.5665-.0189,3.6846-.4332,5.3553-.4113l.7078,7.0422-21.9169,19.1967c-.3974,1.1063-2.6066,1.9701-1.1199,3.0244l23.9099-20.5592c.3331,1.0357,1.9174,5.9642,1.5145,6.6474l-15.3685,12.9031c-.7906,1.3781-.5031,2.6771,1.1772,1.5737,3.9667-2.6047,8.1932-7.4065,12.0963-10.4422.4784-.3721,3.4843-2.577,3.7425-2.3785l2.1913,4.3561-8.9361,8.0676-.3647,1.8075c1.2851,1.3247,9.6193-8.0549,11.2727-8.6028l3.736,3.239c-.0911.4071-6.7333,5.9919-4.5298,6.1597,2.1201.2303,6.1022-5.7002,7.1059-5.8039,2.4863,1.1456,5.1196.6154,7.7179.2693-1.3229,1.6378-4.1881,2.6874-3.9518,5.134.5546.0492,1.0515.0439,1.571-.2044,1.0028-.4794,4.7369-4.7151,5.9858-5.8558.8134-.743,2.7798-1.6813,3.707-2.6389,3.0698-3.1706,3.7084-7.7177,4.5459-11.8586l-1.5744.3958c-1.4223-4.0122-6.6702-7.5859-11.0954-6.5119-.5229-.2938-1.7873-4.3844-.5857-4.8094l92.0719-.091.4621.3283c1.7888,5.1885,1.7719,10.8818,4.3287,15.8491,4.2201,8.1987,14.5345,13.7988,23.4312,9.1551,4.7497-2.4791,6.0464-5.5634,6.6033-10.7138.1795-1.6599-.5947-1.2646,1.4162-2.6199-.0021-1.565-2.2505-.5095-2.363-.5856-.1556-.1051-.8502-2.5213-1.4691-3.456-1.577-2.3816-6.6199-3.8944-9.2065-2.4736l-1.512-5.0442.5392-.8644c.6432.1576,1.2602.3851,1.9388.3895,13.2688.0845,27.0684-.7159,40.3626-.0355,5.7238.293,8.4277.6422,12.2083,4.9911ZM316.1845,154.9994c3.0242-2.6988,6.5706-5.127,9.5781-8.0194,1.197-1.1512,4.6461-4.2199,5.3467-5.3284,1.1752-1.8593-.3337-1.8983-1.6998-.997-7.0381,4.6431-14.2263,14.5344-21.5075,19.5025-1.1182,1.0119-1.394,3.2189.5439,2.326,1.8758-1.5465,3.6467-3.2036,5.4548-4.828.8799-.7905,1.6371-2.0785,2.2839-2.6557ZM210.0993,140.25c-1.0376-.1476-1.6403.4016-2.377.9799-3.1544,2.4763-6.9833,7.4093-10.0122,10.3491-.4936.4791-1.3295.6789-1.8315,1.1459-1.0422.9696-3.6136,3.556-.4075,3.1417,2.9252-2.7511,6.1585-5.379,8.9564-8.2445.9462-.969,4.8898-4.8773,5.2982-5.5747.3686-.6295.4797-1.065.3736-1.7973ZM197.7132,145.2544c.3041-.2596.4958-.8789.8979-1.2631.579-.5533,1.8839-1.0848,2.2014-1.7652,1.078-2.3093-1.2607-1.2581-2.364-.3854-.5461.432-4.2322,3.6735-4.3717,3.9323-.3256.6042-.1726,1.4575.4251,1.59.3371.0747,2.8518-1.8017,3.2113-2.1086ZM318.8309,140.6455c-1.1512-1.1904-6.6409,4.8355-7.5514,5.6891-.7371.691-3.1218,1.3972-2.1399,3.012.4356.7164,1.043.2202,1.5275-.0649,1.3354-.7858,2.9428-2.8567,4.1128-3.9065.6392-.5736,5.2568-3.4828,4.051-4.7297ZM127.6306,151.0887c3.2375-2.7539,6.4602-5.5356,9.7106-8.2791l.2085-1.3774c-.5476-.8992-1.603.2674-2.1369.635-4.9578,3.4138-9.2576,8.3742-14.0516,12.0435l-.6154,1.9507c1.0243,1.0279,6.0051-4.2245,6.8847-4.9728ZM145.5193,146.8345c.7304-.6834,2.5145-2.684,1.1223-3.4158-6.2402,4.4906-11.4682,10.1187-17.1944,15.2197-1.3262,1.1814-3.5666,1.5612-3.1661,3.7493l2.1948-.3704c5.2725-5.4595,11.5525-10.0447,17.0434-15.1827ZM248.8461,143.8089c-.3458-.2685-1.7983.9089-2.1599,1.1953-1.571,1.2444-6.3025,5.546-7.1341,7.1012-.241.4507-.8288,1.0214-.1941,1.3901.9706.5638,2.8236-2.0816,3.3568-2.5603.9447-.848,6.3455-5.2122,6.4476-5.8036.0301-.1742-.2626-1.281-.3163-1.3227ZM258.7316,145.3907c-.0447-.0525-1.1727-.4174-1.3791-.0394-2.898,3.0966-7.0904,5.9136-9.9465,8.8735-.9903,1.0262-2.5164,2.4693-1.7152,3.8149.8855.7426,8.9557-7.9408,9.8605-8.9191.4226-.457,3.7489-3.062,3.1803-3.7298ZM216.4255,145.3901c-.7613-.7965-6.5335,4.4374-7.3229,5.1279-1.5324,1.3403-3.0542,2.7881-4.5418,4.158-3.6298,3.3427-6.8338,7.1621-10.6899,10.2636-.9683,2.6431.1181,2.3219,1.789.9983,4.8077-3.8084,10.392-9.9426,15.0285-14.212,1.7698-1.6296,3.679-3.2252,5.538-4.7596l.1991-1.5763ZM267.2949,149.5989c.6485-.6371,1.9421-1.7297,2.339-2.2064.3494-.4196.7232-.7913.5659-1.4046-.5096-1.9879-3.6686,1.765-3.9274,1.9876-2.7869,2.3978-6.7551,5.5744-9.1307,8.2749-2.2731,2.5841-.7222,3.2707,1.6882,1.4035,2.4641-1.9088,6.0949-5.7266,8.4649-8.0551ZM337.0187,145.3901c-.7994-.1719-1.0557.176-1.5974.5733-2.6501,1.9439-7.5245,6.8292-10.0708,9.3208-1.5351,1.502-7.1115,6.9266-7.8392,8.2932-.1405.2638-.0378.8245-.2597,1.1807,1.2429.2331,2.277-.6633,3.1198-1.4228,4.0095-3.6134,12.7292-11.6443,15.6684-15.5672.5594-.7466,1.1378-1.3299.9788-2.3779ZM273.7567,152.507l-1.5972.5735c-1.1396,1.7404-9.3713,7.6258-9.4493,9.0939-.1399,2.6342,1.7615.6715,2.8266-.202,1.3381-1.0974,7.1919-6.5507,7.8463-7.6681.3687-.6295.4802-1.0648.3736-1.7973ZM341.7633,152.9025c-.7996-.1722-1.0557.1766-1.5974.5733-2.0112,1.4732-6.1916,5.7969-8.0261,7.7746-.6752.7279-3.4639,3.3524-2.2385,4.1092,1.337.5483,1.6867-.9563,2.3549-1.5938,1.3553-1.293,2.8162-2.5063,3.9178-3.6071.8977-.897,6.6795-6.1603,5.5892-7.2562ZM214.7179,158.7112c.5207-.4404.7023-1.7055-.0786-1.8585-1.0905-.2136-4.2761,3.5031-5.1208,4.3608-1.039,1.0551-2.7361,1.5599-2.9768,3.3425.6221.9105.8511.3803,1.5435-.0309,2.545-1.5112,4.1574-4.224,6.6328-5.814ZM278.5014,158.4379c-.7472-.7719-4.854,2.9545-5.5482,3.7363-.9474,1.0669-2.1916,2.169-1.96,3.7721.274.3096,1.813-.9198,2.162-1.1947.9529-.7506,4.456-3.8962,5.0689-4.7095.2995-.3974.4833-1.3914.2773-1.6042Z"/>
  <path class="cls-1" d="M314.0868,129.9653l-1.9753-.0012c1.085-5.5567-1.6188-15.3817-6.1299-18.9735-2.7203-2.1659-6.9681-2.8842-10.0964-1.4003-10.9878,5.2122-11.7895,28.7107-6.5155,38.1769,2.6226,4.7073,5.1493,4.459,10.0864,4.1422-2.2251,2.6843-4.2129,4.4668-7.9584,4.313-8.3841-.3444-11.3211-11.1078-12.3989-17.9458-1.5424-9.7854.2227-23.4597,8.0992-30.2563,11.9793-10.3368,24.3784,3.7696,26.2901,15.7954.3254,2.0473-.0255,4.1339.5986,6.1496Z"/>
  <path class="cls-1" d="M193.6475,110.4456c.7214.8161,1.4755,1.3527,2.1483,2.3947,3.2156,4.9803,4.1224,10.9514,4.8161,16.7284l-1.9787.0063c-.1621-4.5571-.9807-9.5578-3.2482-13.5684-.3216-.5688-.9836-.628-1.0417-.7202-.141-.2238.5937-.0678-.4354-1.4363-3.4409-4.5756-7.2557-6.7784-12.943-4.1225-7.7081,3.5998-9.5353,17.1983-9.2246,24.8061.3048,7.4636,2.5878,19.494,12.661,17.1845-5.7644,8.02-14.4901,3.6794-17.2892-4.2634-2.6957-7.6495-3.8099-16.7387-1.9754-24.692,3.1747-13.7642,16.5364-25.8637,28.5109-12.3172Z"/>
  <path class="cls-1" d="M188.221,117.4493c2.3641,2.3529,3.3666,9.2319,4.0874,12.5151-.7525-.0565-1.356-.3803-2.1498-.4164-3.2356-.1471-7.4428-.1363-10.6866.0094-.5467.0246-.9166.2232-1.3931.4104-.2367-2.3044.2227-4.3107.8106-6.5.3137-1.1682,2.2056-6.1264,2.8485-6.8327,1.4106-1.5496,5.1872-.4753,6.483.8144Z"/>
  <path class="cls-1" d="M306.1805,129.5726h-12.4547c-.1061,0-.4072.6191-.8038.0217-1.1439-2.097,1.9304-12.6299,4.4425-13.3815,6.3721-1.9064,9.2003,8.7578,8.816,13.3598Z"/>
  <path class="cls-1" d="M360.4869,283.1212c-.6405.6251-1.0771,1.8795-2.1121,2.2332l-.1621-5.9474,8.0626-9.0765c.2805,1.1541-.3859,2.3329-.3928,3.36-.0051.7562.4297,1.4877.4114,2.3536-.0684,3.2257-3.6562,4.9779-5.807,7.0772Z"/>
  <path class="cls-1" d="M365.8839,242.0602c-.1436.8351-4.3786,4.6899-5.1775,5.5309-.2765.2911.0052.8026-.081.9095-.316.3921-1.6472.7141-2.0587,1.2671-.2336-1.2127-.5508-2.8535-.4362-4.0808.4048-4.3372,5.5264-6.8904,7.5506-10.5516,1.6111-.9871.2028.4297.2028.5987,0,1.8024.2758,4.7221,0,6.3262Z"/>
  <path class="cls-1" d="M366.278,198.768l-.1848,6.7088-7.7177,7.127c.3503-1.3937-.472-4.3245-.0993-5.4171.4337-1.2715,5.5645-6.4386,6.889-7.756.3482-.3464.3362-.8654,1.1128-.6627Z"/>
  <path class="cls-1" d="M365.8839,215.1739c-2.3497,2.5196-5.8118,4.943-7.1219,8.1025-.6693.1013-.3624-.5526-.367-.9905-.0142-1.3497-.1593-3.1559-.0508-4.3711.3333-3.7327,5.0841-6.4085,7.5398-8.8694v6.1285Z"/>
  <path class="cls-1" d="M361.6602,255.4306c-.3189.3659-.3053.9307-.5053,1.1556-.4397.4943-2.7453,3.0305-3.1785,2.6695.9778-1.4888-.0849-3.3359.1504-4.8655.4855-3.1571,5.5738-6.6274,7.7532-8.9691-.2686,1.2092.3083,2.6201.2577,3.6957-.1173,2.4977-2.9584,4.5708-4.4775,6.3138Z"/>
  <path class="cls-1" d="M364.5291,312.8625l-6.1535,6.8893c.3882-2.185-.9306-5.6252.5089-7.3986.2348-.2893.9302-.4642,1.2827-.8747,1.9276-2.2444,3.9703-4.2987,6.1084-6.3537-.9947,2.6925.649,5.6691-1.7465,7.7377Z"/>
  <path class="cls-1" d="M366.2779,330.0365c-.759,1.4829.1494,2.7102-.0044,4.1096-.26,2.3643-6.0994,7.3805-7.8979,9.331-.8312-5.1381,1.074-7.5568,4.4836-10.9324.3055-.3024,3.1485-2.7989,3.4187-2.5081Z"/>
  <path class="cls-1" d="M360.974,272.933c-.8599.9751-1.6715,2.0235-2.5986,2.9328.134-2.0073-.8118-3.5095-.1719-5.526.4993-1.5734,6.6882-6.7891,8.0723-8.312-.721,1.3692.1881,3.9821-.2103,5.1129-.3863,1.0963-4.0087,4.5643-5.0915,5.7923Z"/>
  <path class="cls-1" d="M360.2046,229.8798c-.2121.1982-1.4194.4164-1.829,1.3072-.2606-1.7958-.5979-3.4705.0706-5.2292l7.4338-7.8165.2153,5.9205c-2.4017,1.4727-3.9911,4.0428-5.8906,5.818Z"/>
  <path class="cls-1" d="M358.7709,171.4835c.2534-1.3942-.2942-3.1379-.1805-4.4116.2467-2.7636,5.2897-7.367,7.2903-9.4261-.3687,1.8225.4086,3.6844-.2125,5.5165-.1463.4316-2.8181,3.9015-3.3508,4.5571-1.0054,1.2373-2.3509,2.7054-3.5464,3.7641Z"/>
  <path class="cls-1" d="M365.7655,352.855c-.2303.2782-.8905.4418-1.2843.8898-1.1965,1.3609-2.3768,2.7776-3.4785,4.2246l-2.629,2.1119c-1.3422-6.2719,4.0218-9.322,7.9017-13.0456-.9018,1.8191.6457,4.4238-.5099,5.8194Z"/>
  <path class="cls-1" d="M361.3734,236.9646c-1.1268,1.2349-2.3109,2.4136-3.3933,3.7118.2442-2.0219-.1713-4.3089.6944-6.2206.2264-.5,5.3704-6.01,6.0669-6.5716.2219-.1789,1.0245-.7373,1.1378-.6502,1.178,4.8259-1.6034,6.5498-4.5058,9.7306Z"/>
  <path class="cls-1" d="M364.5216,327.8758c-1.7497,2.0376-4.1524,3.7733-5.6289,5.4098-.1092.121.4545,1.4688-1.31,1.0936-.1694-.6671.7076-.1552.8079-.6493.1241-.6117-.3315-2.7645-.2205-3.5094.4465-2.9967,6.3219-6.2829,7.3249-9.2803,1.2793.4031.3663,1.3814.392,2.1994.0199.6333.3971,2.8017.3034,3.0886-.0969.2965-1.2429,1.1516-1.6688,1.6476Z"/>
  <path class="cls-1" d="M366.2773,288.5203c-.8467,1.3913.0614,5.2113-.2145,5.9491-.3232.8645-2.6689,2.2255-3.3662,2.9319-1.3928,1.411-2.4328,3.2987-4.3211,4.1647-.1405-.192-.0063-4.2654.2481-4.7528.4961-.9505,5.508-6.6116,6.5423-7.6288.3468-.3411.3324-.8674,1.1114-.6639Z"/>
  <path class="cls-1" d="M365.8839,345.0586c-2.9308,1.5534-5.3013,3.9649-7.122,6.7186l-.665-3.4198.3715-1.4063,7.4156-8.2186v6.3262Z"/>
  <path class="cls-1" d="M360.8804,200.8784l-2.5081,2.6275-.009-5.2514,7.9123-7.7919c-.9588,1.4519.3162,4.4754-.2089,5.5092-.4475.881-4.1649,3.8601-5.1863,4.9066Z"/>
  <path class="cls-1" d="M366.279,174.6505c-.906,4.0408,1.0742,6.7561-3.8195,8.8298l-3.6885,4.2121-.3578-3.3868.764-.4267c-.5772-2.8201,3.6418-5.0102,4.8657-7.5142l2.2361-1.7142Z"/>
  <path class="cls-1" d="M358.3737,162.7831c.2988-1.359-.263-4.3917.1993-5.5164,1.0017-2.4371,4.5886-4.4322,5.927-6.7308.9832,1.0455,1.3096,3.025.7745,4.3276-.443,1.0785-4.72,6.0842-5.7882,7.2569-.3515.3859-.3553.8481-1.1126.6627Z"/>
  <path class="cls-1" d="M366.2068,285.6906l-7.8312,8.7565c.2085-1.5401-.3473-3.8489.0756-5.2561.1573-.5233,6.691-8.1254,7.235-8.1772l.5205,4.6768Z"/>
  <path class="cls-1" d="M366.2772,253.7262l-.5968,5.9231-7.3042,7.122c-.184-.1491-.2012-3.4006-.0474-3.7797.6969-1.7174,5.5064-6.7772,7.0449-8.7681.2542-.3289-.0066-.724.9035-.4973Z"/>
  <path class="cls-1" d="M366.2792,297.616c-1.0017,1.1203.1517,3.1322-.1855,3.9399-.0927.222-2.567,3.2577-2.994,3.7662-1.3751,1.6372-3.4112,3.154-4.7241,4.9422-.8906-5.7988.9323-5.8809,4.1611-9.0711.481-.4753,2.9711-4.2228,3.7425-3.5772Z"/>
  <path class="cls-1" d="M366.2792,166.3475c-1.0656,1.466-.0662,4.7558-.5903,5.9182-.4624,1.0255-3.0638,2.7089-3.9724,3.5513l-2.9455,3.9678c-1.1279-5.6168,2.0704-7.5097,5.1449-11.275l2.3633-2.1623Z"/>
  <path class="cls-1" d="M365.8839,188.8807c-.8177-.5182-1.718.6234-2.453,1.2102-1.1844.9457-2.6331,2.4064-3.7005,3.5264-.4516.4739-.9453,2.3218-1.3604.5911-.366-1.5259-.0124-2.9756.5153-4.4213l6.9986-6.4418v5.5354Z"/>
  <path class="cls-1" d="M366.2791,362.4596c-1.888,5.4003-6.1403,10.1869-10.4765,13.8356-.4438.3735-.6433.9587-1.3848.7859,2.514-2.6348,3.4326-5.756,5.1512-8.8811l6.7101-5.7405Z"/>
  <path class="cls-1" d="M362.1101,145.6068c.4752.5844,1.8531,2.4976,1.7401,3.084l-5.0793,5.0004c-.2178-4.1879-1.997-6.673,2.1706-9.4823.4682.4003.7863.9277,1.1686,1.3979Z"/>
  <path class="cls-1" d="M366.278,314.2212c-.5801,1.1679-.1169,2.9725-.5856,3.9639-.1439.3043-3.3966,3.4035-3.9734,3.9166l-3.3434,4.3717c.0902-.9547-.1515-2.062-.0215-2.9813.2988-2.1123,5.3594-6.8844,7.021-8.7679.2359-.2675-.0216-.7605.9029-.503Z"/>
  <path class="cls-1" d="M358.3755,366.4094c.0712-1.0172-.2504-2.1818.2005-3.1545,1.0821-2.3346,6.2445-5.4008,7.6995-7.916.5322,5.3578-5.0072,7.4003-7.9,11.0706Z"/>
  <path class="cls-1" d="M359.0381,141.9478c1.3431,1.4796-.6981,2.0005-1.6558,3.0372l-4.1469-6.7138c1.3553,1.3366,4.6741,2.4333,5.8027,3.6765Z"/>
  <path d="M334.2169,194.6497c-.1772-1.2549-.853-2.5347-1.9746-3.165-1.6924-.9512-8.4253-.7754-10.8394-.8008-53.1348-.5586-105.7632.2646-158.9385.5859-6.6509.0405-15.3486-.7158-21.7563-.0195-2.5273.2744-4.3921,1.3511-5.1055,3.9116.0493,51.2412-.77,102.9707-.0571,154.4429.0742,5.373-1.1572,10.6694,3.5815,14.8135,4.728,4.1343,14.9302,2.3525,20.958,2.4126,46.1855.459,92.083-.0317,138.4033-.2217,6.3564-.0264,12.9561.6294,19.396.4312,7.3481-.2256,12.9976-.6616,15.7031-8.6113,1.1143-20.209.7012-40.7285.6978-61.0078-.0039-23.3291-.0249-46.9561-.4492-70.3652l.7168-.2871c-1.4995-10.0161,1.0488-22.3188-.3359-32.1191ZM186.3785,197.9783l41.9097-.3965.0029,37.166-41.916-.4019.0034-36.3677ZM141.9044,199.113c.1333-.4868.3418-.8345.8359-1.0347.7666-.3105,5.4136-.0996,6.6934-.1187,10.3105-.1523,20.6885.144,31.0142.0166l-.0005,36.769h-38.3525c-.2627-1.3818-.9795-2.3438-.1333-3.6543l-.0571-31.978ZM153.7584,360.2791c-.8022.1382-.8022,1.3076-1.1523-.1636-4.3716,1.0244-9.5913.8833-10.688-4.3188l.1782-29.3188,37.7651-.3813.1865,34.3843-26.2896-.2017ZM142.0953,320.5408l-.0024-35.1875,37.957-.3916.002,34.7886-37.9565.7905ZM180.4473,278.6296c-8.2031.4219-16.4546-.0347-24.7305-.0146-1.7773.0044-13.0605.7983-13.5771-.0298l-.0469-37.5156,38.3506-.3926c.1934.499-.3916.9009-.3916.9878v36.3755l.3955.5894ZM228.1168,359.7131c-.2832.4067-.7676.3364-1.1919.3882-5.3604.6562-13.0864-.2461-18.6025-.2202-.6514.0029-1.2988.3896-1.9678.3921-6.6768.0254-13.4316-.2622-19.9766-.1938.8608-2.437-.0239-5.1768-.0161-7.6973.0112-3.7739.5332-7.6475.4229-11.4995-.0278-.9771.2285-2.4995-.8071-2.7432l.7944-.4287.0015-11.2354h41.5156l-.1724,33.2378ZM234.5904,296.2532c-.564-3.6001-6.0732-2.501-6.6763.7827l.3545,22.6973-41.1123.2485-.7778-78.9062,59.7031-.395-.1777.2271c2.7803-.9756,3.8315-4.542,5.6055-6.6118l-16.8691.0293-.0239-36.7427c5.8057.73,11.7905.1924,17.6626.1548,1.355-.0083,7.8071.4878,8.3618.1353.1924-.1221-.0957-.752.2681-.6934l.2642.6973,18.123-.2988-.0137,37.1719c-4.8135-.4663-10.6133-.1196-9.084,6.3247l9.0952-.3989-.1733,78.7056-44.5078.374-.022-23.5015ZM279.296,360.0852l-44.4985.0078.21-33.8286,44.6821-.1807-.3936,34.0015ZM285.6212,197.5823l42.3076-.0054-.0059,37.562-.9565-.8276-41.3481.041.0029-36.77ZM285.6568,241.116l42.2524-.0278-.4189,37.1128-41.8389.0059.0039-34.5938-.8311-.7622c1.0752-.2925.7764-.7285.8325-1.7349ZM285.6182,284.9578l41.9141-.395-.377,34.9976-41.5371.1958v-34.7983ZM327.7784,354.6804c-.7109,7.0825-6.6128,5.1865-11.5156,5.2295-10.0801.0879-20.1909.1558-30.249.1753l-.3413-33.3472.5933-.5723.748.2358.1929-.7124.4624.6851,39.7793.1919.061,11.168c.0288,5.168.7661,11.9956.269,16.9463Z"/>
  <path d="M316.1845,154.9994c-.6468.5772-1.404,1.8651-2.2839,2.6557-1.8081,1.6245-3.579,3.2815-5.4548,4.828-1.9378.893-1.6621-1.3141-.5439-2.326,7.2812-4.9681,14.4694-14.8593,21.5075-19.5025,1.3662-.9013,2.875-.8623,1.6998.997-.7006,1.1085-4.1497,4.1772-5.3467,5.3284-3.0075,2.8924-6.5538,5.3206-9.5781,8.0194Z"/>
  <path d="M216.4255,145.3901l-.1991,1.5763c-1.859,1.5344-3.7682,3.13-5.538,4.7596-4.6365,4.2693-10.2208,10.4036-15.0285,14.212-1.6709,1.3236-2.7574,1.6448-1.789-.9983,3.8562-3.1016,7.0602-6.9209,10.6899-10.2636,1.4876-1.3699,3.0094-2.8177,4.5418-4.158.7895-.6905,6.5616-5.9244,7.3229-5.1279Z"/>
  <path d="M145.5193,146.8345c-5.491,5.138-11.771,9.7232-17.0434,15.1827l-2.1948.3704c-.4005-2.1881,1.8399-2.568,3.1661-3.7493,5.7262-5.101,10.9542-10.7291,17.1944-15.2197,1.3922.7318-.3919,2.7324-1.1223,3.4158Z"/>
  <path d="M337.0187,145.3901c.159,1.048-.4194,1.6313-.9788,2.3779-2.9393,3.9229-11.6589,11.9538-15.6684,15.5672-.8428.7595-1.8769,1.6559-3.1198,1.4228.2218-.3562.1192-.9169.2597-1.1807.7276-1.3665,6.304-6.7911,7.8392-8.2932,2.5464-2.4915,7.4207-7.3769,10.0708-9.3208.5417-.3973.798-.7452,1.5974-.5733Z"/>
  <path d="M210.0993,140.25c.1061.7323-.005,1.1678-.3736,1.7973-.4083.6974-4.352,4.6057-5.2982,5.5747-2.7979,2.8655-6.0312,5.4934-8.9564,8.2445-3.2061.4143-.6348-2.1721.4075-3.1417.502-.467,1.3379-.6668,1.8315-1.1459,3.0289-2.9398,6.8578-7.8728,10.0122-10.3491.7366-.5783,1.3394-1.1275,2.377-.9799Z"/>
  <path d="M127.6306,151.0887c-.8796.7482-5.8604,6.0006-6.8847,4.9728l.6154-1.9507c4.794-3.6693,9.0939-8.6298,14.0516-12.0435.5339-.3676,1.5893-1.5342,2.1369-.635l-.2085,1.3774c-3.2504,2.7435-6.4731,5.5253-9.7106,8.2791Z"/>
  <path d="M267.2949,149.5989c-2.3699,2.3286-6.0008,6.1463-8.4649,8.0551-2.4104,1.8672-3.9613,1.1806-1.6882-1.4035,2.3755-2.7005,6.3437-5.8771,9.1307-8.2749.2588-.2226,3.4177-3.9755,3.9274-1.9876.1572.6133-.2166.9849-.5659,1.4046-.3969.4767-1.6905,1.5692-2.339,2.2064Z"/>
  <path d="M258.7316,145.3907c.5686.6678-2.7576,3.2728-3.1803,3.7298-.9048.9783-8.975,9.6617-9.8605,8.9191-.8012-1.3455.7249-2.7886,1.7152-3.8149,2.8561-2.9598,7.0486-5.7769,9.9465-8.8735.2064-.378,1.3344-.0131,1.3791.0394Z"/>
  <path d="M341.7633,152.9025c1.0903,1.0959-4.6915,6.3592-5.5892,7.2562-1.1016,1.1008-2.5625,2.3141-3.9178,3.6071-.6682.6375-1.0179,2.1421-2.3549,1.5938-1.2255-.7568,1.5633-3.3813,2.2385-4.1092,1.8345-1.9777,6.0149-6.3014,8.0261-7.7746.5416-.3967.7978-.7455,1.5974-.5733Z"/>
  <path d="M273.7567,152.507c.1066.7325-.0049,1.1678-.3736,1.7973-.6544,1.1173-6.5082,6.5706-7.8463,7.6681-1.0651.8735-2.9665,2.8362-2.8266.202.078-1.4681,8.3097-7.3535,9.4493-9.0939l1.5972-.5735Z"/>
  <path d="M318.8309,140.6455c1.2057,1.2469-3.4118,4.1561-4.051,4.7297-1.17,1.0498-2.7774,3.1208-4.1128,3.9065-.4845.2851-1.0919.7814-1.5275.0649-.9819-1.6148,1.4028-2.321,2.1399-3.012.9105-.8536,6.4003-6.8795,7.5514-5.6891Z"/>
  <path d="M248.8461,143.8089c.0537.0417.3464,1.1485.3163,1.3227-.1021.5914-5.503,4.9556-6.4476,5.8036-.5332.4787-2.3863,3.1241-3.3568,2.5603-.6347-.3687-.0469-.9394.1941-1.3901.8316-1.5551,5.5631-5.8568,7.1341-7.1012.3616-.2864,1.8141-1.4639,2.1599-1.1953Z"/>
  <path d="M214.7179,158.7112c-2.4754,1.59-4.0878,4.3027-6.6328,5.814-.6924.4112-.9214.9413-1.5435.0309.2407-1.7826,1.9378-2.2874,2.9768-3.3425.8447-.8577,4.0303-4.5745,5.1208-4.3608.7809.153.5994,1.4181.0786,1.8585Z"/>
  <path d="M278.5014,158.4379c.206.2128.0222,1.2068-.2773,1.6042-.6129.8133-4.116,3.9589-5.0689,4.7095-.349.2749-1.8881,1.5043-2.162,1.1947-.2316-1.6032,1.0126-2.7052,1.96-3.7721.6942-.7818,4.801-4.5082,5.5482-3.7363Z"/>
  <path d="M197.7132,145.2544c-.3595.3069-2.8742,2.1833-3.2113,2.1086-.5977-.1325-.7507-.9858-.4251-1.59.1395-.2588,3.8257-3.5004,4.3717-3.9323,1.1033-.8727,3.442-1.9239,2.364.3854-.3176.6803-1.6224,1.2119-2.2014,1.7652-.4021.3842-.5938,1.0035-.8979,1.2631Z"/>
  <path class="cls-1" d="M251.6124,234.1829c-.0342.0381-.0693.0737-.103.1128h.0547c.021-.0327.0312-.0757.0483-.1128Z"/>
  <path class="cls-1" d="M279.2823,234.7493l.0137-37.1719-18.123.2988-.2642-.6973c-.3638-.0586-.0757.5713-.2681.6934-.5547.3525-7.0068-.1436-8.3618-.1353-5.8721.0376-11.8569.5752-17.6626-.1548l.0239,36.7427,16.8691-.0293c.0337-.0391.0688-.0747.103-.1128.1655-.3545.165-.8579.3945-1.126,2.5527-2.9844,13.0781-15.4238,15.7275-16.3955,5.5327-2.0303,11.0708,2.4272,7.5405,7.9365-3.4697,5.4136-8.2056,10.9106-12.1792,15.9805-12.6206,15.8535-23.8447,33.875-36.6191,49.4858-2.04,2.4927-5.5415,5.6011-8.4736,2.2163-1.7144-1.9795-3.7642-6.3389-5.4419-8.792-2.0947-3.064-4.1631-6.1069-6.251-9.1694-1.6704-2.4502-9.7202-12.7549-10.0244-14.4922-.959-5.4785,5.6475-8.8271,10.3823-6.4253,4.2036,2.1318,9.4897,12.4219,12.9346,16.3237.3877.439,1.8179,2.1475,2.353,1.7891l23.9482-30.6069c-.0215.0073-.0405.0181-.062.0254.0215-.0073.0405-.0181.062-.0254l.1777-.2271-59.7031.395.7778,78.9062,41.1123-.2485-.3545-22.6973c.603-3.2837,6.1123-4.3828,6.6763-.7827l.022,23.5015,44.5078-.374.1733-78.7056-9.0952.3989c-1.5293-6.4443,4.2705-6.791,9.084-6.3247Z"/>
  <path class="cls-1" d="M327.9092,241.0881l-.4186,37.1128-41.839.0057.0037-34.5935-.8308-.7621c1.0752-.2925.7759-.7285.8321-1.7351l42.2526-.0278Z"/>
  <polygon class="cls-1" points="327.9288 197.5771 327.9228 235.139 326.9663 234.3111 285.6184 234.3522 285.6213 197.5823 327.9288 197.5771"/>
  <polygon class="cls-1" points="228.2879 197.5817 228.2912 234.7476 186.3751 234.346 186.3784 197.9784 228.2879 197.5817"/>
  <polygon class="cls-1" points="279.6893 326.0838 279.2961 360.0853 234.7974 360.0932 235.0075 326.2643 279.6893 326.0838"/>
  <polygon class="cls-1" points="327.5325 284.5625 327.1554 319.5601 285.6183 319.7559 285.6184 284.9577 327.5325 284.5625"/>
  <path class="cls-1" d="M180.052,278.0405l.3954.5891c-8.2029.4219-16.4545-.0346-24.7304-.0144-1.7774.0043-13.0609.7982-13.577-.03l-.0469-37.5152,38.3506-.393c.193.499-.3918.9012-.3918.988v36.3756Z"/>
  <path class="cls-1" d="M287.6689,326.374l39.7792.192.0612,11.1681c.0289,5.1682.7663,11.9958.2694,16.9465-.711,7.0825-6.6131,5.1864-11.5158,5.2292-10.0799.088-20.1909.1559-30.2491.1756l-.3414-33.3474.5933-.5723.7482.236.1928-.7126.4621.6849Z"/>
  <path class="cls-1" d="M142.0948,234.7456c-.2629-1.382-.9793-2.3441-.1332-3.6546l-.0573-31.9779c.1335-.4867.3421-.8344.8358-1.0345.767-.3108,5.4138-.0998,6.6938-.1187,10.3104-.1526,20.6881.144,31.014.0165l-.0006,36.7692h-38.3526Z"/>
  <path class="cls-1" d="M228.2892,326.4754l-.1726,33.2376c-.2832.4067-.7676.3366-1.1916.3885-5.3602.6559-13.0865-.2463-18.6029-.2203-.6509.0031-1.2989.3893-1.9673.3918-6.6767.0255-13.4321-.2619-19.9766-.1935.8607-2.437-.0241-5.1767-.0165-7.6973.0113-3.774.5335-7.6477.4231-11.4996-.028-.9772.2284-2.4995-.8074-2.7433l.7948-.4286.0013-11.2353h41.5157Z"/>
  <polygon class="cls-1" points="180.0498 284.9615 180.052 319.75 142.0954 320.5406 142.0927 285.3531 180.0498 284.9615"/>
  <path class="cls-1" d="M180.048,360.4809l-26.2898-.202c-.8022.1386-.8021,1.3078-1.152-.1635-4.3718,1.0243-9.5916.8834-10.6882-4.3186l.1784-29.319,37.7651-.3813.1866,34.3845Z"/>
  <path class="cls-2" d="M219.6026,269.7253c-3.4448-3.9019-8.731-14.1919-12.9346-16.3237-4.7349-2.4019-11.3413.9468-10.3823,6.4253.3042,1.7373,8.354,12.042,10.0244,14.4922,2.0879,3.0625,4.1562,6.1055,6.251,9.1694,1.6777,2.4531,3.7275,6.8125,5.4419,8.792,2.9321,3.3848,6.4336.2764,8.4736-2.2163,12.7744-15.6108,23.9985-33.6323,36.6191-49.4858,3.9736-5.0698,8.7095-10.5669,12.1792-15.9805,3.5303-5.5093-2.0078-9.9668-7.5405-7.9365-4.2734,1.5679-6.5767,4.4092-15.7275,16.3955-2.6738,3.5024-4.8555,6.2754-6.103,7.8506l-23.9482,30.6069c-.5352.3584-1.9653-1.3501-2.353-1.7891Z"/>
</svg>