<?xml version="1.0" encoding="UTF-8"?>
<svg id="Layer_1" data-name="Layer 1" xmlns="http://www.w3.org/2000/svg" viewBox="0 0 800 496">
  <defs>
    <style>
      .cls-1 {
        fill: none;
        stroke: #231f20;
        stroke-miterlimit: 10;
        stroke-width: 3px;
      }
    </style>
  </defs>
  <g>
    <g>
      <path d="M232.4632,86.0213l-1.1396,3.0195h-2.5654l5.1484-13.127h2.3945l5.1484,13.127h-2.6982l-1.1396-3.0195h-5.1484ZM237.0042,84.0448l-1.957-5.2998-1.9766,5.2998h3.9336Z"/>
      <path d="M246.9984,81.6698c-1.502,0-2.0146,1.2539-2.0146,2.793v4.5781h-2.4316v-9.1943h2.4316l-.0186,1.3877h.0566c.4941-.9697,1.4248-1.5586,2.7549-1.5586,2.6406,0,3.3057,1.71,3.3057,3.9141v5.4512h-2.4316v-4.9199c0-1.3672-.2471-2.4512-1.6523-2.4512Z"/>
      <path d="M257.7132,81.6698c-1.5,0-2.0137,1.2539-2.0137,2.793v4.5781h-2.4316v-9.1943h2.4316l-.0186,1.3877h.0566c.4941-.9697,1.4248-1.5586,2.7549-1.5586,2.6406,0,3.3047,1.71,3.3047,3.9141v5.4512h-2.4316v-4.9199c0-1.3672-.2461-2.4512-1.6523-2.4512Z"/>
      <path d="M267.8783,87.2176c1.4629,0,2.0137-1.1592,2.0137-2.6982v-4.6729h2.4316v9.1943h-2.3555l-.0186-1.291c-.5322.9121-1.5195,1.4629-2.8496,1.4629-2.6406,0-3.2871-1.71-3.2871-3.9141v-5.4521h2.4316v4.9209c0,1.3672.2285,2.4502,1.6338,2.4502Z"/>
      <path d="M277.0941,89.2498c-1.7861,0-3.2305-.9688-3.2305-2.8867,0-1.9189,1.8809-2.6602,3.7812-2.793l2.2031-.1523v-.2461c0-1.1777-.7793-1.7285-2.0508-1.7285-1.2168,0-2.2227.4551-2.623.7598l-.7402-1.5586c.7031-.418,1.9941-.9688,3.5898-.9688,1.6348,0,2.5654.418,3.249,1.0645.665.6455,1.0068,1.4814,1.0068,3.0391v5.2617h-2.3359l-.0391-1.0635c-.3789.665-1.4434,1.2725-2.8105,1.2725ZM276.2953,86.2869c0,.7793.5898,1.3105,1.5957,1.3105.9502,0,1.6533-.5508,1.9766-1.0068v-1.6904l-1.6533.0947c-1.292.0762-1.9189.5127-1.9189,1.292Z"/>
      <path d="M286.8783,75.9334v13.1074h-2.4131v-13.1074h2.4131Z"/>
      <path d="M296.1312,81.4998c-.7988,0-1.1973.3037-1.1973.7402,0,.3994.3037.7227,1.3301,1.0449l.6455.209c2.0322.665,2.7549,1.3867,2.7549,2.7168,0,1.748-1.3867,3.0391-3.6484,3.0391-1.4053,0-2.9824-.5693-3.7227-1.4238l.9883-1.6533c1.082.8359,2.0137,1.2539,2.792,1.2539.9121,0,1.3301-.3418,1.3301-.874,0-.4746-.3613-.7402-1.5391-1.1396l-1.0635-.3604c-1.3682-.457-2.0703-1.2734-2.0703-2.6221,0-1.6719,1.5195-2.7549,3.2852-2.7549,1.6348,0,2.5469.4375,3.3066.9883l-1.0449,1.6143c-.5322-.3994-1.3105-.7783-2.1465-.7783Z"/>
      <path d="M305.1175,87.2176c.4941,0,.874-.1514.874-.1514l.1328,1.8799c-.1143.0381-.8359.3037-1.8623.3037-1.8799,0-2.6592-.8545-2.6592-3.248v-4.2559h-1.3682v-1.8809h1.3682v-2.6211h2.4131v2.6211h2.127v1.8809h-2.127v3.7246c0,1.4053.2461,1.7471,1.1016,1.7471Z"/>
      <path d="M306.9613,84.4823c0-2.9062,2.166-4.8066,4.9961-4.8066,2.8125,0,4.9775,1.9004,4.9775,4.8066s-2.165,4.7676-4.9775,4.7676c-2.8301,0-4.9961-1.8613-4.9961-4.7676ZM311.9574,81.6326c-1.5957,0-2.4688,1.2158-2.4688,2.793,0,1.5762.873,2.8105,2.4688,2.8105,1.5586,0,2.4697-1.2344,2.4697-2.8105,0-1.5771-.9111-2.793-2.4697-2.793Z"/>
      <path d="M321.0208,79.8465l-.0381,1.4814h.0566c.3613-.9873,1.2734-1.6523,2.2607-1.6523.627,0,.9697.1709.9697.1709l-.1719,2.1084h-.1133c-.2666-.0762-.6846-.1133-1.0078-.1133-.7217,0-1.2725.3037-1.6143.8926-.2275.4561-.3418,1.083-.3418,1.7852v4.5215h-2.4131v-9.1943h2.4131Z"/>
      <path d="M335.4593,81.6698c-1.2158,0-1.8428,1.0449-1.8428,2.6221v4.749h-2.4316v-5.166c0-1.2539-.3232-2.2051-1.4814-2.2051-1.2539,0-1.8047,1.1787-1.8047,2.6221v4.749h-2.4316v-9.1943h2.4316l-.0195,1.3877h.0566c.418-.8555,1.5391-1.5586,2.7363-1.5586,1.3301,0,2.127.5322,2.5645,1.748.6465-1.1211,1.6914-1.748,3.0205-1.748,2.4131,0,3.0771,1.71,3.0771,3.8184v5.5469h-2.4316v-5.1484c0-1.1201-.2461-2.2227-1.4434-2.2227Z"/>
      <path d="M347.8109,81.158c.7402-1.1025,1.8418-1.5205,3.0586-1.5205,2.6973,0,4.3496,2.0898,4.3496,4.8252,0,2.6035-1.7285,4.75-4.5215,4.75-1.4053,0-2.1836-.4941-2.9443-1.4062l-.0381.0195c.0195.4365.0381.8545.0381,1.5v3.1914h-2.4131v-12.6709h2.4707l-.0391,1.292.0391.0195ZM347.6966,84.4627c0,1.5391,1.0068,2.8877,2.5645,2.8877,1.5771,0,2.4893-1.3486,2.4893-2.8877,0-1.5957-.9883-2.8496-2.5654-2.8496-1.4619,0-2.4883,1.1211-2.4883,2.8496Z"/>
      <path d="M359.3246,79.8465l-.0381,1.4814h.0566c.3613-.9873,1.2725-1.6523,2.2607-1.6523.627,0,.9688.1709.9688.1709l-.1709,2.1084h-.1143c-.2656-.0762-.6836-.1133-1.0059-.1133-.7227,0-1.2734.3037-1.6152.8926-.2285.4561-.3418,1.083-.3418,1.7852v4.5215h-2.4131v-9.1943h2.4131Z"/>
      <path d="M368.3109,87.3885c1.2344,0,2.3369-.5508,2.7734-.9307l.9502,1.3105c-.5127.5322-1.8994,1.4814-4.1416,1.4814-2.7734,0-4.8252-1.6904-4.8252-4.6543,0-2.9443,2.1475-4.9199,4.7686-4.9199,2.8301,0,4.541,1.8613,4.541,4.3125,0,.4746-.0391,1.2344-.0391,1.2344h-6.7627c.2275,1.4629,1.3486,2.166,2.7354,2.166ZM365.5374,83.6463h4.4082c-.0391-1.0068-.418-2.166-2.1289-2.166-1.4434,0-2.2031,1.0068-2.2793,2.166Z"/>
      <path d="M376.5199,81.158c.7402-1.1025,1.8418-1.5205,3.0586-1.5205,2.6973,0,4.3496,2.0898,4.3496,4.8252,0,2.6035-1.7285,4.75-4.5215,4.75-1.4053,0-2.1836-.4941-2.9443-1.4062l-.0381.0195c.0195.4365.0381.8545.0381,1.5v3.1914h-2.4131v-12.6709h2.4707l-.0391,1.292.0391.0195ZM376.4056,84.4627c0,1.5391,1.0068,2.8877,2.5645,2.8877,1.5771,0,2.4893-1.3486,2.4893-2.8877,0-1.5957-.9883-2.8496-2.5654-2.8496-1.4619,0-2.4883,1.1211-2.4883,2.8496Z"/>
      <path d="M391.9281,86.0213l-1.1396,3.0195h-2.5654l5.1484-13.127h2.3945l5.1484,13.127h-2.6982l-1.1396-3.0195h-5.1484ZM396.4691,84.0448l-1.957-5.2998-1.9766,5.2998h3.9336Z"/>
      <path d="M404.6195,82.6014v6.4395h-2.4121v-13.1074h2.6211l6.5156,9.5557s-.0371-1.5391-.0371-3.0967v-6.459h2.4121v13.1074h-2.4883l-6.6484-9.6689s.0371,1.6709.0371,3.2295Z"/>
      <path d="M420.5609,75.9334c2.2793,0,3.9697.7402,4.9766,1.6523,1.0254.8926,2.0898,2.3945,2.0898,4.8828,0,2.5078-1.0645,4.0459-2.0898,4.9395-1.0068.8926-2.6973,1.6328-4.9766,1.6328h-4.1992v-13.1074h4.1992ZM423.7708,85.869c.627-.6074,1.3115-1.6152,1.3115-3.3818,0-1.7471-.6846-2.8115-1.3115-3.4189-.6455-.5898-1.6904-1.0645-3.1162-1.0645h-1.8232v8.9473h1.8232c1.4258,0,2.4707-.4746,3.1162-1.082Z"/>
      <path d="M233.0706,104.4998c-.7969,0-1.1963.3037-1.1963.7402,0,.3994.3037.7227,1.3291,1.0449l.6465.209c2.0332.665,2.7539,1.3867,2.7539,2.7168,0,1.748-1.3867,3.0391-3.6465,3.0391-1.4062,0-2.9824-.5693-3.7236-1.4238l.9873-1.6533c1.084.8359,2.0137,1.2539,2.793,1.2539.9121,0,1.3301-.3418,1.3301-.874,0-.4746-.3613-.7402-1.5391-1.1396l-1.0645-.3604c-1.3672-.457-2.0703-1.2734-2.0703-2.6221,0-1.6719,1.5195-2.7549,3.2871-2.7549,1.6328,0,2.5449.4375,3.3047.9883l-1.0449,1.6143c-.5312-.3994-1.3105-.7783-2.1465-.7783Z"/>
      <path d="M242.058,110.2176c.4941,0,.874-.1514.874-.1514l.1328,1.8799c-.1133.0381-.8359.3037-1.8613.3037-1.8809,0-2.6602-.8545-2.6602-3.248v-4.2559h-1.3672v-1.8809h1.3672v-2.6211h2.4121v2.6211h2.1289v1.8809h-2.1289v3.7246c0,1.4053.248,1.7471,1.1025,1.7471Z"/>
      <path d="M246.8851,102.8465l-.0391,1.4814h.0566c.3613-.9873,1.2734-1.6523,2.2617-1.6523.627,0,.9688.1709.9688.1709l-.1719,2.1084h-.1133c-.2656-.0762-.6836-.1133-1.0068-.1133-.7217,0-1.2725.3037-1.6143.8926-.2285.4561-.3418,1.083-.3418,1.7852v4.5215h-2.4141v-9.1943h2.4141Z"/>
      <path d="M253.4769,112.2498c-1.7852,0-3.2285-.9688-3.2285-2.8867,0-1.9189,1.8809-2.6602,3.7793-2.793l2.2041-.1523v-.2461c0-1.1777-.7783-1.7285-2.0518-1.7285-1.2148,0-2.2227.4551-2.6211.7598l-.7412-1.5586c.7031-.418,1.9951-.9688,3.5908-.9688,1.6328,0,2.5645.418,3.248,1.0645.665.6455,1.0068,1.4814,1.0068,3.0391v5.2617h-2.3369l-.0371-1.0635c-.3809.665-1.4443,1.2725-2.8125,1.2725ZM252.68,109.2869c0,.7793.5879,1.3105,1.5957,1.3105.9492,0,1.6523-.5508,1.9746-1.0068v-1.6904l-1.6523.0947c-1.291.0762-1.918.5127-1.918,1.292Z"/>
      <path d="M264.6869,110.2176c.4941,0,.874-.1514.874-.1514l.1328,1.8799c-.1133.0381-.8359.3037-1.8613.3037-1.8809,0-2.6602-.8545-2.6602-3.248v-4.2559h-1.3672v-1.8809h1.3672v-2.6211h2.4121v2.6211h2.1289v1.8809h-2.1289v3.7246c0,1.4053.248,1.7471,1.1025,1.7471Z"/>
      <path d="M271.7367,110.3885c1.2344,0,2.3359-.5508,2.7734-.9307l.9492,1.3105c-.5127.5322-1.8994,1.4814-4.1406,1.4814-2.7744,0-4.8262-1.6904-4.8262-4.6543,0-2.9443,2.1465-4.9199,4.7686-4.9199,2.8311,0,4.54,1.8613,4.54,4.3125,0,.4746-.0371,1.2344-.0371,1.2344h-6.7637c.2285,1.4629,1.3486,2.166,2.7363,2.166ZM268.9623,106.6463h4.4072c-.0371-1.0068-.418-2.166-2.127-2.166-1.4443,0-2.2041,1.0068-2.2803,2.166Z"/>
      <path d="M281.2357,111.7381c-2.3174,0-4.2939-1.4824-4.2939-4.4082,0-2.5449,1.7861-4.6543,4.5215-4.6543,1.2354,0,2.2803.4561,2.9258,1.4434h.0381l-.0186-1.2725h2.4121v7.2949c0,2.0137-.418,3.1533-1.1973,3.9707-.7969.8359-1.9746,1.6143-4.1787,1.6143-2.1846,0-3.8184-1.0449-4.2744-1.3672l1.0068-1.6914c.5889.418,2.0898,1.084,3.2676,1.084,1.3115,0,1.9951-.418,2.3369-.8174s.627-1.1592.627-2.1846v-.4561h-.0381c-.627.9502-1.7295,1.4443-3.1348,1.4443ZM281.9574,104.5946c-1.5957,0-2.5449,1.1777-2.5449,2.6787,0,1.4062.9121,2.5645,2.5078,2.5645,1.7471,0,2.6211-1.1582,2.6211-2.5645,0-1.3301-.9883-2.6787-2.584-2.6787Z"/>
      <path d="M288.931,100.035c0-.7793.6084-1.3486,1.4629-1.3486s1.4629.5693,1.4629,1.3486c0,.7979-.6084,1.3496-1.4629,1.3496s-1.4629-.5518-1.4629-1.3496ZM291.6097,102.8465v9.1943h-2.4316v-9.1943h2.4316Z"/>
      <path d="M301.014,109.2303l.6836,1.7852c-.1895.1709-1.1387,1.2344-3.5898,1.2344-2.5078,0-4.8252-1.7285-4.8252-4.7305,0-3.0195,2.3936-4.8438,4.8633-4.8438,2.3174,0,3.2295.9316,3.4756,1.1777l-.6641,1.8242c-.2852-.2656-1.1016-.9688-2.5273-.9688-1.4434,0-2.6016,1.0059-2.6016,2.6973s1.1582,2.793,2.7354,2.793,2.4502-.9688,2.4502-.9688Z"/>
      <path d="M309.2796,98.9334v13.1074h-2.4121v-13.1074h2.4121Z"/>
      <path d="M311.0472,107.4823c0-2.9062,2.166-4.8066,4.9961-4.8066,2.8115,0,4.9766,1.9004,4.9766,4.8066s-2.165,4.7676-4.9766,4.7676c-2.8301,0-4.9961-1.8613-4.9961-4.7676ZM316.0433,104.6326c-1.5957,0-2.4697,1.2158-2.4697,2.793,0,1.5762.874,2.8105,2.4697,2.8105,1.5576,0,2.4688-1.2344,2.4688-2.8105,0-1.5771-.9111-2.793-2.4688-2.793Z"/>
      <path d="M327.139,104.6698c-1.501,0-2.0137,1.2539-2.0137,2.793v4.5781h-2.4316v-9.1943h2.4316l-.0195,1.3877h.0566c.4941-.9697,1.4258-1.5586,2.7559-1.5586,2.6406,0,3.3047,1.71,3.3047,3.9141v5.4512h-2.4316v-4.9199c0-1.3672-.2461-2.4512-1.6523-2.4512Z"/>
      <path d="M337.1331,111.7381c-2.3184,0-4.2939-1.4824-4.2939-4.4082,0-2.5449,1.7861-4.6543,4.5215-4.6543,1.2354,0,2.2803.4561,2.9258,1.4434h.0381l-.0195-1.2725h2.4131v7.2949c0,2.0137-.418,3.1533-1.1973,3.9707-.7979.8359-1.9756,1.6143-4.1787,1.6143-2.1855,0-3.8184-1.0449-4.2754-1.3672l1.0078-1.6914c.5879.418,2.0898,1.084,3.2676,1.084,1.3105,0,1.9941-.418,2.3359-.8174s.627-1.1592.627-2.1846v-.4561h-.0371c-.627.9502-1.7295,1.4443-3.1348,1.4443ZM337.8548,104.5946c-1.5967,0-2.5459,1.1777-2.5459,2.6787,0,1.4062.9121,2.5645,2.5078,2.5645,1.748,0,2.6211-1.1582,2.6211-2.5645,0-1.3301-.9873-2.6787-2.583-2.6787Z"/>
      <path d="M349.3499,105.9237v1.9385h-4.959v-1.9385h4.959Z"/>
      <path d="M354.9164,110.2176c.4941,0,.874-.1514.874-.1514l.1328,1.8799c-.1143.0381-.8359.3037-1.8623.3037-1.8799,0-2.6592-.8545-2.6592-3.248v-4.2559h-1.3682v-1.8809h1.3682v-2.6211h2.4131v2.6211h2.127v1.8809h-2.127v3.7246c0,1.4053.2461,1.7471,1.1016,1.7471Z"/>
      <path d="M361.9652,110.3885c1.2344,0,2.3369-.5508,2.7734-.9307l.9502,1.3105c-.5127.5322-1.8994,1.4814-4.1416,1.4814-2.7734,0-4.8252-1.6904-4.8252-4.6543,0-2.9443,2.1475-4.9199,4.7686-4.9199,2.8301,0,4.541,1.8613,4.541,4.3125,0,.4746-.0391,1.2344-.0391,1.2344h-6.7627c.2275,1.4629,1.3486,2.166,2.7354,2.166ZM359.1917,106.6463h4.4082c-.0391-1.0068-.418-2.166-2.1289-2.166-1.4434,0-2.2031,1.0068-2.2793,2.166Z"/>
      <path d="M370.0599,102.8465l-.0381,1.4814h.0566c.3613-.9873,1.2734-1.6523,2.2607-1.6523.627,0,.9697.1709.9697.1709l-.1719,2.1084h-.1133c-.2666-.0762-.6846-.1133-1.0078-.1133-.7217,0-1.2725.3037-1.6143.8926-.2275.4561-.3418,1.083-.3418,1.7852v4.5215h-2.4131v-9.1943h2.4131Z"/>
      <path d="M384.4984,104.6698c-1.2158,0-1.8428,1.0449-1.8428,2.6221v4.749h-2.4316v-5.166c0-1.2539-.3232-2.2051-1.4814-2.2051-1.2539,0-1.8047,1.1787-1.8047,2.6221v4.749h-2.4316v-9.1943h2.4316l-.0195,1.3877h.0566c.418-.8555,1.5391-1.5586,2.7363-1.5586,1.3301,0,2.127.5322,2.5645,1.748.6465-1.1211,1.6914-1.748,3.0205-1.748,2.4131,0,3.0771,1.71,3.0771,3.8184v5.5469h-2.4316v-5.1484c0-1.1201-.2461-2.2227-1.4434-2.2227Z"/>
      <path d="M396.7357,102.8465l-.0381,1.4814h.0566c.3613-.9873,1.2734-1.6523,2.2607-1.6523.627,0,.9697.1709.9697.1709l-.1719,2.1084h-.1133c-.2666-.0762-.6846-.1133-1.0078-.1133-.7217,0-1.2725.3037-1.6143.8926-.2275.4561-.3418,1.083-.3418,1.7852v4.5215h-2.4131v-9.1943h2.4131Z"/>
      <path d="M405.723,110.3885c1.2344,0,2.3359-.5508,2.7734-.9307l.9492,1.3105c-.5127.5322-1.8994,1.4814-4.1406,1.4814-2.7744,0-4.8262-1.6904-4.8262-4.6543,0-2.9443,2.1465-4.9199,4.7686-4.9199,2.8311,0,4.54,1.8613,4.54,4.3125,0,.4746-.0371,1.2344-.0371,1.2344h-6.7637c.2285,1.4629,1.3486,2.166,2.7363,2.166ZM402.9486,106.6463h4.4072c-.0371-1.0068-.418-2.166-2.127-2.166-1.4443,0-2.2041,1.0068-2.2803,2.166Z"/>
      <path d="M414.557,104.4998c-.7969,0-1.1963.3037-1.1963.7402,0,.3994.3037.7227,1.3291,1.0449l.6465.209c2.0332.665,2.7539,1.3867,2.7539,2.7168,0,1.748-1.3867,3.0391-3.6465,3.0391-1.4062,0-2.9824-.5693-3.7236-1.4238l.9873-1.6533c1.084.8359,2.0137,1.2539,2.793,1.2539.9121,0,1.3301-.3418,1.3301-.874,0-.4746-.3613-.7402-1.5391-1.1396l-1.0645-.3604c-1.3672-.457-2.0703-1.2734-2.0703-2.6221,0-1.6719,1.5195-2.7549,3.2871-2.7549,1.6328,0,2.5449.4375,3.3047.9883l-1.0449,1.6143c-.5312-.3994-1.3105-.7783-2.1465-.7783Z"/>
      <path d="M419.4408,100.035c0-.7793.6084-1.3486,1.4629-1.3486s1.4629.5693,1.4629,1.3486c0,.7979-.6084,1.3496-1.4629,1.3496s-1.4629-.5518-1.4629-1.3496ZM422.1195,102.8465v9.1943h-2.4316v-9.1943h2.4316Z"/>
      <path d="M426.9456,98.9334v13.1074h-2.4121v-13.1074h2.4121Z"/>
      <path d="M429.1117,100.035c0-.7793.6074-1.3486,1.4629-1.3486s1.4629.5693,1.4629,1.3486c0,.7979-.6074,1.3496-1.4629,1.3496s-1.4629-.5518-1.4629-1.3496ZM431.7904,102.8465v9.1943h-2.4316v-9.1943h2.4316Z"/>
      <path d="M438.7445,110.3885c1.2344,0,2.3359-.5508,2.7734-.9307l.9492,1.3105c-.5117.5322-1.8984,1.4814-4.1406,1.4814-2.7734,0-4.8262-1.6904-4.8262-4.6543,0-2.9443,2.1475-4.9199,4.7695-4.9199,2.8301,0,4.54,1.8613,4.54,4.3125,0,.4746-.0381,1.2344-.0381,1.2344h-6.7637c.2285,1.4629,1.3496,2.166,2.7363,2.166ZM435.971,106.6463h4.4072c-.0381-1.0068-.418-2.166-2.1279-2.166-1.4434,0-2.2031,1.0068-2.2793,2.166Z"/>
      <path d="M448.8714,104.6698c-1.501,0-2.0137,1.2539-2.0137,2.793v4.5781h-2.4316v-9.1943h2.4316l-.0195,1.3877h.0566c.4941-.9697,1.4258-1.5586,2.7559-1.5586,2.6406,0,3.3047,1.71,3.3047,3.9141v5.4512h-2.4316v-4.9199c0-1.3672-.2461-2.4512-1.6523-2.4512Z"/>
      <path d="M462.2269,109.2303l.6846,1.7852c-.1904.1709-1.1396,1.2344-3.5908,1.2344-2.5078,0-4.8242-1.7285-4.8242-4.7305,0-3.0195,2.3926-4.8438,4.8633-4.8438,2.3164,0,3.2285.9316,3.4766,1.1777l-.666,1.8242c-.2852-.2656-1.1016-.9688-2.5264-.9688-1.4443,0-2.6025,1.0059-2.6025,2.6973s1.1582,2.793,2.7363,2.793c1.5762,0,2.4492-.9688,2.4492-.9688Z"/>
      <path d="M465.5726,102.8465l2.4316,6.5166,2.3936-6.5166h2.5264l-4.2734,10.4297c-.666,1.6143-1.4258,2.3936-2.7168,2.3936-1.3105,0-2.166-.3799-2.166-.3799l.4941-1.8623s.6455.2285,1.1016.2285c.4746,0,.874-.1328,1.0645-.6074l.3984-.9502-3.7998-9.252h2.5459Z"/>
      <path d="M480.221,104.158c.7402-1.1025,1.8418-1.5205,3.0586-1.5205,2.6973,0,4.3496,2.0898,4.3496,4.8252,0,2.6035-1.7285,4.75-4.5215,4.75-1.4053,0-2.1836-.4941-2.9443-1.4062l-.0381.0195c.0195.4365.0381.8545.0381,1.5v3.1914h-2.4131v-12.6709h2.4707l-.0391,1.292.0391.0195ZM480.1068,107.4627c0,1.5391,1.0068,2.8877,2.5645,2.8877,1.5771,0,2.4893-1.3486,2.4893-2.8877,0-1.5957-.9883-2.8496-2.5654-2.8496-1.4619,0-2.4883,1.1211-2.4883,2.8496Z"/>
      <path d="M491.8294,98.9334v13.1074h-2.4131v-13.1074h2.4131Z"/>
      <path d="M496.6937,112.2498c-1.7861,0-3.2305-.9688-3.2305-2.8867,0-1.9189,1.8809-2.6602,3.7812-2.793l2.2031-.1523v-.2461c0-1.1777-.7793-1.7285-2.0508-1.7285-1.2168,0-2.2227.4551-2.623.7598l-.7402-1.5586c.7031-.418,1.9941-.9688,3.5898-.9688,1.6348,0,2.5654.418,3.249,1.0645.665.6455,1.0068,1.4814,1.0068,3.0391v5.2617h-2.3359l-.0391-1.0635c-.3789.665-1.4434,1.2725-2.8105,1.2725ZM495.8949,109.2869c0,.7793.5898,1.3105,1.5957,1.3105.9502,0,1.6533-.5508,1.9766-1.0068v-1.6904l-1.6533.0947c-1.292.0762-1.9189.5127-1.9189,1.292Z"/>
      <path d="M508.4164,104.6698c-1.502,0-2.0146,1.2539-2.0146,2.793v4.5781h-2.4316v-9.1943h2.4316l-.0186,1.3877h.0566c.4941-.9697,1.4248-1.5586,2.7549-1.5586,2.6406,0,3.3057,1.71,3.3057,3.9141v5.4512h-2.4316v-4.9199c0-1.3672-.2471-2.4512-1.6523-2.4512Z"/>
      <path d="M519.1312,104.6698c-1.5,0-2.0137,1.2539-2.0137,2.793v4.5781h-2.4316v-9.1943h2.4316l-.0186,1.3877h.0566c.4941-.9697,1.4248-1.5586,2.7549-1.5586,2.6406,0,3.3047,1.71,3.3047,3.9141v5.4512h-2.4316v-4.9199c0-1.3672-.2461-2.4512-1.6523-2.4512Z"/>
      <path d="M525.2308,100.035c0-.7793.6074-1.3486,1.4629-1.3486s1.4629.5693,1.4629,1.3486c0,.7979-.6074,1.3496-1.4629,1.3496s-1.4629-.5518-1.4629-1.3496ZM527.9095,102.8465v9.1943h-2.4316v-9.1943h2.4316Z"/>
      <path d="M534.6742,104.6698c-1.502,0-2.0146,1.2539-2.0146,2.793v4.5781h-2.4316v-9.1943h2.4316l-.0186,1.3877h.0566c.4941-.9697,1.4248-1.5586,2.7549-1.5586,2.6406,0,3.3057,1.71,3.3057,3.9141v5.4512h-2.4316v-4.9199c0-1.3672-.2471-2.4512-1.6523-2.4512Z"/>
      <path d="M544.6673,111.7381c-2.3174,0-4.2939-1.4824-4.2939-4.4082,0-2.5449,1.7861-4.6543,4.5215-4.6543,1.2354,0,2.2803.4561,2.9258,1.4434h.0381l-.0186-1.2725h2.4121v7.2949c0,2.0137-.418,3.1533-1.1973,3.9707-.7969.8359-1.9746,1.6143-4.1787,1.6143-2.1846,0-3.8184-1.0449-4.2744-1.3672l1.0068-1.6914c.5889.418,2.0898,1.084,3.2676,1.084,1.3115,0,1.9951-.418,2.3369-.8174s.627-1.1592.627-2.1846v-.4561h-.0381c-.627.9502-1.7295,1.4443-3.1348,1.4443ZM545.389,104.5946c-1.5957,0-2.5449,1.1777-2.5449,2.6787,0,1.4062.9121,2.5645,2.5078,2.5645,1.7471,0,2.6211-1.1582,2.6211-2.5645,0-1.3301-.9883-2.6787-2.584-2.6787Z"/>
    </g>
    <rect class="cls-1" x="163.3913" y="74.9787" width="38.7549" height="38.7549" rx="1.7679" ry="1.7679"/>
  </g>
  <g>
    <g>
      <path d="M238.5423,228.4842c0,2.4316-1.7861,4.0469-4.5596,4.0469-2.2422,0-3.7803-1.0449-4.6348-2.0332l1.1777-1.7852c1.0254,1.1211,2.2598,1.7285,3.4951,1.7285,1.2158,0,2.0518-.5889,2.0518-1.7285,0-1.0254-.6836-1.3682-1.8047-1.8242l-2.0518-.8164c-1.4248-.5703-2.374-1.5762-2.374-3.1729,0-2.2793,1.7852-3.8564,4.5391-3.8564,1.8623,0,3.2109.7793,3.9902,1.5771l-1.1777,1.7666c-.8359-.7598-1.8428-1.3105-2.9639-1.3105-1.083,0-1.9375.5312-1.9375,1.5,0,.9502.8174,1.3115,1.501,1.5957l2.1846.8936c1.8428.7598,2.5645,1.7861,2.5645,3.4189Z"/>
      <path d="M244.1664,230.4793c.4941,0,.875-.1514.875-.1514l.1328,1.8799c-.1143.0381-.8359.3037-1.8623.3037-1.8799,0-2.6592-.8545-2.6592-3.248v-4.2559h-1.3682v-1.8809h1.3682v-2.6211h2.4121v2.6211h2.1279v1.8809h-2.1279v3.7246c0,1.4053.2471,1.7471,1.1016,1.7471Z"/>
      <path d="M249.1078,232.5116c-1.7861,0-3.2305-.9688-3.2305-2.8867,0-1.9189,1.8809-2.6602,3.7812-2.793l2.2031-.1523v-.2461c0-1.1777-.7793-1.7285-2.0508-1.7285-1.2168,0-2.2227.4551-2.623.7598l-.7402-1.5586c.7031-.418,1.9941-.9688,3.5898-.9688,1.6348,0,2.5654.418,3.249,1.0645.665.6455,1.0068,1.4814,1.0068,3.0391v5.2617h-2.3359l-.0391-1.0635c-.3789.665-1.4434,1.2725-2.8105,1.2725ZM248.3089,229.5487c0,.7793.5898,1.3105,1.5957,1.3105.9502,0,1.6533-.5508,1.9766-1.0068v-1.6904l-1.6533.0947c-1.292.0762-1.9189.5127-1.9189,1.292Z"/>
      <path d="M257.5052,223.1082l2.4316,6.5166,2.3936-6.5166h2.5273l-4.2754,10.4297c-.6641,1.6143-1.4238,2.3936-2.7168,2.3936-1.3105,0-2.165-.3799-2.165-.3799l.4932-1.8623s.6465.2285,1.1025.2285c.4756,0,.874-.1328,1.0635-.6074l.3994-.9502-3.7998-9.252h2.5459Z"/>
      <path d="M269.4554,220.2967c0-.7793.6084-1.3486,1.4629-1.3486.8555,0,1.4629.5693,1.4629,1.3486,0,.7979-.6074,1.3496-1.4629,1.3496-.8545,0-1.4629-.5518-1.4629-1.3496ZM272.1351,223.1082v9.1943h-2.4316v-9.1943h2.4316Z"/>
      <path d="M278.8988,224.9315c-1.501,0-2.0137,1.2539-2.0137,2.793v4.5781h-2.4316v-9.1943h2.4316l-.0195,1.3877h.0566c.4941-.9697,1.4258-1.5586,2.7559-1.5586,2.6406,0,3.3047,1.71,3.3047,3.9141v5.4512h-2.4316v-4.9199c0-1.3672-.2461-2.4512-1.6523-2.4512Z"/>
      <path d="M284.2953,225.0076v-1.8809h1.2539v-.7021c0-1.1211.3037-2.0322.7793-2.5459.4746-.5508,1.2344-.9121,2.2979-.9121,1.1211,0,1.8057.1904,1.8057.1904l-.1523,1.7471s-.5322-.1514-1.0449-.1514c-1.0449,0-1.292.7031-1.292,1.5771v.7969h2.1084v1.8809h-2.0703v7.2949h-2.4316v-7.2949h-1.2539Z"/>
      <path d="M290.2425,227.744c0-2.9062,2.166-4.8066,4.9961-4.8066,2.8125,0,4.9775,1.9004,4.9775,4.8066s-2.165,4.7676-4.9775,4.7676c-2.8301,0-4.9961-1.8613-4.9961-4.7676ZM295.2386,224.8944c-1.5957,0-2.4688,1.2158-2.4688,2.793,0,1.5762.873,2.8105,2.4688,2.8105,1.5586,0,2.4697-1.2344,2.4697-2.8105,0-1.5771-.9111-2.793-2.4697-2.793Z"/>
      <path d="M304.3021,223.1082l-.0381,1.4814h.0566c.3613-.9873,1.2734-1.6523,2.2607-1.6523.627,0,.9697.1709.9697.1709l-.1719,2.1084h-.1133c-.2666-.0762-.6846-.1133-1.0078-.1133-.7217,0-1.2725.3037-1.6143.8926-.2275.4561-.3418,1.083-.3418,1.7852v4.5215h-2.4131v-9.1943h2.4131Z"/>
      <path d="M318.7406,224.9315c-1.2158,0-1.8428,1.0449-1.8428,2.6221v4.749h-2.4316v-5.166c0-1.2539-.3232-2.2051-1.4814-2.2051-1.2539,0-1.8047,1.1787-1.8047,2.6221v4.749h-2.4316v-9.1943h2.4316l-.0195,1.3877h.0566c.418-.8555,1.5391-1.5586,2.7363-1.5586,1.3301,0,2.127.5322,2.5645,1.748.6465-1.1211,1.6914-1.748,3.0205-1.748,2.4131,0,3.0771,1.71,3.0771,3.8184v5.5469h-2.4316v-5.1484c0-1.1201-.2461-2.2227-1.4434-2.2227Z"/>
      <path d="M329.4378,230.6502c1.2344,0,2.3369-.5508,2.7734-.9307l.9502,1.3105c-.5127.5322-1.8994,1.4814-4.1416,1.4814-2.7734,0-4.8252-1.6904-4.8252-4.6543,0-2.9443,2.1475-4.9199,4.7686-4.9199,2.8301,0,4.541,1.8613,4.541,4.3125,0,.4746-.0391,1.2344-.0391,1.2344h-6.7627c.2275,1.4629,1.3486,2.166,2.7354,2.166ZM326.6644,226.908h4.4082c-.0391-1.0068-.418-2.166-2.1289-2.166-1.4434,0-2.2031,1.0068-2.2793,2.166Z"/>
      <path d="M342.1488,230.8592c-.7412,1.1777-1.8809,1.6523-3.1543,1.6523-2.6973,0-4.3496-2.0898-4.3496-4.8242,0-2.6035,1.7285-4.75,4.5215-4.75,1.2344,0,2.2793.4561,2.9258,1.4434h.0371c-.0195-.418-.0195-.9111-.0195-1.5566v-3.6289h2.4141v13.1074h-2.2988l-.0195-1.4434h-.0566ZM342.1673,227.6873c0-1.5391-1.0068-2.8887-2.5645-2.8887-1.5771,0-2.4893,1.3496-2.4893,2.8887,0,1.5957.9883,2.8496,2.5645,2.8496,1.4629,0,2.4893-1.1211,2.4893-2.8496Z"/>
      <path d="M354.9359,232.3026h-2.3936l-2.9443-9.1943h2.4121l1.9189,6.5928,2.1846-6.5928h1.9004l2.2598,6.4209,1.7676-6.4209h2.4121l-3.0391,9.1943h-2.1855l-2.2598-6.2305-2.0332,6.2305Z"/>
      <path d="M365.5003,220.2967c0-.7793.6074-1.3486,1.4629-1.3486s1.4629.5693,1.4629,1.3486c0,.7979-.6074,1.3496-1.4629,1.3496s-1.4629-.5518-1.4629-1.3496ZM368.179,223.1082v9.1943h-2.4316v-9.1943h2.4316Z"/>
      <path d="M374.43,230.4793c.4941,0,.874-.1514.874-.1514l.1328,1.8799c-.1143.0381-.8359.3037-1.8623.3037-1.8799,0-2.6592-.8545-2.6592-3.248v-4.2559h-1.3682v-1.8809h1.3682v-2.6211h2.4131v2.6211h2.127v1.8809h-2.127v3.7246c0,1.4053.2461,1.7471,1.1016,1.7471Z"/>
      <path d="M385.4496,226.8514v5.4512h-2.4316v-4.9199c0-1.3672-.2471-2.4512-1.6523-2.4512-1.501,0-2.0137,1.2539-2.0137,2.793v4.5781h-2.4131v-13.1074h2.4131v5.3008h.0371c.4941-.9697,1.4258-1.5586,2.7549-1.5586,2.6406,0,3.3057,1.71,3.3057,3.9141Z"/>
      <path d="M395.3304,230.4793c.4941,0,.874-.1514.874-.1514l.1328,1.8799c-.1143.0381-.8359.3037-1.8623.3037-1.8799,0-2.6592-.8545-2.6592-3.248v-4.2559h-1.3682v-1.8809h1.3682v-2.6211h2.4131v2.6211h2.127v1.8809h-2.127v3.7246c0,1.4053.2461,1.7471,1.1016,1.7471Z"/>
      <path d="M406.3499,226.8514v5.4512h-2.4316v-4.9199c0-1.3672-.2471-2.4512-1.6523-2.4512-1.501,0-2.0137,1.2539-2.0137,2.793v4.5781h-2.4131v-13.1074h2.4131v5.3008h.0371c.4941-.9697,1.4258-1.5586,2.7549-1.5586,2.6406,0,3.3057,1.71,3.3057,3.9141Z"/>
      <path d="M413.1722,230.6502c1.2344,0,2.3359-.5508,2.7734-.9307l.9492,1.3105c-.5127.5322-1.8994,1.4814-4.1406,1.4814-2.7744,0-4.8262-1.6904-4.8262-4.6543,0-2.9443,2.1465-4.9199,4.7686-4.9199,2.8311,0,4.54,1.8613,4.54,4.3125,0,.4746-.0371,1.2344-.0371,1.2344h-6.7637c.2285,1.4629,1.3486,2.166,2.7363,2.166ZM410.3978,226.908h4.4072c-.0371-1.0068-.418-2.166-2.127-2.166-1.4443,0-2.2041,1.0068-2.2803,2.166Z"/>
      <path d="M425.1224,219.1951v13.1074h-2.4131v-13.1074h2.4131Z"/>
      <path d="M429.9867,232.5116c-1.7861,0-3.2305-.9688-3.2305-2.8867,0-1.9189,1.8809-2.6602,3.7812-2.793l2.2031-.1523v-.2461c0-1.1777-.7793-1.7285-2.0508-1.7285-1.2168,0-2.2227.4551-2.623.7598l-.7402-1.5586c.7031-.418,1.9941-.9688,3.5898-.9688,1.6348,0,2.5654.418,3.249,1.0645.665.6455,1.0068,1.4814,1.0068,3.0391v5.2617h-2.3359l-.0391-1.0635c-.3789.665-1.4434,1.2725-2.8105,1.2725ZM429.1878,229.5487c0,.7793.5898,1.3105,1.5957,1.3105.9502,0,1.6533-.5508,1.9766-1.0068v-1.6904l-1.6533.0947c-1.292.0762-1.9189.5127-1.9189,1.292Z"/>
      <path d="M441.1956,230.4793c.4941,0,.874-.1514.874-.1514l.1328,1.8799c-.1143.0381-.8359.3037-1.8623.3037-1.8799,0-2.6592-.8545-2.6592-3.248v-4.2559h-1.3682v-1.8809h1.3682v-2.6211h2.4131v2.6211h2.127v1.8809h-2.127v3.7246c0,1.4053.2461,1.7471,1.1016,1.7471Z"/>
      <path d="M448.2445,230.6502c1.2344,0,2.3369-.5508,2.7734-.9307l.9502,1.3105c-.5127.5322-1.8994,1.4814-4.1416,1.4814-2.7734,0-4.8252-1.6904-4.8252-4.6543,0-2.9443,2.1475-4.9199,4.7686-4.9199,2.8301,0,4.541,1.8613,4.541,4.3125,0,.4746-.0391,1.2344-.0391,1.2344h-6.7627c.2275,1.4629,1.3486,2.166,2.7354,2.166ZM445.471,226.908h4.4082c-.0391-1.0068-.418-2.166-2.1289-2.166-1.4434,0-2.2031,1.0068-2.2793,2.166Z"/>
      <path d="M457.0804,224.7616c-.7988,0-1.1973.3037-1.1973.7402,0,.3994.3037.7227,1.3301,1.0449l.6455.209c2.0322.665,2.7549,1.3867,2.7549,2.7168,0,1.748-1.3867,3.0391-3.6484,3.0391-1.4053,0-2.9824-.5693-3.7227-1.4238l.9883-1.6533c1.082.8359,2.0137,1.2539,2.792,1.2539.9121,0,1.3301-.3418,1.3301-.874,0-.4746-.3613-.7402-1.5391-1.1396l-1.0635-.3604c-1.3682-.457-2.0703-1.2734-2.0703-2.6221,0-1.6719,1.5195-2.7549,3.2852-2.7549,1.6348,0,2.5469.4375,3.3066.9883l-1.0449,1.6143c-.5322-.3994-1.3105-.7783-2.1465-.7783Z"/>
      <path d="M466.0667,230.4793c.4941,0,.874-.1514.874-.1514l.1328,1.8799c-.1143.0381-.8359.3037-1.8623.3037-1.8799,0-2.6592-.8545-2.6592-3.248v-4.2559h-1.3682v-1.8809h1.3682v-2.6211h2.4131v2.6211h2.127v1.8809h-2.127v3.7246c0,1.4053.2461,1.7471,1.1016,1.7471Z"/>
      <path d="M479.1761,230.8592c-.7402,1.1777-1.8799,1.6523-3.1523,1.6523-2.6982,0-4.3516-2.0898-4.3516-4.8242,0-2.6035,1.7295-4.75,4.5215-4.75,1.2354,0,2.2803.4561,2.9258,1.4434h.0381c-.0186-.418-.0186-.9111-.0186-1.5566v-3.6289h2.4121v13.1074h-2.2988l-.0186-1.4434h-.0576ZM479.1956,227.6873c0-1.5391-1.0068-2.8887-2.5645-2.8887-1.5762,0-2.4883,1.3496-2.4883,2.8887,0,1.5957.9873,2.8496,2.5645,2.8496,1.4629,0,2.4883-1.1211,2.4883-2.8496Z"/>
      <path d="M486.4164,232.5116c-1.7852,0-3.2295-.9688-3.2295-2.8867,0-1.9189,1.8809-2.6602,3.7803-2.793l2.2031-.1523v-.2461c0-1.1777-.7783-1.7285-2.0508-1.7285-1.2158,0-2.2227.4551-2.6221.7598l-.7412-1.5586c.7031-.418,1.9951-.9688,3.5908-.9688,1.6338,0,2.5654.418,3.249,1.0645.6641.6455,1.0059,1.4814,1.0059,3.0391v5.2617h-2.3359l-.0381-1.0635c-.3799.665-1.4443,1.2725-2.8115,1.2725ZM485.6185,229.5487c0,.7793.5889,1.3105,1.5957,1.3105.9502,0,1.6533-.5508,1.9756-1.0068v-1.6904l-1.6523.0947c-1.292.0762-1.9189.5127-1.9189,1.292Z"/>
      <path d="M497.6253,230.4793c.4941,0,.875-.1514.875-.1514l.1328,1.8799c-.1143.0381-.8359.3037-1.8623.3037-1.8799,0-2.6592-.8545-2.6592-3.248v-4.2559h-1.3682v-1.8809h1.3682v-2.6211h2.4121v2.6211h2.1279v1.8809h-2.1279v3.7246c0,1.4053.2471,1.7471,1.1016,1.7471Z"/>
      <path d="M502.5667,232.5116c-1.7861,0-3.2305-.9688-3.2305-2.8867,0-1.9189,1.8809-2.6602,3.7812-2.793l2.2031-.1523v-.2461c0-1.1777-.7793-1.7285-2.0508-1.7285-1.2168,0-2.2227.4551-2.623.7598l-.7402-1.5586c.7031-.418,1.9941-.9688,3.5898-.9688,1.6348,0,2.5654.418,3.249,1.0645.665.6455,1.0068,1.4814,1.0068,3.0391v5.2617h-2.3359l-.0391-1.0635c-.3789.665-1.4434,1.2725-2.8105,1.2725ZM501.7679,229.5487c0,.7793.5898,1.3105,1.5957,1.3105.9502,0,1.6533-.5508,1.9766-1.0068v-1.6904l-1.6533.0947c-1.292.0762-1.9189.5127-1.9189,1.292Z"/>
      <path d="M516.1312,232.5116c-1.7852,0-3.2285-.9688-3.2285-2.8867,0-1.9189,1.8809-2.6602,3.7793-2.793l2.2041-.1523v-.2461c0-1.1777-.7783-1.7285-2.0518-1.7285-1.2148,0-2.2227.4551-2.6211.7598l-.7412-1.5586c.7031-.418,1.9951-.9688,3.5908-.9688,1.6328,0,2.5645.418,3.248,1.0645.665.6455,1.0068,1.4814,1.0068,3.0391v5.2617h-2.3369l-.0371-1.0635c-.3809.665-1.4443,1.2725-2.8125,1.2725ZM515.3343,229.5487c0,.7793.5879,1.3105,1.5957,1.3105.9492,0,1.6523-.5508,1.9746-1.0068v-1.6904l-1.6523.0947c-1.291.0762-1.918.5127-1.918,1.292Z"/>
      <path d="M527.8539,224.9315c-1.5,0-2.0137,1.2539-2.0137,2.793v4.5781h-2.4316v-9.1943h2.4316l-.0186,1.3877h.0566c.4941-.9697,1.4248-1.5586,2.7549-1.5586,2.6406,0,3.3047,1.71,3.3047,3.9141v5.4512h-2.4316v-4.9199c0-1.3672-.2461-2.4512-1.6523-2.4512Z"/>
      <path d="M541.0589,230.8592c-.7412,1.1777-1.8809,1.6523-3.1543,1.6523-2.6973,0-4.3496-2.0898-4.3496-4.8242,0-2.6035,1.7285-4.75,4.5215-4.75,1.2344,0,2.2793.4561,2.9258,1.4434h.0371c-.0195-.418-.0195-.9111-.0195-1.5566v-3.6289h2.4141v13.1074h-2.2988l-.0195-1.4434h-.0566ZM541.0775,227.6873c0-1.5391-1.0068-2.8887-2.5645-2.8887-1.5771,0-2.4893,1.3496-2.4893,2.8887,0,1.5957.9883,2.8496,2.5645,2.8496,1.4629,0,2.4893-1.1211,2.4893-2.8496Z"/>
      <path d="M553.9789,224.9315c-1.5,0-2.0137,1.2539-2.0137,2.793v4.5781h-2.4316v-9.1943h2.4316l-.0186,1.3877h.0566c.4941-.9697,1.4248-1.5586,2.7549-1.5586,2.6406,0,3.3047,1.71,3.3047,3.9141v5.4512h-2.4316v-4.9199c0-1.3672-.2461-2.4512-1.6523-2.4512Z"/>
      <path d="M564.8851,230.6502c1.2344,0,2.3359-.5508,2.7734-.9307l.9492,1.3105c-.5117.5322-1.8984,1.4814-4.1406,1.4814-2.7734,0-4.8262-1.6904-4.8262-4.6543,0-2.9443,2.1475-4.9199,4.7695-4.9199,2.8301,0,4.54,1.8613,4.54,4.3125,0,.4746-.0381,1.2344-.0381,1.2344h-6.7637c.2285,1.4629,1.3496,2.166,2.7363,2.166ZM562.1117,226.908h4.4072c-.0381-1.0068-.418-2.166-2.1279-2.166-1.4434,0-2.2031,1.0068-2.2793,2.166Z"/>
      <path d="M574.6888,232.3026h-2.3936l-2.9443-9.1943h2.4131l1.918,6.5928,2.1846-6.5928h1.8994l2.2617,6.4209,1.7656-6.4209h2.4131l-3.04,9.1943h-2.1836l-2.2617-6.2305-2.0322,6.2305Z"/>
      <path d="M588.2933,224.7616c-.7988,0-1.1973.3037-1.1973.7402,0,.3994.3037.7227,1.3301,1.0449l.6455.209c2.0322.665,2.7549,1.3867,2.7549,2.7168,0,1.748-1.3867,3.0391-3.6484,3.0391-1.4053,0-2.9824-.5693-3.7227-1.4238l.9883-1.6533c1.082.8359,2.0137,1.2539,2.792,1.2539.9121,0,1.3301-.3418,1.3301-.874,0-.4746-.3613-.7402-1.5391-1.1396l-1.0635-.3604c-1.3682-.457-2.0703-1.2734-2.0703-2.6221,0-1.6719,1.5195-2.7549,3.2852-2.7549,1.6348,0,2.5469.4375,3.3066.9883l-1.0449,1.6143c-.5322-.3994-1.3105-.7783-2.1465-.7783Z"/>
    </g>
    <rect class="cls-1" x="163.3913" y="207.3335" width="38.7549" height="38.7549" rx="1.7679" ry="1.7679"/>
  </g>
  <g>
    <g>
      <path d="M236.2054,353.5408c-3.8379,0-6.8008-2.6025-6.8008-6.7637s3.002-6.7617,6.8008-6.7617c2.5645,0,4.0469,1.082,4.5781,1.6143l-.873,2.0137c-.3809-.4941-1.8623-1.501-3.7236-1.501-2.2803,0-4.2373,1.501-4.2373,4.5977,0,2.8301,1.7676,4.6729,4.3887,4.6729,1.748,0,2.9639-.7598,3.7422-1.5957l.875,1.8623c-.7412.7969-2.166,1.8613-4.75,1.8613Z"/>
      <path d="M241.7357,348.7537c0-2.9062,2.166-4.8066,4.9971-4.8066,2.8105,0,4.9766,1.9004,4.9766,4.8066s-2.166,4.7676-4.9766,4.7676c-2.8311,0-4.9971-1.8613-4.9971-4.7676ZM246.7328,345.9041c-1.5957,0-2.4707,1.2158-2.4707,2.793,0,1.5762.875,2.8105,2.4707,2.8105,1.5566,0,2.4688-1.2344,2.4688-2.8105,0-1.5771-.9121-2.793-2.4688-2.793Z"/>
      <path d="M257.8285,345.9412c-1.502,0-2.0146,1.2539-2.0146,2.793v4.5781h-2.4316v-9.1943h2.4316l-.0186,1.3877h.0566c.4941-.9697,1.4248-1.5586,2.7549-1.5586,2.6406,0,3.3057,1.71,3.3057,3.9141v5.4512h-2.4316v-4.9199c0-1.3672-.2471-2.4512-1.6523-2.4512Z"/>
      <path d="M268.5433,345.9412c-1.5,0-2.0137,1.2539-2.0137,2.793v4.5781h-2.4316v-9.1943h2.4316l-.0186,1.3877h.0566c.4941-.9697,1.4248-1.5586,2.7549-1.5586,2.6406,0,3.3047,1.71,3.3047,3.9141v5.4512h-2.4316v-4.9199c0-1.3672-.2461-2.4512-1.6523-2.4512Z"/>
      <path d="M279.4496,351.66c1.2344,0,2.3359-.5508,2.7734-.9307l.9492,1.3105c-.5117.5322-1.8984,1.4814-4.1406,1.4814-2.7734,0-4.8262-1.6904-4.8262-4.6543,0-2.9443,2.1475-4.9199,4.7695-4.9199,2.8301,0,4.54,1.8613,4.54,4.3125,0,.4746-.0381,1.2344-.0381,1.2344h-6.7637c.2285,1.4629,1.3496,2.166,2.7363,2.166ZM276.6761,347.9178h4.4072c-.0381-1.0068-.418-2.166-2.1279-2.166-1.4434,0-2.2031,1.0068-2.2793,2.166Z"/>
      <path d="M292.3109,350.5018l.6846,1.7852c-.1904.1709-1.1396,1.2344-3.5908,1.2344-2.5078,0-4.8242-1.7285-4.8242-4.7305,0-3.0195,2.3926-4.8438,4.8633-4.8438,2.3164,0,3.2285.9316,3.4766,1.1777l-.666,1.8242c-.2852-.2656-1.1016-.9688-2.5264-.9688-1.4443,0-2.6025,1.0059-2.6025,2.6973s1.1582,2.793,2.7363,2.793c1.5762,0,2.4492-.9688,2.4492-.9688Z"/>
      <path d="M298.2406,351.4891c.4941,0,.873-.1514.873-.1514l.1328,1.8799c-.1133.0381-.8359.3037-1.8613.3037-1.8809,0-2.6602-.8545-2.6602-3.248v-4.2559h-1.3672v-1.8809h1.3672v-2.6211h2.4141v2.6211h2.127v1.8809h-2.127v3.7246c0,1.4053.2461,1.7471,1.1016,1.7471Z"/>
      <path d="M308.7279,353.3123h-2.3936l-2.9443-9.1943h2.4131l1.918,6.5928,2.1846-6.5928h1.8994l2.2617,6.4209,1.7656-6.4209h2.4131l-3.04,9.1943h-2.1836l-2.2617-6.2305-2.0322,6.2305Z"/>
      <path d="M319.2923,341.3065c0-.7793.6084-1.3486,1.4629-1.3486s1.4629.5693,1.4629,1.3486c0,.7979-.6084,1.3496-1.4629,1.3496s-1.4629-.5518-1.4629-1.3496ZM321.971,344.118v9.1943h-2.4316v-9.1943h2.4316Z"/>
      <path d="M328.222,351.4891c.4941,0,.874-.1514.874-.1514l.1328,1.8799c-.1133.0381-.8359.3037-1.8613.3037-1.8809,0-2.6602-.8545-2.6602-3.248v-4.2559h-1.3672v-1.8809h1.3672v-2.6211h2.4121v2.6211h2.1289v1.8809h-2.1289v3.7246c0,1.4053.248,1.7471,1.1025,1.7471Z"/>
      <path d="M339.2415,347.8612v5.4512h-2.4316v-4.9199c0-1.3672-.2471-2.4512-1.6533-2.4512-1.5,0-2.0137,1.2539-2.0137,2.793v4.5781h-2.4121v-13.1074h2.4121v5.3008h.0391c.4932-.9697,1.4238-1.5586,2.7539-1.5586,2.6406,0,3.3057,1.71,3.3057,3.9141Z"/>
      <path d="M346.5394,344.118l2.4316,6.5166,2.3926-6.5166h2.5273l-4.2744,10.4297c-.665,1.6143-1.4248,2.3936-2.7168,2.3936-1.3115,0-2.165-.3799-2.165-.3799l.4932-1.8623s.6455.2285,1.1025.2285c.4746,0,.873-.1328,1.0635-.6074l.3994-.9502-3.8008-9.252h2.5469Z"/>
      <path d="M354.2718,348.7537c0-2.9062,2.166-4.8066,4.9971-4.8066,2.8115,0,4.9775,1.9004,4.9775,4.8066s-2.166,4.7676-4.9775,4.7676c-2.8311,0-4.9971-1.8613-4.9971-4.7676ZM359.2689,345.9041c-1.5967,0-2.4697,1.2158-2.4697,2.793,0,1.5762.873,2.8105,2.4697,2.8105,1.5576,0,2.4697-1.2344,2.4697-2.8105,0-1.5771-.9121-2.793-2.4697-2.793Z"/>
      <path d="M369.8128,351.4891c1.4629,0,2.0137-1.1592,2.0137-2.6982v-4.6729h2.4316v9.1943h-2.3555l-.0186-1.291c-.5322.9121-1.5195,1.4629-2.8496,1.4629-2.6406,0-3.2861-1.71-3.2861-3.9141v-5.4521h2.4316v4.9209c0,1.3672.2275,2.4502,1.6328,2.4502Z"/>
      <path d="M378.9144,344.118l-.0371,1.4814h.0566c.3613-.9873,1.2725-1.6523,2.2598-1.6523.627,0,.9697.1709.9697.1709l-.1709,2.1084h-.1143c-.2666-.0762-.6846-.1133-1.0068-.1133-.7227,0-1.2734.3037-1.6152.8926-.2275.4561-.3418,1.083-.3418,1.7852v4.5215h-2.4121v-9.1943h2.4121Z"/>
      <path d="M389.6302,340.2049v13.1074h-2.4131v-13.1074h2.4131Z"/>
      <path d="M391.3968,348.7537c0-2.9062,2.166-4.8066,4.9971-4.8066,2.8115,0,4.9775,1.9004,4.9775,4.8066s-2.166,4.7676-4.9775,4.7676c-2.8311,0-4.9971-1.8613-4.9971-4.7676ZM396.3939,345.9041c-1.5967,0-2.4697,1.2158-2.4697,2.793,0,1.5762.873,2.8105,2.4697,2.8105,1.5576,0,2.4697-1.2344,2.4697-2.8105,0-1.5771-.9121-2.793-2.4697-2.793Z"/>
      <path d="M410.1292,350.5018l.6846,1.7852c-.1904.1709-1.1396,1.2344-3.5908,1.2344-2.5078,0-4.8242-1.7285-4.8242-4.7305,0-3.0195,2.3926-4.8438,4.8633-4.8438,2.3164,0,3.2285.9316,3.4766,1.1777l-.666,1.8242c-.2852-.2656-1.1016-.9688-2.5264-.9688-1.4443,0-2.6025,1.0059-2.6025,2.6973s1.1582,2.793,2.7363,2.793c1.5762,0,2.4492-.9688,2.4492-.9688Z"/>
      <path d="M415.0316,353.5213c-1.7852,0-3.2285-.9688-3.2285-2.8867,0-1.9189,1.8809-2.6602,3.7793-2.793l2.2041-.1523v-.2461c0-1.1777-.7783-1.7295-2.0518-1.7295-1.2148,0-2.2227.4561-2.6211.7607l-.7412-1.5586c.7031-.418,1.9951-.9688,3.5908-.9688,1.6328,0,2.5645.418,3.248,1.0645.665.6455,1.0068,1.4814,1.0068,3.0391v5.2617h-2.3369l-.0371-1.0635c-.3809.665-1.4443,1.2725-2.8125,1.2725ZM414.2347,350.5584c0,.7793.5879,1.3105,1.5957,1.3105.9492,0,1.6523-.5508,1.9746-1.0068v-1.6904l-1.6523.0947c-1.291.0762-1.918.5127-1.918,1.292Z"/>
      <path d="M424.8167,340.2049v13.1074h-2.4121v-13.1074h2.4121Z"/>
      <path d="M433.4427,353.5213c-1.7861,0-3.2295-.9688-3.2295-2.8867,0-1.9189,1.8809-2.6602,3.7803-2.793l2.2041-.1523v-.2461c0-1.1777-.7793-1.7295-2.0518-1.7295-1.2158,0-2.2236.4561-2.6221.7607l-.7402-1.5586c.7031-.418,1.9941-.9688,3.5898-.9688,1.6338,0,2.5645.418,3.248,1.0645.666.6455,1.0078,1.4814,1.0078,3.0391v5.2617h-2.3369l-.0381-1.0635c-.3799.665-1.4434,1.2725-2.8115,1.2725ZM432.6449,350.5584c0,.7793.5889,1.3105,1.5957,1.3105.9492,0,1.6523-.5508,1.9756-1.0068v-1.6904l-1.6533.0947c-1.291.0762-1.918.5127-1.918,1.292Z"/>
      <path d="M445.1654,345.9412c-1.501,0-2.0146,1.2539-2.0146,2.793v4.5781h-2.4316v-9.1943h2.4316l-.0176,1.3877h.0566c.4941-.9697,1.4238-1.5586,2.7539-1.5586,2.6406,0,3.3057,1.71,3.3057,3.9141v5.4512h-2.4316v-4.9199c0-1.3672-.2471-2.4512-1.6523-2.4512Z"/>
      <path d="M458.3695,351.869c-.7402,1.1777-1.8809,1.6523-3.1533,1.6523-2.6982,0-4.3506-2.0898-4.3506-4.8242,0-2.6035,1.7285-4.75,4.5215-4.75,1.2344,0,2.2793.4561,2.9258,1.4434h.0371c-.0186-.418-.0186-.9111-.0186-1.5566v-3.6289h2.4131v13.1074h-2.2988l-.0195-1.4434h-.0566ZM458.389,348.6971c0-1.5391-1.0078-2.8887-2.5645-2.8887-1.5771,0-2.4893,1.3496-2.4893,2.8887,0,1.5957.9873,2.8496,2.5645,2.8496,1.4629,0,2.4893-1.1211,2.4893-2.8496Z"/>
      <path d="M470.5687,353.0086c-2.3184,0-4.2939-1.4814-4.2939-4.4072,0-2.5449,1.7861-4.6543,4.5215-4.6543,1.2354,0,2.2803.4561,2.9258,1.4434h.0381l-.0195-1.2725h2.4131v7.2949c0,2.0137-.418,3.1533-1.1973,3.9707-.7979.8359-1.9756,1.6143-4.1787,1.6143-2.1855,0-3.8184-1.0449-4.2754-1.3672l1.0078-1.6914c.5879.418,2.0898,1.084,3.2676,1.084,1.3105,0,1.9941-.418,2.3359-.8174s.627-1.1592.627-2.1846v-.4561h-.0371c-.627.9502-1.7295,1.4434-3.1348,1.4434ZM471.2904,345.866c-1.5967,0-2.5459,1.1777-2.5459,2.6787,0,1.4062.9121,2.5645,2.5078,2.5645,1.748,0,2.6211-1.1582,2.6211-2.5645,0-1.3301-.9873-2.6787-2.583-2.6787Z"/>
      <path d="M480.9417,340.2049v13.1074h-2.4121v-13.1074h2.4121Z"/>
      <path d="M482.7093,348.7537c0-2.9062,2.166-4.8066,4.9961-4.8066,2.8125,0,4.9775,1.9004,4.9775,4.8066s-2.165,4.7676-4.9775,4.7676c-2.8301,0-4.9961-1.8613-4.9961-4.7676ZM487.7054,345.9041c-1.5957,0-2.4688,1.2158-2.4688,2.793,0,1.5762.873,2.8105,2.4688,2.8105,1.5586,0,2.4697-1.2344,2.4697-2.8105,0-1.5771-.9111-2.793-2.4697-2.793Z"/>
      <path d="M496.8831,340.2049v4.1035c0,.6836-.0391,1.082-.0391,1.082h.0576c.7979-1.0449,1.8428-1.4814,3.0771-1.4814,2.6797,0,4.3506,2.1084,4.3506,4.8066,0,2.6221-1.7285,4.7686-4.5205,4.7686-1.293,0-2.2988-.457-3.0215-1.501h-.0371l-.0576,1.3291h-2.2412v-13.1074h2.4316ZM496.807,348.7342c0,1.5391,1.0059,2.8877,2.5645,2.8877,1.5762,0,2.4883-1.3486,2.4883-2.8877,0-1.5957-.9883-2.8496-2.5645-2.8496-1.4629,0-2.4883,1.1211-2.4883,2.8496Z"/>
      <path d="M508.5296,353.5213c-1.7852,0-3.2295-.9688-3.2295-2.8867,0-1.9189,1.8809-2.6602,3.7803-2.793l2.2031-.1523v-.2461c0-1.1777-.7783-1.7295-2.0508-1.7295-1.2158,0-2.2227.4561-2.6221.7607l-.7412-1.5586c.7031-.418,1.9951-.9688,3.5908-.9688,1.6338,0,2.5654.418,3.249,1.0645.6641.6455,1.0059,1.4814,1.0059,3.0391v5.2617h-2.3359l-.0381-1.0635c-.3799.665-1.4443,1.2725-2.8115,1.2725ZM507.7318,350.5584c0,.7793.5889,1.3105,1.5957,1.3105.9502,0,1.6533-.5508,1.9756-1.0068v-1.6904l-1.6523.0947c-1.292.0762-1.9189.5127-1.9189,1.292Z"/>
      <path d="M518.3148,340.2049v13.1074h-2.4131v-13.1074h2.4131Z"/>
      <path d="M531.4984,350.5018l.6846,1.7852c-.1904.1709-1.1396,1.2344-3.5908,1.2344-2.5078,0-4.8242-1.7285-4.8242-4.7305,0-3.0195,2.3926-4.8438,4.8633-4.8438,2.3164,0,3.2285.9316,3.4766,1.1777l-.666,1.8242c-.2852-.2656-1.1016-.9688-2.5264-.9688-1.4443,0-2.6025,1.0059-2.6025,2.6973s1.1582,2.793,2.7363,2.793c1.5762,0,2.4492-.9688,2.4492-.9688Z"/>
      <path d="M532.9251,348.7537c0-2.9062,2.166-4.8066,4.9971-4.8066,2.8105,0,4.9766,1.9004,4.9766,4.8066s-2.166,4.7676-4.9766,4.7676c-2.8311,0-4.9971-1.8613-4.9971-4.7676ZM537.9222,345.9041c-1.5957,0-2.4707,1.2158-2.4707,2.793,0,1.5762.875,2.8105,2.4707,2.8105,1.5566,0,2.4688-1.2344,2.4688-2.8105,0-1.5771-.9121-2.793-2.4688-2.793Z"/>
      <path d="M554.5648,345.9412c-1.2168,0-1.8438,1.0449-1.8438,2.6221v4.749h-2.4316v-5.167c0-1.2529-.3223-2.2041-1.4805-2.2041-1.2539,0-1.8057,1.1787-1.8057,2.6221v4.749h-2.4316v-9.1943h2.4316l-.0186,1.3877h.0566c.418-.8555,1.5391-1.5586,2.7363-1.5586,1.3291,0,2.127.5322,2.5645,1.748.6455-1.1211,1.6904-1.748,3.0195-1.748,2.4131,0,3.0781,1.71,3.0781,3.8184v5.5469h-2.4316v-5.1484c0-1.1201-.2471-2.2227-1.4434-2.2227Z"/>
      <path d="M570.6195,345.9412c-1.2168,0-1.8438,1.0449-1.8438,2.6221v4.749h-2.4316v-5.167c0-1.2529-.3223-2.2041-1.4805-2.2041-1.2539,0-1.8057,1.1787-1.8057,2.6221v4.749h-2.4316v-9.1943h2.4316l-.0186,1.3877h.0566c.418-.8555,1.5391-1.5586,2.7363-1.5586,1.3291,0,2.127.5322,2.5645,1.748.6455-1.1211,1.6904-1.748,3.0195-1.748,2.4131,0,3.0781,1.71,3.0781,3.8184v5.5469h-2.4316v-5.1484c0-1.1201-.2471-2.2227-1.4434-2.2227Z"/>
      <path d="M580.5755,351.4891c1.4629,0,2.0137-1.1592,2.0137-2.6982v-4.6729h2.4316v9.1943h-2.3555l-.0186-1.291c-.5322.9121-1.5195,1.4629-2.8496,1.4629-2.6406,0-3.2871-1.71-3.2871-3.9141v-5.4521h2.4316v4.9209c0,1.3672.2285,2.4502,1.6338,2.4502Z"/>
      <path d="M591.7093,345.9412c-1.5,0-2.0137,1.2539-2.0137,2.793v4.5781h-2.4316v-9.1943h2.4316l-.0186,1.3877h.0566c.4941-.9697,1.4248-1.5586,2.7549-1.5586,2.6406,0,3.3047,1.71,3.3047,3.9141v5.4512h-2.4316v-4.9199c0-1.3672-.2461-2.4512-1.6523-2.4512Z"/>
      <path d="M597.8089,341.3065c0-.7793.6074-1.3486,1.4629-1.3486s1.4629.5693,1.4629,1.3486c0,.7979-.6074,1.3496-1.4629,1.3496s-1.4629-.5518-1.4629-1.3496ZM600.4876,344.118v9.1943h-2.4316v-9.1943h2.4316Z"/>
      <path d="M606.7386,351.4891c.4941,0,.874-.1514.874-.1514l.1328,1.8799c-.1143.0381-.8359.3037-1.8623.3037-1.8799,0-2.6592-.8545-2.6592-3.248v-4.2559h-1.3682v-1.8809h1.3682v-2.6211h2.4131v2.6211h2.127v1.8809h-2.127v3.7246c0,1.4053.2461,1.7471,1.1016,1.7471Z"/>
      <path d="M608.9808,341.3065c0-.7793.6084-1.3486,1.4629-1.3486.8555,0,1.4629.5693,1.4629,1.3486,0,.7979-.6074,1.3496-1.4629,1.3496-.8545,0-1.4629-.5518-1.4629-1.3496ZM611.6605,344.118v9.1943h-2.4316v-9.1943h2.4316Z"/>
      <path d="M618.6136,351.66c1.2344,0,2.3369-.5508,2.7734-.9307l.9502,1.3105c-.5127.5322-1.8994,1.4814-4.1416,1.4814-2.7734,0-4.8252-1.6904-4.8252-4.6543,0-2.9443,2.1475-4.9199,4.7686-4.9199,2.8301,0,4.541,1.8613,4.541,4.3125,0,.4746-.0391,1.2344-.0391,1.2344h-6.7627c.2275,1.4629,1.3486,2.166,2.7354,2.166ZM615.8402,347.9178h4.4082c-.0391-1.0068-.418-2.166-2.1289-2.166-1.4434,0-2.2031,1.0068-2.2793,2.166Z"/>
      <path d="M627.4496,345.7713c-.7988,0-1.1973.3037-1.1973.7402,0,.3994.3037.7227,1.3301,1.0449l.6455.209c2.0322.665,2.7549,1.3867,2.7549,2.7168,0,1.748-1.3867,3.0391-3.6484,3.0391-1.4053,0-2.9824-.5693-3.7227-1.4238l.9883-1.6533c1.082.8359,2.0137,1.2539,2.792,1.2539.9121,0,1.3301-.3418,1.3301-.874,0-.4746-.3613-.7402-1.5391-1.1396l-1.0635-.3604c-1.3682-.457-2.0703-1.2734-2.0703-2.6221,0-1.6719,1.5195-2.7549,3.2852-2.7549,1.6348,0,2.5469.4375,3.3066.9883l-1.0449,1.6143c-.5322-.3994-1.3105-.7783-2.1465-.7783Z"/>
      <path d="M232.4437,363.2049v4.1035c0,.6836-.0371,1.082-.0371,1.082h.0566c.7979-1.0449,1.8428-1.4814,3.0781-1.4814,2.6777,0,4.3496,2.1084,4.3496,4.8066,0,2.6221-1.7285,4.7686-4.5215,4.7686-1.291,0-2.2988-.457-3.0205-1.501h-.0381l-.0566,1.3291h-2.2422v-13.1074h2.4316ZM232.3675,371.7342c0,1.5391,1.0078,2.8877,2.5654,2.8877,1.5771,0,2.4883-1.3486,2.4883-2.8877,0-1.5957-.9873-2.8496-2.5645-2.8496-1.4629,0-2.4893,1.1211-2.4893,2.8496Z"/>
      <path d="M242.4378,367.118l2.4316,6.5166,2.3945-6.5166h2.5264l-4.2744,10.4297c-.665,1.6143-1.4248,2.3936-2.7168,2.3936-1.3105,0-2.166-.3799-2.166-.3799l.4941-1.8623s.6465.2285,1.1016.2285c.4746,0,.875-.1328,1.0645-.6074l.3984-.9502-3.7988-9.252h2.5449Z"/>
      <path d="M257.7132,368.7713c-.7979,0-1.1973.3037-1.1973.7402,0,.3994.3047.7227,1.3301,1.0449l.6465.209c2.0322.665,2.7539,1.3867,2.7539,2.7168,0,1.748-1.3867,3.0391-3.6475,3.0391-1.4053,0-2.9824-.5693-3.7236-1.4238l.9883-1.6533c1.083.8359,2.0137,1.2539,2.793,1.2539.9121,0,1.3301-.3418,1.3301-.874,0-.4746-.3613-.7402-1.5391-1.1396l-1.0645-.3604c-1.3672-.457-2.0703-1.2734-2.0703-2.6221,0-1.6719,1.5195-2.7549,3.2861-2.7549,1.6338,0,2.5459.4375,3.3057.9883l-1.0449,1.6143c-.5312-.3994-1.3105-.7783-2.1465-.7783Z"/>
      <path d="M266.6624,374.4891c1.4629,0,2.0137-1.1592,2.0137-2.6982v-4.6729h2.4316v9.1943h-2.3555l-.0195-1.291c-.5312.9121-1.5195,1.4629-2.8496,1.4629-2.6406,0-3.2871-1.71-3.2871-3.9141v-5.4521h2.4316v4.9209c0,1.3672.2285,2.4502,1.6348,2.4502Z"/>
      <path d="M275.8773,368.4295c.7402-1.1025,1.8428-1.5205,3.0586-1.5205,2.6973,0,4.3496,2.0898,4.3496,4.8252,0,2.6035-1.7285,4.75-4.5205,4.75-1.4053,0-2.1846-.4941-2.9443-1.4062l-.0391.0195c.0195.4365.0391.8545.0391,1.5v3.1914h-2.4131v-12.6709h2.4697l-.0381,1.292.0381.0195ZM275.764,371.7342c0,1.5391,1.0059,2.8877,2.5645,2.8877,1.5762,0,2.4883-1.3486,2.4883-2.8877,0-1.5957-.9883-2.8496-2.5645-2.8496-1.4629,0-2.4883,1.1211-2.4883,2.8496Z"/>
      <path d="M287.5052,368.4295c.7412-1.1025,1.8428-1.5205,3.0586-1.5205,2.6982,0,4.3506,2.0898,4.3506,4.8252,0,2.6035-1.7285,4.75-4.5215,4.75-1.4062,0-2.1846-.4941-2.9453-1.4062l-.0371.0195c.0186.4365.0371.8545.0371,1.5v3.1914h-2.4121v-12.6709h2.4697l-.0381,1.292.0381.0195ZM287.391,371.7342c0,1.5391,1.0078,2.8877,2.5645,2.8877,1.5771,0,2.4893-1.3486,2.4893-2.8877,0-1.5957-.9873-2.8496-2.5654-2.8496-1.4629,0-2.4883,1.1211-2.4883,2.8496Z"/>
      <path d="M296.0365,371.7537c0-2.9062,2.166-4.8066,4.9971-4.8066,2.8105,0,4.9766,1.9004,4.9766,4.8066s-2.166,4.7676-4.9766,4.7676c-2.8311,0-4.9971-1.8613-4.9971-4.7676ZM301.0335,368.9041c-1.5957,0-2.4707,1.2158-2.4707,2.793,0,1.5762.875,2.8105,2.4707,2.8105,1.5566,0,2.4688-1.2344,2.4688-2.8105,0-1.5771-.9121-2.793-2.4688-2.793Z"/>
      <path d="M310.096,367.118l-.0381,1.4814h.0566c.3613-.9873,1.2725-1.6523,2.2607-1.6523.627,0,.9688.1709.9688.1709l-.1709,2.1084h-.1143c-.2656-.0762-.6836-.1133-1.0059-.1133-.7227,0-1.2734.3037-1.6152.8926-.2285.4561-.3418,1.083-.3418,1.7852v4.5215h-2.4131v-9.1943h2.4131Z"/>
      <path d="M318.4749,374.4891c.4941,0,.873-.1514.873-.1514l.1328,1.8799c-.1133.0381-.8359.3037-1.8613.3037-1.8809,0-2.6602-.8545-2.6602-3.248v-4.2559h-1.3672v-1.8809h1.3672v-2.6211h2.4141v2.6211h2.127v1.8809h-2.127v3.7246c0,1.4053.2461,1.7471,1.1016,1.7471Z"/>
      <path d="M320.7171,364.3065c0-.7793.6074-1.3486,1.4629-1.3486s1.4629.5693,1.4629,1.3486c0,.7979-.6074,1.3496-1.4629,1.3496s-1.4629-.5518-1.4629-1.3496ZM323.3958,367.118v9.1943h-2.4316v-9.1943h2.4316Z"/>
      <path d="M330.1605,368.9412c-1.502,0-2.0146,1.2539-2.0146,2.793v4.5781h-2.4316v-9.1943h2.4316l-.0186,1.3877h.0566c.4941-.9697,1.4248-1.5586,2.7549-1.5586,2.6406,0,3.3057,1.71,3.3057,3.9141v5.4512h-2.4316v-4.9199c0-1.3672-.2471-2.4512-1.6523-2.4512Z"/>
      <path d="M340.1537,376.0086c-2.3174,0-4.2939-1.4814-4.2939-4.4072,0-2.5449,1.7861-4.6543,4.5215-4.6543,1.2354,0,2.2803.4561,2.9258,1.4434h.0381l-.0186-1.2725h2.4121v7.2949c0,2.0137-.418,3.1533-1.1973,3.9707-.7969.8359-1.9746,1.6143-4.1787,1.6143-2.1846,0-3.8184-1.0449-4.2744-1.3672l1.0068-1.6914c.5889.418,2.0898,1.084,3.2676,1.084,1.3115,0,1.9951-.418,2.3369-.8174s.627-1.1592.627-2.1846v-.4561h-.0381c-.627.9502-1.7295,1.4434-3.1348,1.4434ZM340.8753,368.866c-1.5957,0-2.5449,1.1777-2.5449,2.6787,0,1.4062.9121,2.5645,2.5078,2.5645,1.7471,0,2.6211-1.1582,2.6211-2.5645,0-1.3301-.9883-2.6787-2.584-2.6787Z"/>
      <path d="M358.7162,374.869c-.7412,1.1777-1.8799,1.6523-3.1533,1.6523-2.6973,0-4.3506-2.0898-4.3506-4.8242,0-2.6035,1.7295-4.75,4.5215-4.75,1.2354,0,2.2803.4561,2.9258,1.4434h.0381c-.0195-.418-.0195-.9111-.0195-1.5566v-3.6289h2.4131v13.1074h-2.2988l-.0186-1.4434h-.0576ZM358.7347,371.6971c0-1.5391-1.0059-2.8887-2.5645-2.8887-1.5762,0-2.4883,1.3496-2.4883,2.8887,0,1.5957.9883,2.8496,2.5645,2.8496,1.4629,0,2.4883-1.1211,2.4883-2.8496Z"/>
      <path d="M363.2581,364.3065c0-.7793.6074-1.3486,1.4629-1.3486s1.4629.5693,1.4629,1.3486c0,.7979-.6074,1.3496-1.4629,1.3496s-1.4629-.5518-1.4629-1.3496ZM365.9369,367.118v9.1943h-2.4316v-9.1943h2.4316Z"/>
      <path d="M371.4085,368.7713c-.7969,0-1.1963.3037-1.1963.7402,0,.3994.3037.7227,1.3291,1.0449l.6465.209c2.0332.665,2.7539,1.3867,2.7539,2.7168,0,1.748-1.3867,3.0391-3.6465,3.0391-1.4062,0-2.9824-.5693-3.7236-1.4238l.9873-1.6533c1.084.8359,2.0137,1.2539,2.793,1.2539.9121,0,1.3301-.3418,1.3301-.874,0-.4746-.3613-.7402-1.5391-1.1396l-1.0645-.3604c-1.3672-.457-2.0703-1.2734-2.0703-2.6221,0-1.6719,1.5195-2.7549,3.2871-2.7549,1.6328,0,2.5449.4375,3.3047.9883l-1.0449,1.6143c-.5312-.3994-1.3105-.7783-2.1465-.7783Z"/>
      <path d="M379.0853,376.5213c-1.7861,0-3.2295-.9688-3.2295-2.8867,0-1.9189,1.8809-2.6602,3.7803-2.793l2.2041-.1523v-.2461c0-1.1777-.7793-1.7295-2.0518-1.7295-1.2158,0-2.2236.4561-2.6221.7607l-.7402-1.5586c.7031-.418,1.9941-.9688,3.5898-.9688,1.6338,0,2.5645.418,3.248,1.0645.666.6455,1.0078,1.4814,1.0078,3.0391v5.2617h-2.3369l-.0381-1.0635c-.3799.665-1.4434,1.2725-2.8115,1.2725ZM378.2874,373.5584c0,.7793.5889,1.3105,1.5957,1.3105.9492,0,1.6523-.5508,1.9756-1.0068v-1.6904l-1.6533.0947c-1.291.0762-1.918.5127-1.918,1.292Z"/>
      <path d="M389.516,368.7713c-.7979,0-1.1973.3037-1.1973.7402,0,.3994.3047.7227,1.3301,1.0449l.6465.209c2.0322.665,2.7539,1.3867,2.7539,2.7168,0,1.748-1.3867,3.0391-3.6475,3.0391-1.4053,0-2.9824-.5693-3.7236-1.4238l.9883-1.6533c1.083.8359,2.0137,1.2539,2.793,1.2539.9121,0,1.3301-.3418,1.3301-.874,0-.4746-.3613-.7402-1.5391-1.1396l-1.0645-.3604c-1.3672-.457-2.0703-1.2734-2.0703-2.6221,0-1.6719,1.5195-2.7549,3.2861-2.7549,1.6338,0,2.5459.4375,3.3057.9883l-1.0449,1.6143c-.5312-.3994-1.3105-.7783-2.1465-.7783Z"/>
      <path d="M398.5023,374.4891c.4941,0,.875-.1514.875-.1514l.1328,1.8799c-.1143.0381-.8359.3037-1.8623.3037-1.8799,0-2.6592-.8545-2.6592-3.248v-4.2559h-1.3682v-1.8809h1.3682v-2.6211h2.4121v2.6211h2.1279v1.8809h-2.1279v3.7246c0,1.4053.2471,1.7471,1.1016,1.7471Z"/>
      <path d="M405.5521,374.66c1.2354,0,2.3369-.5508,2.7734-.9307l.9502,1.3105c-.5137.5322-1.9004,1.4814-4.1416,1.4814-2.7744,0-4.8252-1.6904-4.8252-4.6543,0-2.9443,2.1465-4.9199,4.7676-4.9199,2.8311,0,4.541,1.8613,4.541,4.3125,0,.4746-.0381,1.2344-.0381,1.2344h-6.7627c.2275,1.4629,1.3477,2.166,2.7354,2.166ZM402.7777,370.9178h4.4082c-.0381-1.0068-.418-2.166-2.1279-2.166-1.4443,0-2.2041,1.0068-2.2803,2.166Z"/>
      <path d="M413.6468,367.118l-.0391,1.4814h.0566c.3613-.9873,1.2734-1.6523,2.2617-1.6523.627,0,.9688.1709.9688.1709l-.1719,2.1084h-.1133c-.2656-.0762-.6836-.1133-1.0068-.1133-.7217,0-1.2725.3037-1.6143.8926-.2285.4561-.3418,1.083-.3418,1.7852v4.5215h-2.4141v-9.1943h2.4141Z"/>
      <path d="M424.2669,367.118l-.0381,1.4814h.0566c.3613-.9873,1.2734-1.6523,2.2607-1.6523.627,0,.9697.1709.9697.1709l-.1719,2.1084h-.1133c-.2666-.0762-.6846-.1133-1.0078-.1133-.7217,0-1.2725.3037-1.6143.8926-.2275.4561-.3418,1.083-.3418,1.7852v4.5215h-2.4131v-9.1943h2.4131Z"/>
      <path d="M433.2533,374.66c1.2354,0,2.3369-.5508,2.7734-.9307l.9502,1.3105c-.5137.5322-1.9004,1.4814-4.1416,1.4814-2.7744,0-4.8252-1.6904-4.8252-4.6543,0-2.9443,2.1465-4.9199,4.7676-4.9199,2.8311,0,4.541,1.8613,4.541,4.3125,0,.4746-.0381,1.2344-.0381,1.2344h-6.7627c.2275,1.4629,1.3477,2.166,2.7354,2.166ZM430.4789,370.9178h4.4082c-.0381-1.0068-.418-2.166-2.1279-2.166-1.4443,0-2.2041,1.0068-2.2803,2.166Z"/>
      <path d="M441.4417,363.2049v13.1074h-2.4121v-13.1074h2.4121Z"/>
      <path d="M443.6078,364.3065c0-.7793.6084-1.3486,1.4629-1.3486.8555,0,1.4629.5693,1.4629,1.3486,0,.7979-.6074,1.3496-1.4629,1.3496-.8545,0-1.4629-.5518-1.4629-1.3496ZM446.2874,367.118v9.1943h-2.4316v-9.1943h2.4316Z"/>
      <path d="M453.2406,374.66c1.2344,0,2.3369-.5508,2.7734-.9307l.9502,1.3105c-.5127.5322-1.8994,1.4814-4.1416,1.4814-2.7734,0-4.8252-1.6904-4.8252-4.6543,0-2.9443,2.1475-4.9199,4.7686-4.9199,2.8301,0,4.541,1.8613,4.541,4.3125,0,.4746-.0391,1.2344-.0391,1.2344h-6.7627c.2275,1.4629,1.3486,2.166,2.7354,2.166ZM450.4671,370.9178h4.4082c-.0391-1.0068-.418-2.166-2.1289-2.166-1.4434,0-2.2031,1.0068-2.2793,2.166Z"/>
      <path d="M458.0492,369.0174v-1.8809h1.2539v-.7021c0-1.1211.3027-2.0322.7783-2.5459.4746-.5508,1.2354-.9121,2.2979-.9121,1.1211,0,1.8047.1904,1.8047.1904l-.1514,1.7471s-.5322-.1514-1.0449-.1514c-1.0439,0-1.292.7031-1.292,1.5771v.7969h2.1094v1.8809h-2.0703v7.2949h-2.4316v-7.2949h-1.2539Z"/>
      <path d="M473.0003,374.66c1.2344,0,2.3369-.5508,2.7734-.9307l.9502,1.3105c-.5127.5322-1.8994,1.4814-4.1416,1.4814-2.7734,0-4.8252-1.6904-4.8252-4.6543,0-2.9443,2.1475-4.9199,4.7686-4.9199,2.8301,0,4.541,1.8613,4.541,4.3125,0,.4746-.0391,1.2344-.0391,1.2344h-6.7627c.2275,1.4629,1.3486,2.166,2.7354,2.166ZM470.2269,370.9178h4.4082c-.0391-1.0068-.418-2.166-2.1289-2.166-1.4434,0-2.2031,1.0068-2.2793,2.166Z"/>
      <path d="M481.4945,369.0174v7.2949h-2.4316v-7.2949h-1.2539v-1.8809h1.2539v-.7021c0-1.1211.3027-2.0322.7783-2.5459.4746-.5508,1.2354-.9121,2.2979-.9121,1.1211,0,1.8047.1904,1.8047.1904l-.1514,1.7471s-.5322-.1514-1.0449-.1514c-1.0439,0-1.292.7031-1.292,1.5771v.7969h3.3057v-.7021c0-1.1211.3232-2.0137.7793-2.5459.4746-.5508,1.2354-.9121,2.2979-.9121,1.1211,0,1.8047.1904,1.8047.1904l-.1514,1.7471s-.5322-.1514-1.0449-.1514c-1.0449,0-1.292.7031-1.292,1.5771v.7969h2.1094v1.8809h-2.0713v7.2949h-2.4316v-7.2949h-3.2666Z"/>
      <path d="M489.4554,371.7537c0-2.9062,2.166-4.8066,4.9961-4.8066,2.8125,0,4.9775,1.9004,4.9775,4.8066s-2.165,4.7676-4.9775,4.7676c-2.8301,0-4.9961-1.8613-4.9961-4.7676ZM494.4515,368.9041c-1.5957,0-2.4688,1.2158-2.4688,2.793,0,1.5762.873,2.8105,2.4688,2.8105,1.5586,0,2.4697-1.2344,2.4697-2.8105,0-1.5771-.9111-2.793-2.4697-2.793Z"/>
      <path d="M503.515,367.118l-.0381,1.4814h.0566c.3613-.9873,1.2734-1.6523,2.2607-1.6523.627,0,.9697.1709.9697.1709l-.1719,2.1084h-.1133c-.2666-.0762-.6846-.1133-1.0078-.1133-.7217,0-1.2725.3037-1.6143.8926-.2275.4561-.3418,1.083-.3418,1.7852v4.5215h-2.4131v-9.1943h2.4131Z"/>
      <path d="M511.8929,374.4891c.4941,0,.875-.1514.875-.1514l.1328,1.8799c-.1143.0381-.8359.3037-1.8623.3037-1.8799,0-2.6592-.8545-2.6592-3.248v-4.2559h-1.3682v-1.8809h1.3682v-2.6211h2.4121v2.6211h2.1279v1.8809h-2.1279v3.7246c0,1.4053.2471,1.7471,1.1016,1.7471Z"/>
      <path d="M517.4613,368.7713c-.7988,0-1.1973.3037-1.1973.7402,0,.3994.3037.7227,1.3301,1.0449l.6455.209c2.0322.665,2.7549,1.3867,2.7549,2.7168,0,1.748-1.3867,3.0391-3.6484,3.0391-1.4053,0-2.9824-.5693-3.7227-1.4238l.9883-1.6533c1.082.8359,2.0137,1.2539,2.792,1.2539.9121,0,1.3301-.3418,1.3301-.874,0-.4746-.3613-.7402-1.5391-1.1396l-1.0635-.3604c-1.3682-.457-2.0703-1.2734-2.0703-2.6221,0-1.6719,1.5195-2.7549,3.2852-2.7549,1.6348,0,2.5469.4375,3.3066.9883l-1.0449,1.6143c-.5322-.3994-1.3105-.7783-2.1465-.7783Z"/>
      <path d="M526.1439,373.9198l-1.8994,5.0527h-1.957l1.4629-5.0527h2.3936Z"/>
      <path d="M533.6302,367.118l2.4883,6.6299,2.4893-6.6299h2.4316l-3.7812,9.1943h-2.375l-3.7793-9.1943h2.5264Z"/>
      <path d="M541.5335,371.7537c0-2.9062,2.166-4.8066,4.9971-4.8066,2.8115,0,4.9775,1.9004,4.9775,4.8066s-2.166,4.7676-4.9775,4.7676c-2.8311,0-4.9971-1.8613-4.9971-4.7676ZM546.5306,368.9041c-1.5967,0-2.4697,1.2158-2.4697,2.793,0,1.5762.873,2.8105,2.4697,2.8105,1.5576,0,2.4697-1.2344,2.4697-2.8105,0-1.5771-.9121-2.793-2.4697-2.793Z"/>
      <path d="M555.6878,363.2049v13.1074h-2.4121v-13.1074h2.4121Z"/>
      <path d="M561.9203,374.4891c1.4629,0,2.0137-1.1592,2.0137-2.6982v-4.6729h2.4316v9.1943h-2.3555l-.0195-1.291c-.5312.9121-1.5195,1.4629-2.8496,1.4629-2.6406,0-3.2871-1.71-3.2871-3.9141v-5.4521h2.4316v4.9209c0,1.3672.2285,2.4502,1.6348,2.4502Z"/>
      <path d="M573.054,368.9412c-1.501,0-2.0146,1.2539-2.0146,2.793v4.5781h-2.4316v-9.1943h2.4316l-.0176,1.3877h.0566c.4941-.9697,1.4238-1.5586,2.7539-1.5586,2.6406,0,3.3057,1.71,3.3057,3.9141v5.4512h-2.4316v-4.9199c0-1.3672-.2471-2.4512-1.6523-2.4512Z"/>
      <path d="M583.2562,374.4891c.4941,0,.875-.1514.875-.1514l.1328,1.8799c-.1143.0381-.8359.3037-1.8623.3037-1.8799,0-2.6592-.8545-2.6592-3.248v-4.2559h-1.3682v-1.8809h1.3682v-2.6211h2.4121v2.6211h2.1279v1.8809h-2.1279v3.7246c0,1.4053.2471,1.7471,1.1016,1.7471Z"/>
      <path d="M590.306,374.66c1.2354,0,2.3369-.5508,2.7734-.9307l.9502,1.3105c-.5137.5322-1.9004,1.4814-4.1416,1.4814-2.7744,0-4.8252-1.6904-4.8252-4.6543,0-2.9443,2.1465-4.9199,4.7676-4.9199,2.8311,0,4.541,1.8613,4.541,4.3125,0,.4746-.0381,1.2344-.0381,1.2344h-6.7627c.2275,1.4629,1.3477,2.166,2.7354,2.166ZM587.5316,370.9178h4.4082c-.0381-1.0068-.418-2.166-2.1279-2.166-1.4443,0-2.2041,1.0068-2.2803,2.166Z"/>
      <path d="M600.7171,374.66c1.2344,0,2.3369-.5508,2.7734-.9307l.9502,1.3105c-.5127.5322-1.8994,1.4814-4.1416,1.4814-2.7734,0-4.8252-1.6904-4.8252-4.6543,0-2.9443,2.1475-4.9199,4.7686-4.9199,2.8301,0,4.541,1.8613,4.541,4.3125,0,.4746-.0391,1.2344-.0391,1.2344h-6.7627c.2275,1.4629,1.3486,2.166,2.7354,2.166ZM597.9437,370.9178h4.4082c-.0391-1.0068-.418-2.166-2.1289-2.166-1.4434,0-2.2031,1.0068-2.2793,2.166Z"/>
      <path d="M608.8119,367.118l-.0381,1.4814h.0566c.3613-.9873,1.2734-1.6523,2.2607-1.6523.627,0,.9697.1709.9697.1709l-.1719,2.1084h-.1133c-.2666-.0762-.6846-.1133-1.0078-.1133-.7217,0-1.2725.3037-1.6143.8926-.2275.4561-.3418,1.083-.3418,1.7852v4.5215h-2.4131v-9.1943h2.4131Z"/>
      <path d="M613.0863,364.3065c0-.7793.6084-1.3486,1.4629-1.3486.8555,0,1.4629.5693,1.4629,1.3486,0,.7979-.6074,1.3496-1.4629,1.3496-.8545,0-1.4629-.5518-1.4629-1.3496ZM615.766,367.118v9.1943h-2.4316v-9.1943h2.4316Z"/>
      <path d="M622.5296,368.9412c-1.501,0-2.0137,1.2539-2.0137,2.793v4.5781h-2.4316v-9.1943h2.4316l-.0195,1.3877h.0566c.4941-.9697,1.4258-1.5586,2.7559-1.5586,2.6406,0,3.3047,1.71,3.3047,3.9141v5.4512h-2.4316v-4.9199c0-1.3672-.2461-2.4512-1.6523-2.4512Z"/>
      <path d="M632.5238,376.0086c-2.3184,0-4.2939-1.4814-4.2939-4.4072,0-2.5449,1.7861-4.6543,4.5215-4.6543,1.2354,0,2.2803.4561,2.9258,1.4434h.0381l-.0195-1.2725h2.4131v7.2949c0,2.0137-.418,3.1533-1.1973,3.9707-.7979.8359-1.9756,1.6143-4.1787,1.6143-2.1855,0-3.8184-1.0449-4.2754-1.3672l1.0078-1.6914c.5879.418,2.0898,1.084,3.2676,1.084,1.3105,0,1.9941-.418,2.3359-.8174s.627-1.1592.627-2.1846v-.4561h-.0371c-.627.9502-1.7295,1.4434-3.1348,1.4434ZM633.2455,368.866c-1.5967,0-2.5459,1.1777-2.5459,2.6787,0,1.4062.9121,2.5645,2.5078,2.5645,1.748,0,2.6211-1.1582,2.6211-2.5645,0-1.3301-.9873-2.6787-2.583-2.6787Z"/>
      <path d="M229.0433,392.0174v-1.8809h1.2539v-.7021c0-1.1211.3047-2.0322.7793-2.5459.4746-.5508,1.2344-.9121,2.2988-.9121,1.1211,0,1.8047.1904,1.8047.1904l-.1523,1.7471s-.5312-.1514-1.0449-.1514c-1.0449,0-1.291.7031-1.291,1.5771v.7969h2.1074v1.8809h-2.0703v7.2949h-2.4316v-7.2949h-1.2539Z"/>
      <path d="M234.9906,394.7537c0-2.9062,2.166-4.8066,4.9961-4.8066,2.8125,0,4.9775,1.9004,4.9775,4.8066s-2.165,4.7676-4.9775,4.7676c-2.8301,0-4.9961-1.8613-4.9961-4.7676ZM239.9867,391.9041c-1.5957,0-2.4688,1.2158-2.4688,2.793,0,1.5762.873,2.8105,2.4688,2.8105,1.5586,0,2.4697-1.2344,2.4697-2.8105,0-1.5771-.9111-2.793-2.4697-2.793Z"/>
      <path d="M249.0501,390.118l-.0381,1.4814h.0566c.3613-.9873,1.2734-1.6523,2.2607-1.6523.627,0,.9697.1709.9697.1709l-.1719,2.1084h-.1133c-.2666-.0762-.6846-.1133-1.0078-.1133-.7217,0-1.2725.3037-1.6143.8926-.2275.4561-.3418,1.083-.3418,1.7852v4.5215h-2.4131v-9.1943h2.4131Z"/>
      <path d="M259.7855,391.4295c.7402-1.1025,1.8418-1.5205,3.0586-1.5205,2.6973,0,4.3496,2.0898,4.3496,4.8252,0,2.6035-1.7285,4.75-4.5215,4.75-1.4053,0-2.1836-.4941-2.9443-1.4062l-.0381.0195c.0195.4365.0381.8545.0381,1.5v3.1914h-2.4131v-12.6709h2.4707l-.0391,1.292.0391.0195ZM259.6712,394.7342c0,1.5391,1.0068,2.8877,2.5645,2.8877,1.5771,0,2.4893-1.3486,2.4893-2.8877,0-1.5957-.9883-2.8496-2.5654-2.8496-1.4619,0-2.4883,1.1211-2.4883,2.8496Z"/>
      <path d="M271.2992,390.118l-.0381,1.4814h.0566c.3613-.9873,1.2725-1.6523,2.2607-1.6523.627,0,.9688.1709.9688.1709l-.1709,2.1084h-.1143c-.2656-.0762-.6836-.1133-1.0059-.1133-.7227,0-1.2734.3037-1.6152.8926-.2285.4561-.3418,1.083-.3418,1.7852v4.5215h-2.4131v-9.1943h2.4131Z"/>
      <path d="M280.2855,397.66c1.2344,0,2.3369-.5508,2.7734-.9307l.9502,1.3105c-.5127.5322-1.8994,1.4814-4.1416,1.4814-2.7734,0-4.8252-1.6904-4.8252-4.6543,0-2.9443,2.1475-4.9199,4.7686-4.9199,2.8301,0,4.541,1.8613,4.541,4.3125,0,.4746-.0391,1.2344-.0391,1.2344h-6.7627c.2275,1.4629,1.3486,2.166,2.7354,2.166ZM277.5121,393.9178h4.4082c-.0391-1.0068-.418-2.166-2.1289-2.166-1.4434,0-2.2031,1.0068-2.2793,2.166Z"/>
      <path d="M288.4945,391.4295c.7402-1.1025,1.8418-1.5205,3.0586-1.5205,2.6973,0,4.3496,2.0898,4.3496,4.8252,0,2.6035-1.7285,4.75-4.5215,4.75-1.4053,0-2.1836-.4941-2.9443-1.4062l-.0381.0195c.0195.4365.0381.8545.0381,1.5v3.1914h-2.4131v-12.6709h2.4707l-.0391,1.292.0391.0195ZM288.3802,394.7342c0,1.5391,1.0068,2.8877,2.5645,2.8877,1.5771,0,2.4893-1.3486,2.4893-2.8877,0-1.5957-.9883-2.8496-2.5654-2.8496-1.4619,0-2.4883,1.1211-2.4883,2.8496Z"/>
      <path d="M300.1214,399.5213c-1.7852,0-3.2285-.9688-3.2285-2.8867,0-1.9189,1.8809-2.6602,3.7793-2.793l2.2041-.1523v-.2461c0-1.1777-.7783-1.7295-2.0518-1.7295-1.2148,0-2.2227.4561-2.6211.7607l-.7412-1.5586c.7031-.418,1.9951-.9688,3.5908-.9688,1.6328,0,2.5645.418,3.248,1.0645.665.6455,1.0068,1.4814,1.0068,3.0391v5.2617h-2.3369l-.0371-1.0635c-.3809.665-1.4443,1.2725-2.8125,1.2725ZM299.3246,396.5584c0,.7793.5879,1.3105,1.5957,1.3105.9492,0,1.6523-.5508,1.9746-1.0068v-1.6904l-1.6523.0947c-1.291.0762-1.918.5127-1.918,1.292Z"/>
      <path d="M309.8119,390.118l-.0381,1.4814h.0566c.3613-.9873,1.2734-1.6523,2.2607-1.6523.627,0,.9697.1709.9697.1709l-.1719,2.1084h-.1133c-.2666-.0762-.6846-.1133-1.0078-.1133-.7217,0-1.2725.3037-1.6143.8926-.2275.4561-.3418,1.083-.3418,1.7852v4.5215h-2.4131v-9.1943h2.4131Z"/>
      <path d="M318.7992,397.66c1.2344,0,2.3359-.5508,2.7734-.9307l.9492,1.3105c-.5127.5322-1.8994,1.4814-4.1406,1.4814-2.7744,0-4.8262-1.6904-4.8262-4.6543,0-2.9443,2.1465-4.9199,4.7686-4.9199,2.8311,0,4.54,1.8613,4.54,4.3125,0,.4746-.0371,1.2344-.0371,1.2344h-6.7637c.2285,1.4629,1.3486,2.166,2.7363,2.166ZM316.0248,393.9178h4.4072c-.0371-1.0068-.418-2.166-2.127-2.166-1.4443,0-2.2041,1.0068-2.2803,2.166Z"/>
      <path d="M331.5081,397.869c-.7402,1.1777-1.8799,1.6523-3.1523,1.6523-2.6982,0-4.3516-2.0898-4.3516-4.8242,0-2.6035,1.7295-4.75,4.5215-4.75,1.2354,0,2.2803.4561,2.9258,1.4434h.0381c-.0186-.418-.0186-.9111-.0186-1.5566v-3.6289h2.4121v13.1074h-2.2988l-.0186-1.4434h-.0576ZM331.5277,394.6971c0-1.5391-1.0068-2.8887-2.5645-2.8887-1.5762,0-2.4883,1.3496-2.4883,2.8887,0,1.5957.9873,2.8496,2.5645,2.8496,1.4629,0,2.4883-1.1211,2.4883-2.8496Z"/>
      <path d="M340.6673,391.9412c-1.501,0-2.0146,1.2539-2.0146,2.793v4.5781h-2.4316v-9.1943h2.4316l-.0176,1.3877h.0566c.4941-.9697,1.4238-1.5586,2.7539-1.5586,2.6406,0,3.3057,1.71,3.3057,3.9141v5.4512h-2.4316v-4.9199c0-1.3672-.2471-2.4512-1.6523-2.4512Z"/>
      <path d="M351.5726,397.66c1.2344,0,2.3369-.5508,2.7734-.9307l.9502,1.3105c-.5127.5322-1.8994,1.4814-4.1416,1.4814-2.7734,0-4.8252-1.6904-4.8252-4.6543,0-2.9443,2.1475-4.9199,4.7686-4.9199,2.8301,0,4.541,1.8613,4.541,4.3125,0,.4746-.0391,1.2344-.0391,1.2344h-6.7627c.2275,1.4629,1.3486,2.166,2.7354,2.166ZM348.7992,393.9178h4.4082c-.0391-1.0068-.418-2.166-2.1289-2.166-1.4434,0-2.2031,1.0068-2.2793,2.166Z"/>
      <path d="M360.4085,391.7713c-.7988,0-1.1973.3037-1.1973.7402,0,.3994.3037.7227,1.3301,1.0449l.6455.209c2.0322.665,2.7549,1.3867,2.7549,2.7168,0,1.748-1.3867,3.0391-3.6484,3.0391-1.4053,0-2.9824-.5693-3.7227-1.4238l.9883-1.6533c1.082.8359,2.0137,1.2539,2.792,1.2539.9121,0,1.3301-.3418,1.3301-.874,0-.4746-.3613-.7402-1.5391-1.1396l-1.0635-.3604c-1.3682-.457-2.0703-1.2734-2.0703-2.6221,0-1.6719,1.5195-2.7549,3.2852-2.7549,1.6348,0,2.5469.4375,3.3066.9883l-1.0449,1.6143c-.5322-.3994-1.3105-.7783-2.1465-.7783Z"/>
      <path d="M368.4261,391.7713c-.7979,0-1.1973.3037-1.1973.7402,0,.3994.3047.7227,1.3301,1.0449l.6465.209c2.0322.665,2.7539,1.3867,2.7539,2.7168,0,1.748-1.3867,3.0391-3.6475,3.0391-1.4053,0-2.9824-.5693-3.7236-1.4238l.9883-1.6533c1.083.8359,2.0137,1.2539,2.793,1.2539.9121,0,1.3301-.3418,1.3301-.874,0-.4746-.3613-.7402-1.5391-1.1396l-1.0645-.3604c-1.3672-.457-2.0703-1.2734-2.0703-2.6221,0-1.6719,1.5195-2.7549,3.2861-2.7549,1.6338,0,2.5459.4375,3.3057.9883l-1.0449,1.6143c-.5312-.3994-1.3105-.7783-2.1465-.7783Z"/>
      <path d="M379.7689,391.4295c.7412-1.1025,1.8428-1.5205,3.0586-1.5205,2.6982,0,4.3506,2.0898,4.3506,4.8252,0,2.6035-1.7285,4.75-4.5215,4.75-1.4062,0-2.1846-.4941-2.9453-1.4062l-.0371.0195c.0186.4365.0371.8545.0371,1.5v3.1914h-2.4121v-12.6709h2.4697l-.0381,1.292.0381.0195ZM379.6546,394.7342c0,1.5391,1.0078,2.8877,2.5645,2.8877,1.5771,0,2.4893-1.3486,2.4893-2.8877,0-1.5957-.9873-2.8496-2.5654-2.8496-1.4629,0-2.4883,1.1211-2.4883,2.8496Z"/>
      <path d="M391.2835,390.118l-.0391,1.4814h.0566c.3613-.9873,1.2734-1.6523,2.2617-1.6523.627,0,.9688.1709.9688.1709l-.1719,2.1084h-.1133c-.2656-.0762-.6836-.1133-1.0068-.1133-.7217,0-1.2725.3037-1.6143.8926-.2285.4561-.3418,1.083-.3418,1.7852v4.5215h-2.4141v-9.1943h2.4141Z"/>
      <path d="M395.0648,394.7537c0-2.9062,2.166-4.8066,4.9961-4.8066,2.8115,0,4.9766,1.9004,4.9766,4.8066s-2.165,4.7676-4.9766,4.7676c-2.8301,0-4.9961-1.8613-4.9961-4.7676ZM400.0609,391.9041c-1.5957,0-2.4697,1.2158-2.4697,2.793,0,1.5762.874,2.8105,2.4697,2.8105,1.5576,0,2.4688-1.2344,2.4688-2.8105,0-1.5771-.9111-2.793-2.4688-2.793Z"/>
      <path d="M410.4339,399.0086c-2.3164,0-4.293-1.4814-4.293-4.4072,0-2.5449,1.7852-4.6543,4.5215-4.6543,1.2344,0,2.2793.4561,2.9258,1.4434h.0371l-.0186-1.2725h2.4131v7.2949c0,2.0137-.418,3.1533-1.1973,3.9707-.7979.8359-1.9756,1.6143-4.1797,1.6143-2.1836,0-3.8184-1.0449-4.2734-1.3672l1.0059-1.6914c.5898.418,2.0898,1.084,3.2676,1.084,1.3115,0,1.9951-.418,2.3379-.8174.3418-.3994.626-1.1592.626-2.1846v-.4561h-.0381c-.627.9502-1.7285,1.4434-3.1348,1.4434ZM411.1566,391.866c-1.5957,0-2.5459,1.1777-2.5459,2.6787,0,1.4062.9121,2.5645,2.5078,2.5645,1.7471,0,2.6221-1.1582,2.6221-2.5645,0-1.3301-.9883-2.6787-2.584-2.6787Z"/>
      <path d="M420.7132,390.118l-.0371,1.4814h.0566c.3613-.9873,1.2725-1.6523,2.2598-1.6523.627,0,.9697.1709.9697.1709l-.1709,2.1084h-.1143c-.2666-.0762-.6846-.1133-1.0068-.1133-.7227,0-1.2734.3037-1.6152.8926-.2275.4561-.3418,1.083-.3418,1.7852v4.5215h-2.4121v-9.1943h2.4121Z"/>
      <path d="M427.307,399.5213c-1.7861,0-3.2305-.9688-3.2305-2.8867,0-1.9189,1.8809-2.6602,3.7812-2.793l2.2031-.1523v-.2461c0-1.1777-.7793-1.7295-2.0508-1.7295-1.2168,0-2.2227.4561-2.623.7607l-.7402-1.5586c.7031-.418,1.9941-.9688,3.5898-.9688,1.6348,0,2.5654.418,3.249,1.0645.665.6455,1.0068,1.4814,1.0068,3.0391v5.2617h-2.3359l-.0391-1.0635c-.3789.665-1.4434,1.2725-2.8105,1.2725ZM426.5081,396.5584c0,.7793.5898,1.3105,1.5957,1.3105.9502,0,1.6533-.5508,1.9766-1.0068v-1.6904l-1.6533.0947c-1.292.0762-1.9189.5127-1.9189,1.292Z"/>
      <path d="M444.5765,391.9412c-1.2168,0-1.8438,1.0449-1.8438,2.6221v4.749h-2.4316v-5.167c0-1.2529-.3223-2.2041-1.4805-2.2041-1.2539,0-1.8057,1.1787-1.8057,2.6221v4.749h-2.4316v-9.1943h2.4316l-.0186,1.3877h.0566c.418-.8555,1.5391-1.5586,2.7363-1.5586,1.3291,0,2.127.5322,2.5645,1.748.6455-1.1211,1.6904-1.748,3.0195-1.748,2.4131,0,3.0781,1.71,3.0781,3.8184v5.5469h-2.4316v-5.1484c0-1.1201-.2471-2.2227-1.4434-2.2227Z"/>
      <path d="M453.7914,391.7713c-.7969,0-1.1963.3037-1.1963.7402,0,.3994.3037.7227,1.3291,1.0449l.6465.209c2.0332.665,2.7539,1.3867,2.7539,2.7168,0,1.748-1.3867,3.0391-3.6465,3.0391-1.4062,0-2.9824-.5693-3.7236-1.4238l.9873-1.6533c1.084.8359,2.0137,1.2539,2.793,1.2539.9121,0,1.3301-.3418,1.3301-.874,0-.4746-.3613-.7402-1.5391-1.1396l-1.0645-.3604c-1.3672-.457-2.0703-1.2734-2.0703-2.6221,0-1.6719,1.5195-2.7549,3.2871-2.7549,1.6328,0,2.5449.4375,3.3047.9883l-1.0449,1.6143c-.5312-.3994-1.3105-.7783-2.1465-.7783Z"/>
      <path d="M462.4749,396.9198l-1.9004,5.0527h-1.9561l1.4619-5.0527h2.3945Z"/>
      <path d="M467.9847,394.7537c0-2.9062,2.166-4.8066,4.9961-4.8066,2.8125,0,4.9775,1.9004,4.9775,4.8066s-2.165,4.7676-4.9775,4.7676c-2.8301,0-4.9961-1.8613-4.9961-4.7676ZM472.9808,391.9041c-1.5957,0-2.4688,1.2158-2.4688,2.793,0,1.5762.873,2.8105,2.4688,2.8105,1.5586,0,2.4697-1.2344,2.4697-2.8105,0-1.5771-.9111-2.793-2.4697-2.793Z"/>
      <path d="M482.0443,390.118l-.0381,1.4814h.0566c.3613-.9873,1.2734-1.6523,2.2607-1.6523.627,0,.9697.1709.9697.1709l-.1719,2.1084h-.1133c-.2666-.0762-.6846-.1133-1.0078-.1133-.7217,0-1.2725.3037-1.6143.8926-.2275.4561-.3418,1.083-.3418,1.7852v4.5215h-2.4131v-9.1943h2.4131Z"/>
      <path d="M498.8578,393.8612v5.4512h-2.4316v-4.9199c0-1.3672-.2471-2.4512-1.6523-2.4512-1.501,0-2.0137,1.2539-2.0137,2.793v4.5781h-2.4131v-13.1074h2.4131v5.3008h.0371c.4941-.9697,1.4258-1.5586,2.7549-1.5586,2.6406,0,3.3057,1.71,3.3057,3.9141Z"/>
      <path d="M505.68,397.66c1.2344,0,2.3359-.5508,2.7734-.9307l.9492,1.3105c-.5127.5322-1.8994,1.4814-4.1406,1.4814-2.7744,0-4.8262-1.6904-4.8262-4.6543,0-2.9443,2.1465-4.9199,4.7686-4.9199,2.8311,0,4.54,1.8613,4.54,4.3125,0,.4746-.0371,1.2344-.0371,1.2344h-6.7637c.2285,1.4629,1.3486,2.166,2.7363,2.166ZM502.9056,393.9178h4.4072c-.0371-1.0068-.418-2.166-2.127-2.166-1.4443,0-2.2041,1.0068-2.2803,2.166Z"/>
      <path d="M513.8685,386.2049v13.1074h-2.4131v-13.1074h2.4131Z"/>
      <path d="M518.7328,391.4295c.7402-1.1025,1.8418-1.5205,3.0586-1.5205,2.6973,0,4.3496,2.0898,4.3496,4.8252,0,2.6035-1.7285,4.75-4.5215,4.75-1.4053,0-2.1836-.4941-2.9443-1.4062l-.0381.0195c.0195.4365.0381.8545.0381,1.5v3.1914h-2.4131v-12.6709h2.4707l-.0391,1.292.0391.0195ZM518.6185,394.7342c0,1.5391,1.0068,2.8877,2.5645,2.8877,1.5771,0,2.4893-1.3486,2.4893-2.8877,0-1.5957-.9883-2.8496-2.5654-2.8496-1.4619,0-2.4883,1.1211-2.4883,2.8496Z"/>
      <path d="M536.0414,391.9412c-1.501,0-2.0137,1.2539-2.0137,2.793v4.5781h-2.4316v-9.1943h2.4316l-.0195,1.3877h.0566c.4941-.9697,1.4258-1.5586,2.7559-1.5586,2.6406,0,3.3047,1.71,3.3047,3.9141v5.4512h-2.4316v-4.9199c0-1.3672-.2461-2.4512-1.6523-2.4512Z"/>
      <path d="M546.9476,397.66c1.2344,0,2.3359-.5508,2.7734-.9307l.9492,1.3105c-.5127.5322-1.8994,1.4814-4.1406,1.4814-2.7744,0-4.8262-1.6904-4.8262-4.6543,0-2.9443,2.1465-4.9199,4.7686-4.9199,2.8311,0,4.54,1.8613,4.54,4.3125,0,.4746-.0371,1.2344-.0371,1.2344h-6.7637c.2285,1.4629,1.3486,2.166,2.7363,2.166ZM544.1732,393.9178h4.4072c-.0371-1.0068-.418-2.166-2.127-2.166-1.4443,0-2.2041,1.0068-2.2803,2.166Z"/>
      <path d="M552.4574,387.3065c0-.7793.6074-1.3486,1.4629-1.3486s1.4629.5693,1.4629,1.3486c0,.7979-.6074,1.3496-1.4629,1.3496s-1.4629-.5518-1.4629-1.3496ZM555.1361,390.118v9.1943h-2.4316v-9.1943h2.4316Z"/>
      <path d="M561.1781,399.0086c-2.3174,0-4.293-1.4814-4.293-4.4072,0-2.5449,1.7852-4.6543,4.5215-4.6543,1.2344,0,2.2793.4561,2.9258,1.4434h.0371l-.0195-1.2725h2.4141v7.2949c0,2.0137-.418,3.1533-1.1973,3.9707-.7988.8359-1.9766,1.6143-4.1797,1.6143-2.1846,0-3.8184-1.0449-4.2744-1.3672l1.0068-1.6914c.5889.418,2.0898,1.084,3.2676,1.084,1.3105,0,1.9941-.418,2.3369-.8174.3418-.3994.626-1.1592.626-2.1846v-.4561h-.0371c-.627.9502-1.7285,1.4434-3.1348,1.4434ZM561.9007,391.866c-1.5967,0-2.5469,1.1777-2.5469,2.6787,0,1.4062.9121,2.5645,2.5078,2.5645,1.748,0,2.6221-1.1582,2.6221-2.5645,0-1.3301-.9873-2.6787-2.583-2.6787Z"/>
      <path d="M577.6507,393.8612v5.4512h-2.4316v-4.9199c0-1.3672-.248-2.4512-1.6533-2.4512-1.501,0-2.0137,1.2539-2.0137,2.793v4.5781h-2.4131v-13.1074h2.4131v5.3008h.0381c.4941-.9697,1.4248-1.5586,2.7539-1.5586,2.6406,0,3.3066,1.71,3.3066,3.9141Z"/>
      <path d="M582.3636,386.2049v4.1035c0,.6836-.0391,1.082-.0391,1.082h.0576c.7979-1.0449,1.8428-1.4814,3.0771-1.4814,2.6797,0,4.3506,2.1084,4.3506,4.8066,0,2.6221-1.7285,4.7686-4.5205,4.7686-1.293,0-2.2988-.457-3.0215-1.501h-.0371l-.0576,1.3291h-2.2412v-13.1074h2.4316ZM582.2874,394.7342c0,1.5391,1.0059,2.8877,2.5645,2.8877,1.5762,0,2.4883-1.3486,2.4883-2.8877,0-1.5957-.9883-2.8496-2.5645-2.8496-1.4629,0-2.4883,1.1211-2.4883,2.8496Z"/>
      <path d="M590.9134,394.7537c0-2.9062,2.166-4.8066,4.9971-4.8066,2.8105,0,4.9766,1.9004,4.9766,4.8066s-2.166,4.7676-4.9766,4.7676c-2.8311,0-4.9971-1.8613-4.9971-4.7676ZM595.9105,391.9041c-1.5957,0-2.4707,1.2158-2.4707,2.793,0,1.5762.875,2.8105,2.4707,2.8105,1.5566,0,2.4688-1.2344,2.4688-2.8105,0-1.5771-.9121-2.793-2.4688-2.793Z"/>
      <path d="M604.973,390.118l-.0381,1.4814h.0566c.3613-.9873,1.2725-1.6523,2.2607-1.6523.627,0,.9688.1709.9688.1709l-.1709,2.1084h-.1143c-.2656-.0762-.6836-.1133-1.0059-.1133-.7227,0-1.2734.3037-1.6152.8926-.2285.4561-.3418,1.083-.3418,1.7852v4.5215h-2.4131v-9.1943h2.4131Z"/>
      <path d="M612.2874,391.7713c-.7969,0-1.1963.3037-1.1963.7402,0,.3994.3037.7227,1.3291,1.0449l.6465.209c2.0332.665,2.7539,1.3867,2.7539,2.7168,0,1.748-1.3867,3.0391-3.6465,3.0391-1.4062,0-2.9824-.5693-3.7236-1.4238l.9873-1.6533c1.084.8359,2.0137,1.2539,2.793,1.2539.9121,0,1.3301-.3418,1.3301-.874,0-.4746-.3613-.7402-1.5391-1.1396l-1.0645-.3604c-1.3672-.457-2.0703-1.2734-2.0703-2.6221,0-1.6719,1.5195-2.7549,3.2871-2.7549,1.6328,0,2.5449.4375,3.3047.9883l-1.0449,1.6143c-.5312-.3994-1.3105-.7783-2.1465-.7783Z"/>
      <path d="M232.3304,413.118l-.0381,1.4814h.0566c.3613-.9873,1.2725-1.6523,2.2607-1.6523.627,0,.9688.1709.9688.1709l-.1709,2.1084h-.1143c-.2656-.0762-.6836-.1133-1.0059-.1133-.7227,0-1.2734.3037-1.6152.8926-.2285.4561-.3418,1.083-.3418,1.7852v4.5215h-2.4131v-9.1943h2.4131Z"/>
      <path d="M241.3167,420.66c1.2344,0,2.3369-.5508,2.7734-.9307l.9502,1.3105c-.5127.5322-1.8994,1.4814-4.1416,1.4814-2.7734,0-4.8252-1.6904-4.8252-4.6543,0-2.9443,2.1475-4.9199,4.7686-4.9199,2.8301,0,4.541,1.8613,4.541,4.3125,0,.4746-.0391,1.2344-.0391,1.2344h-6.7627c.2275,1.4629,1.3486,2.166,2.7354,2.166ZM238.5433,416.9178h4.4082c-.0391-1.0068-.418-2.166-2.1289-2.166-1.4434,0-2.2031,1.0068-2.2793,2.166Z"/>
      <path d="M249.5257,409.2049v4.1035c0,.6836-.0391,1.082-.0391,1.082h.0576c.7979-1.0449,1.8428-1.4814,3.0771-1.4814,2.6797,0,4.3506,2.1084,4.3506,4.8066,0,2.6221-1.7285,4.7686-4.5205,4.7686-1.293,0-2.2988-.457-3.0215-1.501h-.0371l-.0576,1.3291h-2.2412v-13.1074h2.4316ZM249.4496,417.7342c0,1.5391,1.0059,2.8877,2.5645,2.8877,1.5762,0,2.4883-1.3486,2.4883-2.8877,0-1.5957-.9883-2.8496-2.5645-2.8496-1.4629,0-2.4883,1.1211-2.4883,2.8496Z"/>
      <path d="M262.5394,420.4891c1.4629,0,2.0137-1.1592,2.0137-2.6982v-4.6729h2.4316v9.1943h-2.3555l-.0186-1.291c-.5322.9121-1.5195,1.4629-2.8496,1.4629-2.6406,0-3.2861-1.71-3.2861-3.9141v-5.4521h2.4316v4.9209c0,1.3672.2275,2.4502,1.6328,2.4502Z"/>
      <path d="M269.057,410.3065c0-.7793.6084-1.3486,1.4629-1.3486.8555,0,1.4629.5693,1.4629,1.3486,0,.7979-.6074,1.3496-1.4629,1.3496-.8545,0-1.4629-.5518-1.4629-1.3496ZM271.7367,413.118v9.1943h-2.4316v-9.1943h2.4316Z"/>
      <path d="M276.5628,409.2049v13.1074h-2.4131v-13.1074h2.4131Z"/>
      <path d="M285.8333,420.869c-.7412,1.1777-1.8799,1.6523-3.1533,1.6523-2.6973,0-4.3506-2.0898-4.3506-4.8242,0-2.6035,1.7295-4.75,4.5215-4.75,1.2354,0,2.2803.4561,2.9258,1.4434h.0381c-.0195-.418-.0195-.9111-.0195-1.5566v-3.6289h2.4131v13.1074h-2.2988l-.0186-1.4434h-.0576ZM285.8519,417.6971c0-1.5391-1.0059-2.8887-2.5645-2.8887-1.5762,0-2.4883,1.3496-2.4883,2.8887,0,1.5957.9883,2.8496,2.5645,2.8496,1.4629,0,2.4883-1.1211,2.4883-2.8496Z"/>
      <path d="M296.8343,422.5213c-1.7852,0-3.2285-.9688-3.2285-2.8867,0-1.9189,1.8809-2.6602,3.7793-2.793l2.2041-.1523v-.2461c0-1.1777-.7783-1.7295-2.0518-1.7295-1.2148,0-2.2227.4561-2.6211.7607l-.7412-1.5586c.7031-.418,1.9951-.9688,3.5908-.9688,1.6328,0,2.5645.418,3.248,1.0645.665.6455,1.0068,1.4814,1.0068,3.0391v5.2617h-2.3369l-.0371-1.0635c-.3809.665-1.4443,1.2725-2.8125,1.2725ZM296.0374,419.5584c0,.7793.5879,1.3105,1.5957,1.3105.9492,0,1.6523-.5508,1.9746-1.0068v-1.6904l-1.6523.0947c-1.291.0762-1.918.5127-1.918,1.292Z"/>
      <path d="M313.7249,420.4891c.4941,0,.873-.1514.873-.1514l.1328,1.8799c-.1133.0381-.8359.3037-1.8613.3037-1.8809,0-2.6602-.8545-2.6602-3.248v-4.2559h-3.2852v7.2949h-2.4316v-7.2949h-1.2539v-1.8809h1.2539v-.7021c0-1.1211.3027-2.0322.7783-2.5459.4746-.5508,1.2354-.9121,2.2979-.9121,1.1211,0,1.8047.1904,1.8047.1904l-.1514,1.7471s-.5322-.1514-1.0449-.1514c-1.0439,0-1.292.7031-1.292,1.5771v.7969h3.3242v-2.6211h2.4131v2.6211h2.1279v1.8809h-2.1279v3.7246c0,1.4053.2471,1.7471,1.1025,1.7471Z"/>
      <path d="M320.7738,420.66c1.2344,0,2.3369-.5508,2.7734-.9307l.9502,1.3105c-.5127.5322-1.8994,1.4814-4.1416,1.4814-2.7734,0-4.8252-1.6904-4.8252-4.6543,0-2.9443,2.1475-4.9199,4.7686-4.9199,2.8301,0,4.541,1.8613,4.541,4.3125,0,.4746-.0391,1.2344-.0391,1.2344h-6.7627c.2275,1.4629,1.3486,2.166,2.7354,2.166ZM318.0003,416.9178h4.4082c-.0391-1.0068-.418-2.166-2.1289-2.166-1.4434,0-2.2031,1.0068-2.2793,2.166Z"/>
      <path d="M328.8685,413.118l-.0381,1.4814h.0566c.3613-.9873,1.2734-1.6523,2.2607-1.6523.627,0,.9697.1709.9697.1709l-.1719,2.1084h-.1133c-.2666-.0762-.6846-.1133-1.0078-.1133-.7217,0-1.2725.3037-1.6143.8926-.2275.4561-.3418,1.083-.3418,1.7852v4.5215h-2.4131v-9.1943h2.4131Z"/>
      <path d="M340.2308,414.7713c-.7988,0-1.1973.3037-1.1973.7402,0,.3994.3037.7227,1.3301,1.0449l.6455.209c2.0322.665,2.7549,1.3867,2.7549,2.7168,0,1.748-1.3867,3.0391-3.6484,3.0391-1.4053,0-2.9824-.5693-3.7227-1.4238l.9883-1.6533c1.082.8359,2.0137,1.2539,2.792,1.2539.9121,0,1.3301-.3418,1.3301-.874,0-.4746-.3613-.7402-1.5391-1.1396l-1.0635-.3604c-1.3682-.457-2.0703-1.2734-2.0703-2.6221,0-1.6719,1.5195-2.7549,3.2852-2.7549,1.6348,0,2.5469.4375,3.3066.9883l-1.0449,1.6143c-.5322-.3994-1.3105-.7783-2.1465-.7783Z"/>
      <path d="M349.2171,420.4891c.4941,0,.874-.1514.874-.1514l.1328,1.8799c-.1143.0381-.8359.3037-1.8623.3037-1.8799,0-2.6592-.8545-2.6592-3.248v-4.2559h-1.3682v-1.8809h1.3682v-2.6211h2.4131v2.6211h2.127v1.8809h-2.127v3.7246c0,1.4053.2461,1.7471,1.1016,1.7471Z"/>
      <path d="M351.0609,417.7537c0-2.9062,2.166-4.8066,4.9961-4.8066,2.8125,0,4.9775,1.9004,4.9775,4.8066s-2.165,4.7676-4.9775,4.7676c-2.8301,0-4.9961-1.8613-4.9961-4.7676ZM356.057,414.9041c-1.5957,0-2.4688,1.2158-2.4688,2.793,0,1.5762.873,2.8105,2.4688,2.8105,1.5586,0,2.4697-1.2344,2.4697-2.8105,0-1.5771-.9111-2.793-2.4697-2.793Z"/>
      <path d="M365.1205,413.118l-.0381,1.4814h.0566c.3613-.9873,1.2734-1.6523,2.2607-1.6523.627,0,.9697.1709.9697.1709l-.1719,2.1084h-.1133c-.2666-.0762-.6846-.1133-1.0078-.1133-.7217,0-1.2725.3037-1.6143.8926-.2275.4561-.3418,1.083-.3418,1.7852v4.5215h-2.4131v-9.1943h2.4131Z"/>
      <path d="M379.5589,414.9412c-1.2158,0-1.8428,1.0449-1.8428,2.6221v4.749h-2.4316v-5.167c0-1.2529-.3232-2.2041-1.4814-2.2041-1.2539,0-1.8047,1.1787-1.8047,2.6221v4.749h-2.4316v-9.1943h2.4316l-.0195,1.3877h.0566c.418-.8555,1.5391-1.5586,2.7363-1.5586,1.3301,0,2.127.5322,2.5645,1.748.6465-1.1211,1.6914-1.748,3.0205-1.748,2.4131,0,3.0771,1.71,3.0771,3.8184v5.5469h-2.4316v-5.1484c0-1.1201-.2461-2.2227-1.4434-2.2227Z"/>
      <path d="M388.7748,414.7713c-.7979,0-1.1963.3037-1.1963.7402,0,.3994.3027.7227,1.3291,1.0449l.6455.209c2.0332.665,2.7549,1.3867,2.7549,2.7168,0,1.748-1.3867,3.0391-3.6475,3.0391-1.4062,0-2.9824-.5693-3.7227-1.4238l.9873-1.6533c1.083.8359,2.0137,1.2539,2.792,1.2539.9121,0,1.3301-.3418,1.3301-.874,0-.4746-.3613-.7402-1.5391-1.1396l-1.0635-.3604c-1.3682-.457-2.0703-1.2734-2.0703-2.6221,0-1.6719,1.5195-2.7549,3.2861-2.7549,1.6338,0,2.5459.4375,3.3057.9883l-1.0449,1.6143c-.5322-.3994-1.3105-.7783-2.1465-.7783Z"/>
    </g>
    <rect class="cls-1" x="163.3913" y="362.8017" width="38.7549" height="38.7549" rx="1.7679" ry="1.7679"/>
  </g>
</svg>