<?xml version="1.0" encoding="UTF-8"?>
<svg id="Layer_1" data-name="Layer 1" xmlns="http://www.w3.org/2000/svg" viewBox="0 0 800 496">
  <defs>
    <style>
      .cls-1 {
        stroke: #ee2b2f;
        stroke-linecap: round;
        stroke-width: 7px;
      }

      .cls-1, .cls-2 {
        fill: none;
        stroke-miterlimit: 10;
      }

      .cls-2 {
        stroke: #231f20;
        stroke-width: 3px;
      }
    </style>
  </defs>
  <g>
    <g>
      <path d="M232.4625,88.1149l-1.1387,3.0215h-2.5654l5.1484-13.127h2.3936l5.1484,13.127h-2.6973l-1.1406-3.0215h-5.1484ZM237.0035,86.1403l-1.957-5.3008-1.9756,5.3008h3.9326Z"/>
      <path d="M246.9977,83.7653c-1.501,0-2.0137,1.2539-2.0137,2.793v4.5781h-2.4316v-9.1953h2.4316l-.0195,1.3867h.0566c.4941-.9688,1.4258-1.5576,2.7559-1.5576,2.6406,0,3.3047,1.71,3.3047,3.9131v5.4531h-2.4316v-4.9209c0-1.3682-.2461-2.4502-1.6523-2.4502Z"/>
      <path d="M257.7135,83.7653c-1.501,0-2.0146,1.2539-2.0146,2.793v4.5781h-2.4316v-9.1953h2.4316l-.0176,1.3867h.0566c.4941-.9688,1.4238-1.5576,2.7539-1.5576,2.6406,0,3.3057,1.71,3.3057,3.9131v5.4531h-2.4316v-4.9209c0-1.3682-.2471-2.4502-1.6523-2.4502Z"/>
      <path d="M267.8785,89.3122c1.4629,0,2.0137-1.1582,2.0137-2.6973v-4.6738h2.4316v9.1953h-2.3555l-.0195-1.293c-.5312.9121-1.5195,1.4629-2.8496,1.4629-2.6406,0-3.2871-1.709-3.2871-3.9131v-5.4521h2.4316v4.9199c0,1.3682.2285,2.4512,1.6348,2.4512Z"/>
      <path d="M277.0934,91.3454c-1.7852,0-3.2295-.9688-3.2295-2.8887,0-1.918,1.8809-2.6592,3.7803-2.792l2.2031-.1514v-.248c0-1.1777-.7783-1.7285-2.0508-1.7285-1.2158,0-2.2227.4561-2.6221.7598l-.7412-1.5576c.7031-.417,1.9951-.9688,3.5908-.9688,1.6338,0,2.5654.418,3.249,1.0635.6641.6465,1.0059,1.4824,1.0059,3.04v5.2627h-2.3359l-.0381-1.0645c-.3799.665-1.4443,1.2734-2.8115,1.2734ZM276.2955,88.3815c0,.7783.5889,1.3105,1.5957,1.3105.9502,0,1.6533-.5508,1.9756-1.0068v-1.6914l-1.6523.0957c-1.292.0762-1.9189.5127-1.9189,1.292Z"/>
      <path d="M286.8785,78.028v13.1084h-2.4131v-13.1084h2.4131Z"/>
      <path d="M296.1305,83.5934c-.7979,0-1.1973.3047-1.1973.7422,0,.3984.3047.7207,1.3301,1.0439l.6465.209c2.0322.665,2.7539,1.3877,2.7539,2.7168,0,1.7471-1.3867,3.04-3.6475,3.04-1.4053,0-2.9824-.5703-3.7236-1.4258l.9883-1.6523c1.083.8359,2.0137,1.2539,2.793,1.2539.9121,0,1.3301-.3418,1.3301-.874,0-.4746-.3613-.7412-1.5391-1.1396l-1.0645-.3613c-1.3672-.4551-2.0703-1.2725-2.0703-2.6211,0-1.6719,1.5195-2.7549,3.2861-2.7549,1.6338,0,2.5459.4365,3.3057.9873l-1.0449,1.6152c-.5312-.3984-1.3105-.7793-2.1465-.7793Z"/>
      <path d="M305.1168,89.3122c.4941,0,.875-.1523.875-.1523l.1328,1.8809c-.1143.0381-.8359.3047-1.8623.3047-1.8799,0-2.6592-.8555-2.6592-3.249v-4.2549h-1.3682v-1.8809h1.3682v-2.6221h2.4121v2.6221h2.1279v1.8809h-2.1279v3.7227c0,1.4062.2471,1.748,1.1016,1.748Z"/>
      <path d="M306.9606,86.5758c0-2.9062,2.166-4.8057,4.9971-4.8057,2.8115,0,4.9775,1.8994,4.9775,4.8057s-2.166,4.7695-4.9775,4.7695c-2.8311,0-4.9971-1.8623-4.9971-4.7695ZM311.9576,83.7272c-1.5957,0-2.4697,1.2158-2.4697,2.792,0,1.5771.874,2.8125,2.4697,2.8125,1.5576,0,2.4697-1.2354,2.4697-2.8125,0-1.5762-.9121-2.792-2.4697-2.792Z"/>
      <path d="M321.0211,81.9411l-.0391,1.4824h.0566c.3613-.9883,1.2734-1.6533,2.2617-1.6533.627,0,.9688.1709.9688.1709l-.1719,2.1094h-.1133c-.2656-.0762-.6836-.1143-1.0068-.1143-.7217,0-1.2725.3037-1.6143.8926-.2285.4561-.3418,1.083-.3418,1.7861v4.5215h-2.4141v-9.1953h2.4141Z"/>
      <path d="M335.4586,83.7653c-1.2148,0-1.8418,1.0449-1.8418,2.6211v4.75h-2.4316v-5.168c0-1.2539-.3232-2.2031-1.4824-2.2031-1.2539,0-1.8047,1.1777-1.8047,2.6211v4.75h-2.4316v-9.1953h2.4316l-.0186,1.3867h.0566c.418-.8545,1.5391-1.5576,2.7354-1.5576,1.3301,0,2.1279.5322,2.5645,1.748.6465-1.1211,1.6914-1.748,3.0215-1.748,2.4121,0,3.0771,1.71,3.0771,3.8184v5.5479h-2.4316v-5.1484c0-1.1211-.2471-2.2227-1.4443-2.2227Z"/>
      <path d="M347.8102,83.2516c.7402-1.1016,1.8428-1.5195,3.0586-1.5195,2.6973,0,4.3496,2.0898,4.3496,4.8262,0,2.6016-1.7285,4.748-4.5205,4.748-1.4053,0-2.1846-.4932-2.9443-1.4053l-.0391.0186c.0195.4375.0391.8555.0391,1.502v3.1914h-2.4131v-12.6719h2.4697l-.0381,1.292.0381.0186ZM347.6969,86.5583c0,1.5381,1.0059,2.8867,2.5645,2.8867,1.5762,0,2.4883-1.3486,2.4883-2.8867,0-1.5967-.9883-2.8496-2.5645-2.8496-1.4629,0-2.4883,1.1201-2.4883,2.8496Z"/>
      <path d="M359.3238,81.9411l-.0371,1.4824h.0566c.3613-.9883,1.2725-1.6533,2.2598-1.6533.627,0,.9697.1709.9697.1709l-.1709,2.1094h-.1143c-.2666-.0762-.6846-.1143-1.0068-.1143-.7227,0-1.2734.3037-1.6152.8926-.2275.4561-.3418,1.083-.3418,1.7861v4.5215h-2.4121v-9.1953h2.4121Z"/>
      <path d="M368.3112,89.4831c1.2344,0,2.3369-.5508,2.7734-.9307l.9502,1.3105c-.5137.5322-1.9004,1.4824-4.1416,1.4824-2.7744,0-4.8252-1.6914-4.8252-4.6543,0-2.9453,2.1465-4.9209,4.7676-4.9209,2.8311,0,4.541,1.8623,4.541,4.3125,0,.4756-.0381,1.2354-.0381,1.2354h-6.7627c.2275,1.4629,1.3477,2.165,2.7354,2.165ZM365.5367,85.7409h4.4082c-.0381-1.0068-.418-2.166-2.1279-2.166-1.4443,0-2.2041,1.0068-2.2803,2.166Z"/>
      <path d="M376.5192,83.2516c.7402-1.1016,1.8428-1.5195,3.0586-1.5195,2.6973,0,4.3496,2.0898,4.3496,4.8262,0,2.6016-1.7285,4.748-4.5205,4.748-1.4053,0-2.1846-.4932-2.9443-1.4053l-.0391.0186c.0195.4375.0391.8555.0391,1.502v3.1914h-2.4131v-12.6719h2.4697l-.0381,1.292.0381.0186ZM376.4059,86.5583c0,1.5381,1.0059,2.8867,2.5645,2.8867,1.5762,0,2.4883-1.3486,2.4883-2.8867,0-1.5967-.9883-2.8496-2.5645-2.8496-1.4629,0-2.4883,1.1201-2.4883,2.8496Z"/>
      <path d="M391.9274,88.1149l-1.1387,3.0215h-2.5654l5.1484-13.127h2.3936l5.1484,13.127h-2.6973l-1.1406-3.0215h-5.1484ZM396.4684,86.1403l-1.957-5.3008-1.9756,5.3008h3.9326Z"/>
      <path d="M404.6197,84.696v6.4404h-2.4131v-13.1084h2.6221l6.5156,9.5557s-.0381-1.5391-.0381-3.0967v-6.459h2.4131v13.1084h-2.4893l-6.6484-9.6699s.0381,1.6719.0381,3.2295Z"/>
      <path d="M420.5602,78.028c2.2793,0,3.9707.7412,4.9766,1.6533,1.0264.8926,2.0898,2.3926,2.0898,4.8809,0,2.5078-1.0635,4.0469-2.0898,4.9395-1.0059.8936-2.6973,1.6348-4.9766,1.6348h-4.1982v-13.1084h4.1982ZM423.7711,87.9635c.627-.6084,1.3105-1.6143,1.3105-3.3818,0-1.748-.6836-2.8115-1.3105-3.4199-.6465-.5879-1.6914-1.0635-3.1162-1.0635h-1.8232v8.9482h1.8232c1.4248,0,2.4697-.4746,3.1162-1.083Z"/>
      <path d="M233.0709,106.5934c-.7979,0-1.1963.3047-1.1963.7422,0,.3984.3027.7207,1.3291,1.0439l.6455.209c2.0332.665,2.7549,1.3877,2.7549,2.7168,0,1.7471-1.3867,3.04-3.6475,3.04-1.4062,0-2.9824-.5703-3.7227-1.4258l.9873-1.6523c1.083.8359,2.0137,1.2539,2.792,1.2539.9121,0,1.3301-.3418,1.3301-.874,0-.4746-.3613-.7412-1.5391-1.1396l-1.0635-.3613c-1.3682-.4551-2.0703-1.2725-2.0703-2.6211,0-1.6719,1.5195-2.7549,3.2861-2.7549,1.6338,0,2.5459.4365,3.3057.9873l-1.0449,1.6152c-.5322-.3984-1.3105-.7793-2.1465-.7793Z"/>
      <path d="M242.0582,112.3122c.4941,0,.873-.1523.873-.1523l.1328,1.8809c-.1133.0381-.8359.3047-1.8613.3047-1.8809,0-2.6602-.8555-2.6602-3.249v-4.2549h-1.3672v-1.8809h1.3672v-2.6221h2.4131v2.6221h2.1279v1.8809h-2.1279v3.7227c0,1.4062.2471,1.748,1.1025,1.748Z"/>
      <path d="M246.8844,104.9411l-.0381,1.4824h.0566c.3613-.9883,1.2725-1.6533,2.2607-1.6533.627,0,.9688.1709.9688.1709l-.1709,2.1094h-.1143c-.2656-.0762-.6836-.1143-1.0059-.1143-.7227,0-1.2734.3037-1.6152.8926-.2285.4561-.3418,1.083-.3418,1.7861v4.5215h-2.4131v-9.1953h2.4131Z"/>
      <path d="M253.4772,114.3454c-1.7861,0-3.2295-.9688-3.2295-2.8887,0-1.918,1.8809-2.6592,3.7803-2.792l2.2041-.1514v-.248c0-1.1777-.7793-1.7285-2.0518-1.7285-1.2158,0-2.2227.4561-2.6221.7598l-.7402-1.5576c.7031-.417,1.9941-.9688,3.5898-.9688,1.6338,0,2.5645.418,3.248,1.0635.666.6465,1.0078,1.4824,1.0078,3.04v5.2627h-2.3369l-.0381-1.0645c-.3799.665-1.4434,1.2734-2.8115,1.2734ZM252.6793,111.3815c0,.7783.5889,1.3105,1.5957,1.3105.9492,0,1.6523-.5508,1.9756-1.0068v-1.6914l-1.6533.0957c-1.291.0762-1.918.5127-1.918,1.292Z"/>
      <path d="M264.6871,112.3122c.4941,0,.873-.1523.873-.1523l.1328,1.8809c-.1133.0381-.8359.3047-1.8613.3047-1.8809,0-2.6602-.8555-2.6602-3.249v-4.2549h-1.3672v-1.8809h1.3672v-2.6221h2.4131v2.6221h2.1279v1.8809h-2.1279v3.7227c0,1.4062.2471,1.748,1.1025,1.748Z"/>
      <path d="M271.736,112.4831c1.2344,0,2.3359-.5508,2.7734-.9307l.9492,1.3105c-.5117.5322-1.8984,1.4824-4.1406,1.4824-2.7734,0-4.8262-1.6914-4.8262-4.6543,0-2.9453,2.1475-4.9209,4.7695-4.9209,2.8301,0,4.54,1.8623,4.54,4.3125,0,.4756-.0381,1.2354-.0381,1.2354h-6.7637c.2285,1.4629,1.3496,2.165,2.7363,2.165ZM268.9625,108.7409h4.4072c-.0381-1.0068-.418-2.166-2.1279-2.166-1.4434,0-2.2031,1.0068-2.2793,2.166Z"/>
      <path d="M281.236,113.8317c-2.3184,0-4.2939-1.4814-4.2939-4.4072,0-2.5459,1.7861-4.6543,4.5215-4.6543,1.2354,0,2.2803.4561,2.9258,1.4443h.0381l-.0195-1.2734h2.4131v7.2949c0,2.0137-.418,3.1543-1.1973,3.9707-.7979.8359-1.9756,1.6152-4.1787,1.6152-2.1855,0-3.8184-1.0449-4.2754-1.3682l1.0078-1.6904c.5879.418,2.0898,1.082,3.2676,1.082,1.3105,0,1.9941-.418,2.3359-.8164s.627-1.1592.627-2.1855v-.4551h-.0371c-.627.9492-1.7295,1.4434-3.1348,1.4434ZM281.9576,106.6891c-1.5967,0-2.5459,1.1777-2.5459,2.6787,0,1.4053.9121,2.5645,2.5078,2.5645,1.748,0,2.6211-1.1592,2.6211-2.5645,0-1.3301-.9873-2.6787-2.583-2.6787Z"/>
      <path d="M288.9313,102.1295c0-.7783.6074-1.3486,1.4629-1.3486.8545,0,1.4629.5703,1.4629,1.3486,0,.7979-.6084,1.3486-1.4629,1.3486-.8555,0-1.4629-.5508-1.4629-1.3486ZM291.609,104.9411v9.1953h-2.4316v-9.1953h2.4316Z"/>
      <path d="M301.0143,111.3239l.6836,1.7861c-.1904.1709-1.1396,1.2354-3.5908,1.2354-2.5078,0-4.8242-1.7285-4.8242-4.7305,0-3.0215,2.3926-4.8447,4.8633-4.8447,2.3164,0,3.2285.9307,3.4756,1.1777l-.665,1.8232c-.2852-.2656-1.1016-.9688-2.5264-.9688-1.4443,0-2.6025,1.0078-2.6025,2.6982s1.1582,2.792,2.7363,2.792c1.5762,0,2.4502-.9688,2.4502-.9688Z"/>
      <path d="M309.2789,101.028v13.1084h-2.4121v-13.1084h2.4121Z"/>
      <path d="M311.0465,109.5758c0-2.9062,2.166-4.8057,4.9961-4.8057,2.8125,0,4.9775,1.8994,4.9775,4.8057s-2.165,4.7695-4.9775,4.7695c-2.8301,0-4.9961-1.8623-4.9961-4.7695ZM316.0426,106.7272c-1.5957,0-2.4688,1.2158-2.4688,2.792,0,1.5771.873,2.8125,2.4688,2.8125,1.5586,0,2.4697-1.2354,2.4697-2.8125,0-1.5762-.9111-2.792-2.4697-2.792Z"/>
      <path d="M327.1383,106.7653c-1.5,0-2.0137,1.2539-2.0137,2.793v4.5781h-2.4316v-9.1953h2.4316l-.0186,1.3867h.0566c.4941-.9688,1.4248-1.5576,2.7549-1.5576,2.6406,0,3.3047,1.71,3.3047,3.9131v5.4531h-2.4316v-4.9209c0-1.3682-.2461-2.4502-1.6523-2.4502Z"/>
      <path d="M337.1324,113.8317c-2.3174,0-4.293-1.4814-4.293-4.4072,0-2.5459,1.7852-4.6543,4.5215-4.6543,1.2344,0,2.2793.4561,2.9258,1.4443h.0371l-.0195-1.2734h2.4141v7.2949c0,2.0137-.418,3.1543-1.1973,3.9707-.7988.8359-1.9766,1.6152-4.1797,1.6152-2.1846,0-3.8184-1.0449-4.2744-1.3682l1.0068-1.6904c.5889.418,2.0898,1.082,3.2676,1.082,1.3105,0,1.9941-.418,2.3369-.8164.3418-.3984.626-1.1592.626-2.1855v-.4551h-.0371c-.627.9492-1.7285,1.4434-3.1348,1.4434ZM337.8551,106.6891c-1.5967,0-2.5469,1.1777-2.5469,2.6787,0,1.4053.9121,2.5645,2.5078,2.5645,1.748,0,2.6221-1.1592,2.6221-2.5645,0-1.3301-.9873-2.6787-2.583-2.6787Z"/>
      <path d="M349.3492,108.0192v1.9375h-4.959v-1.9375h4.959Z"/>
      <path d="M354.9156,112.3122c.4941,0,.875-.1523.875-.1523l.1328,1.8809c-.1143.0381-.8359.3047-1.8623.3047-1.8799,0-2.6592-.8555-2.6592-3.249v-4.2549h-1.3682v-1.8809h1.3682v-2.6221h2.4121v2.6221h2.1279v1.8809h-2.1279v3.7227c0,1.4062.2471,1.748,1.1016,1.748Z"/>
      <path d="M361.9655,112.4831c1.2344,0,2.3369-.5508,2.7734-.9307l.9502,1.3105c-.5137.5322-1.9004,1.4824-4.1416,1.4824-2.7744,0-4.8252-1.6914-4.8252-4.6543,0-2.9453,2.1465-4.9209,4.7676-4.9209,2.8311,0,4.541,1.8623,4.541,4.3125,0,.4756-.0381,1.2354-.0381,1.2354h-6.7627c.2275,1.4629,1.3477,2.165,2.7354,2.165ZM359.191,108.7409h4.4082c-.0381-1.0068-.418-2.166-2.1279-2.166-1.4443,0-2.2041,1.0068-2.2803,2.166Z"/>
      <path d="M370.0602,104.9411l-.0391,1.4824h.0566c.3613-.9883,1.2734-1.6533,2.2617-1.6533.627,0,.9688.1709.9688.1709l-.1719,2.1094h-.1133c-.2656-.0762-.6836-.1143-1.0068-.1143-.7217,0-1.2725.3037-1.6143.8926-.2285.4561-.3418,1.083-.3418,1.7861v4.5215h-2.4141v-9.1953h2.4141Z"/>
      <path d="M384.4977,106.7653c-1.2148,0-1.8418,1.0449-1.8418,2.6211v4.75h-2.4316v-5.168c0-1.2539-.3232-2.2031-1.4824-2.2031-1.2539,0-1.8047,1.1777-1.8047,2.6211v4.75h-2.4316v-9.1953h2.4316l-.0186,1.3867h.0566c.418-.8545,1.5391-1.5576,2.7354-1.5576,1.3301,0,2.1279.5322,2.5645,1.748.6465-1.1211,1.6914-1.748,3.0215-1.748,2.4121,0,3.0771,1.71,3.0771,3.8184v5.5479h-2.4316v-5.1484c0-1.1211-.2471-2.2227-1.4443-2.2227Z"/>
      <path d="M396.736,104.9411l-.0391,1.4824h.0566c.3613-.9883,1.2734-1.6533,2.2617-1.6533.627,0,.9688.1709.9688.1709l-.1719,2.1094h-.1133c-.2656-.0762-.6836-.1143-1.0068-.1143-.7217,0-1.2725.3037-1.6143.8926-.2285.4561-.3418,1.083-.3418,1.7861v4.5215h-2.4141v-9.1953h2.4141Z"/>
      <path d="M405.7223,112.4831c1.2344,0,2.3359-.5508,2.7734-.9307l.9492,1.3105c-.5117.5322-1.8984,1.4824-4.1406,1.4824-2.7734,0-4.8262-1.6914-4.8262-4.6543,0-2.9453,2.1475-4.9209,4.7695-4.9209,2.8301,0,4.54,1.8623,4.54,4.3125,0,.4756-.0381,1.2354-.0381,1.2354h-6.7637c.2285,1.4629,1.3496,2.165,2.7363,2.165ZM402.9488,108.7409h4.4072c-.0381-1.0068-.418-2.166-2.1279-2.166-1.4434,0-2.2031,1.0068-2.2793,2.166Z"/>
      <path d="M414.5572,106.5934c-.7979,0-1.1963.3047-1.1963.7422,0,.3984.3027.7207,1.3291,1.0439l.6455.209c2.0332.665,2.7549,1.3877,2.7549,2.7168,0,1.7471-1.3867,3.04-3.6475,3.04-1.4062,0-2.9824-.5703-3.7227-1.4258l.9873-1.6523c1.083.8359,2.0137,1.2539,2.792,1.2539.9121,0,1.3301-.3418,1.3301-.874,0-.4746-.3613-.7412-1.5391-1.1396l-1.0635-.3613c-1.3682-.4551-2.0703-1.2725-2.0703-2.6211,0-1.6719,1.5195-2.7549,3.2861-2.7549,1.6338,0,2.5459.4365,3.3057.9873l-1.0449,1.6152c-.5322-.3984-1.3105-.7793-2.1465-.7793Z"/>
      <path d="M419.441,102.1295c0-.7783.6074-1.3486,1.4629-1.3486.8545,0,1.4629.5703,1.4629,1.3486,0,.7979-.6084,1.3486-1.4629,1.3486-.8555,0-1.4629-.5508-1.4629-1.3486ZM422.1188,104.9411v9.1953h-2.4316v-9.1953h2.4316Z"/>
      <path d="M426.9449,101.028v13.1084h-2.4121v-13.1084h2.4121Z"/>
      <path d="M429.111,102.1295c0-.7783.6084-1.3486,1.4629-1.3486.8555,0,1.4629.5703,1.4629,1.3486,0,.7979-.6074,1.3486-1.4629,1.3486-.8545,0-1.4629-.5508-1.4629-1.3486ZM431.7906,104.9411v9.1953h-2.4316v-9.1953h2.4316Z"/>
      <path d="M438.7438,112.4831c1.2354,0,2.3369-.5508,2.7734-.9307l.9502,1.3105c-.5127.5322-1.8994,1.4824-4.1416,1.4824-2.7734,0-4.8252-1.6914-4.8252-4.6543,0-2.9453,2.1475-4.9209,4.7686-4.9209,2.8301,0,4.541,1.8623,4.541,4.3125,0,.4756-.0391,1.2354-.0391,1.2354h-6.7627c.2275,1.4629,1.3486,2.165,2.7354,2.165ZM435.9703,108.7409h4.4082c-.0391-1.0068-.418-2.166-2.1289-2.166-1.4434,0-2.2031,1.0068-2.2793,2.166Z"/>
      <path d="M448.8707,106.7653c-1.5,0-2.0137,1.2539-2.0137,2.793v4.5781h-2.4316v-9.1953h2.4316l-.0186,1.3867h.0566c.4941-.9688,1.4248-1.5576,2.7549-1.5576,2.6406,0,3.3047,1.71,3.3047,3.9131v5.4531h-2.4316v-4.9209c0-1.3682-.2461-2.4502-1.6523-2.4502Z"/>
      <path d="M462.2272,111.3239l.6846,1.7861c-.1904.1709-1.1406,1.2354-3.5908,1.2354-2.5078,0-4.8252-1.7285-4.8252-4.7305,0-3.0215,2.3936-4.8447,4.8633-4.8447,2.3174,0,3.2295.9307,3.4766,1.1777l-.665,1.8232c-.2852-.2656-1.1025-.9688-2.5264-.9688-1.4443,0-2.6035,1.0078-2.6035,2.6982s1.1592,2.792,2.7363,2.792c1.5762,0,2.4502-.9688,2.4502-.9688Z"/>
      <path d="M465.5719,104.9411l2.4316,6.5156,2.3945-6.5156h2.5264l-4.2744,10.4297c-.665,1.6152-1.4248,2.3936-2.7168,2.3936-1.3105,0-2.166-.3799-2.166-.3799l.4941-1.8613s.6465.2275,1.1016.2275c.4756,0,.875-.1328,1.0645-.6084l.3984-.9492-3.7988-9.252h2.5449Z"/>
      <path d="M480.2203,106.2516c.7402-1.1016,1.8428-1.5195,3.0586-1.5195,2.6973,0,4.3496,2.0898,4.3496,4.8262,0,2.6016-1.7285,4.748-4.5205,4.748-1.4053,0-2.1846-.4932-2.9443-1.4053l-.0391.0186c.0195.4375.0391.8555.0391,1.502v3.1914h-2.4131v-12.6719h2.4697l-.0381,1.292.0381.0186ZM480.1071,109.5583c0,1.5381,1.0059,2.8867,2.5645,2.8867,1.5762,0,2.4883-1.3486,2.4883-2.8867,0-1.5967-.9883-2.8496-2.5645-2.8496-1.4629,0-2.4883,1.1201-2.4883,2.8496Z"/>
      <path d="M491.8297,101.028v13.1084h-2.4131v-13.1084h2.4131Z"/>
      <path d="M496.693,114.3454c-1.7852,0-3.2295-.9688-3.2295-2.8887,0-1.918,1.8809-2.6592,3.7803-2.792l2.2031-.1514v-.248c0-1.1777-.7783-1.7285-2.0508-1.7285-1.2158,0-2.2227.4561-2.6221.7598l-.7412-1.5576c.7031-.417,1.9951-.9688,3.5908-.9688,1.6338,0,2.5654.418,3.249,1.0635.6641.6465,1.0059,1.4824,1.0059,3.04v5.2627h-2.3359l-.0381-1.0645c-.3799.665-1.4443,1.2734-2.8115,1.2734ZM495.8951,111.3815c0,.7783.5889,1.3105,1.5957,1.3105.9502,0,1.6533-.5508,1.9756-1.0068v-1.6914l-1.6523.0957c-1.292.0762-1.9189.5127-1.9189,1.292Z"/>
      <path d="M508.4156,106.7653c-1.501,0-2.0137,1.2539-2.0137,2.793v4.5781h-2.4316v-9.1953h2.4316l-.0195,1.3867h.0566c.4941-.9688,1.4258-1.5576,2.7559-1.5576,2.6406,0,3.3047,1.71,3.3047,3.9131v5.4531h-2.4316v-4.9209c0-1.3682-.2461-2.4502-1.6523-2.4502Z"/>
      <path d="M519.1315,106.7653c-1.501,0-2.0146,1.2539-2.0146,2.793v4.5781h-2.4316v-9.1953h2.4316l-.0176,1.3867h.0566c.4941-.9688,1.4238-1.5576,2.7539-1.5576,2.6406,0,3.3057,1.71,3.3057,3.9131v5.4531h-2.4316v-4.9209c0-1.3682-.2471-2.4502-1.6523-2.4502Z"/>
      <path d="M525.2301,102.1295c0-.7783.6084-1.3486,1.4629-1.3486.8555,0,1.4629.5703,1.4629,1.3486,0,.7979-.6074,1.3486-1.4629,1.3486-.8545,0-1.4629-.5508-1.4629-1.3486ZM527.9098,104.9411v9.1953h-2.4316v-9.1953h2.4316Z"/>
      <path d="M534.6735,106.7653c-1.501,0-2.0137,1.2539-2.0137,2.793v4.5781h-2.4316v-9.1953h2.4316l-.0195,1.3867h.0566c.4941-.9688,1.4258-1.5576,2.7559-1.5576,2.6406,0,3.3047,1.71,3.3047,3.9131v5.4531h-2.4316v-4.9209c0-1.3682-.2461-2.4502-1.6523-2.4502Z"/>
      <path d="M544.6676,113.8317c-2.3184,0-4.2939-1.4814-4.2939-4.4072,0-2.5459,1.7861-4.6543,4.5215-4.6543,1.2354,0,2.2803.4561,2.9258,1.4443h.0381l-.0195-1.2734h2.4131v7.2949c0,2.0137-.418,3.1543-1.1973,3.9707-.7979.8359-1.9756,1.6152-4.1787,1.6152-2.1855,0-3.8184-1.0449-4.2754-1.3682l1.0078-1.6904c.5879.418,2.0898,1.082,3.2676,1.082,1.3105,0,1.9941-.418,2.3359-.8164s.627-1.1592.627-2.1855v-.4551h-.0371c-.627.9492-1.7295,1.4434-3.1348,1.4434ZM545.3893,106.6891c-1.5967,0-2.5459,1.1777-2.5459,2.6787,0,1.4053.9121,2.5645,2.5078,2.5645,1.748,0,2.6211-1.1592,2.6211-2.5645,0-1.3301-.9873-2.6787-2.583-2.6787Z"/>
    </g>
    <rect class="cls-2" x="163.391" y="77.0734" width="38.7549" height="38.7549" rx="1.7679" ry="1.7679"/>
  </g>
  <g>
    <g>
      <path d="M238.5426,230.5797c0,2.4316-1.7861,4.0459-4.5605,4.0459-2.2412,0-3.7793-1.0449-4.6348-2.0322l1.1777-1.7861c1.0254,1.1201,2.2607,1.7285,3.4961,1.7285,1.2148,0,2.0508-.5889,2.0508-1.7285,0-1.0264-.6836-1.3682-1.8047-1.8232l-2.0508-.8174c-1.4258-.5693-2.375-1.5771-2.375-3.1729,0-2.2793,1.7852-3.8564,4.54-3.8564,1.8623,0,3.2109.7793,3.9893,1.5771l-1.1777,1.7666c-.8359-.7598-1.8418-1.3115-2.9629-1.3115-1.083,0-1.9375.5332-1.9375,1.502,0,.9492.8164,1.3105,1.5,1.5957l2.1855.8926c1.8418.7598,2.5645,1.7852,2.5645,3.4199Z"/>
      <path d="M244.1666,232.5739c.4941,0,.874-.1523.874-.1523l.1328,1.8809c-.1133.0381-.8359.3047-1.8613.3047-1.8809,0-2.6602-.8555-2.6602-3.249v-4.2549h-1.3672v-1.8809h1.3672v-2.6221h2.4131v2.6221h2.1279v1.8809h-2.1279v3.7227c0,1.4062.2471,1.748,1.1016,1.748Z"/>
      <path d="M249.1071,234.6071c-1.7852,0-3.2295-.9688-3.2295-2.8887,0-1.918,1.8809-2.6592,3.7803-2.792l2.2031-.1514v-.248c0-1.1777-.7783-1.7285-2.0508-1.7285-1.2158,0-2.2227.4561-2.6221.7598l-.7412-1.5576c.7031-.417,1.9951-.9688,3.5908-.9688,1.6338,0,2.5654.418,3.249,1.0635.6641.6465,1.0059,1.4824,1.0059,3.04v5.2627h-2.3359l-.0381-1.0645c-.3799.665-1.4443,1.2734-2.8115,1.2734ZM248.3092,231.6432c0,.7783.5889,1.3105,1.5957,1.3105.9502,0,1.6533-.5508,1.9756-1.0068v-1.6914l-1.6523.0957c-1.292.0762-1.9189.5127-1.9189,1.292Z"/>
      <path d="M257.5055,225.2028l2.4316,6.5156,2.3926-6.5156h2.5273l-4.2744,10.4297c-.665,1.6152-1.4248,2.3936-2.7168,2.3936-1.3105,0-2.165-.3799-2.165-.3799l.4932-1.8613s.6455.2275,1.1025.2275c.4746,0,.873-.1328,1.0635-.6084l.3994-.9492-3.8008-9.252h2.5469Z"/>
      <path d="M269.4557,222.3913c0-.7783.6084-1.3486,1.4629-1.3486s1.4629.5703,1.4629,1.3486c0,.7979-.6084,1.3486-1.4629,1.3486s-1.4629-.5508-1.4629-1.3486ZM272.1344,225.2028v9.1953h-2.4316v-9.1953h2.4316Z"/>
      <path d="M278.8981,227.027c-1.5,0-2.0137,1.2539-2.0137,2.793v4.5781h-2.4316v-9.1953h2.4316l-.0186,1.3867h.0566c.4941-.9688,1.4248-1.5576,2.7549-1.5576,2.6406,0,3.3047,1.71,3.3047,3.9131v5.4531h-2.4316v-4.9209c0-1.3682-.2461-2.4502-1.6523-2.4502Z"/>
      <path d="M284.2946,227.1032v-1.8809h1.2539v-.7031c0-1.1211.3047-2.0332.7793-2.5459.4746-.5508,1.2344-.9111,2.2988-.9111,1.1211,0,1.8047.1895,1.8047.1895l-.1523,1.748s-.5312-.1523-1.0449-.1523c-1.0449,0-1.291.7031-1.291,1.5762v.7988h2.1074v1.8809h-2.0703v7.2949h-2.4316v-7.2949h-1.2539Z"/>
      <path d="M290.2418,229.8376c0-2.9062,2.166-4.8057,4.9971-4.8057,2.8115,0,4.9775,1.8994,4.9775,4.8057s-2.166,4.7695-4.9775,4.7695c-2.8311,0-4.9971-1.8623-4.9971-4.7695ZM295.2389,226.9889c-1.5957,0-2.4697,1.2158-2.4697,2.792,0,1.5771.874,2.8125,2.4697,2.8125,1.5576,0,2.4697-1.2354,2.4697-2.8125,0-1.5762-.9121-2.792-2.4697-2.792Z"/>
      <path d="M304.3024,225.2028l-.0391,1.4824h.0566c.3613-.9883,1.2734-1.6533,2.2617-1.6533.627,0,.9688.1709.9688.1709l-.1719,2.1094h-.1133c-.2656-.0762-.6836-.1143-1.0068-.1143-.7217,0-1.2725.3037-1.6143.8926-.2285.4561-.3418,1.083-.3418,1.7861v4.5215h-2.4141v-9.1953h2.4141Z"/>
      <path d="M318.7399,227.027c-1.2148,0-1.8418,1.0449-1.8418,2.6211v4.75h-2.4316v-5.168c0-1.2539-.3232-2.2031-1.4824-2.2031-1.2539,0-1.8047,1.1777-1.8047,2.6211v4.75h-2.4316v-9.1953h2.4316l-.0186,1.3867h.0566c.418-.8545,1.5391-1.5576,2.7354-1.5576,1.3301,0,2.1279.5322,2.5645,1.748.6465-1.1211,1.6914-1.748,3.0215-1.748,2.4121,0,3.0771,1.71,3.0771,3.8184v5.5479h-2.4316v-5.1484c0-1.1211-.2471-2.2227-1.4443-2.2227Z"/>
      <path d="M329.4381,232.7448c1.2344,0,2.3369-.5508,2.7734-.9307l.9502,1.3105c-.5137.5322-1.9004,1.4824-4.1416,1.4824-2.7744,0-4.8252-1.6914-4.8252-4.6543,0-2.9453,2.1465-4.9209,4.7676-4.9209,2.8311,0,4.541,1.8623,4.541,4.3125,0,.4756-.0381,1.2354-.0381,1.2354h-6.7627c.2275,1.4629,1.3477,2.165,2.7354,2.165ZM326.6637,229.0026h4.4082c-.0381-1.0068-.418-2.166-2.1279-2.166-1.4443,0-2.2041,1.0068-2.2803,2.166Z"/>
      <path d="M342.1481,232.9538c-.7402,1.1777-1.8809,1.6533-3.1533,1.6533-2.6982,0-4.3506-2.0898-4.3506-4.8262,0-2.6016,1.7285-4.749,4.5215-4.749,1.2344,0,2.2793.4561,2.9258,1.4443h.0371c-.0186-.418-.0186-.9121-.0186-1.5586v-3.6279h2.4131v13.1084h-2.2988l-.0195-1.4443h-.0566ZM342.1676,229.7809c0-1.5391-1.0078-2.8867-2.5645-2.8867-1.5771,0-2.4893,1.3477-2.4893,2.8867,0,1.5957.9873,2.8496,2.5645,2.8496,1.4629,0,2.4893-1.1211,2.4893-2.8496Z"/>
      <path d="M354.9352,234.3981h-2.3926l-2.9453-9.1953h2.4131l1.9189,6.5918,2.1836-6.5918h1.9004l2.2607,6.4219,1.7666-6.4219h2.4121l-3.0391,9.1953h-2.1846l-2.2607-6.2314-2.0332,6.2314Z"/>
      <path d="M365.4996,222.3913c0-.7783.6084-1.3486,1.4629-1.3486.8555,0,1.4629.5703,1.4629,1.3486,0,.7979-.6074,1.3486-1.4629,1.3486-.8545,0-1.4629-.5508-1.4629-1.3486ZM368.1793,225.2028v9.1953h-2.4316v-9.1953h2.4316Z"/>
      <path d="M374.4293,232.5739c.4941,0,.875-.1523.875-.1523l.1328,1.8809c-.1143.0381-.8359.3047-1.8623.3047-1.8799,0-2.6592-.8555-2.6592-3.249v-4.2549h-1.3682v-1.8809h1.3682v-2.6221h2.4121v2.6221h2.1279v1.8809h-2.1279v3.7227c0,1.4062.2471,1.748,1.1016,1.748Z"/>
      <path d="M385.4488,228.945v5.4531h-2.4316v-4.9209c0-1.3682-.2461-2.4502-1.6523-2.4502-1.5,0-2.0137,1.2539-2.0137,2.793v4.5781h-2.4121v-13.1084h2.4121v5.2998h.0381c.4932-.9688,1.4248-1.5576,2.7549-1.5576,2.6406,0,3.3047,1.71,3.3047,3.9131Z"/>
      <path d="M395.3297,232.5739c.4941,0,.875-.1523.875-.1523l.1328,1.8809c-.1143.0381-.8359.3047-1.8623.3047-1.8799,0-2.6592-.8555-2.6592-3.249v-4.2549h-1.3682v-1.8809h1.3682v-2.6221h2.4121v2.6221h2.1279v1.8809h-2.1279v3.7227c0,1.4062.2471,1.748,1.1016,1.748Z"/>
      <path d="M406.3492,228.945v5.4531h-2.4316v-4.9209c0-1.3682-.2461-2.4502-1.6523-2.4502-1.5,0-2.0137,1.2539-2.0137,2.793v4.5781h-2.4121v-13.1084h2.4121v5.2998h.0381c.4932-.9688,1.4248-1.5576,2.7549-1.5576,2.6406,0,3.3047,1.71,3.3047,3.9131Z"/>
      <path d="M413.1715,232.7448c1.2344,0,2.3359-.5508,2.7734-.9307l.9492,1.3105c-.5117.5322-1.8984,1.4824-4.1406,1.4824-2.7734,0-4.8262-1.6914-4.8262-4.6543,0-2.9453,2.1475-4.9209,4.7695-4.9209,2.8301,0,4.54,1.8623,4.54,4.3125,0,.4756-.0381,1.2354-.0381,1.2354h-6.7637c.2285,1.4629,1.3496,2.165,2.7363,2.165ZM410.3981,229.0026h4.4072c-.0381-1.0068-.418-2.166-2.1279-2.166-1.4434,0-2.2031,1.0068-2.2793,2.166Z"/>
      <path d="M425.1227,221.2897v13.1084h-2.4131v-13.1084h2.4131Z"/>
      <path d="M429.986,234.6071c-1.7852,0-3.2295-.9688-3.2295-2.8887,0-1.918,1.8809-2.6592,3.7803-2.792l2.2031-.1514v-.248c0-1.1777-.7783-1.7285-2.0508-1.7285-1.2158,0-2.2227.4561-2.6221.7598l-.7412-1.5576c.7031-.417,1.9951-.9688,3.5908-.9688,1.6338,0,2.5654.418,3.249,1.0635.6641.6465,1.0059,1.4824,1.0059,3.04v5.2627h-2.3359l-.0381-1.0645c-.3799.665-1.4443,1.2734-2.8115,1.2734ZM429.1881,231.6432c0,.7783.5889,1.3105,1.5957,1.3105.9502,0,1.6533-.5508,1.9756-1.0068v-1.6914l-1.6523.0957c-1.292.0762-1.9189.5127-1.9189,1.292Z"/>
      <path d="M441.1949,232.5739c.4941,0,.875-.1523.875-.1523l.1328,1.8809c-.1143.0381-.8359.3047-1.8623.3047-1.8799,0-2.6592-.8555-2.6592-3.249v-4.2549h-1.3682v-1.8809h1.3682v-2.6221h2.4121v2.6221h2.1279v1.8809h-2.1279v3.7227c0,1.4062.2471,1.748,1.1016,1.748Z"/>
      <path d="M448.2447,232.7448c1.2344,0,2.3369-.5508,2.7734-.9307l.9502,1.3105c-.5137.5322-1.9004,1.4824-4.1416,1.4824-2.7744,0-4.8252-1.6914-4.8252-4.6543,0-2.9453,2.1465-4.9209,4.7676-4.9209,2.8311,0,4.541,1.8623,4.541,4.3125,0,.4756-.0381,1.2354-.0381,1.2354h-6.7627c.2275,1.4629,1.3477,2.165,2.7354,2.165ZM445.4703,229.0026h4.4082c-.0381-1.0068-.418-2.166-2.1279-2.166-1.4443,0-2.2041,1.0068-2.2803,2.166Z"/>
      <path d="M457.0797,226.8551c-.7979,0-1.1973.3047-1.1973.7422,0,.3984.3047.7207,1.3301,1.0439l.6465.209c2.0322.665,2.7539,1.3877,2.7539,2.7168,0,1.7471-1.3867,3.04-3.6475,3.04-1.4053,0-2.9824-.5703-3.7236-1.4258l.9883-1.6523c1.083.8359,2.0137,1.2539,2.793,1.2539.9121,0,1.3301-.3418,1.3301-.874,0-.4746-.3613-.7412-1.5391-1.1396l-1.0645-.3613c-1.3672-.4551-2.0703-1.2725-2.0703-2.6211,0-1.6719,1.5195-2.7549,3.2861-2.7549,1.6338,0,2.5459.4365,3.3057.9873l-1.0449,1.6152c-.5312-.3984-1.3105-.7793-2.1465-.7793Z"/>
      <path d="M466.066,232.5739c.4941,0,.875-.1523.875-.1523l.1328,1.8809c-.1143.0381-.8359.3047-1.8623.3047-1.8799,0-2.6592-.8555-2.6592-3.249v-4.2549h-1.3682v-1.8809h1.3682v-2.6221h2.4121v2.6221h2.1279v1.8809h-2.1279v3.7227c0,1.4062.2471,1.748,1.1016,1.748Z"/>
      <path d="M479.1764,232.9538c-.7412,1.1777-1.8799,1.6533-3.1533,1.6533-2.6973,0-4.3506-2.0898-4.3506-4.8262,0-2.6016,1.7295-4.749,4.5215-4.749,1.2354,0,2.2803.4561,2.9258,1.4443h.0381c-.0195-.418-.0195-.9121-.0195-1.5586v-3.6279h2.4131v13.1084h-2.2988l-.0186-1.4443h-.0576ZM479.1949,229.7809c0-1.5391-1.0059-2.8867-2.5645-2.8867-1.5762,0-2.4883,1.3477-2.4883,2.8867,0,1.5957.9883,2.8496,2.5645,2.8496,1.4629,0,2.4883-1.1211,2.4883-2.8496Z"/>
      <path d="M486.4156,234.6071c-1.7852,0-3.2285-.9688-3.2285-2.8887,0-1.918,1.8809-2.6592,3.7793-2.792l2.2041-.1514v-.248c0-1.1777-.7783-1.7285-2.0518-1.7285-1.2148,0-2.2227.4561-2.6211.7598l-.7412-1.5576c.7031-.417,1.9951-.9688,3.5908-.9688,1.6328,0,2.5645.418,3.248,1.0635.665.6465,1.0068,1.4824,1.0068,3.04v5.2627h-2.3369l-.0371-1.0645c-.3809.665-1.4443,1.2734-2.8125,1.2734ZM485.6188,231.6432c0,.7783.5879,1.3105,1.5957,1.3105.9492,0,1.6523-.5508,1.9746-1.0068v-1.6914l-1.6523.0957c-1.291.0762-1.918.5127-1.918,1.292Z"/>
      <path d="M497.6256,232.5739c.4941,0,.874-.1523.874-.1523l.1328,1.8809c-.1133.0381-.8359.3047-1.8613.3047-1.8809,0-2.6602-.8555-2.6602-3.249v-4.2549h-1.3672v-1.8809h1.3672v-2.6221h2.4131v2.6221h2.1279v1.8809h-2.1279v3.7227c0,1.4062.2471,1.748,1.1016,1.748Z"/>
      <path d="M502.566,234.6071c-1.7852,0-3.2295-.9688-3.2295-2.8887,0-1.918,1.8809-2.6592,3.7803-2.792l2.2031-.1514v-.248c0-1.1777-.7783-1.7285-2.0508-1.7285-1.2158,0-2.2227.4561-2.6221.7598l-.7412-1.5576c.7031-.417,1.9951-.9688,3.5908-.9688,1.6338,0,2.5654.418,3.249,1.0635.6641.6465,1.0059,1.4824,1.0059,3.04v5.2627h-2.3359l-.0381-1.0645c-.3799.665-1.4443,1.2734-2.8115,1.2734ZM501.7682,231.6432c0,.7783.5889,1.3105,1.5957,1.3105.9502,0,1.6533-.5508,1.9756-1.0068v-1.6914l-1.6523.0957c-1.292.0762-1.9189.5127-1.9189,1.292Z"/>
      <path d="M516.1315,234.6071c-1.7861,0-3.2295-.9688-3.2295-2.8887,0-1.918,1.8809-2.6592,3.7803-2.792l2.2041-.1514v-.248c0-1.1777-.7793-1.7285-2.0518-1.7285-1.2158,0-2.2227.4561-2.6221.7598l-.7402-1.5576c.7031-.417,1.9941-.9688,3.5898-.9688,1.6338,0,2.5645.418,3.248,1.0635.666.6465,1.0078,1.4824,1.0078,3.04v5.2627h-2.3369l-.0381-1.0645c-.3799.665-1.4434,1.2734-2.8115,1.2734ZM515.3336,231.6432c0,.7783.5889,1.3105,1.5957,1.3105.9492,0,1.6523-.5508,1.9756-1.0068v-1.6914l-1.6533.0957c-1.291.0762-1.918.5127-1.918,1.292Z"/>
      <path d="M527.8541,227.027c-1.501,0-2.0146,1.2539-2.0146,2.793v4.5781h-2.4316v-9.1953h2.4316l-.0176,1.3867h.0566c.4941-.9688,1.4238-1.5576,2.7539-1.5576,2.6406,0,3.3057,1.71,3.3057,3.9131v5.4531h-2.4316v-4.9209c0-1.3682-.2471-2.4502-1.6523-2.4502Z"/>
      <path d="M541.0582,232.9538c-.7402,1.1777-1.8809,1.6533-3.1533,1.6533-2.6982,0-4.3506-2.0898-4.3506-4.8262,0-2.6016,1.7285-4.749,4.5215-4.749,1.2344,0,2.2793.4561,2.9258,1.4443h.0371c-.0186-.418-.0186-.9121-.0186-1.5586v-3.6279h2.4131v13.1084h-2.2988l-.0195-1.4443h-.0566ZM541.0778,229.7809c0-1.5391-1.0078-2.8867-2.5645-2.8867-1.5771,0-2.4893,1.3477-2.4893,2.8867,0,1.5957.9873,2.8496,2.5645,2.8496,1.4629,0,2.4893-1.1211,2.4893-2.8496Z"/>
      <path d="M553.9791,227.027c-1.501,0-2.0146,1.2539-2.0146,2.793v4.5781h-2.4316v-9.1953h2.4316l-.0176,1.3867h.0566c.4941-.9688,1.4238-1.5576,2.7539-1.5576,2.6406,0,3.3057,1.71,3.3057,3.9131v5.4531h-2.4316v-4.9209c0-1.3682-.2471-2.4502-1.6523-2.4502Z"/>
      <path d="M564.8844,232.7448c1.2354,0,2.3369-.5508,2.7734-.9307l.9502,1.3105c-.5127.5322-1.8994,1.4824-4.1416,1.4824-2.7734,0-4.8252-1.6914-4.8252-4.6543,0-2.9453,2.1475-4.9209,4.7686-4.9209,2.8301,0,4.541,1.8623,4.541,4.3125,0,.4756-.0391,1.2354-.0391,1.2354h-6.7627c.2275,1.4629,1.3486,2.165,2.7354,2.165ZM562.111,229.0026h4.4082c-.0391-1.0068-.418-2.166-2.1289-2.166-1.4434,0-2.2031,1.0068-2.2793,2.166Z"/>
      <path d="M574.6891,234.3981h-2.3945l-2.9434-9.1953h2.4121l1.918,6.5918,2.1855-6.5918h1.8994l2.2607,6.4219,1.7666-6.4219h2.4131l-3.04,9.1953h-2.1846l-2.2607-6.2314-2.0322,6.2314Z"/>
      <path d="M588.2926,226.8551c-.7979,0-1.1973.3047-1.1973.7422,0,.3984.3047.7207,1.3301,1.0439l.6465.209c2.0322.665,2.7539,1.3877,2.7539,2.7168,0,1.7471-1.3867,3.04-3.6475,3.04-1.4053,0-2.9824-.5703-3.7236-1.4258l.9883-1.6523c1.083.8359,2.0137,1.2539,2.793,1.2539.9121,0,1.3301-.3418,1.3301-.874,0-.4746-.3613-.7412-1.5391-1.1396l-1.0645-.3613c-1.3672-.4551-2.0703-1.2725-2.0703-2.6211,0-1.6719,1.5195-2.7549,3.2861-2.7549,1.6338,0,2.5459.4365,3.3057.9873l-1.0449,1.6152c-.5312-.3984-1.3105-.7793-2.1465-.7793Z"/>
    </g>
    <rect class="cls-2" x="163.391" y="209.4282" width="38.7549" height="38.7549" rx="1.7679" ry="1.7679"/>
  </g>
  <g>
    <g>
      <path d="M236.2047,355.6354c-3.8369,0-6.8008-2.6025-6.8008-6.7627s3.002-6.7637,6.8008-6.7637c2.5654,0,4.0469,1.083,4.5791,1.6152l-.874,2.0137c-.3799-.4941-1.8613-1.501-3.7227-1.501-2.2803,0-4.2373,1.501-4.2373,4.5967,0,2.8311,1.7666,4.6738,4.3887,4.6738,1.7471,0,2.9639-.7598,3.7422-1.5957l.874,1.8613c-.7402.7988-2.166,1.8623-4.75,1.8623Z"/>
      <path d="M241.736,350.8483c0-2.9072,2.166-4.8066,4.9961-4.8066,2.8115,0,4.9766,1.8994,4.9766,4.8066s-2.165,4.7686-4.9766,4.7686c-2.8301,0-4.9961-1.8623-4.9961-4.7686ZM246.7321,347.9987c-1.5957,0-2.4697,1.2158-2.4697,2.792,0,1.5771.874,2.8125,2.4697,2.8125,1.5576,0,2.4688-1.2354,2.4688-2.8125,0-1.5762-.9111-2.792-2.4688-2.792Z"/>
      <path d="M257.8278,348.0368c-1.501,0-2.0137,1.2539-2.0137,2.793v4.5781h-2.4316v-9.1953h2.4316l-.0195,1.3867h.0566c.4941-.9688,1.4258-1.5576,2.7559-1.5576,2.6406,0,3.3047,1.71,3.3047,3.9131v5.4531h-2.4316v-4.9209c0-1.3682-.2461-2.4502-1.6523-2.4502Z"/>
      <path d="M268.5436,348.0368c-1.501,0-2.0146,1.2539-2.0146,2.793v4.5781h-2.4316v-9.1953h2.4316l-.0176,1.3867h.0566c.4941-.9688,1.4238-1.5576,2.7539-1.5576,2.6406,0,3.3057,1.71,3.3057,3.9131v5.4531h-2.4316v-4.9209c0-1.3682-.2471-2.4502-1.6523-2.4502Z"/>
      <path d="M279.4488,353.7545c1.2354,0,2.3369-.5508,2.7734-.9307l.9502,1.3105c-.5127.5322-1.8994,1.4824-4.1416,1.4824-2.7734,0-4.8252-1.6914-4.8252-4.6543,0-2.9453,2.1475-4.9209,4.7686-4.9209,2.8301,0,4.541,1.8623,4.541,4.3125,0,.4756-.0391,1.2354-.0391,1.2354h-6.7627c.2275,1.4629,1.3486,2.165,2.7354,2.165ZM276.6754,350.0124h4.4082c-.0391-1.0068-.418-2.166-2.1289-2.166-1.4434,0-2.2031,1.0068-2.2793,2.166Z"/>
      <path d="M292.3112,352.5954l.6846,1.7861c-.1904.1709-1.1406,1.2354-3.5908,1.2354-2.5078,0-4.8252-1.7295-4.8252-4.7305,0-3.0215,2.3936-4.8447,4.8633-4.8447,2.3174,0,3.2295.9307,3.4766,1.1777l-.665,1.8232c-.2852-.2656-1.1025-.9688-2.5264-.9688-1.4443,0-2.6035,1.0078-2.6035,2.6982s1.1592,2.792,2.7363,2.792c1.5762,0,2.4502-.9688,2.4502-.9688Z"/>
      <path d="M298.2399,353.5836c.4941,0,.874-.1523.874-.1523l.1328,1.8809c-.1143.0381-.8359.3047-1.8623.3047-1.8799,0-2.6592-.8555-2.6592-3.249v-4.2549h-1.3682v-1.8809h1.3682v-2.6221h2.4131v2.6221h2.127v1.8809h-2.127v3.7227c0,1.4062.2461,1.748,1.1016,1.748Z"/>
      <path d="M308.7281,355.4079h-2.3945l-2.9434-9.1953h2.4121l1.918,6.5918,2.1855-6.5918h1.8994l2.2607,6.4219,1.7666-6.4219h2.4131l-3.04,9.1953h-2.1846l-2.2607-6.2314-2.0322,6.2314Z"/>
      <path d="M319.2926,343.401c0-.7783.6074-1.3486,1.4629-1.3486.8545,0,1.4629.5703,1.4629,1.3486,0,.7979-.6084,1.3486-1.4629,1.3486-.8555,0-1.4629-.5508-1.4629-1.3486ZM321.9703,346.2126v9.1953h-2.4316v-9.1953h2.4316Z"/>
      <path d="M328.2223,353.5836c.4941,0,.873-.1523.873-.1523l.1328,1.8809c-.1133.0381-.8359.3047-1.8613.3047-1.8809,0-2.6602-.8555-2.6602-3.249v-4.2549h-1.3672v-1.8809h1.3672v-2.6221h2.4131v2.6221h2.1279v1.8809h-2.1279v3.7227c0,1.4062.2471,1.748,1.1025,1.748Z"/>
      <path d="M339.2418,349.9547v5.4531h-2.4316v-4.9209c0-1.3682-.248-2.4502-1.6533-2.4502-1.501,0-2.0137,1.2539-2.0137,2.793v4.5781h-2.4131v-13.1084h2.4131v5.2998h.0381c.4941-.9688,1.4248-1.5576,2.7539-1.5576,2.6406,0,3.3066,1.71,3.3066,3.9131Z"/>
      <path d="M346.5387,346.2126l2.4316,6.5156,2.3936-6.5156h2.5264l-4.2734,10.4297c-.666,1.6152-1.4258,2.3936-2.7168,2.3936-1.3115,0-2.166-.3799-2.166-.3799l.4941-1.8613s.6455.2275,1.1016.2275c.4746,0,.874-.1328,1.0645-.6084l.3984-.9492-3.7998-9.252h2.5459Z"/>
      <path d="M354.2721,350.8483c0-2.9072,2.166-4.8066,4.9971-4.8066,2.8105,0,4.9766,1.8994,4.9766,4.8066s-2.166,4.7686-4.9766,4.7686c-2.8311,0-4.9971-1.8623-4.9971-4.7686ZM359.2692,347.9987c-1.5967,0-2.4707,1.2158-2.4707,2.792,0,1.5771.874,2.8125,2.4707,2.8125,1.5566,0,2.4688-1.2354,2.4688-2.8125,0-1.5762-.9121-2.792-2.4688-2.792Z"/>
      <path d="M369.8131,353.5836c1.4629,0,2.0137-1.1582,2.0137-2.6973v-4.6738h2.4316v9.1953h-2.3555l-.0186-1.293c-.5322.9121-1.5195,1.4629-2.8496,1.4629-2.6406,0-3.2871-1.709-3.2871-3.9131v-5.4521h2.4316v4.9199c0,1.3682.2285,2.4512,1.6338,2.4512Z"/>
      <path d="M378.9147,346.2126l-.0381,1.4824h.0566c.3613-.9883,1.2734-1.6533,2.2607-1.6533.627,0,.9697.1709.9697.1709l-.1719,2.1094h-.1133c-.2666-.0762-.6846-.1143-1.0078-.1143-.7217,0-1.2725.3037-1.6143.8926-.2275.4561-.3418,1.083-.3418,1.7861v4.5215h-2.4131v-9.1953h2.4131Z"/>
      <path d="M389.6305,342.2995v13.1084h-2.4131v-13.1084h2.4131Z"/>
      <path d="M391.3971,350.8483c0-2.9072,2.166-4.8066,4.9971-4.8066,2.8105,0,4.9766,1.8994,4.9766,4.8066s-2.166,4.7686-4.9766,4.7686c-2.8311,0-4.9971-1.8623-4.9971-4.7686ZM396.3942,347.9987c-1.5967,0-2.4707,1.2158-2.4707,2.792,0,1.5771.874,2.8125,2.4707,2.8125,1.5566,0,2.4688-1.2354,2.4688-2.8125,0-1.5762-.9121-2.792-2.4688-2.792Z"/>
      <path d="M410.1295,352.5954l.6846,1.7861c-.1904.1709-1.1406,1.2354-3.5908,1.2354-2.5078,0-4.8252-1.7295-4.8252-4.7305,0-3.0215,2.3936-4.8447,4.8633-4.8447,2.3174,0,3.2295.9307,3.4766,1.1777l-.665,1.8232c-.2852-.2656-1.1025-.9688-2.5264-.9688-1.4443,0-2.6035,1.0078-2.6035,2.6982s1.1592,2.792,2.7363,2.792c1.5762,0,2.4502-.9688,2.4502-.9688Z"/>
      <path d="M415.0319,355.6169c-1.7861,0-3.2295-.9688-3.2295-2.8887,0-1.918,1.8809-2.6592,3.7803-2.792l2.2041-.1514v-.248c0-1.1777-.7793-1.7285-2.0518-1.7285-1.2158,0-2.2227.4561-2.6221.7598l-.7402-1.5576c.7031-.418,1.9941-.9688,3.5898-.9688,1.6338,0,2.5645.418,3.248,1.0635.666.6465,1.0078,1.4824,1.0078,3.04v5.2627h-2.3369l-.0381-1.0645c-.3799.665-1.4434,1.2734-2.8115,1.2734ZM414.234,352.653c0,.7783.5889,1.3105,1.5957,1.3105.9492,0,1.6523-.5508,1.9756-1.0068v-1.6914l-1.6533.0957c-1.291.0762-1.918.5127-1.918,1.292Z"/>
      <path d="M424.816,342.2995v13.1084h-2.4121v-13.1084h2.4121Z"/>
      <path d="M433.443,355.6169c-1.7861,0-3.2305-.9688-3.2305-2.8887,0-1.918,1.8809-2.6592,3.7812-2.792l2.2031-.1514v-.248c0-1.1777-.7793-1.7285-2.0508-1.7285-1.2168,0-2.2236.4561-2.623.7598l-.7402-1.5576c.7031-.418,1.9941-.9688,3.5898-.9688,1.6348,0,2.5654.418,3.249,1.0635.665.6465,1.0068,1.4824,1.0068,3.04v5.2627h-2.3359l-.0391-1.0645c-.3789.665-1.4434,1.2734-2.8105,1.2734ZM432.6442,352.653c0,.7783.5898,1.3105,1.5957,1.3105.9502,0,1.6533-.5508,1.9766-1.0068v-1.6914l-1.6533.0957c-1.292.0762-1.9189.5127-1.9189,1.292Z"/>
      <path d="M445.1656,348.0368c-1.502,0-2.0146,1.2539-2.0146,2.793v4.5781h-2.4316v-9.1953h2.4316l-.0186,1.3867h.0566c.4941-.9688,1.4248-1.5576,2.7549-1.5576,2.6406,0,3.3057,1.71,3.3057,3.9131v5.4531h-2.4316v-4.9209c0-1.3682-.2471-2.4502-1.6523-2.4502Z"/>
      <path d="M458.3688,353.9635c-.7402,1.1777-1.8799,1.6533-3.1523,1.6533-2.6982,0-4.3516-2.0898-4.3516-4.8262,0-2.6016,1.7295-4.749,4.5215-4.749,1.2354,0,2.2803.4561,2.9258,1.4443h.0381c-.0186-.418-.0186-.9121-.0186-1.5586v-3.6279h2.4121v13.1084h-2.2988l-.0186-1.4443h-.0576ZM458.3883,350.7907c0-1.5391-1.0068-2.8867-2.5645-2.8867-1.5762,0-2.4883,1.3477-2.4883,2.8867,0,1.5957.9873,2.8496,2.5645,2.8496,1.4629,0,2.4883-1.1211,2.4883-2.8496Z"/>
      <path d="M470.568,355.1032c-2.3174,0-4.293-1.4814-4.293-4.4072,0-2.5459,1.7852-4.6543,4.5215-4.6543,1.2344,0,2.2793.4561,2.9258,1.4443h.0371l-.0195-1.2734h2.4141v7.2949c0,2.0137-.418,3.1543-1.1973,3.9707-.7988.8359-1.9766,1.6152-4.1797,1.6152-2.1846,0-3.8184-1.0449-4.2744-1.3682l1.0068-1.6904c.5889.418,2.0898,1.082,3.2676,1.082,1.3105,0,1.9941-.418,2.3369-.8164.3418-.3984.626-1.1592.626-2.1855v-.4551h-.0371c-.627.9492-1.7285,1.4434-3.1348,1.4434ZM471.2906,347.9606c-1.5967,0-2.5469,1.1777-2.5469,2.6787,0,1.4053.9121,2.5645,2.5078,2.5645,1.748,0,2.6221-1.1592,2.6221-2.5645,0-1.3301-.9873-2.6787-2.583-2.6787Z"/>
      <path d="M480.942,342.2995v13.1084h-2.4131v-13.1084h2.4131Z"/>
      <path d="M482.7086,350.8483c0-2.9072,2.166-4.8066,4.9971-4.8066,2.8115,0,4.9775,1.8994,4.9775,4.8066s-2.166,4.7686-4.9775,4.7686c-2.8311,0-4.9971-1.8623-4.9971-4.7686ZM487.7057,347.9987c-1.5957,0-2.4697,1.2158-2.4697,2.792,0,1.5771.874,2.8125,2.4697,2.8125,1.5576,0,2.4697-1.2354,2.4697-2.8125,0-1.5762-.9121-2.792-2.4697-2.792Z"/>
      <path d="M496.8824,342.2995v4.1025c0,.6846-.0381,1.084-.0381,1.084h.0576c.7969-1.0449,1.8418-1.4824,3.0771-1.4824,2.6787,0,4.3506,2.1094,4.3506,4.8066,0,2.6211-1.7285,4.7676-4.5215,4.7676-1.292,0-2.2988-.4551-3.0215-1.5h-.0371l-.0566,1.3301h-2.2422v-13.1084h2.4316ZM496.8063,350.8297c0,1.5381,1.0068,2.8867,2.5645,2.8867,1.5771,0,2.4883-1.3486,2.4883-2.8867,0-1.5967-.9873-2.8496-2.5645-2.8496-1.4629,0-2.4883,1.1201-2.4883,2.8496Z"/>
      <path d="M508.5289,355.6169c-1.7852,0-3.2285-.9688-3.2285-2.8887,0-1.918,1.8809-2.6592,3.7793-2.792l2.2041-.1514v-.248c0-1.1777-.7783-1.7285-2.0518-1.7285-1.2148,0-2.2227.4561-2.6211.7598l-.7412-1.5576c.7031-.418,1.9951-.9688,3.5908-.9688,1.6328,0,2.5645.418,3.248,1.0635.665.6465,1.0068,1.4824,1.0068,3.04v5.2627h-2.3369l-.0371-1.0645c-.3809.665-1.4443,1.2734-2.8125,1.2734ZM507.7321,352.653c0,.7783.5879,1.3105,1.5957,1.3105.9492,0,1.6523-.5508,1.9746-1.0068v-1.6914l-1.6523.0957c-1.291.0762-1.918.5127-1.918,1.292Z"/>
      <path d="M518.3141,342.2995v13.1084h-2.4121v-13.1084h2.4121Z"/>
      <path d="M531.4987,352.5954l.6846,1.7861c-.1904.1709-1.1406,1.2354-3.5908,1.2354-2.5078,0-4.8252-1.7295-4.8252-4.7305,0-3.0215,2.3936-4.8447,4.8633-4.8447,2.3174,0,3.2295.9307,3.4766,1.1777l-.665,1.8232c-.2852-.2656-1.1025-.9688-2.5264-.9688-1.4443,0-2.6035,1.0078-2.6035,2.6982s1.1592,2.792,2.7363,2.792c1.5762,0,2.4502-.9688,2.4502-.9688Z"/>
      <path d="M532.9254,350.8483c0-2.9072,2.166-4.8066,4.9961-4.8066,2.8115,0,4.9766,1.8994,4.9766,4.8066s-2.165,4.7686-4.9766,4.7686c-2.8301,0-4.9961-1.8623-4.9961-4.7686ZM537.9215,347.9987c-1.5957,0-2.4697,1.2158-2.4697,2.792,0,1.5771.874,2.8125,2.4697,2.8125,1.5576,0,2.4688-1.2354,2.4688-2.8125,0-1.5762-.9111-2.792-2.4688-2.792Z"/>
      <path d="M554.5641,348.0368c-1.2158,0-1.8428,1.0449-1.8428,2.6211v4.75h-2.4316v-5.168c0-1.2539-.3232-2.2031-1.4814-2.2031-1.2539,0-1.8047,1.1777-1.8047,2.6211v4.75h-2.4316v-9.1953h2.4316l-.0195,1.3867h.0566c.418-.8545,1.5391-1.5576,2.7363-1.5576,1.3301,0,2.127.5322,2.5645,1.748.6465-1.1211,1.6914-1.748,3.0205-1.748,2.4131,0,3.0771,1.71,3.0771,3.8184v5.5479h-2.4316v-5.1484c0-1.1211-.2461-2.2227-1.4434-2.2227Z"/>
      <path d="M570.6188,348.0368c-1.2158,0-1.8428,1.0449-1.8428,2.6211v4.75h-2.4316v-5.168c0-1.2539-.3232-2.2031-1.4814-2.2031-1.2539,0-1.8047,1.1777-1.8047,2.6211v4.75h-2.4316v-9.1953h2.4316l-.0195,1.3867h.0566c.418-.8545,1.5391-1.5576,2.7363-1.5576,1.3301,0,2.127.5322,2.5645,1.748.6465-1.1211,1.6914-1.748,3.0205-1.748,2.4131,0,3.0771,1.71,3.0771,3.8184v5.5479h-2.4316v-5.1484c0-1.1211-.2461-2.2227-1.4434-2.2227Z"/>
      <path d="M580.5758,353.5836c1.4629,0,2.0137-1.1582,2.0137-2.6973v-4.6738h2.4316v9.1953h-2.3555l-.0195-1.293c-.5312.9121-1.5195,1.4629-2.8496,1.4629-2.6406,0-3.2871-1.709-3.2871-3.9131v-5.4521h2.4316v4.9199c0,1.3682.2285,2.4512,1.6348,2.4512Z"/>
      <path d="M591.7096,348.0368c-1.501,0-2.0146,1.2539-2.0146,2.793v4.5781h-2.4316v-9.1953h2.4316l-.0176,1.3867h.0566c.4941-.9688,1.4238-1.5576,2.7539-1.5576,2.6406,0,3.3057,1.71,3.3057,3.9131v5.4531h-2.4316v-4.9209c0-1.3682-.2471-2.4502-1.6523-2.4502Z"/>
      <path d="M597.8082,343.401c0-.7783.6084-1.3486,1.4629-1.3486.8555,0,1.4629.5703,1.4629,1.3486,0,.7979-.6074,1.3486-1.4629,1.3486-.8545,0-1.4629-.5508-1.4629-1.3486ZM600.4879,346.2126v9.1953h-2.4316v-9.1953h2.4316Z"/>
      <path d="M606.7379,353.5836c.4941,0,.875-.1523.875-.1523l.1328,1.8809c-.1143.0381-.8359.3047-1.8623.3047-1.8799,0-2.6592-.8555-2.6592-3.249v-4.2549h-1.3682v-1.8809h1.3682v-2.6221h2.4121v2.6221h2.1279v1.8809h-2.1279v3.7227c0,1.4062.2471,1.748,1.1016,1.748Z"/>
      <path d="M608.9811,343.401c0-.7783.6084-1.3486,1.4629-1.3486s1.4629.5703,1.4629,1.3486c0,.7979-.6084,1.3486-1.4629,1.3486s-1.4629-.5508-1.4629-1.3486ZM611.6598,346.2126v9.1953h-2.4316v-9.1953h2.4316Z"/>
      <path d="M618.6139,353.7545c1.2344,0,2.3369-.5508,2.7734-.9307l.9502,1.3105c-.5137.5322-1.9004,1.4824-4.1416,1.4824-2.7744,0-4.8252-1.6914-4.8252-4.6543,0-2.9453,2.1465-4.9209,4.7676-4.9209,2.8311,0,4.541,1.8623,4.541,4.3125,0,.4756-.0381,1.2354-.0381,1.2354h-6.7627c.2275,1.4629,1.3477,2.165,2.7354,2.165ZM615.8395,350.0124h4.4082c-.0381-1.0068-.418-2.166-2.1279-2.166-1.4443,0-2.2041,1.0068-2.2803,2.166Z"/>
      <path d="M627.4488,347.8649c-.7979,0-1.1973.3047-1.1973.7422,0,.3984.3047.7207,1.3301,1.0439l.6465.209c2.0322.665,2.7539,1.3877,2.7539,2.7168,0,1.7471-1.3867,3.04-3.6475,3.04-1.4053,0-2.9824-.5703-3.7236-1.4258l.9883-1.6523c1.083.8359,2.0137,1.2539,2.793,1.2539.9121,0,1.3301-.3418,1.3301-.874,0-.4746-.3613-.7412-1.5391-1.1396l-1.0645-.3613c-1.3672-.4551-2.0703-1.2725-2.0703-2.6211,0-1.6719,1.5195-2.7549,3.2861-2.7549,1.6338,0,2.5459.4365,3.3057.9873l-1.0449,1.6152c-.5312-.3984-1.3105-.7793-2.1465-.7793Z"/>
      <path d="M232.444,365.2995v4.1025c0,.6846-.0381,1.084-.0381,1.084h.0566c.7988-1.0449,1.8438-1.4824,3.0781-1.4824,2.6787,0,4.3496,2.1094,4.3496,4.8066,0,2.6211-1.7285,4.7676-4.5205,4.7676-1.292,0-2.2988-.4551-3.0205-1.5h-.0381l-.0576,1.3301h-2.2412v-13.1084h2.4316ZM232.3678,373.8297c0,1.5381,1.0068,2.8867,2.5654,2.8867,1.5762,0,2.4883-1.3486,2.4883-2.8867,0-1.5967-.9883-2.8496-2.5645-2.8496-1.4629,0-2.4893,1.1201-2.4893,2.8496Z"/>
      <path d="M242.4381,369.2126l2.4316,6.5156,2.3936-6.5156h2.5273l-4.2754,10.4297c-.6641,1.6152-1.4238,2.3936-2.7168,2.3936-1.3105,0-2.165-.3799-2.165-.3799l.4932-1.8613s.6465.2275,1.1025.2275c.4746,0,.874-.1328,1.0635-.6084l.3994-.9492-3.7998-9.252h2.5459Z"/>
      <path d="M257.7125,370.8649c-.7969,0-1.1963.3047-1.1963.7422,0,.3984.3037.7207,1.3291,1.0439l.6465.209c2.0332.665,2.7539,1.3877,2.7539,2.7168,0,1.7471-1.3867,3.04-3.6465,3.04-1.4062,0-2.9824-.5703-3.7236-1.4258l.9873-1.6523c1.084.8359,2.0137,1.2539,2.793,1.2539.9121,0,1.3301-.3418,1.3301-.874,0-.4746-.3613-.7412-1.5391-1.1396l-1.0645-.3613c-1.3672-.4551-2.0703-1.2725-2.0703-2.6211,0-1.6719,1.5195-2.7549,3.2871-2.7549,1.6328,0,2.5449.4365,3.3047.9873l-1.0449,1.6152c-.5312-.3984-1.3105-.7793-2.1465-.7793Z"/>
      <path d="M266.6617,376.5836c1.4629,0,2.0137-1.1582,2.0137-2.6973v-4.6738h2.4316v9.1953h-2.3555l-.0195-1.293c-.5312.9121-1.5195,1.4629-2.8496,1.4629-2.6406,0-3.2861-1.709-3.2861-3.9131v-5.4521h2.4316v4.9199c0,1.3682.2275,2.4512,1.6338,2.4512Z"/>
      <path d="M275.8766,370.5231c.7412-1.1016,1.8438-1.5195,3.0586-1.5195,2.6982,0,4.3506,2.0898,4.3506,4.8262,0,2.6016-1.7285,4.748-4.5205,4.748-1.4062,0-2.1855-.4932-2.9453-1.4053l-.0381.0186c.0186.4375.0381.8555.0381,1.502v3.1914h-2.4121v-12.6719h2.4688l-.0371,1.292.0371.0186ZM275.7633,373.8297c0,1.5381,1.0068,2.8867,2.5645,2.8867,1.5762,0,2.4883-1.3486,2.4883-2.8867,0-1.5967-.9873-2.8496-2.5645-2.8496-1.4629,0-2.4883,1.1201-2.4883,2.8496Z"/>
      <path d="M287.5055,370.5231c.7402-1.1016,1.8418-1.5195,3.0586-1.5195,2.6973,0,4.3496,2.0898,4.3496,4.8262,0,2.6016-1.7285,4.748-4.5215,4.748-1.4053,0-2.1836-.4932-2.9443-1.4053l-.0381.0186c.0195.4375.0381.8555.0381,1.502v3.1914h-2.4131v-12.6719h2.4707l-.0391,1.292.0391.0186ZM287.3912,373.8297c0,1.5381,1.0068,2.8867,2.5645,2.8867,1.5771,0,2.4893-1.3486,2.4893-2.8867,0-1.5967-.9883-2.8496-2.5654-2.8496-1.4629,0-2.4883,1.1201-2.4883,2.8496Z"/>
      <path d="M296.0367,373.8483c0-2.9072,2.166-4.8066,4.9961-4.8066,2.8115,0,4.9766,1.8994,4.9766,4.8066s-2.165,4.7686-4.9766,4.7686c-2.8301,0-4.9961-1.8623-4.9961-4.7686ZM301.0328,370.9987c-1.5957,0-2.4697,1.2158-2.4697,2.792,0,1.5771.874,2.8125,2.4697,2.8125,1.5576,0,2.4688-1.2354,2.4688-2.8125,0-1.5762-.9111-2.792-2.4688-2.792Z"/>
      <path d="M310.0953,369.2126l-.0371,1.4824h.0566c.3613-.9883,1.2725-1.6533,2.2598-1.6533.627,0,.9697.1709.9697.1709l-.1709,2.1094h-.1143c-.2666-.0762-.6846-.1143-1.0068-.1143-.7227,0-1.2734.3037-1.6152.8926-.2275.4561-.3418,1.083-.3418,1.7861v4.5215h-2.4121v-9.1953h2.4121Z"/>
      <path d="M318.4742,376.5836c.4941,0,.874-.1523.874-.1523l.1328,1.8809c-.1143.0381-.8359.3047-1.8623.3047-1.8799,0-2.6592-.8555-2.6592-3.249v-4.2549h-1.3682v-1.8809h1.3682v-2.6221h2.4131v2.6221h2.127v1.8809h-2.127v3.7227c0,1.4062.2461,1.748,1.1016,1.748Z"/>
      <path d="M320.7164,366.401c0-.7783.6084-1.3486,1.4629-1.3486.8555,0,1.4629.5703,1.4629,1.3486,0,.7979-.6074,1.3486-1.4629,1.3486-.8545,0-1.4629-.5508-1.4629-1.3486ZM323.3961,369.2126v9.1953h-2.4316v-9.1953h2.4316Z"/>
      <path d="M330.1598,371.0368c-1.501,0-2.0137,1.2539-2.0137,2.793v4.5781h-2.4316v-9.1953h2.4316l-.0195,1.3867h.0566c.4941-.9688,1.4258-1.5576,2.7559-1.5576,2.6406,0,3.3047,1.71,3.3047,3.9131v5.4531h-2.4316v-4.9209c0-1.3682-.2461-2.4502-1.6523-2.4502Z"/>
      <path d="M340.1539,378.1032c-2.3184,0-4.2939-1.4814-4.2939-4.4072,0-2.5459,1.7861-4.6543,4.5215-4.6543,1.2354,0,2.2803.4561,2.9258,1.4443h.0381l-.0195-1.2734h2.4131v7.2949c0,2.0137-.418,3.1543-1.1973,3.9707-.7979.8359-1.9756,1.6152-4.1787,1.6152-2.1855,0-3.8184-1.0449-4.2754-1.3682l1.0078-1.6904c.5879.418,2.0898,1.082,3.2676,1.082,1.3105,0,1.9941-.418,2.3359-.8164s.627-1.1592.627-2.1855v-.4551h-.0371c-.627.9492-1.7295,1.4434-3.1348,1.4434ZM340.8756,370.9606c-1.5967,0-2.5459,1.1777-2.5459,2.6787,0,1.4053.9121,2.5645,2.5078,2.5645,1.748,0,2.6211-1.1592,2.6211-2.5645,0-1.3301-.9873-2.6787-2.583-2.6787Z"/>
      <path d="M358.7164,376.9635c-.7412,1.1777-1.8809,1.6533-3.1543,1.6533-2.6973,0-4.3496-2.0898-4.3496-4.8262,0-2.6016,1.7285-4.749,4.5215-4.749,1.2344,0,2.2793.4561,2.9258,1.4443h.0371c-.0195-.418-.0195-.9121-.0195-1.5586v-3.6279h2.4141v13.1084h-2.2988l-.0195-1.4443h-.0566ZM358.735,373.7907c0-1.5391-1.0068-2.8867-2.5645-2.8867-1.5771,0-2.4893,1.3477-2.4893,2.8867,0,1.5957.9883,2.8496,2.5645,2.8496,1.4629,0,2.4893-1.1211,2.4893-2.8496Z"/>
      <path d="M363.2574,366.401c0-.7783.6084-1.3486,1.4629-1.3486.8555,0,1.4629.5703,1.4629,1.3486,0,.7979-.6074,1.3486-1.4629,1.3486-.8545,0-1.4629-.5508-1.4629-1.3486ZM365.9371,369.2126v9.1953h-2.4316v-9.1953h2.4316Z"/>
      <path d="M371.4088,370.8649c-.7979,0-1.1963.3047-1.1963.7422,0,.3984.3027.7207,1.3291,1.0439l.6455.209c2.0332.665,2.7549,1.3877,2.7549,2.7168,0,1.7471-1.3867,3.04-3.6475,3.04-1.4062,0-2.9824-.5703-3.7227-1.4258l.9873-1.6523c1.083.8359,2.0137,1.2539,2.792,1.2539.9121,0,1.3301-.3418,1.3301-.874,0-.4746-.3613-.7412-1.5391-1.1396l-1.0635-.3613c-1.3682-.4551-2.0703-1.2725-2.0703-2.6211,0-1.6719,1.5195-2.7549,3.2861-2.7549,1.6338,0,2.5459.4365,3.3057.9873l-1.0449,1.6152c-.5322-.3984-1.3105-.7793-2.1465-.7793Z"/>
      <path d="M379.0856,378.6169c-1.7861,0-3.2305-.9688-3.2305-2.8887,0-1.918,1.8809-2.6592,3.7812-2.792l2.2031-.1514v-.248c0-1.1777-.7793-1.7285-2.0508-1.7285-1.2168,0-2.2236.4561-2.623.7598l-.7402-1.5576c.7031-.418,1.9941-.9688,3.5898-.9688,1.6348,0,2.5654.418,3.249,1.0635.665.6465,1.0068,1.4824,1.0068,3.04v5.2627h-2.3359l-.0391-1.0645c-.3789.665-1.4434,1.2734-2.8105,1.2734ZM378.2867,375.653c0,.7783.5898,1.3105,1.5957,1.3105.9502,0,1.6533-.5508,1.9766-1.0068v-1.6914l-1.6533.0957c-1.292.0762-1.9189.5127-1.9189,1.292Z"/>
      <path d="M389.5153,370.8649c-.7969,0-1.1963.3047-1.1963.7422,0,.3984.3037.7207,1.3291,1.0439l.6465.209c2.0332.665,2.7539,1.3877,2.7539,2.7168,0,1.7471-1.3867,3.04-3.6465,3.04-1.4062,0-2.9824-.5703-3.7236-1.4258l.9873-1.6523c1.084.8359,2.0137,1.2539,2.793,1.2539.9121,0,1.3301-.3418,1.3301-.874,0-.4746-.3613-.7412-1.5391-1.1396l-1.0645-.3613c-1.3672-.4551-2.0703-1.2725-2.0703-2.6211,0-1.6719,1.5195-2.7549,3.2871-2.7549,1.6328,0,2.5449.4365,3.3047.9873l-1.0449,1.6152c-.5312-.3984-1.3105-.7793-2.1465-.7793Z"/>
      <path d="M398.5026,376.5836c.4941,0,.874-.1523.874-.1523l.1328,1.8809c-.1133.0381-.8359.3047-1.8613.3047-1.8809,0-2.6602-.8555-2.6602-3.249v-4.2549h-1.3672v-1.8809h1.3672v-2.6221h2.4131v2.6221h2.1279v1.8809h-2.1279v3.7227c0,1.4062.2471,1.748,1.1016,1.748Z"/>
      <path d="M405.5524,376.7545c1.2344,0,2.3359-.5508,2.7734-.9307l.9492,1.3105c-.5127.5322-1.8994,1.4824-4.1406,1.4824-2.7744,0-4.8262-1.6914-4.8262-4.6543,0-2.9453,2.1465-4.9209,4.7686-4.9209,2.8311,0,4.54,1.8623,4.54,4.3125,0,.4756-.0371,1.2354-.0371,1.2354h-6.7637c.2285,1.4629,1.3486,2.165,2.7363,2.165ZM402.778,373.0124h4.4072c-.0371-1.0068-.418-2.166-2.127-2.166-1.4443,0-2.2041,1.0068-2.2803,2.166Z"/>
      <path d="M413.6461,369.2126l-.0381,1.4824h.0566c.3613-.9883,1.2725-1.6533,2.2607-1.6533.627,0,.9688.1709.9688.1709l-.1709,2.1094h-.1143c-.2656-.0762-.6836-.1143-1.0059-.1143-.7227,0-1.2734.3037-1.6152.8926-.2285.4561-.3418,1.083-.3418,1.7861v4.5215h-2.4131v-9.1953h2.4131Z"/>
      <path d="M424.2672,369.2126l-.0391,1.4824h.0566c.3613-.9883,1.2734-1.6533,2.2617-1.6533.627,0,.9688.1709.9688.1709l-.1719,2.1094h-.1133c-.2656-.0762-.6836-.1143-1.0068-.1143-.7217,0-1.2725.3037-1.6143.8926-.2285.4561-.3418,1.083-.3418,1.7861v4.5215h-2.4141v-9.1953h2.4141Z"/>
      <path d="M433.2535,376.7545c1.2344,0,2.3359-.5508,2.7734-.9307l.9492,1.3105c-.5127.5322-1.8994,1.4824-4.1406,1.4824-2.7744,0-4.8262-1.6914-4.8262-4.6543,0-2.9453,2.1465-4.9209,4.7686-4.9209,2.8311,0,4.54,1.8623,4.54,4.3125,0,.4756-.0371,1.2354-.0371,1.2354h-6.7637c.2285,1.4629,1.3486,2.165,2.7363,2.165ZM430.4791,373.0124h4.4072c-.0371-1.0068-.418-2.166-2.127-2.166-1.4443,0-2.2041,1.0068-2.2803,2.166Z"/>
      <path d="M441.442,365.2995v13.1084h-2.4131v-13.1084h2.4131Z"/>
      <path d="M443.608,366.401c0-.7783.6084-1.3486,1.4629-1.3486s1.4629.5703,1.4629,1.3486c0,.7979-.6084,1.3486-1.4629,1.3486s-1.4629-.5508-1.4629-1.3486ZM446.2867,369.2126v9.1953h-2.4316v-9.1953h2.4316Z"/>
      <path d="M453.2408,376.7545c1.2344,0,2.3369-.5508,2.7734-.9307l.9502,1.3105c-.5137.5322-1.9004,1.4824-4.1416,1.4824-2.7744,0-4.8252-1.6914-4.8252-4.6543,0-2.9453,2.1465-4.9209,4.7676-4.9209,2.8311,0,4.541,1.8623,4.541,4.3125,0,.4756-.0381,1.2354-.0381,1.2354h-6.7627c.2275,1.4629,1.3477,2.165,2.7354,2.165ZM450.4664,373.0124h4.4082c-.0381-1.0068-.418-2.166-2.1279-2.166-1.4443,0-2.2041,1.0068-2.2803,2.166Z"/>
      <path d="M458.0485,371.1129v-1.8809h1.2539v-.7031c0-1.1211.3037-2.0332.7793-2.5459.4746-.5508,1.2344-.9111,2.2979-.9111,1.1211,0,1.8047.1895,1.8047.1895l-.1514,1.748s-.5322-.1523-1.0449-.1523c-1.0449,0-1.292.7031-1.292,1.5762v.7988h2.1084v1.8809h-2.0703v7.2949h-2.4316v-7.2949h-1.2539Z"/>
      <path d="M473.0006,376.7545c1.2344,0,2.3369-.5508,2.7734-.9307l.9502,1.3105c-.5137.5322-1.9004,1.4824-4.1416,1.4824-2.7744,0-4.8252-1.6914-4.8252-4.6543,0-2.9453,2.1465-4.9209,4.7676-4.9209,2.8311,0,4.541,1.8623,4.541,4.3125,0,.4756-.0381,1.2354-.0381,1.2354h-6.7627c.2275,1.4629,1.3477,2.165,2.7354,2.165ZM470.2262,373.0124h4.4082c-.0381-1.0068-.418-2.166-2.1279-2.166-1.4443,0-2.2041,1.0068-2.2803,2.166Z"/>
      <path d="M481.4938,371.1129v7.2949h-2.4316v-7.2949h-1.2539v-1.8809h1.2539v-.7031c0-1.1211.3037-2.0332.7793-2.5459.4746-.5508,1.2344-.9111,2.2979-.9111,1.1211,0,1.8047.1895,1.8047.1895l-.1514,1.748s-.5322-.1523-1.0449-.1523c-1.0449,0-1.292.7031-1.292,1.5762v.7988h3.3057v-.7031c0-1.1211.3223-2.0137.7793-2.5459.4746-.5508,1.2344-.9111,2.2979-.9111,1.1211,0,1.8047.1895,1.8047.1895l-.1514,1.748s-.5322-.1523-1.0449-.1523c-1.0449,0-1.292.7031-1.292,1.5762v.7988h2.1084v1.8809h-2.0703v7.2949h-2.4316v-7.2949h-3.2676Z"/>
      <path d="M489.4547,373.8483c0-2.9072,2.166-4.8066,4.9971-4.8066,2.8115,0,4.9775,1.8994,4.9775,4.8066s-2.166,4.7686-4.9775,4.7686c-2.8311,0-4.9971-1.8623-4.9971-4.7686ZM494.4518,370.9987c-1.5957,0-2.4697,1.2158-2.4697,2.792,0,1.5771.874,2.8125,2.4697,2.8125,1.5576,0,2.4697-1.2354,2.4697-2.8125,0-1.5762-.9121-2.792-2.4697-2.792Z"/>
      <path d="M503.5153,369.2126l-.0391,1.4824h.0566c.3613-.9883,1.2734-1.6533,2.2617-1.6533.627,0,.9688.1709.9688.1709l-.1719,2.1094h-.1133c-.2656-.0762-.6836-.1143-1.0068-.1143-.7217,0-1.2725.3037-1.6143.8926-.2285.4561-.3418,1.083-.3418,1.7861v4.5215h-2.4141v-9.1953h2.4141Z"/>
      <path d="M511.8932,376.5836c.4941,0,.874-.1523.874-.1523l.1328,1.8809c-.1133.0381-.8359.3047-1.8613.3047-1.8809,0-2.6602-.8555-2.6602-3.249v-4.2549h-1.3672v-1.8809h1.3672v-2.6221h2.4131v2.6221h2.1279v1.8809h-2.1279v3.7227c0,1.4062.2471,1.748,1.1016,1.748Z"/>
      <path d="M517.4606,370.8649c-.7979,0-1.1973.3047-1.1973.7422,0,.3984.3047.7207,1.3301,1.0439l.6465.209c2.0322.665,2.7539,1.3877,2.7539,2.7168,0,1.7471-1.3867,3.04-3.6475,3.04-1.4053,0-2.9824-.5703-3.7236-1.4258l.9883-1.6523c1.083.8359,2.0137,1.2539,2.793,1.2539.9121,0,1.3301-.3418,1.3301-.874,0-.4746-.3613-.7412-1.5391-1.1396l-1.0645-.3613c-1.3672-.4551-2.0703-1.2725-2.0703-2.6211,0-1.6719,1.5195-2.7549,3.2861-2.7549,1.6338,0,2.5459.4365,3.3057.9873l-1.0449,1.6152c-.5312-.3984-1.3105-.7793-2.1465-.7793Z"/>
      <path d="M526.1442,376.0133l-1.9004,5.0537h-1.957l1.4629-5.0537h2.3945Z"/>
      <path d="M533.6305,369.2126l2.4883,6.6309,2.4883-6.6309h2.4316l-3.7803,9.1953h-2.375l-3.7803-9.1953h2.5273Z"/>
      <path d="M541.5338,373.8483c0-2.9072,2.166-4.8066,4.9971-4.8066,2.8105,0,4.9766,1.8994,4.9766,4.8066s-2.166,4.7686-4.9766,4.7686c-2.8311,0-4.9971-1.8623-4.9971-4.7686ZM546.5309,370.9987c-1.5967,0-2.4707,1.2158-2.4707,2.792,0,1.5771.874,2.8125,2.4707,2.8125,1.5566,0,2.4688-1.2354,2.4688-2.8125,0-1.5762-.9121-2.792-2.4688-2.792Z"/>
      <path d="M555.6881,365.2995v13.1084h-2.4131v-13.1084h2.4131Z"/>
      <path d="M561.9196,376.5836c1.4629,0,2.0137-1.1582,2.0137-2.6973v-4.6738h2.4316v9.1953h-2.3555l-.0195-1.293c-.5312.9121-1.5195,1.4629-2.8496,1.4629-2.6406,0-3.2861-1.709-3.2861-3.9131v-5.4521h2.4316v4.9199c0,1.3682.2275,2.4512,1.6338,2.4512Z"/>
      <path d="M573.0543,371.0368c-1.502,0-2.0146,1.2539-2.0146,2.793v4.5781h-2.4316v-9.1953h2.4316l-.0186,1.3867h.0566c.4941-.9688,1.4248-1.5576,2.7549-1.5576,2.6406,0,3.3057,1.71,3.3057,3.9131v5.4531h-2.4316v-4.9209c0-1.3682-.2471-2.4502-1.6523-2.4502Z"/>
      <path d="M583.2565,376.5836c.4941,0,.874-.1523.874-.1523l.1328,1.8809c-.1133.0381-.8359.3047-1.8613.3047-1.8809,0-2.6602-.8555-2.6602-3.249v-4.2549h-1.3672v-1.8809h1.3672v-2.6221h2.4131v2.6221h2.1279v1.8809h-2.1279v3.7227c0,1.4062.2471,1.748,1.1016,1.748Z"/>
      <path d="M590.3063,376.7545c1.2344,0,2.3359-.5508,2.7734-.9307l.9492,1.3105c-.5127.5322-1.8994,1.4824-4.1406,1.4824-2.7744,0-4.8262-1.6914-4.8262-4.6543,0-2.9453,2.1465-4.9209,4.7686-4.9209,2.8311,0,4.54,1.8623,4.54,4.3125,0,.4756-.0371,1.2354-.0371,1.2354h-6.7637c.2285,1.4629,1.3486,2.165,2.7363,2.165ZM587.5319,373.0124h4.4072c-.0371-1.0068-.418-2.166-2.127-2.166-1.4443,0-2.2041,1.0068-2.2803,2.166Z"/>
      <path d="M600.7174,376.7545c1.2344,0,2.3369-.5508,2.7734-.9307l.9502,1.3105c-.5137.5322-1.9004,1.4824-4.1416,1.4824-2.7744,0-4.8252-1.6914-4.8252-4.6543,0-2.9453,2.1465-4.9209,4.7676-4.9209,2.8311,0,4.541,1.8623,4.541,4.3125,0,.4756-.0381,1.2354-.0381,1.2354h-6.7627c.2275,1.4629,1.3477,2.165,2.7354,2.165ZM597.943,373.0124h4.4082c-.0381-1.0068-.418-2.166-2.1279-2.166-1.4443,0-2.2041,1.0068-2.2803,2.166Z"/>
      <path d="M608.8121,369.2126l-.0391,1.4824h.0566c.3613-.9883,1.2734-1.6533,2.2617-1.6533.627,0,.9688.1709.9688.1709l-.1719,2.1094h-.1133c-.2656-.0762-.6836-.1143-1.0068-.1143-.7217,0-1.2725.3037-1.6143.8926-.2285.4561-.3418,1.083-.3418,1.7861v4.5215h-2.4141v-9.1953h2.4141Z"/>
      <path d="M613.0865,366.401c0-.7783.6084-1.3486,1.4629-1.3486s1.4629.5703,1.4629,1.3486c0,.7979-.6084,1.3486-1.4629,1.3486s-1.4629-.5508-1.4629-1.3486ZM615.7653,369.2126v9.1953h-2.4316v-9.1953h2.4316Z"/>
      <path d="M622.5289,371.0368c-1.5,0-2.0137,1.2539-2.0137,2.793v4.5781h-2.4316v-9.1953h2.4316l-.0186,1.3867h.0566c.4941-.9688,1.4248-1.5576,2.7549-1.5576,2.6406,0,3.3047,1.71,3.3047,3.9131v5.4531h-2.4316v-4.9209c0-1.3682-.2461-2.4502-1.6523-2.4502Z"/>
      <path d="M632.5231,378.1032c-2.3174,0-4.293-1.4814-4.293-4.4072,0-2.5459,1.7852-4.6543,4.5215-4.6543,1.2344,0,2.2793.4561,2.9258,1.4443h.0371l-.0195-1.2734h2.4141v7.2949c0,2.0137-.418,3.1543-1.1973,3.9707-.7988.8359-1.9766,1.6152-4.1797,1.6152-2.1846,0-3.8184-1.0449-4.2744-1.3682l1.0068-1.6904c.5889.418,2.0898,1.082,3.2676,1.082,1.3105,0,1.9941-.418,2.3369-.8164.3418-.3984.626-1.1592.626-2.1855v-.4551h-.0371c-.627.9492-1.7285,1.4434-3.1348,1.4434ZM633.2457,370.9606c-1.5967,0-2.5469,1.1777-2.5469,2.6787,0,1.4053.9121,2.5645,2.5078,2.5645,1.748,0,2.6221-1.1592,2.6221-2.5645,0-1.3301-.9873-2.6787-2.583-2.6787Z"/>
      <path d="M229.0436,394.1129v-1.8809h1.2539v-.7031c0-1.1211.3037-2.0332.7783-2.5459.4746-.5508,1.2354-.9111,2.2988-.9111,1.1211,0,1.8047.1895,1.8047.1895l-.1523,1.748s-.5312-.1523-1.0449-.1523c-1.0439,0-1.291.7031-1.291,1.5762v.7988h2.1084v1.8809h-2.0703v7.2949h-2.4316v-7.2949h-1.2539Z"/>
      <path d="M234.9899,396.8483c0-2.9072,2.166-4.8066,4.9971-4.8066,2.8115,0,4.9775,1.8994,4.9775,4.8066s-2.166,4.7686-4.9775,4.7686c-2.8311,0-4.9971-1.8623-4.9971-4.7686ZM239.9869,393.9987c-1.5957,0-2.4697,1.2158-2.4697,2.792,0,1.5771.874,2.8125,2.4697,2.8125,1.5576,0,2.4697-1.2354,2.4697-2.8125,0-1.5762-.9121-2.792-2.4697-2.792Z"/>
      <path d="M249.0504,392.2126l-.0391,1.4824h.0566c.3613-.9883,1.2734-1.6533,2.2617-1.6533.627,0,.9688.1709.9688.1709l-.1719,2.1094h-.1133c-.2656-.0762-.6836-.1143-1.0068-.1143-.7217,0-1.2725.3037-1.6143.8926-.2285.4561-.3418,1.083-.3418,1.7861v4.5215h-2.4141v-9.1953h2.4141Z"/>
      <path d="M259.7848,393.5231c.7402-1.1016,1.8428-1.5195,3.0586-1.5195,2.6973,0,4.3496,2.0898,4.3496,4.8262,0,2.6016-1.7285,4.748-4.5205,4.748-1.4053,0-2.1846-.4932-2.9443-1.4053l-.0391.0186c.0195.4375.0391.8555.0391,1.502v3.1914h-2.4131v-12.6719h2.4697l-.0381,1.292.0381.0186ZM259.6715,396.8297c0,1.5381,1.0059,2.8867,2.5645,2.8867,1.5762,0,2.4883-1.3486,2.4883-2.8867,0-1.5967-.9883-2.8496-2.5645-2.8496-1.4629,0-2.4883,1.1201-2.4883,2.8496Z"/>
      <path d="M271.2985,392.2126l-.0371,1.4824h.0566c.3613-.9883,1.2725-1.6533,2.2598-1.6533.627,0,.9697.1709.9697.1709l-.1709,2.1094h-.1143c-.2666-.0762-.6846-.1143-1.0068-.1143-.7227,0-1.2734.3037-1.6152.8926-.2275.4561-.3418,1.083-.3418,1.7861v4.5215h-2.4121v-9.1953h2.4121Z"/>
      <path d="M280.2858,399.7545c1.2344,0,2.3369-.5508,2.7734-.9307l.9502,1.3105c-.5137.5322-1.9004,1.4824-4.1416,1.4824-2.7744,0-4.8252-1.6914-4.8252-4.6543,0-2.9453,2.1465-4.9209,4.7676-4.9209,2.8311,0,4.541,1.8623,4.541,4.3125,0,.4756-.0381,1.2354-.0381,1.2354h-6.7627c.2275,1.4629,1.3477,2.165,2.7354,2.165ZM277.5113,396.0124h4.4082c-.0381-1.0068-.418-2.166-2.1279-2.166-1.4443,0-2.2041,1.0068-2.2803,2.166Z"/>
      <path d="M288.4938,393.5231c.7402-1.1016,1.8428-1.5195,3.0586-1.5195,2.6973,0,4.3496,2.0898,4.3496,4.8262,0,2.6016-1.7285,4.748-4.5205,4.748-1.4053,0-2.1846-.4932-2.9443-1.4053l-.0391.0186c.0195.4375.0391.8555.0391,1.502v3.1914h-2.4131v-12.6719h2.4697l-.0381,1.292.0381.0186ZM288.3805,396.8297c0,1.5381,1.0059,2.8867,2.5645,2.8867,1.5762,0,2.4883-1.3486,2.4883-2.8867,0-1.5967-.9883-2.8496-2.5645-2.8496-1.4629,0-2.4883,1.1201-2.4883,2.8496Z"/>
      <path d="M300.1217,401.6169c-1.7861,0-3.2295-.9688-3.2295-2.8887,0-1.918,1.8809-2.6592,3.7803-2.792l2.2041-.1514v-.248c0-1.1777-.7793-1.7285-2.0518-1.7285-1.2158,0-2.2227.4561-2.6221.7598l-.7402-1.5576c.7031-.418,1.9941-.9688,3.5898-.9688,1.6338,0,2.5645.418,3.248,1.0635.666.6465,1.0078,1.4824,1.0078,3.04v5.2627h-2.3369l-.0381-1.0645c-.3799.665-1.4434,1.2734-2.8115,1.2734ZM299.3238,398.653c0,.7783.5889,1.3105,1.5957,1.3105.9492,0,1.6523-.5508,1.9756-1.0068v-1.6914l-1.6533.0957c-1.291.0762-1.918.5127-1.918,1.292Z"/>
      <path d="M309.8121,392.2126l-.0391,1.4824h.0566c.3613-.9883,1.2734-1.6533,2.2617-1.6533.627,0,.9688.1709.9688.1709l-.1719,2.1094h-.1133c-.2656-.0762-.6836-.1143-1.0068-.1143-.7217,0-1.2725.3037-1.6143.8926-.2285.4561-.3418,1.083-.3418,1.7861v4.5215h-2.4141v-9.1953h2.4141Z"/>
      <path d="M318.7985,399.7545c1.2344,0,2.3359-.5508,2.7734-.9307l.9492,1.3105c-.5117.5322-1.8984,1.4824-4.1406,1.4824-2.7734,0-4.8262-1.6914-4.8262-4.6543,0-2.9453,2.1475-4.9209,4.7695-4.9209,2.8301,0,4.54,1.8623,4.54,4.3125,0,.4756-.0381,1.2354-.0381,1.2354h-6.7637c.2285,1.4629,1.3496,2.165,2.7363,2.165ZM316.025,396.0124h4.4072c-.0381-1.0068-.418-2.166-2.1279-2.166-1.4434,0-2.2031,1.0068-2.2793,2.166Z"/>
      <path d="M331.5084,399.9635c-.7412,1.1777-1.8799,1.6533-3.1533,1.6533-2.6973,0-4.3506-2.0898-4.3506-4.8262,0-2.6016,1.7295-4.749,4.5215-4.749,1.2354,0,2.2803.4561,2.9258,1.4443h.0381c-.0195-.418-.0195-.9121-.0195-1.5586v-3.6279h2.4131v13.1084h-2.2988l-.0186-1.4443h-.0576ZM331.527,396.7907c0-1.5391-1.0059-2.8867-2.5645-2.8867-1.5762,0-2.4883,1.3477-2.4883,2.8867,0,1.5957.9883,2.8496,2.5645,2.8496,1.4629,0,2.4883-1.1211,2.4883-2.8496Z"/>
      <path d="M340.6676,394.0368c-1.502,0-2.0146,1.2539-2.0146,2.793v4.5781h-2.4316v-9.1953h2.4316l-.0186,1.3867h.0566c.4941-.9688,1.4248-1.5576,2.7549-1.5576,2.6406,0,3.3057,1.71,3.3057,3.9131v5.4531h-2.4316v-4.9209c0-1.3682-.2471-2.4502-1.6523-2.4502Z"/>
      <path d="M351.5729,399.7545c1.2344,0,2.3369-.5508,2.7734-.9307l.9502,1.3105c-.5137.5322-1.9004,1.4824-4.1416,1.4824-2.7744,0-4.8252-1.6914-4.8252-4.6543,0-2.9453,2.1465-4.9209,4.7676-4.9209,2.8311,0,4.541,1.8623,4.541,4.3125,0,.4756-.0381,1.2354-.0381,1.2354h-6.7627c.2275,1.4629,1.3477,2.165,2.7354,2.165ZM348.7985,396.0124h4.4082c-.0381-1.0068-.418-2.166-2.1279-2.166-1.4443,0-2.2041,1.0068-2.2803,2.166Z"/>
      <path d="M360.4078,393.8649c-.7979,0-1.1973.3047-1.1973.7422,0,.3984.3047.7207,1.3301,1.0439l.6465.209c2.0322.665,2.7539,1.3877,2.7539,2.7168,0,1.7471-1.3867,3.04-3.6475,3.04-1.4053,0-2.9824-.5703-3.7236-1.4258l.9883-1.6523c1.083.8359,2.0137,1.2539,2.793,1.2539.9121,0,1.3301-.3418,1.3301-.874,0-.4746-.3613-.7412-1.5391-1.1396l-1.0645-.3613c-1.3672-.4551-2.0703-1.2725-2.0703-2.6211,0-1.6719,1.5195-2.7549,3.2861-2.7549,1.6338,0,2.5459.4365,3.3057.9873l-1.0449,1.6152c-.5312-.3984-1.3105-.7793-2.1465-.7793Z"/>
      <path d="M368.4254,393.8649c-.7969,0-1.1963.3047-1.1963.7422,0,.3984.3037.7207,1.3291,1.0439l.6465.209c2.0332.665,2.7539,1.3877,2.7539,2.7168,0,1.7471-1.3867,3.04-3.6465,3.04-1.4062,0-2.9824-.5703-3.7236-1.4258l.9873-1.6523c1.084.8359,2.0137,1.2539,2.793,1.2539.9121,0,1.3301-.3418,1.3301-.874,0-.4746-.3613-.7412-1.5391-1.1396l-1.0645-.3613c-1.3672-.4551-2.0703-1.2725-2.0703-2.6211,0-1.6719,1.5195-2.7549,3.2871-2.7549,1.6328,0,2.5449.4365,3.3047.9873l-1.0449,1.6152c-.5312-.3984-1.3105-.7793-2.1465-.7793Z"/>
      <path d="M379.7692,393.5231c.7402-1.1016,1.8418-1.5195,3.0586-1.5195,2.6973,0,4.3496,2.0898,4.3496,4.8262,0,2.6016-1.7285,4.748-4.5215,4.748-1.4053,0-2.1836-.4932-2.9443-1.4053l-.0381.0186c.0195.4375.0381.8555.0381,1.502v3.1914h-2.4131v-12.6719h2.4707l-.0391,1.292.0391.0186ZM379.6549,396.8297c0,1.5381,1.0068,2.8867,2.5645,2.8867,1.5771,0,2.4893-1.3486,2.4893-2.8867,0-1.5967-.9883-2.8496-2.5654-2.8496-1.4629,0-2.4883,1.1201-2.4883,2.8496Z"/>
      <path d="M391.2828,392.2126l-.0381,1.4824h.0566c.3613-.9883,1.2725-1.6533,2.2607-1.6533.627,0,.9688.1709.9688.1709l-.1709,2.1094h-.1143c-.2656-.0762-.6836-.1143-1.0059-.1143-.7227,0-1.2734.3037-1.6152.8926-.2285.4561-.3418,1.083-.3418,1.7861v4.5215h-2.4131v-9.1953h2.4131Z"/>
      <path d="M395.0641,396.8483c0-2.9072,2.166-4.8066,4.9961-4.8066,2.8125,0,4.9775,1.8994,4.9775,4.8066s-2.165,4.7686-4.9775,4.7686c-2.8301,0-4.9961-1.8623-4.9961-4.7686ZM400.0602,393.9987c-1.5957,0-2.4688,1.2158-2.4688,2.792,0,1.5771.873,2.8125,2.4688,2.8125,1.5586,0,2.4697-1.2354,2.4697-2.8125,0-1.5762-.9111-2.792-2.4697-2.792Z"/>
      <path d="M410.4342,401.1032c-2.3174,0-4.2939-1.4814-4.2939-4.4072,0-2.5459,1.7861-4.6543,4.5215-4.6543,1.2354,0,2.2803.4561,2.9258,1.4443h.0381l-.0186-1.2734h2.4121v7.2949c0,2.0137-.418,3.1543-1.1973,3.9707-.7969.8359-1.9746,1.6152-4.1787,1.6152-2.1846,0-3.8184-1.0449-4.2744-1.3682l1.0068-1.6904c.5889.418,2.0898,1.082,3.2676,1.082,1.3115,0,1.9951-.418,2.3369-.8164s.627-1.1592.627-2.1855v-.4551h-.0381c-.627.9492-1.7295,1.4434-3.1348,1.4434ZM411.1559,393.9606c-1.5957,0-2.5449,1.1777-2.5449,2.6787,0,1.4053.9121,2.5645,2.5078,2.5645,1.7471,0,2.6211-1.1592,2.6211-2.5645,0-1.3301-.9883-2.6787-2.584-2.6787Z"/>
      <path d="M420.7135,392.2126l-.0381,1.4824h.0566c.3613-.9883,1.2734-1.6533,2.2607-1.6533.627,0,.9697.1709.9697.1709l-.1719,2.1094h-.1133c-.2666-.0762-.6846-.1143-1.0078-.1143-.7217,0-1.2725.3037-1.6143.8926-.2275.4561-.3418,1.083-.3418,1.7861v4.5215h-2.4131v-9.1953h2.4131Z"/>
      <path d="M427.3063,401.6169c-1.7852,0-3.2295-.9688-3.2295-2.8887,0-1.918,1.8809-2.6592,3.7803-2.792l2.2031-.1514v-.248c0-1.1777-.7783-1.7285-2.0508-1.7285-1.2158,0-2.2227.4561-2.6221.7598l-.7412-1.5576c.7031-.418,1.9951-.9688,3.5908-.9688,1.6338,0,2.5654.418,3.249,1.0635.6641.6465,1.0059,1.4824,1.0059,3.04v5.2627h-2.3359l-.0381-1.0645c-.3799.665-1.4443,1.2734-2.8115,1.2734ZM426.5084,398.653c0,.7783.5889,1.3105,1.5957,1.3105.9502,0,1.6533-.5508,1.9756-1.0068v-1.6914l-1.6523.0957c-1.292.0762-1.9189.5127-1.9189,1.292Z"/>
      <path d="M444.5758,394.0368c-1.2158,0-1.8428,1.0449-1.8428,2.6211v4.75h-2.4316v-5.168c0-1.2539-.3232-2.2031-1.4814-2.2031-1.2539,0-1.8047,1.1777-1.8047,2.6211v4.75h-2.4316v-9.1953h2.4316l-.0195,1.3867h.0566c.418-.8545,1.5391-1.5576,2.7363-1.5576,1.3301,0,2.127.5322,2.5645,1.748.6465-1.1211,1.6914-1.748,3.0205-1.748,2.4131,0,3.0771,1.71,3.0771,3.8184v5.5479h-2.4316v-5.1484c0-1.1211-.2461-2.2227-1.4434-2.2227Z"/>
      <path d="M453.7916,393.8649c-.7979,0-1.1963.3047-1.1963.7422,0,.3984.3027.7207,1.3291,1.0439l.6455.209c2.0332.665,2.7549,1.3877,2.7549,2.7168,0,1.7471-1.3867,3.04-3.6475,3.04-1.4062,0-2.9824-.5703-3.7227-1.4258l.9873-1.6523c1.083.8359,2.0137,1.2539,2.792,1.2539.9121,0,1.3301-.3418,1.3301-.874,0-.4746-.3613-.7412-1.5391-1.1396l-1.0635-.3613c-1.3682-.4551-2.0703-1.2725-2.0703-2.6211,0-1.6719,1.5195-2.7549,3.2861-2.7549,1.6338,0,2.5459.4365,3.3057.9873l-1.0449,1.6152c-.5322-.3984-1.3105-.7793-2.1465-.7793Z"/>
      <path d="M462.4742,399.0133l-1.8994,5.0537h-1.9561l1.4619-5.0537h2.3936Z"/>
      <path d="M467.984,396.8483c0-2.9072,2.166-4.8066,4.9971-4.8066,2.8115,0,4.9775,1.8994,4.9775,4.8066s-2.166,4.7686-4.9775,4.7686c-2.8311,0-4.9971-1.8623-4.9971-4.7686ZM472.9811,393.9987c-1.5957,0-2.4697,1.2158-2.4697,2.792,0,1.5771.874,2.8125,2.4697,2.8125,1.5576,0,2.4697-1.2354,2.4697-2.8125,0-1.5762-.9121-2.792-2.4697-2.792Z"/>
      <path d="M482.0446,392.2126l-.0391,1.4824h.0566c.3613-.9883,1.2734-1.6533,2.2617-1.6533.627,0,.9688.1709.9688.1709l-.1719,2.1094h-.1133c-.2656-.0762-.6836-.1143-1.0068-.1143-.7217,0-1.2725.3037-1.6143.8926-.2285.4561-.3418,1.083-.3418,1.7861v4.5215h-2.4141v-9.1953h2.4141Z"/>
      <path d="M498.8571,395.9547v5.4531h-2.4316v-4.9209c0-1.3682-.2461-2.4502-1.6523-2.4502-1.5,0-2.0137,1.2539-2.0137,2.793v4.5781h-2.4121v-13.1084h2.4121v5.2998h.0381c.4932-.9688,1.4248-1.5576,2.7549-1.5576,2.6406,0,3.3047,1.71,3.3047,3.9131Z"/>
      <path d="M505.6793,399.7545c1.2344,0,2.3359-.5508,2.7734-.9307l.9492,1.3105c-.5117.5322-1.8984,1.4824-4.1406,1.4824-2.7734,0-4.8262-1.6914-4.8262-4.6543,0-2.9453,2.1475-4.9209,4.7695-4.9209,2.8301,0,4.54,1.8623,4.54,4.3125,0,.4756-.0381,1.2354-.0381,1.2354h-6.7637c.2285,1.4629,1.3496,2.165,2.7363,2.165ZM502.9059,396.0124h4.4072c-.0381-1.0068-.418-2.166-2.1279-2.166-1.4434,0-2.2031,1.0068-2.2793,2.166Z"/>
      <path d="M513.8688,388.2995v13.1084h-2.4131v-13.1084h2.4131Z"/>
      <path d="M518.7321,393.5231c.7402-1.1016,1.8428-1.5195,3.0586-1.5195,2.6973,0,4.3496,2.0898,4.3496,4.8262,0,2.6016-1.7285,4.748-4.5205,4.748-1.4053,0-2.1846-.4932-2.9443-1.4053l-.0391.0186c.0195.4375.0391.8555.0391,1.502v3.1914h-2.4131v-12.6719h2.4697l-.0381,1.292.0381.0186ZM518.6188,396.8297c0,1.5381,1.0059,2.8867,2.5645,2.8867,1.5762,0,2.4883-1.3486,2.4883-2.8867,0-1.5967-.9883-2.8496-2.5645-2.8496-1.4629,0-2.4883,1.1201-2.4883,2.8496Z"/>
      <path d="M536.0406,394.0368c-1.5,0-2.0137,1.2539-2.0137,2.793v4.5781h-2.4316v-9.1953h2.4316l-.0186,1.3867h.0566c.4941-.9688,1.4248-1.5576,2.7549-1.5576,2.6406,0,3.3047,1.71,3.3047,3.9131v5.4531h-2.4316v-4.9209c0-1.3682-.2461-2.4502-1.6523-2.4502Z"/>
      <path d="M546.9469,399.7545c1.2344,0,2.3359-.5508,2.7734-.9307l.9492,1.3105c-.5117.5322-1.8984,1.4824-4.1406,1.4824-2.7734,0-4.8262-1.6914-4.8262-4.6543,0-2.9453,2.1475-4.9209,4.7695-4.9209,2.8301,0,4.54,1.8623,4.54,4.3125,0,.4756-.0381,1.2354-.0381,1.2354h-6.7637c.2285,1.4629,1.3496,2.165,2.7363,2.165ZM544.1735,396.0124h4.4072c-.0381-1.0068-.418-2.166-2.1279-2.166-1.4434,0-2.2031,1.0068-2.2793,2.166Z"/>
      <path d="M552.4567,389.401c0-.7783.6084-1.3486,1.4629-1.3486.8555,0,1.4629.5703,1.4629,1.3486,0,.7979-.6074,1.3486-1.4629,1.3486-.8545,0-1.4629-.5508-1.4629-1.3486ZM555.1363,392.2126v9.1953h-2.4316v-9.1953h2.4316Z"/>
      <path d="M561.1774,401.1032c-2.3164,0-4.293-1.4814-4.293-4.4072,0-2.5459,1.7852-4.6543,4.5215-4.6543,1.2344,0,2.2793.4561,2.9258,1.4443h.0371l-.0186-1.2734h2.4131v7.2949c0,2.0137-.418,3.1543-1.1973,3.9707-.7979.8359-1.9756,1.6152-4.1797,1.6152-2.1836,0-3.8184-1.0449-4.2734-1.3682l1.0059-1.6904c.5898.418,2.0898,1.082,3.2676,1.082,1.3115,0,1.9951-.418,2.3379-.8164.3418-.3984.626-1.1592.626-2.1855v-.4551h-.0381c-.627.9492-1.7285,1.4434-3.1348,1.4434ZM561.9,393.9606c-1.5957,0-2.5459,1.1777-2.5459,2.6787,0,1.4053.9121,2.5645,2.5078,2.5645,1.7471,0,2.6221-1.1592,2.6221-2.5645,0-1.3301-.9883-2.6787-2.584-2.6787Z"/>
      <path d="M577.65,395.9547v5.4531h-2.4316v-4.9209c0-1.3682-.2471-2.4502-1.6523-2.4502-1.501,0-2.0137,1.2539-2.0137,2.793v4.5781h-2.4131v-13.1084h2.4131v5.2998h.0371c.4941-.9688,1.4258-1.5576,2.7549-1.5576,2.6406,0,3.3057,1.71,3.3057,3.9131Z"/>
      <path d="M582.3629,388.2995v4.1025c0,.6846-.0381,1.084-.0381,1.084h.0576c.7969-1.0449,1.8418-1.4824,3.0771-1.4824,2.6787,0,4.3506,2.1094,4.3506,4.8066,0,2.6211-1.7285,4.7676-4.5215,4.7676-1.292,0-2.2988-.4551-3.0215-1.5h-.0371l-.0566,1.3301h-2.2422v-13.1084h2.4316ZM582.2867,396.8297c0,1.5381,1.0068,2.8867,2.5645,2.8867,1.5771,0,2.4883-1.3486,2.4883-2.8867,0-1.5967-.9873-2.8496-2.5645-2.8496-1.4629,0-2.4883,1.1201-2.4883,2.8496Z"/>
      <path d="M590.9137,396.8483c0-2.9072,2.166-4.8066,4.9961-4.8066,2.8115,0,4.9766,1.8994,4.9766,4.8066s-2.165,4.7686-4.9766,4.7686c-2.8301,0-4.9961-1.8623-4.9961-4.7686ZM595.9098,393.9987c-1.5957,0-2.4697,1.2158-2.4697,2.792,0,1.5771.874,2.8125,2.4697,2.8125,1.5576,0,2.4688-1.2354,2.4688-2.8125,0-1.5762-.9111-2.792-2.4688-2.792Z"/>
      <path d="M604.9723,392.2126l-.0371,1.4824h.0566c.3613-.9883,1.2725-1.6533,2.2598-1.6533.627,0,.9697.1709.9697.1709l-.1709,2.1094h-.1143c-.2666-.0762-.6846-.1143-1.0068-.1143-.7227,0-1.2734.3037-1.6152.8926-.2275.4561-.3418,1.083-.3418,1.7861v4.5215h-2.4121v-9.1953h2.4121Z"/>
      <path d="M612.2877,393.8649c-.7979,0-1.1963.3047-1.1963.7422,0,.3984.3027.7207,1.3291,1.0439l.6455.209c2.0332.665,2.7549,1.3877,2.7549,2.7168,0,1.7471-1.3867,3.04-3.6475,3.04-1.4062,0-2.9824-.5703-3.7227-1.4258l.9873-1.6523c1.083.8359,2.0137,1.2539,2.792,1.2539.9121,0,1.3301-.3418,1.3301-.874,0-.4746-.3613-.7412-1.5391-1.1396l-1.0635-.3613c-1.3682-.4551-2.0703-1.2725-2.0703-2.6211,0-1.6719,1.5195-2.7549,3.2861-2.7549,1.6338,0,2.5459.4365,3.3057.9873l-1.0449,1.6152c-.5322-.3984-1.3105-.7793-2.1465-.7793Z"/>
      <path d="M232.3297,415.2126l-.0371,1.4824h.0566c.3613-.9883,1.2725-1.6533,2.2598-1.6533.627,0,.9697.1709.9697.1709l-.1709,2.1094h-.1143c-.2666-.0762-.6846-.1143-1.0068-.1143-.7227,0-1.2734.3037-1.6152.8926-.2275.4561-.3418,1.083-.3418,1.7861v4.5215h-2.4121v-9.1953h2.4121Z"/>
      <path d="M241.317,422.7545c1.2344,0,2.3369-.5508,2.7734-.9307l.9502,1.3105c-.5137.5322-1.9004,1.4824-4.1416,1.4824-2.7744,0-4.8252-1.6914-4.8252-4.6543,0-2.9453,2.1465-4.9209,4.7676-4.9209,2.8311,0,4.541,1.8623,4.541,4.3125,0,.4756-.0381,1.2354-.0381,1.2354h-6.7627c.2275,1.4629,1.3477,2.165,2.7354,2.165ZM238.5426,419.0124h4.4082c-.0381-1.0068-.418-2.166-2.1279-2.166-1.4443,0-2.2041,1.0068-2.2803,2.166Z"/>
      <path d="M249.525,411.2995v4.1025c0,.6846-.0381,1.084-.0381,1.084h.0576c.7969-1.0449,1.8418-1.4824,3.0771-1.4824,2.6787,0,4.3506,2.1094,4.3506,4.8066,0,2.6211-1.7285,4.7676-4.5215,4.7676-1.292,0-2.2988-.4551-3.0215-1.5h-.0371l-.0566,1.3301h-2.2422v-13.1084h2.4316ZM249.4488,419.8297c0,1.5381,1.0068,2.8867,2.5645,2.8867,1.5771,0,2.4883-1.3486,2.4883-2.8867,0-1.5967-.9873-2.8496-2.5645-2.8496-1.4629,0-2.4883,1.1201-2.4883,2.8496Z"/>
      <path d="M262.5397,422.5836c1.4629,0,2.0137-1.1582,2.0137-2.6973v-4.6738h2.4316v9.1953h-2.3555l-.0186-1.293c-.5322.9121-1.5195,1.4629-2.8496,1.4629-2.6406,0-3.2871-1.709-3.2871-3.9131v-5.4521h2.4316v4.9199c0,1.3682.2285,2.4512,1.6338,2.4512Z"/>
      <path d="M269.0572,412.401c0-.7783.6084-1.3486,1.4629-1.3486s1.4629.5703,1.4629,1.3486c0,.7979-.6084,1.3486-1.4629,1.3486s-1.4629-.5508-1.4629-1.3486ZM271.736,415.2126v9.1953h-2.4316v-9.1953h2.4316Z"/>
      <path d="M276.5621,411.2995v13.1084h-2.4121v-13.1084h2.4121Z"/>
      <path d="M285.8336,422.9635c-.7412,1.1777-1.8809,1.6533-3.1543,1.6533-2.6973,0-4.3496-2.0898-4.3496-4.8262,0-2.6016,1.7285-4.749,4.5215-4.749,1.2344,0,2.2793.4561,2.9258,1.4443h.0371c-.0195-.418-.0195-.9121-.0195-1.5586v-3.6279h2.4141v13.1084h-2.2988l-.0195-1.4443h-.0566ZM285.8522,419.7907c0-1.5391-1.0068-2.8867-2.5645-2.8867-1.5771,0-2.4893,1.3477-2.4893,2.8867,0,1.5957.9883,2.8496,2.5645,2.8496,1.4629,0,2.4893-1.1211,2.4893-2.8496Z"/>
      <path d="M296.8346,424.6169c-1.7861,0-3.2295-.9688-3.2295-2.8887,0-1.918,1.8809-2.6592,3.7803-2.792l2.2041-.1514v-.248c0-1.1777-.7793-1.7285-2.0518-1.7285-1.2158,0-2.2227.4561-2.6221.7598l-.7402-1.5576c.7031-.418,1.9941-.9688,3.5898-.9688,1.6338,0,2.5645.418,3.248,1.0635.666.6465,1.0078,1.4824,1.0078,3.04v5.2627h-2.3369l-.0381-1.0645c-.3799.665-1.4434,1.2734-2.8115,1.2734ZM296.0367,421.653c0,.7783.5889,1.3105,1.5957,1.3105.9492,0,1.6523-.5508,1.9756-1.0068v-1.6914l-1.6533.0957c-1.291.0762-1.918.5127-1.918,1.292Z"/>
      <path d="M313.7242,422.5836c.4941,0,.874-.1523.874-.1523l.1328,1.8809c-.1143.0381-.8359.3047-1.8623.3047-1.8799,0-2.6592-.8555-2.6592-3.249v-4.2549h-3.2861v7.2949h-2.4316v-7.2949h-1.2539v-1.8809h1.2539v-.7031c0-1.1211.3037-2.0332.7793-2.5459.4746-.5508,1.2344-.9111,2.2979-.9111,1.1211,0,1.8047.1895,1.8047.1895l-.1514,1.748s-.5322-.1523-1.0449-.1523c-1.0449,0-1.292.7031-1.292,1.5762v.7988h3.3242v-2.6221h2.4131v2.6221h2.127v1.8809h-2.127v3.7227c0,1.4062.2461,1.748,1.1016,1.748Z"/>
      <path d="M320.774,422.7545c1.2344,0,2.3369-.5508,2.7734-.9307l.9502,1.3105c-.5137.5322-1.9004,1.4824-4.1416,1.4824-2.7744,0-4.8252-1.6914-4.8252-4.6543,0-2.9453,2.1465-4.9209,4.7676-4.9209,2.8311,0,4.541,1.8623,4.541,4.3125,0,.4756-.0381,1.2354-.0381,1.2354h-6.7627c.2275,1.4629,1.3477,2.165,2.7354,2.165ZM317.9996,419.0124h4.4082c-.0381-1.0068-.418-2.166-2.1279-2.166-1.4443,0-2.2041,1.0068-2.2803,2.166Z"/>
      <path d="M328.8688,415.2126l-.0391,1.4824h.0566c.3613-.9883,1.2734-1.6533,2.2617-1.6533.627,0,.9688.1709.9688.1709l-.1719,2.1094h-.1133c-.2656-.0762-.6836-.1143-1.0068-.1143-.7217,0-1.2725.3037-1.6143.8926-.2285.4561-.3418,1.083-.3418,1.7861v4.5215h-2.4141v-9.1953h2.4141Z"/>
      <path d="M340.2301,416.8649c-.7979,0-1.1973.3047-1.1973.7422,0,.3984.3047.7207,1.3301,1.0439l.6465.209c2.0322.665,2.7539,1.3877,2.7539,2.7168,0,1.7471-1.3867,3.04-3.6475,3.04-1.4053,0-2.9824-.5703-3.7236-1.4258l.9883-1.6523c1.083.8359,2.0137,1.2539,2.793,1.2539.9121,0,1.3301-.3418,1.3301-.874,0-.4746-.3613-.7412-1.5391-1.1396l-1.0645-.3613c-1.3672-.4551-2.0703-1.2725-2.0703-2.6211,0-1.6719,1.5195-2.7549,3.2861-2.7549,1.6338,0,2.5459.4365,3.3057.9873l-1.0449,1.6152c-.5312-.3984-1.3105-.7793-2.1465-.7793Z"/>
      <path d="M349.2164,422.5836c.4941,0,.875-.1523.875-.1523l.1328,1.8809c-.1143.0381-.8359.3047-1.8623.3047-1.8799,0-2.6592-.8555-2.6592-3.249v-4.2549h-1.3682v-1.8809h1.3682v-2.6221h2.4121v2.6221h2.1279v1.8809h-2.1279v3.7227c0,1.4062.2471,1.748,1.1016,1.748Z"/>
      <path d="M351.0602,419.8483c0-2.9072,2.166-4.8066,4.9971-4.8066,2.8115,0,4.9775,1.8994,4.9775,4.8066s-2.166,4.7686-4.9775,4.7686c-2.8311,0-4.9971-1.8623-4.9971-4.7686ZM356.0572,416.9987c-1.5957,0-2.4697,1.2158-2.4697,2.792,0,1.5771.874,2.8125,2.4697,2.8125,1.5576,0,2.4697-1.2354,2.4697-2.8125,0-1.5762-.9121-2.792-2.4697-2.792Z"/>
      <path d="M365.1207,415.2126l-.0391,1.4824h.0566c.3613-.9883,1.2734-1.6533,2.2617-1.6533.627,0,.9688.1709.9688.1709l-.1719,2.1094h-.1133c-.2656-.0762-.6836-.1143-1.0068-.1143-.7217,0-1.2725.3037-1.6143.8926-.2285.4561-.3418,1.083-.3418,1.7861v4.5215h-2.4141v-9.1953h2.4141Z"/>
      <path d="M379.5582,417.0368c-1.2148,0-1.8418,1.0449-1.8418,2.6211v4.75h-2.4316v-5.168c0-1.2539-.3232-2.2031-1.4824-2.2031-1.2539,0-1.8047,1.1777-1.8047,2.6211v4.75h-2.4316v-9.1953h2.4316l-.0186,1.3867h.0566c.418-.8545,1.5391-1.5576,2.7354-1.5576,1.3301,0,2.1279.5322,2.5645,1.748.6465-1.1211,1.6914-1.748,3.0215-1.748,2.4121,0,3.0771,1.71,3.0771,3.8184v5.5479h-2.4316v-5.1484c0-1.1211-.2471-2.2227-1.4443-2.2227Z"/>
      <path d="M388.775,416.8649c-.7988,0-1.1973.3047-1.1973.7422,0,.3984.3037.7207,1.3301,1.0439l.6455.209c2.0322.665,2.7549,1.3877,2.7549,2.7168,0,1.7471-1.3867,3.04-3.6484,3.04-1.4053,0-2.9824-.5703-3.7227-1.4258l.9883-1.6523c1.082.8359,2.0137,1.2539,2.792,1.2539.9121,0,1.3301-.3418,1.3301-.874,0-.4746-.3613-.7412-1.5391-1.1396l-1.0635-.3613c-1.3682-.4551-2.0703-1.2725-2.0703-2.6211,0-1.6719,1.5195-2.7549,3.2852-2.7549,1.6348,0,2.5469.4365,3.3066.9873l-1.0449,1.6152c-.5322-.3984-1.3105-.7793-2.1465-.7793Z"/>
    </g>
    <rect class="cls-2" x="163.391" y="364.8964" width="38.7549" height="38.7549" rx="1.7679" ry="1.7679"/>
  </g>
  <path class="cls-1" d="M173.85,96.4473l8.463,8.463c.3524.3524.9238.3524,1.2763,0l30.0272-30.0272"/>
  <path class="cls-1" d="M173.85,229.3007l8.463,8.463c.3524.3524.9238.3524,1.2763,0l30.0272-30.0272"/>
  <path class="cls-1" d="M173.85,384.6623l8.463,8.463c.3524.3524.9238.3524,1.2763,0l30.0272-30.0272"/>
</svg>