<?xml version="1.0" encoding="UTF-8"?>
<svg id="Layer_1" data-name="Layer 1" xmlns="http://www.w3.org/2000/svg" viewBox="0 0 800 496">
  <defs>
    <style>
      .cls-1 {
        fill: #fff;
      }
    </style>
  </defs>
  <rect class="cls-1" x="171.0685" y="373.7046" width="309.2632" height="57.6404"/>
  <g>
    <path class="cls-1" d="M193.0766,70.5734h-5.4258v-1.7275h12.8486v1.7275h-5.3984v16.8975h-2.0244v-16.8975Z"/>
    <path class="cls-1" d="M213.2427,79.8049v7.666h-1.9971v-7.5312c0-2.3477-.7559-3.6436-3.1045-3.6436-2.2666,0-3.4004,1.8623-3.4004,4.0488v7.126h-1.998v-18.625h1.998v8.0166h.0811c.5664-1.3496,2.1318-2.2939,3.9404-2.2939,3.6172,0,4.4805,2.2129,4.4805,5.2363Z"/>
    <path class="cls-1" d="M222.3706,87.7404c-3.7246,0-6.2354-2.5635-6.2354-6.6396,0-3.5898,2.4561-6.5322,6.2354-6.5322,3.4824,0,5.8848,2.5098,5.8848,5.9922,0,.459-.0811,1.0527-.0811,1.0527h-9.9873c.0264,2.6182,1.835,4.4541,4.5342,4.4541,2.4834,0,4.2646-1.5928,4.2646-1.5928l.8643,1.1875c-1.1611,1.377-2.9961,2.0781-5.4795,2.0781ZM222.2895,76.2414c-2.5371-.0264-3.9141,1.8896-4.0762,3.8604h8.0176c0-1.7812-1.1611-3.833-3.9414-3.8604Z"/>
    <path class="cls-1" d="M241.81,87.7678c-3.4014,0-6.2891-2.4297-6.2891-6.6133,0-3.9951,3.0498-6.5859,6.3975-6.5859,2.8066,0,4.0215.918,4.8857,1.7002l-.8906,1.5654c-.8369-.7822-1.9443-1.457-3.9141-1.457-2.457,0-4.4268,1.835-4.4268,4.75,0,2.8887,1.9434,4.832,4.6152,4.832,2.6182,0,3.8867-1.6738,3.8867-1.6738l.8643,1.458c-.5938.6748-1.9434,2.0244-5.1289,2.0244Z"/>
    <path class="cls-1" d="M247.3471,74.7844l2.0781.0273,4.1025,10.4189,4.0225-10.4463,2.0781.0273-6.1816,14.9531c-.9717,2.3223-1.835,2.9424-3.1846,2.9424-1.1338,0-1.9707-.4316-1.9707-.4316l.4053-1.7002s.7012.2969,1.2686.2969c.6475,0,1.1064-.0273,1.835-1.7549l.7021-1.6465-5.1553-12.6865Z"/>
    <path class="cls-1" d="M266.812,87.7678c-3.4014,0-6.29-2.4297-6.29-6.6133,0-3.9951,3.0508-6.5859,6.3975-6.5859,2.8076,0,4.0225.918,4.8857,1.7002l-.8906,1.5654c-.8369-.7822-1.9434-1.457-3.9141-1.457-2.4561,0-4.4268,1.835-4.4268,4.75,0,2.8887,1.9434,4.832,4.6162,4.832,2.6182,0,3.8867-1.6738,3.8867-1.6738l.8633,1.458c-.5938.6748-1.9434,2.0244-5.1279,2.0244Z"/>
    <path class="cls-1" d="M274.2915,68.8459h1.998v18.625h-1.998v-18.625Z"/>
    <path class="cls-1" d="M279.3139,81.1818c0-3.8604,2.8877-6.6133,6.5859-6.6133s6.6133,2.7529,6.6133,6.6133c0,3.8867-2.915,6.5586-6.6133,6.5586s-6.5859-2.6719-6.5859-6.5586ZM290.4624,81.1271c0-2.7256-1.7549-4.8311-4.5625-4.8311s-4.5342,2.1055-4.5342,4.8311c0,2.7002,1.7275,4.8594,4.5342,4.8594s4.5625-2.1592,4.5625-4.8594Z"/>
    <path class="cls-1" d="M305.9057,79.8049v7.666h-1.998v-7.5312c0-2.3477-.7559-3.6436-3.1035-3.6436-2.2676,0-3.4014,1.8623-3.4014,4.0488v7.126h-1.9971v-12.6592h1.9971v2.0508h.0811c.5664-1.3496,2.1328-2.2939,3.9404-2.2939,3.6172,0,4.4814,2.2129,4.4814,5.2363Z"/>
    <path class="cls-1" d="M314.9516,87.7404c-3.7256,0-6.2354-2.5635-6.2354-6.6396,0-3.5898,2.4561-6.5322,6.2354-6.5322,3.4814,0,5.8838,2.5098,5.8838,5.9922,0,.459-.0811,1.0527-.0811,1.0527h-9.9873c.0273,2.6182,1.8359,4.4541,4.5352,4.4541,2.4834,0,4.2646-1.5928,4.2646-1.5928l.8643,1.1875c-1.1611,1.377-2.9961,2.0781-5.4795,2.0781ZM314.8706,76.2414c-2.5371-.0264-3.9141,1.8896-4.0762,3.8604h8.0166c0-1.7812-1.1602-3.833-3.9404-3.8604Z"/>
    <path class="cls-1" d="M334.3374,87.7404c-3.7256,0-6.2354-2.5635-6.2354-6.6396,0-3.5898,2.4561-6.5322,6.2354-6.5322,3.4814,0,5.8838,2.5098,5.8838,5.9922,0,.459-.0811,1.0527-.0811,1.0527h-9.9873c.0273,2.6182,1.8359,4.4541,4.5352,4.4541,2.4834,0,4.2646-1.5928,4.2646-1.5928l.8643,1.1875c-1.1611,1.377-2.9961,2.0781-5.4795,2.0781ZM334.2563,76.2414c-2.5371-.0264-3.9141,1.8896-4.0762,3.8604h8.0166c0-1.7812-1.1602-3.833-3.9404-3.8604Z"/>
    <path class="cls-1" d="M353.5053,79.8049v7.666h-1.9971v-7.5312c0-2.3477-.7559-3.6436-3.1045-3.6436-2.2676,0-3.4014,1.8623-3.4014,4.0488v7.126h-1.9971v-12.6592h1.9971v2.0508h.0811c.5674-1.3496,2.1328-2.2939,3.9414-2.2939,3.6172,0,4.4805,2.2129,4.4805,5.2363Z"/>
    <path class="cls-1" d="M367.1401,85.2844h-.0273c-.918,1.5117-2.6182,2.4561-4.751,2.4561-3.8594,0-6.0459-2.7803-6.0459-6.5859,0-3.752,2.4287-6.5859,6.1543-6.5859,1.9434,0,3.6436.8906,4.5615,2.4023h.0537v-8.125h1.998v18.625h-1.9434v-2.1865ZM367.1401,81.1008c0-2.7539-1.5664-4.832-4.373-4.832-2.7803,0-4.4004,2.0518-4.4004,4.8047,0,2.7266,1.6201,4.9395,4.4004,4.9395,2.8066,0,4.373-2.1855,4.373-4.9121Z"/>
    <path class="cls-1" d="M376.5649,86.1486c1.376,0,2.6992-.5938,2.6992-2.1055s-2.1328-2.0244-3.1045-2.3486c-.918-.2969-3.6172-.918-3.6172-3.5898,0-2.3213,2.0244-3.5361,4.0762-3.5361s3.2666.6748,4.1572,1.4844l-.9717,1.2148c-.8916-.7559-2.0518-1.1611-3.1855-1.1611-1.3223,0-2.2402.6211-2.2402,1.8086,0,1.1611,1.2959,1.7012,2.6992,2.1592,1.2686.4326,4.0762,1.0801,4.0762,3.8066,0,2.4287-2.0244,3.8594-4.6436,3.8594-2.0781,0-3.752-.8906-4.6963-2.2402l1.0527-1.2686c1.2148,1.377,2.4834,1.917,3.6982,1.917Z"/>
    <path class="cls-1" d="M385.9341,87.7404c-.8916,0-1.5391-.5938-1.5391-1.457,0-.918.6475-1.5117,1.5391-1.5117.8906,0,1.5381.5938,1.5381,1.5117,0,.8633-.6475,1.457-1.5381,1.457Z"/>
    <path class="cls-1" d="M193.0766,106.5734h-5.4258v-1.7275h12.8486v1.7275h-5.3984v16.8975h-2.0244v-16.8975Z"/>
    <path class="cls-1" d="M213.2427,115.8049v7.666h-1.9971v-7.5312c0-2.3477-.7559-3.6436-3.1045-3.6436-2.2666,0-3.4004,1.8623-3.4004,4.0488v7.126h-1.998v-18.625h1.998v8.0166h.0811c.5664-1.3496,2.1318-2.2939,3.9404-2.2939,3.6172,0,4.4805,2.2129,4.4805,5.2363Z"/>
    <path class="cls-1" d="M222.3706,123.7404c-3.7246,0-6.2354-2.5635-6.2354-6.6396,0-3.5898,2.4561-6.5322,6.2354-6.5322,3.4824,0,5.8848,2.5098,5.8848,5.9922,0,.459-.0811,1.0527-.0811,1.0527h-9.9873c.0264,2.6182,1.835,4.4541,4.5342,4.4541,2.4834,0,4.2646-1.5928,4.2646-1.5928l.8643,1.1875c-1.1611,1.377-2.9961,2.0781-5.4795,2.0781ZM222.2895,112.2414c-2.5371-.0264-3.9141,1.8896-4.0762,3.8604h8.0176c0-1.7812-1.1611-3.833-3.9414-3.8604Z"/>
    <path class="cls-1" d="M239.9477,122.1486c1.377,0,2.6992-.5938,2.6992-2.1055s-2.1328-2.0244-3.1045-2.3486c-.917-.2969-3.6162-.918-3.6162-3.5898,0-2.3213,2.0244-3.5361,4.0752-3.5361s3.2666.6748,4.1572,1.4844l-.9717,1.2148c-.8906-.7559-2.0518-1.1611-3.1855-1.1611-1.3223,0-2.2402.6211-2.2402,1.8086,0,1.1611,1.2959,1.7012,2.6992,2.1592,1.2686.4326,4.0762,1.0801,4.0762,3.8066,0,2.4287-2.0244,3.8594-4.6426,3.8594-2.0791,0-3.752-.8906-4.6973-2.2402l1.0527-1.2686c1.2148,1.377,2.4834,1.917,3.6982,1.917Z"/>
    <path class="cls-1" d="M257.5493,110.7844v12.6865h-1.9434l-.0273-2.0244c-.5664,1.3496-2.1855,2.2402-3.9941,2.2402-3.6172,0-4.5078-2.2129-4.5078-5.2363v-7.666h2.0244v7.5312c0,2.3477.7559,3.6436,3.1035,3.6436,2.2676,0,3.374-1.9434,3.374-4.1572v-7.0176h1.9707Z"/>
    <path class="cls-1" d="M271.7788,115.8049v7.666h-1.998v-7.5312c0-2.3477-.7559-3.6436-3.1035-3.6436-2.2676,0-3.4014,1.8623-3.4014,4.0488v7.126h-1.9971v-12.6592h1.9971v2.0508h.0811c.5664-1.3496,2.1328-2.2939,3.9404-2.2939,3.6172,0,4.4814,2.2129,4.4814,5.2363Z"/>
    <path class="cls-1" d="M280.853,110.8117h1.9971v2.1592c.5938-1.5391,1.8086-2.4023,3.2119-2.4023.8369,0,1.3496.2158,1.3496.2158l-.1348,1.8896h-.0811c-.4316-.1895-.999-.2432-1.377-.2432-1.1602,0-1.916.8096-2.1318,1.1064-.5127.7295-.8369,1.458-.8369,3.374v6.5596h-1.9971v-12.6592Z"/>
    <path class="cls-1" d="M294.6206,123.7404c-3.7246,0-6.2354-2.5635-6.2354-6.6396,0-3.5898,2.457-6.5322,6.2354-6.5322,3.4824,0,5.8848,2.5098,5.8848,5.9922,0,.459-.0811,1.0527-.0811,1.0527h-9.9873c.0273,2.6182,1.8359,4.4541,4.5352,4.4541,2.4834,0,4.2646-1.5928,4.2646-1.5928l.8633,1.1875c-1.1602,1.377-2.9961,2.0781-5.4795,2.0781ZM294.5405,112.2414c-2.5381-.0264-3.9141,1.8896-4.0762,3.8604h8.0166c0-1.7812-1.1611-3.833-3.9404-3.8604Z"/>
    <path class="cls-1" d="M306.771,123.7404c-3.0225,0-3.0225-2.834-3.0225-5.1279v-6.1006h-1.8896v-1.6738h1.8896v-3.9141h2.0244v3.9141h3.1035v1.6738h-3.1309v6.5049c0,1.0264,0,1.917.4053,2.5107.2158.3242.7012.4854,1.2949.4854.7832,0,1.4043-.2969,1.4043-.2969l.1074,1.6201c-.5938.2695-1.3223.4043-2.1865.4043Z"/>
    <path class="cls-1" d="M321.5386,110.7844v12.6865h-1.9434l-.0273-2.0244c-.5664,1.3496-2.1865,2.2402-3.9951,2.2402-3.6172,0-4.5078-2.2129-4.5078-5.2363v-7.666h2.0244v7.5312c0,2.3477.7559,3.6436,3.1045,3.6436,2.2676,0,3.374-1.9434,3.374-4.1572v-7.0176h1.9707Z"/>
    <path class="cls-1" d="M325.2671,110.8117h1.9971v2.1592c.5938-1.5391,1.8086-2.4023,3.2119-2.4023.8369,0,1.3506.2158,1.3506.2158l-.1357,1.8896h-.0811c-.4316-.1895-.998-.2432-1.376-.2432-1.1611,0-1.917.8096-2.1328,1.1064-.5127.7295-.8369,1.458-.8369,3.374v6.5596h-1.9971v-12.6592Z"/>
    <path class="cls-1" d="M344.3257,115.8049v7.666h-1.9971v-7.5312c0-2.3477-.7559-3.6436-3.1045-3.6436-2.2676,0-3.4014,1.8623-3.4014,4.0488v7.126h-1.9971v-12.6592h1.9971v2.0508h.0811c.5674-1.3496,2.1328-2.2939,3.9414-2.2939,3.6172,0,4.4805,2.2129,4.4805,5.2363Z"/>
    <path class="cls-1" d="M351.5639,122.1486c1.376,0,2.6992-.5938,2.6992-2.1055s-2.1328-2.0244-3.1045-2.3486c-.918-.2969-3.6172-.918-3.6172-3.5898,0-2.3213,2.0244-3.5361,4.0762-3.5361s3.2666.6748,4.1572,1.4844l-.9717,1.2148c-.8906-.7559-2.0518-1.1611-3.1855-1.1611-1.3223,0-2.2402.6211-2.2402,1.8086,0,1.1611,1.2959,1.7012,2.6992,2.1592,1.2686.4326,4.0762,1.0801,4.0762,3.8066,0,2.4287-2.0244,3.8594-4.6436,3.8594-2.0781,0-3.752-.8906-4.6963-2.2402l1.0527-1.2686c1.2148,1.377,2.4834,1.917,3.6982,1.917Z"/>
    <path class="cls-1" d="M360.6352,120.9601h2.1328l-2.3213,6.29h-1.5654l1.7539-6.29ZM360.9331,113.592c-.8916,0-1.5391-.5947-1.5391-1.4854s.6475-1.4844,1.5391-1.4844c.8906,0,1.5381.5938,1.5381,1.4844s-.6475,1.4854-1.5381,1.4854Z"/>
    <path class="cls-1" d="M192.8061,159.7404c-3.0234,0-3.0234-2.834-3.0234-5.1279v-6.1006h-1.8887v-1.6738h1.8887v-3.9141h2.0254v3.9141h3.1035v1.6738h-3.1309v6.5049c0,1.0264,0,1.917.4043,2.5107.2168.3242.7021.4854,1.2959.4854.7832,0,1.4043-.2969,1.4043-.2969l.1074,1.6201c-.5938.2695-1.3223.4043-2.1865.4043Z"/>
    <path class="cls-1" d="M207.9243,151.8049v7.666h-1.9971v-7.5312c0-2.3477-.7559-3.6436-3.1045-3.6436-2.2676,0-3.4014,1.8623-3.4014,4.0488v7.126h-1.9971v-18.625h1.9971v8.0166h.0811c.5674-1.3496,2.1328-2.2939,3.9414-2.2939,3.6162,0,4.4805,2.2129,4.4805,5.2363Z"/>
    <path class="cls-1" d="M217.0512,159.7404c-3.7246,0-6.2354-2.5635-6.2354-6.6396,0-3.5898,2.457-6.5322,6.2354-6.5322,3.4824,0,5.8848,2.5098,5.8848,5.9922,0,.459-.0811,1.0527-.0811,1.0527h-9.9873c.0273,2.6182,1.8359,4.4541,4.5352,4.4541,2.4834,0,4.2646-1.5928,4.2646-1.5928l.8633,1.1875c-1.1602,1.377-2.9961,2.0781-5.4795,2.0781ZM216.9712,148.2414c-2.5381-.0264-3.9141,1.8896-4.0762,3.8604h8.0166c0-1.7812-1.1611-3.833-3.9404-3.8604Z"/>
    <path class="cls-1" d="M231.228,140.8459h1.9971v18.625h-1.9971v-18.625Z"/>
    <path class="cls-1" d="M236.2495,153.1818c0-3.8604,2.8887-6.6133,6.5869-6.6133s6.6133,2.7529,6.6133,6.6133c0,3.8867-2.915,6.5586-6.6133,6.5586s-6.5869-2.6719-6.5869-6.5586ZM247.3979,153.1271c0-2.7256-1.7549-4.8311-4.5615-4.8311s-4.5352,2.1055-4.5352,4.8311c0,2.7002,1.7275,4.8594,4.5352,4.8594s4.5615-2.1592,4.5615-4.8594Z"/>
    <path class="cls-1" d="M264.9468,159.3361c-.5938.2695-1.3223.4043-2.1865.4043-3.0225,0-3.0225-2.834-3.0225-5.1279v-6.1006h-4.9668v10.959h-1.998v-10.959h-1.835v-1.6738h1.835v-1.4844c0-2.6182.8906-4.7773,3.833-4.7773,1.0527,0,1.7549.1885,1.8633.2422l-.1895,1.5654s-.7285-.2158-1.4033-.2158c-1.8623,0-2.1055,1.4307-2.1055,3.0508v1.6191h4.9668v-3.9141h2.0244v3.9141h3.1035v1.6738h-3.1309v6.5049c0,1.0264,0,1.917.4053,2.5107.2158.3242.7012.4854,1.2949.4854.7832,0,1.4043-.2969,1.4043-.2969l.1074,1.6201Z"/>
    <path class="cls-1" d="M265.437,146.7844l2.0781.0273,4.1025,10.4189,4.0225-10.4463,2.0781.0273-6.1816,14.9531c-.9717,2.3223-1.835,2.9424-3.1846,2.9424-1.1338,0-1.9707-.4316-1.9707-.4316l.4053-1.7002s.7012.2969,1.2686.2969c.6475,0,1.1064-.0273,1.835-1.7549l.7021-1.6465-5.1553-12.6865Z"/>
    <path class="cls-1" d="M290.355,159.7678c-3.4014,0-6.2891-2.4297-6.2891-6.6133,0-3.9951,3.0498-6.5859,6.3975-6.5859,2.8066,0,4.0215.918,4.8857,1.7002l-.8906,1.5654c-.8369-.7822-1.9443-1.457-3.9141-1.457-2.457,0-4.4268,1.835-4.4268,4.75,0,2.8887,1.9434,4.832,4.6152,4.832,2.6182,0,3.8867-1.6738,3.8867-1.6738l.8643,1.458c-.5938.6748-1.9434,2.0244-5.1289,2.0244Z"/>
    <path class="cls-1" d="M296.8091,153.1818c0-3.8604,2.8877-6.6133,6.5859-6.6133s6.6133,2.7529,6.6133,6.6133c0,3.8867-2.915,6.5586-6.6133,6.5586s-6.5859-2.6719-6.5859-6.5586ZM307.9565,153.1271c0-2.7256-1.7539-4.8311-4.5615-4.8311s-4.5342,2.1055-4.5342,4.8311c0,2.7002,1.7275,4.8594,4.5342,4.8594s4.5615-2.1592,4.5615-4.8594Z"/>
    <path class="cls-1" d="M318.2993,159.7678c-3.4014,0-6.2891-2.4297-6.2891-6.6133,0-3.9951,3.0498-6.5859,6.3975-6.5859,2.8066,0,4.0215.918,4.8848,1.7002l-.8906,1.5654c-.8369-.7822-1.9434-1.457-3.9141-1.457-2.4561,0-4.4268,1.835-4.4268,4.75,0,2.8887,1.9443,4.832,4.6162,4.832,2.6182,0,3.8867-1.6738,3.8867-1.6738l.8643,1.458c-.5938.6748-1.9434,2.0244-5.1289,2.0244Z"/>
    <path class="cls-1" d="M324.7534,153.1818c0-3.8604,2.8877-6.6133,6.5859-6.6133s6.6133,2.7529,6.6133,6.6133c0,3.8867-2.915,6.5586-6.6133,6.5586s-6.5859-2.6719-6.5859-6.5586ZM335.9009,153.1271c0-2.7256-1.7539-4.8311-4.5615-4.8311s-4.5352,2.1055-4.5352,4.8311c0,2.7002,1.7275,4.8594,4.5352,4.8594s4.5615-2.1592,4.5615-4.8594Z"/>
    <path class="cls-1" d="M351.3452,151.8049v7.666h-1.9971v-7.5312c0-2.3477-.7559-3.6436-3.1045-3.6436-2.2676,0-3.4014,1.8623-3.4014,4.0488v7.126h-1.9971v-12.6592h1.9971v2.0508h.0811c.5674-1.3496,2.1328-2.2939,3.9414-2.2939,3.6172,0,4.4805,2.2129,4.4805,5.2363Z"/>
    <path class="cls-1" d="M365.3305,146.7844v12.6865h-1.9434l-.0273-2.0244c-.5664,1.3496-2.1865,2.2402-3.9951,2.2402-3.6162,0-4.5078-2.2129-4.5078-5.2363v-7.666h2.0244v7.5312c0,2.3477.7559,3.6436,3.1045,3.6436,2.2676,0,3.374-1.9434,3.374-4.1572v-7.0176h1.9707Z"/>
    <path class="cls-1" d="M372.5405,159.7404c-3.0225,0-3.0225-2.834-3.0225-5.1279v-6.1006h-1.8896v-1.6738h1.8896v-3.9141h2.0244v3.9141h3.1035v1.6738h-3.1309v6.5049c0,1.0264,0,1.917.4053,2.5107.2158.3242.7012.4854,1.2949.4854.7832,0,1.4043-.2969,1.4043-.2969l.1074,1.6201c-.5938.2695-1.3223.4043-2.1865.4043Z"/>
    <path class="cls-1" d="M385.8784,159.7404c-3.0225,0-3.0225-2.834-3.0225-5.1279v-6.1006h-1.8896v-1.6738h1.8896v-3.9141h2.0244v3.9141h3.1035v1.6738h-3.1309v6.5049c0,1.0264,0,1.917.4053,2.5107.2158.3242.7012.4854,1.2949.4854.7832,0,1.4043-.2969,1.4043-.2969l.1074,1.6201c-.5938.2695-1.3223.4043-2.1865.4043Z"/>
    <path class="cls-1" d="M390.3618,146.8117h1.9971v2.1592c.5938-1.5391,1.8086-2.4023,3.2119-2.4023.8369,0,1.3506.2158,1.3506.2158l-.1357,1.8896h-.0811c-.4316-.1895-.998-.2432-1.376-.2432-1.1611,0-1.917.8096-2.1328,1.1064-.5127.7295-.8369,1.458-.8369,3.374v6.5596h-1.9971v-12.6592Z"/>
    <path class="cls-1" d="M404.1303,159.7404c-3.7256,0-6.2354-2.5635-6.2354-6.6396,0-3.5898,2.4561-6.5322,6.2354-6.5322,3.4814,0,5.8838,2.5098,5.8838,5.9922,0,.459-.0811,1.0527-.0811,1.0527h-9.9873c.0273,2.6182,1.8359,4.4541,4.5352,4.4541,2.4834,0,4.2646-1.5928,4.2646-1.5928l.8643,1.1875c-1.1611,1.377-2.9961,2.0781-5.4795,2.0781ZM404.0493,148.2414c-2.5371-.0264-3.9141,1.8896-4.0762,3.8604h8.0166c0-1.7812-1.1602-3.833-3.9404-3.8604Z"/>
    <path class="cls-1" d="M418.2788,159.7404c-3.7256,0-6.2354-2.5635-6.2354-6.6396,0-3.5898,2.4561-6.5322,6.2354-6.5322,3.4814,0,5.8838,2.5098,5.8838,5.9922,0,.459-.0811,1.0527-.0811,1.0527h-9.9873c.0273,2.6182,1.8359,4.4541,4.5352,4.4541,2.4834,0,4.2646-1.5928,4.2646-1.5928l.8643,1.1875c-1.1611,1.377-2.9961,2.0781-5.4795,2.0781ZM418.1977,148.2414c-2.5371-.0264-3.9141,1.8896-4.0762,3.8604h8.0166c0-1.7812-1.1602-3.833-3.9404-3.8604Z"/>
    <path class="cls-1" d="M430.4829,158.1486c1.376,0,2.6992-.5938,2.6992-2.1055s-2.1328-2.0244-3.1045-2.3486c-.918-.2969-3.6172-.918-3.6172-3.5898,0-2.3213,2.0244-3.5361,4.0762-3.5361s3.2666.6748,4.1572,1.4844l-.9717,1.2148c-.8916-.7559-2.0518-1.1611-3.1855-1.1611-1.3223,0-2.2402.6211-2.2402,1.8086,0,1.1611,1.2959,1.7012,2.6992,2.1592,1.2686.4326,4.0762,1.0801,4.0762,3.8066,0,2.4287-2.0244,3.8594-4.6436,3.8594-2.0781,0-3.752-.8906-4.6963-2.2402l1.0527-1.2686c1.2148,1.377,2.4834,1.917,3.6982,1.917Z"/>
    <path class="cls-1" d="M443.3081,140.8459h1.9971v18.625h-1.9971v-18.625Z"/>
    <path class="cls-1" d="M450.355,143.842c-.8369,0-1.4307-.5938-1.4307-1.377,0-.7822.5938-1.376,1.4307-1.376.8096,0,1.4033.5938,1.4033,1.376-.0273.7832-.5938,1.377-1.4033,1.377ZM449.3559,146.8117h1.9971v12.6592h-1.9971v-12.6592Z"/>
    <path class="cls-1" d="M467.8745,159.3361c-.5938.2695-1.3223.4043-2.1865.4043-3.0234,0-3.0234-2.834-3.0234-5.1279v-6.1006h-4.9668v10.959h-1.9971v-10.959h-1.835v-1.6738h1.835v-1.4844c0-2.6182.8906-4.7773,3.833-4.7773,1.0527,0,1.7549.1885,1.8623.2422l-.1885,1.5654s-.7295-.2158-1.4043-.2158c-1.8623,0-2.1055,1.4307-2.1055,3.0508v1.6191h4.9668v-3.9141h2.0244v3.9141h3.1045v1.6738h-3.1309v6.5049c0,1.0264,0,1.917.4043,2.5107.2168.3242.7021.4854,1.2959.4854.7832,0,1.4033-.2969,1.4033-.2969l.1084,1.6201Z"/>
    <path class="cls-1" d="M485.8296,146.7844v12.6865h-1.9434l-.0273-2.0244c-.5664,1.3496-2.1865,2.2402-3.9951,2.2402-3.6172,0-4.5078-2.2129-4.5078-5.2363v-7.666h2.0244v7.5312c0,2.3477.7559,3.6436,3.1045,3.6436,2.2676,0,3.374-1.9434,3.374-4.1572v-7.0176h1.9707Z"/>
    <path class="cls-1" d="M489.6928,146.7844h1.9971v2.2402h.0273c.7021-1.1875,2.375-2.4561,4.6162-2.4561,3.8867,0,6.1543,2.8066,6.1543,6.5586s-2.5645,6.6133-6.1006,6.6133c-1.8623,0-3.6982-.7285-4.6699-2.4287l-.0273-.0273v7.2607h-1.9971v-17.7607ZM500.4087,153.1271c0-2.7529-1.5918-4.8857-4.3994-4.8857-2.5371,0-4.3994,2.1328-4.3994,4.8857,0,2.7266,1.5107,4.8594,4.3457,4.8594,2.8066,0,4.4531-2.1328,4.4531-4.8594Z"/>
    <path class="cls-1" d="M514.2075,159.7404c-3.0225,0-3.0225-2.834-3.0225-5.1279v-6.1006h-1.8896v-1.6738h1.8896v-3.9141h2.0244v3.9141h3.1035v1.6738h-3.1309v6.5049c0,1.0264,0,1.917.4053,2.5107.2158.3242.7012.4854,1.2959.4854.7822,0,1.4033-.2969,1.4033-.2969l.1074,1.6201c-.5938.2695-1.3223.4043-2.1865.4043Z"/>
    <path class="cls-1" d="M529.3257,151.8049v7.666h-1.9971v-7.5312c0-2.3477-.7559-3.6436-3.1045-3.6436-2.2676,0-3.4014,1.8623-3.4014,4.0488v7.126h-1.9971v-18.625h1.9971v8.0166h.0811c.5674-1.3496,2.1328-2.2939,3.9414-2.2939,3.6172,0,4.4805,2.2129,4.4805,5.2363Z"/>
    <path class="cls-1" d="M538.4536,159.7404c-3.7256,0-6.2354-2.5635-6.2354-6.6396,0-3.5898,2.4561-6.5322,6.2354-6.5322,3.4814,0,5.8838,2.5098,5.8838,5.9922,0,.459-.0811,1.0527-.0811,1.0527h-9.9873c.0273,2.6182,1.8359,4.4541,4.5352,4.4541,2.4834,0,4.2646-1.5928,4.2646-1.5928l.8643,1.1875c-1.1611,1.377-2.9961,2.0781-5.4795,2.0781ZM538.3725,148.2414c-2.5371-.0264-3.9141,1.8896-4.0762,3.8604h8.0166c0-1.7812-1.1602-3.833-3.9404-3.8604Z"/>
    <path class="cls-1" d="M548.2553,143.842c-.8369,0-1.4307-.5938-1.4307-1.377,0-.7822.5938-1.376,1.4307-1.376.8096,0,1.4033.5938,1.4033,1.376-.0273.7832-.5938,1.377-1.4033,1.377ZM547.2563,146.8117h1.9971v12.6592h-1.9971v-12.6592Z"/>
    <path class="cls-1" d="M553.1694,146.8117h1.9971v2.1592c.5938-1.5391,1.8086-2.4023,3.2119-2.4023.8369,0,1.3506.2158,1.3506.2158l-.1357,1.8896h-.0811c-.4316-.1895-.998-.2432-1.376-.2432-1.1611,0-1.917.8096-2.1328,1.1064-.5127.7295-.8369,1.458-.8369,3.374v6.5596h-1.9971v-12.6592Z"/>
    <path class="cls-1" d="M567.2358,146.7844h1.9971v2.2402h.0273c.7021-1.1875,2.375-2.4561,4.6162-2.4561,3.8867,0,6.1543,2.8066,6.1543,6.5586s-2.5645,6.6133-6.1006,6.6133c-1.8623,0-3.6982-.7285-4.6699-2.4287l-.0273-.0273v7.2607h-1.9971v-17.7607ZM577.9516,153.1271c0-2.7529-1.5918-4.8857-4.3994-4.8857-2.5371,0-4.3994,2.1328-4.3994,4.8857,0,2.7266,1.5107,4.8594,4.3457,4.8594,2.8066,0,4.4531-2.1328,4.4531-4.8594Z"/>
    <path class="cls-1" d="M583.0307,140.8459h1.9971v18.625h-1.9971v-18.625Z"/>
    <path class="cls-1" d="M599.228,146.7844v12.6865h-1.9434l-.0273-2.0244c-.5664,1.3496-2.1865,2.2402-3.9951,2.2402-3.6172,0-4.5078-2.2129-4.5078-5.2363v-7.666h2.0244v7.5312c0,2.3477.7559,3.6436,3.1045,3.6436,2.2676,0,3.374-1.9434,3.374-4.1572v-7.0176h1.9707Z"/>
    <path class="cls-1" d="M616.3989,146.5685c3.6982,0,4.3994,2.6182,4.3994,5.2637v7.6387h-1.9971v-7.5312c0-1.5381-.4053-3.6436-2.6729-3.6436-2.0781,0-3.2383,2.0244-3.2383,4.5078v6.667h-1.998v-7.5312c0-1.5381-.4043-3.6436-2.6719-3.6436-2.0791,0-3.2666,2.0244-3.2666,4.5078v6.667h-1.9971v-12.6592h1.9971l-.0264,2.0244h.0811c.6201-1.2959,1.9434-2.2676,3.4814-2.2676,2.4834,0,3.6172,1.1602,4.0762,2.7256.54-1.5654,2.0518-2.7256,3.833-2.7256Z"/>
    <path class="cls-1" d="M629.7934,159.7404c-3.7256,0-6.2354-2.5635-6.2354-6.6396,0-3.5898,2.4561-6.5322,6.2354-6.5322,3.4814,0,5.8838,2.5098,5.8838,5.9922,0,.459-.0811,1.0527-.0811,1.0527h-9.9873c.0273,2.6182,1.8359,4.4541,4.5352,4.4541,2.4834,0,4.2646-1.5928,4.2646-1.5928l.8643,1.1875c-1.1611,1.377-2.9961,2.0781-5.4795,2.0781ZM629.7124,148.2414c-2.5371-.0264-3.9141,1.8896-4.0762,3.8604h8.0166c0-1.7812-1.1602-3.833-3.9404-3.8604Z"/>
    <path class="cls-1" d="M641.9975,158.1486c1.376,0,2.6992-.5938,2.6992-2.1055s-2.1328-2.0244-3.1045-2.3486c-.918-.2969-3.6172-.918-3.6172-3.5898,0-2.3213,2.0244-3.5361,4.0762-3.5361s3.2666.6748,4.1572,1.4844l-.9717,1.2148c-.8906-.7559-2.0518-1.1611-3.1855-1.1611-1.3223,0-2.2402.6211-2.2402,1.8086,0,1.1611,1.2959,1.7012,2.6992,2.1592,1.2686.4326,4.0762,1.0801,4.0762,3.8066,0,2.4287-2.0244,3.8594-4.6436,3.8594-2.0781,0-3.752-.8906-4.6963-2.2402l1.0527-1.2686c1.2148,1.377,2.4834,1.917,3.6982,1.917Z"/>
    <path class="cls-1" d="M662.0024,157.7971c-.4854.54-1.7539,1.9434-4.1562,1.9434s-4.3457-1.5381-4.3457-3.8594c0-2.1592,1.5918-3.6709,5.0469-3.833l3.4287-.1621v-.5664c0-2.1328-1.4307-3.0781-3.3477-3.0781-1.8887,0-3.4004.7559-3.752.999l-.6748-1.4307c.8369-.4854,2.5107-1.2412,4.5078-1.2412,3.6982,0,5.291,1.916,5.291,5.4795v7.4229h-1.9707l-.0273-1.6738ZM658.7095,153.5051c-2.3477.1084-3.1309,1.0527-3.1309,2.3486,0,1.2686,1.0527,2.2949,2.6719,2.2949,1.7275,0,3.1582-.999,3.752-1.8086v-2.9961l-3.293.1611Z"/>
    <path class="cls-1" d="M677.3647,156.9875c-.918,1.5117-2.4561,2.4023-4.6162,2.4023-3.3467,0-6.0996-2.1865-6.0996-6.3975,0-3.9678,2.7529-6.4238,6.0459-6.4238,2.3213,0,3.9141,1.1064,4.6973,2.4287h.0537l-.0273-2.1855h1.998v9.96c0,2.834-.4053,4.3457-1.2148,5.4521-.8096,1.1338-2.3486,2.5918-5.5605,2.5918-3.1855,0-5.291-1.7812-5.4795-1.917l.999-1.4307c.8359.6484,2.6182,1.6465,4.5879,1.6465,3.4824,0,4.6699-2.2666,4.6699-5.4248v-.7021h-.0537ZM677.4995,152.966c0-2.8887-1.7275-4.6973-4.4531-4.6973-2.8613,0-4.3467,2.0781-4.3467,4.6973,0,2.6445,1.5391,4.75,4.4004,4.75,2.8877,0,4.3994-2.1055,4.3994-4.75Z"/>
    <path class="cls-1" d="M690.5405,157.7971c-.4854.54-1.7539,1.9434-4.1562,1.9434s-4.3457-1.5381-4.3457-3.8594c0-2.1592,1.5918-3.6709,5.0469-3.833l3.4287-.1621v-.5664c0-2.1328-1.4307-3.0781-3.3477-3.0781-1.8887,0-3.4004.7559-3.752.999l-.6748-1.4307c.8369-.4854,2.5107-1.2412,4.5078-1.2412,3.6982,0,5.291,1.916,5.291,5.4795v7.4229h-1.9707l-.0273-1.6738ZM687.2475,153.5051c-2.3477.1084-3.1309,1.0527-3.1309,2.3486,0,1.2686,1.0527,2.2949,2.6719,2.2949,1.7275,0,3.1582-.999,3.752-1.8086v-2.9961l-3.293.1611Z"/>
    <path class="cls-1" d="M697.2124,143.842c-.8369,0-1.4307-.5938-1.4307-1.377,0-.7822.5938-1.376,1.4307-1.376.8096,0,1.4033.5938,1.4033,1.376-.0273.7832-.5938,1.377-1.4033,1.377ZM696.2134,146.8117h1.9971v12.6592h-1.9971v-12.6592Z"/>
    <path class="cls-1" d="M712.6264,151.8049v7.666h-1.9971v-7.5312c0-2.3477-.7559-3.6436-3.1045-3.6436-2.2676,0-3.4014,1.8623-3.4014,4.0488v7.126h-1.9971v-12.6592h1.9971v2.0508h.0811c.5674-1.3496,2.1328-2.2939,3.9414-2.2939,3.6172,0,4.4805,2.2129,4.4805,5.2363Z"/>
    <path class="cls-1" d="M718.0815,156.9601h2.1328l-2.3213,6.29h-1.5654l1.7539-6.29ZM718.3794,149.592c-.8916,0-1.5391-.5947-1.5391-1.4854s.6475-1.4844,1.5391-1.4844c.8906,0,1.5381.5938,1.5381,1.4844s-.6475,1.4854-1.5381,1.4854Z"/>
    <path class="cls-1" d="M202.7671,182.5685c3.6973,0,4.3994,2.6182,4.3994,5.2637v7.6387h-1.9971v-7.5312c0-1.5381-.4053-3.6436-2.6729-3.6436-2.0781,0-3.2393,2.0244-3.2393,4.5078v6.667h-1.9971v-7.5312c0-1.5381-.4053-3.6436-2.6719-3.6436-2.0791,0-3.2666,2.0244-3.2666,4.5078v6.667h-1.9971v-12.6592h1.9971l-.0273,2.0244h.0811c.6211-1.2959,1.9434-2.2676,3.4824-2.2676,2.4834,0,3.6172,1.1602,4.0762,2.7256.5391-1.5654,2.0508-2.7256,3.833-2.7256Z"/>
    <path class="cls-1" d="M218.1313,193.7971c-.4863.54-1.7549,1.9434-4.1572,1.9434s-4.3457-1.5381-4.3457-3.8594c0-2.1592,1.5928-3.6709,5.0479-3.833l3.4277-.1621v-.5664c0-2.1328-1.4307-3.0781-3.3467-3.0781-1.8896,0-3.4014.7559-3.752.999l-.6748-1.4307c.8359-.4854,2.5098-1.2412,4.5078-1.2412,3.6973,0,5.29,1.916,5.29,5.4795v7.4229h-1.9707l-.0264-1.6738ZM214.8384,189.5051c-2.3486.1084-3.1318,1.0527-3.1318,2.3486,0,1.2686,1.0527,2.2949,2.6729,2.2949,1.7275,0,3.1582-.999,3.752-1.8086v-2.9961l-3.293.1611Z"/>
    <path class="cls-1" d="M234.1684,187.8049v7.666h-1.998v-7.5312c0-2.3477-.7559-3.6436-3.1035-3.6436-2.2676,0-3.4014,1.8623-3.4014,4.0488v7.126h-1.9971v-12.6592h1.9971v2.0508h.0811c.5664-1.3496,2.1328-2.2939,3.9404-2.2939,3.6172,0,4.4814,2.2129,4.4814,5.2363Z"/>
    <path class="cls-1" d="M253.1753,193.2844h-.0264c-.918,1.5117-2.6182,2.4561-4.751,2.4561-3.8604,0-6.0469-2.7803-6.0469-6.5859,0-3.752,2.4297-6.5859,6.1553-6.5859,1.9434,0,3.6436.8906,4.5615,2.4023h.0537v-8.125h1.9971v18.625h-1.9434v-2.1865ZM253.1753,189.1008c0-2.7539-1.5654-4.832-4.3721-4.832-2.7803,0-4.4004,2.0518-4.4004,4.8047,0,2.7266,1.6201,4.9395,4.4004,4.9395,2.8066,0,4.3721-2.1855,4.3721-4.9121Z"/>
    <path class="cls-1" d="M258.1733,189.1818c0-3.8604,2.8877-6.6133,6.5859-6.6133s6.6133,2.7529,6.6133,6.6133c0,3.8867-2.915,6.5586-6.6133,6.5586s-6.5859-2.6719-6.5859-6.5586ZM269.3218,189.1271c0-2.7256-1.7549-4.8311-4.5625-4.8311s-4.5342,2.1055-4.5342,4.8311c0,2.7002,1.7275,4.8594,4.5342,4.8594s4.5625-2.1592,4.5625-4.8594Z"/>
    <path class="cls-1" d="M279.6089,195.7404c-3.7246,0-6.2354-2.5635-6.2354-6.6396,0-3.5898,2.457-6.5322,6.2354-6.5322,3.4824,0,5.8848,2.5098,5.8848,5.9922,0,.459-.0811,1.0527-.0811,1.0527h-9.9873c.0273,2.6182,1.8359,4.4541,4.5352,4.4541,2.4834,0,4.2646-1.5928,4.2646-1.5928l.8633,1.1875c-1.1602,1.377-2.9961,2.0781-5.4795,2.0781ZM279.5288,184.2414c-2.5381-.0264-3.9141,1.8896-4.0762,3.8604h8.0166c0-1.7812-1.1611-3.833-3.9404-3.8604Z"/>
    <path class="cls-1" d="M291.8139,194.1486c1.377,0,2.6992-.5938,2.6992-2.1055s-2.1328-2.0244-3.1045-2.3486c-.917-.2969-3.6162-.918-3.6162-3.5898,0-2.3213,2.0244-3.5361,4.0752-3.5361s3.2666.6748,4.1572,1.4844l-.9717,1.2148c-.8906-.7559-2.0518-1.1611-3.1855-1.1611-1.3223,0-2.2402.6211-2.2402,1.8086,0,1.1611,1.2959,1.7012,2.6992,2.1592,1.2686.4326,4.0762,1.0801,4.0762,3.8066,0,2.4287-2.0244,3.8594-4.6426,3.8594-2.0791,0-3.752-.8906-4.6973-2.2402l1.0527-1.2686c1.2148,1.377,2.4834,1.917,3.6982,1.917Z"/>
    <path class="cls-1" d="M304.6391,176.8459h1.9971v18.625h-1.9971v-18.625Z"/>
    <path class="cls-1" d="M311.686,179.842c-.8369,0-1.4307-.5938-1.4307-1.377,0-.7822.5938-1.376,1.4307-1.376.8096,0,1.4033.5938,1.4033,1.376-.0273.7832-.5938,1.377-1.4033,1.377ZM310.687,182.8117h1.9971v12.6592h-1.9971v-12.6592Z"/>
    <path class="cls-1" d="M318.7319,195.4709h-1.9971v-18.625h1.9971v11.3906l5.5342-5.4248h2.4834l-5.1016,4.8047,5.8301,7.8545h-2.4023l-4.7773-6.5859-1.5664,1.4844v5.1016Z"/>
    <path class="cls-1" d="M334.5268,195.7404c-3.7256,0-6.2354-2.5635-6.2354-6.6396,0-3.5898,2.4561-6.5322,6.2354-6.5322,3.4814,0,5.8838,2.5098,5.8838,5.9922,0,.459-.0811,1.0527-.0811,1.0527h-9.9873c.0273,2.6182,1.8359,4.4541,4.5352,4.4541,2.4834,0,4.2646-1.5928,4.2646-1.5928l.8643,1.1875c-1.1611,1.377-2.9961,2.0781-5.4795,2.0781ZM334.4458,184.2414c-2.5371-.0264-3.9141,1.8896-4.0762,3.8604h8.0166c0-1.7812-1.1602-3.833-3.9404-3.8604Z"/>
    <path class="cls-1" d="M345.3276,195.4709l-4.0762-12.6592h2.0518l3.2119,10.0684,3.7246-10.0957h1.6738l3.6982,10.1221,3.1855-10.0947h2.0508l-4.2109,12.6592h-1.9697l-3.6445-10.0146-3.7246,10.0146h-1.9707Z"/>
    <path class="cls-1" d="M364.0923,179.842c-.8369,0-1.4307-.5938-1.4307-1.377,0-.7822.5938-1.376,1.4307-1.376.8096,0,1.4033.5938,1.4033,1.376-.0273.7832-.5938,1.377-1.4033,1.377ZM363.0932,182.8117h1.9971v12.6592h-1.9971v-12.6592Z"/>
    <path class="cls-1" d="M372.5425,194.1486c1.376,0,2.6992-.5938,2.6992-2.1055s-2.1328-2.0244-3.1045-2.3486c-.918-.2969-3.6172-.918-3.6172-3.5898,0-2.3213,2.0244-3.5361,4.0762-3.5361s3.2666.6748,4.1572,1.4844l-.9717,1.2148c-.8906-.7559-2.0518-1.1611-3.1855-1.1611-1.3223,0-2.2402.6211-2.2402,1.8086,0,1.1611,1.2959,1.7012,2.6992,2.1592,1.2686.4326,4.0762,1.0801,4.0762,3.8066,0,2.4287-2.0244,3.8594-4.6436,3.8594-2.0781,0-3.752-.8906-4.6963-2.2402l1.0527-1.2686c1.2148,1.377,2.4834,1.917,3.6982,1.917Z"/>
    <path class="cls-1" d="M385.2055,195.7404c-3.7256,0-6.2354-2.5635-6.2354-6.6396,0-3.5898,2.4561-6.5322,6.2354-6.5322,3.4814,0,5.8838,2.5098,5.8838,5.9922,0,.459-.0811,1.0527-.0811,1.0527h-9.9873c.0273,2.6182,1.8359,4.4541,4.5352,4.4541,2.4834,0,4.2646-1.5928,4.2646-1.5928l.8643,1.1875c-1.1611,1.377-2.9961,2.0781-5.4795,2.0781ZM385.1245,184.2414c-2.5371-.0264-3.9141,1.8896-4.0762,3.8604h8.0166c0-1.7812-1.1602-3.833-3.9404-3.8604Z"/>
    <path class="cls-1" d="M395.6557,195.7404c-.8916,0-1.5391-.5938-1.5391-1.457,0-.918.6475-1.5117,1.5391-1.5117.8906,0,1.5381.5938,1.5381,1.5117,0,.8633-.6475,1.457-1.5381,1.457Z"/>
    <path class="cls-1" d="M193.0766,250.5734h-5.4258v-1.7275h12.8486v1.7275h-5.3984v16.8975h-2.0244v-16.8975Z"/>
    <path class="cls-1" d="M213.2427,259.8049v7.666h-1.9971v-7.5312c0-2.3477-.7559-3.6436-3.1045-3.6436-2.2666,0-3.4004,1.8623-3.4004,4.0488v7.126h-1.998v-18.625h1.998v8.0166h.0811c.5664-1.3496,2.1318-2.2939,3.9404-2.2939,3.6172,0,4.4805,2.2129,4.4805,5.2363Z"/>
    <path class="cls-1" d="M222.3706,267.7404c-3.7246,0-6.2354-2.5635-6.2354-6.6396,0-3.5898,2.4561-6.5322,6.2354-6.5322,3.4824,0,5.8848,2.5098,5.8848,5.9922,0,.459-.0811,1.0527-.0811,1.0527h-9.9873c.0264,2.6182,1.835,4.4541,4.5342,4.4541,2.4834,0,4.2646-1.5928,4.2646-1.5928l.8643,1.1875c-1.1611,1.377-2.9961,2.0781-5.4795,2.0781ZM222.2895,256.2414c-2.5371-.0264-3.9141,1.8896-4.0762,3.8604h8.0176c0-1.7812-1.1611-3.833-3.9414-3.8604Z"/>
    <path class="cls-1" d="M246.2368,264.9875c-.918,1.5117-2.4561,2.4023-4.6152,2.4023-3.3477,0-6.1006-2.1865-6.1006-6.3975,0-3.9678,2.7529-6.4238,6.0459-6.4238,2.3223,0,3.9141,1.1064,4.6973,2.4287h.0537l-.0264-2.1855h1.9971v9.96c0,2.834-.4053,4.3457-1.2148,5.4521-.8096,1.1338-2.3486,2.5918-5.5605,2.5918-3.1846,0-5.29-1.7812-5.4795-1.917l.999-1.4307c.8369.6484,2.6182,1.6465,4.5889,1.6465,3.4814,0,4.6699-2.2666,4.6699-5.4248v-.7021h-.0547ZM246.3716,260.966c0-2.8887-1.7275-4.6973-4.4531-4.6973-2.8613,0-4.3457,2.0781-4.3457,4.6973,0,2.6445,1.5381,4.75,4.3994,4.75,2.8887,0,4.3994-2.1055,4.3994-4.75Z"/>
    <path class="cls-1" d="M252.0981,254.8117h1.9971v2.1592c.5947-1.5391,1.8086-2.4023,3.2129-2.4023.8369,0,1.3496.2158,1.3496.2158l-.1348,1.8896h-.0811c-.4326-.1895-.999-.2432-1.377-.2432-1.1611,0-1.917.8096-2.1328,1.1064-.5127.7295-.8369,1.458-.8369,3.374v6.5596h-1.9971v-12.6592Z"/>
    <path class="cls-1" d="M265.8667,267.7404c-3.7246,0-6.2354-2.5635-6.2354-6.6396,0-3.5898,2.4561-6.5322,6.2354-6.5322,3.4824,0,5.8848,2.5098,5.8848,5.9922,0,.459-.0811,1.0527-.0811,1.0527h-9.9873c.0264,2.6182,1.835,4.4541,4.5342,4.4541,2.4834,0,4.2646-1.5928,4.2646-1.5928l.8643,1.1875c-1.1611,1.377-2.9961,2.0781-5.4795,2.0781ZM265.7856,256.2414c-2.5371-.0264-3.9141,1.8896-4.0762,3.8604h8.0176c0-1.7812-1.1611-3.833-3.9414-3.8604Z"/>
    <path class="cls-1" d="M282.1206,265.7971c-.4863.54-1.7549,1.9434-4.1572,1.9434s-4.3457-1.5381-4.3457-3.8594c0-2.1592,1.5928-3.6709,5.0479-3.833l3.4277-.1621v-.5664c0-2.1328-1.4307-3.0781-3.3467-3.0781-1.8896,0-3.4014.7559-3.752.999l-.6748-1.4307c.8359-.4854,2.5098-1.2412,4.5078-1.2412,3.6973,0,5.29,1.916,5.29,5.4795v7.4229h-1.9707l-.0264-1.6738ZM278.8276,261.5051c-2.3486.1084-3.1318,1.0527-3.1318,2.3486,0,1.2686,1.0527,2.2949,2.6729,2.2949,1.7275,0,3.1582-.999,3.752-1.8086v-2.9961l-3.293.1611Z"/>
    <path class="cls-1" d="M291.1391,267.7404c-3.0234,0-3.0234-2.834-3.0234-5.1279v-6.1006h-1.8896v-1.6738h1.8896v-3.9141h2.0244v3.9141h3.1045v1.6738h-3.1318v6.5049c0,1.0264,0,1.917.4053,2.5107.2158.3242.7021.4854,1.2959.4854.7822,0,1.4033-.2969,1.4033-.2969l.1084,1.6201c-.5938.2695-1.3232.4043-2.1865.4043Z"/>
    <path class="cls-1" d="M308.3091,265.7971c-.4854.54-1.7539,1.9434-4.1562,1.9434s-4.3457-1.5381-4.3457-3.8594c0-2.1592,1.5928-3.6709,5.0469-3.833l3.4287-.1621v-.5664c0-2.1328-1.4307-3.0781-3.3477-3.0781-1.8887,0-3.4004.7559-3.751.999l-.6748-1.4307c.8359-.4854,2.5098-1.2412,4.5068-1.2412,3.6982,0,5.291,1.916,5.291,5.4795v7.4229h-1.9707l-.0273-1.6738ZM305.0161,261.5051c-2.3477.1084-3.1309,1.0527-3.1309,2.3486,0,1.2686,1.0527,2.2949,2.6719,2.2949,1.7275,0,3.1582-.999,3.752-1.8086v-2.9961l-3.293.1611Z"/>
    <path class="cls-1" d="M324.3462,259.8049v7.666h-1.9971v-7.5312c0-2.3477-.7559-3.6436-3.1045-3.6436-2.2676,0-3.4014,1.8623-3.4014,4.0488v7.126h-1.9971v-12.6592h1.9971v2.0508h.0811c.5674-1.3496,2.1328-2.2939,3.9414-2.2939,3.6172,0,4.4805,2.2129,4.4805,5.2363Z"/>
    <path class="cls-1" d="M337.8735,264.9875c-.918,1.5117-2.4561,2.4023-4.6162,2.4023-3.3467,0-6.0996-2.1865-6.0996-6.3975,0-3.9678,2.7529-6.4238,6.0459-6.4238,2.3213,0,3.9141,1.1064,4.6973,2.4287h.0537l-.0273-2.1855h1.998v9.96c0,2.834-.4053,4.3457-1.2148,5.4521-.8096,1.1338-2.3486,2.5918-5.5605,2.5918-3.1855,0-5.291-1.7812-5.4795-1.917l.999-1.4307c.8359.6484,2.6182,1.6465,4.5879,1.6465,3.4824,0,4.6699-2.2666,4.6699-5.4248v-.7021h-.0537ZM338.0083,260.966c0-2.8887-1.7275-4.6973-4.4531-4.6973-2.8613,0-4.3467,2.0781-4.3467,4.6973,0,2.6445,1.5391,4.75,4.4004,4.75,2.8877,0,4.3994-2.1055,4.3994-4.75Z"/>
    <path class="cls-1" d="M354.019,254.7844v12.6865h-1.9434l-.0273-2.0244c-.5664,1.3496-2.1865,2.2402-3.9951,2.2402-3.6172,0-4.5078-2.2129-4.5078-5.2363v-7.666h2.0244v7.5312c0,2.3477.7559,3.6436,3.1045,3.6436,2.2676,0,3.374-1.9434,3.374-4.1572v-7.0176h1.9707Z"/>
    <path class="cls-1" d="M358.8813,251.842c-.8369,0-1.4307-.5938-1.4307-1.377,0-.7822.5938-1.376,1.4307-1.376.8096,0,1.4033.5938,1.4033,1.376-.0273.7832-.5938,1.377-1.4033,1.377ZM357.8823,254.8117h1.9971v12.6592h-1.9971v-12.6592Z"/>
    <path class="cls-1" d="M367.3325,266.1486c1.376,0,2.6992-.5938,2.6992-2.1055s-2.1328-2.0244-3.1045-2.3486c-.918-.2969-3.6172-.918-3.6172-3.5898,0-2.3213,2.0244-3.5361,4.0762-3.5361s3.2666.6748,4.1572,1.4844l-.9717,1.2148c-.8916-.7559-2.0518-1.1611-3.1855-1.1611-1.3223,0-2.2402.6211-2.2402,1.8086,0,1.1611,1.2959,1.7012,2.6992,2.1592,1.2686.4326,4.0762,1.0801,4.0762,3.8066,0,2.4287-2.0244,3.8594-4.6436,3.8594-2.0781,0-3.752-.8906-4.6963-2.2402l1.0527-1.2686c1.2148,1.377,2.4834,1.917,3.6982,1.917Z"/>
    <path class="cls-1" d="M385.2846,259.8049v7.666h-1.9971v-7.5312c0-2.3477-.7559-3.6436-3.1045-3.6436-2.2676,0-3.4014,1.8623-3.4014,4.0488v7.126h-1.9971v-18.625h1.9971v8.0166h.0811c.5674-1.3496,2.1328-2.2939,3.9414-2.2939,3.6172,0,4.4805,2.2129,4.4805,5.2363Z"/>
    <path class="cls-1" d="M395.5737,251.842c-.8369,0-1.4307-.5938-1.4307-1.377,0-.7822.5938-1.376,1.4307-1.376.8096,0,1.4033.5938,1.4033,1.376-.0273.7832-.5938,1.377-1.4033,1.377ZM394.5747,254.8117h1.9971v12.6592h-1.9971v-12.6592Z"/>
    <path class="cls-1" d="M404.0249,266.1486c1.376,0,2.6992-.5938,2.6992-2.1055s-2.1328-2.0244-3.1045-2.3486c-.918-.2969-3.6172-.918-3.6172-3.5898,0-2.3213,2.0244-3.5361,4.0762-3.5361s3.2666.6748,4.1572,1.4844l-.9717,1.2148c-.8906-.7559-2.0518-1.1611-3.1855-1.1611-1.3223,0-2.2402.6211-2.2402,1.8086,0,1.1611,1.2959,1.7012,2.6992,2.1592,1.2686.4326,4.0762,1.0801,4.0762,3.8066,0,2.4287-2.0244,3.8594-4.6436,3.8594-2.0781,0-3.752-.8906-4.6963-2.2402l1.0527-1.2686c1.2148,1.377,2.4834,1.917,3.6982,1.917Z"/>
    <path class="cls-1" d="M415.8237,261.1818c0-3.8604,2.8877-6.6133,6.5859-6.6133s6.6133,2.7529,6.6133,6.6133c0,3.8867-2.915,6.5586-6.6133,6.5586s-6.5859-2.6719-6.5859-6.5586ZM426.9712,261.1271c0-2.7256-1.7539-4.8311-4.5615-4.8311s-4.5352,2.1055-4.5352,4.8311c0,2.7002,1.7275,4.8594,4.5352,4.8594s4.5615-2.1592,4.5615-4.8594Z"/>
    <path class="cls-1" d="M430.0259,254.8117h2.0781l4.0762,10.0684,4.0488-10.0684h2.0781l-5.3174,12.6592h-1.6738l-5.29-12.6592Z"/>
    <path class="cls-1" d="M449.5454,267.7404c-3.7256,0-6.2354-2.5635-6.2354-6.6396,0-3.5898,2.4561-6.5322,6.2354-6.5322,3.4814,0,5.8838,2.5098,5.8838,5.9922,0,.459-.0811,1.0527-.0811,1.0527h-9.9873c.0273,2.6182,1.8359,4.4541,4.5352,4.4541,2.4834,0,4.2646-1.5928,4.2646-1.5928l.8643,1.1875c-1.1611,1.377-2.9961,2.0781-5.4795,2.0781ZM449.4643,256.2414c-2.5371-.0264-3.9141,1.8896-4.0762,3.8604h8.0166c0-1.7812-1.1602-3.833-3.9404-3.8604Z"/>
    <path class="cls-1" d="M458.2143,254.8117h1.9971v2.1592c.5938-1.5391,1.8086-2.4023,3.2119-2.4023.8369,0,1.3506.2158,1.3506.2158l-.1357,1.8896h-.0811c-.4316-.1895-.998-.2432-1.376-.2432-1.1611,0-1.917.8096-2.1328,1.1064-.5127.7295-.8369,1.458-.8369,3.374v6.5596h-1.9971v-12.6592Z"/>
    <path class="cls-1" d="M468.5268,264.9601h2.1328l-2.3213,6.29h-1.5654l1.7539-6.29ZM468.8247,257.592c-.8916,0-1.5391-.5947-1.5391-1.4854s.6475-1.4844,1.5391-1.4844c.8906,0,1.5381.5938,1.5381,1.4844s-.6475,1.4854-1.5381,1.4854Z"/>
    <path class="cls-1" d="M187.3003,307.1144c1.9971,0,2.1592-1.5654,2.1592-3.5352v-12.7676h1.9971v12.7939c0,2.915-.7822,5.21-3.7783,5.21-.7295,0-1.1885-.1348-1.1885-.1348v-1.7275c.3516.1074.6211.1611.8105.1611ZM190.4575,287.842c-.8359,0-1.4297-.5938-1.4297-1.377,0-.7822.5938-1.376,1.4297-1.376.8105,0,1.4043.5938,1.4043,1.376,0,.7832-.5938,1.377-1.4043,1.377Z"/>
    <path class="cls-1" d="M194.4809,297.1818c0-3.8604,2.8887-6.6133,6.5869-6.6133s6.6133,2.7529,6.6133,6.6133c0,3.8867-2.915,6.5586-6.6133,6.5586s-6.5869-2.6719-6.5869-6.5586ZM205.6294,297.1271c0-2.7256-1.7549-4.8311-4.5615-4.8311s-4.5352,2.1055-4.5352,4.8311c0,2.7002,1.7275,4.8594,4.5352,4.8594s4.5615-2.1592,4.5615-4.8594Z"/>
    <path class="cls-1" d="M208.0893,290.7844l2.0781.0273,4.1035,10.4189,4.0215-10.4463,2.0791.0273-6.1816,14.9531c-.9717,2.3223-1.8359,2.9424-3.1855,2.9424-1.1338,0-1.9697-.4316-1.9697-.4316l.4043-1.7002s.7021.2969,1.2686.2969c.6484,0,1.1074-.0273,1.8359-1.7549l.7021-1.6465-5.1562-12.6865Z"/>
    <path class="cls-1" d="M238.2446,295.8049v7.666h-1.9971v-7.5312c0-2.3477-.7559-3.6436-3.1045-3.6436-2.2676,0-3.4014,1.8623-3.4014,4.0488v7.126h-1.9971v-18.625h1.9971v8.0166h.0811c.5674-1.3496,2.1328-2.2939,3.9414-2.2939,3.6162,0,4.4805,2.2129,4.4805,5.2363Z"/>
    <path class="cls-1" d="M249.3423,301.7971c-.4854.54-1.7539,1.9434-4.1562,1.9434s-4.3467-1.5381-4.3467-3.8594c0-2.1592,1.5928-3.6709,5.0479-3.833l3.4287-.1621v-.5664c0-2.1328-1.4307-3.0781-3.3477-3.0781-1.8896,0-3.4014.7559-3.752.999l-.6748-1.4307c.8369-.4854,2.5107-1.2412,4.5078-1.2412,3.6982,0,5.291,1.916,5.291,5.4795v7.4229h-1.9707l-.0273-1.6738ZM246.0493,297.5051c-2.3486.1084-3.1309,1.0527-3.1309,2.3486,0,1.2686,1.0527,2.2949,2.6719,2.2949,1.7275,0,3.1582-.999,3.752-1.8086v-2.9961l-3.293.1611Z"/>
    <path class="cls-1" d="M258.4155,302.1486c1.377,0,2.6992-.5938,2.6992-2.1055s-2.1328-2.0244-3.1045-2.3486c-.917-.2969-3.6162-.918-3.6162-3.5898,0-2.3213,2.0244-3.5361,4.0752-3.5361s3.2666.6748,4.1572,1.4844l-.9717,1.2148c-.8906-.7559-2.0518-1.1611-3.1855-1.1611-1.3223,0-2.2402.6211-2.2402,1.8086,0,1.1611,1.2959,1.7012,2.6992,2.1592,1.2686.4326,4.0762,1.0801,4.0762,3.8066,0,2.4287-2.0244,3.8594-4.6426,3.8594-2.0791,0-3.752-.8906-4.6973-2.2402l1.0527-1.2686c1.2148,1.377,2.4834,1.917,3.6982,1.917Z"/>
    <path class="cls-1" d="M271.1059,290.8117h1.9971v2.1592c.5947-1.5391,1.8086-2.4023,3.2129-2.4023.8369,0,1.3496.2158,1.3496.2158l-.1348,1.8896h-.0811c-.4326-.1895-.999-.2432-1.377-.2432-1.1611,0-1.917.8096-2.1328,1.1064-.5127.7295-.8369,1.458-.8369,3.374v6.5596h-1.9971v-12.6592Z"/>
    <path class="cls-1" d="M284.8745,303.7404c-3.7246,0-6.2354-2.5635-6.2354-6.6396,0-3.5898,2.4561-6.5322,6.2354-6.5322,3.4824,0,5.8848,2.5098,5.8848,5.9922,0,.459-.0811,1.0527-.0811,1.0527h-9.9873c.0264,2.6182,1.835,4.4541,4.5342,4.4541,2.4834,0,4.2646-1.5928,4.2646-1.5928l.8643,1.1875c-1.1611,1.377-2.9961,2.0781-5.4795,2.0781ZM284.7934,292.2414c-2.5371-.0264-3.9141,1.8896-4.0762,3.8604h8.0176c0-1.7812-1.1611-3.833-3.9414-3.8604Z"/>
    <path class="cls-1" d="M297.0249,303.7404c-3.0234,0-3.0234-2.834-3.0234-5.1279v-6.1006h-1.8896v-1.6738h1.8896v-3.9141h2.0244v3.9141h3.1045v1.6738h-3.1318v6.5049c0,1.0264,0,1.917.4053,2.5107.2158.3242.7021.4854,1.2959.4854.7822,0,1.4033-.2969,1.4033-.2969l.1084,1.6201c-.5938.2695-1.3232.4043-2.1865.4043Z"/>
    <path class="cls-1" d="M311.7915,290.7844v12.6865h-1.9434l-.0273-2.0244c-.5664,1.3496-2.1865,2.2402-3.9951,2.2402-3.6162,0-4.5068-2.2129-4.5068-5.2363v-7.666h2.0244v7.5312c0,2.3477.7549,3.6436,3.1035,3.6436,2.2676,0,3.374-1.9434,3.374-4.1572v-7.0176h1.9707Z"/>
    <path class="cls-1" d="M315.52,290.8117h1.9971v2.1592c.5938-1.5391,1.8086-2.4023,3.2119-2.4023.8369,0,1.3506.2158,1.3506.2158l-.1357,1.8896h-.0811c-.4316-.1895-.998-.2432-1.376-.2432-1.1611,0-1.917.8096-2.1328,1.1064-.5127.7295-.8369,1.458-.8369,3.374v6.5596h-1.9971v-12.6592Z"/>
    <path class="cls-1" d="M334.5786,295.8049v7.666h-1.9971v-7.5312c0-2.3477-.7559-3.6436-3.1045-3.6436-2.2676,0-3.4014,1.8623-3.4014,4.0488v7.126h-1.9971v-12.6592h1.9971v2.0508h.0811c.5674-1.3496,2.1328-2.2939,3.9414-2.2939,3.6172,0,4.4805,2.2129,4.4805,5.2363Z"/>
    <path class="cls-1" d="M343.6255,303.7404c-3.7256,0-6.2354-2.5635-6.2354-6.6396,0-3.5898,2.4561-6.5322,6.2354-6.5322,3.4814,0,5.8838,2.5098,5.8838,5.9922,0,.459-.0811,1.0527-.0811,1.0527h-9.9873c.0273,2.6182,1.8359,4.4541,4.5352,4.4541,2.4834,0,4.2646-1.5928,4.2646-1.5928l.8643,1.1875c-1.1611,1.377-2.9961,2.0781-5.4795,2.0781ZM343.5444,292.2414c-2.5371-.0264-3.9141,1.8896-4.0762,3.8604h8.0166c0-1.7812-1.1602-3.833-3.9404-3.8604Z"/>
    <path class="cls-1" d="M362.3618,301.2844h-.0273c-.918,1.5117-2.6182,2.4561-4.751,2.4561-3.8594,0-6.0459-2.7803-6.0459-6.5859,0-3.752,2.4287-6.5859,6.1543-6.5859,1.9434,0,3.6436.8906,4.5615,2.4023h.0537v-8.125h1.998v18.625h-1.9434v-2.1865ZM362.3618,297.1008c0-2.7539-1.5664-4.832-4.373-4.832-2.7803,0-4.4004,2.0518-4.4004,4.8047,0,2.7266,1.6201,4.9395,4.4004,4.9395,2.8066,0,4.373-2.1855,4.373-4.9121Z"/>
    <path class="cls-1" d="M370.0044,300.9601h2.1328l-2.3213,6.29h-1.5654l1.7539-6.29ZM370.3022,293.592c-.8916,0-1.5391-.5947-1.5391-1.4854s.6475-1.4844,1.5391-1.4844c.8906,0,1.5381.5938,1.5381,1.4844s-.6475,1.4854-1.5381,1.4854Z"/>
    <path class="cls-1" d="M192.8061,339.7404c-3.0234,0-3.0234-2.834-3.0234-5.1279v-6.1006h-1.8887v-1.6738h1.8887v-3.9141h2.0254v3.9141h3.1035v1.6738h-3.1309v6.5049c0,1.0264,0,1.917.4043,2.5107.2168.3242.7021.4854,1.2959.4854.7832,0,1.4043-.2969,1.4043-.2969l.1074,1.6201c-.5938.2695-1.3223.4043-2.1865.4043Z"/>
    <path class="cls-1" d="M207.9243,331.8049v7.666h-1.9971v-7.5312c0-2.3477-.7559-3.6436-3.1045-3.6436-2.2676,0-3.4014,1.8623-3.4014,4.0488v7.126h-1.9971v-18.625h1.9971v8.0166h.0811c.5674-1.3496,2.1328-2.2939,3.9414-2.2939,3.6162,0,4.4805,2.2129,4.4805,5.2363Z"/>
    <path class="cls-1" d="M217.0512,339.7404c-3.7246,0-6.2354-2.5635-6.2354-6.6396,0-3.5898,2.457-6.5322,6.2354-6.5322,3.4824,0,5.8848,2.5098,5.8848,5.9922,0,.459-.0811,1.0527-.0811,1.0527h-9.9873c.0273,2.6182,1.8359,4.4541,4.5352,4.4541,2.4834,0,4.2646-1.5928,4.2646-1.5928l.8633,1.1875c-1.1602,1.377-2.9961,2.0781-5.4795,2.0781ZM216.9712,328.2414c-2.5381-.0264-3.9141,1.8896-4.0762,3.8604h8.0166c0-1.7812-1.1611-3.833-3.9404-3.8604Z"/>
    <path class="cls-1" d="M234.6294,338.1486c1.376,0,2.6992-.5938,2.6992-2.1055s-2.1328-2.0244-3.1045-2.3486c-.918-.2969-3.6172-.918-3.6172-3.5898,0-2.3213,2.0244-3.5361,4.0762-3.5361s3.2656.6748,4.1562,1.4844l-.9717,1.2148c-.8906-.7559-2.0508-1.1611-3.1846-1.1611-1.3232,0-2.2402.6211-2.2402,1.8086,0,1.1611,1.2949,1.7012,2.6992,2.1592,1.2686.4326,4.0752,1.0801,4.0752,3.8066,0,2.4287-2.0244,3.8594-4.6426,3.8594-2.0781,0-3.752-.8906-4.6963-2.2402l1.0527-1.2686c1.2148,1.377,2.4834,1.917,3.6982,1.917Z"/>
    <path class="cls-1" d="M247.2915,339.7404c-3.7246,0-6.2354-2.5635-6.2354-6.6396,0-3.5898,2.4561-6.5322,6.2354-6.5322,3.4824,0,5.8848,2.5098,5.8848,5.9922,0,.459-.0811,1.0527-.0811,1.0527h-9.9873c.0264,2.6182,1.835,4.4541,4.5342,4.4541,2.4834,0,4.2646-1.5928,4.2646-1.5928l.8643,1.1875c-1.1611,1.377-2.9961,2.0781-5.4795,2.0781ZM247.2104,328.2414c-2.5371-.0264-3.9141,1.8896-4.0762,3.8604h8.0176c0-1.7812-1.1611-3.833-3.9414-3.8604Z"/>
    <path class="cls-1" d="M263.5444,337.7971c-.4854.54-1.7539,1.9434-4.1562,1.9434s-4.3467-1.5381-4.3467-3.8594c0-2.1592,1.5928-3.6709,5.0479-3.833l3.4287-.1621v-.5664c0-2.1328-1.4307-3.0781-3.3477-3.0781-1.8896,0-3.4014.7559-3.752.999l-.6748-1.4307c.8369-.4854,2.5107-1.2412,4.5078-1.2412,3.6982,0,5.291,1.916,5.291,5.4795v7.4229h-1.9707l-.0273-1.6738ZM260.2514,333.5051c-2.3486.1084-3.1309,1.0527-3.1309,2.3486,0,1.2686,1.0527,2.2949,2.6719,2.2949,1.7275,0,3.1582-.999,3.752-1.8086v-2.9961l-3.293.1611Z"/>
    <path class="cls-1" d="M277.9907,338.1486c1.376,0,2.6992-.5938,2.6992-2.1055s-2.1328-2.0244-3.1045-2.3486c-.918-.2969-3.6172-.918-3.6172-3.5898,0-2.3213,2.0244-3.5361,4.0762-3.5361s3.2656.6748,4.1562,1.4844l-.9717,1.2148c-.8906-.7559-2.0508-1.1611-3.1846-1.1611-1.3232,0-2.2402.6211-2.2402,1.8086,0,1.1611,1.2949,1.7012,2.6992,2.1592,1.2686.4326,4.0752,1.0801,4.0752,3.8066,0,2.4287-2.0244,3.8594-4.6426,3.8594-2.0781,0-3.752-.8906-4.6963-2.2402l1.0527-1.2686c1.2148,1.377,2.4834,1.917,3.6982,1.917Z"/>
    <path class="cls-1" d="M298.7505,326.5685c3.6973,0,4.3994,2.6182,4.3994,5.2637v7.6387h-1.9971v-7.5312c0-1.5381-.4053-3.6436-2.6729-3.6436-2.0781,0-3.2393,2.0244-3.2393,4.5078v6.667h-1.9971v-7.5312c0-1.5381-.4053-3.6436-2.6719-3.6436-2.0791,0-3.2666,2.0244-3.2666,4.5078v6.667h-1.9971v-12.6592h1.9971l-.0273,2.0244h.0811c.6211-1.2959,1.9434-2.2676,3.4824-2.2676,2.4834,0,3.6172,1.1602,4.0762,2.7256.5391-1.5654,2.0508-2.7256,3.833-2.7256Z"/>
    <path class="cls-1" d="M307.9331,323.842c-.8369,0-1.4307-.5938-1.4307-1.377,0-.7822.5938-1.376,1.4307-1.376.8096,0,1.4033.5938,1.4033,1.376-.0273.7832-.5938,1.377-1.4033,1.377ZM306.9341,326.8117h1.9971v12.6592h-1.9971v-12.6592Z"/>
    <path class="cls-1" d="M312.9819,320.8459h1.9971v18.625h-1.9971v-18.625Z"/>
    <path class="cls-1" d="M324.2397,339.7404c-3.7256,0-6.2354-2.5635-6.2354-6.6396,0-3.5898,2.4561-6.5322,6.2354-6.5322,3.4814,0,5.8838,2.5098,5.8838,5.9922,0,.459-.0811,1.0527-.0811,1.0527h-9.9873c.0273,2.6182,1.8359,4.4541,4.5352,4.4541,2.4834,0,4.2646-1.5928,4.2646-1.5928l.8643,1.1875c-1.1611,1.377-2.9961,2.0781-5.4795,2.0781ZM324.1587,328.2414c-2.5371-.0264-3.9141,1.8896-4.0762,3.8604h8.0166c0-1.7812-1.1602-3.833-3.9404-3.8604Z"/>
    <path class="cls-1" d="M336.4448,338.1486c1.376,0,2.6992-.5938,2.6992-2.1055s-2.1328-2.0244-3.1045-2.3486c-.918-.2969-3.6172-.918-3.6172-3.5898,0-2.3213,2.0244-3.5361,4.0762-3.5361s3.2666.6748,4.1572,1.4844l-.9717,1.2148c-.8906-.7559-2.0518-1.1611-3.1855-1.1611-1.3223,0-2.2402.6211-2.2402,1.8086,0,1.1611,1.2959,1.7012,2.6992,2.1592,1.2686.4326,4.0762,1.0801,4.0762,3.8066,0,2.4287-2.0244,3.8594-4.6436,3.8594-2.0781,0-3.752-.8906-4.6963-2.2402l1.0527-1.2686c1.2148,1.377,2.4834,1.917,3.6982,1.917Z"/>
    <path class="cls-1" d="M349.27,320.8459h1.9971v18.625h-1.9971v-18.625Z"/>
    <path class="cls-1" d="M356.3169,323.842c-.8369,0-1.4307-.5938-1.4307-1.377,0-.7822.5938-1.376,1.4307-1.376.8096,0,1.4033.5938,1.4033,1.376-.0273.7832-.5938,1.377-1.4033,1.377ZM355.3178,326.8117h1.9971v12.6592h-1.9971v-12.6592Z"/>
    <path class="cls-1" d="M363.3628,339.4709h-1.9971v-18.625h1.9971v11.3906l5.5342-5.4248h2.4834l-5.1016,4.8047,5.8301,7.8545h-2.4023l-4.7773-6.5859-1.5664,1.4844v5.1016Z"/>
    <path class="cls-1" d="M379.1577,339.7404c-3.7256,0-6.2354-2.5635-6.2354-6.6396,0-3.5898,2.4561-6.5322,6.2354-6.5322,3.4814,0,5.8838,2.5098,5.8838,5.9922,0,.459-.0811,1.0527-.0811,1.0527h-9.9873c.0273,2.6182,1.8359,4.4541,4.5352,4.4541,2.4834,0,4.2646-1.5928,4.2646-1.5928l.8643,1.1875c-1.1611,1.377-2.9961,2.0781-5.4795,2.0781ZM379.0766,328.2414c-2.5371-.0264-3.9141,1.8896-4.0762,3.8604h8.0166c0-1.7812-1.1602-3.833-3.9404-3.8604Z"/>
    <path class="cls-1" d="M400.5122,337.7971c-.4854.54-1.7539,1.9434-4.1562,1.9434s-4.3457-1.5381-4.3457-3.8594c0-2.1592,1.5918-3.6709,5.0469-3.833l3.4287-.1621v-.5664c0-2.1328-1.4307-3.0781-3.3477-3.0781-1.8887,0-3.4004.7559-3.752.999l-.6748-1.4307c.8369-.4854,2.5107-1.2412,4.5078-1.2412,3.6982,0,5.291,1.916,5.291,5.4795v7.4229h-1.9707l-.0273-1.6738ZM397.2192,333.5051c-2.3477.1084-3.1309,1.0527-3.1309,2.3486,0,1.2686,1.0527,2.2949,2.6719,2.2949,1.7275,0,3.1582-.999,3.752-1.8086v-2.9961l-3.293.1611Z"/>
    <path class="cls-1" d="M416.8218,339.7678c-3.4014,0-6.2891-2.4297-6.2891-6.6133,0-3.9951,3.0498-6.5859,6.3975-6.5859,2.8066,0,4.0215.918,4.8848,1.7002l-.8906,1.5654c-.8369-.7822-1.9434-1.457-3.9141-1.457-2.4561,0-4.4268,1.835-4.4268,4.75,0,2.8887,1.9443,4.832,4.6162,4.832,2.6182,0,3.8867-1.6738,3.8867-1.6738l.8643,1.458c-.5938.6748-1.9434,2.0244-5.1289,2.0244Z"/>
    <path class="cls-1" d="M434.8012,331.8049v7.666h-1.9971v-7.5312c0-2.3477-.7559-3.6436-3.1045-3.6436-2.2676,0-3.4014,1.8623-3.4014,4.0488v7.126h-1.9971v-18.625h1.9971v8.0166h.0811c.5674-1.3496,2.1328-2.2939,3.9414-2.2939,3.6172,0,4.4805,2.2129,4.4805,5.2363Z"/>
    <path class="cls-1" d="M439.7182,323.842c-.8369,0-1.4307-.5938-1.4307-1.377,0-.7822.5938-1.376,1.4307-1.376.8096,0,1.4033.5938,1.4033,1.376-.0273.7832-.5938,1.377-1.4033,1.377ZM438.7192,326.8117h1.9971v12.6592h-1.9971v-12.6592Z"/>
    <path class="cls-1" d="M444.7671,320.8459h1.9971v18.625h-1.9971v-18.625Z"/>
    <path class="cls-1" d="M460.6137,337.2844h-.0273c-.918,1.5117-2.6182,2.4561-4.751,2.4561-3.8594,0-6.0459-2.7803-6.0459-6.5859,0-3.752,2.4287-6.5859,6.1543-6.5859,1.9434,0,3.6436.8906,4.5615,2.4023h.0537v-8.125h1.998v18.625h-1.9434v-2.1865ZM460.6137,333.1008c0-2.7539-1.5664-4.832-4.373-4.832-2.7803,0-4.4004,2.0518-4.4004,4.8047,0,2.7266,1.6201,4.9395,4.4004,4.9395,2.8066,0,4.373-2.1855,4.373-4.9121Z"/>
    <path class="cls-1" d="M468.5542,339.7404c-.8916,0-1.5391-.5938-1.5391-1.457,0-.918.6475-1.5117,1.5391-1.5117.8906,0,1.5381.5938,1.5381,1.5117,0,.8633-.6475,1.457-1.5381,1.457Z"/>
    <path d="M191.4966,382.6056c.9668,0,1.8076.1963,2.4238.7139.6299.5186,1.0088,1.2051,1.0088,2.1855s-.3789,1.6807-1.0088,2.1992c-.6162.5186-1.457.7559-2.4238.7559h-1.2744v3.8105h-1.835v-9.665h3.1094ZM192.52,386.6672c.3076-.2236.5322-.6162.5322-1.1621,0-.5322-.2666-.9248-.5752-1.1484-.3076-.2246-.6855-.3223-1.2461-.3223h-1.0225v2.9971h1.0645c.5605,0,.9385-.1396,1.2471-.3643Z"/>
    <path d="M198.3139,390.0431l-.8408,2.2275h-1.8906l3.7959-9.6797h1.7656l3.7959,9.6797h-1.9893l-.8408-2.2275h-3.7959ZM201.6616,388.5871l-1.4424-3.9082-1.457,3.9082h2.8994Z"/>
    <path d="M214.1792,388.2785c0,1.2891-.1816,2.2275-.8545,2.998-.6582.7422-1.667,1.1621-3.0117,1.1621s-2.3535-.4199-3.0117-1.1621c-.6719-.7705-.8545-1.709-.8545-2.998v-5.6729h1.835v5.6172c0,.7422.0283,1.4004.4062,1.8906.3506.4482.8965.7285,1.625.7285.7422,0,1.2744-.2803,1.625-.7285.3779-.4902.4199-1.1484.4199-1.8906v-5.6172h1.8213v5.6729Z"/>
    <path d="M218.6841,382.6056v8.1523h3.376v1.5127h-5.1836v-9.665h1.8076Z"/>
    <path d="M232.1948,386.9474h4.0908v3.8809c-.3369.3213-1.583,1.6104-4.1748,1.6104-2.7451,0-5.0146-1.7363-5.0146-4.9863,0-3.1104,2.2695-4.9873,4.9873-4.9873,2.4932,0,3.6133,1.3311,3.9502,1.6816l-1.2188,1.0781c-.4902-.5605-1.3174-1.2188-2.7314-1.2188-1.7656,0-3.1104,1.2607-3.1104,3.4316s1.3867,3.4326,3.1797,3.4326c1.7793,0,2.3672-.7285,2.3672-.7285v-1.7793h-2.3252v-1.415Z"/>
    <path d="M240.3423,390.0431l-.8408,2.2275h-1.8906l3.7959-9.6797h1.7646l3.7959,9.6797h-1.9893l-.8398-2.2275h-3.7959ZM243.6899,388.5871l-1.4434-3.9082-1.4561,3.9082h2.8994Z"/>
    <path d="M256.2065,388.2785c0,1.2891-.1816,2.2275-.8535,2.998-.6592.7422-1.667,1.1621-3.0117,1.1621s-2.3535-.4199-3.0117-1.1621c-.6729-.7705-.8545-1.709-.8545-2.998v-5.6729h1.835v5.6172c0,.7422.0273,1.4004.4062,1.8906.3496.4482.8965.7285,1.625.7285.7422,0,1.2744-.2803,1.624-.7285.3789-.4902.4209-1.1484.4209-1.8906v-5.6172h1.8203v5.6729Z"/>
    <path d="M263.4848,386.9474h4.0908v3.8809c-.3369.3213-1.583,1.6104-4.1748,1.6104-2.7451,0-5.0146-1.7363-5.0146-4.9863,0-3.1104,2.2695-4.9873,4.9873-4.9873,2.4932,0,3.6133,1.3311,3.9502,1.6816l-1.2188,1.0781c-.4902-.5605-1.3174-1.2188-2.7314-1.2188-1.7656,0-3.1104,1.2607-3.1104,3.4316s1.3867,3.4326,3.1797,3.4326c1.7793,0,2.3672-.7285,2.3672-.7285v-1.7793h-2.3252v-1.415Z"/>
    <path d="M277.6968,388.2785c0,1.2891-.1816,2.2275-.8545,2.998-.6582.7422-1.667,1.1621-3.0117,1.1621s-2.3535-.4199-3.0117-1.1621c-.6719-.7705-.8545-1.709-.8545-2.998v-5.6729h1.835v5.6172c0,.7422.0283,1.4004.4062,1.8906.3506.4482.8965.7285,1.625.7285.7422,0,1.2744-.2803,1.625-.7285.3779-.4902.4199-1.1484.4199-1.8906v-5.6172h1.8213v5.6729Z"/>
    <path d="M282.2153,382.6056v9.665h-1.8213v-9.665h1.8213Z"/>
    <path d="M286.7651,387.5217v4.749h-1.7793v-9.665h1.9336l4.8047,7.0459s-.0283-1.1348-.0283-2.2832v-4.7627h1.7793v9.665h-1.835l-4.9033-7.1299s.0283,1.2324.0283,2.3809Z"/>
  </g>
</svg>