<?xml version="1.0" encoding="UTF-8"?>
<svg id="Layer_1" data-name="Layer 1" xmlns="http://www.w3.org/2000/svg" viewBox="0 0 800 496">
  <path d="M227.8794,252.0688c0,4.6074-3.3838,7.668-8.6387,7.668-4.248,0-7.1641-1.9805-8.7832-3.8516l2.2314-3.3848c1.9443,2.125,4.2842,3.2764,6.624,3.2764,2.3027,0,3.8867-1.1162,3.8867-3.2764,0-1.9434-1.2959-2.5918-3.4199-3.4551l-3.8867-1.5479c-2.7002-1.0791-4.5-2.9873-4.5-6.0107,0-4.3203,3.3838-7.3076,8.6035-7.3076,3.5273,0,6.083,1.4756,7.5586,2.9873l-2.2314,3.3477c-1.584-1.4395-3.4912-2.4834-5.6152-2.4834-2.0518,0-3.6719,1.0078-3.6719,2.8438,0,1.7998,1.5479,2.4834,2.8438,3.0234l4.1396,1.6924c3.4912,1.4395,4.8594,3.3828,4.8594,6.4785Z"/>
  <path d="M231.4458,250.6645c0-5.5059,4.1035-9.1055,9.4668-9.1055,5.3262,0,9.4297,3.5996,9.4297,9.1055s-4.1035,9.0352-9.4297,9.0352c-5.3633,0-9.4668-3.5273-9.4668-9.0352ZM240.9126,245.266c-3.0244,0-4.6797,2.3037-4.6797,5.291s1.6553,5.3281,4.6797,5.3281c2.9512,0,4.6787-2.3398,4.6787-5.3281s-1.7275-5.291-4.6787-5.291Z"/>
  <path d="M271.6919,259.3041h-4.5352l-5.5801-17.4219h4.5723l3.6348,12.4912,4.1396-12.4912h3.5996l4.2842,12.167,3.3467-12.167h4.5713l-5.7588,17.4219h-4.1396l-4.2832-11.8066-3.8516,11.8066Z"/>
  <path d="M309.7778,248.9731v10.3311h-4.6074v-9.3232c0-2.5918-.4668-4.6426-3.1309-4.6426-2.8438,0-3.8164,2.375-3.8164,5.291v8.6748h-4.5703v-24.8369h4.5703v10.043h.0723c.9355-1.8359,2.7002-2.9512,5.2197-2.9512,5.0029,0,6.2627,3.2383,6.2627,7.4141Z"/>
  <path d="M320.1479,259.6996c-3.3838,0-6.1191-1.8359-6.1191-5.4707s3.5635-5.0391,7.1631-5.291l4.1758-.2891v-.4668c0-2.2324-1.4766-3.2754-3.8877-3.2754-2.3037,0-4.2119.8633-4.9678,1.4395l-1.4043-2.9521c1.332-.792,3.7803-1.835,6.8037-1.835,3.0957,0,4.8594.791,6.1553,2.0156,1.2598,1.2227,1.9082,2.8066,1.9082,5.7588v9.9707h-4.4277l-.0723-2.0156c-.7197,1.2598-2.7354,2.4111-5.3271,2.4111ZM318.6362,254.0844c0,1.4766,1.1162,2.4844,3.0234,2.4844,1.7998,0,3.1318-1.0439,3.7432-1.9082v-3.2031l-3.1309.1797c-2.4473.1445-3.6357.9717-3.6357,2.4473Z"/>
  <path d="M342.8266,255.8481c.9365,0,1.6562-.2871,1.6562-.2871l.252,3.5625c-.2158.0723-1.584.5762-3.5273.5762-3.5635,0-5.0391-1.6191-5.0391-6.1543v-8.0635h-2.5918v-3.5635h2.5918v-4.9668h4.5713v4.9668h4.0312v3.5635h-4.0312v7.0557c0,2.6631.4678,3.3105,2.0869,3.3105Z"/>
  <path d="M370.8345,253.977l1.2949,3.3828c-.3594.3242-2.1592,2.3398-6.8027,2.3398-4.751,0-9.1426-3.2754-9.1426-8.9629,0-5.7227,4.5352-9.1777,9.2148-9.1777,4.3916,0,6.1191,1.7637,6.5869,2.2305l-1.2598,3.4561c-.54-.5039-2.0869-1.835-4.7871-1.835-2.7354,0-4.9316,1.9072-4.9316,5.1113s2.1963,5.291,5.1836,5.291,4.6436-1.8359,4.6436-1.8359Z"/>
  <path d="M381.563,259.6996c-3.3838,0-6.1191-1.8359-6.1191-5.4707s3.5635-5.0391,7.1631-5.291l4.1748-.2891v-.4668c0-2.2324-1.4746-3.2754-3.8867-3.2754-2.3037,0-4.2119.8633-4.9678,1.4395l-1.4033-2.9521c1.332-.792,3.7793-1.835,6.8027-1.835,3.0957,0,4.8594.791,6.1553,2.0156,1.2598,1.2227,1.9072,2.8066,1.9072,5.7588v9.9707h-4.4268l-.0723-2.0156c-.7197,1.2598-2.7354,2.4111-5.3271,2.4111ZM380.0512,254.0844c0,1.4766,1.1152,2.4844,3.0234,2.4844,1.7998,0,3.1318-1.0439,3.7441-1.9082v-3.2031l-3.1328.1797c-2.4473.1445-3.6348.9717-3.6348,2.4473Z"/>
  <path d="M405.2143,245.3383c-2.8438,0-3.8154,2.375-3.8154,5.291v8.6748h-4.6074v-17.4219h4.6074l-.0361,2.6279h.1084c.9355-1.8359,2.6992-2.9512,5.2188-2.9512,5.0039,0,6.2637,3.2383,6.2637,7.4141v10.3311h-4.6074v-9.3232c0-2.5918-.4688-4.6426-3.1318-4.6426Z"/>
  <path d="M435.2739,259.3041h-4.5352l-5.5801-17.4219h4.5723l3.6348,12.4912,4.1396-12.4912h3.5996l4.2842,12.167,3.3467-12.167h4.5713l-5.7588,17.4219h-4.1396l-4.2832-11.8066-3.8516,11.8066Z"/>
  <path d="M465.8384,256.1723c2.3389,0,4.4268-1.043,5.2549-1.7637l1.7998,2.4844c-.9727,1.0078-3.5996,2.8066-7.8477,2.8066-5.2549,0-9.1426-3.2031-9.1426-8.8184,0-5.5801,4.0684-9.3223,9.0352-9.3223,5.3633,0,8.6035,3.5273,8.6035,8.1699,0,.9004-.0723,2.3398-.0723,2.3398h-12.8145c.4316,2.7715,2.5547,4.1035,5.1836,4.1035ZM460.5825,249.0815h8.3516c-.0723-1.9072-.793-4.1035-4.0322-4.1035-2.7354,0-4.1748,1.9072-4.3193,4.1035Z"/>
  <path d="M499.7485,256.5688c-1.4033,2.2314-3.5625,3.1309-5.9746,3.1309-5.1113,0-8.2432-3.959-8.2432-9.1426,0-4.9316,3.2754-8.998,8.5674-8.998,2.3398,0,4.3184.8633,5.543,2.7344h.0723c-.0371-.791-.0371-1.7266-.0371-2.9512v-6.875h4.5723v24.8369h-4.3555l-.0361-2.7354h-.1084ZM499.7846,250.557c0-2.916-1.9072-5.4707-4.8594-5.4707-2.9873,0-4.7158,2.5547-4.7158,5.4707,0,3.0234,1.873,5.3994,4.8594,5.3994,2.7725,0,4.7158-2.124,4.7158-5.3994Z"/>
  <path d="M509.0386,250.6645c0-5.5059,4.1035-9.1055,9.4668-9.1055,5.3271,0,9.4307,3.5996,9.4307,9.1055s-4.1035,9.0352-9.4307,9.0352c-5.3633,0-9.4668-3.5273-9.4668-9.0352ZM518.5053,245.266c-3.0234,0-4.6797,2.3037-4.6797,5.291s1.6562,5.3281,4.6797,5.3281c2.9521,0,4.6787-2.3398,4.6787-5.3281s-1.7266-5.291-4.6787-5.291Z"/>
  <path d="M537.8374,244.9067l2.124-1.7285c.7559-.6113,1.3672-1.3672,1.3672-2.4473,0-1.7285-1.4395-2.8438-3.7432-2.8438-2.0879,0-3.8877,1.3672-4.8232,2.3027l-1.8359-2.6631c1.1162-1.3682,3.2031-3.4189,7.415-3.4189,4.4277,0,7.2705,2.5918,7.2705,6.082,0,2.9883-1.3311,4.3926-2.8066,5.7598-1.2598,1.1875-2.5918,1.9082-3.0234,2.7363-.2168.3955-.2891.7188-.3242,1.332l-.0723,2.1592h-3.8877l-.0713-2.4482c-.0723-2.5195,1.043-3.707,2.4111-4.8223ZM534.562,257.0365c0-1.6924,1.1885-2.7002,2.8799-2.7002,1.7275,0,2.8789,1.0078,2.8789,2.7002,0,1.6553-1.1514,2.6631-2.8789,2.6631-1.6914,0-2.8799-1.0078-2.8799-2.6631Z"/>
</svg>