<?xml version="1.0" encoding="UTF-8"?>
<svg id="Layer_1" data-name="Layer 1" xmlns="http://www.w3.org/2000/svg" viewBox="0 0 800 496">
  <path d="M217.1528,224.4378v10.9785h-4.6797v-24.8379h4.6797v9.9355h11.5898v-9.9355h4.6436v24.8379h-4.6436v-10.9785h-11.5898Z"/>
  <path d="M246.852,231.9603c2.7715,0,3.8145-2.1963,3.8145-5.1113v-8.8545h4.6074v17.4219h-4.4629l-.0361-2.4482c-1.0078,1.7275-2.8799,2.7715-5.3994,2.7715-5.0039,0-6.2266-3.2393-6.2266-7.415v-10.3301h4.6074v9.3223c0,2.5918.4316,4.6436,3.0957,4.6436Z"/>
  <path d="M265.5356,217.9945l-.0723,2.8066h.1074c.6846-1.8711,2.4121-3.1309,4.2842-3.1309,1.1885,0,1.8359.3242,1.8359.3242l-.3242,3.9951h-.2158c-.5039-.1436-1.2959-.2158-1.9082-.2158-1.3672,0-2.4111.5762-3.0586,1.6914-.4326.8643-.6484,2.0518-.6484,3.3838v8.5674h-4.5723v-17.4219h4.5723Z"/>
  <path d="M279.9712,217.9945l-.0723,2.8066h.1074c.6846-1.8711,2.4121-3.1309,4.2842-3.1309,1.1885,0,1.8359.3242,1.8359.3242l-.3242,3.9951h-.2158c-.5039-.1436-1.2959-.2158-1.9082-.2158-1.3672,0-2.4111.5762-3.0586,1.6914-.4326.8643-.6484,2.0518-.6484,3.3838v8.5674h-4.5723v-17.4219h4.5723Z"/>
  <path d="M289.5112,212.6664c0-1.4756,1.1514-2.5547,2.7715-2.5547s2.7725,1.0791,2.7725,2.5547c0,1.5117-1.1523,2.5566-2.7725,2.5566s-2.7715-1.0449-2.7715-2.5566ZM294.5864,217.9945v17.4219h-4.6074v-17.4219h4.6074Z"/>
  <path d="M313.8462,230.0882l1.2949,3.3838c-.3594.3242-2.1592,2.3398-6.8027,2.3398-4.751,0-9.1426-3.2764-9.1426-8.9629,0-5.7236,4.5352-9.1787,9.2148-9.1787,4.3916,0,6.1191,1.7637,6.5879,2.2314l-1.2607,3.4561c-.54-.5039-2.0869-1.8359-4.7871-1.8359-2.7354,0-4.9316,1.9082-4.9316,5.1113s2.1963,5.291,5.1836,5.291,4.6436-1.8359,4.6436-1.8359Z"/>
  <path d="M324.5747,235.8119c-3.3838,0-6.1191-1.8359-6.1191-5.4717s3.5635-5.0391,7.1631-5.291l4.1748-.2881v-.4678c0-2.2324-1.4746-3.2754-3.8867-3.2754-2.3037,0-4.2109.8633-4.9678,1.4395l-1.4033-2.9512c1.332-.793,3.7793-1.8359,6.8027-1.8359,3.0957,0,4.8594.791,6.1553,2.0156,1.2598,1.2236,1.9072,2.8076,1.9072,5.7598v9.9707h-4.4268l-.0723-2.0156c-.7197,1.2598-2.7354,2.4111-5.3271,2.4111ZM323.063,230.1966c0,1.4756,1.1152,2.4834,3.0234,2.4834,1.7998,0,3.1318-1.043,3.7441-1.9082v-3.2031l-3.1328.1797c-2.4473.1445-3.6348.9727-3.6348,2.4482Z"/>
  <path d="M348.2261,221.4496c-2.8438,0-3.8154,2.376-3.8154,5.291v8.6758h-4.6074v-17.4219h4.6074l-.0361,2.627h.1084c.9355-1.8359,2.6992-2.9512,5.2188-2.9512,5.0039,0,6.2637,3.2393,6.2637,7.415v10.3311h-4.6074v-9.3232c0-2.5918-.4688-4.6436-3.1318-4.6436Z"/>
  <path d="M370.3296,232.2835c2.3389,0,4.4268-1.043,5.2549-1.7637l1.8008,2.4844c-.9727,1.0078-3.5996,2.8076-7.8477,2.8076-5.2559,0-9.1426-3.2041-9.1426-8.8193,0-5.5791,4.0674-9.3223,9.0352-9.3223,5.3633,0,8.6025,3.5273,8.6025,8.1709,0,.8994-.0723,2.3398-.0723,2.3398h-12.8145c.4326,2.7715,2.5557,4.1025,5.1836,4.1025ZM365.0747,225.1937h8.3506c-.0723-1.9082-.792-4.1035-4.0322-4.1035-2.7354,0-4.1748,1.9072-4.3184,4.1035Z"/>
  <path d="M388.5102,221.1253c-1.5117,0-2.2686.5762-2.2686,1.4043,0,.7559.5762,1.3672,2.5205,1.9795l1.2227.3955c3.8516,1.2598,5.2197,2.6289,5.2197,5.1484,0,3.3105-2.6279,5.7588-6.9111,5.7588-2.6641,0-5.6504-1.0801-7.0547-2.7002l1.8711-3.1309c2.0527,1.584,3.8164,2.375,5.292,2.375,1.7275,0,2.5195-.6475,2.5195-1.6553,0-.8994-.6846-1.4033-2.915-2.1592l-2.0166-.6846c-2.5908-.8643-3.9229-2.4111-3.9229-4.9678,0-3.167,2.8789-5.2188,6.2266-5.2188,3.0957,0,4.8242.8281,6.2637,1.8711l-1.9805,3.0605c-1.0078-.7559-2.4834-1.4766-4.0664-1.4766Z"/>
  <path d="M412.8813,235.8119c-3.3838,0-6.1191-1.8359-6.1191-5.4717s3.5635-5.0391,7.1631-5.291l4.1748-.2881v-.4678c0-2.2324-1.4746-3.2754-3.8867-3.2754-2.3037,0-4.2109.8633-4.9678,1.4395l-1.4033-2.9512c1.332-.793,3.7793-1.8359,6.8027-1.8359,3.0957,0,4.8594.791,6.1553,2.0156,1.2598,1.2236,1.9072,2.8076,1.9072,5.7598v9.9707h-4.4268l-.0723-2.0156c-.7197,1.2598-2.7354,2.4111-5.3271,2.4111ZM411.3696,230.1966c0,1.4756,1.1152,2.4834,3.0234,2.4834,1.7998,0,3.1318-1.043,3.7441-1.9082v-3.2031l-3.1328.1797c-2.4473.1445-3.6348.9727-3.6348,2.4482Z"/>
  <path d="M432.6811,217.9945l-.0723,2.8066h.1084c.6836-1.8711,2.4121-3.1309,4.2832-3.1309,1.1875,0,1.8359.3242,1.8359.3242l-.3242,3.9951h-.2158c-.5039-.1436-1.2959-.2158-1.9072-.2158-1.3691,0-2.4121.5762-3.0605,1.6914-.4316.8643-.6475,2.0518-.6475,3.3838v8.5674h-4.5713v-17.4219h4.5713Z"/>
  <path d="M451.1489,232.2835c2.3398,0,4.4277-1.043,5.2559-1.7637l1.7988,2.4844c-.9717,1.0078-3.5996,2.8076-7.8467,2.8076-5.2549,0-9.1436-3.2041-9.1436-8.8193,0-5.5791,4.0684-9.3223,9.0352-9.3223,5.3633,0,8.6035,3.5273,8.6035,8.1709,0,.8994-.0723,2.3398-.0723,2.3398h-12.8145c.4316,2.7715,2.5557,4.1025,5.1836,4.1025ZM445.893,225.1937h8.3516c-.0723-1.9082-.792-4.1035-4.0312-4.1035-2.7363,0-4.1758,1.9072-4.3203,4.1035Z"/>
  <path d="M478.977,234.8402c-4.3916,0-8.1348-2.8086-8.1348-8.3516,0-4.8232,3.3828-8.8184,8.5664-8.8184,2.3398,0,4.3193.8633,5.543,2.7354h.0723l-.0361-2.4111h4.5713v13.8223c0,3.8145-.791,5.9746-2.2676,7.5225-1.5117,1.584-3.7432,3.0596-7.9189,3.0596-4.1396,0-7.2354-1.9795-8.0986-2.5918l1.9082-3.2031c1.1152.792,3.959,2.0518,6.1904,2.0518,2.4834,0,3.7803-.792,4.4277-1.5479s1.1875-2.1953,1.1875-4.1396v-.8643h-.0713c-1.1885,1.8008-3.2764,2.7363-5.9395,2.7363ZM480.3442,221.305c-3.0234,0-4.8232,2.2324-4.8232,5.0762,0,2.6641,1.7275,4.8594,4.751,4.8594,3.3125,0,4.9678-2.1953,4.9678-4.8594,0-2.5195-1.8721-5.0762-4.8955-5.0762Z"/>
  <path d="M494.2407,226.7777c0-5.5078,4.1035-9.1074,9.4668-9.1074,5.3281,0,9.4316,3.5996,9.4316,9.1074s-4.1035,9.0342-9.4316,9.0342c-5.3633,0-9.4668-3.5283-9.4668-9.0342ZM503.7075,221.3773c-3.0234,0-4.6797,2.3047-4.6797,5.291,0,2.9883,1.6562,5.3281,4.6797,5.3281,2.9521,0,4.6797-2.3398,4.6797-5.3281,0-2.9863-1.7275-5.291-4.6797-5.291Z"/>
  <path d="M517.4243,212.6664c0-1.4756,1.1523-2.5547,2.7715-2.5547,1.6211,0,2.7725,1.0791,2.7725,2.5547,0,1.5117-1.1514,2.5566-2.7725,2.5566-1.6191,0-2.7715-1.0449-2.7715-2.5566ZM522.5005,217.9945v17.4219h-4.6074v-17.4219h4.6074Z"/>
  <path d="M536.7563,221.4496c-2.8438,0-3.8164,2.376-3.8164,5.291v8.6758h-4.6074v-17.4219h4.6074l-.0352,2.627h.1074c.9355-1.8359,2.6992-2.9512,5.2188-2.9512,5.0039,0,6.2637,3.2393,6.2637,7.415v10.3311h-4.6074v-9.3232c0-2.5918-.4678-4.6436-3.1309-4.6436Z"/>
  <path d="M557.1313,234.8402c-4.3906,0-8.1348-2.8086-8.1348-8.3516,0-4.8232,3.3828-8.8184,8.5664-8.8184,2.3398,0,4.3203.8633,5.5439,2.7354h.0713l-.0352-2.4111h4.5713v13.8223c0,3.8145-.792,5.9746-2.2686,7.5225-1.5117,1.584-3.7422,3.0596-7.918,3.0596-4.1396,0-7.2354-1.9795-8.0996-2.5918l1.9082-3.2031c1.1152.792,3.959,2.0518,6.1914,2.0518,2.4834,0,3.7793-.792,4.4277-1.5479.6475-.7559,1.1875-2.1953,1.1875-4.1396v-.8643h-.0723c-1.1875,1.8008-3.2754,2.7363-5.9395,2.7363ZM558.4995,221.305c-3.0244,0-4.8232,2.2324-4.8232,5.0762,0,2.6641,1.7275,4.8594,4.751,4.8594,3.3115,0,4.9678-2.1953,4.9678-4.8594,0-2.5195-1.8721-5.0762-4.8955-5.0762Z"/>
  <path d="M219.5639,275.1605c.9365,0,1.6553-.2881,1.6553-.2881l.252,3.5635c-.2148.0723-1.583.5762-3.5273.5762-3.5625,0-5.0391-1.6191-5.0391-6.1553v-8.0635h-2.5918v-3.5625h2.5918v-4.9678h4.5723v4.9678h4.0312v3.5625h-4.0312v7.0557c0,2.6631.4668,3.3115,2.0869,3.3115Z"/>
  <path d="M224.4966,269.9769c0-5.5068,4.1035-9.1064,9.4668-9.1064,5.3281,0,9.4316,3.5996,9.4316,9.1064s-4.1035,9.0352-9.4316,9.0352c-5.3633,0-9.4668-3.5273-9.4668-9.0352ZM233.9634,264.5785c-3.0234,0-4.6797,2.3027-4.6797,5.291s1.6562,5.3271,4.6797,5.3271c2.9521,0,4.6797-2.3398,4.6797-5.3271s-1.7275-5.291-4.6797-5.291Z"/>
  <path d="M261.3237,272.6048v6.0107h-4.5713v-24.8359h4.5713v14.2178l6.2998-6.8037h5.0742l-6.4424,6.5879,7.3076,10.834h-5.3281l-5.0752-7.9551-1.8359,1.9443Z"/>
  <path d="M285.479,275.4847c2.3398,0,4.4277-1.0439,5.2559-1.7637l1.7998,2.4834c-.9717,1.0078-3.5996,2.8076-7.8467,2.8076-5.2559,0-9.1436-3.2031-9.1436-8.8184,0-5.5801,4.0674-9.3232,9.0352-9.3232,5.3633,0,8.6025,3.5273,8.6025,8.1709,0,.9004-.0723,2.3398-.0723,2.3398h-12.8145c.4326,2.7715,2.5566,4.1035,5.1836,4.1035ZM280.2241,268.3929h8.3506c-.0723-1.9072-.791-4.1035-4.0312-4.1035-2.7363,0-4.1758,1.9082-4.3193,4.1035Z"/>
  <path d="M306.647,275.4847c2.3398,0,4.4277-1.0439,5.2559-1.7637l1.7998,2.4834c-.9717,1.0078-3.5996,2.8076-7.8467,2.8076-5.2559,0-9.1436-3.2031-9.1436-8.8184,0-5.5801,4.0674-9.3232,9.0352-9.3232,5.3633,0,8.6025,3.5273,8.6025,8.1709,0,.9004-.0723,2.3398-.0723,2.3398h-12.8145c.4326,2.7715,2.5566,4.1035,5.1836,4.1035ZM301.3921,268.3929h8.3506c-.0723-1.9072-.791-4.1035-4.0312-4.1035-2.7363,0-4.1758,1.9082-4.3193,4.1035Z"/>
  <path d="M323.6391,263.6781c1.4043-2.0879,3.4922-2.8799,5.7959-2.8799,5.1113,0,8.2432,3.96,8.2432,9.1436,0,4.9307-3.2754,8.998-8.5674,8.998-2.6631,0-4.1396-.9355-5.5791-2.6641l-.0723.0371c.0361.8281.0723,1.6191.0723,2.8438v6.0469h-4.5713v-24.0098h4.6787l-.0713,2.4482.0713.0361ZM323.4243,269.9417c0,2.915,1.9072,5.4707,4.8594,5.4707,2.9863,0,4.7148-2.5557,4.7148-5.4707,0-3.0244-1.8711-5.4004-4.8594-5.4004-2.7715,0-4.7148,2.124-4.7148,5.4004Z"/>
  <path d="M367.1977,268.2855v10.3301h-4.6074v-9.3223c0-2.5918-.4678-4.6436-3.1318-4.6436-2.8428,0-3.8154,2.376-3.8154,5.292v8.6738h-4.5713v-24.8359h4.5713v10.043h.0723c.9355-1.8359,2.6992-2.9521,5.2188-2.9521,5.0039,0,6.2637,3.2393,6.2637,7.415Z"/>
  <path d="M377.5669,279.0121c-3.3838,0-6.1191-1.8359-6.1191-5.4707,0-3.6367,3.5635-5.04,7.1631-5.292l4.1748-.2881v-.4678c0-2.2314-1.4746-3.2764-3.8867-3.2764-2.3037,0-4.2109.8652-4.9678,1.4404l-1.4033-2.9521c1.332-.791,3.7793-1.835,6.8027-1.835,3.0957,0,4.8594.792,6.1553,2.0156,1.2598,1.2236,1.9072,2.8076,1.9072,5.7588v9.9707h-4.4268l-.0723-2.0156c-.7197,1.2598-2.7354,2.4121-5.3271,2.4121ZM376.0552,273.3968c0,1.4756,1.1152,2.4834,3.0234,2.4834,1.7998,0,3.1318-1.0439,3.7441-1.9072v-3.2041l-3.1328.1807c-2.4473.1436-3.6348.9707-3.6348,2.4473Z"/>
  <path d="M397.5825,263.6781c1.4043-2.0879,3.4922-2.8799,5.7949-2.8799,5.1113,0,8.2432,3.96,8.2432,9.1436,0,4.9307-3.2754,8.998-8.5674,8.998-2.6631,0-4.1387-.9355-5.5781-2.6641l-.0723.0371c.0352.8281.0723,1.6191.0723,2.8438v6.0469h-4.5723v-24.0098h4.6797l-.0723,2.4482.0723.0361ZM397.3667,269.9417c0,2.915,1.9072,5.4707,4.8594,5.4707,2.9873,0,4.7158-2.5557,4.7158-5.4707,0-3.0244-1.873-5.4004-4.8594-5.4004-2.7715,0-4.7158,2.124-4.7158,5.4004Z"/>
  <path d="M421.0552,263.6781c1.4033-2.0879,3.4912-2.8799,5.7949-2.8799,5.1113,0,8.2422,3.96,8.2422,9.1436,0,4.9307-3.2754,8.998-8.5664,8.998-2.6641,0-4.1387-.9355-5.5791-2.6641l-.0723.0371c.0361.8281.0723,1.6191.0723,2.8438v6.0469h-4.5713v-24.0098h4.6797l-.0723,2.4482.0723.0361ZM420.8384,269.9417c0,2.915,1.9082,5.4707,4.8594,5.4707,2.9883,0,4.7158-2.5557,4.7158-5.4707,0-3.0244-1.8721-5.4004-4.8594-5.4004-2.7725,0-4.7158,2.124-4.7158,5.4004Z"/>
  <path d="M448.522,275.4847c2.3398,0,4.4277-1.0439,5.2559-1.7637l1.7998,2.4834c-.9717,1.0078-3.5996,2.8076-7.8467,2.8076-5.2559,0-9.1436-3.2031-9.1436-8.8184,0-5.5801,4.0674-9.3232,9.0352-9.3232,5.3633,0,8.6025,3.5273,8.6025,8.1709,0,.9004-.0723,2.3398-.0723,2.3398h-12.8145c.4326,2.7715,2.5566,4.1035,5.1836,4.1035ZM443.2671,268.3929h8.3506c-.0723-1.9072-.791-4.1035-4.0312-4.1035-2.7363,0-4.1758,1.9082-4.3193,4.1035Z"/>
  <path d="M469.1509,264.6498c-2.8438,0-3.8164,2.376-3.8164,5.292v8.6738h-4.6074v-17.4219h4.6074l-.0352,2.6289h.1074c.9365-1.8359,2.7002-2.9521,5.2197-2.9521,5.0029,0,6.2627,3.2393,6.2627,7.415v10.3301h-4.6074v-9.3223c0-2.5918-.4668-4.6436-3.1309-4.6436Z"/>
  <path d="M482.147,255.8675c0-1.4766,1.1523-2.5566,2.7715-2.5566,1.6211,0,2.7725,1.0801,2.7725,2.5566,0,1.5117-1.1514,2.5547-2.7725,2.5547-1.6191,0-2.7715-1.043-2.7715-2.5547ZM487.2231,261.1937v17.4219h-4.6074v-17.4219h4.6074Z"/>
  <path d="M501.479,264.6498c-2.8438,0-3.8164,2.376-3.8164,5.292v8.6738h-4.6074v-17.4219h4.6074l-.0352,2.6289h.1074c.9355-1.8359,2.6992-2.9521,5.2188-2.9521,5.0039,0,6.2637,3.2393,6.2637,7.415v10.3301h-4.6074v-9.3223c0-2.5918-.4678-4.6436-3.1309-4.6436Z"/>
  <path d="M521.854,278.0394c-4.3906,0-8.1348-2.8066-8.1348-8.3496,0-4.8242,3.3828-8.8193,8.5664-8.8193,2.3398,0,4.3203.8643,5.5439,2.7354h.0713l-.0352-2.4121h4.5713v13.8223c0,3.8164-.792,5.9756-2.2686,7.5234-1.5117,1.584-3.7422,3.0596-7.918,3.0596-4.1396,0-7.2354-1.9795-8.0996-2.5908l1.9082-3.2041c1.1152.792,3.959,2.0518,6.1914,2.0518,2.4834,0,3.7793-.792,4.4277-1.5479.6475-.7559,1.1875-2.1963,1.1875-4.1396v-.8633h-.0723c-1.1875,1.7988-3.2754,2.7344-5.9395,2.7344ZM523.2221,264.5062c-3.0244,0-4.8232,2.2314-4.8232,5.0752,0,2.6631,1.7275,4.8594,4.751,4.8594,3.3115,0,4.9678-2.1963,4.9678-4.8594,0-2.5205-1.8721-5.0752-4.8955-5.0752Z"/>
  <path d="M538.811,276.348c0-1.6914,1.1875-2.6992,2.915-2.6992,1.6553,0,2.8799,1.0078,2.8799,2.6992,0,1.6562-1.2246,2.6641-2.8799,2.6641-1.7275,0-2.915-1.0078-2.915-2.6641Z"/>
</svg>