<?xml version="1.0" encoding="UTF-8"?>
<svg id="Layer_1" data-name="Layer 1" xmlns="http://www.w3.org/2000/svg" viewBox="0 0 800 496">
  <defs>
    <style>
      .cls-1 {
        fill: #ee2b2f;
      }
    </style>
  </defs>
  <g>
    <path class="cls-1" d="M220.2036,293.1926v10.9785h-4.6787v-24.8369h4.6787v9.9346h11.5908v-9.9346h4.6436v24.8369h-4.6436v-10.9785h-11.5908Z"/>
    <path class="cls-1" d="M249.9028,300.715c2.7715,0,3.8164-2.1953,3.8164-5.1113v-8.8545h4.6074v17.4219h-4.4639l-.0361-2.4482c-1.0078,1.7285-2.8789,2.7715-5.3994,2.7715-5.0029,0-6.2275-3.2383-6.2275-7.4141v-10.3311h4.6074v9.3232c0,2.5918.4326,4.6426,3.0957,4.6426Z"/>
    <path class="cls-1" d="M268.5874,286.7492l-.0723,2.8076h.1084c.6836-1.8711,2.4121-3.1309,4.2832-3.1309,1.1875,0,1.8359.3232,1.8359.3232l-.3242,3.9951h-.2158c-.5039-.1436-1.2959-.2148-1.9072-.2148-1.3691,0-2.4121.5752-3.0605,1.6914-.4316.8633-.6475,2.0508-.6475,3.3828v8.5674h-4.5713v-17.4219h4.5713Z"/>
    <path class="cls-1" d="M283.0229,286.7492l-.0723,2.8076h.1084c.6836-1.8711,2.4121-3.1309,4.2832-3.1309,1.1875,0,1.8359.3232,1.8359.3232l-.3242,3.9951h-.2158c-.5039-.1436-1.2959-.2148-1.9072-.2148-1.3691,0-2.4121.5752-3.0605,1.6914-.4316.8633-.6475,2.0508-.6475,3.3828v8.5674h-4.5713v-17.4219h4.5713Z"/>
    <path class="cls-1" d="M292.563,281.4221c0-1.4766,1.1523-2.5557,2.7715-2.5557,1.6201,0,2.7715,1.0791,2.7715,2.5557,0,1.5117-1.1514,2.5557-2.7715,2.5557-1.6191,0-2.7715-1.0439-2.7715-2.5557ZM297.6382,286.7492v17.4219h-4.6074v-17.4219h4.6074Z"/>
    <path class="cls-1" d="M316.897,298.8439l1.2969,3.3828c-.3604.3242-2.1602,2.3398-6.8027,2.3398-4.752,0-9.1436-3.2754-9.1436-8.9629,0-5.7227,4.5361-9.1777,9.2148-9.1777,4.3916,0,6.1191,1.7637,6.5869,2.2305l-1.2598,3.4561c-.5391-.5039-2.0879-1.835-4.7871-1.835-2.7363,0-4.9316,1.9072-4.9316,5.1113s2.1953,5.291,5.1836,5.291,4.6426-1.8359,4.6426-1.8359Z"/>
    <path class="cls-1" d="M327.6264,304.5666c-3.3838,0-6.1191-1.8359-6.1191-5.4707s3.5635-5.0391,7.1631-5.291l4.1758-.2891v-.4668c0-2.2324-1.4766-3.2754-3.8877-3.2754-2.3037,0-4.2119.8633-4.9678,1.4395l-1.4043-2.9521c1.332-.792,3.7803-1.835,6.8037-1.835,3.0957,0,4.8594.791,6.1553,2.0156,1.2598,1.2227,1.9082,2.8066,1.9082,5.7588v9.9707h-4.4277l-.0723-2.0156c-.7197,1.2598-2.7354,2.4111-5.3271,2.4111ZM326.1147,298.9514c0,1.4766,1.1162,2.4844,3.0234,2.4844,1.7998,0,3.1318-1.0439,3.7432-1.9082v-3.2031l-3.1309.1797c-2.4473.1445-3.6357.9717-3.6357,2.4473Z"/>
    <path class="cls-1" d="M351.2778,290.2053c-2.8438,0-3.8164,2.375-3.8164,5.291v8.6748h-4.6074v-17.4219h4.6074l-.0352,2.6279h.1074c.9365-1.8359,2.7002-2.9512,5.2197-2.9512,5.0029,0,6.2627,3.2383,6.2627,7.4141v10.3311h-4.6074v-9.3232c0-2.5918-.4668-4.6426-3.1309-4.6426Z"/>
    <path class="cls-1" d="M373.3813,301.0393c2.3398,0,4.4277-1.043,5.2559-1.7637l1.7988,2.4844c-.9717,1.0078-3.5996,2.8066-7.8467,2.8066-5.2549,0-9.1436-3.2031-9.1436-8.8184,0-5.5801,4.0684-9.3223,9.0352-9.3223,5.3633,0,8.6035,3.5273,8.6035,8.1699,0,.9004-.0723,2.3398-.0723,2.3398h-12.8145c.4316,2.7715,2.5557,4.1035,5.1836,4.1035ZM368.1255,293.9484h8.3516c-.0723-1.9072-.792-4.1035-4.0312-4.1035-2.7363,0-4.1758,1.9072-4.3203,4.1035Z"/>
    <path class="cls-1" d="M410.4966,296.9357c0,4.6074-3.3848,7.668-8.6396,7.668-4.2471,0-7.1631-1.9805-8.7822-3.8516l2.2305-3.3848c1.9443,2.125,4.2842,3.2764,6.624,3.2764,2.3037,0,3.8877-1.1162,3.8877-3.2764,0-1.9434-1.2969-2.5918-3.4199-3.4551l-3.8877-1.5479c-2.7002-1.0791-4.499-2.9873-4.499-6.0107,0-4.3203,3.3828-7.3076,8.6025-7.3076,3.5283,0,6.083,1.4756,7.5596,2.9873l-2.2324,3.3477c-1.584-1.4395-3.4912-2.4834-5.6152-2.4834-2.0508,0-3.6719,1.0078-3.6719,2.8438,0,1.7998,1.5488,2.4834,2.8438,3.0234l4.1406,1.6924c3.4902,1.4395,4.8594,3.3828,4.8594,6.4785Z"/>
    <path class="cls-1" d="M423.9243,301.0393c2.3398,0,4.4277-1.043,5.2559-1.7637l1.7998,2.4844c-.9717,1.0078-3.5996,2.8066-7.8467,2.8066-5.2559,0-9.1436-3.2031-9.1436-8.8184,0-5.5801,4.0674-9.3223,9.0352-9.3223,5.3633,0,8.6025,3.5273,8.6025,8.1699,0,.9004-.0723,2.3398-.0723,2.3398h-12.8145c.4326,2.7715,2.5566,4.1035,5.1836,4.1035ZM418.6694,293.9484h8.3506c-.0723-1.9072-.791-4.1035-4.0312-4.1035-2.7363,0-4.1758,1.9072-4.3193,4.1035Z"/>
    <path class="cls-1" d="M441.2768,304.5666c-3.3838,0-6.1191-1.8359-6.1191-5.4707s3.5635-5.0391,7.1631-5.291l4.1758-.2891v-.4668c0-2.2324-1.4766-3.2754-3.8877-3.2754-2.3037,0-4.2119.8633-4.9678,1.4395l-1.4043-2.9521c1.332-.792,3.7803-1.835,6.8037-1.835,3.0957,0,4.8594.791,6.1553,2.0156,1.2598,1.2227,1.9082,2.8066,1.9082,5.7588v9.9707h-4.4277l-.0723-2.0156c-.7197,1.2598-2.7354,2.4111-5.3271,2.4111ZM439.7651,298.9514c0,1.4766,1.1162,2.4844,3.0234,2.4844,1.7998,0,3.1318-1.0439,3.7432-1.9082v-3.2031l-3.1309.1797c-2.4473.1445-3.6357.9717-3.6357,2.4473Z"/>
    <path class="cls-1" d="M462.4809,289.8811c-1.5117,0-2.2676.5762-2.2676,1.4043,0,.7559.5762,1.3672,2.5195,1.9785l1.2236.3965c3.8516,1.2598,5.2197,2.6279,5.2197,5.1475,0,3.3115-2.6279,5.7588-6.9121,5.7588-2.6631,0-5.6504-1.0801-7.0547-2.6992l1.8721-3.1318c2.0518,1.584,3.8154,2.376,5.292,2.376,1.7266,0,2.5195-.6484,2.5195-1.6562,0-.8994-.6846-1.4033-2.916-2.1592l-2.0156-.6846c-2.5918-.8633-3.9238-2.4111-3.9238-4.9668,0-3.168,2.8799-5.2188,6.2266-5.2188,3.0957,0,4.8242.8271,6.2637,1.8711l-1.9795,3.0596c-1.0078-.7559-2.4834-1.4756-4.0674-1.4756Z"/>
    <path class="cls-1" d="M472.4175,295.5314c0-5.5059,4.1035-9.1055,9.4668-9.1055,5.3271,0,9.4307,3.5996,9.4307,9.1055s-4.1035,9.0352-9.4307,9.0352c-5.3633,0-9.4668-3.5273-9.4668-9.0352ZM481.8843,290.133c-3.0244,0-4.6797,2.3037-4.6797,5.291s1.6553,5.3281,4.6797,5.3281c2.9521,0,4.6787-2.3398,4.6787-5.3281s-1.7266-5.291-4.6787-5.291Z"/>
    <path class="cls-1" d="M504.3481,290.2053c-2.8438,0-3.8164,2.375-3.8164,5.291v8.6748h-4.6074v-17.4219h4.6074l-.0352,2.6279h.1074c.9365-1.8359,2.7002-2.9512,5.2197-2.9512,5.0029,0,6.2627,3.2383,6.2627,7.4141v10.3311h-4.6074v-9.3232c0-2.5918-.4668-4.6426-3.1309-4.6426Z"/>
    <path class="cls-1" d="M523.644,289.8811c-1.5117,0-2.2686.5762-2.2686,1.4043,0,.7559.5762,1.3672,2.5205,1.9785l1.2236.3965c3.8516,1.2598,5.2188,2.6279,5.2188,5.1475,0,3.3115-2.627,5.7588-6.9102,5.7588-2.6641,0-5.6514-1.0801-7.0547-2.6992l1.8711-3.1318c2.0518,1.584,3.8154,2.376,5.291,2.376,1.7285,0,2.5195-.6484,2.5195-1.6562,0-.8994-.6836-1.4033-2.915-2.1592l-2.0166-.6846c-2.5908-.8633-3.9229-2.4111-3.9229-4.9668,0-3.168,2.8799-5.2188,6.2275-5.2188,3.0957,0,4.8232.8271,6.2627,1.8711l-1.9795,3.0596c-1.0078-.7559-2.4844-1.4756-4.0674-1.4756Z"/>
  </g>
  <g>
    <path d="M216.3803,197.7287c-3.1055,0-5.6982-2.1611-5.6982-5.6982s2.5928-5.6982,5.6982-5.6982,5.6982,2.1611,5.6982,5.6982-2.5928,5.6982-5.6982,5.6982ZM216.3803,187.6769c-2.2568,0-4.1143,1.6162-4.1143,4.3213,0,2.6895,1.873,4.3223,4.1143,4.3223,2.2568,0,4.1143-1.6328,4.1143-4.3223,0-2.7051-1.8574-4.3213-4.1143-4.3213Z"/>
    <path d="M229.5161,197.5363v-4.2412c0-1.2812-.2246-2.2412-1.584-2.2412-1.4258,0-1.9531,1.2002-1.9531,2.6572v3.8252h-1.5371v-7.6025h1.5371l-.0156,1.2002h.0469c.4004-.752,1.2168-1.3447,2.3213-1.3447,2.1611,0,2.7217,1.4248,2.7217,3.249v4.498h-1.5371Z"/>
    <path d="M240.6352,194.0949h-5.8574c.0801,1.5049,1.04,2.417,2.4492,2.417,1.4238,0,2.3359-.7686,2.5127-.8799l.6396.8799c-.0957.0801-1.0723,1.2012-3.3447,1.2012-2.2568,0-3.8096-1.5693-3.8096-3.9863,0-2.4004,1.7441-3.9375,3.8574-3.9375s3.6016,1.5049,3.6016,3.6338c0,.2881-.0488.6719-.0488.6719ZM237.0346,190.8937c-1.5205,0-2.1934,1.2646-2.2412,2.1768h4.4336c-.0156-.8477-.6562-2.1768-2.1924-2.1768Z"/>
    <path d="M255.1177,197.5363h-1.4092l-2.001-5.6816-2.0166,5.6816h-1.4092l-2.5117-7.6025h1.5527l1.7598,5.7461,2.001-5.7627h1.2324l2.001,5.7627,1.7607-5.7461h1.5527l-2.5127,7.6025Z"/>
    <path d="M263.979,197.5363l-.0156-.96c-.3047.3203-1.0254,1.1367-2.418,1.1367-1.4082,0-2.625-.8809-2.625-2.3535,0-1.4883,1.2168-2.2412,2.9785-2.3213l2.0322-.0791v-.3047c0-1.1523-.7842-1.7285-1.8887-1.7285s-2.0332.4961-2.2891.6562l-.4639-1.0244c.5605-.3203,1.584-.7686,2.8486-.7686,2.2256,0,3.3291,1.1211,3.3291,3.3291v4.418h-1.4883ZM262.1704,193.9992c-1.2324.0635-1.7285.5918-1.7285,1.3125s.5605,1.3125,1.5684,1.3125c.9922,0,1.6484-.6719,1.9375-1.1045v-1.6328l-1.7773.1123Z"/>
    <path d="M270.8579,198.8654c-.5273,1.3125-1.1523,1.7607-2,1.7607-.8486,0-1.4414-.2725-1.4414-.2725l.3047-1.248s.416.1758.8008.1758c.623,0,.7832-.3359.9922-.8965l.3672-1.0088-3.0889-7.459,1.6006.0166,2.3047,5.9062,2.2412-5.9229,1.585.0166-3.666,8.9316Z"/>
    <path d="M288.4604,197.5363h-1.4092l-2-5.6816-2.0176,5.6816h-1.4082l-2.5127-7.6025h1.5527l1.7607,5.7461,2-5.7627h1.2324l2.002,5.7627,1.7598-5.7461h1.5527l-2.5127,7.6025Z"/>
    <path d="M299.7231,194.0949h-5.8584c.0801,1.5049,1.04,2.417,2.4492,2.417,1.4248,0,2.3369-.7686,2.5127-.8799l.6406.8799c-.0957.0801-1.0723,1.2012-3.3457,1.2012-2.2568,0-3.8086-1.5693-3.8086-3.9863,0-2.4004,1.7441-3.9375,3.8574-3.9375s3.6016,1.5049,3.6016,3.6338c0,.2881-.0488.6719-.0488.6719ZM296.1216,190.8937c-1.5205,0-2.1934,1.2646-2.2402,2.1768h4.4336c-.0156-.8477-.6562-2.1768-2.1934-2.1768Z"/>
    <path d="M310.9067,197.5363v-4.3057c0-1.0879-.1758-2.1768-1.5684-2.1768s-1.9854,1.2002-1.9854,2.7207v3.7617h-1.5205v-11.0439h1.5205v4.6416h.0322c.4004-.752,1.2324-1.3447,2.3359-1.3447,2.1934,0,2.7217,1.4092,2.7217,3.2178v4.5293h-1.5361Z"/>
    <path d="M319.5776,197.5363l-.0166-.96c-.3027.3203-1.0234,1.1367-2.416,1.1367-1.4082,0-2.625-.8809-2.625-2.3535,0-1.4883,1.2168-2.2412,2.9766-2.3213l2.0332-.0791v-.3047c0-1.1523-.7842-1.7285-1.8887-1.7285s-2.0332.4961-2.2891.6562l-.4648-1.0244c.5605-.3203,1.5859-.7686,2.8496-.7686,2.2246,0,3.3301,1.1211,3.3301,3.3291v4.418h-1.4893ZM317.769,193.9992c-1.2324.0635-1.7285.5918-1.7285,1.3125s.5596,1.3125,1.5684,1.3125c.9932,0,1.6494-.6719,1.9365-1.1045v-1.6328l-1.7764.1123Z"/>
    <path d="M326.9048,197.5363h-1.3447l-3.1689-7.6025h1.6006l2.2568,5.7305,2.2402-5.7305h1.5859l-3.1699,7.6025Z"/>
    <path d="M338.6343,194.0949h-5.8584c.0801,1.5049,1.041,2.417,2.4492,2.417,1.4238,0,2.3369-.7686,2.5137-.8799l.6396.8799c-.0967.0801-1.0732,1.2012-3.3457,1.2012-2.2568,0-3.8096-1.5693-3.8096-3.9863,0-2.4004,1.7451-3.9375,3.8574-3.9375s3.6016,1.5049,3.6016,3.6338c0,.2881-.0479.6719-.0479.6719ZM335.0327,190.8937c-1.5205,0-2.1924,1.2646-2.2412,2.1768h4.4346c-.0166-.8477-.6562-2.1768-2.1934-2.1768Z"/>
    <path d="M349.8169,197.5363v-4.3057c0-1.0879-.1758-2.1768-1.5684-2.1768s-1.9844,1.2002-1.9844,2.7207v3.7617h-1.5215v-11.0439h1.5215v4.6416h.0312c.4004-.752,1.2324-1.3447,2.3379-1.3447,2.1924,0,2.7207,1.4092,2.7207,3.2178v4.5293h-1.5371Z"/>
    <path d="M360.9692,194.0949h-5.8584c.0801,1.5049,1.04,2.417,2.4492,2.417,1.4248,0,2.3369-.7686,2.5127-.8799l.6406.8799c-.0957.0801-1.0723,1.2012-3.3457,1.2012-2.2568,0-3.8086-1.5693-3.8086-3.9863,0-2.4004,1.7441-3.9375,3.8574-3.9375s3.6016,1.5049,3.6016,3.6338c0,.2881-.0488.6719-.0488.6719ZM357.3677,190.8937c-1.5205,0-2.1934,1.2646-2.2402,2.1768h4.4336c-.0156-.8477-.6562-2.1768-2.1934-2.1768Z"/>
    <path d="M363.2544,197.5363v-11.0439h1.5215v11.0439h-1.5215Z"/>
    <path d="M371.8481,197.7131c-1.2002,0-2.0801-.5127-2.625-1.3613l-.0156-.0156v4.1777h-1.5371v-10.5801h1.4727v1.2002h.0322c.6729-.8965,1.585-1.3447,2.7051-1.3447,2.2412,0,3.665,1.6807,3.665,3.9375s-1.4395,3.9863-3.6973,3.9863ZM371.561,191.0383c-1.5215,0-2.418,1.1523-2.418,2.6729s.8965,2.6895,2.418,2.6895c1.5195,0,2.416-1.1689,2.416-2.6895s-.8965-2.6729-2.416-2.6729Z"/>
    <path d="M384.6811,194.0949h-5.8584c.0801,1.5049,1.041,2.417,2.4492,2.417,1.4238,0,2.3369-.7686,2.5137-.8799l.6396.8799c-.0967.0801-1.0732,1.2012-3.3457,1.2012-2.2568,0-3.8096-1.5693-3.8096-3.9863,0-2.4004,1.7451-3.9375,3.8574-3.9375s3.6016,1.5049,3.6016,3.6338c0,.2881-.0479.6719-.0479.6719ZM381.0796,190.8937c-1.5205,0-2.1924,1.2646-2.2412,2.1768h4.4346c-.0166-.8477-.6562-2.1768-2.1934-2.1768Z"/>
    <path d="M392.8569,197.5363v-1.2158h-.0322c-.624.9277-1.5684,1.3926-2.6729,1.3926-2.2568,0-3.6973-1.7295-3.6973-3.9863,0-2.2402,1.4404-3.9375,3.665-3.9375,1.2324,0,2.1289.5439,2.6572,1.3291h.0322v-4.626h1.5205v11.0439h-1.4727ZM390.4399,191.0383c-1.5205,0-2.417,1.1523-2.417,2.6729s.8965,2.6895,2.417,2.6895,2.417-1.1689,2.417-2.6895-.8965-2.6729-2.417-2.6729Z"/>
    <path d="M404.5034,197.7131c-2.2725,0-4.0332-1.585-4.0332-3.9541,0-2.3525,1.7607-3.9697,4.0332-3.9697,2.2568,0,4.0186,1.6172,4.0186,3.9697,0,2.3691-1.7617,3.9541-4.0186,3.9541ZM404.5034,191.0383c-1.5361,0-2.4814,1.1846-2.4814,2.6729,0,1.5049.9453,2.6895,2.4814,2.6895,1.5205,0,2.4658-1.1846,2.4658-2.6895,0-1.4883-.9453-2.6729-2.4658-2.6729Z"/>
    <path d="M415.7358,197.5363l-.0166-1.0879c-.416.7363-1.2803,1.2646-2.3525,1.2646-2.1123,0-2.6729-1.3447-2.6729-3.2334v-4.5625h1.5205v4.498c0,1.04.2236,2.0166,1.585,2.0166,1.3438,0,1.8887-1.1523,1.8887-2.4326v-4.082h1.5361v7.6191h-1.4883Z"/>
    <path d="M424.1196,191.342h-.0645c-.1436-.0635-.416-.1602-.832-.1602-1.377,0-1.7129,1.457-1.7129,2.5615v3.793h-1.5361v-7.6025h1.5361l-.0156,1.168h.0479c.3682-.8643,1.0566-1.3125,1.873-1.3125.5127,0,.7998.1279.7998.1279l-.0957,1.4248Z"/>
    <path d="M427.9595,197.7131c-1.2812,0-2.3213-.5283-2.9609-1.3613l.7363-.8965c.6396.6729,1.5361,1.0889,2.2402,1.0889s1.457-.2559,1.457-1.0889c0-.832-1.2012-1.0879-1.7129-1.2637-1.1211-.3848-2.2412-.7852-2.2412-2.2256,0-1.4082,1.2158-2.1768,2.5615-2.1768,1.3438,0,2.1123.4805,2.5928.9922l-.6406.9443c-.4482-.4639-1.1846-.8154-1.9209-.8154s-1.2168.3193-1.2168.9443c0,.624.7363.8955,1.4893,1.1357.416.1445.7041.2402,1.0244.3682.8477.3525,1.4883.9609,1.4883,1.9531,0,1.6328-1.4238,2.4014-2.8965,2.4014Z"/>
    <path d="M439.895,194.0949h-5.8574c.0801,1.5049,1.04,2.417,2.4492,2.417,1.4238,0,2.3359-.7686,2.5127-.8799l.6396.8799c-.0957.0801-1.0723,1.2012-3.3447,1.2012-2.2568,0-3.8096-1.5693-3.8096-3.9863,0-2.4004,1.7441-3.9375,3.8574-3.9375s3.6016,1.5049,3.6016,3.6338c0,.2881-.0488.6719-.0488.6719ZM436.2944,190.8937c-1.5205,0-2.1934,1.2646-2.2412,2.1768h4.4336c-.0156-.8477-.6562-2.1768-2.1924-2.1768Z"/>
    <path d="M442.1802,197.5363v-11.0439h1.5215v11.0439h-1.5215Z"/>
    <path d="M450.0063,197.5363h-1.3447l-3.1689-7.6025h1.6006l2.2568,5.7305,2.2402-5.7305h1.5859l-3.1699,7.6025Z"/>
    <path d="M461.7358,194.0949h-5.8584c.0801,1.5049,1.041,2.417,2.4492,2.417,1.4238,0,2.3369-.7686,2.5137-.8799l.6396.8799c-.0967.0801-1.0732,1.2012-3.3457,1.2012-2.2568,0-3.8096-1.5693-3.8096-3.9863,0-2.4004,1.7451-3.9375,3.8574-3.9375s3.6016,1.5049,3.6016,3.6338c0,.2881-.0479.6719-.0479.6719ZM458.1343,190.8937c-1.5205,0-2.1924,1.2646-2.2412,2.1768h4.4346c-.0166-.8477-.6562-2.1768-2.1934-2.1768Z"/>
    <path d="M466.1655,197.7131c-1.2803,0-2.3213-.5283-2.9609-1.3613l.7363-.8965c.6396.6729,1.5361,1.0889,2.2412,1.0889.7031,0,1.4561-.2559,1.4561-1.0889,0-.832-1.2002-1.0879-1.7129-1.2637-1.1201-.3848-2.2412-.7852-2.2412-2.2256,0-1.4082,1.2168-2.1768,2.5615-2.1768s2.1123.4805,2.5928.9922l-.6406.9443c-.4473-.4639-1.1836-.8154-1.9199-.8154s-1.2168.3193-1.2168.9443c0,.624.7363.8955,1.4883,1.1357.416.1445.7051.2402,1.0254.3682.8477.3525,1.4883.9609,1.4883,1.9531,0,1.6328-1.4248,2.4014-2.8975,2.4014Z"/>
    <path d="M479.2856,197.7131c-1.1035,0-2.0488-.4482-2.6719-1.377h-.0332v1.2002h-1.4727v-11.0439h1.5215v4.626h.0312c.5449-.833,1.457-1.3291,2.6582-1.3291,2.2246,0,3.665,1.6973,3.665,3.9375,0,2.2568-1.4404,3.9863-3.6982,3.9863ZM478.9985,191.0383c-1.5215,0-2.4336,1.1523-2.4336,2.6729s.9121,2.6895,2.4336,2.6895c1.5205,0,2.416-1.1689,2.416-2.6895s-.8955-2.6729-2.416-2.6729Z"/>
    <path d="M492.1186,194.0949h-5.8584c.0801,1.5049,1.041,2.417,2.4492,2.417,1.4238,0,2.3369-.7686,2.5137-.8799l.6396.8799c-.0967.0801-1.0732,1.2012-3.3457,1.2012-2.2568,0-3.8096-1.5693-3.8096-3.9863,0-2.4004,1.7451-3.9375,3.8574-3.9375s3.6016,1.5049,3.6016,3.6338c0,.2881-.0479.6719-.0479.6719ZM488.5171,190.8937c-1.5205,0-2.1924,1.2646-2.2412,2.1768h4.4346c-.0166-.8477-.6562-2.1768-2.1934-2.1768Z"/>
    <path d="M496.6294,197.7131c-1.9053,0-2.002-1.5693-2.002-3.0576v-3.4736h-1.1191v-1.2324h1.1191v-2.2725h1.5371v2.2725h1.8242v1.2324h-1.8242v3.4414c0,.6406.0156,1.0723.1924,1.3926.1436.2402.3525.3848.7842.3848.4482,0,.7842-.1768.7842-.1768l.0967,1.2324c-.4004.1768-.8652.2568-1.3926.2568Z"/>
    <path d="M502.0845,197.7131c-1.9043,0-2-1.5693-2-3.0576v-3.4736h-1.1211v-1.2324h1.1211v-2.2725h1.5361v2.2725h1.8252v1.2324h-1.8252v3.4414c0,.6406.0166,1.0723.1924,1.3926.1445.2402.3516.3848.7842.3848.4482,0,.7842-.1768.7842-.1768l.0957,1.2324c-.3994.1768-.8633.2568-1.3926.2568Z"/>
    <path d="M512.2944,194.0949h-5.8584c.0801,1.5049,1.041,2.417,2.4492,2.417,1.4238,0,2.3369-.7686,2.5137-.8799l.6396.8799c-.0967.0801-1.0732,1.2012-3.3457,1.2012-2.2568,0-3.8096-1.5693-3.8096-3.9863,0-2.4004,1.7451-3.9375,3.8574-3.9375s3.6016,1.5049,3.6016,3.6338c0,.2881-.0479.6719-.0479.6719ZM508.6928,190.8937c-1.5205,0-2.1924,1.2646-2.2412,2.1768h4.4346c-.0166-.8477-.6562-2.1768-2.1934-2.1768Z"/>
    <path d="M518.645,191.342h-.0645c-.1436-.0635-.416-.1602-.832-.1602-1.377,0-1.7129,1.457-1.7129,2.5615v3.793h-1.5361v-7.6025h1.5361l-.0156,1.168h.0479c.3682-.8643,1.0566-1.3125,1.873-1.3125.5127,0,.7998.1279.7998.1279l-.0957,1.4248Z"/>
    <path d="M215.3882,218.7131c-1.2002,0-2.0811-.5127-2.626-1.3613l-.0156-.0156v4.1777h-1.5361v-10.5801h1.4727v1.2002h.0322c.6719-.8965,1.584-1.3447,2.7051-1.3447,2.2402,0,3.665,1.6807,3.665,3.9375s-1.4404,3.9863-3.6973,3.9863ZM215.1001,212.0383c-1.5215,0-2.417,1.1523-2.417,2.6729s.8955,2.6895,2.417,2.6895c1.5205,0,2.417-1.1689,2.417-2.6895s-.8965-2.6729-2.417-2.6729Z"/>
    <path d="M225.4673,212.342h-.0635c-.1436-.0635-.417-.1602-.833-.1602-1.376,0-1.7119,1.457-1.7119,2.5615v3.793h-1.5361v-7.6025h1.5361l-.0166,1.168h.0488c.3672-.8643,1.0566-1.3125,1.873-1.3125.5117,0,.7998.1279.7998.1279l-.0967,1.4248Z"/>
    <path d="M234.1411,215.0949h-5.8594c.0801,1.5049,1.041,2.417,2.4492,2.417,1.4248,0,2.3379-.7686,2.5137-.8799l.6406.8799c-.0967.0801-1.0732,1.2012-3.3457,1.2012-2.2578,0-3.8096-1.5693-3.8096-3.9863,0-2.4004,1.7451-3.9375,3.8574-3.9375s3.6016,1.5049,3.6016,3.6338c0,.2881-.0479.6719-.0479.6719ZM230.5395,211.8937c-1.5215,0-2.1934,1.2646-2.2412,2.1768h4.4346c-.0166-.8477-.6572-2.1768-2.1934-2.1768Z"/>
    <path d="M240.5884,218.7131c-1.2012,0-2.082-.5127-2.626-1.3613l-.0156-.0156v4.1777h-1.5361v-10.5801h1.4727v1.2002h.0312c.6719-.8965,1.584-1.3447,2.7051-1.3447,2.2412,0,3.666,1.6807,3.666,3.9375s-1.4414,3.9863-3.6973,3.9863ZM240.2993,212.0383c-1.5205,0-2.416,1.1523-2.416,2.6729s.8955,2.6895,2.416,2.6895c1.5215,0,2.417-1.1689,2.417-2.6895s-.8955-2.6729-2.417-2.6729Z"/>
    <path d="M250.9389,218.5363l-.0166-.96c-.3027.3203-1.0234,1.1367-2.416,1.1367-1.4082,0-2.625-.8809-2.625-2.3535,0-1.4883,1.2168-2.2412,2.9766-2.3213l2.0332-.0791v-.3047c0-1.1523-.7842-1.7285-1.8887-1.7285s-2.0332.4961-2.2891.6562l-.4648-1.0244c.5605-.3203,1.5859-.7686,2.8496-.7686,2.2246,0,3.3301,1.1211,3.3301,3.3291v4.418h-1.4893ZM249.1303,214.9992c-1.2324.0635-1.7285.5918-1.7285,1.3125s.5596,1.3125,1.5684,1.3125c.9932,0,1.6494-.6719,1.9365-1.1045v-1.6328l-1.7764.1123Z"/>
    <path d="M259.1792,212.342h-.0635c-.1445-.0635-.417-.1602-.833-.1602-1.376,0-1.7119,1.457-1.7119,2.5615v3.793h-1.5371v-7.6025h1.5371l-.0166,1.168h.0479c.3682-.8643,1.0566-1.3125,1.873-1.3125.5117,0,.8008.1279.8008.1279l-.0967,1.4248Z"/>
    <path d="M267.852,215.0949h-5.8584c.0801,1.5049,1.04,2.417,2.4492,2.417,1.4248,0,2.3369-.7686,2.5127-.8799l.6406.8799c-.0957.0801-1.0723,1.2012-3.3457,1.2012-2.2568,0-3.8086-1.5693-3.8086-3.9863,0-2.4004,1.7441-3.9375,3.8574-3.9375s3.6016,1.5049,3.6016,3.6338c0,.2881-.0488.6719-.0488.6719ZM264.2505,211.8937c-1.5205,0-2.1934,1.2646-2.2402,2.1768h4.4336c-.0156-.8477-.6562-2.1768-2.1934-2.1768Z"/>
    <path d="M277.7231,208.6281s-.4316-.1436-.8643-.1436c-1.0088,0-1.1689.752-1.1689,1.6162v.8486h1.8086v1.2324h-1.8086v6.3545h-1.5195v-6.3545h-1.0889v-1.2324h1.0889v-.7686c0-.9922.1914-1.6328.5117-2.0322.3359-.416.9443-.833,1.8242-.833.8809,0,1.3125.1768,1.3125.1768l-.0957,1.1357Z"/>
    <path d="M282.395,218.7131c-2.2734,0-4.0332-1.585-4.0332-3.9541,0-2.3525,1.7598-3.9697,4.0332-3.9697,2.2568,0,4.0176,1.6172,4.0176,3.9697,0,2.3691-1.7607,3.9541-4.0176,3.9541ZM282.395,212.0383c-1.5371,0-2.4814,1.1846-2.4814,2.6729,0,1.5049.9443,2.6895,2.4814,2.6895,1.5205,0,2.4648-1.1846,2.4648-2.6895,0-1.4883-.9443-2.6729-2.4648-2.6729Z"/>
    <path d="M292.7954,212.342h-.0645c-.1445-.0635-.416-.1602-.832-.1602-1.377,0-1.7129,1.457-1.7129,2.5615v3.793h-1.5371v-7.6025h1.5371l-.0156,1.168h.0469c.3691-.8643,1.0566-1.3125,1.873-1.3125.5127,0,.8008.1279.8008.1279l-.0957,1.4248Z"/>
    <path d="M303.6274,218.5363v-4.3057c0-1.0879-.1758-2.1768-1.5684-2.1768s-1.9844,1.2002-1.9844,2.7207v3.7617h-1.5215v-11.0439h1.5215v4.6416h.0312c.4004-.752,1.2324-1.3447,2.3369-1.3447,2.1924,0,2.7217,1.4092,2.7217,3.2178v4.5293h-1.5371Z"/>
    <path d="M312.8589,218.5363l-.0166-1.0879c-.416.7363-1.2803,1.2646-2.3525,1.2646-2.1123,0-2.6729-1.3447-2.6729-3.2334v-4.5625h1.5205v4.498c0,1.04.2236,2.0166,1.585,2.0166,1.3438,0,1.8887-1.1523,1.8887-2.4326v-4.082h1.5361v7.6191h-1.4883Z"/>
    <path d="M321.2427,212.342h-.0645c-.1436-.0635-.416-.1602-.832-.1602-1.377,0-1.7129,1.457-1.7129,2.5615v3.793h-1.5361v-7.6025h1.5361l-.0156,1.168h.0479c.3682-.8643,1.0566-1.3125,1.873-1.3125.5127,0,.7998.1279.7998.1279l-.0957,1.4248Z"/>
    <path d="M327.2427,212.342h-.0645c-.1445-.0635-.416-.1602-.832-.1602-1.377,0-1.7129,1.457-1.7129,2.5615v3.793h-1.5371v-7.6025h1.5371l-.0156,1.168h.0469c.3691-.8643,1.0566-1.3125,1.873-1.3125.5127,0,.8008.1279.8008.1279l-.0957,1.4248Z"/>
    <path d="M329.9292,209.3811c-.5928,0-1.0088-.4004-1.0088-.9443,0-.5449.416-.9443,1.0088-.9443.5762,0,.9932.3994.9932.9443,0,.5439-.417.9443-.9932.9443ZM329.1606,218.5363v-7.6025h1.5371v7.6025h-1.5371Z"/>
    <path d="M336.8413,218.7131c-2.0488,0-3.8408-1.5371-3.8408-3.9697,0-2.4492,1.8721-3.9541,3.8887-3.9541,2.0332,0,2.8652.9922,2.9453,1.0889l-.5439,1.1201c-.2568-.2559-.9287-.9287-2.2725-.9287-1.3457,0-2.4658,1.0244-2.4658,2.625,0,1.6016.9932,2.7061,2.4658,2.7061,1.4883,0,2.3203-.9609,2.3203-.9609l.5439,1.1201c-.2236.2246-1.0088,1.1533-3.041,1.1533Z"/>
    <path d="M346.4897,218.5363l-.0166-.96c-.3027.3203-1.0234,1.1367-2.416,1.1367-1.4082,0-2.625-.8809-2.625-2.3535,0-1.4883,1.2168-2.2412,2.9766-2.3213l2.0332-.0791v-.3047c0-1.1523-.7842-1.7285-1.8887-1.7285s-2.0332.4961-2.2891.6562l-.4648-1.0244c.5605-.3203,1.5859-.7686,2.8496-.7686,2.2246,0,3.3301,1.1211,3.3301,3.3291v4.418h-1.4893ZM344.6811,214.9992c-1.2324.0635-1.7285.5918-1.7285,1.3125s.5596,1.3125,1.5684,1.3125c.9932,0,1.6494-.6719,1.9365-1.1045v-1.6328l-1.7764.1123Z"/>
    <path d="M355.6587,218.5363v-4.2412c0-1.2812-.2246-2.2412-1.585-2.2412-1.4248,0-1.9521,1.2002-1.9521,2.6572v3.8252h-1.5371v-7.6025h1.5371l-.0166,1.2002h.0479c.4004-.752,1.2168-1.3447,2.3203-1.3447,2.1621,0,2.7217,1.4248,2.7217,3.249v4.498h-1.5361Z"/>
    <path d="M366.7788,215.0949h-5.8584c.0801,1.5049,1.041,2.417,2.4492,2.417,1.4238,0,2.3369-.7686,2.5137-.8799l.6396.8799c-.0967.0801-1.0732,1.2012-3.3457,1.2012-2.2568,0-3.8096-1.5693-3.8096-3.9863,0-2.4004,1.7451-3.9375,3.8574-3.9375s3.6016,1.5049,3.6016,3.6338c0,.2881-.0479.6719-.0479.6719ZM363.1772,211.8937c-1.5205,0-2.1924,1.2646-2.2412,2.1768h4.4346c-.0166-.8477-.6562-2.1768-2.1934-2.1768Z"/>
    <path d="M371.2095,218.7131c-1.2812,0-2.3213-.5283-2.9609-1.3613l.7363-.8965c.6396.6729,1.5361,1.0889,2.2402,1.0889s1.457-.2559,1.457-1.0889c0-.832-1.2012-1.0879-1.7129-1.2637-1.1211-.3848-2.2412-.7852-2.2412-2.2256,0-1.4082,1.2158-2.1768,2.5615-2.1768,1.3438,0,2.1123.4805,2.5928.9922l-.6406.9443c-.4482-.4639-1.1846-.8154-1.9209-.8154s-1.2168.3193-1.2168.9443c0,.624.7363.8955,1.4893,1.1357.416.1445.7041.2402,1.0244.3682.8477.3525,1.4883.9609,1.4883,1.9531,0,1.6328-1.4238,2.4014-2.8965,2.4014Z"/>
    <path d="M380.9028,209.3811c-.5918,0-1.0078-.4004-1.0078-.9443,0-.5449.416-.9443,1.0078-.9443.5762,0,.9932.3994.9932.9443,0,.5439-.417.9443-.9932.9443ZM380.1352,218.5363v-7.6025h1.5371v7.6025h-1.5371Z"/>
    <path d="M386.7114,218.7131c-1.2793,0-2.3203-.5283-2.9609-1.3613l.7363-.8965c.6406.6729,1.5371,1.0889,2.2412,1.0889s1.4561-.2559,1.4561-1.0889c0-.832-1.2002-1.0879-1.7129-1.2637-1.1191-.3848-2.2402-.7852-2.2402-2.2256,0-1.4082,1.2168-2.1768,2.5605-2.1768,1.3457,0,2.1133.4805,2.5938.9922l-.6406.9443c-.4482-.4639-1.1836-.8154-1.9199-.8154s-1.2168.3193-1.2168.9443c0,.624.7363.8955,1.4883,1.1357.416.1445.7041.2402,1.0244.3682.8486.3525,1.4893.9609,1.4893,1.9531,0,1.6328-1.4258,2.4014-2.8984,2.4014Z"/>
    <path d="M397.8794,218.7131c-1.9053,0-2.002-1.5693-2.002-3.0576v-3.4736h-1.1191v-1.2324h1.1191v-2.2725h1.5371v2.2725h1.8242v1.2324h-1.8242v3.4414c0,.6406.0156,1.0723.1924,1.3926.1436.2402.3525.3848.7842.3848.4482,0,.7842-.1768.7842-.1768l.0967,1.2324c-.4004.1768-.8652.2568-1.3926.2568Z"/>
    <path d="M406.3432,218.5363v-4.3057c0-1.0879-.1758-2.1768-1.5684-2.1768s-1.9854,1.2002-1.9854,2.7207v3.7617h-1.5205v-11.0439h1.5205v4.6416h.0322c.4004-.752,1.2324-1.3447,2.3369-1.3447,2.1934,0,2.7207,1.4092,2.7207,3.2178v4.5293h-1.5361Z"/>
    <path d="M414.7427,212.342h-.0645c-.1436-.0635-.416-.1602-.832-.1602-1.377,0-1.7129,1.457-1.7129,2.5615v3.793h-1.5361v-7.6025h1.5361l-.0156,1.168h.0479c.3682-.8643,1.0566-1.3125,1.873-1.3125.5127,0,.7998.1279.7998.1279l-.0957,1.4248Z"/>
    <path d="M420.0386,218.7131c-2.2725,0-4.0332-1.585-4.0332-3.9541,0-2.3525,1.7607-3.9697,4.0332-3.9697,2.2568,0,4.0186,1.6172,4.0186,3.9697,0,2.3691-1.7617,3.9541-4.0186,3.9541ZM420.0386,212.0383c-1.5361,0-2.4814,1.1846-2.4814,2.6729,0,1.5049.9453,2.6895,2.4814,2.6895,1.5205,0,2.4658-1.1846,2.4658-2.6895,0-1.4883-.9453-2.6729-2.4658-2.6729Z"/>
    <path d="M431.272,218.5363l-.0156-1.0879c-.417.7363-1.2812,1.2646-2.3535,1.2646-2.1133,0-2.6738-1.3447-2.6738-3.2334v-4.5625h1.5215v4.498c0,1.04.2246,2.0166,1.584,2.0166,1.3457,0,1.8887-1.1523,1.8887-2.4326v-4.082h1.5371v7.6191h-1.4883Z"/>
    <path d="M442.0395,220.217c-.5596.6885-1.5039,1.457-3.3926,1.457-1.873,0-3.1699-.9766-3.3936-1.1367l.7197-1.0723c.4004.3516,1.5859.96,2.7217.96,1.9365,0,2.6572-1.168,2.6572-2.9609v-.3838h-.0322c-.5127.7676-1.376,1.3604-2.6572,1.3604-1.9531,0-3.665-1.4082-3.665-3.8252s1.7119-3.8262,3.665-3.8262c1.3281,0,2.209.6406,2.6572,1.3447h.0479l-.0156-1.2002h1.5205v6.002c0,1.6807-.2725,2.6094-.833,3.2812ZM438.9829,212.0217c-1.5527,0-2.417,1.1523-2.417,2.5938,0,1.4404.8643,2.5762,2.417,2.5762,1.5684,0,2.417-1.1357,2.417-2.5762,0-1.4414-.8486-2.5938-2.417-2.5938Z"/>
    <path d="M450.7915,218.5363v-4.3057c0-1.0879-.1758-2.1768-1.5684-2.1768s-1.9844,1.2002-1.9844,2.7207v3.7617h-1.5215v-11.0439h1.5215v4.6416h.0312c.4004-.752,1.2324-1.3447,2.3369-1.3447,2.1924,0,2.7217,1.4092,2.7217,3.2178v4.5293h-1.5371Z"/>
    <path d="M461.1743,218.7131c-1.9053,0-2.002-1.5693-2.002-3.0576v-3.4736h-1.1191v-1.2324h1.1191v-2.2725h1.5371v2.2725h1.8242v1.2324h-1.8242v3.4414c0,.6406.0156,1.0723.1924,1.3926.1436.2402.3525.3848.7842.3848.4482,0,.7842-.1768.7842-.1768l.0967,1.2324c-.4004.1768-.8652.2568-1.3926.2568Z"/>
    <path d="M469.6391,218.5363v-4.3057c0-1.0879-.1758-2.1768-1.5684-2.1768s-1.9854,1.2002-1.9854,2.7207v3.7617h-1.5205v-11.0439h1.5205v4.6416h.0322c.4004-.752,1.2324-1.3447,2.3359-1.3447,2.1934,0,2.7217,1.4092,2.7217,3.2178v4.5293h-1.5361Z"/>
    <path d="M480.7915,215.0949h-5.8594c.0801,1.5049,1.041,2.417,2.4492,2.417,1.4248,0,2.3379-.7686,2.5137-.8799l.6406.8799c-.0967.0801-1.0732,1.2012-3.3457,1.2012-2.2578,0-3.8096-1.5693-3.8096-3.9863,0-2.4004,1.7451-3.9375,3.8574-3.9375s3.6016,1.5049,3.6016,3.6338c0,.2881-.0479.6719-.0479.6719ZM477.1899,211.8937c-1.5215,0-2.1934,1.2646-2.2412,2.1768h4.4346c-.0166-.8477-.6572-2.1768-2.1934-2.1768Z"/>
    <path d="M218.0454,236.0949h-5.8594c.0801,1.5049,1.041,2.417,2.4492,2.417,1.4248,0,2.3379-.7686,2.5137-.8799l.6406.8799c-.0967.0801-1.0732,1.2012-3.3457,1.2012-2.2578,0-3.8096-1.5693-3.8096-3.9863,0-2.4004,1.7451-3.9375,3.8574-3.9375s3.6016,1.5049,3.6016,3.6338c0,.2881-.0479.6719-.0479.6719ZM214.4438,232.8937c-1.5215,0-2.1934,1.2646-2.2412,2.1768h4.4346c-.0166-.8477-.6572-2.1768-2.1934-2.1768Z"/>
    <path d="M222.4751,239.7131c-1.2803,0-2.3203-.5283-2.9609-1.3613l.7363-.8965c.6406.6729,1.5371,1.0889,2.2402,1.0889.7051,0,1.457-.2559,1.457-1.0889,0-.832-1.2012-1.0879-1.7129-1.2637-1.1201-.3848-2.2402-.7852-2.2402-2.2256,0-1.4082,1.2158-2.1768,2.5605-2.1768s2.1133.4805,2.5938.9922l-.6406.9443c-.4482-.4639-1.1846-.8154-1.9209-.8154s-1.2168.3193-1.2168.9443c0,.624.7363.8955,1.4893,1.1357.416.1445.7031.2402,1.0234.3682.8486.3525,1.4893.9609,1.4893,1.9531,0,1.6328-1.4248,2.4014-2.8975,2.4014Z"/>
    <path d="M229.8188,239.7131c-1.9053,0-2.002-1.5693-2.002-3.0576v-3.4736h-1.1191v-1.2324h1.1191v-2.2725h1.5371v2.2725h1.8242v1.2324h-1.8242v3.4414c0,.6406.0156,1.0723.1924,1.3926.1436.2402.3525.3848.7842.3848.4482,0,.7842-.1768.7842-.1768l.0967,1.2324c-.4004.1768-.8652.2568-1.3926.2568Z"/>
    <path d="M237.5473,239.5363l-.0166-.96c-.3037.3203-1.0244,1.1367-2.417,1.1367-1.4082,0-2.625-.8809-2.625-2.3535,0-1.4883,1.2168-2.2412,2.9775-2.3213l2.0322-.0791v-.3047c0-1.1523-.7832-1.7285-1.8887-1.7285-1.1035,0-2.0332.4961-2.2891.6562l-.4639-1.0244c.5605-.3203,1.585-.7686,2.8486-.7686,2.2256,0,3.3301,1.1211,3.3301,3.3291v4.418h-1.4883ZM235.7387,235.9992c-1.2324.0635-1.7285.5918-1.7285,1.3125s.5596,1.3125,1.5684,1.3125c.9922,0,1.6484-.6719,1.9365-1.1045v-1.6328l-1.7764.1123Z"/>
    <path d="M245.8989,239.7131c-1.1045,0-2.0488-.4482-2.6729-1.377h-.0322v1.2002h-1.4727v-11.0439h1.5215v4.626h.0312c.5449-.833,1.457-1.3291,2.6572-1.3291,2.2256,0,3.665,1.6973,3.665,3.9375,0,2.2568-1.4395,3.9863-3.6973,3.9863ZM245.6108,233.0383c-1.5205,0-2.4326,1.1523-2.4326,2.6729s.9121,2.6895,2.4326,2.6895,2.417-1.1689,2.417-2.6895-.8965-2.6729-2.417-2.6729Z"/>
    <path d="M251.9126,239.5363v-11.0439h1.5215v11.0439h-1.5215Z"/>
    <path d="M257.0971,230.3811c-.5928,0-1.0088-.4004-1.0088-.9443,0-.5449.416-.9443,1.0088-.9443.5762,0,.9932.3994.9932.9443,0,.5439-.417.9443-.9932.9443ZM256.3286,239.5363v-7.6025h1.5371v7.6025h-1.5371Z"/>
    <path d="M262.9057,239.7131c-1.2803,0-2.3213-.5283-2.9609-1.3613l.7363-.8965c.6396.6729,1.5361,1.0889,2.2412,1.0889.7031,0,1.4561-.2559,1.4561-1.0889,0-.832-1.2002-1.0879-1.7129-1.2637-1.1201-.3848-2.2412-.7852-2.2412-2.2256,0-1.4082,1.2168-2.1768,2.5615-2.1768s2.1123.4805,2.5928.9922l-.6406.9443c-.4473-.4639-1.1836-.8154-1.9199-.8154s-1.2168.3193-1.2168.9443c0,.624.7363.8955,1.4883,1.1357.416.1445.7051.2402,1.0254.3682.8477.3525,1.4883.9609,1.4883,1.9531,0,1.6328-1.4248,2.4014-2.8975,2.4014Z"/>
    <path d="M273.0981,239.5363v-4.3057c0-1.0879-.1758-2.1768-1.5684-2.1768s-1.9844,1.2002-1.9844,2.7207v3.7617h-1.5215v-11.0439h1.5215v4.6416h.0312c.4004-.752,1.2324-1.3447,2.3379-1.3447,2.1924,0,2.7207,1.4092,2.7207,3.2178v4.5293h-1.5371Z"/>
    <path d="M286.8442,239.5363v-4.4336c0-.8799-.1602-2.0488-1.3926-2.0488-1.2168,0-1.8252,1.1689-1.8252,2.5293v3.9531h-1.5361v-4.4336c0-1.1201-.2725-2.0488-1.377-2.0488-1.2168,0-1.8242,1.1689-1.8242,2.5293v3.9531h-1.5371v-7.6025h1.5371l-.0166,1.2002h.0479c.3516-.7041,1.1846-1.3447,2.1934-1.3447,1.1201,0,1.9043.5127,2.2559,1.5049.5127-.9609,1.3457-1.5049,2.418-1.5049,2.0322,0,2.5762,1.4893,2.5762,3.1377v4.6094h-1.5195Z"/>
    <path d="M297.9458,236.0949h-5.8574c.0801,1.5049,1.04,2.417,2.4492,2.417,1.4238,0,2.3359-.7686,2.5127-.8799l.6396.8799c-.0957.0801-1.0723,1.2012-3.3447,1.2012-2.2568,0-3.8096-1.5693-3.8096-3.9863,0-2.4004,1.7441-3.9375,3.8574-3.9375s3.6016,1.5049,3.6016,3.6338c0,.2881-.0488.6719-.0488.6719ZM294.3452,232.8937c-1.5205,0-2.1934,1.2646-2.2412,2.1768h4.4336c-.0156-.8477-.6562-2.1768-2.1924-2.1768Z"/>
    <path d="M305.2251,239.5363v-4.2412c0-1.2812-.2236-2.2412-1.584-2.2412-1.4248,0-1.9531,1.2002-1.9531,2.6572v3.8252h-1.5361v-7.6025h1.5361l-.0156,1.2002h.0479c.4004-.752,1.2168-1.3447,2.3213-1.3447,2.1602,0,2.7207,1.4248,2.7207,3.249v4.498h-1.5371Z"/>
    <path d="M311.7524,239.7131c-1.9043,0-2.001-1.5693-2.001-3.0576v-3.4736h-1.1201v-1.2324h1.1201v-2.2725h1.5361v2.2725h1.8252v1.2324h-1.8252v3.4414c0,.6406.0166,1.0723.1934,1.3926.1436.2402.3516.3848.7832.3848.4492,0,.7852-.1768.7852-.1768l.0957,1.2324c-.4004.1768-.8643.2568-1.3926.2568Z"/>
    <path d="M322.4087,239.7131c-2.2734,0-4.0332-1.585-4.0332-3.9541,0-2.3525,1.7598-3.9697,4.0332-3.9697,2.2568,0,4.0176,1.6172,4.0176,3.9697,0,2.3691-1.7607,3.9541-4.0176,3.9541ZM322.4087,233.0383c-1.5371,0-2.4814,1.1846-2.4814,2.6729,0,1.5049.9443,2.6895,2.4814,2.6895,1.5205,0,2.4648-1.1846,2.4648-2.6895,0-1.4883-.9443-2.6729-2.4648-2.6729Z"/>
    <path d="M332.5044,229.6281s-.4316-.1436-.8643-.1436c-1.0088,0-1.1689.752-1.1689,1.6162v.8486h1.8086v1.2324h-1.8086v6.3545h-1.5195v-6.3545h-1.0889v-1.2324h1.0889v-.7686c0-.9922.1914-1.6328.5117-2.0322.3359-.416.9443-.833,1.8242-.833.8809,0,1.3125.1768,1.3125.1768l-.0957,1.1357Z"/>
    <path d="M334.3276,239.6965c-.624,0-1.0723-.3838-1.0723-.9922,0-.624.4482-1.0088,1.0723-1.0088.6084,0,1.0566.3848,1.0566,1.0088,0,.6084-.4482.9922-1.0566.9922Z"/>
    <path d="M339.7827,239.6965c-.624,0-1.0723-.3838-1.0723-.9922,0-.624.4482-1.0088,1.0723-1.0088.6084,0,1.0566.3848,1.0566,1.0088,0,.6084-.4482.9922-1.0566.9922Z"/>
    <path d="M345.2387,239.6965c-.624,0-1.0723-.3838-1.0723-.9922,0-.624.4482-1.0088,1.0723-1.0088.6094,0,1.0566.3848,1.0566,1.0088,0,.6084-.4473.9922-1.0566.9922Z"/>
  </g>
</svg>